<svg xmlns="http://www.w3.org/2000/svg" width="15" height="15" viewBox="0 0 15 15">
  <g id="Group_2312" data-name="Group 2312" transform="translate(-244 -479.524)">
    <path id="Path_2550" data-name="Path 2550" d="M7.5,0A7.5,7.5,0,1,1,0,7.5,7.5,7.5,0,0,1,7.5,0Z" transform="translate(244 479.524)" fill="#ba1414"/>
    <path id="Path_2551" data-name="Path 2551" d="M19.973,19.375l2.655-2.655a.422.422,0,1,0-.6-.6l-2.655,2.655-2.655-2.655a.422.422,0,1,0-.6.6l2.655,2.655-2.655,2.655a.422.422,0,1,0,.6.6l2.655-2.655,2.655,2.655a.422.422,0,0,0,.6-.6Z" transform="translate(232.124 467.648)" fill="#fff"/>
  </g>
</svg>
