<svg xmlns="http://www.w3.org/2000/svg" width="23.645" height="13.368" viewBox="0 0 23.645 13.368">
  <path id="Path_11136" data-name="Path 11136" d="M21.142,27A13.884,13.884,0,0,0,9.32,33.684a13.8,13.8,0,0,0,23.645,0A13.884,13.884,0,0,0,21.142,27Zm0,11.625a4.94,4.94,0,1,1,4.94-4.94A4.948,4.948,0,0,1,21.142,38.625Zm0-8.718a3.778,3.778,0,1,0,3.778,3.778A3.782,3.782,0,0,0,21.142,29.906Zm0,2.325a1.439,1.439,0,0,0-.915.334l-.2.2a1.439,1.439,0,0,0-.334.915.581.581,0,0,1-1.162,0,2.619,2.619,0,0,1,2.616-2.616.581.581,0,1,1,0,1.162Z" transform="translate(-9.32 -27)" fill="#6bc100"/>
</svg>
