<svg xmlns="http://www.w3.org/2000/svg" width="15" height="15" viewBox="0 0 15 15">
  <g id="Group_2311" data-name="Group 2311" transform="translate(-244 -418)">
    <path id="Path_2549" data-name="Path 2549" d="M7.5,0A7.5,7.5,0,1,1,0,7.5,7.5,7.5,0,0,1,7.5,0Z" transform="translate(244 418)" fill="#baa114"/>
    <g id="_5" data-name="5" transform="translate(241 415.686)">
      <path id="Path_2548" data-name="Path 2548" d="M11.107,6a.78.78,0,0,0-.78.78v3.58L8.213,12.466a.78.78,0,1,0,1.1,1.1l2.34-2.34a.78.78,0,0,0,.234-.546V6.78A.78.78,0,0,0,11.107,6Z" fill="#fff"/>
    </g>
  </g>
</svg>
