<svg xmlns="http://www.w3.org/2000/svg" width="327" height="315" viewBox="0 0 327 315">
  <g id="Group_2309" data-name="Group 2309" transform="translate(0 84.574)">
    <g id="Group_2290" data-name="Group 2290" transform="translate(96.471 5.011)">
      <ellipse id="Ellipse_150" data-name="Ellipse 150" cx="68" cy="67.5" rx="68" ry="67.5" transform="translate(-0.472 0.414)" fill="#6bc105"/>
    </g>
    <g id="Group_2295" data-name="Group 2295" transform="translate(0 0)" opacity="0.317">
      <circle id="Ellipse_156" data-name="Ellipse 156" cx="8.5" cy="8.5" r="8.5" transform="translate(64 11.425)" fill="#6bc105"/>
      <ellipse id="Ellipse_179" data-name="Ellipse 179" cx="8.5" cy="9" rx="8.5" ry="9" transform="translate(263 140.425) rotate(180)" fill="#6bc105"/>
      <circle id="Ellipse_157" data-name="Ellipse 157" cx="5" cy="5" r="5" transform="translate(86 0.425)" fill="#6bc105"/>
      <circle id="Ellipse_186" data-name="Ellipse 186" cx="5" cy="5" r="5" transform="translate(241 151.425) rotate(180)" fill="#6bc105"/>
      <circle id="Ellipse_162" data-name="Ellipse 162" cx="3.5" cy="3.5" r="3.5" transform="translate(44 31.425)" fill="#6bc105"/>
      <ellipse id="Ellipse_174" data-name="Ellipse 174" cx="3.5" cy="4" rx="3.5" ry="4" transform="translate(283 120.425) rotate(180)" fill="#6bc105"/>
      <circle id="Ellipse_165" data-name="Ellipse 165" cx="3.5" cy="3.5" r="3.5" transform="translate(8 114.425)" fill="#6bc105"/>
      <circle id="Ellipse_183" data-name="Ellipse 183" cx="3.5" cy="3.5" r="3.5" transform="translate(319 37.425) rotate(180)" fill="#6bc105"/>
      <circle id="Ellipse_166" data-name="Ellipse 166" cx="3.5" cy="3.5" r="3.5" transform="translate(44 95.425)" fill="#6bc105"/>
      <ellipse id="Ellipse_181" data-name="Ellipse 181" cx="3.5" cy="4" rx="3.5" ry="4" transform="translate(283 56.425) rotate(180)" fill="#6bc105"/>
      <ellipse id="Ellipse_169" data-name="Ellipse 169" cx="4" cy="3.5" rx="4" ry="3.5" transform="translate(61 110.425)" fill="#6bc105"/>
      <circle id="Ellipse_182" data-name="Ellipse 182" cx="4" cy="4" r="4" transform="translate(266 41.425) rotate(180)" fill="#6bc105"/>
      <circle id="Ellipse_170" data-name="Ellipse 170" cx="4" cy="4" r="4" transform="translate(60 131.425)" fill="#6bc105"/>
      <circle id="Ellipse_185" data-name="Ellipse 185" cx="4" cy="4" r="4" transform="translate(267 20.425) rotate(180)" fill="#6bc105"/>
      <circle id="Ellipse_171" data-name="Ellipse 171" cx="5" cy="5" r="5" transform="translate(86 141.425)" fill="#6bc105"/>
      <circle id="Ellipse_187" data-name="Ellipse 187" cx="5" cy="5" r="5" transform="translate(241 10.425) rotate(180)" fill="#6bc105"/>
      <circle id="Ellipse_167" data-name="Ellipse 167" cx="4" cy="4" r="4" transform="translate(66 76.425)" fill="#6bc105"/>
      <circle id="Ellipse_180" data-name="Ellipse 180" cx="4" cy="4" r="4" transform="translate(261 75.425) rotate(180)" fill="#6bc105"/>
      <circle id="Ellipse_168" data-name="Ellipse 168" cx="7.5" cy="7.5" r="7.5" transform="translate(34 114.425)" fill="#6bc105"/>
      <circle id="Ellipse_184" data-name="Ellipse 184" cx="7.5" cy="7.5" r="7.5" transform="translate(293 37.425) rotate(180)" fill="#6bc105"/>
      <circle id="Ellipse_158" data-name="Ellipse 158" cx="5" cy="5" r="5" transform="translate(51 50.425)" fill="#6bc105"/>
      <circle id="Ellipse_175" data-name="Ellipse 175" cx="5" cy="5" r="5" transform="translate(276 101.425) rotate(180)" fill="#6bc105"/>
      <ellipse id="Ellipse_159" data-name="Ellipse 159" cx="6" cy="6.5" rx="6" ry="6.5" transform="translate(33 72.425)" fill="#6bc105"/>
      <ellipse id="Ellipse_177" data-name="Ellipse 177" cx="6" cy="6.5" rx="6" ry="6.5" transform="translate(294 79.425) rotate(180)" fill="#6bc105"/>
      <circle id="Ellipse_160" data-name="Ellipse 160" cx="6.5" cy="6.5" r="6.5" transform="translate(0 38.425)" fill="#6bc105"/>
      <ellipse id="Ellipse_173" data-name="Ellipse 173" cx="6.5" cy="6" rx="6.5" ry="6" transform="translate(327 112.425) rotate(180)" fill="#6bc105"/>
      <circle id="Ellipse_161" data-name="Ellipse 161" cx="5" cy="5" r="5" transform="translate(26 11.425)" fill="#6bc105"/>
      <circle id="Ellipse_172" data-name="Ellipse 172" cx="5" cy="5" r="5" transform="translate(301 140.425) rotate(180)" fill="#6bc105"/>
      <circle id="Ellipse_163" data-name="Ellipse 163" cx="5" cy="5" r="5" transform="translate(21 50.425)" fill="#6bc105"/>
      <circle id="Ellipse_176" data-name="Ellipse 176" cx="5" cy="5" r="5" transform="translate(306 101.425) rotate(180)" fill="#6bc105"/>
      <circle id="Ellipse_164" data-name="Ellipse 164" cx="5" cy="5" r="5" transform="translate(6 80.425)" fill="#6bc105"/>
      <circle id="Ellipse_178" data-name="Ellipse 178" cx="5" cy="5" r="5" transform="translate(321 71.425) rotate(180)" fill="#6bc105"/>
    </g>
  </g>
</svg>
