<svg xmlns="http://www.w3.org/2000/svg" width="10.927" height="18.653" viewBox="0 0 10.927 18.653">
  <path id="Path_5881" data-name="Path 5881" d="M116.227,35.653H126.7a.236.236,0,0,0,.229-.242V33.07a.223.223,0,0,0-.229-.227h-.435V30.9a4.794,4.794,0,0,0-3.308-4.57,4.8,4.8,0,0,0,3.308-4.57V19.81h.435a.223.223,0,0,0,.229-.227V17.242A.236.236,0,0,0,126.7,17H116.227a.236.236,0,0,0-.229.242v2.341a.223.223,0,0,0,.229.227h.435v1.947a4.794,4.794,0,0,0,3.308,4.57,4.8,4.8,0,0,0-3.308,4.57v1.947h-.435a.223.223,0,0,0-.229.227v2.341A.236.236,0,0,0,116.227,35.653Zm.239-18.185h9.99v1.873h-9.99Zm1.928,7.357a4.307,4.307,0,0,1-1.265-3.069V19.81h8.663v1.947a4.336,4.336,0,0,1-7.4,3.069Zm0,3a4.335,4.335,0,0,1,7.4,3.026h-8.67A4.308,4.308,0,0,1,118.393,27.828Zm-1.263,3.494h8.663v1.522H117.13Zm-.663,1.99h9.99v1.873h-9.99Z" transform="translate(-115.998 -17)"/>
</svg>
