<svg xmlns="http://www.w3.org/2000/svg" width="30.109" height="22.116" viewBox="0 0 30.109 22.116">
  <g id="Group_13923" data-name="Group 13923" transform="translate(-261.852 -504.898)">
    <g id="Group_13923-2" data-name="Group 13923" transform="translate(-89.169 337.322)">
      <path id="Path_12671" data-name="Path 12671" d="M1356.652,221.659a.336.336,0,0,1,.434-.292c.163.045.325.091.488.137.057.016.059.011.081-.042a.617.617,0,0,1,.073-.123c.015-.021.033-.039.01-.062s-.043-.01-.059.009c-.035.044-.069.089-.107.14l-.406-.115a.445.445,0,0,1,.535-.407c.179.045.357.1.535.141a.151.151,0,0,0,.078,0c.056-.017.109-.043.166-.059a.337.337,0,0,0,.2-.167c.036-.061.069-.125.106-.186a.05.05,0,0,1,.043-.02.5.5,0,0,1,.332.3.064.064,0,0,1-.019.08,1.172,1.172,0,0,0-.1.1c-.011.012-.024.036-.02.046a.073.073,0,0,0,.045.03.654.654,0,0,0,.094.012c.028,0,.037.017.034.043-.007.073-.012.078-.086.073s-.146,0-.219-.006a.248.248,0,0,0-.156.047.8.8,0,0,1-.505.146l-.047-.005a.064.064,0,0,0-.077.049h0c-.015.056-.031.113-.047.17a.327.327,0,0,1-.391.247l-.035-.01-.946-.267Z" transform="translate(-978.215 -45.311)" fill="#3b465c"/>
      <path id="Path_12672" data-name="Path 12672" d="M772.816,650.308a1.641,1.641,0,0,1-.08.214.309.309,0,0,1-.346.146c-.316-.086-.631-.176-.947-.265l-.012-.006c.028-.2.117-.357.332-.372a.329.329,0,0,1,.11.013c.3.084.606.17.909.256Z" transform="translate(-402.163 -468)" fill="#3b465c"/>
      <path id="Path_12672-2" data-name="Path 12672" d="M882.845,578.7a1.65,1.65,0,0,1-.08.214.309.309,0,0,1-.346.146c-.316-.086-.631-.176-.947-.265l-.012-.006c.028-.2.117-.357.332-.372a.331.331,0,0,1,.11.013c.3.084.606.17.909.256Z" transform="translate(-510.468 -397.516)" fill="#3b465c"/>
      <path id="Path_12673" data-name="Path 12673" d="M804.831,624.748a.359.359,0,0,1-.259.331.341.341,0,0,1-.164,0c-.318-.086-.634-.176-.95-.266l-.015-.006a.343.343,0,0,1,.453-.325c.3.088.6.169.892.252Z" transform="translate(-433.671 -442.841)" fill="#3b465c"/>
      <path id="Path_12674" data-name="Path 12674" d="M842.31,603.478a.331.331,0,0,1,.424-.307l.914.257.028.01a.333.333,0,0,1-.417.308c-.311-.084-.62-.174-.931-.262Z" transform="translate(-471.93 -421.867)" fill="#3b465c"/>
      <path id="Path_12672-3" data-name="Path 12672" d="M994.465,507.022a1.65,1.65,0,0,1-.08.214.309.309,0,0,1-.346.146c-.316-.086-.631-.176-.947-.265l-.012-.006c.028-.2.117-.357.332-.372a.331.331,0,0,1,.11.013c.3.084.606.17.909.256Z" transform="translate(-620.34 -326.959)" fill="#3b465c"/>
      <path id="Path_12673-2" data-name="Path 12673" d="M916.451,553.068a.359.359,0,0,1-.259.331.341.341,0,0,1-.164,0c-.318-.086-.634-.176-.95-.266l-.015-.006a.343.343,0,0,1,.453-.325c.3.088.595.169.892.252Z" transform="translate(-543.543 -372.284)" fill="#3b465c"/>
      <path id="Path_12674-2" data-name="Path 12674" d="M953.93,531.8a.331.331,0,0,1,.424-.307l.914.257.028.01a.334.334,0,0,1-.417.308c-.311-.084-.62-.174-.93-.262Z" transform="translate(-581.802 -351.311)" fill="#3b465c"/>
      <path id="Path_12672-4" data-name="Path 12672" d="M1104.493,435.415a1.652,1.652,0,0,1-.08.214.309.309,0,0,1-.346.146c-.317-.086-.631-.176-.947-.265l-.012-.006c.028-.2.117-.357.332-.372a.332.332,0,0,1,.11.013c.3.084.606.17.909.256Z" transform="translate(-728.644 -256.473)" fill="#3b465c"/>
      <path id="Path_12673-3" data-name="Path 12673" d="M1026.48,481.462a.359.359,0,0,1-.259.331.341.341,0,0,1-.164,0c-.318-.086-.634-.176-.95-.266l-.015-.006a.344.344,0,0,1,.453-.325c.3.088.595.169.892.252Z" transform="translate(-651.848 -301.799)" fill="#3b465c"/>
      <path id="Path_12674-3" data-name="Path 12674" d="M1063.959,460.192a.331.331,0,0,1,.424-.307l.914.257.028.009a.333.333,0,0,1-.417.308c-.311-.084-.62-.174-.931-.262Z" transform="translate(-690.107 -280.826)" fill="#3b465c"/>
      <path id="Path_12672-5" data-name="Path 12672" d="M1214.572,365.362a1.615,1.615,0,0,1-.08.214.308.308,0,0,1-.346.146c-.316-.086-.631-.176-.947-.265l-.012-.006c.028-.2.117-.357.332-.372a.332.332,0,0,1,.11.013c.3.084.606.17.909.256Z" transform="translate(-836.998 -187.518)" fill="#3b465c"/>
      <path id="Path_12673-4" data-name="Path 12673" d="M1136.558,411.408a.359.359,0,0,1-.259.331.341.341,0,0,1-.165,0c-.318-.086-.634-.176-.95-.266l-.015-.006a.344.344,0,0,1,.453-.325c.3.088.6.169.892.252Z" transform="translate(-760.202 -232.843)" fill="#3b465c"/>
      <path id="Path_12674-4" data-name="Path 12674" d="M1174.037,390.139a.331.331,0,0,1,.424-.307l.914.257.028.009a.333.333,0,0,1-.417.308c-.311-.084-.62-.174-.931-.262Z" transform="translate(-798.461 -211.87)" fill="#3b465c"/>
      <path id="Path_12672-6" data-name="Path 12672" d="M1324.6,293.756a1.651,1.651,0,0,1-.08.214.309.309,0,0,1-.346.146c-.316-.086-.631-.176-.947-.265l-.012-.006c.028-.2.117-.357.332-.372a.33.33,0,0,1,.11.013c.3.084.606.17.909.256Z" transform="translate(-945.303 -117.033)" fill="#3b465c"/>
      <path id="Path_12673-5" data-name="Path 12673" d="M1246.587,339.8a.359.359,0,0,1-.259.331.341.341,0,0,1-.164,0c-.318-.086-.635-.176-.95-.266l-.015-.006a.344.344,0,0,1,.453-.325c.3.088.6.169.892.252Z" transform="translate(-868.507 -162.358)" fill="#3b465c"/>
      <path id="Path_12674-5" data-name="Path 12674" d="M1284.066,318.533a.331.331,0,0,1,.424-.307l.914.257.028.01a.333.333,0,0,1-.347.319.328.328,0,0,1-.069-.01c-.311-.084-.62-.174-.931-.262Z" transform="translate(-906.766 -141.386)" fill="#3b465c"/>
      <path id="Path_12675" data-name="Path 12675" d="M1433.912,191.177l-.409-.115a1.377,1.377,0,0,1,.041-.143.512.512,0,0,0,.007-.337c-.01-.034-.017-.069-.023-.1a.073.073,0,0,1,.047-.092h0a.464.464,0,0,1,.5.049,1.235,1.235,0,0,1,.146.142.064.064,0,0,1,.011.09l-.011.011a1.86,1.86,0,0,1-.136.137.466.466,0,0,0-.146.257C1433.933,191.107,1433.923,191.141,1433.912,191.177Z" transform="translate(-1053.862 -15.51)" fill="#3b465c"/>
      <path id="Path_12676" data-name="Path 12676" d="M1465.186,175.638a.46.46,0,0,1,.125-.268c.05-.045.1-.094.146-.142a.146.146,0,0,0,.028-.19.06.06,0,0,1,0-.036c.026-.117.055-.234.08-.351a.081.081,0,0,1,.073-.073.408.408,0,0,1,.3.088c.028.019.026.049.017.078-.017.056-.034.112-.05.168s.006.073.056.059.083-.023.124-.034a.066.066,0,0,1,.088.053c.023.063.018.093-.026.115q-.159.08-.32.156a.057.057,0,0,1-.039,0c-.029-.01-.058-.025-.086-.037a.094.094,0,0,0-.128.038l0,.006c-.037.064-.073.129-.109.194a.256.256,0,0,1-.152.13Z" transform="translate(-1085.049)" fill="#3b465c"/>
    </g>
    <g id="Group_2303" data-name="Group 2303" transform="translate(253.119 494.566)">
      <g id="Group_2302" data-name="Group 2302">
        <path id="Path_5540" data-name="Path 5540" d="M28.244,24.91a.229.229,0,0,0,.222-.285,3.186,3.186,0,0,0-.358-.785,2.119,2.119,0,0,1-.461.126,3.124,3.124,0,0,1,.376.771A.228.228,0,0,0,28.244,24.91Z" fill="#3b465c"/>
        <path id="Path_5541" data-name="Path 5541" d="M28.671,23.56a3.83,3.83,0,0,1-.417.218c.27.288.592.79.509,1.075-.04.136-.19.234-.447.29-.825.179-1.263-.7-1.425-1.127-.161,0-.326.007-.483.007.2.637.754,1.6,1.69,1.6a1.612,1.612,0,0,0,.6-.124.822.822,0,0,0,.475-.446.744.744,0,0,0,.028-.074C29.355,24.454,28.913,23.844,28.671,23.56Z" fill="#3b465c"/>
      </g>
      <path id="Path_5542" data-name="Path 5542" d="M31.021,29.9c-.107-.628-.968-1.241-1.176-1.381a6.967,6.967,0,0,0-2.179-1.866l-.006-.405a1.662,1.662,0,0,0,.841.046,1.064,1.064,0,0,0,.673-1.235.822.822,0,0,1-.475.446.459.459,0,0,1-.322.349A2.867,2.867,0,0,1,27,25.525c-.383-.154-.559-.221-.7-.181a.229.229,0,0,0,.093.447c.107.015.467.175.815.3l.01.7a.229.229,0,0,0,.133.2A6.541,6.541,0,0,1,29.5,28.819a.217.217,0,0,0,.06.057c.24.156.939.692,1.008,1.1.02.118-.176.366-.529.483a1.032,1.032,0,0,1-1.31-.626,5.209,5.209,0,0,0-2.707-1.961.228.228,0,0,0-.212-.4,9.712,9.712,0,0,1-3.526.84,4.82,4.82,0,0,0-.455-.243.229.229,0,1,0-.192.416A6.532,6.532,0,0,1,23.8,30.3a.232.232,0,0,0,.06.057c.24.156.94.692,1.008,1.1.021.119-.176.366-.529.484a1.032,1.032,0,0,1-1.31-.627,5.338,5.338,0,0,0-2.829-2.01c-.13-.052-.27-.11-.367-.154a16.038,16.038,0,0,0,1.02-5.047.229.229,0,1,0-.457-.019,19.976,19.976,0,0,1-.463,3.331C17.3,26.619,16.2,24.2,15.146,21.851c-.192-.427-.444-.985-.666-1.435l-.007-.011-.014-.021a.292.292,0,0,0-.029-.034.318.318,0,0,0-.035-.026l-.021-.012-.013-.006-.006,0-.023-.007a.16.16,0,0,0-.042-.007.2.2,0,0,0-.043,0,.123.123,0,0,0-.042.01l-.026.009-.006,0-.01.007-.022.014a.286.286,0,0,0-.033.029.412.412,0,0,0-.027.035l-.012.022-.006.012a14.111,14.111,0,0,0-.626,8.484.228.228,0,0,0,.137.15,2.353,2.353,0,0,1,1.117.708s-.029.059-.217.13a1.351,1.351,0,0,1-1.592-.626,19.37,19.37,0,0,1-1.16-11.123,3.1,3.1,0,0,1,1.408-2.287,2.921,2.921,0,0,1,1.278-.384A6.355,6.355,0,0,1,18.117,16.8a15.428,15.428,0,0,1,1.517,1.264,14.832,14.832,0,0,0,1.557,1.471,5.839,5.839,0,0,0,1.271.644.3.3,0,0,0-.1.118c0,.009-.029.067-.062.159a2.9,2.9,0,0,0-.194,1.3c.093.563.347,1.434.357,1.471a.23.23,0,0,0,.419.05,21.479,21.479,0,0,0,1.757-3.816c.649-.259,2.7-.972,3.855-.211a2.159,2.159,0,0,1,.837,1.852,1.571,1.571,0,0,0-.6-.044,2.008,2.008,0,0,0-.981.411.355.355,0,0,0-.162.276c0,.206.181.333.28.4.132.092.136.093.326.208a2.659,2.659,0,0,0,.756.366c.232.053.557-.159.8-.372a2.359,2.359,0,0,1-.263,1.263,3.074,3.074,0,0,1-.357-.59.229.229,0,0,0-.347-.085,3.172,3.172,0,0,1-1.266.588,10.487,10.487,0,0,1-1.868,0,.229.229,0,1,0-.089.449,8.747,8.747,0,0,0,1.328.04c.245-.007.481-.02.671-.037.028,0,.057-.009.085-.013a2.257,2.257,0,0,0,.607-.188,4.5,4.5,0,0,0,.587-.323c.149.27.394.639.655.717a.227.227,0,0,0,.256-.093,2.958,2.958,0,0,0,.453-1.8,1.46,1.46,0,0,0-.416-.923,2.715,2.715,0,0,0-1.046-2.487c-1.4-.921-3.739-.056-4.352.2a3.122,3.122,0,0,0-1.522.774,6.023,6.023,0,0,1-1.416-.682,15.243,15.243,0,0,1-1.506-1.43,16.054,16.054,0,0,0-1.562-1.3,6.674,6.674,0,0,0-4.151-1.386c-1.979-4.8-5.144-4.714-5.283-4.707a.229.229,0,0,0-.068.444c1.956.711,3.021,3.921,3.373,5.2a4.012,4.012,0,0,0-.983,2.093,19.837,19.837,0,0,0,1.2,11.407l.013.024a1.906,1.906,0,0,0,1.551.949,1.691,1.691,0,0,0,.6-.116c.338-.128.511-.313.512-.55,0-.49-.834-.905-1.3-1.1A14.019,14.019,0,0,1,14.3,21.1l.046.1a19.316,19.316,0,0,0,1.521,6.773l.012.024a1.91,1.91,0,0,0,1.552.949,1.7,1.7,0,0,0,.6-.116c.338-.128.51-.314.511-.551,0-.487-.829-.9-1.293-1.094a9.334,9.334,0,0,1-.139-1.033,5.832,5.832,0,0,0,2.7,1.7A6.922,6.922,0,0,1,19.34,29.1a.251.251,0,0,0-.012.206c.058.157.231.228.694.416a5.086,5.086,0,0,1,2.6,1.8,1.525,1.525,0,0,0,1.374.932,1.565,1.565,0,0,0,.488-.08c.542-.181.9-.608.836-.994-.107-.629-.968-1.242-1.176-1.382a7.481,7.481,0,0,0-1.226-1.246,10.278,10.278,0,0,0,2.51-.629c.087.037.189.079.3.125a5.085,5.085,0,0,1,2.6,1.8,1.488,1.488,0,0,0,1.861.851C30.726,30.71,31.086,30.283,31.021,29.9Zm-1.979-7.627a3.7,3.7,0,0,1-.657-.337c-.221-.133-.208-.134-.26-.167a1.5,1.5,0,0,1,.659-.253.931.931,0,0,1,.67.154.632.632,0,0,1,.155.188A1.761,1.761,0,0,1,29.042,22.269ZM16.832,27.4a.23.23,0,0,0,.139.158c.554.217,1.107.57,1.117.707,0,0-.029.059-.217.13a1.353,1.353,0,0,1-1.593-.626A18.49,18.49,0,0,1,14.9,22.407a16.864,16.864,0,0,0,1.725,3.142A9.71,9.71,0,0,0,16.832,27.4ZM10.189,11.064c1.02.414,2.481,1.454,3.581,4.056a3.272,3.272,0,0,0-.871.352,3.028,3.028,0,0,0-.258.17A10.517,10.517,0,0,0,10.189,11.064Zm13.928,8.544a20.353,20.353,0,0,1-1.363,2.952c-.074-.281-.156-.62-.2-.88a2.637,2.637,0,0,1,.206-1.159A5.376,5.376,0,0,1,24.117,19.608Z" fill="#3b465c"/>
    </g>
  </g>
</svg>
