<svg xmlns="http://www.w3.org/2000/svg" width="23.901" height="17.461" viewBox="0 0 23.901 17.461">
  <g id="Group_13877" data-name="Group 13877" transform="translate(0.239 0.356)">
    <path id="Path_12663" data-name="Path 12663" d="M16.3,9.844a1.052,1.052,0,0,0-.732.606.866.866,0,0,0-.062.527c.132.757.262,1.517.448,2.262a.8.8,0,0,1-.306.968,3.965,3.965,0,0,0-.419.364,2.281,2.281,0,0,1-1.758.681c-.211-.011-.424,0-.637,0,.046-.752.052-.774.63-.938.322-.091.656-.144,1-.217l.374-.628c-.183-1.229-1.121-2.107-1.529-3.271A7.432,7.432,0,0,1,9.243,8.733l-1.189.308c0,.211-.006.424,0,.637a9.439,9.439,0,0,1-.447,3.089,3.454,3.454,0,0,0,.425,2.913,2.132,2.132,0,0,0,.387.381c.11.105.223.208.331.316.02.02.022.057.034.091a.38.38,0,0,1-.424.384A4.241,4.241,0,0,1,7.39,16.6a.482.482,0,0,1-.214-.283c-.282-.78-.53-1.574-.837-2.344a2.021,2.021,0,0,1-.143-.989c.013-.123.018-.246.024-.369a1.625,1.625,0,0,0-.49-1.532c-.391.289-.787.573-1.173.871a2.251,2.251,0,0,0-.733,1.257c-.1.355-.136.726-.211,1.087a.429.429,0,0,1-.435.395.406.406,0,0,1-.388-.338,1.237,1.237,0,0,1,.142-1.218,1.455,1.455,0,0,0,.271-.862,1.961,1.961,0,0,1,.816-1.58,2.886,2.886,0,0,0,.379-.461c-.212-.381-.395-.767-.629-1.118a1.122,1.122,0,0,1-.155-1.047,1.7,1.7,0,0,0,.132-.709A1.065,1.065,0,0,0,2.961,6.34a3.42,3.42,0,0,1-1.208-.662A2.263,2.263,0,0,0,1.2,5.351,1.992,1.992,0,0,1,.071,4.112c-.176-.423.024-.719.08-1.062.137-.838.8-1.189,1.481-1.5a.153.153,0,0,1,.089-.019,2.2,2.2,0,0,0,1.6-.331,1.794,1.794,0,0,1-.912,1.241c-.218.115-.46.188-.667.319A.883.883,0,0,0,1.53,4.171a2.1,2.1,0,0,0,.727.55A5.7,5.7,0,0,0,3.5,5.068a1.62,1.62,0,0,0,.618-.109.716.716,0,0,0,.246-.126,5.664,5.664,0,0,1,3.406-.988c1.2-.026,2.4-.02,3.6,0a1.807,1.807,0,0,0,.984-.174,2.218,2.218,0,0,1,1.607-.232,1.153,1.153,0,0,0,1.275-.5,1.062,1.062,0,0,1-.039-.367c.026-.137.1-.328.211-.375A7.441,7.441,0,0,0,17.289.753a3.268,3.268,0,0,1,3.63-.364A1.993,1.993,0,0,1,21.91,1.8c.365.159.754.332,1.147.5.215.092.381.223.351.479a.6.6,0,0,1-.437.547,1.852,1.852,0,0,1-1.088.017,3.42,3.42,0,0,0-.5-.088,1.193,1.193,0,0,0,.6.928c.358.176.343.2.491.631-.2.11-.416.22-.625.336a.763.763,0,0,1-.793-.032c-.239-.138-.455-.315-.687-.465a.591.591,0,0,0-.975.388,1.8,1.8,0,0,1-.613,1.287,1.448,1.448,0,0,0-.407,1.186,4.647,4.647,0,0,1-.121,1.557,1.6,1.6,0,0,0,.149,1.157c.443.913.845,1.846,1.246,2.779A2.947,2.947,0,0,0,21.1,14.6c.22.1.448.215.486.5a.725.725,0,0,1-.819.277c-.322-.088-.675-.136-.829-.508a1.94,1.94,0,0,0-.853-.94.5.5,0,0,1-.2-.173c-.42-.861-1.168-1.5-1.565-2.383a2.582,2.582,0,0,0-.516-.644,1.5,1.5,0,0,1-.5-.89" transform="translate(0.001 0)" fill="none" stroke="#3b465c" stroke-width="0.5"/>
  </g>
</svg>
