<svg xmlns="http://www.w3.org/2000/svg" width="22.296" height="22.116" viewBox="0 0 22.296 22.116">
  <g id="Group_2303" data-name="Group 2303" transform="translate(-8.732 -10.332)">
    <g id="Group_2302" data-name="Group 2302">
      <path id="Path_5540" data-name="Path 5540" d="M28.244,24.91a.229.229,0,0,0,.222-.285,3.186,3.186,0,0,0-.358-.785,2.119,2.119,0,0,1-.461.126,3.124,3.124,0,0,1,.376.771A.228.228,0,0,0,28.244,24.91Z" fill="#f60"/>
      <path id="Path_5541" data-name="Path 5541" d="M28.671,23.56a3.83,3.83,0,0,1-.417.218c.27.288.592.79.509,1.075-.04.136-.19.234-.447.29-.825.179-1.263-.7-1.425-1.127-.161,0-.326.007-.483.007.2.637.754,1.6,1.69,1.6a1.612,1.612,0,0,0,.6-.124.822.822,0,0,0,.475-.446.744.744,0,0,0,.028-.074C29.355,24.454,28.913,23.844,28.671,23.56Z" fill="#f60"/>
    </g>
    <path id="Path_5542" data-name="Path 5542" d="M31.021,29.9c-.107-.628-.968-1.241-1.176-1.381a6.967,6.967,0,0,0-2.179-1.866l-.006-.405a1.662,1.662,0,0,0,.841.046,1.064,1.064,0,0,0,.673-1.235.822.822,0,0,1-.475.446.459.459,0,0,1-.322.349A2.867,2.867,0,0,1,27,25.525c-.383-.154-.559-.221-.7-.181a.229.229,0,0,0,.093.447c.107.015.467.175.815.3l.01.7a.229.229,0,0,0,.133.2A6.541,6.541,0,0,1,29.5,28.819a.217.217,0,0,0,.06.057c.24.156.939.692,1.008,1.1.02.118-.176.366-.529.483a1.032,1.032,0,0,1-1.31-.626,5.209,5.209,0,0,0-2.707-1.961.228.228,0,0,0-.212-.4,9.712,9.712,0,0,1-3.526.84,4.82,4.82,0,0,0-.455-.243.229.229,0,1,0-.192.416A6.532,6.532,0,0,1,23.8,30.3a.232.232,0,0,0,.06.057c.24.156.94.692,1.008,1.1.021.119-.176.366-.529.484a1.032,1.032,0,0,1-1.31-.627,5.338,5.338,0,0,0-2.829-2.01c-.13-.052-.27-.11-.367-.154a16.038,16.038,0,0,0,1.02-5.047.229.229,0,1,0-.457-.019,19.976,19.976,0,0,1-.463,3.331C17.3,26.619,16.2,24.2,15.146,21.851c-.192-.427-.444-.985-.666-1.435l-.007-.011-.014-.021a.292.292,0,0,0-.029-.034.318.318,0,0,0-.035-.026l-.021-.012-.013-.006-.006,0-.023-.007a.16.16,0,0,0-.042-.007.2.2,0,0,0-.043,0,.123.123,0,0,0-.042.01l-.026.009-.006,0-.01.007-.022.014a.286.286,0,0,0-.033.029.412.412,0,0,0-.027.035l-.012.022-.006.012a14.111,14.111,0,0,0-.626,8.484.228.228,0,0,0,.137.15,2.353,2.353,0,0,1,1.117.708s-.029.059-.217.13a1.351,1.351,0,0,1-1.592-.626,19.37,19.37,0,0,1-1.16-11.123,3.1,3.1,0,0,1,1.408-2.287,2.921,2.921,0,0,1,1.278-.384A6.355,6.355,0,0,1,18.117,16.8a15.428,15.428,0,0,1,1.517,1.264,14.832,14.832,0,0,0,1.557,1.471,5.839,5.839,0,0,0,1.271.644.3.3,0,0,0-.1.118c0,.009-.029.067-.062.159a2.9,2.9,0,0,0-.194,1.3c.093.563.347,1.434.357,1.471a.23.23,0,0,0,.419.05,21.479,21.479,0,0,0,1.757-3.816c.649-.259,2.7-.972,3.855-.211a2.159,2.159,0,0,1,.837,1.852,1.571,1.571,0,0,0-.6-.044,2.008,2.008,0,0,0-.981.411.355.355,0,0,0-.162.276c0,.206.181.333.28.4.132.092.136.093.326.208a2.659,2.659,0,0,0,.756.366c.232.053.557-.159.8-.372a2.359,2.359,0,0,1-.263,1.263,3.074,3.074,0,0,1-.357-.59.229.229,0,0,0-.347-.085,3.172,3.172,0,0,1-1.266.588,10.487,10.487,0,0,1-1.868,0,.229.229,0,1,0-.089.449,8.747,8.747,0,0,0,1.328.04c.245-.007.481-.02.671-.037.028,0,.057-.009.085-.013a2.257,2.257,0,0,0,.607-.188,4.5,4.5,0,0,0,.587-.323c.149.27.394.639.655.717a.227.227,0,0,0,.256-.093,2.958,2.958,0,0,0,.453-1.8,1.46,1.46,0,0,0-.416-.923,2.715,2.715,0,0,0-1.046-2.487c-1.4-.921-3.739-.056-4.352.2a3.122,3.122,0,0,0-1.522.774,6.023,6.023,0,0,1-1.416-.682,15.243,15.243,0,0,1-1.506-1.43,16.054,16.054,0,0,0-1.562-1.3,6.674,6.674,0,0,0-4.151-1.386c-1.979-4.8-5.144-4.714-5.283-4.707a.229.229,0,0,0-.068.444c1.956.711,3.021,3.921,3.373,5.2a4.012,4.012,0,0,0-.983,2.093,19.837,19.837,0,0,0,1.2,11.407l.013.024a1.906,1.906,0,0,0,1.551.949,1.691,1.691,0,0,0,.6-.116c.338-.128.511-.313.512-.55,0-.49-.834-.905-1.3-1.1A14.019,14.019,0,0,1,14.3,21.1l.046.1a19.316,19.316,0,0,0,1.521,6.773l.012.024a1.91,1.91,0,0,0,1.552.949,1.7,1.7,0,0,0,.6-.116c.338-.128.51-.314.511-.551,0-.487-.829-.9-1.293-1.094a9.334,9.334,0,0,1-.139-1.033,5.832,5.832,0,0,0,2.7,1.7A6.922,6.922,0,0,1,19.34,29.1a.251.251,0,0,0-.012.206c.058.157.231.228.694.416a5.086,5.086,0,0,1,2.6,1.8,1.525,1.525,0,0,0,1.374.932,1.565,1.565,0,0,0,.488-.08c.542-.181.9-.608.836-.994-.107-.629-.968-1.242-1.176-1.382a7.481,7.481,0,0,0-1.226-1.246,10.278,10.278,0,0,0,2.51-.629c.087.037.189.079.3.125a5.085,5.085,0,0,1,2.6,1.8,1.488,1.488,0,0,0,1.861.851C30.726,30.71,31.086,30.283,31.021,29.9Zm-1.979-7.627a3.7,3.7,0,0,1-.657-.337c-.221-.133-.208-.134-.26-.167a1.5,1.5,0,0,1,.659-.253.931.931,0,0,1,.67.154.632.632,0,0,1,.155.188A1.761,1.761,0,0,1,29.042,22.269ZM16.832,27.4a.23.23,0,0,0,.139.158c.554.217,1.107.57,1.117.707,0,0-.029.059-.217.13a1.353,1.353,0,0,1-1.593-.626A18.49,18.49,0,0,1,14.9,22.407a16.864,16.864,0,0,0,1.725,3.142A9.71,9.71,0,0,0,16.832,27.4ZM10.189,11.064c1.02.414,2.481,1.454,3.581,4.056a3.272,3.272,0,0,0-.871.352,3.028,3.028,0,0,0-.258.17A10.517,10.517,0,0,0,10.189,11.064Zm13.928,8.544a20.353,20.353,0,0,1-1.363,2.952c-.074-.281-.156-.62-.2-.88a2.637,2.637,0,0,1,.206-1.159A5.376,5.376,0,0,1,24.117,19.608Z" fill="#3b465c"/>
  </g>
</svg>
