<svg xmlns="http://www.w3.org/2000/svg" width="23.634" height="14.41" viewBox="0 0 23.634 14.41">
  <g id="Group_2367" data-name="Group 2367" transform="translate(-15.796 -17.416)">
    <path id="Path_5736" data-name="Path 5736" d="M15.816,24.467c.259,1.207,1.773,2.017,3.51,2.017a5.675,5.675,0,0,0,1.19-.127,6.931,6.931,0,0,0,1.448-.479,6.018,6.018,0,0,0,5.442.518,34.168,34.168,0,0,1-2.273,3.788,1.669,1.669,0,0,0-1.289,1.351.256.256,0,0,0,.254.29h2.186a.254.254,0,0,0,.2-.1,33.053,33.053,0,0,0,3.239-4.924c.016.036.033.071.048.108a6.413,6.413,0,0,1,.039,3.342,1.516,1.516,0,0,0-1.08,1.307.257.257,0,0,0,.256.264h2.319a.256.256,0,0,0,.238-.163,8.933,8.933,0,0,0,.465-1.916,6.661,6.661,0,0,0,4.457-2.01h.263a.128.128,0,0,1,.121.173l-.864,2.216c-.375.12-1.407.538-1.347,1.46a.256.256,0,0,0,.256.24h2.175a.256.256,0,0,0,.215-.117,22.7,22.7,0,0,0,2.133-4.595.257.257,0,0,0-.138-.315l-.51-.23L37.6,26.138a4.91,4.91,0,0,0,.111-4.191,7.985,7.985,0,0,0-5.441-4.253,8.059,8.059,0,0,0-5.539.461,12.367,12.367,0,0,0-1.891,1.4,6.771,6.771,0,0,1-1.041.715c-.01-.122-.019-.2-.02-.209a.257.257,0,0,0-.317-.217,3.94,3.94,0,0,0-1.653.757,3.613,3.613,0,0,0-.521.593,6.9,6.9,0,0,0-1.852.152c-1.179.253-1.277.793-1.277,1.324,0,.242-.008.333-.112.406a3.3,3.3,0,0,1-1.145.425C16.356,23.631,15.671,23.793,15.816,24.467Zm8.35-1.515a1.733,1.733,0,0,0-.485-.864,2.621,2.621,0,0,0,.1-.446,6.162,6.162,0,0,0,.043-.817,6.245,6.245,0,0,0,1.333-.868,12.206,12.206,0,0,1,1.812-1.348,7.531,7.531,0,0,1,5.175-.417,7.488,7.488,0,0,1,5.093,3.953,4.413,4.413,0,0,1-.121,3.814l-.53-.2a.524.524,0,0,1-.34-.484l.822-1.868a.256.256,0,0,0-.466-.214c-.016.034-.081.183-.845,1.921a.253.253,0,0,0-.021.085,1.051,1.051,0,0,0,.672,1.041l2.154.8.289.13a22.265,22.265,0,0,1-1.926,4.142H35.186c.192-.5,1.044-.725,1.054-.727a.259.259,0,0,0,.177-.156l.911-2.337a.641.641,0,0,0-.6-.869H34.683a1.017,1.017,0,0,1-1.016-1.016V21.659a.257.257,0,1,0-.513,0v1.767a6.6,6.6,0,0,0-2.043.366,6.187,6.187,0,0,0-1.292.651,10.413,10.413,0,0,1-1.143-1.284.256.256,0,0,0-.448.241.284.284,0,0,0,.03.057,12.292,12.292,0,0,0,1.6,1.729,25.27,25.27,0,0,1-3.7,6.126H24.448a1.157,1.157,0,0,1,.884-.645.257.257,0,0,0,.168-.11c.366-.544,2.709-4,2.514-4.638A.462.462,0,0,0,28,25.872,8.365,8.365,0,0,0,26.36,24a.256.256,0,1,0-.346.378A12.045,12.045,0,0,1,27.4,25.849a5.617,5.617,0,0,1-4.909-.246,4.9,4.9,0,0,0,.785-.564A2.228,2.228,0,0,0,24.166,22.952Zm6.081,3.767a4.691,4.691,0,0,0-.244-.5,8.954,8.954,0,0,0,.4-1.034v-.007c.5.685.908,1.326,1.007,1.483a8.373,8.373,0,0,1,.161,2.331,6.128,6.128,0,0,1-.819.208.257.257,0,0,0,0,.506,5.218,5.218,0,0,0,.735.056,9.341,9.341,0,0,1-.361,1.555h-1.81a1.1,1.1,0,0,1,.778-.609.258.258,0,0,0,.181-.181A7.111,7.111,0,0,0,30.247,26.719Zm1.847,2.067a8.791,8.791,0,0,0-.2-2.284.252.252,0,0,0-.032-.078c-.038-.061-.6-.958-1.269-1.845a4.68,4.68,0,0,1,.683-.3,6.092,6.092,0,0,1,1.875-.338v2.269a1.528,1.528,0,0,0,.773,1.327A6.132,6.132,0,0,1,32.094,28.786Zm3.626-1.049a6.164,6.164,0,0,1-3.242,1.44,6.717,6.717,0,0,0,1.986-1.458,1.438,1.438,0,0,0,.219.018ZM17.008,25.311a1.573,1.573,0,0,0,.3-1.38,3.135,3.135,0,0,0,1.038-.436.9.9,0,0,0,.33-.826c0-.368,0-.634.871-.822a6.412,6.412,0,0,1,1.344-.145l.085,0c-.082.154-.126.259-.131.271a.257.257,0,0,0,.475.195,3.568,3.568,0,0,1,.225-.429,3.385,3.385,0,0,1,.61-.758A2.992,2.992,0,0,1,23.3,20.42a6.387,6.387,0,0,1-.022,1.157c-.059.46-.359.912-.3,1.361a.256.256,0,1,0,.508-.068.633.633,0,0,1,.012-.2,1.12,1.12,0,0,1,.167.384,1.748,1.748,0,0,1-.731,1.6,5.6,5.6,0,0,1-2.525,1.2A4.357,4.357,0,0,1,17.008,25.311Zm-.2-1.258a1.042,1.042,0,0,1-.179.909,1.391,1.391,0,0,1-.311-.6C16.291,24.235,16.356,24.171,16.808,24.053Z" fill="#3b465c"/>
    <path id="Path_5737" data-name="Path 5737" d="M21.6,22.273a2.647,2.647,0,0,1,.873-1.132.256.256,0,0,1,.332.382.245.245,0,0,1-.056.05,2.135,2.135,0,0,0-.67.886c-.019.041-.029.066-.03.069a.256.256,0,1,1-.478-.185C21.574,22.337,21.584,22.311,21.6,22.273Z" fill="#3b465c"/>
  </g>
</svg>
