<svg xmlns="http://www.w3.org/2000/svg" width="20.287" height="14.973" viewBox="0 0 20.287 14.973">
  <g id="Group_2362" data-name="Group 2362" transform="translate(-78.141 -17.461)">
    <path id="Path_5863" data-name="Path 5863" d="M96.9,29.089c-.063-.046-.029-.019-.179-.14l-.123-.1a5.957,5.957,0,0,0,1.825-4.483,3.822,3.822,0,0,0-1.818-3.431.192.192,0,0,0-.029-.014,4.643,4.643,0,0,0-2.287-.807,17.955,17.955,0,0,0-3.52.246c-2.025.269-4.635-.987-5.256-1.356a2.3,2.3,0,0,0-.695-.426,1.711,1.711,0,0,0-.271-.431,2.1,2.1,0,0,0-1.518-.681A4.607,4.607,0,0,0,79.789,18.8a1.345,1.345,0,0,0-.313,1.464,1.113,1.113,0,0,1,.024.683,2.823,2.823,0,0,1-.731.864l-.016.015c-.394.353-.878.792-.436,1.307a2.163,2.163,0,0,0,1.041.645l.011,0a3.19,3.19,0,0,0,.9.124,4.6,4.6,0,0,0,2.841-1.082,10.2,10.2,0,0,1,.71,1.544,2.33,2.33,0,0,0,.151.312.457.457,0,0,1-.005.076,14.856,14.856,0,0,1-2.642,2.5,2.14,2.14,0,0,0-1.508.3.236.236,0,0,0,0,.4l1.6,1.013a.237.237,0,0,0,.251,0c.142-.089,3.488-2.167,3.812-2.4a.564.564,0,0,0,.2-.4c.257.106.518.2.781.282a4.259,4.259,0,0,1-1.354,1.5.237.237,0,0,0-.089.26,2.634,2.634,0,0,0,2.161,1.692,1.737,1.737,0,0,0,1.474-.262.889.889,0,0,0,.257-.718.237.237,0,0,0-.211-.2,9.142,9.142,0,0,1-1.374-.25,8.42,8.42,0,0,0,1.865-1.45.544.544,0,0,0,.1-.2,16.2,16.2,0,0,0,3.3-.6,3.563,3.563,0,0,0,.872,3.188c-.359.21-.23.124-.406.239a1.794,1.794,0,0,1-.281.163.233.233,0,0,0-.244.228.236.236,0,0,0,.227.244,1.922,1.922,0,0,0,.227-.007,5.39,5.39,0,0,0,.591-.074,4.729,4.729,0,0,1-1.171.622,1.924,1.924,0,0,0-1.813,1.311.236.236,0,0,0,.228.295h1.838a.238.238,0,0,0,.121-.034c.145-.086.474-.284.865-.523h1.272a.237.237,0,0,0,.133-.041A19.356,19.356,0,0,0,97.5,29.977C97.7,29.667,97.257,29.347,96.9,29.089Zm-2.51,2.316a11.554,11.554,0,0,0,1.436-.989c.209-.236-.009-.522-.3-.88.058-.028.115-.054.173-.083a4.531,4.531,0,0,0,.518-.307c.1.082.166.135.323.263a5.035,5.035,0,0,1,.489.391c-.288.264-1.277.977-2.2,1.605Zm-1.813.557h-1.4a1.6,1.6,0,0,1,1.28-.666.235.235,0,0,0,.065-.014c.545-.2,1.576-.672,1.712-1.237a8.348,8.348,0,0,0,.845-.307c.079.1.262.318.327.423C94.979,30.511,93.068,31.671,92.582,31.962Zm2.262-3.747a.692.692,0,0,1,.419-.407c.027.074.056.146.085.212-.164.158-.332.3-.5.439A.531.531,0,0,1,94.844,28.215Zm-16.169-5.39c-.1-.118-.085-.2.267-.533a1.132,1.132,0,0,1,.209.245.928.928,0,0,1,.12.709A1.588,1.588,0,0,1,78.675,22.825ZM85.183,26.2c-.363.248-3.031,1.908-3.646,2.29l-1.112-.706a1.187,1.187,0,0,1,.847-.046.239.239,0,0,0,.241-.033,19.336,19.336,0,0,0,2.766-2.57c.03.039.062.077.094.116a3.026,3.026,0,0,0,.847.71A.791.791,0,0,1,85.183,26.2Zm4.083.155a6.658,6.658,0,0,0-1.392-2.2.236.236,0,1,0-.353.313,7.235,7.235,0,0,1,1.267,1.893c.062.172.076.305.023.373a9.192,9.192,0,0,1-1.867,1.416c-.057.036-.115.074-.332.189a.239.239,0,0,0-.125.228.236.236,0,0,0,.161.2,10.088,10.088,0,0,0,1.76.4c-.142.373-.767.339-1.16.274a2.218,2.218,0,0,1-1.725-1.213,3.516,3.516,0,0,0,1.448-1.935.932.932,0,0,0-.271-.749,3.856,3.856,0,0,0-.834-.632c-.125-.071-.209-.108-.217-.112a.236.236,0,1,0-.192.431,3.36,3.36,0,0,1,.906.644.548.548,0,0,1,.059.072c-.262-.087-.522-.187-.777-.3a2.489,2.489,0,0,1-.909-.7,2.8,2.8,0,0,1-.481-.752,9.307,9.307,0,0,0-.9-1.866c-.01-.014-.007-.008-.017-.021a.243.243,0,0,0-.077-.061l-.016-.008-.023-.007-.02-.005-.025,0-.02,0-.025,0-.02,0-.019.005a.129.129,0,0,0-.039.015l-.028.016h0L83,22.277c-.025.021.016-.019-.124.121a3.9,3.9,0,0,1-3.156.983,1.442,1.442,0,0,0-.432-1.41,2.686,2.686,0,0,0,.638-.83,1.5,1.5,0,0,0,.006-.98c-.1-.438-.142-.722.174-1.015a4.12,4.12,0,0,1,2.9-1.208,1.689,1.689,0,0,1,1.092.42,3.762,3.762,0,0,0-.519-.073.236.236,0,0,0-.023.472,3.673,3.673,0,0,1,.98.214l.023.01a2.386,2.386,0,0,1,1.183.987,5.933,5.933,0,0,1-1.042.349c-.439.1-.836.088-1.224.14a.236.236,0,0,0,.032.47c.054,0,.011-.009.448-.041a5.961,5.961,0,0,0,.845-.108,6.75,6.75,0,0,0,1.4-.5.235.235,0,0,0,.091-.341l-.015-.022a9.318,9.318,0,0,0,4.557.915,17.747,17.747,0,0,1,3.427-.244,4.206,4.206,0,0,1,2.173.8v0a3.336,3.336,0,0,1,1.519,2.983,6.48,6.48,0,0,1-.116,1.24,4.9,4.9,0,0,1-1.782,3.072,4.319,4.319,0,0,1-.829.477c-.1.048-.044.026-.343.153-.1.041-.043.021-.235.1q-.258.1-.506.175l-.112.035.1-.063c.247-.157.553-.373.573-.387a5.512,5.512,0,0,0,2.222-2.729,3.958,3.958,0,0,0,.1-.4c.012-.059.025-.118.034-.178a4.97,4.97,0,0,0-.087-1.783c-.009-.042-.016-.083-.026-.125a1.763,1.763,0,0,0-.7-1.19.24.24,0,0,0-.072-.026.235.235,0,0,0-.164.434,1.347,1.347,0,0,1,.471.859,4.771,4.771,0,0,1,.133,1.583c-.005.053-.01.106-.018.158a2.474,2.474,0,0,1-1.429,1.567l-.03.014a1.027,1.027,0,0,0-.681,1.413c-.149.109-.388.274-.594.405a3.408,3.408,0,0,1-.907-2.438,3.146,3.146,0,0,1,.839-1.59.241.241,0,0,0,.012-.022.137.137,0,0,0,.016-.042.132.132,0,0,0,.008-.044.166.166,0,0,0,0-.045.2.2,0,0,0-.011-.049h0a.239.239,0,0,0-.041-.073l-.018-.02,0,0-.015-.011-.015-.012,0,0-.025-.013a.123.123,0,0,0-.044-.016.141.141,0,0,0-.045-.007.125.125,0,0,0-.046,0,.136.136,0,0,0-.044.011.1.1,0,0,0-.039.017l-.017.01-.04.034a4.144,4.144,0,0,0-.614.845A20.417,20.417,0,0,1,89.266,26.353Z" fill="#3b465c"/>
    <path id="Path_5864" data-name="Path 5864" d="M83.471,19.518l.071,0a2.009,2.009,0,0,1,1,.317.236.236,0,0,0,.29-.373,2.475,2.475,0,0,0-1.277-.416l-.078,0a.236.236,0,0,0-.006.472Z" fill="#3b465c"/>
  </g>
</svg>
