<svg xmlns="http://www.w3.org/2000/svg" width="25.928" height="15.67" viewBox="0 0 25.928 15.67">
  <g id="Group_2311" data-name="Group 2311" transform="translate(-74.729 -16.528)">
    <g id="Group_2309" data-name="Group 2309">
      <path id="Path_5571" data-name="Path 5571" d="M97.552,31.718H95.558a.229.229,0,0,0,0,.458h1.994a.229.229,0,0,0,0-.458Z" fill="#f60"/>
      <path id="Path_5572" data-name="Path 5572" d="M80.268,31.718h-5.31a.229.229,0,1,0,0,.458h5.31a.229.229,0,0,0,0-.458Z" fill="#f60"/>
      <path id="Path_5573" data-name="Path 5573" d="M100.429,31.718H99.015a.229.229,0,0,0,0,.458h1.414a.229.229,0,0,0,0-.458Z" fill="#f60"/>
      <path id="Path_5574" data-name="Path 5574" d="M84.551,17.284a1.974,1.974,0,0,0-1.215-.035,1.842,1.842,0,0,1-.555.193,1.349,1.349,0,0,0-.643.091,1.245,1.245,0,0,0-.265.188.566.566,0,0,1-.19.128c-.113.035-.373-.056-.6-.01A5.489,5.489,0,0,0,79.168,19.1a.229.229,0,0,0,.3.343,4.909,4.909,0,0,1,1.7-1.152c.139-.029.4.074.642,0s.373-.27.523-.343A.457.457,0,0,1,82.6,17.9a1.528,1.528,0,0,0,.23-.005,2.117,2.117,0,0,0,.671-.221,1.665,1.665,0,0,1,.963.057.228.228,0,1,0,.085-.449Z" fill="#f60"/>
      <path id="Path_5575" data-name="Path 5575" d="M95.28,25.219a.816.816,0,0,0,.221-.1c.016-.007.066,0,.22.119A.229.229,0,1,0,96,24.878a.7.7,0,0,0-.663-.184,1.126,1.126,0,0,0-.143.075.314.314,0,0,1-.082-.028.609.609,0,0,0-.3-.06.963.963,0,0,0-.43.227.576.576,0,0,0-.381-.1,1.991,1.991,0,0,0-.647.277.229.229,0,0,0,.073.446.474.474,0,0,0,.231-.093,1.286,1.286,0,0,1,.415-.178.678.678,0,0,0,.312.1.574.574,0,0,0,.362-.16.464.464,0,0,1,.108-.072.374.374,0,0,1,.085.028A.564.564,0,0,0,95.28,25.219Z" fill="#f60"/>
      <path id="Path_5576" data-name="Path 5576" d="M87.683,16.528a.244.244,0,1,0,.243.243A.243.243,0,0,0,87.683,16.528Z" fill="#f60"/>
      <path id="Path_5577" data-name="Path 5577" d="M86.708,17.147a.244.244,0,1,0,.244.244A.244.244,0,0,0,86.708,17.147Z" fill="#f60"/>
      <path id="Path_5578" data-name="Path 5578" d="M88.612,17.367a.268.268,0,1,0,.268.268A.268.268,0,0,0,88.612,17.367Z" fill="#f60"/>
      <path id="Path_5579" data-name="Path 5579" d="M76.415,18.573a.244.244,0,1,0-.243-.243A.243.243,0,0,0,76.415,18.573Z" fill="#f60"/>
      <path id="Path_5580" data-name="Path 5580" d="M77.34,20.121a.244.244,0,1,0-.244-.244A.244.244,0,0,0,77.34,20.121Z" fill="#f60"/>
      <path id="Path_5581" data-name="Path 5581" d="M76.415,22.059a.268.268,0,1,0-.268-.268A.268.268,0,0,0,76.415,22.059Z" fill="#f60"/>
      <path id="Path_5582" data-name="Path 5582" d="M96.362,26.93a.268.268,0,1,0-.268-.268A.268.268,0,0,0,96.362,26.93Z" fill="#f60"/>
      <path id="Path_5583" data-name="Path 5583" d="M95.506,26.93a.268.268,0,1,0-.268.268A.268.268,0,0,0,95.506,26.93Z" fill="#f60"/>
      <path id="Path_5584" data-name="Path 5584" d="M95.24,25.991a.292.292,0,1,0,.293-.293A.293.293,0,0,0,95.24,25.991Z" fill="#f60"/>
    </g>
    <g id="Group_2310" data-name="Group 2310">
      <path id="Path_5585" data-name="Path 5585" d="M100.2,24.072a2.562,2.562,0,0,1-.562-.9,1.854,1.854,0,0,1,.092-.717,2.19,2.19,0,0,0-.09-1.087,3.058,3.058,0,0,0-2.154-1.744,3.275,3.275,0,0,0-.321-.073c-.025-.046-.052-.092-.08-.136A3.31,3.31,0,0,0,95.86,18.4a.229.229,0,0,0-.32.108,6.33,6.33,0,0,0-.4,1.336c-.011.065-.019.129-.026.192a1.623,1.623,0,0,1-.948.06c-.99-.292-1.815-.519-2.6-.713a.67.67,0,0,1-.284-.129l-.047-.036a.51.51,0,0,0-.433-.129,1.322,1.322,0,0,0-.218.086,2.092,2.092,0,0,1-.316-.091.792.792,0,0,1-.206-.15.771.771,0,0,0-.629-.269.517.517,0,0,0-.268.15c-.018.016-.044.04-.05.043a2.555,2.555,0,0,1-.529-.088,23.244,23.244,0,0,0-2.818-.282,8.15,8.15,0,0,1-1.216-.07,1.973,1.973,0,0,0-1.215-.034,1.87,1.87,0,0,1-.555.193,1.353,1.353,0,0,0-.643.091,1.178,1.178,0,0,0-.265.188.566.566,0,0,1-.19.128.69.69,0,0,1-.233-.006,1.125,1.125,0,0,0-.367,0,5.484,5.484,0,0,0-1.915,1.258,5.364,5.364,0,0,0-1.087,1.328c-.121.208-.211.4-.337.575a2.361,2.361,0,0,0-.473.715c-.074.261.024.5-.017.662a.882.882,0,0,0-.07.382.537.537,0,0,0,.05.172.233.233,0,0,1,.015.04,3.737,3.737,0,0,0-.13.364.9.9,0,0,0,.117.547,1.242,1.242,0,0,1,.125.425,3.337,3.337,0,0,0,.433,1.171,2.023,2.023,0,0,0,2.014.946,2.477,2.477,0,0,0,.966-.291c.156.185.309.367.447.533l-.655,2.337a.228.228,0,0,0,.1.255L83.42,32.14a.22.22,0,0,0,.122.036h2.1a.229.229,0,0,0,.226-.27A1.527,1.527,0,0,0,84.2,30.828h-.028l-1.476-1.2c.092-.111.216-.269.355-.465L85.3,30.649a.225.225,0,0,0,.126.038h2.009a.227.227,0,0,0,.225-.267,1.474,1.474,0,0,0-1.6-1.081h-.021l-1.413-1.2a8.808,8.808,0,0,0,1.05-1.709.816.816,0,0,0,.149.02.7.7,0,0,0,.18-.017.461.461,0,0,0,.059-.012.453.453,0,0,0,.374.239c.228.019.414-.135.526-.163a3.129,3.129,0,0,1,.934.1,3.567,3.567,0,0,0,1.134-.088l.344,3.344a.229.229,0,0,0,.037.1L90.843,32.1a.227.227,0,0,0,.19.1h2.149a.228.228,0,0,0,.225-.269,1.514,1.514,0,0,0-1.375-1.1l-.9-1.316L91.162,29l1.145,1.59a.228.228,0,0,0,.186.1h2.035a.229.229,0,0,0,.225-.268,1.513,1.513,0,0,0-1.375-1.1l-.9-1.322.015-2.978a8.377,8.377,0,0,1,1.161-.553.981.981,0,0,0,.151-.065c.03-.015.078-.039.088-.042a.4.4,0,0,1,.062.027.571.571,0,0,0,.265.075c.237,0,.377-.2.47-.23l.012.012a.474.474,0,0,0,.267.152.428.428,0,0,0,.342-.1c.324-.154.34-.106.75.241a4.636,4.636,0,0,0,2.26,1.274,2.548,2.548,0,0,0,2.107-.449C100.906,24.919,100.512,24.449,100.2,24.072Zm-1.813,1.279a4.739,4.739,0,0,1-2.188-1.307.837.837,0,0,0-1.081-.168.559.559,0,0,0-.081.048.432.432,0,0,0-.386-.153.983.983,0,0,0-.431.228.718.718,0,0,0-.355-.1,1.221,1.221,0,0,0-.341.125,20.105,20.105,0,0,0-2.154,1.068l.01-.194a.229.229,0,0,0-.457-.023c-.019.368.076-1.467-.245,4.687a.236.236,0,0,0,.04.141l1,1.463a.235.235,0,0,0,.16.1,1.348,1.348,0,0,1,.952.475H91.155L89.83,29.752c-.226-2.209-.425-4.142-.436-4.244a.229.229,0,1,0-.455.046l.051.5a3.213,3.213,0,0,1-1.038.091,2.942,2.942,0,0,0-1.1-.09,1.2,1.2,0,0,0-.216.087.549.549,0,0,1-.16.063h0a.5.5,0,0,0-.192-.187.634.634,0,0,0-.421-.025h-.008l-.034,0a.7.7,0,0,0-.147-.16.509.509,0,0,0-.382-.118.271.271,0,0,1-.14-.018.4.4,0,0,1-.112-.134c-.132-.2-.211-.305-.7-.475a3.479,3.479,0,0,0-.266-.935.229.229,0,0,0-.418.186c.66,1.488-.042,3.236-.986,4.57a6.854,6.854,0,0,1-.465.6.23.23,0,0,0,.025.332l1.724,1.4a.228.228,0,0,0,.153.051,1.3,1.3,0,0,1,1.177.431H83.608L81.053,30.1l.641-2.289a.226.226,0,0,0-.044-.208c-.224-.269-1.718-2.059-1.98-2.3a3.65,3.65,0,0,1-.261-1.207c-.014-.127-.031-.3-.04-.437a.229.229,0,0,0-.457.033c.007.092.016.209.029.339-.23.755-.448,1.774.154,2.176A2.652,2.652,0,0,0,80.2,26.6c.089.1.179.21.271.319a2.258,2.258,0,0,1-.71.191,1.561,1.561,0,0,1-1.577-.727,2.868,2.868,0,0,1-.374-1.008,1.7,1.7,0,0,0-.162-.546.5.5,0,0,1-.078-.282,2,2,0,0,0,.133-.4.592.592,0,0,0-.065-.29.2.2,0,0,1,.022-.111c.012-.035.025-.073.036-.117.066-.264-.029-.5.013-.648a2.511,2.511,0,0,1,.4-.572,6.809,6.809,0,0,0,.362-.613,4.909,4.909,0,0,1,.994-1.216,4.924,4.924,0,0,1,1.7-1.152c.138-.028.4.075.642,0s.373-.27.523-.344a.466.466,0,0,1,.263-.042,1.4,1.4,0,0,0,.229,0,2.134,2.134,0,0,0,.671-.22,1.648,1.648,0,0,1,.963.057,8.413,8.413,0,0,0,1.285.078,22.714,22.714,0,0,1,2.763.276,2.037,2.037,0,0,0,.681.087.684.684,0,0,0,.321-.193h0c.058,0,.16.089.244.162a1.038,1.038,0,0,0,.38.245,1.764,1.764,0,0,0,.448.11.609.609,0,0,0,.3-.1c.019.006.08.058.134.1.377.259.191.072,3.01.9a1.952,1.952,0,0,0,1.047-.012c-.005.208-.007.354-.019.5a.229.229,0,1,0,.456.037l0-.043a8.3,8.3,0,0,1,.092-1.229,5.867,5.867,0,0,1,.252-.859,2.555,2.555,0,0,1,.831.731c.016.025.03.051.045.077.083.143.1.2.116.224a3.374,3.374,0,0,1,.249.885h0a.229.229,0,0,0,.455-.048,3.725,3.725,0,0,0-.169-.724A2.721,2.721,0,0,1,99.2,21.522a1.741,1.741,0,0,1,.07.86,1.948,1.948,0,0,0-.08.919,2.424,2.424,0,0,0,.473.847,1.411,1.411,0,0,0-.589,1.239A3.9,3.9,0,0,1,98.383,25.351ZM94.167,30.23H92.61L91.2,28.271l.138-2.65c.241-.121.474-.243.7-.361l-.014,2.8a.221.221,0,0,0,.039.13l1,1.463a.228.228,0,0,0,.159.1A1.343,1.343,0,0,1,94.167,30.23Zm-7.078,0H85.5l-2.188-1.447a6.113,6.113,0,0,0,1.065-3.194.928.928,0,0,1,.178.093.568.568,0,0,1,.107.133.726.726,0,0,0,.318.3.684.684,0,0,0,.307.053,8.319,8.319,0,0,1-1.147,1.846.229.229,0,0,0,.025.325l1.65,1.4a.225.225,0,0,0,.157.054A1.205,1.205,0,0,1,87.089,30.23ZM79.689,26a1.711,1.711,0,0,1-.34-.169c-.1-.069-.192-.224-.186-.557a.878.878,0,0,0,.2.372C79.413,25.694,79.531,25.823,79.689,26Zm20.431-.985a1.362,1.362,0,0,1-.587.305.926.926,0,0,1,.029-.275.988.988,0,0,1,.4-.543C100.231,24.844,100.229,24.917,100.12,25.017Z" fill="#3b465c"/>
      <path id="Path_5586" data-name="Path 5586" d="M96.557,19.975a1.479,1.479,0,0,0-.15-.218l-.028-.033a.229.229,0,1,0-.339.307.431.431,0,0,1,.032.04,1.919,1.919,0,0,1,.312.857c0,.036.007.058.007.06a.229.229,0,0,0,.456-.037c0-.006,0-.032-.008-.072A2.62,2.62,0,0,0,96.557,19.975Z" fill="#3b465c"/>
      <path id="Path_5587" data-name="Path 5587" d="M88.472,22.545c-.239-.012-.476-.179-.82-.141-.226.024-.395.167-.512.147a.754.754,0,0,1-.232-.1.7.7,0,0,0-.831.019.229.229,0,0,0,.264.375c.144-.1.187-.078.351.009a1.209,1.209,0,0,0,.372.144.8.8,0,0,0,.471-.088.675.675,0,0,1,.166-.056c.222-.024.435.128.748.143a.229.229,0,1,0,.023-.457Z" fill="#3b465c"/>
      <path id="Path_5588" data-name="Path 5588" d="M93.425,21.441a3.279,3.279,0,0,0-1.39-.31c-.248-.056-.607-.348-.987-.147a.229.229,0,0,0,.213.405c.135-.072.4.128.672.189.457.1.9.009,1.232.24a.229.229,0,0,0,.26-.377Z" fill="#3b465c"/>
      <path id="Path_5589" data-name="Path 5589" d="M81.189,21.967a.229.229,0,0,0-.44-.126,2.64,2.64,0,0,0,.226,1.819.229.229,0,0,0,.414-.194A2.069,2.069,0,0,1,81.189,21.967Z" fill="#3b465c"/>
    </g>
  </g>
</svg>
