<svg xmlns="http://www.w3.org/2000/svg" width="24.98" height="16.312" viewBox="0 0 24.98 16.312">
  <path id="Path_5568" data-name="Path 5568" d="M66.967,25.664a7.655,7.655,0,0,1-2.694-.73,8.045,8.045,0,0,1-2.1-1.756A14.97,14.97,0,0,0,60.3,21.464c.011-.063.021-.124.027-.181a5.126,5.126,0,0,0-1.566-3.1,3.932,3.932,0,0,0-2.8-1.493,1.624,1.624,0,0,0-.452.079c-4.068-1.312-8.681-1.412-11.982,1.39a2.713,2.713,0,0,0-.556.648.228.228,0,0,0-.189.246c0,.034.006.064.01.1a2.681,2.681,0,0,0-.162.477,6.191,6.191,0,0,0-.051,2.577,2.176,2.176,0,0,0,.785,1.5l.368,1.441-.555,4.517A1.352,1.352,0,0,0,42.2,30.8a.229.229,0,0,0,.228.251h1.844a.228.228,0,0,0,.222-.177l1.275-5.434c0-.013.01-.064.113-.748l.147.046a.224.224,0,0,0,.046.014c.35.107.7.2,1.02.268.215.412.5.95.874,1.658L47.054,30.7a1.55,1.55,0,0,0-1.147,1.241.229.229,0,0,0,.227.259h2.042a.229.229,0,0,0,.22-.166L49.889,26.8a.272.272,0,0,0,.008-.063V25.352a19.733,19.733,0,0,0,2.941-.5,15.08,15.08,0,0,0,2.6,3.074l-1.325,1.713c-.283.074-1.148.359-1.286,1.14a.23.23,0,0,0,.226.269H55.04a.229.229,0,0,0,.206-.128,6.245,6.245,0,0,1,.908-1.366c.383-.437.911-1.055,1.257-1.519a.228.228,0,0,0-.021-.3,3.442,3.442,0,0,1-.97-1.819,4.7,4.7,0,0,1,.422-.527c.183-.213.414-.48.664-.8a1.22,1.22,0,0,0,.685.348c.41-.023.986-.808,1.437-1.689a6.4,6.4,0,0,0,2.654,2.527,6.316,6.316,0,0,0,2.794.653,5.567,5.567,0,0,0,1.958-.328.229.229,0,0,0-.067-.439Zm-4.484-.3c-1.665-.816-1.929-1.753-2.637-2.572a8.265,8.265,0,0,0,.324-.839c.229.193.756.628.82.687a14.452,14.452,0,0,0,3.08,2.7,7.66,7.66,0,0,0,1.668.587A5.863,5.863,0,0,1,62.483,25.367Zm-4.314-.884c-.17-.012-.6-.444-.725-.564a18.159,18.159,0,0,1-1.357-1.561.228.228,0,0,0-.4.091c-.122.537-.265,1.107-.408,1.618a10.864,10.864,0,0,1-.5,1.486l-4.311-4.394a2,2,0,0,1,1.069.1,5.833,5.833,0,0,1,2.326,1.987.228.228,0,0,0,.406-.2,5.531,5.531,0,0,1-.227-1.632,6.677,6.677,0,0,1,.836-3.568,1.418,1.418,0,0,1,1.05-.688c.016,0,.033,0,.049,0a3.6,3.6,0,0,1,2.45,1.346,5.274,5.274,0,0,1,1.446,2.6.736.736,0,0,1,0,.141C59.754,22.356,58.527,24.423,58.169,24.483Zm-8.272.41v-1a2.46,2.46,0,0,0,.574-1.376c-.023-.544-.79-.869-1.31-1.034a2.005,2.005,0,0,0-.387-.954A5.152,5.152,0,0,0,46.859,19a3.513,3.513,0,0,0-.911-.333l.042-.06a.229.229,0,0,0-.232-.356l-2.108.419c.055-.057.111-.112.171-.163,3.529-2.995,8.315-2.255,11.124-1.425-1.2.991-1.5,3.58-1.32,5.135-.987-1.083-2.327-1.94-3.677-1.382a.229.229,0,0,0-.076.371l3.085,3.144A21.506,21.506,0,0,1,49.9,24.893Zm-.457,1.815L48,31.74H46.445a1.088,1.088,0,0,1,.839-.624.229.229,0,0,0,.184-.175l.963-4.249a.234.234,0,0,0-.021-.158c-.233-.439-.5-.951-.752-1.428a2.712,2.712,0,0,0,.276.015,1.278,1.278,0,0,0,.377-.047,2.726,2.726,0,0,0,1.129-.67Zm-4.122-1.369-1.231,5.249H42.731a.893.893,0,0,1,.679-.5.229.229,0,0,0,.2-.2l.58-4.72a.217.217,0,0,0-.005-.084l-.28-1.1c.118.045.244.087.379.131.33.129.731.279,1.155.424ZM43.256,19.22l2.032-.4-1.65,2.354A9.968,9.968,0,0,1,43.256,19.22Zm-.292,1.15a5.551,5.551,0,0,0,.413,1.389.229.229,0,0,0,.2.122l.023,0a.228.228,0,0,0,.165-.095c.6-.85,1.5-2.141,1.887-2.692a2.794,2.794,0,0,1,.994.32,5.616,5.616,0,0,1,1.43,1,2.165,2.165,0,0,1,.594.937,9.5,9.5,0,0,0-1.1-.195.229.229,0,1,0-.038.456,7.023,7.023,0,0,1,1.312.254,3.543,3.543,0,0,1,.983.421.379.379,0,0,1,.184.251,1.155,1.155,0,0,1-.117.473,3.161,3.161,0,0,1-.457.726c-.072.087-.15.171-.23.251a3.429,3.429,0,0,0-1.864-.536.229.229,0,1,0,0,.457,2.978,2.978,0,0,1,1.5.394,1.9,1.9,0,0,1-.713.346c-.841.182-3.643-.924-4.435-1.26a1.177,1.177,0,0,1-.232-.186,2.09,2.09,0,0,1-.442-1.082A5.607,5.607,0,0,1,42.964,20.37Zm13.991,3.708c-.494.015-.557.028-1.2.005.084-.308.174-.66.27-1.069C56.287,23.34,56.621,23.732,56.955,24.078Zm-.993,1.813a3.5,3.5,0,0,0,.967,2.02c-.332.43-.783.956-1.119,1.34a6.76,6.76,0,0,0-.911,1.337h-1.5a1.631,1.631,0,0,1,.9-.522.227.227,0,0,0,.138-.085l1.5-1.945a.228.228,0,0,0-.028-.31l-.16-.144a14.6,14.6,0,0,1-2.432-2.835l.022,0,1.285,1.31a.231.231,0,0,0,.231.058c.1-.029.334-.1.772-1.574.75.027.762.017,1.339,0C56.282,25.368,55.962,25.635,55.962,25.891Z" transform="translate(-42.196 -15.886)" fill="#3b465c"/>
</svg>
