<svg xmlns="http://www.w3.org/2000/svg" width="24.661" height="15.008" viewBox="0 0 24.661 15.008">
  <g id="Group_2322" data-name="Group 2322" transform="translate(-72.782 -45.234)">
    <path id="Path_5594" data-name="Path 5594" d="M97.443,48.107a.459.459,0,0,0-.391-.462,2.278,2.278,0,0,1-1.349-.5c-.717-.774-1.7-1.833-3.178-1.258A26.257,26.257,0,0,0,89.5,47.756c-1.837,1.01-5.09.346-5.137.336a33.123,33.123,0,0,0-3.691-.362,3.944,3.944,0,0,0-2.206.5c-1.286-.1-3.056-.337-3.958-1.165a1.136,1.136,0,0,1-.35-1.467h0a.233.233,0,0,0-.262-.351c-.04,0-.18.011-.22.021a1.079,1.079,0,0,0-.635.461,2.117,2.117,0,0,0-.008,2.019C73.668,48.983,75.429,49.5,77,49.8c-.042.073-.084.149-.125.227a10.147,10.147,0,0,0-1.195,3.436c-.294,2.1-1.519,2.383-1.569,2.393a.236.236,0,0,0-.151.1A8.921,8.921,0,0,0,73.065,60a.232.232,0,0,0,.232.232h1.932a.233.233,0,0,0,.216-.321,1.436,1.436,0,0,0-.845-.82,2.623,2.623,0,0,1,.889-1.881l.026-.021c.186-.108,1.846-.866,2.017-.911a.371.371,0,0,0,.108-.042,17.191,17.191,0,0,0,1.864,3.9.232.232,0,0,0,.191.1h1.628a.233.233,0,0,0,.23-.27,1.489,1.489,0,0,0-1.1-1.086,8.377,8.377,0,0,1-.905-2.94,8.38,8.38,0,0,0,3.214-2.418c.931.4,1.766.907,2.682,1.261-1.234,3.306-.261,5.241-.216,5.328a.234.234,0,0,0,.207.125h1.628a.233.233,0,0,0,.23-.27,1.453,1.453,0,0,0-1.033-1.064A6.543,6.543,0,0,1,87.7,55.16,4.026,4.026,0,0,0,88.82,54.9a13.368,13.368,0,0,0,2.266,5.256.232.232,0,0,0,.184.09H92.9a.233.233,0,0,0,.23-.27,1.492,1.492,0,0,0-1.1-1.087,15.735,15.735,0,0,1-1.369-5.249,7.548,7.548,0,0,0,1.206-1.678,6.085,6.085,0,0,1,.55-1.132,1.463,1.463,0,0,1,1.226-.318c.827.109,1.508.575,2.406.289a.237.237,0,0,0,.062-.03.764.764,0,0,0,.33-.643.737.737,0,0,0-.2-.436q.081-.015.162-.036A1.472,1.472,0,0,0,97.443,48.107ZM95.7,49.251l-.133-.013a.229.229,0,0,0-.078-.009l-.089-.011c-.4-.05-.75-.094-1.061.284a.233.233,0,0,0,.36.3c.141-.173.259-.166.644-.118l.1.012c.473.235.525.416.53.468a.284.284,0,0,1-.109.206c-.715.2-1.309-.208-2.165-.319a1.833,1.833,0,0,0-1.63.466,5.279,5.279,0,0,0-.616,1.223,7.36,7.36,0,0,1-.844,1.257l-.02.022c-.14.165-.273.3-.421.448a4.419,4.419,0,0,1-1.429.966,3.884,3.884,0,0,1-.55.18c-.024.006-.047.009-.07.014a.231.231,0,0,0-.365-.283c-.2.235-.43.536-.632.833A6.332,6.332,0,0,0,85.8,59.11a.235.235,0,0,0,.183.2,1.332,1.332,0,0,1,.741.464h-1.14a6.909,6.909,0,0,1,.3-4.834c.1-.275.243-.607.348-.833a.233.233,0,0,0-.423-.2c-.069.151-.133.3-.194.444-.968-.375-2.066-1.052-3.017-1.395a3.9,3.9,0,0,0-2.652-.077.231.231,0,0,0-.128.134A5.357,5.357,0,0,1,77.9,55.536a3.912,3.912,0,0,1-.491.3,23.009,23.009,0,0,0-2.179.991,3.215,3.215,0,0,0-1.108,2.423.234.234,0,0,0,.2.247.941.941,0,0,1,.489.272H73.534a8.235,8.235,0,0,1,.766-3.488c.362-.114,1.544-.644,1.839-2.759a9.744,9.744,0,0,1,1.145-3.283c.092-.173.188-.337.286-.484a.234.234,0,0,0-.155-.358c-.9-.157-3.306-.574-3.964-1.865a1.676,1.676,0,0,1-.02-1.549.713.713,0,0,1,.136-.152A1.721,1.721,0,0,0,74.2,47.4c1.015.931,2.837,1.179,4.311,1.292a.231.231,0,0,0,.141-.035,3.486,3.486,0,0,1,2.012-.467,32.351,32.351,0,0,1,3.625.356c.14.029,3.454.706,5.442-.387a28.057,28.057,0,0,1,2.967-1.847c1.1-.427,1.827.233,2.667,1.14a1.687,1.687,0,0,0,.618.409A1.24,1.24,0,0,0,96.647,49a.838.838,0,0,1-.366.2A1.732,1.732,0,0,1,95.7,49.251ZM91.821,59.312a1.332,1.332,0,0,1,.741.464H91.387A13.338,13.338,0,0,1,89.258,54.7a4.989,4.989,0,0,0,.98-.67,14.426,14.426,0,0,0,1.433,5.173A.232.232,0,0,0,91.821,59.312ZM79.208,55.587a.233.233,0,0,0-.14.224A8.542,8.542,0,0,0,80.091,59.2a.233.233,0,0,0,.155.115,1.332,1.332,0,0,1,.741.464H79.818A17.468,17.468,0,0,1,78.051,56a5.748,5.748,0,0,0,2.162-2.716,3.549,3.549,0,0,1,2.088.069A8.114,8.114,0,0,1,79.208,55.587Zm17.644-7a.712.712,0,0,1-.394-.579c.179.038.356.066.52.089a1.7,1.7,0,0,1-.086.512A.256.256,0,0,0,96.852,48.588Z" fill="#3b465c"/>
    <path id="Path_5595" data-name="Path 5595" d="M93.581,47.11h0a.233.233,0,0,0-.232.234,3.531,3.531,0,0,1-.177,1.309c-.566-.119-.845-.891-.882-1l-.005-.013a.233.233,0,0,0-.445.135c.016.053.4,1.291,1.4,1.357a.223.223,0,0,0,.082-.009c.186-.055.5-.36.491-1.78A.234.234,0,0,0,93.581,47.11Z" fill="#3b465c"/>
  </g>
</svg>
