<svg id="fi-rr-time-forward" xmlns="http://www.w3.org/2000/svg" width="20.211" height="20.221" viewBox="0 0 20.211 20.221">
  <path id="Path_671" data-name="Path 671" d="M19.379,9.267a.842.842,0,0,0-.842.842,8.454,8.454,0,1,1-2.443-5.915.726.726,0,0,1-.084.018H13.482a.842.842,0,0,0,0,1.685h2.527A2.527,2.527,0,0,0,18.537,3.37V.842a.842.842,0,0,0-1.685,0v1.74a10.1,10.1,0,1,0,3.37,7.528A.842.842,0,0,0,19.379,9.267Z" transform="translate(-0.011)"/>
  <path id="Path_672" data-name="Path 672" d="M11.842,6A.842.842,0,0,0,11,6.842v4.212a.842.842,0,0,0,.247.6l2.528,2.528a.842.842,0,1,0,1.191-1.191l-2.281-2.281V6.842A.842.842,0,0,0,11.842,6Z" transform="translate(-1.742 -0.945)"/>
</svg>
