<svg xmlns="http://www.w3.org/2000/svg" width="78.717" height="78.717" viewBox="0 0 78.717 78.717">
  <g id="feedbacks" transform="translate(-27.628 -140.094)">
    <rect id="Material_-_Vibrant_Primary_Text_-_Dark" data-name="Material - Vibrant Primary Text - Dark" width="78.717" height="78.717" rx="5" transform="translate(27.628 140.094)" fill="rgba(255,255,255,0.96)"/>
    <g id="Group_7349" data-name="Group 7349" transform="translate(39.536 131.914)">
      <circle id="Ellipse_485" data-name="Ellipse 485" cx="12.224" cy="12.224" r="12.224" transform="translate(15.226 23.304)" fill="#63ea86"/>
      <path id="Path_8963" data-name="Path 8963" d="M235.913,30a12.282,12.282,0,0,0-2.413.239,12.226,12.226,0,0,1,0,23.971A12.225,12.225,0,1,0,235.913,30Z" transform="translate(-208.462 -6.696)" fill="#3ce568"/>
      <path id="Path_8967" data-name="Path 8967" d="M12.224,0A12.224,12.224,0,1,1,0,12.224,12.224,12.224,0,0,1,12.224,0Z" transform="translate(0.804 47.324)" fill="#bdc1e2"/>
      <path id="Path_8964" data-name="Path 8964" d="M101.413,254a12.281,12.281,0,0,0-2.413.239,12.226,12.226,0,0,1,0,23.971A12.225,12.225,0,1,0,101.413,254Z" transform="translate(-88.384 -206.676)" fill="#5b629f"/>
      <path id="Path_8968" data-name="Path 8968" d="M12.224,0A12.224,12.224,0,1,1,0,12.224,12.224,12.224,0,0,1,12.224,0Z" transform="translate(29.649 47.324)" fill="#b2b2b2"/>
      <path id="Path_8965" data-name="Path 8965" d="M370.413,254a12.281,12.281,0,0,0-2.413.239,12.226,12.226,0,0,1,0,23.971A12.225,12.225,0,1,0,370.413,254Z" transform="translate(-328.54 -206.676)" fill="#d1d1d1"/>
      <path id="Path_8966" data-name="Path 8966" d="M13.028,46.519A13.028,13.028,0,1,0,26.057,59.548,13.028,13.028,0,0,0,13.028,46.519Zm0,24.448a11.42,11.42,0,1,1,11.42-11.42A11.42,11.42,0,0,1,13.028,70.968ZM17.8,59.216a.8.8,0,0,0,.8-.8V54.123a.8.8,0,0,0-1.608,0v4.289a.8.8,0,0,0,.8.8ZM32.222,35.2a.8.8,0,0,0,.8-.8V30.1a.8.8,0,0,0-1.608,0v4.289a.8.8,0,0,0,.8.8ZM18.923,64.05H7.134a.8.8,0,0,0,0,1.608H18.923a.8.8,0,0,0,0-1.608ZM8.257,59.216a.8.8,0,0,0,.8-.8V54.123a.8.8,0,0,0-1.608,0v4.289a.8.8,0,0,0,.8.8Zm28.845,0a.8.8,0,0,0,.8-.8V54.123a.8.8,0,0,0-1.608,0v4.289a.8.8,0,0,0,.8.8Zm4.772,2.964a8.756,8.756,0,0,0-6.492,2.894.8.8,0,1,0,1.195,1.077,7.12,7.12,0,0,1,10.594,0,.8.8,0,1,0,1.195-1.077,8.756,8.756,0,0,0-6.492-2.894Zm0-15.66A13.028,13.028,0,1,0,54.9,59.548,13.028,13.028,0,0,0,41.873,46.519Zm0,24.448a11.42,11.42,0,1,1,11.42-11.42,11.42,11.42,0,0,1-11.42,11.42ZM22.679,35.2a.8.8,0,0,0,.8-.8V30.1a.8.8,0,0,0-1.608,0v4.289a.8.8,0,0,0,.8.8ZM46.645,59.216a.8.8,0,0,0,.8-.8V54.123a.8.8,0,0,0-1.608,0v4.289a.8.8,0,0,0,.8.8ZM33.883,40.238a.8.8,0,0,0-1.136.059,7.12,7.12,0,0,1-10.594,0,.8.8,0,0,0-1.195,1.077,8.728,8.728,0,0,0,12.984,0,.8.8,0,0,0-.059-1.136Zm6.6-4.709A13.028,13.028,0,1,0,27.451,48.557,13.028,13.028,0,0,0,40.479,35.528ZM27.451,46.948a11.42,11.42,0,1,1,11.42-11.42,11.42,11.42,0,0,1-11.42,11.42Z" fill="#272a33"/>
    </g>
  </g>
</svg>
