<svg xmlns="http://www.w3.org/2000/svg" width="78.717" height="78.717" viewBox="0 0 78.717 78.717">
  <g id="Onboard_a_pet" data-name="Onboard a pet" transform="translate(-27.628 -140.094)">
    <rect id="Material_-_Vibrant_Primary_Text_-_Dark" data-name="Material - Vibrant Primary Text - Dark" width="78.717" height="78.717" rx="5" transform="translate(27.628 140.094)" fill="rgba(255,255,255,0.96)"/>
    <g id="Group_7351" data-name="Group 7351" transform="translate(-100.256 -6.244)">
      <path id="Path_8976" data-name="Path 8976" d="M272.063,362.61a7.489,7.489,0,0,1-.609,1.676l-.128.273c-.107.2-.221.4-.3.536s-.16.231-.271.387l-.1.138a5.711,5.711,0,0,1-4.545,2.32,5.546,5.546,0,0,1-3.49-1.233,9.62,9.62,0,0,0-12.571-.023,5.569,5.569,0,0,1-3.52,1.258,5.75,5.75,0,0,1-4.372-2.093,2.966,2.966,0,0,1-.237-.3c-.119-.161-.231-.33-.332-.491-.119-.189-.214-.379-.343-.624a1.006,1.006,0,0,1-.066-.14,1.606,1.606,0,0,0-.066-.163,7.283,7.283,0,0,1-.526-1.481l-.044-.214a13.246,13.246,0,0,1-.2-2.249,1.845,1.845,0,0,0-.01-.23c0-9.066,8.214-18.655,15.979-18.655s15.984,9.592,15.984,18.658v.072a1.4,1.4,0,0,0-.009.158,13.248,13.248,0,0,1-.192,2.249Z" transform="translate(-89.077 -158.27)" fill="#5b629f"/>
      <path id="Path_8977" data-name="Path 8977" d="M145.931,251.52c-3.679,0-6.661,3.586-6.661,7.992s2.988,7.993,6.661,7.993,6.66-3.586,6.66-7.993S149.6,251.52,145.931,251.52Z" transform="translate(0 -79.144)" fill="#3fd68e"/>
      <path id="Path_8979" data-name="Path 8979" d="M258.181,161.72c-3.673,0-6.661,3.585-6.661,7.992s2.988,7.992,6.661,7.992,6.66-3.585,6.66-7.992S261.853,161.72,258.181,161.72Zm-4,7.992Z" transform="translate(-98.93)" fill="#3fd68e"/>
      <path id="Path_8981" data-name="Path 8981" d="M392.89,161.72c-3.679,0-6.659,3.585-6.659,7.992s2.987,7.992,6.659,7.992,6.661-3.585,6.661-7.992S396.562,161.72,392.89,161.72Z" transform="translate(-217.654)" fill="#3fd68e"/>
      <path id="Path_8983" data-name="Path 8983" d="M505.139,251.52c-3.672,0-6.659,3.586-6.659,7.992s2.988,7.993,6.659,7.993,6.661-3.586,6.661-7.993S508.812,251.52,505.139,251.52Z" transform="translate(-316.584 -79.144)" fill="#3fd68e"/>
    </g>
  </g>
</svg>
