<svg xmlns="http://www.w3.org/2000/svg" width="78.717" height="78.717" viewBox="0 0 78.717 78.717">
  <g id="Questionnaire_blue" transform="translate(-27.628 -140.094)">
    <rect id="Material_-_Vibrant_Primary_Text_-_Dark" data-name="Material - Vibrant Primary Text - Dark" width="78.717" height="78.717" rx="5" transform="translate(27.628 140.094)" fill="rgba(255,255,255,0.96)"/>
    <g id="Group_11081" data-name="Group 11081" transform="translate(41.817 161.236)">
      <path id="Path_8969" data-name="Path 8969" d="M16.381,10.5H36.669a3.391,3.391,0,0,1,3.381,3.381V25.716A3.391,3.391,0,0,1,36.669,29.1H34.978v5.072L28.216,29.1H16.381A3.391,3.391,0,0,1,13,25.716V13.881A3.391,3.391,0,0,1,16.381,10.5Z" transform="translate(7.942 2.417)" fill="#3fd68e"/>
      <path id="Path_8970" data-name="Path 8970" d="M20.6,15.953a3.391,3.391,0,0,1,3.381-3.381H29.05V10.881A3.391,3.391,0,0,0,25.669,7.5H5.381A3.391,3.391,0,0,0,2,10.881V22.716A3.391,3.391,0,0,0,5.381,26.1H7.072v5.072L13.834,26.1H20.6Z" transform="translate(0.345 0.345)" fill="#5b629f"/>
      <path id="Path_8973" data-name="Path 8973" d="M10.727,20.144H9.036A2.6,2.6,0,0,1,6.5,17.608V12.536A2.6,2.6,0,0,1,9.036,10h1.691a2.6,2.6,0,0,1,2.536,2.536v5.072A2.6,2.6,0,0,1,10.727,20.144ZM9.036,11.691a.8.8,0,0,0-.845.845v5.072a.8.8,0,0,0,.845.845h1.691a.8.8,0,0,0,.845-.845V12.536a.8.8,0,0,0-.845-.845ZM34.4,25.216a.8.8,0,0,1-.845-.845V17.608a.8.8,0,0,0-.845-.845H29.324a.8.8,0,0,0-.845.845V24.37a.845.845,0,1,1-1.691,0V17.608a2.6,2.6,0,0,1,2.536-2.536H32.7a2.6,2.6,0,0,1,2.536,2.536V24.37A.8.8,0,0,1,34.4,25.216Z" transform="translate(3.453 2.072)" fill="#fff"/>
      <path id="Path_8974" data-name="Path 8974" d="M32.2,19.728H27.132a.845.845,0,0,1,0-1.691H32.2a.845.845,0,0,1,0,1.691ZM12.761,18.037a1.016,1.016,0,0,1-.676-.169L8.7,14.487A.837.837,0,0,1,9.887,13.3l3.381,3.381a.817.817,0,0,1,0,1.183A1.7,1.7,0,0,1,12.761,18.037Z" transform="translate(4.8 4.178)" fill="#fff"/>
    </g>
  </g>
</svg>
