<svg xmlns="http://www.w3.org/2000/svg" width="56.225" height="40.957" viewBox="0 0 56.225 40.957">
  <g id="Group_2157" data-name="Group 2157" transform="translate(-858.555 -362.197)">
    <path id="Path_2579" data-name="Path 2579" d="M882.734,444.272c1.992,1.908,6.84,5.723,11,2.415,0,0,2.366,1.061,7.466-2.2s16.85-8.9,16.85-8.9,7.706-4.157,7.63-4.4-15.626-8.609-19.462-8.282-24.78,9.792-24.78,9.792l.328,9.4A3.167,3.167,0,0,0,882.734,444.272Z" transform="translate(-16.904 -44.836)" fill="#12292d" opacity="0.28"/>
    <path id="Path_2580" data-name="Path 2580" d="M914.668,374.75c-.269,1.717-.727,3.467-1.11,5.167a10.171,10.171,0,0,1-1.822,4.228c-1.808,2.231-4.9,3.174-7.37,4.464-3.241,1.695-6.576,3.232-9.858,4.847-6.058,2.981-12.5,6.039-19.229,5.47a2.867,2.867,0,0,1-2.749,2.114,7.428,7.428,0,0,1-3.57-.991,25.863,25.863,0,0,1-6.246-4.1,13.861,13.861,0,0,1-4.073-6.341c-.341-1.362.358-3.179,1.762-3.214a42.026,42.026,0,0,1-.291-9.272,3.784,3.784,0,0,1,.592-2.056,3.962,3.962,0,0,1,1.927-1.123L893.1,363.307a17.828,17.828,0,0,1,4.038-1.064,13.694,13.694,0,0,1,4.734.5c4.531,1.156,8.918,3.539,11.565,7.4a6.78,6.78,0,0,1,1.3,3.159A5.936,5.936,0,0,1,914.668,374.75Z" fill="#5b629f"/>
    <path id="Path_2581" data-name="Path 2581" d="M865.626,454.814s2.652,6.927,14.876,12.53" transform="translate(-5.223 -68.417)" fill="none" stroke="#2a2e57" stroke-linecap="round" stroke-miterlimit="10" stroke-width="1"/>
    <path id="Path_2582" data-name="Path 2582" d="M865.1,455.387s2.652,6.927,14.876,12.53" transform="translate(-4.833 -68.84)" fill="none" stroke="#41477c" stroke-linecap="round" stroke-miterlimit="10" stroke-width="1"/>
    <path id="Path_2583" data-name="Path 2583" d="M918.578,400.771c-.013-.033-.026-.065-.04-.1a.944.944,0,0,0-.393-.5,1.059,1.059,0,0,0-.872.1l-20.091,8.7-6.831,2.958c-2.194.95-4.451,1.814-6.563,2.937a4.91,4.91,0,0,1-1.8.684,4.465,4.465,0,0,1-2.042-.455,40.664,40.664,0,0,1-8.733-4.774,16.987,16.987,0,0,1-3.183-2.874,9.451,9.451,0,0,1-1.207-1.848,18.83,18.83,0,0,0-.872-2.079c-.571-.886-1.179-.384-1.482.449a3.642,3.642,0,0,0-.188,1c-.027.321-.081.764-.127,1.081-.041.286-.023.673-.037.933s0,.358,0,.616a1.3,1.3,0,0,0,.17.649,7.222,7.222,0,0,0,1.373,1.767,40.544,40.544,0,0,0,7.307,5.852c2.443,1.557,5.278,3.565,8.289,3.473,3.26-.1,6.159-1.9,9.119-3.062,6.534-2.573,13.3-4.464,19.742-7.277q.776-.338,1.545-.689,2.392-1.089,4.716-2.32a4.081,4.081,0,0,0,2.252-2.119A4.466,4.466,0,0,0,918.578,400.771Z" transform="translate(-4.1 -28.006)" fill="#3fd68e"/>
    <path id="Path_2584" data-name="Path 2584" d="M919.043,399.565c-.013-.032-.026-.064-.04-.1a.926.926,0,0,0-.392-.493,1.073,1.073,0,0,0-.869.1l-20.032,8.509-6.811,2.893c-2.187.929-4.437,1.774-6.543,2.873a4.955,4.955,0,0,1-1.8.669,4.52,4.52,0,0,1-2.036-.445,40.77,40.77,0,0,1-8.707-4.67,16.828,16.828,0,0,1-3.173-2.811,9.24,9.24,0,0,1-1.2-1.807,18.163,18.163,0,0,0-.869-2.034c-.569-.867-1.176-.376-1.478.439a3.5,3.5,0,0,0-.188.978c-.027.314-.08.748-.126,1.058-.041.279-.023.658-.037.912s0,.35,0,.6a1.249,1.249,0,0,0,.17.634,7.088,7.088,0,0,0,1.369,1.728,40.307,40.307,0,0,0,7.285,5.723c2.436,1.522,5.262,3.486,8.264,3.4,3.251-.1,6.14-1.855,9.092-2.995,6.514-2.517,13.255-4.366,19.683-7.117q.773-.331,1.541-.674,2.384-1.065,4.7-2.269a4.038,4.038,0,0,0,2.245-2.072A4.29,4.29,0,0,0,919.043,399.565Z" transform="translate(-4.564 -27.126)" fill="#5b629f"/>
    <path id="Path_2585" data-name="Path 2585" d="M868.546,444.395v3.641s3.676,4.329,5.84,4.809l.412-3.985A19,19,0,0,1,868.546,444.395Z" transform="translate(-7.38 -60.721)" fill="#363c77"/>
    <path id="Path_2586" data-name="Path 2586" d="M869.429,446.112s3.075,3.7,5.791,4.3l-.306,3.255s-5.305-3.6-5.305-4.5S869.429,446.112,869.429,446.112Z" transform="translate(-8.032 -61.989)" fill="#404784"/>
    <path id="Path_2587" data-name="Path 2587" d="M871.681,456.81s2.673,2.148,3.98,3.038" transform="translate(-9.696 -69.892)" fill="none" stroke="#4d5388" stroke-miterlimit="10" stroke-width="1" opacity="0.38"/>
  </g>
</svg>
