<svg id="Group_617" data-name="Group 617" xmlns="http://www.w3.org/2000/svg" width="33.007" height="33.007" viewBox="0 0 33.007 33.007">
  <path id="Path_1129" data-name="Path 1129" d="M214.928,116.338a7.77,7.77,0,1,0,7.77,7.771A7.779,7.779,0,0,0,214.928,116.338Zm0,10.883a3.113,3.113,0,1,1,3.112-3.112A3.116,3.116,0,0,1,214.928,127.221Z" transform="translate(-198.424 -107.605)" fill="#5b629f"/>
  <path id="Path_1130" data-name="Path 1130" d="M232.408,113.9a3.2,3.2,0,0,1-.043-1.311,5.783,5.783,0,0,0-1.408-2.545l-.869-.869a8.143,8.143,0,0,0-1.636-1.224,16.784,16.784,0,0,0-2.06-.341l-.165-.1a16.507,16.507,0,0,0-3.494-1.538l-.387-.118c-.436-.106-.837.054-.891.356s-.186,1.039-.293,1.634l-.417,2.34c-.106.595-.252,1.414-.325,1.82a1,1,0,0,0,.766,1.013l.426.185a9.382,9.382,0,0,1,4.865,4.919l.21.494a1.147,1.147,0,0,0,1.1.932c.442-.064,1.295-.185,1.893-.272l2.021-.29,1.746-.252c.361-.051.557-.55.438-1.109l-.144-.493a16.376,16.376,0,0,0-1.251-3.085Z" transform="translate(-201.389 -105.254)" fill="#30d68e"/>
  <path id="Path_1131" data-name="Path 1131" d="M228.839,120.019l-7.122,1.022c.01.182.017.365.017.55a9.322,9.322,0,1,1-9.322-9.323c.292,0,.582.015.868.043l1.263-7.082a16.5,16.5,0,1,0,14.372,16.363C228.914,121.061,228.887,120.536,228.839,120.019Zm-18.375-13.538a1.144,1.144,0,1,1-.706,1.457A1.147,1.147,0,0,1,210.464,106.481Zm-2.235,3.064a1.145,1.145,0,1,1-.706,1.457A1.146,1.146,0,0,1,208.229,109.545Zm-4.15-.71a1.145,1.145,0,1,1,0,1.619A1.146,1.146,0,0,1,204.079,108.836Zm-.677,3.733a1.145,1.145,0,1,1,0,1.618A1.141,1.141,0,0,1,203.4,112.569Zm-.854,5.533a1.144,1.144,0,1,1-.7-1.46A1.142,1.142,0,0,1,202.548,118.1Zm-3.156-4.423a1.145,1.145,0,1,1,.7,1.462A1.146,1.146,0,0,1,199.392,113.678Zm-2.135,6.345a1.144,1.144,0,1,1,1.256,1.022A1.143,1.143,0,0,1,197.257,120.024Zm2.367,7.041a1.144,1.144,0,1,1,.383-1.574A1.144,1.144,0,0,1,199.624,127.065Zm.1-4.163a1.144,1.144,0,1,1,1.257,1.022A1.145,1.145,0,0,1,199.728,122.9Zm3.137,9.489a1.146,1.146,0,1,1,.382-1.574A1.146,1.146,0,0,1,202.865,132.39Zm.227-3.788a1.145,1.145,0,1,1,.383-1.573A1.144,1.144,0,0,1,203.092,128.6Zm2.389,3.694a1.145,1.145,0,1,1,1.583-.34A1.148,1.148,0,0,1,205.481,132.3Zm3.024,3.169a1.145,1.145,0,1,1-.339-1.581A1.145,1.145,0,0,1,208.5,135.465Zm3.718-2.212a1.145,1.145,0,1,1-1.008-1.268A1.144,1.144,0,0,1,212.223,133.252Zm2.135,3.451a1.145,1.145,0,1,1,.706-1.459A1.147,1.147,0,0,1,214.358,136.7Zm2.235-3.066a1.144,1.144,0,1,1,.706-1.457A1.145,1.145,0,0,1,216.593,133.638Zm4.15.71a1.145,1.145,0,1,1,0-1.619A1.146,1.146,0,0,1,220.743,134.347Zm.677-3.731a1.145,1.145,0,1,1,0-1.619A1.146,1.146,0,0,1,221.42,130.616Zm.854-5.534a1.144,1.144,0,1,1,.7,1.46A1.144,1.144,0,0,1,222.274,125.082Zm3.157,4.423a1.145,1.145,0,1,1-.7-1.462A1.146,1.146,0,0,1,225.431,129.5Zm1.113-5.09a1.144,1.144,0,1,1,1.021-1.255A1.144,1.144,0,0,1,226.544,124.414Z" transform="translate(-195.907 -105.088)" fill="#5b629f"/>
</svg>
