<svg xmlns="http://www.w3.org/2000/svg" width="32.574" height="47.232" viewBox="0 0 32.574 47.232">
  <g id="Group_624" data-name="Group 624" transform="translate(39.729 23.419) rotate(135)">
    <path id="Path_1149" data-name="Path 1149" d="M7.508,15.01A7.514,7.514,0,0,1,0,7.505,7.509,7.509,0,0,1,7.508,0a7.5,7.5,0,0,1,5.307,12.81A7.455,7.455,0,0,1,7.508,15.01Zm0-12.384a4.883,4.883,0,1,0,3.446,1.43A4.852,4.852,0,0,0,7.508,2.627Z" transform="translate(18.664)" fill="#30d68e"/>
    <path id="Path_1150" data-name="Path 1150" d="M8.771,6.973l-.037-.329v.329A5.171,5.171,0,0,1,3.551,1.779,1.781,1.781,0,0,0,3.032.521a1.781,1.781,0,0,0-2.514,0A1.751,1.751,0,0,0,0,1.768a8.669,8.669,0,0,0,2.557,6.2,8.673,8.673,0,0,0,6.172,2.556h.049a1.775,1.775,0,0,0-.007-3.549Z" transform="translate(12.949 9.652)" fill="#2bc9e0"/>
    <path id="Path_1151" data-name="Path 1151" d="M7.015,10.17A11.74,11.74,0,0,1,3.551,1.781,1.78,1.78,0,0,0,1.78,0,1.759,1.759,0,0,0,.522.521,1.751,1.751,0,0,0,0,1.772,15.268,15.268,0,0,0,4.5,12.684a15.284,15.284,0,0,0,10.879,4.5h.083A1.78,1.78,0,0,0,17.23,15.4a1.778,1.778,0,0,0-1.775-1.764h-.072A11.755,11.755,0,0,1,7.015,10.17Z" transform="translate(6.301 9.636)" fill="#5b629f"/>
    <path id="Path_1152" data-name="Path 1152" d="M8.717,14.286A17.5,17.5,0,0,1,3.553,1.78,1.777,1.777,0,0,0,0,1.775,21.032,21.032,0,0,0,6.206,16.8,21.045,21.045,0,0,0,21.185,23H21.3a1.775,1.775,0,0,0-.011-3.551h-.112A17.506,17.506,0,0,1,8.717,14.286Z" transform="translate(0 10.119)" fill="#5b629f"/>
  </g>
</svg>
