<svg id="Group_623" data-name="Group 623" xmlns="http://www.w3.org/2000/svg" width="39.611" height="37.862" viewBox="0 0 39.611 37.862">
  <path id="Path_1147" data-name="Path 1147" d="M214.707,481.083l3.606,7.311.866,1.758,1.941.28,8.062,1.168-5.837,5.691-1.4,1.368.331,1.93,1.377,8.027-7.214-3.79-1.732-.91-1.732.91-7.214,3.79,1.377-8.027.331-1.93-1.4-1.368-5.837-5.691,8.062-1.168,1.941-.28.866-1.758,3.606-7.311" transform="translate(-194.901 -475.57)" fill="#5b629f"/>
  <path id="Path_1148" data-name="Path 1148" d="M231.339,487.8l-10.078-1.462-4.505-9.134c-1.342-2.719-3.541-2.719-4.883,0l-4.505,9.134L197.291,487.8c-3,.436-3.682,2.525-1.509,4.643l7.293,7.112-1.722,10.029c-.513,2.991,1.264,4.282,3.95,2.869l9.012-4.733,9.012,4.733c2.686,1.412,4.463.122,3.95-2.869l-1.722-10.029,7.293-7.112C235.021,490.325,234.342,488.236,231.339,487.8Zm.208,3.309-7.292,7.113-.7.682.166.967,1.721,10.029a2.172,2.172,0,0,1-.038,1.258.473.473,0,0,1-.092.007,2.527,2.527,0,0,1-1.116-.359l-9.013-4.733-.866-.456-.866.456-9.013,4.733a2.527,2.527,0,0,1-1.116.359.473.473,0,0,1-.092-.007,2.172,2.172,0,0,1-.038-1.258l1.721-10.029.166-.967-.7-.682-7.292-7.113a.8.8,0,1,1,.475-1.464l10.076-1.461.972-.141.433-.878,4.507-9.136a2.174,2.174,0,0,1,.77-.995,2.174,2.174,0,0,1,.769.995l4.507,9.136.433.878.972.141,10.074,1.461a.8.8,0,1,1,.477,1.464Z" transform="translate(-194.509 -475.165)" fill="#30d68e"/>
</svg>
