<svg id="Group_622" data-name="Group 622" xmlns="http://www.w3.org/2000/svg" width="39.61" height="39.611" viewBox="0 0 39.61 39.611">
  <path id="Path_1143" data-name="Path 1143" d="M140.372,416.482a1.893,1.893,0,0,0-2.676,0l-2.025,2.025a1.893,1.893,0,0,0,2.676,2.678l2.025-2.026A1.891,1.891,0,0,0,140.372,416.482Z" transform="translate(-114.294 -402.952)" fill="#30d68e"/>
  <path id="Path_1144" data-name="Path 1144" d="M148.267,406.106a14.019,14.019,0,0,0-19.828,0L116.87,417.673A14.022,14.022,0,0,0,136.7,437.5l11.566-11.566A14.021,14.021,0,0,0,148.267,406.106Zm-13.042,29.918a11.934,11.934,0,1,1-16.877-16.876l11.568-11.566a11.946,11.946,0,0,1,16.1-.7l-6.15,6.15a1.044,1.044,0,1,0,1.476,1.477l6.15-6.15a11.944,11.944,0,0,1-.7,16.1Z" transform="translate(-112.764 -401.999)" fill="#5b629f"/>
  <path id="Path_1145" data-name="Path 1145" d="M146.439,424.493l-4.144-4.145c-.456-.455-.249-.759-.155-.888a3.279,3.279,0,0,0,.643-1.792l6.111-6.112c.4-.4.666,0,.775.208a10.613,10.613,0,0,1-1.875,12.339l-.357.359A.687.687,0,0,1,146.439,424.493Z" transform="translate(-114.766 -402.641)" fill="#30d68e"/>
</svg>
