<svg xmlns="http://www.w3.org/2000/svg" width="78.717" height="78.717" viewBox="0 0 78.717 78.717">
  <g id="support" transform="translate(-27.628 -140.094)">
    <rect id="Material_-_Vibrant_Primary_Text_-_Dark" data-name="Material - Vibrant Primary Text - Dark" width="78.717" height="78.717" rx="5" transform="translate(27.628 140.094)" fill="rgba(255,255,255,0.96)"/>
    <g id="Group_11082" data-name="Group 11082" transform="translate(49.263 163.944)">
      <path id="Path_1132" data-name="Path 1132" d="M473.012,252.01H445.781a4.577,4.577,0,0,0-4.374,4.375v18.144c0,2.27.636,2.7,2.9,2.7h30.172c2.269,0,2.371-.425,2.371-2.7V256.385C476.853,254.115,475.281,252.01,473.012,252.01Zm2.242,8.528v11.925c0,1.334-.859,2.774-2.242,2.774H445.781a3.007,3.007,0,0,1-2.776-2.774V256.385a3.006,3.006,0,0,1,2.776-2.776h27.286c1.385,0,2.187,1.441,2.187,2.776Z" transform="translate(-441.407 -252.01)" fill="#5b629f"/>
      <path id="Path_1133" data-name="Path 1133" d="M474.951,283.549H463.3a1.786,1.786,0,0,1-1.746,1.416h-4.988a1.787,1.787,0,0,1-1.746-1.416H443.176c-1.315,0-1.751.434-1.751,1.75v.591a2.381,2.381,0,0,0,2.38,2.383h30.516a2.381,2.381,0,0,0,2.38-2.383V285.3C476.7,283.983,476.266,283.549,474.951,283.549Z" transform="translate(-441.41 -257.257)" fill="#5b629f"/>
      <path id="Path_1134" data-name="Path 1134" d="M473.219,255.391H446.35a1.783,1.783,0,0,0-1.525,1.524v16.078a1.784,1.784,0,0,0,1.525,1.524h27.231c.568,0,.991-.8.991-1.524V256.915A1.637,1.637,0,0,0,473.219,255.391Zm-17.585,15.578a1.185,1.185,0,0,1-1.181,1.182h-2.117a1.185,1.185,0,0,1-1.182-1.182v-3.054a1.185,1.185,0,0,1,1.182-1.182h2.117a1.185,1.185,0,0,1,1.181,1.182Zm6.3,0a1.185,1.185,0,0,1-1.181,1.182h-2.119a1.185,1.185,0,0,1-1.181-1.182V261.35a1.185,1.185,0,0,1,1.181-1.182h2.119a1.185,1.185,0,0,1,1.181,1.182Zm6.3,0a1.185,1.185,0,0,1-1.182,1.182h-2.117a1.185,1.185,0,0,1-1.182-1.182v-5.661a1.185,1.185,0,0,1,1.182-1.18h2.117a1.185,1.185,0,0,1,1.182,1.18Z" transform="translate(-441.976 -252.572)" fill="#30d68e"/>
    </g>
  </g>
</svg>
