<svg xmlns="http://www.w3.org/2000/svg" width="24.033" height="22.698" viewBox="0 0 24.033 22.698">
  <g id="Group_13242" data-name="Group 13242" transform="translate(-34.287 -275.982)">
    <rect id="Rectangle_85281" data-name="Rectangle 85281" width="24.033" height="22.698" rx="5" transform="translate(34.287 275.982)" fill="#3fd68e"/>
    <path id="Path_9772" data-name="Path 9772" d="M4.191,11.606a.731.731,0,0,1-.487-.185L0,8.124,3.91,4.644a.733.733,0,1,1,.974,1.1L2.2,8.124l2.476,2.2a.733.733,0,0,1-.487,1.281Zm6.557,0,3.915-3.48-3.709-3.3a.733.733,0,0,0-.973,1.1l2.476,2.2L9.774,10.508a.733.733,0,1,0,.973,1.1ZM7.319,12.643l1.466-8.8a.733.733,0,1,0-1.446-.241L5.873,12.4a.733.733,0,1,0,1.446.241Z" transform="translate(38.975 279.207)" fill="#5b629f"/>
  </g>
</svg>
