<svg xmlns="http://www.w3.org/2000/svg" width="24.033" height="22.698" viewBox="0 0 24.033 22.698">
  <g id="Restore_Factory_Network_green" data-name="Restore Factory Network green" transform="translate(-34.287 -279.676)">
    <rect id="Rectangle_2486" data-name="Rectangle 2486" width="24.033" height="22.698" rx="5" transform="translate(34.287 279.676)" fill="#3fd68e"/>
    <g id="Group_2412" data-name="Group 2412" transform="translate(38.293 282.347)">
      <path id="Path_5767" data-name="Path 5767" d="M0,0H16.022V16.022H0Z" fill="none"/>
      <path id="Path_5768" data-name="Path 5768" d="M9.582,9.007a1.335,1.335,0,1,0-1.335,1.335A1.339,1.339,0,0,0,9.582,9.007ZM8.42,3A6.014,6.014,0,0,0,2.238,9.007H1.043a.33.33,0,0,0-.234.567l1.863,1.863a.331.331,0,0,0,.474,0L5.009,9.575a.334.334,0,0,0-.24-.567H3.573a4.672,4.672,0,0,1,4.74-4.673A4.732,4.732,0,0,1,12.92,8.94a4.668,4.668,0,0,1-6.97,4.132.649.649,0,0,0-.788.12A.666.666,0,0,0,5.3,14.241a6.01,6.01,0,0,0,8.959-5.407A6.079,6.079,0,0,0,8.42,3Z" transform="translate(-0.236 -0.996)" fill="#5b629f"/>
    </g>
  </g>
</svg>
