<svg xmlns="http://www.w3.org/2000/svg" width="24.034" height="22.699" viewBox="0 0 24.034 22.699">
  <g id="Force_Sync_green" data-name="Force Sync green" transform="translate(-34.287 -187.65)">
    <rect id="Rectangle_2486" data-name="Rectangle 2486" width="24.034" height="22.699" rx="5" transform="translate(34.287 187.65)" fill="#3fd68e"/>
    <g id="Layer_2" data-name="Layer 2" transform="translate(36.957 190.32)">
      <g id="sync" transform="translate(0 0)">
        <rect id="Rectangle_2487" data-name="Rectangle 2487" width="18.693" height="18.693" fill="#5b629f" opacity="0"/>
        <path id="Path_5762" data-name="Path 5762" d="M16.617,8.534a.465.465,0,0,0,.052-.142l.562-3a.762.762,0,0,0-1.5-.27l-.277,1.5a6.914,6.914,0,0,0-12.434.63.752.752,0,0,0,1.395.562,5.31,5.31,0,0,1,5.01-3.307A5.377,5.377,0,0,1,14.1,7.192l-1.237-.2a.759.759,0,1,0-.24,1.5l3.187.532h.12a.7.7,0,0,0,.255-.045.248.248,0,0,0,.075-.045.585.585,0,0,0,.15-.082l.06-.075a.8.8,0,0,0,.1-.12.435.435,0,0,0,.038-.12Zm-1.335,2.775a.75.75,0,0,0-.982.42,5.31,5.31,0,0,1-4.98,3.277,5.377,5.377,0,0,1-4.68-2.685l1.237.2H6a.752.752,0,1,0,.12-1.5L2.93,10.506a.682.682,0,0,0-.247,0h-.06a.862.862,0,0,0-.24.1.75.75,0,0,0-.135.135l-.067.075a.63.63,0,0,0-.052.142.33.33,0,0,0-.052.127l-.562,3a.75.75,0,0,0,.6.915h.135A.75.75,0,0,0,3,14.391l.277-1.5a6.914,6.914,0,0,0,12.434-.622A.75.75,0,0,0,15.282,11.309Z" transform="translate(-0.026 -0.41)" fill="#5b629f"/>
      </g>
    </g>
  </g>
</svg>
