<svg xmlns="http://www.w3.org/2000/svg" width="24.638" height="17.947" viewBox="0 0 24.638 17.947">
  <g id="Group_13234" data-name="Group 13234" transform="translate(-858.555 -362.197)">
    <path id="Path_2579" data-name="Path 2579" d="M882.006,432.261c.873.836,3,2.508,4.82,1.058,0,0,1.037.465,3.272-.965s7.384-3.9,7.384-3.9,3.377-1.822,3.343-1.929-6.848-3.772-8.528-3.629-10.859,4.291-10.859,4.291l.144,4.12A1.388,1.388,0,0,0,882.006,432.261Z" transform="translate(-20.263 -53.745)" fill="#12292d" opacity="0.28"/>
    <path id="Path_2580" data-name="Path 2580" d="M883.144,367.7c-.118.753-.318,1.519-.486,2.264a4.459,4.459,0,0,1-.8,1.853c-.792.978-2.148,1.391-3.229,1.956-1.42.743-2.882,1.416-4.32,2.124-2.654,1.306-5.478,2.646-8.426,2.4a1.256,1.256,0,0,1-1.2.926,3.255,3.255,0,0,1-1.564-.434,11.335,11.335,0,0,1-2.737-1.8,6.074,6.074,0,0,1-1.785-2.778c-.149-.6.157-1.393.772-1.409a18.421,18.421,0,0,1-.127-4.063,1.658,1.658,0,0,1,.26-.9,1.735,1.735,0,0,1,.844-.492l13.35-4.662a7.813,7.813,0,0,1,1.769-.466,6,6,0,0,1,2.075.22,8.637,8.637,0,0,1,5.068,3.241,2.971,2.971,0,0,1,.571,1.384A2.6,2.6,0,0,1,883.144,367.7Z" transform="translate(0 0)" fill="#081921"/>
    <path id="Path_2581" data-name="Path 2581" d="M865.626,454.814s1.162,3.035,6.519,5.491" transform="translate(-6.261 -82.013)" fill="none" stroke="#030d11" stroke-linecap="round" stroke-miterlimit="10" stroke-width="1"/>
    <path id="Path_2582" data-name="Path 2582" d="M865.1,455.387s1.162,3.035,6.519,5.491" transform="translate(-5.794 -82.52)" fill="none" stroke="#071f26" stroke-linecap="round" stroke-miterlimit="10" stroke-width="1"/>
    <path id="Path_2583" data-name="Path 2583" d="M887.976,400.4l-.018-.043a.414.414,0,0,0-.172-.221.465.465,0,0,0-.382.046l-8.8,3.813-2.993,1.3c-.961.416-1.95.795-2.876,1.287a2.149,2.149,0,0,1-.791.3,1.955,1.955,0,0,1-.895-.2,17.818,17.818,0,0,1-3.827-2.092,7.445,7.445,0,0,1-1.395-1.259,4.141,4.141,0,0,1-.529-.81,8.224,8.224,0,0,0-.382-.911c-.25-.388-.517-.168-.649.2a1.6,1.6,0,0,0-.083.438c-.012.141-.035.335-.056.474s-.01.3-.016.409,0,.157,0,.27a.567.567,0,0,0,.074.284,3.165,3.165,0,0,0,.6.774,17.766,17.766,0,0,0,3.2,2.564c1.07.682,2.313,1.562,3.632,1.522,1.429-.043,2.7-.831,4-1.342,2.863-1.128,5.826-1.956,8.651-3.189q.34-.148.677-.3,1.048-.477,2.067-1.017a1.789,1.789,0,0,0,.987-.928A1.957,1.957,0,0,0,887.976,400.4Z" transform="translate(-4.915 -33.571)" fill="#12292d"/>
    <path id="Path_2584" data-name="Path 2584" d="M888.532,399.2l-.018-.042a.407.407,0,0,0-.172-.216.47.47,0,0,0-.381.045l-8.778,3.729-2.984,1.268c-.958.407-1.944.778-2.867,1.259a2.173,2.173,0,0,1-.789.293,1.981,1.981,0,0,1-.892-.2,17.864,17.864,0,0,1-3.815-2.046,7.376,7.376,0,0,1-1.39-1.232,4.047,4.047,0,0,1-.528-.792,7.955,7.955,0,0,0-.381-.891c-.249-.38-.515-.165-.648.192a1.532,1.532,0,0,0-.082.429c-.012.138-.035.328-.055.463s-.01.289-.016.4,0,.154,0,.264a.547.547,0,0,0,.074.278,3.1,3.1,0,0,0,.6.757,17.661,17.661,0,0,0,3.192,2.508c1.067.667,2.306,1.528,3.621,1.489a12.429,12.429,0,0,0,3.984-1.312c2.855-1.1,5.809-1.913,8.625-3.119q.339-.145.675-.3,1.045-.467,2.061-.994a1.769,1.769,0,0,0,.984-.908A1.88,1.88,0,0,0,888.532,399.2Z" transform="translate(-5.471 -32.516)" fill="#061419"/>
    <path id="Path_2585" data-name="Path 2585" d="M868.546,444.395v1.6s1.611,1.9,2.559,2.107l.181-1.746A8.324,8.324,0,0,1,868.546,444.395Z" transform="translate(-8.847 -72.787)" fill="#0d2126"/>
    <path id="Path_2586" data-name="Path 2586" d="M869.429,446.112A6.3,6.3,0,0,0,871.967,448l-.134,1.427s-2.325-1.576-2.325-1.97S869.429,446.112,869.429,446.112Z" transform="translate(-9.629 -74.307)" fill="#080e0f"/>
    <path id="Path_2587" data-name="Path 2587" d="M871.681,456.81s1.171.941,1.744,1.331" transform="translate(-11.623 -83.78)" fill="none" stroke="#d4d8d8" stroke-miterlimit="10" stroke-width="1" opacity="0.38"/>
  </g>
</svg>
