<svg xmlns="http://www.w3.org/2000/svg" width="24.033" height="22.698" viewBox="0 0 24.033 22.698">
  <g id="Erase_Sensor_Data_green" data-name="Erase Sensor Data green" transform="translate(-34.287 -232.65)">
    <rect id="Rectangle_2486" data-name="Rectangle 2486" width="24.033" height="22.698" rx="5" transform="translate(34.287 232.65)" fill="#3fd68e"/>
    <path id="Path_5766" data-name="Path 5766" d="M16.8,8.489l-.233,7.052a2.323,2.323,0,0,1-2.33,2.247H9.811a2.323,2.323,0,0,1-2.33-2.244L7.248,8.489a.583.583,0,0,1,1.165-.038L8.646,15.5a1.165,1.165,0,0,0,1.165,1.12h4.427A1.165,1.165,0,0,0,15.4,15.5l.233-7.052a.583.583,0,1,1,1.165.038Zm.771-2.347a.582.582,0,0,1-.582.582H7.06a.582.582,0,1,1,0-1.165H8.866a.743.743,0,0,0,.741-.669,1.742,1.742,0,0,1,1.738-1.569H12.7a1.742,1.742,0,0,1,1.738,1.569.743.743,0,0,0,.741.669h1.806a.582.582,0,0,1,.582.582ZM10.619,5.56h2.812a1.922,1.922,0,0,1-.149-.55.582.582,0,0,0-.579-.524H11.346a.582.582,0,0,0-.579.524,1.922,1.922,0,0,1-.149.55Zm.587,8.825V9.425a.582.582,0,0,0-1.165,0v4.962a.582.582,0,0,0,1.165,0Zm2.8,0V9.425a.582.582,0,0,0-1.165,0v4.962a.582.582,0,0,0,1.165,0Z" transform="translate(34.279 233.334)" fill="#5b629f"/>
  </g>
</svg>
