<svg xmlns="http://www.w3.org/2000/svg" width="24" height="24.002" viewBox="0 0 24 24.002">
  <g id="Group_13863" data-name="Group 13863" transform="translate(-0.5 -0.497)">
    <path id="Path_12648" data-name="Path 12648" d="M23.139.84A1.154,1.154,0,0,0,21.5.84L12.68,9.658a1.165,1.165,0,0,0-.294.488l-1.44,4.808a1.157,1.157,0,0,0,.294,1.154,1.141,1.141,0,0,0,.821.341,1.234,1.234,0,0,0,.333-.046l4.808-1.44a1.165,1.165,0,0,0,.488-.294l8.818-8.818a1.159,1.159,0,0,0,0-1.641Z" transform="translate(-2.348)" fill="#6dc203"/>
    <path id="Path_12649" data-name="Path 12649" d="M23.339,11.339A1.161,1.161,0,0,0,22.177,12.5v7.742a1.938,1.938,0,0,1-1.935,1.935H4.758a1.938,1.938,0,0,1-1.935-1.935V4.758A1.938,1.938,0,0,1,4.758,2.823H12.5A1.161,1.161,0,1,0,12.5.5H4.758A4.263,4.263,0,0,0,.5,4.758V20.242A4.263,4.263,0,0,0,4.758,24.5H20.242A4.263,4.263,0,0,0,24.5,20.242V12.5A1.161,1.161,0,0,0,23.339,11.339Z" transform="translate(0 -0.001)" fill="#6dc203"/>
  </g>
</svg>
