<svg xmlns="http://www.w3.org/2000/svg" width="22.363" height="16.79" viewBox="0 0 22.363 16.79">
  <path id="fi-rr-wifi-alt" d="M14.845,29.115a1.68,1.68,0,1,1,1.68,1.68A1.68,1.68,0,0,1,14.845,29.115Zm7.618-3.564a1.68,1.68,0,0,0,0-2.375,8.4,8.4,0,0,0-11.876,0,1.68,1.68,0,1,0,2.375,2.375,5.163,5.163,0,0,1,7.125,0A1.68,1.68,0,0,0,22.463,25.55Zm4.752-4.75a1.68,1.68,0,0,0,0-2.375,15.134,15.134,0,0,0-21.379,0A1.68,1.68,0,1,0,8.21,20.8a11.776,11.776,0,0,1,16.629,0,1.68,1.68,0,0,0,2.375,0Z" transform="translate(-5.343 -14.004)" fill="#6bc100"/>
</svg>
