<svg xmlns="http://www.w3.org/2000/svg" xmlns:xlink="http://www.w3.org/1999/xlink" width="49.178" height="72.242" viewBox="0 0 49.178 72.242">
  <defs>
    <clipPath id="clip-path">
      <path id="Path_11178" data-name="Path 11178" d="M389.736,316.319a6.2,6.2,0,0,0-2.979-6.459,6.326,6.326,0,0,0-4.852.015c-4.655,1.542-2.378,4.112-.72,5.934,1.116,1.228,2.455.7,3.3,2.634,1.214,2.789-1.28,5.817-3.145,7.431-.211-4.512-4.033-6.066-6.291-9.3-1.949-2.79-2.571-6.429-4.279-9.555-.876-1.6-4.316-4.919-4.565-6.18-.275-1.394,1.744-4.574,1.766-6.355.031-2.521-.916-4.125-1.755-6.423-.928.573-1.613-8.322-2.25-9.109-2.347-2.9-2.095-.1-4.04,1.858-1.184,1.194-.419,1.66-1.7,2.223a23.524,23.524,0,0,1-6,.164c-3.7-1.178-7.171-10.236-7.68.009-.1,1.974.3,3.947-.041,5.668-.778,3.886-2.562,5.773-.767,10.094,1.084,2.609,3.367,4.189,3.717,6.373.481,3-1.037,6.721-.366,10.149a52,52,0,0,1,.228,19c-.229,1.511-4.279,9.659-1.307,10.352,1.507.351,2.231-2.278,2.837-3.238,2.7-4.279,5.411-11.42,5.493-16.574a19.745,19.745,0,0,0,2.5.813c-2.975,3.1.81,6.945.861,9.255.038,1.713-3.521,2.026-.092,3.982a2.348,2.348,0,0,0,1.59-.411,2.266,2.266,0,0,0,.71-.852c.451-.068.936-.125,1.453-.162.4-.029.79-.043,1.156-.047-.048,1.644-1.459,9.024.28,10.017,3.31,1.89,2.9-7.515,3.237-9.344,2.118.945,5.6,1.03,7.618-.229-.645,3.2,1.186,3.209,3.161,1.735l.321-1.73a5.092,5.092,0,0,1,1.573-3.7,10.828,10.828,0,0,0,2.657-5.263,1.433,1.433,0,0,0,.693.862c1.723.8,6.065-2.639,7.544-6.882A11.371,11.371,0,0,0,389.736,316.319Z" transform="translate(-342.959 -277.704)" fill="#fadfba"/>
    </clipPath>
    <clipPath id="clip-path-2">
      <path id="Path_11178-2" data-name="Path 11178" d="M389.736,316.319a6.2,6.2,0,0,0-2.979-6.459,6.326,6.326,0,0,0-4.852.015c-4.655,1.542-2.378,4.112-.72,5.934,1.116,1.228,2.455.7,3.3,2.634,1.214,2.789-1.28,5.817-3.145,7.431-.211-4.512-4.033-6.066-6.291-9.3-1.949-2.79-2.571-6.429-4.279-9.555-.876-1.6-4.316-4.919-4.565-6.18-.275-1.394,1.744-4.574,1.766-6.355.031-2.521-.916-4.125-1.755-6.423-.928.573-1.613-8.322-2.25-9.109-2.347-2.9-2.095-.1-4.04,1.858-1.184,1.194-.419,1.66-1.7,2.223a23.524,23.524,0,0,1-6,.164c-3.7-1.178-7.171-10.236-7.68.009-.1,1.974.3,3.947-.041,5.668-.778,3.886-2.562,5.773-.767,10.094,1.084,2.609,3.367,4.189,3.717,6.373.481,3-1.037,6.721-.366,10.149a52,52,0,0,1,.228,19c-.229,1.511-4.279,9.659-1.307,10.352,1.507.351,2.231-2.278,2.837-3.238,2.7-4.279,5.411-11.42,5.493-16.574a19.745,19.745,0,0,0,2.5.813c-2.975,3.1.81,6.945.861,9.255.038,1.713-3.521,2.026-.092,3.982a2.348,2.348,0,0,0,1.59-.411,2.266,2.266,0,0,0,.71-.852c.451-.068.936-.125,1.453-.162.4-.029.79-.043,1.156-.047-.048,1.644-1.459,9.024.28,10.017,3.31,1.89,2.9-7.515,3.237-9.344,2.118.945,5.6,1.03,7.618-.229-.645,3.2,1.186,3.209,3.161,1.735l.321-1.73a5.092,5.092,0,0,1,1.573-3.7,10.828,10.828,0,0,0,2.657-5.263,1.433,1.433,0,0,0,.693.862c1.723.8,6.065-2.639,7.544-6.882A11.371,11.371,0,0,0,389.736,316.319Z" transform="translate(-342.959 -277.704)" fill="#ffbf94"/>
    </clipPath>
  </defs>
  <g id="Group_13820" data-name="Group 13820" transform="translate(-342.959 -270.411)">
    <g id="Group_13931" data-name="Group 13931" transform="translate(342.959 272.483)">
      <g id="Group_13283" data-name="Group 13283" transform="translate(0 0)">
        <path id="Path_11170" data-name="Path 11170" d="M389.736,316.319a6.2,6.2,0,0,0-2.979-6.459,6.326,6.326,0,0,0-4.852.015c-4.655,1.542-2.378,4.112-.72,5.934,1.116,1.228,2.455.7,3.3,2.634,1.214,2.789-1.28,5.817-3.145,7.431-.211-4.512-4.033-6.066-6.291-9.3-1.949-2.79-2.571-6.429-4.279-9.555-.876-1.6-4.316-4.919-4.565-6.18-.275-1.394,1.744-4.574,1.766-6.355.031-2.521-.916-4.125-1.755-6.423-.928.573-1.613-8.322-2.25-9.109-2.347-2.9-2.095-.1-4.04,1.858-1.184,1.194-.419,1.66-1.7,2.223a23.524,23.524,0,0,1-6,.164c-3.7-1.178-7.171-10.236-7.68.009-.1,1.974.3,3.947-.041,5.668-.778,3.886-2.562,5.773-.767,10.094,1.084,2.609,3.367,4.189,3.717,6.373.481,3-1.037,6.721-.366,10.149a52,52,0,0,1,.228,19c-.229,1.511-4.279,9.659-1.307,10.352,1.507.351,2.231-2.278,2.837-3.238,2.7-4.279,5.411-11.42,5.493-16.574a19.745,19.745,0,0,0,2.5.813c-2.975,3.1.81,6.945.861,9.255.038,1.713-3.521,2.026-.092,3.982a2.348,2.348,0,0,0,1.59-.411,2.266,2.266,0,0,0,.71-.852c.451-.068.936-.125,1.453-.162.4-.029.79-.043,1.156-.047-.048,1.644-1.459,9.024.28,10.017,3.31,1.89,2.9-7.515,3.237-9.344,2.118.945,5.6,1.03,7.618-.229-.645,3.2,1.186,3.209,3.161,1.735l.321-1.73a5.092,5.092,0,0,1,1.573-3.7,10.828,10.828,0,0,0,2.657-5.263,1.433,1.433,0,0,0,.693.862c1.723.8,6.065-2.639,7.544-6.882A11.371,11.371,0,0,0,389.736,316.319Z" transform="translate(-342.959 -277.704)" fill="#fadfba"/>
        <g id="Group_13282" data-name="Group 13282" clip-path="url(#clip-path)">
          <path id="Path_11171" data-name="Path 11171" d="M375.217,313.727c-.253-7.3-4.557,5.661-.561,1.329l-.039.025a1.623,1.623,0,0,0,.6-1.354C375.209,313.517,375.235,314.253,375.217,313.727Z" transform="translate(-364.439 -301.863)" fill="#fadfba"/>
          <path id="Path_11172" data-name="Path 11172" d="M388.952,316.255c1.813-3.326-3.632-1.36-2.228-.058,1.149,1.066,2.025.478,2.228.058C389.124,315.94,388.906,316.349,388.952,316.255Z" transform="translate(-374.123 -303.99)" fill="#fadfba"/>
          <path id="Path_11173" data-name="Path 11173" d="M355.061,293.048c-.639-3.937-4.145-7.563-3.56-1C351.756,294.912,355.6,296.381,355.061,293.048Z" transform="translate(-349.027 -285.383)" fill="#fadfba"/>
          <path id="Path_11174" data-name="Path 11174" d="M408.96,285.787c-.41-2.744-2.683-8.749-3.74-2.123-.664,4.164,4.194,5.161,3.74,2.123Z" transform="translate(-387.487 -279.82)" fill="#fadfba"/>
          <path id="Path_11175" data-name="Path 11175" d="M370.059,335.627c1.523-2.232,3.74-7.925.315-9.746-3.186-1.694-5.521,3.5-7.333,5.2-1.1-2.528-3.3-1.276-4.707-1.729-.126-.041-1.436.435-1.923.292-1.384-.406-.677-2.334-2.948-2.611-3.437-.419-4.964,2.96-4.469,5.879.63,3.712,4.533,6.382,7.775,7.658-9.157-.3-4.875,11.1,1.345,13.021-7.878,2.5-.04,15.025-2.764,19.8a18.814,18.814,0,0,0,3.078-6.657,18.237,18.237,0,0,0,.429-2.667c.106-1.261.274-2.842.474-2.841.24,0,.072,2.285.917,4.513,1.3,3.429,5.042,6.664,6.421,5.627.513-.385.728-6.278.826-7.347.417-4.522.194-8.7-4.94-10.193,4.323-.811,10.018-5.5,10.128-10.272.126-5.513-3.183-3.545-7.346-3.544a15.345,15.345,0,0,0,4.722-4.381Zm-9.574-.583c.937,3.928-6.96,2.342-3.093-1.465,1.464-1.441,4.976-.018,3.093,1.465C360.554,335.336,360.806,334.792,360.485,335.044Z" transform="translate(-347.215 -311.954)" fill="#fadfba"/>
          <path id="Path_11176" data-name="Path 11176" d="M477.39,385.457c-1.753-6.288-11.9-11.612-16.074-4.138-1.215,2.176-1.408,5.495,1.555,5.728,3.129.247,2.776-4.616,6.92-3.291,3.323,1.063,3.652,6.012,2.869,8.7-.756,2.594-5.45,5.428-5.71,7.548-.513,4.186,4.888.58,6.651-1.2,3.327-3.369,5.084-8.7,3.789-13.346Z" transform="translate(-427.095 -349.268)" fill="#fadfba"/>
          <path id="Path_11177" data-name="Path 11177" d="M432.994,444.483c-.283-2.843-1.507-4.842-1.164-7.875.156-1.379,2.723-5,1.315-6.121-4.394-3.5-4.447,10.723-3.9,12.178-.518-.371-2.629-2.631-2.793-2.383-2.381,3.6-2.771,10.005,2.138,9.435,1.962-.228,5.552-3.793,4.4-5.234C432.931,443.848,433.168,444.7,432.994,444.483Zm-3.87,4.579q.035-.4.514-.369a1.351,1.351,0,0,1-.514.369C429.148,448.994,429.326,448.978,429.125,449.061Z" transform="translate(-401.511 -386.685)" fill="#fadfba"/>
        </g>
      </g>
    </g>
    <g id="Group_13284" data-name="Group 13284" transform="translate(342.959 272.483)">
      <g id="Group_13283-2" data-name="Group 13283" transform="translate(0 0)">
        <path id="Path_11170-2" data-name="Path 11170" d="M389.736,316.319a6.2,6.2,0,0,0-2.979-6.459,6.326,6.326,0,0,0-4.852.015c-4.655,1.542-2.378,4.112-.72,5.934,1.116,1.228,2.455.7,3.3,2.634,1.214,2.789-1.28,5.817-3.145,7.431-.211-4.512-4.033-6.066-6.291-9.3-1.949-2.79-2.571-6.429-4.279-9.555-.876-1.6-4.316-4.919-4.565-6.18-.275-1.394,1.744-4.574,1.766-6.355.031-2.521-.916-4.125-1.755-6.423-.928.573-1.613-8.322-2.25-9.109-2.347-2.9-2.095-.1-4.04,1.858-1.184,1.194-.419,1.66-1.7,2.223a23.524,23.524,0,0,1-6,.164c-3.7-1.178-7.171-10.236-7.68.009-.1,1.974.3,3.947-.041,5.668-.778,3.886-2.562,5.773-.767,10.094,1.084,2.609,3.367,4.189,3.717,6.373.481,3-1.037,6.721-.366,10.149a52,52,0,0,1,.228,19c-.229,1.511-4.279,9.659-1.307,10.352,1.507.351,2.231-2.278,2.837-3.238,2.7-4.279,5.411-11.42,5.493-16.574a19.745,19.745,0,0,0,2.5.813c-2.975,3.1.81,6.945.861,9.255.038,1.713-3.521,2.026-.092,3.982a2.348,2.348,0,0,0,1.59-.411,2.266,2.266,0,0,0,.71-.852c.451-.068.936-.125,1.453-.162.4-.029.79-.043,1.156-.047-.048,1.644-1.459,9.024.28,10.017,3.31,1.89,2.9-7.515,3.237-9.344,2.118.945,5.6,1.03,7.618-.229-.645,3.2,1.186,3.209,3.161,1.735l.321-1.73a5.092,5.092,0,0,1,1.573-3.7,10.828,10.828,0,0,0,2.657-5.263,1.433,1.433,0,0,0,.693.862c1.723.8,6.065-2.639,7.544-6.882A11.371,11.371,0,0,0,389.736,316.319Z" transform="translate(-342.959 -277.704)" fill="#f5b054"/>
        <g id="Group_13282-2" data-name="Group 13282" clip-path="url(#clip-path-2)">
          <path id="Path_11171-2" data-name="Path 11171" d="M375.217,313.727c-.253-7.3-4.557,5.661-.561,1.329l-.039.025a1.623,1.623,0,0,0,.6-1.354C375.209,313.517,375.235,314.253,375.217,313.727Z" transform="translate(-364.439 -301.863)" fill="#fadfba"/>
          <path id="Path_11172-2" data-name="Path 11172" d="M388.952,316.255c1.813-3.326-3.632-1.36-2.228-.058,1.149,1.066,2.025.478,2.228.058C389.124,315.94,388.906,316.349,388.952,316.255Z" transform="translate(-374.123 -303.99)" fill="#fadfba"/>
          <path id="Path_11173-2" data-name="Path 11173" d="M355.061,293.048c-.639-3.937-4.145-7.563-3.56-1C351.756,294.912,355.6,296.381,355.061,293.048Z" transform="translate(-349.027 -285.383)" fill="#fadfba"/>
          <path id="Path_11174-2" data-name="Path 11174" d="M408.96,285.787c-.41-2.744-2.683-8.749-3.74-2.123-.664,4.164,4.194,5.161,3.74,2.123Z" transform="translate(-387.487 -279.82)" fill="#fadfba"/>
          <path id="Path_11175-2" data-name="Path 11175" d="M370.059,335.627c1.523-2.232,3.74-7.925.315-9.746-3.186-1.694-5.521,3.5-7.333,5.2-1.1-2.528-3.3-1.276-4.707-1.729-.126-.041-1.436.435-1.923.292-1.384-.406-.677-2.334-2.948-2.611-3.437-.419-4.964,2.96-4.469,5.879.63,3.712,4.533,6.382,7.775,7.658-9.157-.3-4.875,11.1,1.345,13.021-7.878,2.5-.04,15.025-2.764,19.8a18.814,18.814,0,0,0,3.078-6.657,18.237,18.237,0,0,0,.429-2.667c.106-1.261.274-2.842.474-2.841.24,0,.072,2.285.917,4.513,1.3,3.429,5.042,6.664,6.421,5.627.513-.385.728-6.278.826-7.347.417-4.522.194-8.7-4.94-10.193,4.323-.811,10.018-5.5,10.128-10.272.126-5.513-3.183-3.545-7.346-3.544a15.345,15.345,0,0,0,4.722-4.381Zm-9.574-.583c.937,3.928-6.96,2.342-3.093-1.465,1.464-1.441,4.976-.018,3.093,1.465C360.554,335.336,360.806,334.792,360.485,335.044Z" transform="translate(-347.215 -311.954)" fill="#fadfba"/>
          <path id="Path_11176-2" data-name="Path 11176" d="M477.39,385.457c-1.753-6.288-11.9-11.612-16.074-4.138-1.215,2.176-1.408,5.495,1.555,5.728,3.129.247,2.776-4.616,6.92-3.291,3.323,1.063,3.652,6.012,2.869,8.7-.756,2.594-5.45,5.428-5.71,7.548-.513,4.186,4.888.58,6.651-1.2,3.327-3.369,5.084-8.7,3.789-13.346Z" transform="translate(-427.095 -349.268)" fill="#fff"/>
          <path id="Path_11177-2" data-name="Path 11177" d="M432.994,444.483c-.283-2.843-1.507-4.842-1.164-7.875.156-1.379,2.723-5,1.315-6.121-4.394-3.5-4.447,10.723-3.9,12.178-.518-.371-2.629-2.631-2.793-2.383-2.381,3.6-2.771,10.005,2.138,9.435,1.962-.228,5.552-3.793,4.4-5.234C432.931,443.848,433.168,444.7,432.994,444.483Zm-3.87,4.579q.035-.4.514-.369a1.351,1.351,0,0,1-.514.369C429.148,448.994,429.326,448.978,429.125,449.061Z" transform="translate(-401.511 -386.685)" fill="#fadfba"/>
        </g>
      </g>
    </g>
    <g id="Group_13285" data-name="Group 13285" transform="translate(345.221 271.114)">
      <path id="Path_11179" data-name="Path 11179" d="M357.591,278.255c-.486-1.286-3.521-7.068-5.45-4.883-.89,1.008-1.028,2.988-1.155,4.263a12.567,12.567,0,0,0,.77,5.719c.142.382.76.217.616-.17a12.526,12.526,0,0,1-.479-7.2,5.754,5.754,0,0,1,.4-1.509c1.026-1.49,1.96-.208,2.491.4a11.658,11.658,0,0,1,2.192,3.545c.144.381.762.216.617-.17Z" transform="translate(-350.923 -272.884)" fill="#545454"/>
    </g>
    <g id="Group_13286" data-name="Group 13286" transform="translate(351.754 276.306)">
      <path id="Path_11180" data-name="Path 11180" d="M374.3,292.643a12.561,12.561,0,0,1,8.079-.339.32.32,0,0,0,.17-.616,13.176,13.176,0,0,0-8.419.339c-.377.152-.212.77.17.616Z" transform="translate(-373.917 -291.161)" fill="#545454"/>
    </g>
    <g id="Group_13287" data-name="Group 13287" transform="translate(359.767 270.411)">
      <path id="Path_11181" data-name="Path 11181" d="M402.757,277.265a21.384,21.384,0,0,1,1.316-3.1q.346-.654.738-1.281.261-.418.543-.823.39-1.211,1.288-.3c.959.471.84.617,1.007,1.588.1.6.195,1.206.276,1.812.163,1.227.272,2.456.345,3.692.024.409.664.412.639,0a51.216,51.216,0,0,0-.6-5.41c-.168-1-.268-2.672-1.507-3-1.178-.308-1.9,1.1-2.412,1.9a21.7,21.7,0,0,0-2.252,4.737c-.133.39.484.558.617.17Z" transform="translate(-402.122 -270.411)" fill="#545454"/>
    </g>
    <g id="Group_13288" data-name="Group 13288" transform="translate(343.69 281.88)">
      <path id="Path_11182" data-name="Path 11182" d="M347.833,310.876c-2.315,2.385-2.561,6.013-2.119,9.147a10.416,10.416,0,0,0,5.862,8.011c.37.176.694-.375.323-.552a9.776,9.776,0,0,1-5.511-7.244c-.493-3-.33-6.615,1.9-8.91.287-.3-.165-.748-.452-.452Z" transform="translate(-345.534 -310.78)" fill="#545454"/>
    </g>
    <g id="Group_13289" data-name="Group 13289" transform="translate(365.392 278.765)">
      <path id="Path_11183" data-name="Path 11183" d="M422.384,300.372a13.766,13.766,0,0,1-.375,18.469c-.281.3.17.753.452.452a14.419,14.419,0,0,0,.375-19.372c-.27-.312-.72.142-.452.452Z" transform="translate(-421.921 -299.815)" fill="#545454"/>
    </g>
    <g id="Group_13290" data-name="Group 13290" transform="translate(347.298 299.506)">
      <path id="Path_11184" data-name="Path 11184" d="M359.074,373.045a19.984,19.984,0,0,0,1.807,15.674.32.32,0,0,0,.552-.323,19.318,19.318,0,0,1-1.742-15.181.32.32,0,0,0-.616-.17Z" transform="translate(-358.234 -372.821)" fill="#545454"/>
    </g>
    <g id="Group_13291" data-name="Group 13291" transform="translate(345.163 314.756)">
      <path id="Path_11185" data-name="Path 11185" d="M355.139,426.714c-1.609,4.038-1.044,8.345-1.333,12.578a15.122,15.122,0,0,1-1.873,6.758c-.791,1.356-1.633,2.677-.986,4.267.153.376.772.212.616-.17-.8-1.977,1.128-3.823,1.822-5.571a17.5,17.5,0,0,0,1.061-5.285c.285-4.176-.278-8.424,1.31-12.409.152-.382-.466-.548-.617-.17Z" transform="translate(-350.717 -426.5)" fill="#545454"/>
    </g>
    <g id="Group_13292" data-name="Group 13292" transform="translate(345.988 336.276)">
      <path id="Path_11186" data-name="Path 11186" d="M353.951,502.413a3.034,3.034,0,0,0,0,2.746c.182.369.733.046.552-.322a2.349,2.349,0,0,1,0-2.1c.181-.368-.37-.692-.552-.323Z" transform="translate(-353.621 -502.25)" fill="#545454"/>
    </g>
    <g id="Group_13293" data-name="Group 13293" transform="translate(347.074 337.194)">
      <path id="Path_11187" data-name="Path 11187" d="M358.02,505.523a1.071,1.071,0,0,0,.538,2.022.32.32,0,0,0,0-.639.437.437,0,0,1-.216-.831.32.32,0,0,0-.323-.552Z" transform="translate(-357.443 -505.479)" fill="#545454"/>
    </g>
    <g id="Group_13294" data-name="Group 13294" transform="translate(348.531 318.999)">
      <path id="Path_11188" data-name="Path 11188" d="M363.181,460.543a40.86,40.86,0,0,0,6.727-18.8c.04-.409-.6-.406-.639,0a40.2,40.2,0,0,1-6.64,18.478c-.23.343.324.663.552.323Z" transform="translate(-362.575 -441.437)" fill="#545454"/>
    </g>
    <g id="Group_13295" data-name="Group 13295" transform="translate(353.912 317.425)">
      <path id="Path_11189" data-name="Path 11189" d="M382.226,436.112l-.17-.136a.321.321,0,0,0-.5.388c1.074,2.2,4.071,2.391,6.175,2.9.4.1.57-.52.17-.617-1.9-.459-4.835-.643-5.793-2.6l-.5.387.17.136c.318.255.773-.2.452-.452Z" transform="translate(-381.513 -435.894)" fill="#545454"/>
    </g>
    <g id="Group_13296" data-name="Group 13296" transform="translate(367.895 294.49)">
      <path id="Path_11190" data-name="Path 11190" d="M430.786,355.637a99.535,99.535,0,0,1,8.035,15.066c.161.377.712.052.552-.323a99.521,99.521,0,0,0-8.035-15.065c-.223-.344-.777-.024-.552.322Z" transform="translate(-430.733 -355.167)" fill="#545454"/>
    </g>
    <g id="Group_13297" data-name="Group 13297" transform="translate(371.212 309.397)">
      <path id="Path_11191" data-name="Path 11191" d="M446.847,408.17c4.143,3.558,7.935,7.651,6.885,13.559a11.213,11.213,0,0,1-11.014,9.1.32.32,0,0,0,0,.639,11.755,11.755,0,0,0,10.692-16.823c-1.35-2.825-3.78-4.922-6.111-6.924-.311-.267-.765.184-.452.452Z" transform="translate(-442.409 -407.637)" fill="#545454"/>
    </g>
    <g id="Group_13298" data-name="Group 13298" transform="translate(356.554 319.884)">
      <path id="Path_11192" data-name="Path 11192" d="M391.12,444.779a10.331,10.331,0,0,0,6.142,12.1c.379.158.545-.46.17-.616a9.677,9.677,0,0,1-5.7-11.319c.1-.4-.52-.57-.617-.17Z" transform="translate(-390.814 -444.551)" fill="#545454"/>
    </g>
    <g id="Group_13299" data-name="Group 13299" transform="translate(361.641 319.443)">
      <path id="Path_11193" data-name="Path 11193" d="M408.733,443.395a41.3,41.3,0,0,1,1.554,12.079,54.8,54.8,0,0,1-.544,5.843,7,7,0,0,0,.465,4.255c.186.367.738.044.552-.323-.937-1.847-.344-3.912-.111-5.858a40.783,40.783,0,0,0,.282-5.489,42.056,42.056,0,0,0-1.582-10.678.32.32,0,0,0-.616.17Z" transform="translate(-408.72 -442.999)" fill="#545454"/>
    </g>
    <g id="Group_13300" data-name="Group 13300" transform="translate(363.445 340.078)">
      <path id="Path_11194" data-name="Path 11194" d="M415.166,515.855a2.015,2.015,0,0,0,.27,1.787c.236.333.791.014.552-.323a1.406,1.406,0,0,1-.205-1.294c.126-.393-.491-.561-.616-.17Z" transform="translate(-415.067 -515.633)" fill="#545454"/>
    </g>
    <g id="Group_13301" data-name="Group 13301" transform="translate(364.743 340.166)">
      <path id="Path_11195" data-name="Path 11195" d="M419.637,516.251q.01.816.02,1.632a.32.32,0,0,0,.639,0q-.01-.816-.02-1.632a.32.32,0,0,0-.639,0Z" transform="translate(-419.637 -515.942)" fill="#545454"/>
    </g>
    <g id="Group_13302" data-name="Group 13302" transform="translate(365.519 315.361)">
      <path id="Path_11196" data-name="Path 11196" d="M422.972,455.255a10.647,10.647,0,0,0,1.331-5.274,38.681,38.681,0,0,1,1.211-7.53c1.164-4.462,2.553-8.952,1.593-13.592-.084-.4-.7-.232-.616.17.971,4.689-.575,9.247-1.722,13.752a33.157,33.157,0,0,0-1.027,5.839c-.154,2.186-.105,4.394-1.322,6.312-.221.348.332.669.552.322Z" transform="translate(-422.369 -428.63)" fill="#545454"/>
    </g>
    <g id="Group_13303" data-name="Group 13303" transform="translate(370.575 305.328)">
      <path id="Path_11197" data-name="Path 11197" d="M440.189,393.7a9.431,9.431,0,0,1,.359,6.281.32.32,0,0,0,.616.17,10.011,10.011,0,0,0-.359-6.621c-.153-.376-.772-.211-.616.17Z" transform="translate(-440.164 -393.317)" fill="#545454"/>
    </g>
    <g id="Group_13304" data-name="Group 13304" transform="translate(374.201 331.966)">
      <path id="Path_11198" data-name="Path 11198" d="M453.544,487.217a3.18,3.18,0,0,0-.091,3.624c.224.343.778.023.552-.322a2.559,2.559,0,0,1,.091-2.979c.244-.332-.311-.651-.552-.322Z" transform="translate(-452.93 -487.079)" fill="#545454"/>
    </g>
    <g id="Group_13305" data-name="Group 13305" transform="translate(375.138 333.763)">
      <path id="Path_11199" data-name="Path 11199" d="M456.407,493.551a1.254,1.254,0,0,0,.734,1.844.32.32,0,0,0,.17-.617.609.609,0,0,1-.352-.9c.223-.347-.33-.668-.552-.322Z" transform="translate(-456.228 -493.403)" fill="#545454"/>
    </g>
    <g id="Group_13306" data-name="Group 13306" transform="translate(376.528 333.65)">
      <path id="Path_11200" data-name="Path 11200" d="M461.12,493.314q0,.688.005,1.375a.32.32,0,0,0,.639,0q0-.687-.005-1.375a.32.32,0,0,0-.639,0Z" transform="translate(-461.12 -493.006)" fill="#545454"/>
    </g>
    <g id="Group_13307" data-name="Group 13307" transform="translate(377.47 330.611)">
      <path id="Path_11201" data-name="Path 11201" d="M465.134,482.709a6.153,6.153,0,0,1-.659,3.826c-.191.364.361.688.552.322a6.889,6.889,0,0,0,.724-4.319c-.061-.405-.677-.233-.616.17Z" transform="translate(-464.435 -482.308)" fill="#545454"/>
    </g>
    <g id="Group_13308" data-name="Group 13308" transform="translate(356.118 328.641)">
      <path id="Path_11202" data-name="Path 11202" d="M391.306,475.46a6.034,6.034,0,0,0-2.026,4.048c-.037.41.6.407.639,0a5.379,5.379,0,0,1,1.839-3.6c.309-.273-.145-.723-.452-.452Z" transform="translate(-389.279 -475.376)" fill="#545454"/>
    </g>
    <g id="Group_13309" data-name="Group 13309" transform="translate(356.83 331.287)">
      <path id="Path_11203" data-name="Path 11203" d="M392.2,484.761a1.111,1.111,0,0,0,.4,1.938.32.32,0,0,0,.17-.617.475.475,0,0,1-.122-.869c.324-.253-.131-.7-.452-.452Z" transform="translate(-391.784 -484.688)" fill="#545454"/>
    </g>
    <g id="Group_13310" data-name="Group 13310" transform="translate(357.829 331.475)">
      <path id="Path_11204" data-name="Path 11204" d="M395.785,485.391a1,1,0,0,0-.074,1.661c.334.241.654-.314.322-.552a.354.354,0,0,1,.074-.557c.363-.194.041-.746-.322-.552Z" transform="translate(-395.3 -485.351)" fill="#545454"/>
    </g>
    <g id="Group_13311" data-name="Group 13311" transform="translate(358.664 330.646)">
      <path id="Path_11205" data-name="Path 11205" d="M400.142,482.659a3.1,3.1,0,0,1-1.737,2.127c-.372.174-.048.726.322.552a3.706,3.706,0,0,0,2.031-2.509c.095-.4-.522-.571-.616-.17Z" transform="translate(-398.239 -482.43)" fill="#545454"/>
    </g>
    <g id="Group_13312" data-name="Group 13312" transform="translate(382.014 309.41)">
      <path id="Path_11206" data-name="Path 11206" d="M481.016,417.731c2.289-.935,3.226-3.237,3.268-5.6.038-2.143-1.036-4.646-3.548-4.44-.407.033-.411.673,0,.639,2.376-.195,3.036,2.374,2.889,4.248-.149,1.892-.913,3.769-2.779,4.532-.376.153-.211.772.17.616Z" transform="translate(-480.43 -407.684)" fill="#545454"/>
    </g>
    <g id="Group_13313" data-name="Group 13313" transform="translate(380.527 307.623)">
      <path id="Path_11207" data-name="Path 11207" d="M475.823,403.489a3.289,3.289,0,0,1,.853-1.547c.287-.295-.164-.747-.452-.452a3.931,3.931,0,0,0-1.017,1.829c-.1.4.519.57.616.17Z" transform="translate(-475.197 -401.394)" fill="#545454"/>
    </g>
    <g id="Group_13314" data-name="Group 13314" transform="translate(379.77 305.192)">
      <path id="Path_11208" data-name="Path 11208" d="M473.155,396.547a4.464,4.464,0,0,1,2.344-3.12c.365-.19.042-.742-.322-.552a5.071,5.071,0,0,0-2.638,3.5c-.082.4.534.573.616.17Z" transform="translate(-472.531 -392.836)" fill="#545454"/>
    </g>
    <g id="Group_13315" data-name="Group 13315" transform="translate(381.922 303.742)">
      <path id="Path_11209" data-name="Path 11209" d="M480.412,388.574l2.823-.2c.408-.029.411-.668,0-.639l-2.823.2c-.408.029-.411.668,0,.639Z" transform="translate(-480.105 -387.734)" fill="#545454"/>
    </g>
    <g id="Group_13316" data-name="Group 13316" transform="translate(384.795 303.204)">
      <path id="Path_11210" data-name="Path 11210" d="M490.526,386.482a2.86,2.86,0,0,1,3.037,3.059c-.02.411.619.41.639,0a3.5,3.5,0,0,0-3.677-3.7c-.41.018-.412.657,0,.639Z" transform="translate(-490.217 -385.839)" fill="#545454"/>
    </g>
    <g id="Group_13317" data-name="Group 13317" transform="translate(387.973 303.611)">
      <path id="Path_11211" data-name="Path 11211" d="M501.513,387.8a3.963,3.963,0,0,1,1.449,3.628c-.05.407.59.4.639,0a4.54,4.54,0,0,0-1.637-4.08c-.316-.259-.77.191-.452.452Z" transform="translate(-501.405 -387.272)" fill="#545454"/>
    </g>
    <g id="Group_13318" data-name="Group 13318" transform="translate(390.051 305.415)">
      <path id="Path_11212" data-name="Path 11212" d="M508.747,394.11a7.717,7.717,0,0,1,.574,3.932c-.044.409.6.405.639,0a8.335,8.335,0,0,0-.661-4.254c-.162-.377-.713-.052-.552.322Z" transform="translate(-508.718 -393.62)" fill="#545454"/>
    </g>
    <g id="Group_13319" data-name="Group 13319" transform="translate(383.182 319.236)">
      <path id="Path_11213" data-name="Path 11213" d="M484.848,447.2a8.3,8.3,0,0,0,6.742-4.444c.191-.364-.361-.688-.552-.322a7.65,7.65,0,0,1-6.19,4.127c-.407.033-.411.673,0,.639Z" transform="translate(-484.541 -442.27)" fill="#545454"/>
    </g>
    <g id="Group_13320" data-name="Group 13320" transform="translate(387.399 315.742)">
      <path id="Path_11214" data-name="Path 11214" d="M499.858,434.756a7.652,7.652,0,0,0,3.377-4.392.32.32,0,0,0-.617-.17,6.974,6.974,0,0,1-3.084,4.01c-.35.214-.03.767.323.552Z" transform="translate(-499.384 -429.97)" fill="#545454"/>
    </g>
    <g id="Group_13321" data-name="Group 13321" transform="translate(390.097 310.209)">
      <path id="Path_11215" data-name="Path 11215" d="M509.691,410.8a5.386,5.386,0,0,1-.761,3.33.32.32,0,0,0,.552.322,5.975,5.975,0,0,0,.849-3.652c-.036-.407-.676-.41-.639,0Z" transform="translate(-508.881 -410.495)" fill="#545454"/>
    </g>
    <g id="Group_13322" data-name="Group 13322" transform="translate(390.29 312.743)">
      <path id="Path_11216" data-name="Path 11216" d="M510.78,419.642a5.483,5.483,0,0,1-1.136,2.178c-.266.311.184.765.452.452a6.221,6.221,0,0,0,1.3-2.459.32.32,0,0,0-.616-.17Z" transform="translate(-509.562 -419.416)" fill="#545454"/>
    </g>
    <g id="Group_13323" data-name="Group 13323" transform="translate(350.696 284.404)">
      <path id="Path_11217" data-name="Path 11217" d="M371.865,319.784a1.178,1.178,0,0,0-1.6.582,1.141,1.141,0,0,0,.928,1.5,1.116,1.116,0,0,0,1.216-1.17.974.974,0,0,0-1.424-.879.741.741,0,0,0-.267.972.69.69,0,0,0,.947.238c.349-.217.028-.77-.322-.552-.113.07-.055-.132.069-.153.161-.028.312.15.347.287a.519.519,0,0,1-.361.626.512.512,0,0,1-.554-.595.531.531,0,0,1,.7-.3c.368.18.692-.371.322-.552Z" transform="translate(-370.193 -319.665)" fill="#545454"/>
    </g>
    <g id="Group_13324" data-name="Group 13324" transform="translate(358.589 283.796)">
      <path id="Path_11218" data-name="Path 11218" d="M399.772,317.685a1.263,1.263,0,0,0-1.69.571,1.146,1.146,0,0,0,.74,1.557,1.105,1.105,0,0,0,1.462-.77,1.226,1.226,0,0,0-.841-1.492A1.257,1.257,0,0,0,398,318.994c.069.4.685.233.616-.17s.5-.849.853-.574a.555.555,0,1,1-.853.536.6.6,0,0,1,.834-.548c.364.191.687-.36.323-.552Z" transform="translate(-397.974 -317.525)" fill="#545454"/>
    </g>
    <g id="Group_13325" data-name="Group 13325" transform="translate(358.816 284.202)">
      <path id="Path_11219" data-name="Path 11219" d="M399.318,319.944l.261-.311-.5-.065.213.379a.316.316,0,0,0,.276.159l.254-.018a.325.325,0,0,0,.308-.4l-.124-.5a.322.322,0,0,0-.534-.141l-.339.354c-.284.3.167.75.452.452l.339-.354-.534-.141.124.5.308-.4-.254.018.276.158-.213-.379a.322.322,0,0,0-.5-.064l-.261.311a.328.328,0,0,0,0,.452.322.322,0,0,0,.452,0Z" transform="translate(-398.775 -318.953)" fill="#545454"/>
    </g>
    <g id="Group_13326" data-name="Group 13326" transform="translate(350.071 284.291)">
      <path id="Path_11220" data-name="Path 11220" d="M369.957,321.007a.633.633,0,0,0,.776.435.326.326,0,0,0,.223-.393,2.263,2.263,0,0,0-2.735-1.719.32.32,0,0,0,.17.617,1.62,1.62,0,0,1,1.948,1.272l.223-.393.011.012c-.144-.381-.762-.216-.616.17Z" transform="translate(-367.993 -319.267)" fill="#545454"/>
    </g>
    <g id="Group_13327" data-name="Group 13327" transform="translate(358.306 283.483)">
      <path id="Path_11221" data-name="Path 11221" d="M397.617,318.735a1.492,1.492,0,0,1,1.72-1.664c.4.065.576-.551.17-.616A2.14,2.14,0,0,0,397,318.9c.055.406.671.233.616-.17Z" transform="translate(-396.979 -316.423)" fill="#545454"/>
    </g>
    <g id="Group_13328" data-name="Group 13328" transform="translate(353.649 288.447)">
      <path id="Path_11222" data-name="Path 11222" d="M380.592,334.632a2.359,2.359,0,0,0,1.18,2.265,1.891,1.891,0,0,0,2.355-.512,1.66,1.66,0,0,0-.233-2.13c-.834-.735-1.991-.188-2.8.292a.32.32,0,0,0,.322.552c.517-.309,1.312-.8,1.918-.459a.985.985,0,0,1,.207,1.448,1.27,1.27,0,0,1-1.682.111,1.786,1.786,0,0,1-.632-1.567c.022-.411-.617-.41-.639,0Z" transform="translate(-380.588 -333.897)" fill="#545454"/>
    </g>
    <g id="Group_13329" data-name="Group 13329" transform="translate(354.346 289.103)">
      <path id="Path_11223" data-name="Path 11223" d="M383.673,336.434a.8.8,0,0,0-.018,1.559,1.011,1.011,0,0,0,1.058-1.52.52.52,0,0,0-.952.1,1.321,1.321,0,0,0,.152,1.254.76.76,0,0,0,1.07.152.659.659,0,0,0,.046-.956.32.32,0,0,0-.452.452c.014.014-.031.028-.067.021-.143-.027-.185-.222-.193-.338a1.044,1.044,0,0,1,.006-.179c.011-.109.078-.174-.055-.155s-.063.04-.053.138a.49.49,0,0,1-.015.169.308.308,0,0,1-.422.236.164.164,0,0,1,.066-.311c.4-.067.233-.684-.17-.616Z" transform="translate(-383.042 -336.204)" fill="#545454"/>
    </g>
    <g id="Group_13330" data-name="Group 13330" transform="translate(355.818 288.997)">
      <path id="Path_11224" data-name="Path 11224" d="M388.236,336.141q-.007.516-.014,1.033a.32.32,0,0,0,.639,0q.007-.516.014-1.033a.32.32,0,0,0-.639,0Z" transform="translate(-388.222 -335.833)" fill="#545454"/>
    </g>
    <g id="Group_13331" data-name="Group 13331" transform="translate(350.969 291.198)">
      <path id="Path_11225" data-name="Path 11225" d="M371.157,343.882a2.164,2.164,0,0,0,1.492,1.814,3.779,3.779,0,0,0,3.111-.635.32.32,0,0,0-.323-.552c-1.059.637-3.392,1.276-3.641-.627-.053-.4-.693-.407-.639,0Z" transform="translate(-371.154 -343.579)" fill="#545454"/>
    </g>
    <g id="Group_13332" data-name="Group 13332" transform="translate(355.473 290.353)">
      <path id="Path_11226" data-name="Path 11226" d="M387.168,342.813a4.346,4.346,0,0,0,5.9-1.731.32.32,0,0,0-.552-.322,3.694,3.694,0,0,1-5.021,1.5c-.365-.187-.689.365-.322.552Z" transform="translate(-387.007 -340.604)" fill="#545454"/>
    </g>
    <g id="Group_13333" data-name="Group 13333" transform="translate(350.807 283.877)">
      <path id="Path_11227" data-name="Path 11227" d="M371.053,318.58a.688.688,0,0,1,1.036.828c-.14.388.477.555.616.17a1.327,1.327,0,0,0-1.974-1.55c-.343.224-.023.777.323.552Z" transform="translate(-370.583 -317.81)" fill="#545454"/>
    </g>
    <g id="Group_13334" data-name="Group 13334" transform="translate(348.244 276.423)">
      <path id="Path_11228" data-name="Path 11228" d="M362.021,296.744a3.3,3.3,0,0,0,.406-5.077.32.32,0,0,0-.452.452,2.647,2.647,0,0,1-.277,4.073c-.326.243-.008.8.323.552Z" transform="translate(-361.561 -291.572)" fill="#545454"/>
    </g>
    <g id="Group_13335" data-name="Group 13335" transform="translate(362.024 274.561)">
      <path id="Path_11229" data-name="Path 11229" d="M410.542,285.179a3.913,3.913,0,0,0,.913,4.859c.314.262.768-.188.452-.452a3.272,3.272,0,0,1-.813-4.085c.2-.362-.356-.685-.552-.322Z" transform="translate(-410.069 -285.02)" fill="#545454"/>
    </g>
    <g id="Group_13336" data-name="Group 13336" transform="translate(353.255 292.582)">
      <path id="Path_11230" data-name="Path 11230" d="M379.636,349a4.457,4.457,0,0,0-.224,3.144,2,2,0,0,0,1.973,1.271c2.35-.1,2.754-2.846,2.827-4.661.017-.411-.622-.411-.639,0-.055,1.367-.157,3.366-1.713,3.914a1.459,1.459,0,0,1-1.984-1.183,4.71,4.71,0,0,1,.376-2.316c.129-.391-.488-.559-.616-.17Z" transform="translate(-379.202 -348.451)" fill="#545454"/>
    </g>
    <g id="Group_13337" data-name="Group 13337" transform="translate(355.148 292.553)">
      <path id="Path_11231" data-name="Path 11231" d="M386.089,348.652l-.222,1.9c-.048.408.592.4.639,0l.222-1.9c.048-.408-.592-.4-.639,0Z" transform="translate(-385.865 -348.348)" fill="#545454"/>
    </g>
  </g>
</svg>
