<svg xmlns="http://www.w3.org/2000/svg" xmlns:xlink="http://www.w3.org/1999/xlink" width="63.817" height="74.895" viewBox="0 0 63.817 74.895">
  <defs>
    <clipPath id="clip-path">
      <rect id="Rectangle_85320" data-name="Rectangle 85320" width="38.52" height="41.421" fill="none"/>
    </clipPath>
    <clipPath id="clip-path-2">
      <path id="Path_12407" data-name="Path 12407" d="M9.323,36.533l.012-.033-.012.033m.078-.219h0M8.3,32.349c-.41,3.255,2.268.676,1.037,4.151l.02-.055.027-.075-.059.164c-.081.228-.155.458-.224.691-1.354-1.119-2.277-3.335-.8-4.875M33.646,10.456c-.688.807-.512,3.376-3.114,2.213-1.313-.587-.858-4.509-3.3-3.527-1.648.662-.6,5.053-.8,6.392-.4,2.748-1.549,6.616-3.463,8.677-2.645,2.849-6.577,5.176-9.716,7.479.618-6.915-8.719-6.485-10.837-1.24-1.9,4.71,1.614,9.369,6.094,10.42-.469,2.248,1.305,2.921,2.709,4a8.627,8.627,0,0,0,5.831,2.146c.653.047,6.747.559,4.63-1.605,4.539-.223,2.141-1.386-.96-1.982,1.392-2.346,3.867-3.437,5.191-5.556.108,2.229.083,8.071,2.166,9.544a.909.909,0,0,0,.731.215c1.464-.265,1.788-5.178,1.822-9.452,1.489,7.241,2.117,8.914,2.4,8.874.314-.044.092-2.125.326-5.327.313-4.281,1.994-6.938,3.008-10.941.5-1.959-.342-3.853.011-5.647.452-2.3,2.783-3.443,2.3-6.265.046.263.086.487-.006-.033-.1-.559-.056-.319-.008-.046-.445-2.459-1.636-4.776-2.329-7.076-.589-1.956-.787-2.794-1.152-2.794-.3,0-.709.563-1.537,1.536" transform="translate(-1.887 -8.92)" fill="#fadfba"/>
    </clipPath>
  </defs>
  <g id="Group_13843" data-name="Group 13843" transform="translate(-41.012 -310.896)">
    <g id="Group_13828" data-name="Group 13828" transform="translate(55.415 344.369)">
      <g id="Group_13823" data-name="Group 13823">
        <g id="Group_13822" data-name="Group 13822" clip-path="url(#clip-path)">
          <path id="Path_12397" data-name="Path 12397" d="M38.673,18.838c-.438-2.476-1.64-4.808-2.337-7.123-1.072-3.558-.85-3.417-2.689-1.258-.688.807-.512,3.376-3.114,2.213-1.313-.587-.858-4.509-3.3-3.527-1.648.662-.6,5.053-.8,6.392-.4,2.748-1.549,6.616-3.463,8.677-2.645,2.849-6.577,5.176-9.716,7.479.618-6.915-8.719-6.485-10.837-1.24-1.9,4.71,1.614,9.369,6.094,10.42-.469,2.248,1.305,2.921,2.709,4a8.628,8.628,0,0,0,5.831,2.146c.653.047,6.747.559,4.63-1.605,4.538-.223,2.141-1.386-.96-1.982,1.392-2.346,3.867-3.437,5.191-5.556.108,2.229.083,8.071,2.166,9.544a.909.909,0,0,0,.731.215c1.464-.265,1.788-5.178,1.822-9.452,1.489,7.241,2.117,8.914,2.4,8.874.314-.044.092-2.125.326-5.327.313-4.281,1.994-6.938,3.008-10.941.5-1.959-.342-3.853.011-5.648.454-2.3,2.8-3.452,2.3-6.3-.2-1.157.2,1.106,0,0m-29.35,17.7c-.081.228-.155.458-.224.691-1.354-1.119-2.277-3.335-.8-4.875-.411,3.266,2.285.659,1.025,4.184h0" transform="translate(-1.562 -7.386)" fill="#f5b054"/>
        </g>
      </g>
      <g id="Group_13825" data-name="Group 13825" transform="translate(0.325 1.535)">
        <g id="Group_13824" data-name="Group 13824" clip-path="url(#clip-path-2)">
          <path id="Path_12398" data-name="Path 12398" d="M158.409,65.5a.809.809,0,0,0-.958-.611,5.425,5.425,0,0,0-.608-6.116,3.511,3.511,0,0,1-.736.142,4.07,4.07,0,0,1-1.545-.207c-1.271-.32-1.715.83-3.207.819-1.377-.01-1.546-1.077-2.984-1.015a3.319,3.319,0,0,0-2.453,1.009c-.889,1.226-.089,3.944,2.556,6.2.643.818.743,1.064.688,1.119-.182.182-1.949-1.955-3.4-1.5a1.444,1.444,0,0,0-.845.7c-.557,1.239,1.576,3.274,2.1,4.395,2.023,4.3-.327,6.805,1.892,14.547.536,1.869,1.23,3.535,2.743,4.206,1.225.544,2.835.366,3.055-.218.241-.638-1.3-1.213-2.158-2.87-1.166-2.254.064-3.81.665-6.076.428-1.615.206-5.192,1.206-6.026.878,2.207,2.533,1.809,2.612-.507a22.162,22.162,0,0,0-1.47-5.509c1.294-.184,2.878-.916,2.84-2.485-.007-.27.038,1.566,0,0" transform="translate(-120.23 -49.978)" fill="#fadfba"/>
          <path id="Path_12399" data-name="Path 12399" d="M180.042,38.717c-1.087-.053-.991,1.634.085,1.687s.991-1.634-.085-1.687" transform="translate(-148.745 -33.588)" fill="#fadfba"/>
          <path id="Path_12400" data-name="Path 12400" d="M192.806,36.1c-.8-.039-.726,1.2.062,1.236s.726-1.2-.062-1.236" transform="translate(-159.482 -31.421)" fill="#fadfba"/>
          <path id="Path_12401" data-name="Path 12401" d="M149.319,18.342c-1.13-1.547-2.561,1.567-1.662,2.546,1.4,1.524,2.576-1.294,1.662-2.546h0" transform="translate(-122.337 -16.37)" fill="#fadfba"/>
          <path id="Path_12402" data-name="Path 12402" d="M192.474,15.121c-1.258-1.507-1.217,1.412-1.237,1.44-.456.626,2.813.447,1.237-1.44h0" transform="translate(-158.614 -13.697)" fill="#fadfba"/>
          <path id="Path_12403" data-name="Path 12403" d="M76.231,148.346a2.144,2.144,0,0,0-3.765,1.463,3.071,3.071,0,0,0-1.416-1.615c-3-1.472-8.733,3.859-8.079,4.8a.621.621,0,0,0,.471.226c1.869.2,4.857-5.767,7.329-1.954,1.557,2.4-2,6.674-3.7,8.02a11.347,11.347,0,0,1,3.247.165c2.348.471,3.842,1.584,4.619.909a1.059,1.059,0,0,0,.317-.648c.23-1.418-1.489-2.375-2.882-2.193a7.04,7.04,0,0,0,4.378-4.522,6.644,6.644,0,0,0-.516-4.647" transform="translate(-52.417 -123.737)" fill="#fadfba"/>
          <path id="Path_12404" data-name="Path 12404" d="M12.191,104.517C9.83,98.045,1.655,103.343.354,107.761a8.554,8.554,0,0,0,1.37,7.606c.712.925,5.409,4.656,5.351,1.359-.027-1.506-2.933-2.454-3.706-3.9a6.029,6.029,0,0,1,1.662-7.381c.9-.7,2.276-1.542,3.5-1.075,1.32.5.9,1.727,1.6,2.348.614.546-.036,1.285,1.227,1.2,1.195-.077,1.046-2.809.828-3.406h0" transform="translate(-0.325 -85.567)" fill="#fadfba"/>
          <path id="Path_12405" data-name="Path 12405" d="M107.009,217.986c-.305-.458-2.406-.21-2.632.839a1.535,1.535,0,0,0,.921,1.512,1.858,1.858,0,0,0,2.35-.843c.147-.347.128-.809-.037-.885-.2-.092-.555.407-.688.323s.267-.674.086-.947" transform="translate(-86.723 -181.825)" fill="#fadfba"/>
          <path id="Path_12406" data-name="Path 12406" d="M153.422,223.095c-.973-.645-2.729-1.94-3.132-.142-.835,3.728,6.34,2.271,3.132.142h0" transform="translate(-124.694 -185.361)" fill="#fadfba"/>
        </g>
      </g>
      <g id="Group_13827" data-name="Group 13827">
        <g id="Group_13826" data-name="Group 13826" clip-path="url(#clip-path)">
          <path id="Path_12408" data-name="Path 12408" d="M152.452,6.277a26.621,26.621,0,0,0-1.643-3.311c-.285-.48-.682-1.131-1.331-.8-.712.366-1.008,1.663-1.178,2.369a8.879,8.879,0,0,0-.128,3.373c.036.246.409.141.373-.1a8.389,8.389,0,0,1,.008-2.581A5.109,5.109,0,0,1,149.265,3c.931-.885,1.463.581,1.8,1.224.37.7.7,1.423,1.012,2.156.1.226.47.127.374-.1" transform="translate(-122.588 -1.72)" fill="#545454"/>
          <path id="Path_12409" data-name="Path 12409" d="M170.858,24.113l2.889-.3c.245-.025.248-.413,0-.387l-2.889.3c-.245.025-.248.413,0,.387" transform="translate(-141.301 -19.394)" fill="#545454"/>
          <path id="Path_12410" data-name="Path 12410" d="M188.053,4.3c.147-.61.311-1.215.5-1.812.1-.3.2-.6.306-.889q.138-.384.3-.759.893-.5,1.056.167a5.321,5.321,0,0,1,.53,1.8c.146.72.235,1.45.323,2.179.03.244.417.247.387,0a20.757,20.757,0,0,0-.546-3.155c-.148-.525-.373-1.564-1-1.782-.6-.21-.975.338-1.187.815A19.53,19.53,0,0,0,187.679,4.2c-.059.242.315.345.373.1" transform="translate(-155.375 -0.001)" fill="#545454"/>
          <path id="Path_12411" data-name="Path 12411" d="M134.465,35.458a28.043,28.043,0,0,1-2.768,9.479c-.11.223.223.419.334.2a28.6,28.6,0,0,0,2.821-9.674c.027-.247-.361-.246-.387,0" transform="translate(-109.015 -29.202)" fill="#545454"/>
          <path id="Path_12412" data-name="Path 12412" d="M206.964,29a9.178,9.178,0,0,1,.085,11.879c-.159.19.114.466.274.274a9.575,9.575,0,0,0-.084-12.427c-.163-.189-.435.086-.274.274" transform="translate(-171.306 -23.731)" fill="#545454"/>
          <path id="Path_12413" data-name="Path 12413" d="M203.956,52.514,205.048,52c.172-.082.478-.334.632-.069a1.032,1.032,0,0,1,.008.4c-.023.452-.257.88-.785.735-.43-.118-.677-.54-.9-.894-.131-.211-.467-.017-.334.2.317.51.7,1.06,1.358,1.109a.971.971,0,0,0,1.026-.923c.05-.345.119-1.083-.353-1.179-.266-.054-.555.148-.781.255l-1.16.551c-.225.107-.029.441.2.334" transform="translate(-168.595 -42.525)" fill="#545454"/>
          <path id="Path_12414" data-name="Path 12414" d="M206.589,54.29a.616.616,0,0,0,.107,1.128c.235.083.337-.291.1-.373a.225.225,0,0,1-.015-.42c.219-.119.024-.453-.2-.334" transform="translate(-170.769 -44.926)" fill="#545454"/>
          <path id="Path_12415" data-name="Path 12415" d="M208.49,53.635c-.219.263-.475.614-.314.97a.518.518,0,0,0,.732.272c.207-.136.014-.472-.2-.334-.1.067-.195-.08-.2-.171a.8.8,0,0,1,.25-.462c.158-.19-.114-.466-.274-.274" transform="translate(-172.308 -44.351)" fill="#545454"/>
          <path id="Path_12416" data-name="Path 12416" d="M211.148,52.311a1.709,1.709,0,0,0-.37,1.5.2.2,0,0,0,.324.085l.358-.308c.189-.162-.086-.435-.274-.274l-.358.308.324.086a1.293,1.293,0,0,1,.27-1.122c.159-.19-.113-.465-.274-.274" transform="translate(-174.468 -43.255)" fill="#545454"/>
          <path id="Path_12417" data-name="Path 12417" d="M213.9,52.338a2.831,2.831,0,0,0,0,1.424.194.194,0,0,0,.373-.1,2.406,2.406,0,0,1,0-1.218.194.194,0,0,0-.373-.1" transform="translate(-177.013 -43.217)" fill="#545454"/>
          <path id="Path_12418" data-name="Path 12418" d="M204,38.356a1.3,1.3,0,0,0-.828.639.661.661,0,0,0,.221.839c.667.413,1.065-.594.911-1.111a.484.484,0,0,0-.681-.3.7.7,0,0,0-.375.756.577.577,0,0,0,.593.5.551.551,0,0,0,.532-.5c.005-.313-.382-.617-.657-.379a.356.356,0,0,0,.226.62c.248-.012.249-.4,0-.387.06,0,.056.131.04.166a.186.186,0,0,1-.116.089c-.13.039-.22-.059-.24-.183s.041-.318.179-.34c.169-.028.149.182.137.295a1,1,0,0,1-.1.368.171.171,0,0,1-.317-.007c-.191-.348.339-.6.582-.691s.133-.458-.1-.373" transform="translate(-168.156 -31.745)" fill="#545454"/>
          <path id="Path_12419" data-name="Path 12419" d="M181.3,45.136a.609.609,0,1,0,.171,1.159.613.613,0,0,0,.222-.867.583.583,0,0,0-.889-.034.591.591,0,0,0,.194.929.619.619,0,0,0,.868-.394.659.659,0,0,0-.491-.832.705.705,0,0,0-.852.536.721.721,0,0,0,.7.872.734.734,0,0,0,.69-.888c-.043-.245-.416-.141-.373.1a.337.337,0,0,1-.342.4.327.327,0,0,1-.292-.43.316.316,0,0,1,.479-.167.273.273,0,0,1,0,.452c-.159.107-.437-.086-.333-.272.079-.141.323-.155.347.03a.189.189,0,0,1-.308.184c-.224-.161-.019-.419.205-.389.246.033.244-.355,0-.387" transform="translate(-149.445 -37.319)" fill="#545454"/>
          <path id="Path_12420" data-name="Path 12420" d="M182.751,43.521q0,.139-.005.278l.245-.187c-.168-.059-.129-.343.065-.319.251.031.151.345-.068.323a.2.2,0,0,0-.194.194.2.2,0,0,0,.194.194.585.585,0,0,0,.61-.544.54.54,0,0,0-.491-.547.523.523,0,0,0-.6.406.586.586,0,0,0,.377.668.2.2,0,0,0,.245-.187q0-.139.005-.278a.194.194,0,0,0-.387,0" transform="translate(-151.093 -35.523)" fill="#545454"/>
          <path id="Path_12421" data-name="Path 12421" d="M186.144,48.685a.431.431,0,0,0,.41.439.2.2,0,0,0,.194-.194.2.2,0,0,0-.194-.194c.015,0-.011-.007-.022-.021.007.008,0-.017,0-.03.011-.249-.376-.249-.387,0" transform="translate(-154.109 -40.152)" fill="#545454"/>
          <path id="Path_12422" data-name="Path 12422" d="M178.4,45.411a1.408,1.408,0,0,0-1.959.059c-.172.181.1.455.274.274a1.014,1.014,0,0,1,1.411-.059c.184.168.458-.105.274-.274" transform="translate(-146.029 -37.291)" fill="#545454"/>
          <path id="Path_12423" data-name="Path 12423" d="M204.3,43.626a.439.439,0,1,0,.672.374.194.194,0,0,0-.387,0c0-.008,0,0-.01.019.012-.021-.018.015-.006.006s-.019.012-.024.014-.025.016-.049,0c.01.007,0,0,0-.016.01.034,0-.053,0-.013a.361.361,0,0,1,0-.039c0,.033,0-.01,0,0s.01-.016,0-.01a.2.2,0,0,0,.069-.265.2.2,0,0,0-.265-.07" transform="translate(-168.979 -36.095)" fill="#545454"/>
          <path id="Path_12424" data-name="Path 12424" d="M206.537,38.729a.653.653,0,0,1,.3,1.026c-.154.193.119.469.274.274a1.039,1.039,0,0,0-.374-1.634c-.227-.1-.424.237-.2.334" transform="translate(-170.909 -31.773)" fill="#545454"/>
          <path id="Path_12425" data-name="Path 12425" d="M201.734,44.576l.145-.158a.2.2,0,0,0,0-.274,12.55,12.55,0,0,0-2.6-1.735c-.222-.111-.419.223-.2.334a12.152,12.152,0,0,1,2.522,1.674v-.274l-.145.158c-.168.184.105.458.274.274" transform="translate(-164.74 -35.093)" fill="#545454"/>
          <path id="Path_12426" data-name="Path 12426" d="M187.734,62.772c-.956-.662-1.1,1.179-.1.76.083-.035.116-.153.188-.193a1.074,1.074,0,0,1,.519-.087,7.215,7.215,0,0,0,1.662-.2,2.941,2.941,0,0,0,1.846-1.46c.114-.221-.22-.417-.334-.2-.744,1.436-2.4,1.485-3.828,1.462A.2.2,0,0,0,187.5,63l.041.1c.205.142.4-.193.2-.334" transform="translate(-154.774 -50.75)" fill="#545454"/>
          <path id="Path_12427" data-name="Path 12427" d="M208.792,61.423a1.745,1.745,0,0,0,1.367-1.609c.014-.249-.373-.248-.387,0a1.355,1.355,0,0,1-1.083,1.235c-.244.051-.141.425.1.373" transform="translate(-172.66 -49.366)" fill="#545454"/>
          <path id="Path_12428" data-name="Path 12428" d="M184.366,100.469a10.893,10.893,0,0,1-.353,6.676,16.245,16.245,0,0,1-4.375,5.694c-.181.172.093.446.274.274a16.592,16.592,0,0,0,4.475-5.865,11.263,11.263,0,0,0,.353-6.882.194.194,0,0,0-.373.1" transform="translate(-148.674 -82.979)" fill="#545454"/>
          <path id="Path_12429" data-name="Path 12429" d="M144.733,125.16A22.548,22.548,0,0,0,144,136.079a42.443,42.443,0,0,0,1.105,5.6c.338,1.177,1.163,2.3,2.522,2.05.245-.045.141-.418-.1-.373-2.031.37-2.29-2.766-2.567-4.111a46.7,46.7,0,0,1-.779-4.864,20.809,20.809,0,0,1,.925-9.118c.085-.235-.29-.336-.373-.1" transform="translate(-118.943 -103.511)" fill="#545454"/>
          <path id="Path_12430" data-name="Path 12430" d="M163.478,227.712a.336.336,0,0,1,.306.336.194.194,0,0,0,.387,0,.716.716,0,0,0-.59-.71.2.2,0,0,0-.238.135.2.2,0,0,0,.135.238" transform="translate(-135.227 -188.212)" fill="#545454"/>
          <path id="Path_12431" data-name="Path 12431" d="M166.884,225.724a.588.588,0,0,1,.256.717c-.083.235.291.337.373.1a.976.976,0,0,0-.434-1.155.194.194,0,0,0-.2.334" transform="translate(-138.086 -186.578)" fill="#545454"/>
          <path id="Path_12432" data-name="Path 12432" d="M169.1,173.5a21.966,21.966,0,0,1,1.052-11.553c.087-.234-.287-.335-.373-.1a22.347,22.347,0,0,0-1.053,11.759c.044.245.417.141.373-.1" transform="translate(-139.4 -133.881)" fill="#545454"/>
          <path id="Path_12433" data-name="Path 12433" d="M174.328,171.913l-.38.669a.194.194,0,0,0,.334.2l.38-.669a.194.194,0,0,0-.334-.2" transform="translate(-143.99 -142.249)" fill="#545454"/>
          <path id="Path_12434" data-name="Path 12434" d="M190.177,155.282a38.668,38.668,0,0,0-1.238,6.98c-.139,1.694-.389,3.715.843,5.083.167.186.44-.089.274-.274-1.26-1.4-.84-3.754-.67-5.462a38.145,38.145,0,0,1,1.164-6.224.194.194,0,0,0-.373-.1" transform="translate(-156.325 -128.445)" fill="#545454"/>
          <path id="Path_12435" data-name="Path 12435" d="M189.093,222.848a.259.259,0,0,1,.2.368.194.194,0,0,0,.334.2.648.648,0,0,0-.43-.937c-.244-.04-.349.333-.1.373" transform="translate(-156.435 -184.185)" fill="#545454"/>
          <path id="Path_12436" data-name="Path 12436" d="M185.495,224.387a.4.4,0,0,1,.062.359l.135-.135a.023.023,0,0,1-.026-.006c-.183-.169-.457.1-.274.274a.424.424,0,0,0,.4.105.194.194,0,0,0,.135-.135.779.779,0,0,0-.1-.657c-.14-.2-.476-.011-.334.2" transform="translate(-153.437 -185.538)" fill="#545454"/>
          <path id="Path_12437" data-name="Path 12437" d="M173.43,190.364c-1.456-.193-1.651-2.348-1.873-3.5a27.967,27.967,0,0,1-.455-3.809c-.013-.248-.4-.25-.387,0a28.325,28.325,0,0,0,.745,5.179c.273,1.124.666,2.342,1.971,2.514.246.033.244-.355,0-.387" transform="translate(-141.335 -151.4)" fill="#545454"/>
          <path id="Path_12438" data-name="Path 12438" d="M59.383,90.813c-5.09,4.97-13.458,8.137-14.868,15.921-.044.244.329.348.373.1,1.394-7.7,9.726-10.826,14.768-15.75.179-.174-.1-.448-.274-.274" transform="translate(-36.852 -75.139)" fill="#545454"/>
          <path id="Path_12439" data-name="Path 12439" d="M64.426,165.413l-.18.163c-.185.168.089.441.274.274l.18-.163c.185-.168-.089-.441-.274-.274" transform="translate(-53.138 -136.903)" fill="#545454"/>
          <path id="Path_12440" data-name="Path 12440" d="M64.774,148.556c2.027-1.783,9.437-6.065,9.588-.51a8.776,8.776,0,0,1-1.529,4.617,10.7,10.7,0,0,1-4.468,4.026c-.224.109-.028.443.2.334a11.143,11.143,0,0,0,4.821-4.526c.88-1.54,1.672-3.5,1.27-5.3-1.116-5-8.068-.747-10.151,1.086-.187.165.087.438.274.274" transform="translate(-53.348 -119.921)" fill="#545454"/>
          <path id="Path_12441" data-name="Path 12441" d="M44.319,183.624a6.37,6.37,0,0,0,.059,3.854c.078.236.452.135.373-.1a5.992,5.992,0,0,1-.059-3.648.194.194,0,0,0-.373-.1" transform="translate(-36.469 -151.911)" fill="#545454"/>
          <path id="Path_12442" data-name="Path 12442" d="M47.678,205.455a2.212,2.212,0,0,0,.829.915c.212.132.407-.2.2-.334a1.843,1.843,0,0,1-.69-.776c-.108-.224-.442-.028-.334.2" transform="translate(-39.455 -169.853)" fill="#545454"/>
          <path id="Path_12443" data-name="Path 12443" d="M52.423,208.678a7.508,7.508,0,0,0,4.024,1.481c.249.017.248-.37,0-.387a7.146,7.146,0,0,1-3.828-1.428c-.2-.149-.393.187-.2.334" transform="translate(-43.333 -172.458)" fill="#545454"/>
          <path id="Path_12444" data-name="Path 12444" d="M56.69,212.4l-.06.055c-.185.168.089.441.274.274l.06-.055c.185-.168-.089-.441-.274-.274" transform="translate(-46.833 -175.8)" fill="#545454"/>
          <path id="Path_12445" data-name="Path 12445" d="M91.955,211.061c1.116,0,6.164.31,5.329,2.335-.095.23.28.33.373.1a1.6,1.6,0,0,0-1.126-2.055,12.866,12.866,0,0,0-4.577-.77.194.194,0,0,0,0,.387" transform="translate(-75.975 -174.418)" fill="#545454"/>
          <path id="Path_12446" data-name="Path 12446" d="M120,221.485a.508.508,0,0,1,.223.657c-.11.223.224.419.334.2a.9.9,0,0,0-.362-1.187c-.219-.119-.415.215-.2.334" transform="translate(-99.27 -183.071)" fill="#545454"/>
          <path id="Path_12447" data-name="Path 12447" d="M69.363,216.228l.278.483.194-.194a35.566,35.566,0,0,1-4.907-.118q-1.278-.122-2.545-.341c-.914-.158-2.652-.249-2.6-1.561.009-.249-.378-.249-.387,0-.067,1.828,2.591,1.905,3.858,2.088a35.471,35.471,0,0,0,6.584.32.2.2,0,0,0,.194-.194.934.934,0,0,0-.47-.818c-.208-.139-.4.2-.2.334" transform="translate(-49.17 -177.428)" fill="#545454"/>
          <path id="Path_12448" data-name="Path 12448" d="M102.755,182.314a22.087,22.087,0,0,0,6.809-4.47c.18-.173-.094-.447-.274-.274a21.58,21.58,0,0,1-6.638,4.371c-.226.1-.127.47.1.373" transform="translate(-84.88 -146.965)" fill="#545454"/>
          <path id="Path_12449" data-name="Path 12449" d="M117.557,196.8a4.545,4.545,0,0,0-.8,1.474.2.2,0,0,0,.187.245c.821.02,4.183.218,3.779,1.677a.194.194,0,0,0,.373.1c.53-1.912-2.994-2.139-4.152-2.167l.187.245a3.982,3.982,0,0,1,.7-1.3c.155-.192-.118-.468-.274-.274" transform="translate(-96.654 -162.876)" fill="#545454"/>
          <path id="Path_12450" data-name="Path 12450" d="M135.74,213.558a.335.335,0,0,1,.146.511c-.164.187.109.461.274.274a.722.722,0,0,0-.225-1.119c-.227-.1-.424.237-.2.334" transform="translate(-112.296 -176.515)" fill="#545454"/>
          <path id="Path_12451" data-name="Path 12451" d="M132.965,215.44a.469.469,0,0,1,.176.419.2.2,0,0,0,.135.238.2.2,0,0,0,.238-.135.878.878,0,0,0-.353-.856.2.2,0,0,0-.265.07.2.2,0,0,0,.07.265" transform="translate(-110.003 -178.064)" fill="#545454"/>
          <path id="Path_12452" data-name="Path 12452" d="M123.325,218l1.661.1c.249.015.248-.373,0-.387l-1.661-.1c-.249-.015-.248.373,0,.387" transform="translate(-101.947 -180.165)" fill="#545454"/>
          <path id="Path_12453" data-name="Path 12453" d="M12.945,119.823c-4.966-.769-7.226-7.01-5.178-11.276a5.712,5.712,0,0,1,5.629-3.266,5.5,5.5,0,0,1,3.35,1.234,2.908,2.908,0,0,1,.688,3.624.194.194,0,0,0,.334.2c1.326-2.23-.554-4.5-2.7-5.153a6.335,6.335,0,0,0-6.946,2.04c-3.308,4.355-.92,12.1,4.718,12.974.244.038.349-.335.1-.373" transform="translate(-5.478 -86.829)" fill="#545454"/>
          <path id="Path_12454" data-name="Path 12454" d="M39.5,154.662a4.857,4.857,0,0,1-1.508-2.554c-.056-.243-.43-.14-.373.1a5.208,5.208,0,0,0,1.608,2.725c.185.166.46-.107.274-.274" transform="translate(-31.136 -125.816)" fill="#545454"/>
          <path id="Path_12455" data-name="Path 12455" d="M40.379,145.027a3.119,3.119,0,0,1-.084-1.682c.055-.243-.319-.346-.373-.1a3.517,3.517,0,0,0,.084,1.888c.077.236.451.135.373-.1" transform="translate(-32.977 -118.475)" fill="#545454"/>
          <path id="Path_12456" data-name="Path 12456" d="M41.153,140.645a2.5,2.5,0,0,1,.162-1.521.832.832,0,0,1,.61-.423.469.469,0,0,1,.531.634c-.106.224.228.421.334.2a.871.871,0,0,0-1.054-1.192c-1.018.257-1.046,1.471-.97,2.307.022.246.41.249.387,0" transform="translate(-33.729 -114.505)" fill="#545454"/>
          <path id="Path_12457" data-name="Path 12457" d="M42.6,140.667a2.253,2.253,0,0,0,1.874,2.593c.244.039.349-.334.1-.373a1.87,1.87,0,0,1-1.6-2.117c.033-.244-.34-.349-.373-.1" transform="translate(-35.251 -116.343)" fill="#545454"/>
          <path id="Path_12458" data-name="Path 12458" d="M210.605,65.008a.853.853,0,0,1-.359.666c-.2.142-.009.478.2.334a1.267,1.267,0,0,0,.551-1c.01-.249-.377-.249-.387,0" transform="translate(-173.993 -53.666)" fill="#545454"/>
          <path id="Path_12459" data-name="Path 12459" d="M207.821,69.994l-.478.379a.2.2,0,0,0,0,.274.2.2,0,0,0,.274,0l.478-.379a.2.2,0,0,0,0-.274.2.2,0,0,0-.274,0" transform="translate(-171.614 -57.903)" fill="#545454"/>
          <path id="Path_12460" data-name="Path 12460" d="M161.9,88.138a1.648,1.648,0,0,0,.261,1.369c.145.2.481.007.334-.2a1.271,1.271,0,0,1-.221-1.07c.058-.242-.315-.345-.373-.1" transform="translate(-134 -72.855)" fill="#545454"/>
          <path id="Path_12461" data-name="Path 12461" d="M165.29,90.975a1.852,1.852,0,0,0,.2,1.192c.118.22.452.024.334-.2a1.411,1.411,0,0,1-.159-.893c.038-.244-.335-.349-.373-.1" transform="translate(-136.823 -75.202)" fill="#545454"/>
          <path id="Path_12462" data-name="Path 12462" d="M168.2,94.892l.233,1.1c.051.244.425.141.373-.1l-.233-1.1c-.052-.244-.425-.141-.373.1" transform="translate(-139.251 -78.361)" fill="#545454"/>
          <path id="Path_12463" data-name="Path 12463" d="M155.991,16.374c.569.425.987-.213,1.067-.727a3.8,3.8,0,0,0-.713-2.753c-.144-.2-.479-.008-.334.2a3.622,3.622,0,0,1,.609,1.312,3.377,3.377,0,0,1,.085.745c0,.143-.043,1.249-.518.894-.2-.149-.393.187-.2.334" transform="translate(-129.077 -10.604)" fill="#545454"/>
          <path id="Path_12464" data-name="Path 12464" d="M196.8,13.9a1.683,1.683,0,0,1-.147-1.966.194.194,0,0,0-.334-.2,2.083,2.083,0,0,0,.207,2.435c.161.191.434-.084.274-.274" transform="translate(-162.283 -9.642)" fill="#545454"/>
        </g>
      </g>
    </g>
    <g id="Group_13841" data-name="Group 13841" transform="translate(41.175 311.098)">
      <g id="Group_13842" data-name="Group 13842" transform="translate(0.102 0.097)">
        <path id="Path_12533" data-name="Path 12533" d="M28.836,28.4c-1.9-.3-.946-3-1.857-4.324.016-1.091-.2-2.8-1.164-3.613.024-1.593-1.854-4.926-1.875-3.462a7.041,7.041,0,0,0-2.53-2.095c-1.123.344-2.29,1.828-4.227,5.153a1.847,1.847,0,0,0,1.308,1.425c.017.122.019.182-.164.333.056.188.346.161.574.2.2.03-.3.086-.218.272a14.175,14.175,0,0,0,1.388,2.508c-.027,1.054.78,1.619,1.5,2.227l-.45.038-.093-.037a6.82,6.82,0,0,0,2.679,2.263c1.268,1.307,1.5,1.8,3.5,2.375,1.917.4,4.793-1.788,1.626-3.259Z" transform="translate(-12.699 -11.026)" fill="#f5b054"/>
        <path id="Path_12534" data-name="Path 12534" d="M12.9,8.7c-.749-.549-1.087-1.149-1.911-1.2a3.314,3.314,0,0,0-3.427-.933A3.008,3.008,0,0,1,8.372,7c-1.369-.285-2-.283-2.827.283a6.839,6.839,0,0,0,.863,2.19c-.443-.086-.425-.387-.637-.58a4.361,4.361,0,0,0,1.745,3.519,1.687,1.687,0,0,0,1.162,1.441,2.88,2.88,0,0,0,.73-.728,3.054,3.054,0,0,0,.661-.284,1.988,1.988,0,0,1,.2-.7c.356-.22.43-.152.621-.378a2.136,2.136,0,0,0,.148-.958,1.727,1.727,0,0,1,.917-.338,3.315,3.315,0,0,1,.215-.931c.389.015.274-.054.567-.18A1.569,1.569,0,0,1,12.9,8.7" transform="translate(-4.195 -4.819)" fill="#f5b054"/>
        <path id="Path_12535" data-name="Path 12535" d="M19.255,18.086c.02.143.023.212-.191.389.065.219.4.188.67.229.233.036-.347.1-.254.317A16.556,16.556,0,0,0,21.1,21.947c-.032,1.229.91,1.889,1.75,2.6l-.524.044-.109-.044a7.955,7.955,0,0,0,3.126,2.64c1.479,1.525,1.746,2.1,4.087,2.77,2.236.465,5.592-2.085,1.9-3.8h0c-2.217-.344-1.1-3.5-2.167-5.044.019-1.273-.235-3.266-1.358-4.215.028-1.859-2.163-5.747-2.188-4.039a8.214,8.214,0,0,0-2.952-2.444" transform="translate(-14.074 -7.743)" fill="none" stroke="#666" stroke-miterlimit="10" stroke-width="0.5"/>
        <path id="Path_12536" data-name="Path 12536" d="M9.117,3.169c-.874-.641-1.268-1.34-2.229-1.4a3.866,3.866,0,0,0-4-1.089,3.509,3.509,0,0,1,.94.5c-1.6-.332-2.339-.33-3.3.331A7.98,7.98,0,0,0,1.537,4.071c-.517-.1-.5-.451-.743-.677A5.088,5.088,0,0,0,2.829,7.5,1.968,1.968,0,0,0,4.185,9.18" transform="translate(-0.53 -0.5)" fill="none" stroke="#666" stroke-miterlimit="10" stroke-width="0.5"/>
        <path id="Path_12537" data-name="Path 12537" d="M57.2,46.958c1.205,5.5,4.481,6.061,6.917,6.518a34.119,34.119,0,0,0,12.524-.15c3.77-.763,7.242,1.713,10.576,1.263a11.645,11.645,0,0,0,3.6-.952c1.306-.034,2.32-.67,3.46-.079a5.781,5.781,0,0,0,5.749-1.006c1.48-3.383,2.278-11.156.476-14.665-2.116-2.294-5.084-1.535-6.173-1.37-.789.771-2.277,1.211-3.03.216a13.239,13.239,0,0,0-4.091-1.143c-3.334-.446-6.438,1.649-10.252,1.151-4.541-.593-8.919-.946-11.828-.4-2.436.461-7.152,1.273-8.044,7.036A13.252,13.252,0,0,0,57.2,46.958Z" transform="translate(-41.815 -26.097)" fill="#f5b054"/>
        <path id="Path_12538" data-name="Path 12538" d="M54.739,45c1.241,5.919,4.614,6.526,7.123,7.019a33.634,33.634,0,0,0,12.9-.162c3.883-.822,7.458,1.845,10.891,1.36a11.582,11.582,0,0,0,3.712-1.025c1.345-.036,2.39-.721,3.564-.085a5.746,5.746,0,0,0,5.92-1.084c1.524-3.644,2.346-12.013.491-15.793-2.18-2.47-5.235-1.654-6.357-1.476-.813.831-2.345,1.3-3.12.233a13.178,13.178,0,0,0-4.213-1.231c-3.434-.48-6.63,1.776-10.558,1.239-4.676-.639-9.184-1.019-12.18-.426-2.508.5-7.365,1.371-8.283,7.577A14.915,14.915,0,0,0,54.739,45Z" transform="translate(-40.015 -24.024)" fill="none" stroke="#666" stroke-miterlimit="10" stroke-width="0.5"/>
        <path id="Path_12539" data-name="Path 12539" d="M181.157,38.247c-.379-1.235-.882-4.872-.022-6.16a8.107,8.107,0,0,1,4.582,3.254c.481,2-2.768,4.4-4.56,2.906" transform="translate(-132.168 -23.583)" fill="#f5b054"/>
        <path id="Path_12540" data-name="Path 12540" d="M184.167,39.326a2.494,2.494,0,0,0-.152-1.463,3.389,3.389,0,0,1,.048-2.169c.435-.128,1.382.644,1.716.856.454.314.252.831,1.06,1.361a7.388,7.388,0,0,0-2.673,1.414" transform="translate(-134.508 -26.209)" fill="#fff"/>
        <path id="Path_12541" data-name="Path 12541" d="M187.28,39.47a1.475,1.475,0,0,0-.809-1.866,1.773,1.773,0,0,0,.809,1.866" transform="translate(-136.411 -27.615)" fill="#ffbf94"/>
        <path id="Path_12542" data-name="Path 12542" d="M185.062,90.269c-1.364,1.719-3.82,3.226-4.7,3.005a9.645,9.645,0,0,1,.189-5.939c2.248-.459,3.371,1.172,4.513,2.933" transform="translate(-131.666 -63.901)" fill="#f5b054"/>
        <path id="Path_12543" data-name="Path 12543" d="M179.954,33.7c-.432-1.407-1.005-5.551-.025-7.018a9.239,9.239,0,0,1,5.22,3.707C185.7,32.67,182,35.405,179.954,33.7Z" transform="translate(-131.238 -19.634)" fill="none" stroke="#666" stroke-miterlimit="10" stroke-width="0.5"/>
        <path id="Path_12544" data-name="Path 12544" d="M184.4,92.97c-1.554,1.959-4.352,3.676-5.357,3.424a10.987,10.987,0,0,1,.216-6.766C181.822,89.1,183.1,90.963,184.4,92.97Z" transform="translate(-130.666 -65.568)" fill="none" stroke="#666" stroke-miterlimit="10" stroke-width="0.5"/>
        <path id="Path_12545" data-name="Path 12545" d="M183.392,94.443a10.564,10.564,0,0,1-.435,1.542,2.365,2.365,0,0,0,.029,1.864c.423.16,1.425-.541,1.774-.727.477-.28.313-.81,1.158-1.279a6.774,6.774,0,0,1-2.526-1.4" transform="translate(-133.717 -69.152)" fill="#fff"/>
        <path id="Path_12546" data-name="Path 12546" d="M186.024,98.189a1.476,1.476,0,0,1-1,1.77c.064-.93.293-1.427,1-1.77" transform="translate(-135.354 -71.89)" fill="#ffbf94"/>
        <path id="Path_12547" data-name="Path 12547" d="M188.936,41.641a5.831,5.831,0,0,1,4.349,2.983,7.641,7.641,0,0,0,.7,1.433c.771,2.195,1.053,4.911-.007,6.848a8.839,8.839,0,0,0-.866,1.74,5.454,5.454,0,0,1-3.986,2.868,12.459,12.459,0,0,1-4.208-.58,9.141,9.141,0,0,1-4.457-2.8c-.855-2.225-.957-6.766-.04-8.844,1.373-2.2,3.333-2.675,4.653-3.154a13.161,13.161,0,0,1,3.857-.494" transform="translate(-131.523 -30.558)" fill="#f5b054"/>
        <path id="Path_12548" data-name="Path 12548" d="M200.149,48.315a4.193,4.193,0,0,1-1.916-1.107,3.381,3.381,0,0,1-.8-1.239c-.268.234-.17.568-.372.635-.36-.418-.349-.867-1.176-1.543-.067.168-.168.4-.235.571a3.486,3.486,0,0,0-.941-.972c.065.551-.4.463-.839.1.082.409-.219.525-.388.712-.3-.185-.4-.579-1.195-.84-.507.763-1.1.94-2.124,1.8a3.8,3.8,0,0,0-1.96,2.618,2.153,2.153,0,0,0,1.536,1.815c.652.147,1.95.128,1.958.665s-1.293.487-1.945.635a2.324,2.324,0,0,0-1.566,1.917,3.8,3.8,0,0,0,1.964,2.615,9.689,9.689,0,0,1,2.094,2.03c.791-.262.923-.656,1.226-.842.17.187.471.3.39.711.439-.362.969-.317.906.234a3.362,3.362,0,0,0,.874-1.107c.067.168.135.6.2.77.826-.677.78-1.16,1.14-1.578.2.067.1.4.372.635a4.456,4.456,0,0,1,.9-1.44A3.792,3.792,0,0,1,200.1,55.1a5.423,5.423,0,0,0,1.045-3.35,6.8,6.8,0,0,0-1-3.436" transform="translate(-137.663 -32.752)" fill="#fadfba"/>
        <path id="Path_12549" data-name="Path 12549" d="M208.608,69.877a.129.129,0,0,1,.135-.108c.247.009.27.009.309.006s.1-.007.411-.007a.129.129,0,0,1,.037.256.145.145,0,0,1-.037,0c-.3,0-.351,0-.4.007s-.082,0-.329-.006a.129.129,0,0,1-.129-.129.11.11,0,0,1,0-.019" transform="translate(-152.59 -51.12)" fill="#1a1a1a"/>
        <path id="Path_12550" data-name="Path 12550" d="M213.563,65.286a2.3,2.3,0,0,0,1.526-1.5,2.119,2.119,0,0,1,.165-2.71c-.353-.432-.505-1.289-1.624-1.568.092,1.115-1.248,1.907-1.2,2.7-.069,1,1.313,2.17,1.128,3.079" transform="translate(-155.385 -43.621)"/>
        <path id="Path_12551" data-name="Path 12551" d="M220.78,64.443c1.685-.207,3.292.737,3.281,1.731-.009.737-1.565,1.794-3.378,1.539a4.022,4.022,0,0,1,.1-3.27" transform="translate(-161.197 -47.208)" fill="#fff"/>
        <path id="Path_12552" data-name="Path 12552" d="M195.736,56.2c-.612.111-1.246-.324-1.036-.863.156-.4.786-1,1.222-.873.414.124.409,1.628-.186,1.736" transform="translate(-142.397 -39.921)" fill="#f5ab45"/>
        <path id="Path_12553" data-name="Path 12553" d="M194.3,56.9c-.08-.6.672-.819.788-.119.078.47-.717.651-.788.119" transform="translate(-142.129 -41.312)"/>
        <path id="Path_12554" data-name="Path 12554" d="M195.731,78.808c-.612-.11-1.245.325-1.035.865.156.4.787,1,1.224.871.414-.124.406-1.629-.189-1.736" transform="translate(-142.394 -57.714)" fill="#feab45"/>
        <path id="Path_12555" data-name="Path 12555" d="M194.3,80.525c-.079.6.673.818.788.118.077-.47-.718-.65-.788-.118" transform="translate(-142.127 -58.744)"/>
        <path id="Path_12556" data-name="Path 12556" d="M204.379,66.444c.038-1.2-1.86-2.18-1.941-.027-.076,2.022,1.9,1.5,1.941.027" transform="translate(-148.08 -47.741)"/>
        <path id="Path_12557" data-name="Path 12557" d="M211.8,60.612c-.014-.665.545-1.227.894-1.744a1.45,1.45,0,0,0,.3-.72c0-.216-.089-.425-.418-.666a.129.129,0,0,1,.118-.23.125.125,0,0,1,.03.022,1.082,1.082,0,0,1,.525.881,1.648,1.648,0,0,1-.342.862c-.37.549-.864,1.091-.847,1.6l-.007.013a1.729,1.729,0,0,0,.27.929c.177.326.409.66.6.982a1.731,1.731,0,0,1,.324.949c-.019.315-.24.6-.692.788a.129.129,0,0,1-.132-.222.137.137,0,0,1,.031-.013c.4-.171.525-.352.538-.566a1.608,1.608,0,0,0-.29-.808c-.183-.309-.419-.643-.607-.989a1.925,1.925,0,0,1-.3-1.056s0-.009,0-.013" transform="translate(-154.921 -41.963)" fill="#1a1a1a"/>
        <path id="Path_12558" data-name="Path 12558" d="M232.044,57.963s1.87,3.986-.079,7.009" transform="translate(-169.66 -42.493)" fill="none" stroke="#f5b054" stroke-miterlimit="10" stroke-width="0.5"/>
      </g>
    </g>
  </g>
</svg>
