<svg xmlns="http://www.w3.org/2000/svg" xmlns:xlink="http://www.w3.org/1999/xlink" width="391" height="133" viewBox="0 0 391 133">
  <defs>
    <clipPath id="clip-path">
      <rect id="Rectangle_85316" data-name="Rectangle 85316" width="391" height="133" transform="translate(-9530 714)" fill="#fff" stroke="#707070" stroke-width="1"/>
    </clipPath>
    <clipPath id="clip-path-2">
      <rect id="Rectangle_85169" data-name="Rectangle 85169" width="78.802" height="47.07" fill="none"/>
    </clipPath>
    <clipPath id="clip-path-3">
      <rect id="Rectangle_85170" data-name="Rectangle 85170" width="84.35" height="50.367" fill="none"/>
    </clipPath>
    <clipPath id="clip-path-4">
      <rect id="Rectangle_85171" data-name="Rectangle 85171" width="84.349" height="50.375" fill="none"/>
    </clipPath>
    <clipPath id="clip-path-5">
      <rect id="Rectangle_85172" data-name="Rectangle 85172" width="84.35" height="50.365" fill="none"/>
    </clipPath>
    <clipPath id="clip-path-6">
      <rect id="Rectangle_85173" data-name="Rectangle 85173" width="94" height="56.15" fill="none"/>
    </clipPath>
    <linearGradient id="linear-gradient" y1="0.5" x2="1" y2="0.5" gradientUnits="objectBoundingBox">
      <stop offset="0" stop-color="#858585"/>
      <stop offset="0.396" stop-color="#47ab4a"/>
      <stop offset="0.605" stop-color="#f7cc06"/>
      <stop offset="1" stop-color="#d2232a"/>
    </linearGradient>
  </defs>
  <g id="Mask_Group_1326" data-name="Mask Group 1326" transform="translate(9530 -714)" clip-path="url(#clip-path)">
    <g id="Group_13258" data-name="Group 13258">
      <g id="Rectangle_85164" data-name="Rectangle 85164" transform="translate(-9530 978)" fill="#7f887f" stroke="#fff" stroke-width="1" opacity="0.1">
        <rect width="391" height="132" stroke="none"/>
        <rect x="0.5" y="0.5" width="390" height="131" fill="none"/>
      </g>
      <g id="Rectangle_85179" data-name="Rectangle 85179" transform="translate(-9530 846)" fill="#f3f8e9" stroke="#fff" stroke-width="1">
        <rect width="391" height="132" stroke="none"/>
        <rect x="0.5" y="0.5" width="390" height="131" fill="none"/>
      </g>
      <g id="Rectangle_85180" data-name="Rectangle 85180" transform="translate(-9530 714)" fill="#edf6ee" stroke="#fff" stroke-width="1">
        <rect width="391" height="132" stroke="none"/>
        <rect x="0.5" y="0.5" width="390" height="131" fill="none"/>
      </g>
      <g id="Rectangle_85181" data-name="Rectangle 85181" transform="translate(-9530 582)" fill="#fef9e5" stroke="#fff" stroke-width="1">
        <rect width="391" height="132" stroke="none"/>
        <rect x="0.5" y="0.5" width="390" height="131" fill="none"/>
      </g>
      <g id="Rectangle_85182" data-name="Rectangle 85182" transform="translate(-9530 453)" fill="#fbece8" stroke="#fff" stroke-width="1">
        <rect width="391" height="132" stroke="none"/>
        <rect x="0.5" y="0.5" width="390" height="131" fill="none"/>
      </g>
      <g id="Group_2758" data-name="Group 2758" transform="translate(-9273.439 1032.053)">
        <g id="Group_2732" data-name="Group 2732" clip-path="url(#clip-path-2)">
          <path id="Path_6256" data-name="Path 6256" d="M19.552,47.053c.5-.009,1.292.035,1.292-.571A1.973,1.973,0,0,0,19.726,44.6a4.847,4.847,0,0,0-.675-.3.864.864,0,0,1-.591-.662c-.07-.3-.108-.608-.149-.913a3.39,3.39,0,0,1-.044-.592c.016-.38.047-.759.09-1.137.055-.488.109-.977.2-1.459.081-.436.2-.865.32-1.294a1.783,1.783,0,0,1,.557-.823.772.772,0,0,1,.067.185,5.1,5.1,0,0,0,.473,1.738c.372.853.745,1.706,1.187,2.527.512.952,1.024,1.905,1.546,2.852.257.466.522.93.815,1.373a4.926,4.926,0,0,0,.6.679.768.768,0,0,0,.541.142,13.041,13.041,0,0,0,2.184,0c.51-.047,1.729-.019,1.735-.735a1.7,1.7,0,0,0-.454-1.336,2.931,2.931,0,0,0-1.059-.6,3.127,3.127,0,0,1-1.639-.93A15.4,15.4,0,0,1,24.1,41.2c-.127-.237-.236-.485-.349-.73a3.053,3.053,0,0,1-.243-1.084,2.892,2.892,0,0,1,.14-1.12,5.144,5.144,0,0,1,.555-1.183c.584-.911,1.232-1.776,1.888-2.634s1.337-1.675,1.986-2.527,1.295-1.749,1.939-2.625c.466-.633.935-1.264,1.392-1.9.365-.51.711-1.034,1.071-1.548.665-.949,1.817-2.285,3.111-2.113a6.416,6.416,0,0,1,1.391.313c.589.218,1.175.445,1.75.7,1.041.457,2.067.948,3.11,1.4.663.288,1.341.543,2.019.8.842.313,1.687.618,2.538.907.451.153.917.26,1.374.4,1.164.345,2.279.767,3.476,1.006a1.723,1.723,0,0,1,.475.142c.385.2.432.845.509,1.231.39,1.948.663,3.917.983,5.878.16.98.331,1.958.535,2.93a17.4,17.4,0,0,0,.716,2.859c.074.186.176.353.235.55a8.393,8.393,0,0,0,.468,1.07A20.654,20.654,0,0,0,56.4,46.057a.59.59,0,0,0,.475.307c.355.042.707.083,1.065.091.316.006.631.052.946.081.024,0,.047.006.071.007.452.017.9.035,1.357.051.468.017.937.045,1.4.041a5.458,5.458,0,0,0,.8-.094.412.412,0,0,0,.355-.37,2.265,2.265,0,0,0,.009-.991.9.9,0,0,0-.219-.415,2.431,2.431,0,0,0-.906-.559c-.246-.09-.5-.166-.752-.232a.963.963,0,0,1-.693-.562,16.583,16.583,0,0,1-1.157-5.52,16,16,0,0,1,.686-6.765c.227-.568.424-1.148.646-1.719.251-.644.507-1.287.776-1.923.217-.513.449-1.019.687-1.522q.6-1.262,1.082-2.571c.185-.5.4-.99.558-1.5.326-1.022.631-2.051.933-3.081.19-.648.36-1.3.54-1.952.212-.765.419-1.532.64-2.295a4.492,4.492,0,0,1,.618-1.286,4.776,4.776,0,0,1,2.624-1.8,14.153,14.153,0,0,1,3.882-.279c1.1,0,2.862.076,3.674-.8a1.834,1.834,0,0,0,.382-.627.4.4,0,0,1,.177-.212,4.1,4.1,0,0,0,1.618-1.9.975.975,0,0,0-.156-1.168,5.035,5.035,0,0,0-1.064-.632c-.692-.3-1.389-.594-2.087-.881-.382-.157-.781-.276-1.155-.45a2.213,2.213,0,0,1-1.154-1.084,4.162,4.162,0,0,0-1.353-1.739A8.134,8.134,0,0,0,68.426.1,8.042,8.042,0,0,0,66.669.01a2.893,2.893,0,0,0-.913.258,13.832,13.832,0,0,0-2.522,1.343c-.521.334-1.019.7-1.523,1.064a5.008,5.008,0,0,0-.458.38c-.586.535-1.155,1.089-1.774,1.59a8.318,8.318,0,0,0-.817.766A10.628,10.628,0,0,1,57.5,6.4q-.773.616-1.547,1.23a8.067,8.067,0,0,1-1.376.9c-.624.317-1.249.636-1.89.918-.771.339-1.548.67-2.342.947-.772.269-1.567.471-2.355.694a48.5,48.5,0,0,1-11.213,1.66c-3.839.16-7.692.089-11.519.472-2.829.283-5.577.965-8.365,1.469-.569.1-1.142.184-1.713.273C11.173,15.585,7.145,16,3.1,16.285c-.563.04-3.2-.213-3.093.753a1.1,1.1,0,0,0,.354.606,8.491,8.491,0,0,0,3.95,2.177,21.643,21.643,0,0,0,5.573.654,30.561,30.561,0,0,0,5.479-.368q.959-.172,1.914-.369c.482-.1.96-.212,1.441-.318a.319.319,0,0,1,.068,0c.006.014.02.033.015.041a5.034,5.034,0,0,0-.431,1.429,17.541,17.541,0,0,0-.254,4.83c.108,1.574.433,3.13.439,4.7a5.257,5.257,0,0,1-.236,1.5A6.609,6.609,0,0,1,17.14,34.2c-.311.391-.649.761-.978,1.138s-.66.751-.99,1.127a.34.34,0,0,1-.032.036,1.41,1.41,0,0,0-.382,1.376c.052.425.1.85.163,1.273.059.384.14.764.214,1.146.115.592.235,1.182.346,1.775q.151.806.285,1.616c.043.258.057.521.108.777a13.837,13.837,0,0,0,.417,1.661,1.255,1.255,0,0,0,1.12.826,9.565,9.565,0,0,0,2.023.11l.117,0" transform="translate(0 0.001)" fill="#ecc68b"/>
          <path id="Path_6257" data-name="Path 6257" d="M893.036,66.983a4.663,4.663,0,0,1-.242-1.613.176.176,0,0,1,.083-.171c.2.085.4.169.6.255a5.033,5.033,0,0,1,1.064.632.975.975,0,0,1,.156,1.168,3.531,3.531,0,0,1-.314.609c-.093-.01-.186-.024-.278-.04a1.3,1.3,0,0,1-1.065-.84" transform="translate(-816.01 -59.592)" fill="#47340e"/>
          <path id="Path_6258" data-name="Path 6258" d="M214.78,212.432c.008.026.034.061.025.083-.15.352-.3.7-.454,1.053l-.293.066.5-1.086c.042-.092.09-.171.222-.115" transform="translate(-195.648 -194.145)" fill="#47340e"/>
          <path id="Path_6259" data-name="Path 6259" d="M723.119,2.244a7.322,7.322,0,0,1,.914,3.155,8.065,8.065,0,0,1,0,1.429q-.066.771-.161,1.54c-.046.37-.108.739-.179,1.105a1.931,1.931,0,0,1-.423.9.675.675,0,0,1-.974.148,2.22,2.22,0,0,1-.439-.4,15.707,15.707,0,0,1-1.265-1.762,7.572,7.572,0,0,0-1.1-1.439,5.719,5.719,0,0,1-1.183-1.635,3.3,3.3,0,0,1-.383-1.456c.492-.352.979-.712,1.488-1.038a13.834,13.834,0,0,1,2.522-1.343c.14-.053.279-.11.421-.158a3.483,3.483,0,0,1,.762.957" transform="translate(-656.181 -1.176)" fill="#e0a953"/>
          <path id="Path_6260" data-name="Path 6260" d="M224.88,304.943c.411-.285.807-.591,1.22-.874,1.05-.718,2.073-1.476,3.1-2.235.562-.417,1.113-.851,1.643-1.308s1.021-.936,1.522-1.413c.923-.879,1.783-1.819,2.635-2.765.57-.632,1.117-1.286,1.7-1.906a13.166,13.166,0,0,1,1.122-1.082c-.174.211-.332.422-.468.616-.122.174-.242.35-.361.525q-.246.256-.486.518c-.75.823-1.466,1.678-2.22,2.5-.587.638-1.208,1.245-1.817,1.864a25.589,25.589,0,0,1-2.6,2.28c-.66.511-1.345.99-2.023,1.478-.922.665-1.849,1.323-2.769,1.989a2.376,2.376,0,0,0-.693.7c0-.03-.006-.059-.008-.089a.769.769,0,0,0-.067-.185c-.055.051-.105.1-.154.156a1.2,1.2,0,0,1,.182-.271,3.615,3.615,0,0,1,.549-.494" transform="translate(-204.871 -268.13)" fill="#47340e"/>
          <path id="Path_6261" data-name="Path 6261" d="M669.125,385.019a1.337,1.337,0,0,0-.485-1.343,2.047,2.047,0,0,0-1.009-.458.993.993,0,0,1-.59-.283,2.572,2.572,0,0,1-.611-.873c-.173-.435-.341-.873-.5-1.313a6.179,6.179,0,0,1-.354-1.576c-.051-.578-.074-1.158-.093-1.738-.029-.883-.007-1.766.046-2.648.013-.214.029-.428.051-.641a17.44,17.44,0,0,1,.376-2.133q.105-.452.232-.9c.041-.143.053-.14.254-.093-.015.1-.026.194-.047.291-.146.675-.313,1.347-.438,2.026a16.7,16.7,0,0,0-.222,2.9c-.008.85.052,1.7.076,2.551a6.075,6.075,0,0,0,.177,1.224,13.278,13.278,0,0,0,.661,1.887,2.542,2.542,0,0,0,.572.842.651.651,0,0,0,.393.209,2.446,2.446,0,0,1,1.011.4,1.573,1.573,0,0,1,.768,1.323,2.235,2.235,0,0,1-.226,1.033l-.266-.011a.578.578,0,0,0,.034-.061,2.642,2.642,0,0,0,.193-.611" transform="translate(-608.234 -339.085)" fill="#47340e"/>
          <path id="Path_6262" data-name="Path 6262" d="M848.507,112.78a6.066,6.066,0,0,1-1.566-.068,3.752,3.752,0,0,1-.593-.173.123.123,0,0,1-.1-.164c.029-.082.1-.094.178-.077a1.435,1.435,0,0,1,.159.049,3.205,3.205,0,0,0,1.1.181l1.167-.008a4.277,4.277,0,0,0,1.173-.174c.134-.039.266-.084.4-.131a.393.393,0,0,0-.075.127,1.921,1.921,0,0,1-.083.192,3.889,3.889,0,0,1-.859.185c-.3.028-.6.027-.9.061" transform="translate(-773.462 -102.564)" fill="#47340e"/>
          <path id="Path_6263" data-name="Path 6263" d="M824.97,50.09a.827.827,0,0,1,.154.236,1.132,1.132,0,0,1,.067.56.377.377,0,0,1-.32.385.369.369,0,0,1-.394-.241,1.325,1.325,0,0,1-.108-.518.79.79,0,0,1,.064-.3c.11-.254.327-.334.538-.127" transform="translate(-753.468 -45.674)" fill="#47340e"/>
          <path id="Path_6264" data-name="Path 6264" d="M659.506,81.619c-.131.094-.206.084-.25-.071a3.778,3.778,0,0,1-.114-.607c-.029-.266-.055-.532-.079-.8l.221-.176c.023.253.053.505.087.757.041.3.089.595.134.894" transform="translate(-602.38 -73.09)" fill="#47340e"/>
          <path id="Path_6265" data-name="Path 6265" d="M223.86,532.043c.086-.091.161-.083.219.01a.575.575,0,0,1,.066.177c.079.349.155.7.232,1.047l-.218,0h-.012c-.01-.054-.019-.108-.031-.162-.079-.354-.167-.705-.255-1.075" transform="translate(-204.607 -486.227)" fill="#47340e"/>
          <path id="Path_6266" data-name="Path 6266" d="M231.558,530.483c.142-.13.2-.122.269.059a6.751,6.751,0,0,1,.31,1.193,1.28,1.28,0,0,1-.257.063c-.055-.275-.11-.55-.171-.824-.038-.168-.1-.331-.151-.491" transform="translate(-211.643 -484.778)" fill="#47340e"/>
          <path id="Path_6267" data-name="Path 6267" d="M758,152.789c-.134-.042-.147-.1-.092-.254a.192.192,0,0,1,.068-.01c.054.012.106.032.159.046a3.2,3.2,0,0,0,.88.128c-.047.07-.091.141-.135.213-.131,0-.262,0-.393-.013a2.127,2.127,0,0,1-.486-.11" transform="translate(-692.699 -139.406)" fill="#47340e"/>
          <path id="Path_6268" data-name="Path 6268" d="M320,526.986c.129.021.16.116.189.205.08.248.166.5.228.749.037.15.065.3.09.456a1.732,1.732,0,0,1-.232.072,6.963,6.963,0,0,0-.382-1.388l.107-.094" transform="translate(-292.384 -481.663)" fill="#47340e"/>
          <path id="Path_6269" data-name="Path 6269" d="M310.878,528.74c.22.015.231.015.3.165a6.164,6.164,0,0,1,.4,1.238c-.085.008-.169.015-.249.02a5.437,5.437,0,0,0-.408-1.231.931.931,0,0,1-.041-.193" transform="translate(-284.141 -483.266)" fill="#47340e"/>
          <path id="Path_6270" data-name="Path 6270" d="M692.205,526.986a.137.137,0,0,1,.239.025.683.683,0,0,1,.085.195,6.812,6.812,0,0,1,.186.986l-.251-.009a3.464,3.464,0,0,0-.25-1.1.287.287,0,0,1-.009-.093" transform="translate(-632.672 -481.608)" fill="#47340e"/>
          <path id="Path_6271" data-name="Path 6271" d="M683.851,526.627a.916.916,0,0,1,.151.212c.09.277.177.556.24.84a1.919,1.919,0,0,1,.033.214l-.244-.009a3.984,3.984,0,0,0-.328-1.129l.147-.128" transform="translate(-624.902 -481.334)" fill="#47340e"/>
          <path id="Path_6272" data-name="Path 6272" d="M716.083,526.287c.158-.094.221-.081.271.1.108.391.2.785.3,1.179-.08.011-.16.021-.24.027-.1-.393-.2-.786-.3-1.18-.011-.044-.019-.089-.028-.13" transform="translate(-654.496 -480.971)" fill="#47340e"/>
          <path id="Path_6273" data-name="Path 6273" d="M723.747,525.618a.812.812,0,0,1,.157.186,3.426,3.426,0,0,1,.183.538c.036.155.063.313.088.471a.4.4,0,0,1-.23.133,2.972,2.972,0,0,0-.283-1.094c-.039-.075-.054-.151.085-.234" transform="translate(-661.399 -480.412)" fill="#47340e"/>
        </g>
      </g>
      <path id="Path_6507" data-name="Path 6507" d="M73.215,3.49s-7.621,7.139-10.488,7.667c-2.749.507-4.774.289-5.642-.723s-6.2-3.49-9.114-4.051c-3.761-.723-9.819,1.381-13.96,3.183-7.811,3.4-12.585-.218-12.585-.218a3.416,3.416,0,0,0-3.038-2.82C15.712,6.239,5.562,7.9,4.718,13.689c-.449,3.079,4.7,9.62,11.862,8.68,2.718-.357,3.557-2.112,5.063-2.966,2.464-1.4,6.365-1.3,11.5.578,9.865,3.613,11.4,4.058,20.108,1.3,5.715-1.809,6.293-4.845,10.488-3.4,3.326,1.147,5,3.489,6.293,5.281.3.416,2.671,1.666,2.749,1.157.145-.941-.51-4.407-.073-4.918.868-1.013,4.485-1.52,7.161-3.038.637-.361,1.8-.228,2.17-.507.6-.451.376-2.614-.361-2.749-1.7-.309-5.882-1.606-7.522-3.761-2.532-3.327,1.375-6.438-.941-5.859" transform="translate(-9278.131 999.727)" fill="#e0a953"/>
      <g id="Group_2760" data-name="Group 2760" transform="translate(-9273.439 901.969)">
        <g id="Group_2734" data-name="Group 2734" clip-path="url(#clip-path-3)">
          <path id="Path_6274" data-name="Path 6274" d="M19.713,50.367a.4.4,0,0,0-.113-.047c-.691-.062-1.8.065-2.308-.5a1.856,1.856,0,0,1-.354-.87c-.56-2.587-.945-5.192-1.285-7.815-.043-.328-.106-.654-.127-.982a.971.971,0,0,1,.218-.759c.115-.125.215-.263.329-.389,1.643-1.815,3.756-3.98,3.478-6.646-.194-1.864-.695-3.663-.72-5.55a12.6,12.6,0,0,1,1.082-5.529c.077-.163.149-.328.23-.506a.807.807,0,0,0-.1.006l-.319.07a36.824,36.824,0,0,1-12.769.846A12.92,12.92,0,0,1,1.07,19.51C.693,19.236-.056,18.638,0,18.105c.084-.75,1.966-.626,2.488-.642q.81-.024,1.619-.067.886-.047,1.77-.117c1.006-.08,2.07-.107,3.058-.271,1.085-.18,2.167-.386,3.251-.573q3.221-.556,6.449-1.066c2.156-.314,4.314-.638,6.462-.987A87.992,87.992,0,0,1,38,13.469a53.137,53.137,0,0,0,7.923-.514,45.069,45.069,0,0,0,6.056-1.54,36.867,36.867,0,0,0,5.491-1.962c.553-.275,1.1-.563,1.626-.884a35.4,35.4,0,0,0,4.419-3.7,32.508,32.508,0,0,1,4.872-3.573,14.369,14.369,0,0,1,1.978-1,3.181,3.181,0,0,1,1.1-.286,9.947,9.947,0,0,1,1.35.038,6.452,6.452,0,0,1,1.9.542A14.144,14.144,0,0,1,76.849,1.9a2.716,2.716,0,0,1,.826.784,8.833,8.833,0,0,1,.5.947,2.367,2.367,0,0,0,1.276,1.222c.515.223,1.048.4,1.567.616.5.207,1,.443,1.5.645a6.64,6.64,0,0,1,1.534.848.7.7,0,0,1,.3.587,2.034,2.034,0,0,1-.327,1.033,4.449,4.449,0,0,1-1.569,1.677.366.366,0,0,0-.141.17,2.316,2.316,0,0,1-1.275,1.324c-.153.069-.327.09-.486.146a5.425,5.425,0,0,1-1.329.211c-.617.057-1.24.052-1.86.062-.579.009-1.159.006-1.738,0a6.2,6.2,0,0,0-1.11.135,5.371,5.371,0,0,0-1.886.808,3.98,3.98,0,0,0-1.449,1.319,4.915,4.915,0,0,0-.362,1.051c-.351,1.343-.688,2.69-1.053,4.029-.216.8-.442,1.589-.689,2.376a49.7,49.7,0,0,1-2.847,7.236,28.226,28.226,0,0,0-2.272,5.335,17.5,17.5,0,0,0-.425,3.433,24.448,24.448,0,0,0,.324,5.612,7.9,7.9,0,0,0,.547,1.933c.232.473.456.951.691,1.443.215.055.437.109.658.168a2.961,2.961,0,0,1,1.32.737,1.729,1.729,0,0,1,.349,1.733.364.364,0,0,1-.271.241,4.96,4.96,0,0,1-1.108.143c-.424,0-.849-.026-1.273-.044q-.5-.021-.992-.05c-.559-.033-1.118-.084-1.677-.1a9.636,9.636,0,0,1-1.267-.108,1.457,1.457,0,0,1-1.01-.586A16.934,16.934,0,0,1,58.4,46.845c-.291-.586-.623-1.152-.919-1.736a7.954,7.954,0,0,1-.7-1.965c-.477-2.267-.738-4.59-1.085-6.88-.13-.855-.266-1.708-.4-2.562a1.06,1.06,0,0,0-.073-.2c-.28-.026-.534-.043-.787-.073A34.282,34.282,0,0,1,48,32.213c-1.634-.523-3.164-1.288-4.747-1.938a22.39,22.39,0,0,0-7.316-2.069,1.156,1.156,0,0,0-.56.075c-.71.349-.958,1.33-1.3,1.973a21.738,21.738,0,0,1-1.4,2.284c-1.668,2.383-3.848,4.27-5.743,6.453a5.479,5.479,0,0,0-1.469,2.861,1.882,1.882,0,0,0,.027.781A10.837,10.837,0,0,0,26,43.912a14.108,14.108,0,0,0,1.416,2.36,2.016,2.016,0,0,0,1.463.921,2.251,2.251,0,0,1,1.16.489,1.517,1.517,0,0,1,.332.344,2.078,2.078,0,0,1,.332,1.085.761.761,0,0,1-.667.9,4.84,4.84,0,0,1-.875.157c-.466.017-.931.089-1.4.086-.567,0-1.135-.055-1.7-.1a.908.908,0,0,1-.688-.338c-.155-.2-.333-.388-.475-.6a26.48,26.48,0,0,1-1.41-2.456c-.275-.519-.51-1.059-.772-1.584-.491-.983-.908-2-1.322-3.015a6.466,6.466,0,0,1-.51-1.914,1.055,1.055,0,0,0-.066-.207,1.83,1.83,0,0,0-.644,1.017,14.474,14.474,0,0,0-.311,1.958c-.034.516-.085,1.032-.094,1.549a10.171,10.171,0,0,0,.056,1.374,3.573,3.573,0,0,0,.238,1.065.361.361,0,0,0,.207.21c.087.033.18.051.267.084a6.8,6.8,0,0,1,.874.346,1.8,1.8,0,0,1,.959,1.606c.008.187,0,.375,0,.562-.005.265-.078.35-.333.4a4.607,4.607,0,0,1-.96.106.725.725,0,0,0-.19.048H19.713" transform="translate(0 0)" fill="#ecc68b"/>
          <path id="Path_6275" data-name="Path 6275" d="M893.513,67.483a4.989,4.989,0,0,1-.259-1.726.185.185,0,0,1,.121-.2l.187.078a6.64,6.64,0,0,1,1.534.848.7.7,0,0,1,.3.587,2.035,2.035,0,0,1-.327,1.033c-.059.108-.123.212-.189.313-.075-.009-.149-.019-.223-.033a1.385,1.385,0,0,1-1.14-.9" transform="translate(-811.043 -59.522)" fill="#47340e"/>
          <path id="Path_6276" data-name="Path 6276" d="M215.615,212.991c.009.027.036.066.026.088-.151.355-.306.709-.459,1.064a.224.224,0,0,0-.042,0l-.266.058.5-1.091c.045-.1.1-.183.237-.123" transform="translate(-195.099 -193.37)" fill="#47340e"/>
          <path id="Path_6277" data-name="Path 6277" d="M723.991,2.468a7.812,7.812,0,0,1,.975,3.351,8.653,8.653,0,0,1,0,1.555q-.071.825-.172,1.648c-.049.4-.115.791-.191,1.183a2.062,2.062,0,0,1-.454.958.722.722,0,0,1-1.043.155,2.394,2.394,0,0,1-.469-.428A16.968,16.968,0,0,1,721.28,9a8.05,8.05,0,0,0-1.155-1.521,6.205,6.205,0,0,1-1.248-1.7,3.5,3.5,0,0,1-.437-1.729A25.612,25.612,0,0,1,720.7,2.566a14.367,14.367,0,0,1,1.978-1c.146-.057.293-.114.441-.162a3.616,3.616,0,0,1,.868,1.067" transform="translate(-652.315 -1.272)" fill="#e0a953"/>
          <path id="Path_6278" data-name="Path 6278" d="M226.292,319.281a7.4,7.4,0,0,1,.815-.655c.66-.451,1.339-.875,2-1.326s1.351-.92,2-1.413c.549-.416,1.065-.875,1.591-1.322a29.354,29.354,0,0,0,2.748-2.7c.685-.758,1.369-1.517,2.078-2.254a8.623,8.623,0,0,1,1.926-1.545,3.185,3.185,0,0,1,1.216-.426l.041,0a1.461,1.461,0,0,0-.4.338,2.443,2.443,0,0,0-.5.2,8.506,8.506,0,0,0-2.151,1.708q-1.125,1.186-2.216,2.4a33.826,33.826,0,0,1-3.034,2.923,22.017,22.017,0,0,1-2.228,1.708c-.955.639-1.919,1.264-2.864,1.916a2.768,2.768,0,0,0-1.014.942c-.009-.068-.017-.136-.022-.2a1.05,1.05,0,0,0-.065-.206c.026-.029.053-.057.082-.084" transform="translate(-205.391 -279.321)" fill="#47340e"/>
          <path id="Path_6279" data-name="Path 6279" d="M669.83,386.472a1.43,1.43,0,0,0-.525-1.48,2.174,2.174,0,0,0-1.083-.481,1.024,1.024,0,0,1-.608-.3,2.793,2.793,0,0,1-.658-.932c-.151-.37-.295-.742-.437-1.116a7.436,7.436,0,0,1-.48-1.975c-.056-.627-.08-1.257-.1-1.886-.031-.936-.01-1.873.05-2.808.024-.382.047-.765.109-1.142.1-.62.225-1.237.353-1.852.065-.316.159-.625.239-.938.03-.117.09-.181.238-.132a.452.452,0,0,1-.007.331c-.162.722-.337,1.441-.473,2.167a17.8,17.8,0,0,0-.238,3.075c-.01.918.055,1.837.08,2.756a6.537,6.537,0,0,0,.195,1.335,14.406,14.406,0,0,0,.7,2,2.742,2.742,0,0,0,.61.9.724.724,0,0,0,.443.233,2.549,2.549,0,0,1,1.058.418,1.681,1.681,0,0,1,.828,1.437,2.3,2.3,0,0,1-.219,1.03l-.276-.013c0-.008.009-.015.013-.023a2.742,2.742,0,0,0,.19-.606" transform="translate(-604.635 -337.233)" fill="#47340e"/>
          <path id="Path_6280" data-name="Path 6280" d="M848.371,113.692c-.178.005-.356-.03-.535-.033a3.474,3.474,0,0,1-1.119-.225.932.932,0,0,1-.2-.132c.1-.161.109-.169.2-.156a.824.824,0,0,1,.146.043,3.657,3.657,0,0,0,1.276.208c.4-.007.8-.007,1.2-.01a4.565,4.565,0,0,0,1.255-.188c.115-.033.228-.071.341-.11,0,.006-.008.012-.011.018a2.361,2.361,0,0,1-.15.318l-.029.01a9.07,9.07,0,0,1-2.374.257" transform="translate(-768.612 -102.681)" fill="#47340e"/>
          <path id="Path_6281" data-name="Path 6281" d="M825.543,50.557a.875.875,0,0,1,.189.265,1.166,1.166,0,0,1,.079.622.4.4,0,0,1-.325.4.379.379,0,0,1-.43-.237,1.381,1.381,0,0,1-.113-.505,1.051,1.051,0,0,1,.052-.353c.093-.278.3-.4.548-.191" transform="translate(-749.018 -45.807)" fill="#47340e"/>
          <path id="Path_6282" data-name="Path 6282" d="M659.84,80.326c-.14.1-.22.09-.267-.076a4.055,4.055,0,0,1-.122-.649c-.038-.347-.071-.695-.1-1.042.079-.066.159-.132.237-.2.025.337.063.674.109,1.01.044.319.1.636.143.957" transform="translate(-598.667 -71.147)" fill="#47340e"/>
          <path id="Path_6283" data-name="Path 6283" d="M224.327,532.842c-.022-.083-.025-.167.069-.184.048-.009.113.046.163.083a.164.164,0,0,1,.04.092c.084.372.167.745.25,1.118-.034,0-.067,0-.1,0a.4.4,0,0,0-.136.031c-.008-.037-.013-.074-.022-.11-.081-.345-.173-.688-.264-1.031" transform="translate(-203.669 -483.633)" fill="#47340e"/>
          <path id="Path_6284" data-name="Path 6284" d="M232,531.034c.146-.13.207-.131.265.02a4.815,4.815,0,0,1,.212.677c.043.19.079.381.114.572q-.134.024-.269.044c-.066-.312-.131-.625-.2-.936-.029-.131-.08-.256-.12-.378" transform="translate(-210.647 -482.073)" fill="#47340e"/>
          <path id="Path_6285" data-name="Path 6285" d="M758.843,153.389a2.814,2.814,0,0,1-.419-.106c-.144-.053-.153-.112-.065-.285l.187.048a2.778,2.778,0,0,0,1.262.112,1.8,1.8,0,0,0-.117.19c-.015.029-.026.059-.04.088a2.961,2.961,0,0,1-.808-.046" transform="translate(-688.512 -138.917)" fill="#47340e"/>
          <path id="Path_6286" data-name="Path 6286" d="M320.477,527.495c.157.054.186.18.219.288q.152.5.278,1c.012.048.019.1.028.146-.033.01-.064.02-.1.029l-.156.036a6.8,6.8,0,0,0-.395-1.384l.125-.117" transform="translate(-290.868 -478.947)" fill="#47340e"/>
          <path id="Path_6287" data-name="Path 6287" d="M311.352,529.309a.189.189,0,0,1,.3.1,6.283,6.283,0,0,1,.436,1.3,2.244,2.244,0,0,1-.228.021l-.039,0a5.677,5.677,0,0,0-.424-1.256.819.819,0,0,1-.04-.171" transform="translate(-282.697 -480.563)" fill="#47340e"/>
          <path id="Path_6288" data-name="Path 6288" d="M692.638,527.7c.178-.058.208-.055.268.05a.881.881,0,0,1,.086.211,7.115,7.115,0,0,1,.186.97l-.262-.013c-.039-.2-.06-.4-.1-.6s-.115-.416-.173-.622" transform="translate(-628.891 -479.101)" fill="#47340e"/>
          <path id="Path_6289" data-name="Path 6289" d="M684.459,527.724a.488.488,0,0,1,.055.113,4.738,4.738,0,0,1,.283,1.042l-.272-.018a3.864,3.864,0,0,0-.333-1.105c.136-.136.188-.14.266-.032" transform="translate(-621.223 -479.086)" fill="#47340e"/>
          <path id="Path_6290" data-name="Path 6290" d="M716.58,526.845c.167-.1.233-.081.287.116.111.4.208.805.306,1.21-.083.01-.167.018-.251.024a7.576,7.576,0,0,0-.336-1.256.312.312,0,0,1-.006-.094" transform="translate(-650.629 -478.304)" fill="#47340e"/>
          <path id="Path_6291" data-name="Path 6291" d="M724.153,526.441c.154,0,.192.115.238.212a3.727,3.727,0,0,1,.27,1.029l.006.037a.419.419,0,0,1-.08.029c-.06.015-.121.027-.182.039a3.14,3.14,0,0,0-.294-1.114c-.042-.08-.062-.16.042-.232" transform="translate(-657.437 -477.99)" fill="#47340e"/>
        </g>
      </g>
      <path id="Path_6508" data-name="Path 6508" d="M169.523,3.354s-5.363,6.874-7.894,7.34c-2.425.447-4.212.256-4.978-.638s-4.855-4.037-7.426-4.532c-3.319-.638-9.112.708-12.766,2.3-6.893,3-10.851.511-10.851.511A3.85,3.85,0,0,0,122.5,6.609c-2.362-.255-11.319,1.213-12.064,6.319-.4,2.717,4.149,8.49,10.468,7.66,2.4-.315,3.139-1.864,4.468-2.617,2.173-1.232,5.617-1.149,10.149.511,8.706,3.188,10.059,3.581,17.745,1.149,5.042-1.6,5.553-4.277,9.255-3a11.22,11.22,0,0,1,5.553,4.659c.266.368,2.357,1.47,2.426,1.021.127-.829-.372-3.832-.064-4.34,1.511-2.489,3.957-1.34,6.319-2.681.562-.318,1.589-.2,1.915-.447.528-.4.331-2.307-.319-2.425-1.5-.274-5.978-1.545-7.426-3.447-2.234-2.936.639-6.128-1.4-5.617" transform="translate(-9373.612 871.667)" fill="#e0a953"/>
      <g id="Group_2761" data-name="Group 2761" transform="translate(-9273.439 777.234)">
        <g id="Group_2736" data-name="Group 2736" clip-path="url(#clip-path-4)">
          <path id="Path_6292" data-name="Path 6292" d="M19.854,50.374a.616.616,0,0,0-.164-.05,13.687,13.687,0,0,1-1.7-.16.945.945,0,0,1-.831-.549,5.282,5.282,0,0,1-.266-.85c-.145-.663-.272-1.331-.4-2-.129-.684-.256-1.369-.367-2.056-.088-.544-.149-1.092-.223-1.639q-.121-.895-.243-1.79c-.049-.361-.109-.722-.14-1.084a.932.932,0,0,1,.2-.762c1.568-1.711,3.437-3.6,3.755-6.009a13.634,13.634,0,0,0-.366-3.931,15.169,15.169,0,0,1,.71-8.008c.091-.237.2-.465.325-.737-.113.017-.194.025-.273.042-.84.175-1.678.358-2.519.526a33.2,33.2,0,0,1-9.04.461,18.208,18.208,0,0,1-4.568-.867,9.207,9.207,0,0,1-2.275-1.149C1.026,19.445-.065,18.734,0,18.087a.464.464,0,0,1,.308-.349,2.937,2.937,0,0,1,.83-.155c2.07,0,4.209-.262,6.272-.464,1.949-.191,3.847-.521,5.771-.884q.679-.128,1.358-.252c2.154-.393,4.313-.764,6.457-1.211,2.095-.437,4.172-.937,6.279-1.316a40.947,40.947,0,0,1,7.994-.669,49.368,49.368,0,0,0,8.082-.206c.545-.081,1.089-.175,1.631-.273.5-.09,1-.2,1.5-.29.484-.086.973-.146,1.456-.238.7-.134,1.4-.276,2.1-.434.8-.181,1.59-.372,2.379-.579.839-.221,1.672-.464,2.506-.7.434-.123.873-.231,1.3-.385.775-.283,1.539-.6,2.308-.9a6,6,0,0,0,1.666-.932c.591-.486,1.155-1,1.726-1.513.419-.374.828-.759,1.245-1.135q.265-.239.543-.463c.351-.283.707-.558,1.059-.84.418-.334.822-.688,1.253-1,.611-.447,1.231-.883,1.866-1.293.506-.327,1.033-.625,1.569-.9.376-.195.781-.336,1.175-.5A2.543,2.543,0,0,1,71.672,0c.357.012.713.024,1.069.051a5.629,5.629,0,0,1,1.933.528A15.973,15.973,0,0,1,76.768,1.85a3.409,3.409,0,0,1,1.347,1.685,2.263,2.263,0,0,0,.61.869,3,3,0,0,0,.942.554c.546.215,1.094.427,1.637.648.441.18.876.375,1.317.555a6.94,6.94,0,0,1,1.419.8.733.733,0,0,1,.279.836,2.685,2.685,0,0,1-.426.978c-.144.2-.3.394-.444.591a3.1,3.1,0,0,1-.933.82.529.529,0,0,0-.241.278,2.322,2.322,0,0,1-1.642,1.4,8.145,8.145,0,0,1-1.712.235c-.857.048-1.718.049-2.577.059a9.418,9.418,0,0,0-1.7.1,4.933,4.933,0,0,0-1.554.556A4.349,4.349,0,0,0,71,14.8a31.672,31.672,0,0,0-.959,3.894c-.313,1.342-.632,2.683-1.03,4a57.884,57.884,0,0,1-2.875,7.572c-.275.595-.556,1.188-.815,1.79s-.5,1.194-.726,1.8a15.532,15.532,0,0,0-.7,2.556,12.114,12.114,0,0,0-.255,2.018c-.02.9.026,1.8.044,2.706,0,.017,0,.034,0,.051.031.406.077.812.09,1.218a9.974,9.974,0,0,0,.153,1.518,6.012,6.012,0,0,0,.551,1.719c.186.354.34.724.5,1.09a.333.333,0,0,0,.241.206c.083.02.165.044.249.057a3.192,3.192,0,0,1,1.327.563,1.689,1.689,0,0,1,.613,1.926.343.343,0,0,1-.321.276c-.262.018-.52.07-.782.1-.245.024-.491.043-.737.042s-.491-.031-.737-.042c-.476-.021-.951-.037-1.427-.056l-.051,0c-.508-.032-1.016-.071-1.525-.1a6.457,6.457,0,0,1-1.209-.162,1.307,1.307,0,0,1-.641-.353,3.46,3.46,0,0,1-.315-.4c-.223-.311-.446-.622-.661-.939-.172-.253-.345-.508-.493-.775-.186-.334-.337-.687-.522-1.022a10.462,10.462,0,0,1-1.21-2.966c-.076-.374-.134-.752-.2-1.127-.046-.25-.11-.5-.147-.75-.1-.646-.178-1.294-.275-1.94-.109-.73-.23-1.458-.343-2.187-.07-.453-.138-.906-.2-1.359-.053-.361-.1-.722-.158-1.082a2.38,2.38,0,0,0-.07-.262c-.231-.025-.442-.065-.652-.067a14.03,14.03,0,0,1-2-.156c-.6-.089-1.194-.166-1.786-.274a17.787,17.787,0,0,1-2.537-.676c-.627-.214-1.232-.494-1.852-.729a27.12,27.12,0,0,1-2.495-1.112c-.945-.471-1.871-.979-2.805-1.471a14.016,14.016,0,0,0-1.974-.835,16.29,16.29,0,0,0-2.144-.662,10.418,10.418,0,0,0-1.567-.173.356.356,0,0,0-.237.059,2.893,2.893,0,0,0-.672.762c-.175.341-.365.674-.531,1.019a16.193,16.193,0,0,1-1.191,2.112c-.182.267-.367.533-.565.787-.387.5-.787.981-1.177,1.474-.248.313-.482.637-.733.948-.469.582-.945,1.159-1.419,1.738-.291.355-.577.713-.873,1.063-.423.5-.867.982-1.274,1.494a5.431,5.431,0,0,0-.7,1.059,3.32,3.32,0,0,0-.119,2.536,5.994,5.994,0,0,0,.458,1.023,14.721,14.721,0,0,0,1.537,2.282.546.546,0,0,0,.113.1,2.549,2.549,0,0,0,1.056.422,1.754,1.754,0,0,1,1.121.548,2.465,2.465,0,0,1,.634,1.473.652.652,0,0,1-.642.785.907.907,0,0,0-.148.036,4.921,4.921,0,0,1-1.123.221c-.526.02-1.05.069-1.576.09a5.353,5.353,0,0,1-.609-.045c-.254-.019-.509-.027-.761-.058a1.09,1.09,0,0,1-.824-.4c-.119-.165-.256-.319-.37-.487a30.191,30.191,0,0,1-1.528-2.654c-.291-.539-.523-1.109-.79-1.66q-.78-1.61-1.4-3.287a8.814,8.814,0,0,1-.283-1.084c-.043-.185-.057-.377-.084-.568-.087.075-.163.139-.237.205a1.693,1.693,0,0,0-.5.983c-.068.35-.128.7-.173,1.055-.071.555-.161,1.11-.182,1.668a9.915,9.915,0,0,0,.147,2.641c.134.575.163.64.678.766.041.01.084.017.124.03A2.436,2.436,0,0,1,21.829,48a2.223,2.223,0,0,1,.589,1.779.472.472,0,0,1-.418.435,5.435,5.435,0,0,1-1.114.109,1.3,1.3,0,0,0-.266.051h-.767" transform="translate(0 0.001)" fill="#ecc68b"/>
          <path id="Path_6293" data-name="Path 6293" d="M893.573,67.325a5,5,0,0,1-.259-1.727.209.209,0,0,1,.053-.16c.11.047.22.094.331.14a6.944,6.944,0,0,1,1.419.8.733.733,0,0,1,.279.836,2.691,2.691,0,0,1-.426.978l-.047.063c-.071-.009-.141-.018-.211-.031a1.386,1.386,0,0,1-1.14-.9" transform="translate(-811.078 -59.414)" fill="#47340e"/>
          <path id="Path_6294" data-name="Path 6294" d="M215.549,212.423c.009.027.036.066.026.088-.156.367-.316.734-.474,1.1-.074.01-.139.019-.2.031l-.107.023q.258-.559.516-1.119c.045-.1.1-.183.237-.123" transform="translate(-195.022 -192.849)" fill="#47340e"/>
          <path id="Path_6295" data-name="Path 6295" d="M724.031,2.313a7.812,7.812,0,0,1,.975,3.352,8.657,8.657,0,0,1,0,1.555q-.071.826-.172,1.648c-.049.4-.115.791-.191,1.183a2.064,2.064,0,0,1-.454.958.723.723,0,0,1-1.043.155,2.392,2.392,0,0,1-.469-.428,16.944,16.944,0,0,1-1.354-1.886,8.049,8.049,0,0,0-1.156-1.522,6.2,6.2,0,0,1-1.248-1.7,3.58,3.58,0,0,1-.442-1.645c.571-.416,1.151-.823,1.744-1.206.507-.327,1.033-.625,1.569-.9.376-.195.781-.336,1.175-.5.083-.034.168-.065.253-.092a3.751,3.751,0,0,1,.816,1.026" transform="translate(-652.333 -1.169)" fill="#e0a953"/>
          <path id="Path_6296" data-name="Path 6296" d="M225.545,318.705a7.4,7.4,0,0,1,.816-.655c.66-.451,1.339-.876,2-1.326s1.352-.92,2-1.413c.549-.416,1.066-.875,1.591-1.322a29.351,29.351,0,0,0,2.749-2.706c.685-.758,1.37-1.518,2.078-2.254a8.625,8.625,0,0,1,1.926-1.546,3.185,3.185,0,0,1,1.217-.426c.022,0,.045,0,.067,0a.152.152,0,0,0-.031.019c-.107.1-.215.2-.318.3a2.426,2.426,0,0,0-.583.221,8.512,8.512,0,0,0-2.151,1.708q-1.125,1.187-2.217,2.4a33.823,33.823,0,0,1-3.034,2.924,22.017,22.017,0,0,1-2.229,1.709c-.955.639-1.919,1.264-2.864,1.917a2.722,2.722,0,0,0-1.024.96c-.022-.136-.038-.273-.057-.411l-.1.088a.988.988,0,0,1,.164-.19" transform="translate(-204.633 -278.787)" fill="#47340e"/>
          <path id="Path_6297" data-name="Path 6297" d="M669.891,385.907a1.43,1.43,0,0,0-.526-1.481,2.175,2.175,0,0,0-1.084-.481,1.024,1.024,0,0,1-.608-.3,2.794,2.794,0,0,1-.658-.933c-.151-.37-.295-.743-.437-1.116a7.438,7.438,0,0,1-.48-1.976c-.056-.627-.08-1.257-.1-1.886-.03-.937-.01-1.873.05-2.809.024-.382.047-.765.109-1.142.1-.62.225-1.237.353-1.852.065-.316.159-.625.239-.938.03-.117.09-.181.238-.132a.451.451,0,0,1-.007.331c-.162.722-.338,1.441-.473,2.168a17.825,17.825,0,0,0-.238,3.075c-.01.918.055,1.838.08,2.757a6.539,6.539,0,0,0,.195,1.335,14.413,14.413,0,0,0,.7,2,2.743,2.743,0,0,0,.61.9.725.725,0,0,0,.444.233,2.55,2.55,0,0,1,1.058.418,1.682,1.682,0,0,1,.829,1.438,2.371,2.371,0,0,1-.239,1.078l-.281-.017a.71.71,0,0,0,.037-.067,2.733,2.733,0,0,0,.19-.606" transform="translate(-604.676 -336.709)" fill="#47340e"/>
          <path id="Path_6298" data-name="Path 6298" d="M848.432,113.193c-.178.005-.356-.03-.535-.033a3.471,3.471,0,0,1-1.12-.225.929.929,0,0,1-.2-.132c.1-.161.109-.169.2-.156a.819.819,0,0,1,.147.043,3.659,3.659,0,0,0,1.277.208c.4-.007.8-.007,1.2-.01a4.567,4.567,0,0,0,1.256-.188c.108-.031.215-.066.321-.1a.625.625,0,0,0-.054.1,2.584,2.584,0,0,1-.112.235,9.065,9.065,0,0,1-2.378.258" transform="translate(-768.648 -102.232)" fill="#47340e"/>
          <path id="Path_6299" data-name="Path 6299" d="M825.437,50.161a.876.876,0,0,1,.189.265,1.168,1.168,0,0,1,.078.622.4.4,0,0,1-.325.4c-.381.091-.539-.361-.558-.743a1.108,1.108,0,0,1,.037-.381.359.359,0,0,1,.578-.163" transform="translate(-748.889 -45.462)" fill="#47340e"/>
          <path id="Path_6300" data-name="Path 6300" d="M659.943,80.242c-.14.1-.22.09-.267-.076a4.05,4.05,0,0,1-.122-.65c-.036-.33-.068-.66-.1-.99.078-.068.158-.134.236-.2.025.321.063.641.106.961s.1.636.143.957" transform="translate(-598.75 -71.114)" fill="#47340e"/>
          <path id="Path_6301" data-name="Path 6301" d="M224.386,532.274c-.022-.083-.025-.167.069-.184.048-.009.113.046.163.083a.163.163,0,0,1,.04.092q.131.579.259,1.159c-.081,0-.161.006-.242.006-.008-.041-.015-.083-.025-.124-.081-.345-.173-.688-.264-1.031" transform="translate(-203.718 -483.106)" fill="#47340e"/>
          <path id="Path_6302" data-name="Path 6302" d="M232.06,530.466c.146-.13.207-.132.265.02a4.813,4.813,0,0,1,.212.678c.045.2.083.4.119.6q-.134.025-.268.045c-.068-.323-.136-.646-.208-.968-.029-.131-.08-.256-.12-.378" transform="translate(-210.697 -481.546)" fill="#47340e"/>
          <path id="Path_6303" data-name="Path 6303" d="M758.9,152.82a2.807,2.807,0,0,1-.419-.106c-.144-.053-.153-.112-.065-.285l.187.048a2.725,2.725,0,0,0,1.292.1,2.642,2.642,0,0,0-.188.284,2.959,2.959,0,0,1-.806-.046" transform="translate(-688.55 -138.397)" fill="#47340e"/>
          <path id="Path_6304" data-name="Path 6304" d="M320.536,526.927c.157.054.186.18.219.288q.152.5.278,1c.013.054.022.11.032.165l-.255.069a6.835,6.835,0,0,0-.4-1.408l.125-.117" transform="translate(-290.915 -478.42)" fill="#47340e"/>
          <path id="Path_6305" data-name="Path 6305" d="M311.412,528.741a.189.189,0,0,1,.3.1,6.293,6.293,0,0,1,.442,1.329c-.087.014-.176.023-.265.028a5.718,5.718,0,0,0-.433-1.29.819.819,0,0,1-.04-.171" transform="translate(-282.744 -480.035)" fill="#47340e"/>
          <path id="Path_6306" data-name="Path 6306" d="M692.7,527.136c.178-.058.208-.055.268.05a.888.888,0,0,1,.086.211,7.15,7.15,0,0,1,.192,1.018l-.26-.01c-.047-.214-.065-.433-.113-.647s-.115-.416-.173-.622" transform="translate(-628.93 -478.575)" fill="#47340e"/>
          <path id="Path_6307" data-name="Path 6307" d="M684.521,527.157a.5.5,0,0,1,.055.113,4.638,4.638,0,0,1,.288,1.1l-.19-.007-.051,0-.026,0a3.977,3.977,0,0,0-.343-1.17c.136-.136.188-.14.267-.032" transform="translate(-621.263 -478.559)" fill="#47340e"/>
          <path id="Path_6308" data-name="Path 6308" d="M716.641,526.278c.167-.1.233-.081.287.116.111.4.209.807.306,1.213-.083.012-.166.023-.25.031a7.6,7.6,0,0,0-.338-1.266.317.317,0,0,1-.006-.094" transform="translate(-650.669 -477.778)" fill="#47340e"/>
          <path id="Path_6309" data-name="Path 6309" d="M724.213,525.873c.154,0,.192.115.238.212a3.725,3.725,0,0,1,.27,1.03c0,.02.006.04.009.059a.331.331,0,0,1-.162.053l-.1.01a3.169,3.169,0,0,0-.3-1.132c-.042-.08-.062-.16.042-.232" transform="translate(-657.475 -477.463)" fill="#47340e"/>
        </g>
      </g>
      <path id="Path_6509" data-name="Path 6509" d="M274.056,3.184s-4.853,4.81-7.384,5.277c-2.426.446-4.212.255-4.979-.639a12.758,12.758,0,0,0-6-3.191c-3.319-.638-10.133.452-13.787,2.042-6.894,3-10.851,1.66-10.851,1.66S228.95,5.652,226.588,5.4s-9.958,2.425-10.7,7.532c-.4,2.716,4.149,8.489,10.468,7.659,2.4-.315,3.057-1.5,4.511-1.978,2.936-.958,4.914-.894,9.446.765,8.706,3.189,10.633,3.263,18.318.83,5.043-1.595,3.256-4.149,8.427-2.936,3.021.709,2.771,1.569,3.914,3.149.267.368,4.443,2.789,4.512,2.34.126-.829-.521-3.811-.214-4.319,1.511-2.489,3.255-1.872,5.7-3.723.516-.39,1.994-.052,2.319-.3.529-.4.246-2.264-.4-2.383-1.5-.274-5.617-1.311-7.063-3.213-2.235-2.936.277-6.149-1.766-5.638" transform="translate(-9472.655 743.87)" fill="#e0a953"/>
      <g id="Group_2739" data-name="Group 2739" transform="translate(-9273.439 637.971)">
        <g id="Group_2738" data-name="Group 2738" clip-path="url(#clip-path-5)">
          <path id="Path_6310" data-name="Path 6310" d="M20.693,50.365a1.089,1.089,0,0,1,.241-.049,5.183,5.183,0,0,0,1.088-.109c.295-.056.363-.134.41-.43a2.183,2.183,0,0,0-.553-1.764,2.127,2.127,0,0,0-1.015-.612,3.305,3.305,0,0,0-.342-.1.272.272,0,0,1-.237-.233c-.07-.418-.145-.835-.208-1.254a11.783,11.783,0,0,1-.041-2.116,11.752,11.752,0,0,1,.315-2.495,5.008,5.008,0,0,1,.434-1.115c.007-.013.028-.018.06-.038a.45.45,0,0,1,.051.125,5.857,5.857,0,0,0,.412,1.7c.492,1.27,1.053,2.51,1.632,3.743a35.916,35.916,0,0,0,1.788,3.3c.162.268.361.514.542.772a1.092,1.092,0,0,0,.844.463c.575.046,1.151.094,1.728.1.422,0,.845-.069,1.268-.084a4.3,4.3,0,0,0,1.144-.235c.1-.03.2-.025.3-.057a.69.69,0,0,0,.458-.816,2.584,2.584,0,0,0-.607-1.382,1.593,1.593,0,0,0-1.1-.573,2.12,2.12,0,0,1-1.446-.862,8.349,8.349,0,0,1-1.05-1.564,6.382,6.382,0,0,1-.707-2.116,4.709,4.709,0,0,1,.023-1.217,2.469,2.469,0,0,1,.565-1.186c.291-.376.611-.729.925-1.087.4-.46.812-.915,1.221-1.37.21-.234.437-.454.637-.7.481-.583,1.024-1.112,1.483-1.716.39-.514.826-.993,1.222-1.5.344-.443.661-.907.989-1.362.059-.082.113-.168.166-.248a3.855,3.855,0,0,1,1.1.057c2.511.377,4.99,1.214,7.5,1.678a54.772,54.772,0,0,0,10.493,1.26c.372-.005.744-.054,1.115-.089.346-.033.691-.073,1.037-.11l.568-.063a1.218,1.218,0,0,1,.211.646c.071.383.121.77.182,1.155q.167,1.042.338,2.083.158.967.319,1.932c.08.485.168.969.239,1.455a8.369,8.369,0,0,0,1.329,3.71c.309.509.587,1.037.918,1.532a9.276,9.276,0,0,0,1.264,1.723,1.686,1.686,0,0,0,.949.453,11.3,11.3,0,0,0,1.319.1c.389.008.777.061,1.166.091.254.02.508.043.762.052.62.022,1.241.059,1.861.045a8.259,8.259,0,0,0,1.183-.154.341.341,0,0,0,.2-.173A1.439,1.439,0,0,0,67.5,48.7a1.787,1.787,0,0,0-1.019-1.35,3.11,3.11,0,0,0-.511-.23,1.3,1.3,0,0,1-.659-.5c-2.221-3.17-1.63-8.1-.764-11.64,1.158-4.734,3.732-8.967,5.064-13.644.163-.572.326-1.145.456-1.725.189-.845.353-1.7.517-2.545a7.134,7.134,0,0,1,.746-2.887,4.968,4.968,0,0,1,1.089-.915,5.165,5.165,0,0,1,1.3-.73,7.044,7.044,0,0,1,.957-.256,13.246,13.246,0,0,1,2.493-.1c.62-.019,1.243-.011,1.86-.061a8.912,8.912,0,0,0,1.609-.236,2.509,2.509,0,0,0,1.265-.777c.168-.2.234-.433.381-.638a2.738,2.738,0,0,1,.572-.507,4.064,4.064,0,0,0,1.452-2.107.8.8,0,0,0-.295-.9,6.24,6.24,0,0,0-1.4-.779c-.619-.261-1.233-.535-1.854-.791-.4-.166-.811-.307-1.215-.467a2.708,2.708,0,0,1-1.206-.951,1.586,1.586,0,0,1-.179-.337A3.637,3.637,0,0,0,76.8,1.879,18.825,18.825,0,0,0,74.974.721,6.676,6.676,0,0,0,73.195.109,7.057,7.057,0,0,0,71.417.018a3.273,3.273,0,0,0-.861.22,9.933,9.933,0,0,0-1.778.832,24.854,24.854,0,0,0-2.66,1.755c-.695.545-1.373,1.112-2.072,1.652-.587.454-1.119.966-1.667,1.462-.44.4-.9.774-1.352,1.164-3.507,3.046-9.181,4.045-13.685,4.69-5.866.84-11.893.192-17.7,1.191-.886.153-1.769.329-2.65.506s-1.761.37-2.641.557c-4.674.994-9.384,1.832-14.125,2.432q-3.422.433-6.861.671c-.709.049-3-.037-3.307.805-.642,1.757,3.854,3.107,4.909,3.422a24.226,24.226,0,0,0,9.335.5c.27-.025.539-.06.808-.087.228-.023.456-.04.684-.065a11.817,11.817,0,0,0,3.053-.653,5.622,5.622,0,0,1,1.244-.3c-.06.125-.1.217-.146.3a8.323,8.323,0,0,0-.808,2.09c-.132.543-.239,1.095-.322,1.648-.066.444-.088.894-.115,1.343s-.053.9-.046,1.35c.006.406.057.811.09,1.217.018.22.033.44.058.659.043.379.1.756.139,1.135s.081.759.116,1.138.066.743.094,1.115a1.79,1.79,0,0,1-.011.28c-.006.067-.029.134-.029.2a10.363,10.363,0,0,1-.228,1.764,4.1,4.1,0,0,1-.841,1.7,11.151,11.151,0,0,1-1.267,1.43c-.242.239-.5.458-.744.7a2.159,2.159,0,0,0-.616,1.23,4.439,4.439,0,0,0,.055,1.29c.072.546.166,1.09.263,1.632.162.91.325,1.821.506,2.727.2,1.016.422,2.028.642,3.04a6.8,6.8,0,0,0,.2.71,1,1,0,0,0,.858.67c.325.055.656.081.985.114.245.024.491.035.736.057a.386.386,0,0,1,.112.049h.92" transform="translate(0 0)" fill="#ecc68b"/>
          <path id="Path_6311" data-name="Path 6311" d="M895.2,68.008a4.992,4.992,0,0,1-.259-1.726.2.2,0,0,1,.066-.17l.2.084a6.242,6.242,0,0,1,1.4.779.8.8,0,0,1,.295.9,3.866,3.866,0,0,1-.476,1.047l-.083-.012a1.385,1.385,0,0,1-1.14-.9" transform="translate(-812.582 -60.028)" fill="#47340e"/>
          <path id="Path_6312" data-name="Path 6312" d="M725.68,2.388a7.814,7.814,0,0,1,.972,3.351,8.667,8.667,0,0,1,0,1.555q-.071.825-.173,1.648c-.048.388-.114.773-.186,1.157a2.076,2.076,0,0,1-.462.982.718.718,0,0,1-1.022.158,2.39,2.39,0,0,1-.489-.443,17.06,17.06,0,0,1-1.352-1.886,7.962,7.962,0,0,0-1.139-1.5,6.237,6.237,0,0,1-1.217-1.629,3.509,3.509,0,0,1-.474-1.9,26.228,26.228,0,0,1,2.5-1.639,9.934,9.934,0,0,1,1.777-.832c.118-.042.239-.083.361-.12a3.619,3.619,0,0,1,.907,1.1" transform="translate(-653.856 -1.166)" fill="#e0a953"/>
          <path id="Path_6313" data-name="Path 6313" d="M671.51,386.668a1.431,1.431,0,0,0-.528-1.48,2.174,2.174,0,0,0-1.084-.48,1.02,1.02,0,0,1-.607-.3,2.74,2.74,0,0,1-.656-.933q-.278-.7-.537-1.4a6.575,6.575,0,0,1-.38-1.686c-.055-.627-.08-1.256-.1-1.885-.03-.936-.01-1.873.05-2.808.024-.382.048-.765.109-1.142.1-.62.225-1.236.353-1.852.065-.316.159-.625.239-.938.03-.118.093-.179.234-.131a.429.429,0,0,1,0,.334c-.162.73-.337,1.458-.475,2.192a17.58,17.58,0,0,0-.234,3.049c-.01.918.054,1.837.081,2.756a6.537,6.537,0,0,0,.195,1.335,14.487,14.487,0,0,0,.7,1.995,2.77,2.77,0,0,0,.592.885.746.746,0,0,0,.462.249,2.554,2.554,0,0,1,1.057.419,1.679,1.679,0,0,1,.826,1.438,2.306,2.306,0,0,1-.218,1.025l-.28-.007c.005-.01.012-.019.016-.029a2.716,2.716,0,0,0,.19-.606" transform="translate(-606.17 -337.419)" fill="#47340e"/>
          <path id="Path_6314" data-name="Path 6314" d="M227.288,357.76c.285-.242.563-.495.863-.718a17.725,17.725,0,0,1,2.9-1.7,26.034,26.034,0,0,0,2.956-1.661c1.338-.882,2.579-1.892,3.847-2.867.364-.279.746-.535,1.125-.793a.956.956,0,0,1,.6-.152c-.049.074-.1.152-.152.228l-.028.04a.894.894,0,0,0-.389.17c-.586.437-1.183.861-1.752,1.319-1.054.85-2.138,1.657-3.267,2.4a36.142,36.142,0,0,1-3.51,1.922,12.2,12.2,0,0,0-3.106,2.121.438.438,0,0,1-.12.063.229.229,0,0,1-.062-.039c-.008-.062-.017-.123-.022-.185l.007-.017a.436.436,0,0,1,.111-.138" transform="translate(-206.265 -317.673)" fill="#47340e"/>
          <path id="Path_6315" data-name="Path 6315" d="M849.4,114.386c-.325-.056-.645-.141-.964-.225-.062-.016-.11-.087-.152-.122.034-.139.106-.167.2-.149a1.008,1.008,0,0,1,.146.044,3.584,3.584,0,0,0,1.251.2c.4-.006.8-.007,1.2-.009a4.6,4.6,0,0,0,1.28-.191c.044-.013.087-.029.131-.043a3.5,3.5,0,0,0-.187.333,9.926,9.926,0,0,1-2.192.2,3.7,3.7,0,0,1-.712-.046" transform="translate(-770.221 -103.404)" fill="#47340e"/>
          <path id="Path_6316" data-name="Path 6316" d="M826.242,50.939a.373.373,0,0,1,.435.122.647.647,0,0,1,.135.24,3.079,3.079,0,0,1,.064.575.39.39,0,0,1-.338.413c-.405.078-.582-.5-.59-.8-.006-.254.08-.486.295-.548" transform="translate(-749.941 -46.231)" fill="#47340e"/>
          <path id="Path_6317" data-name="Path 6317" d="M661.136,79a.816.816,0,0,1-.1-.286c-.046-.319-.083-.64-.116-.961q-.034-.334-.061-.668c.072-.059.144-.118.214-.179l.034-.029A14.41,14.41,0,0,0,661.374,79c-.091.105-.178.1-.238,0" transform="translate(-600.043 -69.803)" fill="#47340e"/>
          <path id="Path_6318" data-name="Path 6318" d="M225.982,533.065c-.02-.073-.014-.152.067-.164a.228.228,0,0,1,.164.074.358.358,0,0,1,.065.163q.122.512.239,1.024-.128.01-.256.012c-.028-.142-.056-.284-.088-.426-.052-.23-.127-.456-.191-.683" transform="translate(-205.178 -483.861)" fill="#47340e"/>
          <path id="Path_6319" data-name="Path 6319" d="M233.828,531.378c.012-.052.033-.125.071-.14s.1.021.151.048c.025.015.038.055.049.087a7.681,7.681,0,0,1,.311,1.165l-.078.017c-.06.012-.12.021-.181.031a7.214,7.214,0,0,0-.289-1.115c-.011-.032-.04-.067-.034-.094" transform="translate(-212.309 -482.348)" fill="#47340e"/>
          <path id="Path_6320" data-name="Path 6320" d="M760.6,153.576a3.257,3.257,0,0,1-.4-.095c-.142-.048-.159-.1-.1-.3l.233.059a2.957,2.957,0,0,0,1.052.13,2.349,2.349,0,0,0-.142.256,2.916,2.916,0,0,1-.647-.053" transform="translate(-690.125 -139.088)" fill="#47340e"/>
          <path id="Path_6321" data-name="Path 6321" d="M322.15,527.728c.156.043.184.171.217.278.1.331.2.666.28,1,.007.028.01.057.016.085l-.016,0c-.079.025-.159.049-.239.072a6.763,6.763,0,0,0-.383-1.331l.124-.11" transform="translate(-292.392 -479.165)" fill="#47340e"/>
          <path id="Path_6322" data-name="Path 6322" d="M313.078,529.528c.194-.079.258.028.308.138a6.6,6.6,0,0,1,.411,1.227c-.088.016-.177.027-.267.035a5.452,5.452,0,0,0-.42-1.229.678.678,0,0,1-.032-.171" transform="translate(-284.268 -480.774)" fill="#47340e"/>
          <path id="Path_6323" data-name="Path 6323" d="M694.346,527.741a.133.133,0,0,1,.219-.006.35.35,0,0,1,.077.129,5.271,5.271,0,0,1,.234,1.115l-.267-.01a3.776,3.776,0,0,0-.268-1.154c-.009-.02,0-.049,0-.074" transform="translate(-630.444 -479.121)" fill="#47340e"/>
          <path id="Path_6324" data-name="Path 6324" d="M686.119,527.929a.465.465,0,0,1,.059.111,4.546,4.546,0,0,1,.286,1.071l-.264-.021a4.386,4.386,0,0,0-.342-1.13c.145-.119.188-.123.26-.03" transform="translate(-622.744 -479.289)" fill="#47340e"/>
          <path id="Path_6325" data-name="Path 6325" d="M718.635,527.081a6.73,6.73,0,0,1,.328,1.2c-.087.014-.174.026-.262.037q-.163-.655-.324-1.31c.155-.086.2-.081.258.078" transform="translate(-652.27 -478.456)" fill="#47340e"/>
          <path id="Path_6326" data-name="Path 6326" d="M725.838,526.635c.15,0,.19.115.236.213a3.494,3.494,0,0,1,.254.932.309.309,0,0,1-.171.131l-.076.013a3.038,3.038,0,0,0-.286-1.055c-.042-.08-.062-.16.044-.234" transform="translate(-658.974 -478.173)" fill="#47340e"/>
          <path id="Path_6327" data-name="Path 6327" d="M217.343,213.252a1.4,1.4,0,0,1-.225.579l-.148.309c-.017.036-.109.287-.139.292l-.144.02c.018-.04.038-.082.061-.13l-.164.027c.18-.376.349-.734.521-1.086.044-.09.23-.166.238-.011" transform="translate(-196.653 -193.547)" fill="#47340e"/>
        </g>
      </g>
      <path id="Path_6510" data-name="Path 6510" d="M379.587,2.652s-4.759,4.489-7.318,5.019c-2.453.508-4.26.29-5.035-.726S361.7,3.7,359.1,3.141c-3.357-.725-8.546.694-12.511,1.788a18.639,18.639,0,0,1-8.681.425s-3.786-.877-6.174-1.167c-1.706-.207-5.47,2.01-8.124,5-1.061,1.195-3.269,1.862-3.659,3.489-.086.357-.5,1.157.766,2.639.329.386.852.387,1.3.808,2.4,2.265,4.18,5.394,9.482,5.342,2.452-.024,3.069-.694,4.624-.874a28.834,28.834,0,0,1,9.191.341c9.3,2.041,11.053,2.863,18.826.1,5.1-1.814,3.579-2.991,8.238-2.544,3.147.3,3.085.989,4.241,2.786.269.418,4.492,3.172,4.562,2.662.129-.944-.753-4.807-.441-5.384,1.528-2.831,2.872-2.171,5.992-3.762.609-.31,2.015-.059,2.345-.339.534-.452.249-2.574-.409-2.709-1.517-.312-5.679-1.491-7.143-3.654-2.259-3.339.132-6.011-1.934-5.43" transform="translate(-9581.353 608.428)" fill="#e0a953"/>
      <g id="Group_2762" data-name="Group 2762" transform="translate(-9283.09 503.449)">
        <g id="Group_2740" data-name="Group 2740" clip-path="url(#clip-path-6)">
          <path id="Path_6328" data-name="Path 6328" d="M21.911,56.15h1.424c.119-.019.238-.039.357-.055.29-.038.582-.069.872-.111a.511.511,0,0,0,.456-.471,1.924,1.924,0,0,0-.037-.79,2.321,2.321,0,0,0-1.294-1.7c-.207-.094-.414-.186-.637-.285-.03-.08-.067-.167-.1-.256A8.02,8.02,0,0,1,22.6,50.3a10.829,10.829,0,0,1,.057-1.162c.015-.227.029-.454.066-.678.084-.5.17-1.009.279-1.509a6.454,6.454,0,0,1,.371-1.273c.059.19.1.333.147.474.369,1.078.824,2.121,1.29,3.16.159.355.318.71.482,1.062.2.421.389.845.6,1.259.2.389.423.764.624,1.151a19.1,19.1,0,0,0,1.351,2.273,5.176,5.176,0,0,0,.609.673.684.684,0,0,0,.3.135,7.822,7.822,0,0,0,1.664.164c.519.019,1.041-.031,1.562-.047a5.769,5.769,0,0,0,1.375-.191c.155-.043.313-.075.47-.106a.827.827,0,0,0,.709-.83,2.529,2.529,0,0,0-.52-1.507,1.916,1.916,0,0,0-1.444-.854,1.912,1.912,0,0,1-.992-.392,4.809,4.809,0,0,1-.8-.845,8.009,8.009,0,0,1-.883-1.357,3.573,3.573,0,0,1-.474-1.214,7.856,7.856,0,0,1-.071-1.1,3.014,3.014,0,0,1,.484-1.558,5.542,5.542,0,0,1,.5-.689c.318-.376.649-.741.981-1.1q.919-1.009,1.846-2.009c.3-.319.618-.618.918-.935.384-.406.759-.821,1.134-1.235a.345.345,0,0,1,.41-.1c.358.126.719.241,1.076.369a20.963,20.963,0,0,0,2.862.852,14.116,14.116,0,0,0,2.07.356c.613.033,1.225.1,1.837.156.442.042.888.073,1.324.151.578.1,1.147.26,1.723.375a12.275,12.275,0,0,0,1.539.26,10.171,10.171,0,0,0,2.715-.188,6.152,6.152,0,0,1,.818-.085c.435-.027.871-.038,1.305-.064.255-.015.509-.045.763-.066.405-.034.81-.069,1.216-.1.33-.023.664-.019.991-.061a12.107,12.107,0,0,0,2.11-.456c.461-.146.926-.281,1.387-.428.479-.153.955-.316,1.432-.473.114-.038.229-.074.372-.12.03.14.06.248.076.357.036.253.063.507.1.76.06.422.13.842.185,1.265.085.657.156,1.315.243,1.972q.127.957.275,1.911a7.057,7.057,0,0,0,.771,2.456c.206.363.4.734.607,1.1.355.616.7,1.239,1.083,1.838a29.215,29.215,0,0,0,1.889,2.6,1.243,1.243,0,0,0,.684.475,5.173,5.173,0,0,0,.639.136q.874.1,1.75.169c.6.048,1.208.088,1.813.113.739.031,1.478.063,2.217.054a11.659,11.659,0,0,0,1.238-.146.432.432,0,0,0,.378-.335,1.816,1.816,0,0,0-.24-1.681,2.494,2.494,0,0,0-1.274-.912,1.754,1.754,0,0,1-.851-.633,4.626,4.626,0,0,1-.732-1.53,13.822,13.822,0,0,1-.44-1.969,17.257,17.257,0,0,1-.245-2.6c0-.085-.01-.17-.012-.256-.013-.578-.051-1.156-.03-1.733s.084-1.151.16-1.723a13,13,0,0,1,.311-1.818c.27-.957.6-1.9.934-2.837a25.482,25.482,0,0,1,1.191-2.831c.168-.34.32-.688.473-1.035.275-.625.552-1.25.816-1.879.319-.761.652-1.518.93-2.293.352-.981.671-1.976.974-2.974.248-.817.46-1.644.671-2.472.168-.661.3-1.331.463-1.994.228-.931.454-1.862.709-2.786a17.942,17.942,0,0,1,.794-2.433,4.672,4.672,0,0,1,1.4-1.934,5.146,5.146,0,0,1,1.405-.849,5.024,5.024,0,0,1,1.512-.378q1.863-.045,3.726-.059a8.7,8.7,0,0,0,2.216-.309,2.144,2.144,0,0,0,.447-.179A2.729,2.729,0,0,0,91.705,11.7a.513.513,0,0,1,.177-.242,4.546,4.546,0,0,0,1.1-.945,4.027,4.027,0,0,0,.964-1.689.894.894,0,0,0-.385-1.114A6.684,6.684,0,0,0,92.1,6.9c-.42-.175-.836-.36-1.256-.536-.376-.158-.754-.311-1.132-.465-.456-.187-.923-.351-1.367-.564a2.568,2.568,0,0,1-1.283-1.353,8.825,8.825,0,0,0-.507-.952,2.1,2.1,0,0,0-.642-.676c-.627-.426-1.248-.863-1.894-1.259A6.619,6.619,0,0,0,78.6.27a16.261,16.261,0,0,0-3.372,1.8c-.6.378-1.176.8-1.743,1.228-.635.48-1.248.988-1.869,1.486-.34.273-.68.545-1.014.825-.45.377-.879.781-1.345,1.137-.542.414-1.112.791-1.672,1.181a20.361,20.361,0,0,1-2.343,1.345A24.279,24.279,0,0,1,62.5,10.46c-.49.18-.971.388-1.469.539-1.025.311-2.055.606-3.1.845s-2.117.429-3.183.605c-.5.083-1.013.134-1.521.193q-.93.11-1.861.21c-.423.046-.847.085-1.27.133s-.825.11-1.24.147q-1.1.1-2.207.171c-.746.048-1.493.081-2.24.12l-.142.01c-.443.034-.886.07-1.329.1-.113.008-.228,0-.341.008-.548.034-1.095.072-1.643.107-.066,0-.133,0-.2.008l-1.643.1c-.283.018-.567.032-.85.053-.217.016-.433.042-.65.061-.518.044-1.038.081-1.556.129s-1.016.1-1.524.156c-.4.042-.814.061-1.213.133a19.8,19.8,0,0,0-1.945.418c-1.014.292-2.054.456-3.078.694-1.256.292-2.519.549-3.779.821-.241.052-.481.109-.724.149-1.225.2-2.447.431-3.649.741a60.231,60.231,0,0,1-8.995,1.26l-9.629.972c-.571.058-1.876.334-1.436,1.2a6.717,6.717,0,0,0,3.059,2.434A15.135,15.135,0,0,0,7,24.293a28.661,28.661,0,0,0,7.274.317A35.636,35.636,0,0,0,22.1,23.236a1.313,1.313,0,0,1,.256-.019,1.306,1.306,0,0,1-.057.132,10.144,10.144,0,0,0-1.191,3.362c-.093.493-.145,1-.263,1.482a7.642,7.642,0,0,0-.177,1.691c-.014.833.027,1.668.049,2.5,0,.179.03.358.043.537.024.34.045.68.07,1.02.012.17.029.339.043.508.023.273.06.547.066.82.011.531.007,1.063.006,1.595a7.218,7.218,0,0,1-1.272,4.068,9.47,9.47,0,0,1-1.48,1.758,6.986,6.986,0,0,0-.823.941,1.847,1.847,0,0,0-.285,1.109c0,.179.025.358.042.537.028.3.042.6.089.9.113.711.24,1.419.364,2.128.142.812.278,1.625.435,2.434.154.791.332,1.577.5,2.365.127.593.247,1.188.39,1.777a1.233,1.233,0,0,0,1.127,1.042c.545.059,1.091.112,1.636.171a2.249,2.249,0,0,1,.244.053" transform="translate(0 0)" fill="#ecc68b"/>
          <path id="Path_6329" data-name="Path 6329" d="M892.825,68.079a5.561,5.561,0,0,1-.288-1.923c0-.165.082-.236.248-.248.113.046.221.093.33.138a6.684,6.684,0,0,1,1.461.816.894.894,0,0,1,.385,1.114,3.794,3.794,0,0,1-.537,1.152c-.11-.012-.22-.028-.328-.048a1.543,1.543,0,0,1-1.27-1" transform="translate(-801.018 -59.15)" fill="#47340e"/>
          <path id="Path_6330" data-name="Path 6330" d="M723.919,3.205A8.7,8.7,0,0,1,725,6.94a9.643,9.643,0,0,1,0,1.732q-.079.92-.193,1.836c-.054.432-.127.862-.208,1.29a2.315,2.315,0,0,1-.515,1.094.8.8,0,0,1-1.139.176,2.662,2.662,0,0,1-.545-.494,19.021,19.021,0,0,1-1.507-2.1A8.871,8.871,0,0,0,719.622,8.8a6.95,6.95,0,0,1-1.356-1.815,4.056,4.056,0,0,1-.537-1.962c.532-.4,1.072-.793,1.634-1.147a16.258,16.258,0,0,1,3.372-1.8c.071-.024.143-.043.214-.063a4.083,4.083,0,0,1,.969,1.193" transform="translate(-644.134 -1.806)" fill="#e0a953"/>
          <path id="Path_6331" data-name="Path 6331" d="M669.558,388.752a1.6,1.6,0,0,0-.591-1.647,2.428,2.428,0,0,0-1.208-.534,1.128,1.128,0,0,1-.676-.332,3.061,3.061,0,0,1-.73-1.04q-.31-.778-.6-1.565a7.359,7.359,0,0,1-.422-1.879c-.061-.689-.088-1.381-.111-2.072-.035-1.053-.012-2.106.055-3.157.027-.425.054-.853.122-1.272.11-.681.247-1.359.388-2.035.075-.361.181-.715.272-1.073.034-.133.107-.2.261-.141a.5.5,0,0,1-.015.4,21.975,21.975,0,0,0-.785,5.927c0,.985.064,1.971.094,2.957a7.307,7.307,0,0,0,.218,1.487,16.042,16.042,0,0,0,.78,2.223,3.074,3.074,0,0,0,.661.985.833.833,0,0,0,.516.276,2.837,2.837,0,0,1,1.178.468,1.872,1.872,0,0,1,.917,1.576,2.566,2.566,0,0,1-.238,1.161l-.312-.008c0-.01.011-.019.016-.029a3.006,3.006,0,0,0,.211-.676" transform="translate(-596.997 -333.841)" fill="#47340e"/>
          <path id="Path_6332" data-name="Path 6332" d="M229.888,389.425c.689-.471,1.379-.938,2.063-1.416.816-.57,1.616-1.164,2.442-1.719a7.4,7.4,0,0,1,1.244-.677,5.63,5.63,0,0,1,3.044-.313,8.061,8.061,0,0,1,1.5.374.394.394,0,0,0-.142.1l-.119.13c-.107-.034-.216-.066-.326-.093a8.969,8.969,0,0,0-1.936-.278,5.085,5.085,0,0,0-2.988.942c-1.414.954-2.8,1.945-4.206,2.917a8.067,8.067,0,0,0-1.508,1.293,2.1,2.1,0,0,0-.313.471,3.927,3.927,0,0,0-.293.815c-.011-.032-.024-.063-.035-.095-.042-.123-.079-.25-.126-.406a2.648,2.648,0,0,1,.558-1.017,6.765,6.765,0,0,1,1.139-1.027" transform="translate(-204.793 -345.724)" fill="#47340e"/>
          <path id="Path_6333" data-name="Path 6333" d="M848.684,113.977a7.234,7.234,0,0,1-1.867-.081,4.46,4.46,0,0,1-.706-.207.147.147,0,0,1-.115-.2c.034-.1.122-.112.213-.092a1.7,1.7,0,0,1,.19.059,3.821,3.821,0,0,0,1.31.216q.7-.006,1.391-.009a5.1,5.1,0,0,0,1.4-.208c.165-.048.328-.1.49-.162-.016.029-.03.058-.042.085a2.9,2.9,0,0,1-.152.3,4.649,4.649,0,0,1-1.033.223c-.358.033-.719.033-1.076.073" transform="translate(-759.24 -101.68)" fill="#47340e"/>
          <path id="Path_6334" data-name="Path 6334" d="M824.822,51.125a.734.734,0,0,1,.3.282,1.233,1.233,0,0,1,.128.768.443.443,0,0,1-.36.447.421.421,0,0,1-.481-.26,2.035,2.035,0,0,1-.119-.618c-.018-.408.087-.809.534-.619" transform="translate(-739.766 -45.839)" fill="#47340e"/>
          <path id="Path_6335" data-name="Path 6335" d="M752.448,153.923a1.363,1.363,0,0,1-.256-.115c.116-.254.283-.183.421-.164a5.324,5.324,0,0,0,1.61.046,6.067,6.067,0,0,0,1.142-.255c-.084.123-.161.251-.235.381a6,6,0,0,1-1.241.206,5.3,5.3,0,0,1-1.442-.1" transform="translate(-675.064 -137.703)" fill="#47340e"/>
          <path id="Path_6336" data-name="Path 6336" d="M658.914,78.5c-.148.1-.195.107-.26-.012a.888.888,0,0,1-.1-.292q-.077-.534-.131-1.071c-.032-.309-.061-.62-.081-.93.027-.019.056-.035.083-.054l.193-.133c.023.478.076.953.141,1.427.049.355.106.709.16,1.066" transform="translate(-590.834 -68.214)" fill="#47340e"/>
          <path id="Path_6337" data-name="Path 6337" d="M223.581,533.37c.022-.048.04-.115.078-.132a.158.158,0,0,1,.148.031.594.594,0,0,1,.109.226c.095.392.185.786.274,1.179l-.2.031h-.077a8.833,8.833,0,0,0-.321-1.28c-.006-.018-.017-.041-.011-.054" transform="translate(-200.654 -478.554)" fill="#47340e"/>
          <path id="Path_6338" data-name="Path 6338" d="M231.281,531.626c.163-.145.231-.146.3.023a5.378,5.378,0,0,1,.236.755c.046.207.087.415.124.624l-.3.039c-.072-.34-.143-.681-.22-1.02-.033-.145-.089-.285-.133-.421" transform="translate(-207.566 -477.019)" fill="#47340e"/>
          <path id="Path_6339" data-name="Path 6339" d="M319.913,528.334c-.037-.12-.037-.2.1-.259a.409.409,0,0,1,.233.319c.112.37.217.742.31,1.117.015.059.024.119.035.178-.039.009-.078.018-.116.029-.055.015-.111.026-.167.04,0-.021-.007-.043-.012-.064q-.178-.684-.385-1.36" transform="translate(-287.091 -473.928)" fill="#47340e"/>
          <path id="Path_6340" data-name="Path 6340" d="M310.766,529.886c.225-.077.289.061.346.189a7.416,7.416,0,0,1,.456,1.389c-.1.013-.2.023-.3.031a6.179,6.179,0,0,0-.477-1.412.635.635,0,0,1-.027-.2" transform="translate(-278.901 -475.533)" fill="#47340e"/>
          <path id="Path_6341" data-name="Path 6341" d="M691.877,528.292c.2-.056.231-.056.291.04a.893.893,0,0,1,.1.233,8.033,8.033,0,0,1,.214,1.11l-.24-.01-.072,0c-.034-.245-.069-.49-.114-.733-.039-.209-.115-.411-.18-.636" transform="translate(-620.934 -474.088)" fill="#47340e"/>
          <path id="Path_6342" data-name="Path 6342" d="M683.586,528c.2.135.214.144.3.444a7.213,7.213,0,0,1,.239.963l-.307-.016a4.36,4.36,0,0,0-.377-1.254l.144-.137" transform="translate(-613.364 -473.863)" fill="#47340e"/>
          <path id="Path_6343" data-name="Path 6343" d="M716.1,526.945a.906.906,0,0,1,.141.22c.116.443.226.888.335,1.334-.089.012-.178.022-.267.03-.125-.49-.248-.982-.375-1.487l.167-.1" transform="translate(-642.521 -472.913)" fill="#47340e"/>
          <path id="Path_6344" data-name="Path 6344" d="M723.446,526.983c.163.02.2.144.255.253a4.292,4.292,0,0,1,.294,1.12c0,.019.005.038.008.057a.461.461,0,0,1-.065.017c-.077.009-.154.021-.231.032a3.436,3.436,0,0,0-.33-1.232.159.159,0,0,1,.069-.249" transform="translate(-649.174 -472.947)" fill="#47340e"/>
          <path id="Path_6345" data-name="Path 6345" d="M177.323,470.269c-.149-.4-.3-.8-.438-1.2a1.187,1.187,0,0,1-.029-.284c.154-.055.211.008.249.108.164.433.331.865.493,1.3.033.088.06.185-.043.259-.154.038-.194-.079-.233-.185" transform="translate(-158.723 -420.7)" fill="#47340e"/>
          <path id="Path_6346" data-name="Path 6346" d="M214.773,213.688a10.1,10.1,0,0,1-.558,1.277.75.75,0,0,0-.187.017l-.171.047c.208-.432.4-.837.6-1.241.049-.1.106-.182.318-.1" transform="translate(-191.928 -191.747)" fill="#47340e"/>
        </g>
      </g>
      <path id="Path_6511" data-name="Path 6511" d="M485.609,1.376s-4.207,4.385-6.766,4.915c-2.453.508-3.894.766-5.3-.128-1.078-.686-5.507-3.842-8.106-4.4-.57-.123-9-2.234-12.958-1.66a43.638,43.638,0,0,0-8.234,1.66c-1.47.453-4.824,1.758-7.212,1.468-1.706-.207-5.964,2.055-8.617,5.043-1.062,1.195-2.1,1.564-2.49,3.191-.085.357.078,1.2,1.341,2.681a14.57,14.57,0,0,0,1.3,1.979c2.4,1.915,5.528,5.158,10.83,5.106a14.89,14.89,0,0,1,4.6.383c2.106.511,3.4-.064,6.894.7,9.3,2.042,11.759.021,19.532-2.745,5.1-1.814,3.574-3.191,8.234-2.744,3.146.3,3.694,1.267,4.851,3.064.269.418,3.249,2.68,3.319,2.17.129-.944-.5-3.955-.192-4.532,1.528-2.831,2.178-1.792,5.3-3.383.609-.311,2.479-.487,2.809-.766.534-.452.977-2.482.319-2.617-1.517-.311-6.132-1.539-7.6-3.7-2.259-3.339.215-6.262-1.851-5.681" transform="translate(-9684.476 474.305)" fill="#e0a953"/>
      <path id="Path_6255" data-name="Path 6255" d="M0-29.342,657-76.464V136.963L0,78.285Z" transform="translate(-9436.223 1110) rotate(-90)" fill="url(#linear-gradient)"/>
    </g>
  </g>
</svg>
