<svg xmlns="http://www.w3.org/2000/svg" width="68.602" height="45.085" viewBox="0 0 68.602 45.085">
  <g id="Group_13231" data-name="Group 13231" transform="translate(-133.355 -555.05)">
    <path id="Path_11050" data-name="Path 11050" d="M133.355,650.7s50.747-3.647,67.163,9.261C200.518,662.539,160.354,685.214,133.355,650.7Z" transform="translate(0 -69.607)" fill="#92993a"/>
    <g id="Group_13224" data-name="Group 13224" transform="translate(135.436 555.05)">
      <path id="Path_11051" data-name="Path 11051" d="M163.8,569.393s-2.057-.312-2.178-3.625,1.654-4.927,0-5.048-5.738,4.713-5.511,8.891,2.97,5.657,2.97,5.657Z" transform="translate(-152.073 -559.195)" fill="#bd6540"/>
      <path id="Path_11052" data-name="Path 11052" d="M274.863,683.684a4.476,4.476,0,0,1,2.985.968c1.587,1.156,4.841,2.447,5.755.538s-1.511-5.635-1.511-5.635l1.592.714s2.205,5.3,4.222,3.415a3.09,3.09,0,0,0,.672-3.953s-18.014-4.246-18.647-1.854S274.863,683.684,274.863,683.684Z" transform="translate(-235.288 -644.35)" fill="#f2c89b"/>
      <path id="Path_11053" data-name="Path 11053" d="M271.255,669.534s-10.7-.23-14.758-3.377-.968-3.415-.968-3.415Z" transform="translate(-223.968 -633.815)" fill="#bd6540"/>
      <path id="Path_11054" data-name="Path 11054" d="M281.049,583.592s7.73,5.245,7.9,6.138a54.731,54.731,0,0,1-.665,6.513s-1.56,9.224-14.118,8.31-19.873-7.315-19.873-7.315l1.775-8.874s10.394-13.661,12.753-14.9S279.3,582.746,281.049,583.592Z" transform="translate(-223.888 -568.445)" fill="#f2c89b"/>
      <path id="Path_11055" data-name="Path 11055" d="M257.951,641.673s2.953,8.829,11.1,10.768c-3.344-.2-14.374-2.553-18.479-6.814s.306-6.654.306-6.654Z" transform="translate(-219.883 -616.43)" fill="#f2c89b"/>
      <path id="Path_11056" data-name="Path 11056" d="M313.711,572.324a2.032,2.032,0,0,1,1.237,0c.578.226,2.38,1.019,2.393.32s-2.232-2.326-3.631-4.639a4.95,4.95,0,0,0-5.68-2.582,5.676,5.676,0,0,0-3.383,2.178Z" transform="translate(-260.718 -562.528)" fill="#bd6540"/>
      <path id="Path_11057" data-name="Path 11057" d="M319.885,576.384s.34-.661-1.461-2.382a21.113,21.113,0,0,0-5.457-3.177S313.844,573.845,319.885,576.384Z" transform="translate(-266.801 -566.588)" fill="#914e31"/>
      <path id="Path_11058" data-name="Path 11058" d="M268.732,598.1a8.608,8.608,0,0,0,12.021-8.4c-.242-3.59-5.889-10.217-6.737-10.373s-9.963,8.961-9.963,8.961Z" transform="translate(-231.027 -572.799)" fill="#bd6540"/>
      <path id="Path_11059" data-name="Path 11059" d="M309.35,571.9s4.421,8.474,8.342,9.83c2.415.469,3.356,0,3.356,0a22.152,22.152,0,0,1-4.342-5.877c-.955-1.936-6.172-4.76-7.221-5S309.35,571.9,309.35,571.9Z" transform="translate(-263.887 -566.588)" fill="#bd6540"/>
      <path id="Path_11060" data-name="Path 11060" d="M307,610.112s-.1,4.78,1.573,4.377,1.23-3.509.686-4.861S307.059,608.62,307,610.112Z" transform="translate(-262.436 -594.349)"/>
      <path id="Path_11061" data-name="Path 11061" d="M333.441,593.069s-1.371-1.856-1.734-.827.524,3.852,1.734,3.913S334.389,594.46,333.441,593.069Z" transform="translate(-280.448 -582.025)"/>
      <circle id="Ellipse_545" data-name="Ellipse 545" cx="0.478" cy="0.478" r="0.478" transform="translate(46.358 14.775)" fill="#fff"/>
      <circle id="Ellipse_546" data-name="Ellipse 546" cx="0.478" cy="0.478" r="0.478" transform="translate(51.864 9.907)" fill="#fff"/>
      <path id="Path_11062" data-name="Path 11062" d="M304.371,586.3s-.968,3.146-.4,3.711,2.138-1.492,2.279-2.945A1.023,1.023,0,0,0,304.371,586.3Z" transform="translate(-260.091 -577.54)" fill="#633522"/>
      <path id="Path_11063" data-name="Path 11063" d="M321.294,581.328c-.187.076-2.5.363-2.783-.585s.014-1.553.934-1.392S322.04,581.025,321.294,581.328Z" transform="translate(-270.781 -572.805)" fill="#633522"/>
      <path id="Path_11064" data-name="Path 11064" d="M261.38,614.887s4.007,7.826,1.667,12.021c-.349.565-5.647-2.172-6.481-5.106S261.38,614.887,261.38,614.887Z" transform="translate(-225.49 -598.814)" fill="#bd6540"/>
      <path id="Path_11065" data-name="Path 11065" d="M274.734,612.735s2.344,5.062,2.212,8.8c.836-2.474-1.235-8.632-2.041-9.762S274.734,612.735,274.734,612.735Z" transform="translate(-238.664 -596.292)" fill="#914e31"/>
      <g id="Group_13223" data-name="Group 13223" transform="translate(0)">
        <path id="Path_11066" data-name="Path 11066" d="M189.522,557.7s-16.35,16.834-16.834,21.782-1.183,5.862,3.388,9.143,6.454,5.217,5.378,6.508a3.954,3.954,0,0,1-2.259,1.452s3.819,1.829,2.636,3.066-12.747-.269-18.986-.591-19.738.323-21.459-.807,4.894-9.9,4.894-9.9-3.872-2.205-3.819-3.926,1.076-10.38,2.851-11.94a29.368,29.368,0,0,0,4.787-5.539c1.667-2.367,2.474-4.679,3.819-4.572a3.235,3.235,0,0,1,1.775.484c.377.161,5.271-.592,6.669.323,1.452-.753.215-3.334,4.2-4.464s11.133,0,11.133,0,4.733-3.98,8.067-3.657S190.339,556.853,189.522,557.7Z" transform="translate(-141.101 -555.05)" fill="#437ab0"/>
        <g id="Group_13222" data-name="Group 13222" transform="translate(18.715)">
          <path id="Path_11067" data-name="Path 11067" d="M218.8,567.1c-3.43,4.018-9.476,12.131-7.716,17.647,2.42,7.583,10.568-9.278,12.747-12.827a10.97,10.97,0,0,1,4.814-4.545A39.159,39.159,0,0,0,218.8,567.1Z" transform="translate(-210.773 -563.695)" fill="#5398d9"/>
          <path id="Path_11068" data-name="Path 11068" d="M257.873,557.7c.816-.852-.43-2.313-3.765-2.636s-8.067,3.657-8.067,3.657-12.962,16.485-11.348,24.713,8.793,5.567,10.326,7.906c1.177,1.8.985,4.488,3.2,5.024a4.432,4.432,0,0,0,1.586-1.232c1.076-1.291-.807-3.227-5.378-6.508s-3.873-4.2-3.389-9.143S257.873,557.7,257.873,557.7Z" transform="translate(-228.166 -555.05)" fill="#5398d9"/>
        </g>
        <path id="Path_11069" data-name="Path 11069" d="M169.648,597.076s-2.582,5.464-1.882,10.53,3.711,3.292,4.141,5.659-1.973,5.755-1.094,7.207,12.873,2.689,11.313,5.217-23.181,1.667-23.342-1.452,4.195-5.755,3.819-7.583-6.777-2.1-6.454-6.185,4.679-8.229,6.239-11.456S170.329,595.367,169.648,597.076Z" transform="translate(-152.098 -585.064)" fill="#5398d9"/>
        <path id="Path_11070" data-name="Path 11070" d="M232.528,599.77s-6.316,9.272-5.836,17.372,8.224,6.292,9.568,7.906a4.127,4.127,0,0,1,.914,3.388s-1.183-3.281-3.55-3.281-8.767-.592-8.767-5.862S228.258,602.728,232.528,599.77Z" transform="translate(-202.361 -587.758)" fill="#396896"/>
        <path id="Path_11071" data-name="Path 11071" d="M204.191,596.081c.219-.159-5.089,7.927-2.867,11.208a5.6,5.6,0,0,0,5.987,2.205s-4.32,2.7-6.57-1.449S202.362,597.4,204.191,596.081Z" transform="translate(-184.22 -585.058)" fill="#396896"/>
      </g>
      <path id="Path_11072" data-name="Path 11072" d="M359.407,627.333s-1.183.323-.968,2.259,3.442,7.1,5.083,6.669,2.931-3.308,3.039-5.647S361.182,626.5,359.407,627.333Z" transform="translate(-300.041 -607.764)" fill="#383838"/>
      <path id="Path_11073" data-name="Path 11073" d="M374.983,630.861s3.133.968,3.281,2.353-1.345,4.141-2.084,3.98.417-2.851.605-3.671S373.665,630.524,374.983,630.861Z" transform="translate(-311.932 -610.472)" fill="gray"/>
    </g>
  </g>
</svg>
