<svg xmlns="http://www.w3.org/2000/svg" width="65.5" height="51.478" viewBox="0 0 65.5 51.478">
  <g id="Group_13229" data-name="Group 13229" transform="translate(-760.074 -506.478)">
    <path id="Path_11098" data-name="Path 11098" d="M853.763,714.478s-40.936,2.8-54.218-1.26C815.868,709.437,853.763,714.478,853.763,714.478Z" transform="translate(-30.269 -157.463)" fill="#92993a"/>
    <g id="Group_13228" data-name="Group 13228" transform="translate(760.074 506.478)">
      <path id="Path_11099" data-name="Path 11099" d="M791.53,582.851a16.015,16.015,0,0,0,1.978.683c.228-.017.543-.438.543-.438s.858.35,1.033.175a3.466,3.466,0,0,0,.385-.525s.753-.017.928-.193a2.193,2.193,0,0,0,.263-.84s4.621-2.56,5.182-2.155,1.637,5.041,1.453,6.549-3.308,1.576-3.308,1.576-.385-.368-.49-.245a2.209,2.209,0,0,0-.14.718s-1.1-.122-1.208.088a1.813,1.813,0,0,0-.123.578s-1.033-.088-1.173.122a3.372,3.372,0,0,0-.263.805s6.634-1.05,7.317-3.063-.105-8.315-1.558-8.35S791.53,582.851,791.53,582.851Z" transform="translate(-784.197 -561.582)" fill="#f0e6e6"/>
      <path id="Path_11100" data-name="Path 11100" d="M1003.629,646.362s5.462,1.727,5.7,3.081-1.12,2.381-2.848,2.194-4.808-2.007-4.808-2.007Z" transform="translate(-945.345 -613.75)" fill="#f2c89b"/>
      <path id="Path_11101" data-name="Path 11101" d="M849.146,649.7a7.922,7.922,0,0,1-2.8,2.311c-1.33.42-6.092,1.926-5.882,3.046s1.47,2.135,3.781,1.961,6.687-3.816,9.1-3.431S851.107,648.932,849.146,649.7Z" transform="translate(-821.717 -616.25)" fill="#f2c89b"/>
      <path id="Path_11102" data-name="Path 11102" d="M768.7,541.855s.98,2.734,4.972,3.4,10.363-2.958,10.363-2.958.923,4.67-.687,6.676-6.31,2.89-5.47,4.4c2.306-.283,5.643-1.456,8.257-.9.654.443,7.846,4.455,9.663,6.115a4.024,4.024,0,0,1,1.051,4.332c-.28.78-7.492,4.771-7.142,6.381s3.081,1.92,5.461,1.52,6.862-6,8.052-6.386,12.183,3.186,18,0c3.011-.385,7,4.8,9.173,3.606a2.645,2.645,0,0,0,.98-4.061c-.63-.98-5.532-5.112-5.532-5.112a9.818,9.818,0,0,0,.49-9.383c.49.07,5.882-1.68,5.608-5.672-.776-1.82-2.457,2.941-7.428,2.031s-7.842-.56-9.873.14-7.982,0-12.393-2.731a14.038,14.038,0,0,1-5.672-7.743s-2.031-5.257-6.652-6.191-9.243,2.649-10.223,3.583-6.636,2.443-8.456,2.257S768.7,541.855,768.7,541.855Z" transform="translate(-766.692 -523.879)" fill="#f2c89b"/>
      <path id="Path_11103" data-name="Path 11103" d="M764.992,554.59s.665,6.343-2.906,6.341c-2.521-2.5-2.276-6.37-1.4-6.615S764.817,553.747,764.992,554.59Z" transform="translate(-760.074 -542.955)" fill="#383838"/>
      <path id="Path_11104" data-name="Path 11104" d="M817.5,524.283s-3.772,3.884-3.492,5.8,7.749,5.508,11.9,4.808a8.3,8.3,0,0,0,5.825-4.59s-.506-2.458-1.017-2.879c.327,0,5.835-.373,6.535-2.474-.747-.663-1.867-.14-3.268-1.12s-4.761-3.361-6.629-3.081a3.911,3.911,0,0,0-2.707,2.1S820.151,521.892,817.5,524.283Z" transform="translate(-801.422 -517.401)" fill="#bd6540"/>
      <path id="Path_11105" data-name="Path 11105" d="M837.461,511.922s-.56-1.352.21-2.123,4.855-2.638,4.832-3.035-4.691-.49-7.235.443-2.941,2.591-1.447,3.338a8.221,8.221,0,0,1,2.241,1.564Z" transform="translate(-815.96 -506.478)" fill="#bd6540"/>
      <path id="Path_11106" data-name="Path 11106" d="M868.951,542.465s-3.738.607-5.1-2.124C863.653,542.9,867.492,543.294,868.951,542.465Z" transform="translate(-839.654 -532.446)" fill="#914e31"/>
      <path id="Path_11107" data-name="Path 11107" d="M832.247,557.264a3.194,3.194,0,0,1,3.029,1.038.832.832,0,0,0,.2-.763,2.834,2.834,0,0,0-3.22-.834C832.019,556.773,832.1,557.288,832.247,557.264Z" transform="translate(-815.313 -544.831)"/>
      <path id="Path_11108" data-name="Path 11108" d="M837.921,539.878s-1.68-1.1-2.223-.368.718,1.253,1.523,1.257S838.569,540.4,837.921,539.878Z" transform="translate(-817.967 -531.615)" fill="#633522"/>
      <path id="Path_11109" data-name="Path 11109" d="M821.392,537.618s-.2-.411.346-.761.858-.1.543.263A1.888,1.888,0,0,1,821.392,537.618Z" transform="translate(-807.07 -529.644)" fill="#633522"/>
      <path id="Path_11110" data-name="Path 11110" d="M873.356,600.636s3.247,1.023,5.814-2.758,2.66-10.919,2.357-11.435,2.067.49,2.516,1.5-.112,10-2.726,12.815a5.551,5.551,0,0,1-6.208,1.644C874.5,602.126,872.91,600.873,873.356,600.636Z" transform="translate(-846.886 -567.694)" fill="#8a2f2f"/>
      <path id="Path_11111" data-name="Path 11111" d="M1016.29,592.389s2.032,1.176,1.424,3.1c1.866-.664,4.994-2.881,4.223-5.448-.3-.537-.922-.2-1.143,0A10.493,10.493,0,0,1,1016.29,592.389Z" transform="translate(-956.557 -570.34)" fill="#bd6540"/>
      <path id="Path_11112" data-name="Path 11112" d="M983.842,609.856s2.241-.681,3.221.943.373,4.378-1.61,4.191S981.975,610.462,983.842,609.856Z" transform="translate(-931.019 -585.646)" fill="#bd6540"/>
      <path id="Path_11113" data-name="Path 11113" d="M925.342,611.017s-2.054,6.488-.233,8.356,9.989,1.914,11.016-.793.327-6.656-.747-7.226S925.949,609.8,925.342,611.017Z" transform="translate(-886.056 -586.201)" fill="#bd6540"/>
      <path id="Path_11114" data-name="Path 11114" d="M829.88,585.472a2.661,2.661,0,0,0,1.891,2.572c2.031.77,6.617-.875,7.317,1.365s-2,3.9-5.672,3.843-5.181-1.217-4.9-2.547.924-1.19.812-1.96S828.094,586.611,829.88,585.472Z" transform="translate(-812.533 -567.056)" fill="#d94949"/>
      <path id="Path_11115" data-name="Path 11115" d="M833.378,602.162a6.362,6.362,0,0,0,5.158.875c2.731-.864,1.284.871-.677,1.054S833.762,603.112,833.378,602.162Z" transform="translate(-816.288 -579.855)" fill="#b83e3e"/>
      <path id="Path_11116" data-name="Path 11116" d="M851.422,599.079s1.61-.233,2.019.374.093,1.33.782,1.249.933-1.622-.012-2.135a5.089,5.089,0,0,0-4.236.292C848.878,599.593,851,599.117,851.422,599.079Z" transform="translate(-828.778 -576.842)" fill="#ff5757"/>
      <path id="Path_11117" data-name="Path 11117" d="M763.65,556.942s2.994-.175,2.994.49-1.663.49-1.873.963-.263,1.6-.787,1.3S762.985,556.962,763.65,556.942Z" transform="translate(-762.566 -545.161)" fill="gray"/>
      <path id="Path_11118" data-name="Path 11118" d="M913.319,675.945s2.205,1.856,9.138,2.381,9.577-1.358,9.912-1.348S920.811,677.836,913.319,675.945Z" transform="translate(-877.592 -636.436)" fill="#f2c89b"/>
      <path id="Path_11119" data-name="Path 11119" d="M891.971,586.9s1.027,1.165.35,6.113-3.124,6.909-5.425,7.749a12.9,12.9,0,0,0,4.631-7.306A22.812,22.812,0,0,0,891.971,586.9Z" transform="translate(-857.329 -568.152)" fill="#b33e3e"/>
      <path id="Path_11120" data-name="Path 11120" d="M903.176,643.411s2.433,2.871,2.888,2.818,1.715-2.731,1.4-3.239-3.554-.928-3.921-.91A.86.86,0,0,0,903.176,643.411Z" transform="translate(-869.672 -610.466)" fill="#ffa723"/>
      <path id="Path_11121" data-name="Path 11121" d="M904.343,647.038s2.329,2.985,2.828,2.739,1.155-2.573,1.155-2.573-1.024,1.873-1.409,1.829A17.492,17.492,0,0,1,904.343,647.038Z" transform="translate(-870.709 -614.268)" fill="#eb6b20"/>
      <path id="Path_11122" data-name="Path 11122" d="M905.422,643.235a10.363,10.363,0,0,0,2.591,1.252c.5-.052.882-.639.817-.718S905.281,642.745,905.422,643.235Z" transform="translate(-871.533 -611.244)" fill="#fff"/>
    </g>
  </g>
</svg>
