<svg xmlns="http://www.w3.org/2000/svg" width="52.906" height="54.671" viewBox="0 0 52.906 54.671">
  <g id="Group_13232" data-name="Group 13232" transform="translate(-160.045 -54.384)">
    <path id="Path_10902" data-name="Path 10902" d="M287.135,58.739s.53-3.149,2.705-4.031,6.765.259,6.765.759-3.811,1.517-4.43,2.175-.778,2.643-1.157,3.107S287.5,59.6,287.135,58.739Z" transform="translate(-93.313)" fill="#bd6540"/>
    <path id="Path_10903" data-name="Path 10903" d="M191.369,232.773s.6,5.867,1.477,6.226,1.8.359,2.115,0,1.157-6.944,1.157-6.944Z" transform="translate(-22.999 -130.451)" fill="#f2c89b"/>
    <path id="Path_10904" data-name="Path 10904" d="M189.683,68.645a11.831,11.831,0,0,1,3.512.328,24.329,24.329,0,0,1,3.352,1.517s10.7-2.168,13.33-.612,3.911,6.266,2.475,12.453-11.175,10.656-13.929,10.856a99.057,99.057,0,0,0-3.193,12.333c-.4,3.153-.958,12.093-1.876,13.051a1.211,1.211,0,0,1-2.2-.8c-.12-1.277-.918-5.588-.918-5.588s-1.517,6.705-2.554,7.064a3.108,3.108,0,0,1-2.714-.6c-.319-.359-1.277-7.663-1.277-7.663l-17,2.235s.08,5.889-.519,6.137-3.033.288-3.313-.55-.679-6.984-.679-6.984-1.556-8.86-1.117-12.053c-.8-1.118-1.793-7.893-.078-9.694s2.034,4.066,2.872,5.782,1.2,1.916,1.2,1.916,13.929-5.229,14.488-6.306,1.4-8.661,1.4-8.661Z" transform="translate(0 -10.459)" fill="#f2c89b"/>
    <path id="Path_10905" data-name="Path 10905" d="M225.02,71.981s3.153-3.352,6.985-3.313,5.029,3.792,4.39,7.463-2.275,12.852-5.867,13.849-6.545-4.31-6.865-4.749a12.593,12.593,0,0,1-.479-3.033s-1.237,1.916-1.876,1.916-2.954-.519-3.353-2.355,1.6-10.377,2.714-10.936S224.341,69.865,225.02,71.981Z" transform="translate(-42.481 -10.487)" fill="#bd6540"/>
    <path id="Path_10906" data-name="Path 10906" d="M267.563,81.822s-.186,2.674.745,2.727.865-2.341.692-2.874S267.656,80.944,267.563,81.822Z" transform="translate(-78.931 -19.704)"/>
    <path id="Path_10907" data-name="Path 10907" d="M262.8,71.435s-1.5,1.823-2.036,1.224.612-1.916,1.25-1.889S262.964,71.169,262.8,71.435Z" transform="translate(-73.854 -12.031)" fill="#633522"/>
    <path id="Path_10908" data-name="Path 10908" d="M272.225,82.817a.333.333,0,1,1-.333-.332A.333.333,0,0,1,272.225,82.817Z" transform="translate(-81.877 -20.632)" fill="#fff"/>
    <path id="Path_10909" data-name="Path 10909" d="M183.422,148.048c4.711-3.19,6.258-10.46,6.3-17.657a3.527,3.527,0,0,1-1.662,1.15c-3.592,1-6.546-4.31-6.865-4.749a4.732,4.732,0,0,1-.34-1.522c-.239,2.024-.854,6.936-1.3,7.788-.559,1.077-14.488,6.306-14.488,6.306s-.359-.2-1.2-1.916-1.157-7.583-2.872-5.782-.72,8.576.078,9.694c-.3,2.183.332,7.014.762,9.852C168.859,153.69,179.505,150.7,183.422,148.048Z" transform="translate(-0.014 -52.046)" fill="#f0e6e6"/>
    <path id="Path_10910" data-name="Path 10910" d="M339.555,77.234s-2.714-2.275-3.053-3.712.16-2.036.659-2.175,3.313-.419,4.231,1.038S340.912,78.312,339.555,77.234Z" transform="translate(-129.477 -12.369)" fill="#383838"/>
    <path id="Path_10911" data-name="Path 10911" d="M329.853,113.974a4.134,4.134,0,0,0,4.49-.479c.18,0,.1.738.1.738s-2.814,1.792-4.71.2A.358.358,0,0,1,329.853,113.974Z" transform="translate(-124.565 -43.401)" fill="#d67154"/>
    <path id="Path_10912" data-name="Path 10912" d="M163.516,153.178c-.619-2.288-1.067-6.32-2.528-4.785-1.311,1.377-1.037,5.655-.479,8.1.786.4,3.007-3.31,3.007-3.31Z" transform="translate(0 -68.774)" fill="#ad5c3a"/>
    <path id="Path_10913" data-name="Path 10913" d="M191.64,179.845s-1.776,2.474-.359,3.851,5.747.679,6.346-.818.1-3.652-.619-4.211S192.378,178.667,191.64,179.845Z" transform="translate(-22.531 -91.092)" fill="#ad5c3a"/>
    <path id="Path_10914" data-name="Path 10914" d="M229.813,151.628s7.224,12.732,17.281,12.213a29.993,29.993,0,0,0,.759-3.392c0-.12-13.171-4.869-17.042-10.3C230.651,149.916,229.813,151.628,229.813,151.628Z" transform="translate(-51.225 -70.298)" fill="#8a2f2f"/>
    <path id="Path_10915" data-name="Path 10915" d="M280.635,197.251s-2.368,4.417-1.863,4.71,2.82.319,3.007,0a21.668,21.668,0,0,0-.106-4.363C281.566,197.331,280.635,197.251,280.635,197.251Z" transform="translate(-87.121 -104.897)" fill="#ffa723"/>
    <path id="Path_10916" data-name="Path 10916" d="M237.772,97.809s2.261-5.884,1.822-7.88C240.393,90.945,239.581,96.11,237.772,97.809Z" transform="translate(-57.069 -26.098)" fill="#914e31"/>
    <path id="Path_10917" data-name="Path 10917" d="M217.974,89.527a3.263,3.263,0,0,0,2.524,2.22c2.14-1.423,3.939-11.407,3.09-12.295-.511-.534-2.344.067-3.789.663C218.766,82.791,217.669,88.122,217.974,89.527Z" transform="translate(-42.495 -18.254)" fill="#ad5c3a"/>
    <path id="Path_10918" data-name="Path 10918" d="M246.77,122c-.217-6.4-6.032-5.331-8.187-4.712-.492.141-.793.259-.793.259s.047.75.139,1.511a4.732,4.732,0,0,0,.34,1.522c.319.439,3.273,5.747,6.865,4.749a3.527,3.527,0,0,0,1.662-1.15C246.8,123.455,246.794,122.726,246.77,122Z" transform="translate(-57.082 -45.839)" fill="#ad5c3a"/>
    <path id="Path_10919" data-name="Path 10919" d="M254.734,168.057s8.317,4.454,11.417,5.554C263.423,174.193,257.42,170.861,254.734,168.057Z" transform="translate(-69.523 -83.462)" fill="#b33e3e"/>
    <path id="Path_10920" data-name="Path 10920" d="M281.032,198.4s-1.2,2.874-.958,3.233,2.215.66,2.215.66-2.821.239-2.933-.114,1.743-4.324,1.743-4.324S281.245,197.866,281.032,198.4Z" transform="translate(-87.597 -105.338)" fill="#eb6b20"/>
    <path id="Path_10921" data-name="Path 10921" d="M345.1,73.41s1.676.014,2.1.945a2.272,2.272,0,0,1-.532,2.315c-.213-.04-.4-1.636-.772-1.929S344.384,73.41,345.1,73.41Z" transform="translate(-135.704 -13.969)" fill="gray"/>
    <path id="Path_10922" data-name="Path 10922" d="M287.346,200.633s.01,3.243-.06,3.253a6.193,6.193,0,0,1-.778-.419S287.3,199.824,287.346,200.633Z" transform="translate(-92.852 -107.294)" fill="#fff"/>
  </g>
</svg>
