<svg xmlns="http://www.w3.org/2000/svg" width="68.533" height="59.315" viewBox="0 0 68.533 59.315">
  <g id="Group_13221" data-name="Group 13221" transform="translate(-770.971 -270.821)">
    <path id="Path_11032" data-name="Path 11032" d="M828.983,282.6l-4.793.839a17.718,17.718,0,0,1-.479-7.724c.745-3.887,3.461-5.8,3.461-4.473S827.119,279.421,828.983,282.6Z" transform="translate(-38.537)" fill="#ad5c3a"/>
    <path id="Path_11033" data-name="Path 11033" d="M826.73,314.632a35.276,35.276,0,0,0,1.97,3.126c.319.266,4.42,23.484,4.42,23.484s-4.526.134-5.165,1.558-.306,12.979-.306,12.979l-7.247.666s2.495-12.381,1.536-14.458-1.917-10.285.8-15.207-.8-11.309-.8-11.309S823.268,313.955,826.73,314.632Z" transform="translate(-36.284 -32.032)" fill="#f2c89b"/>
    <path id="Path_11034" data-name="Path 11034" d="M844.207,369.428s-4.313.508-5.392-6.056,3.834-10.878,3.834-10.878l1.917,1.438s-4.154,4.433-3.515,9.186,4.633,4.952,4.633,4.952Z" transform="translate(-49.687 -59.952)" fill="#8a2f2f"/>
    <path id="Path_11035" data-name="Path 11035" d="M853.658,326.309s2.037,8.667,2.8,10.064,18.851,0,18.851,0,1.478-7.119,1.957-9.95-11.589-25.4-11.589-25.4l-2.713-.148Z" transform="translate(-60.696 -22.065)" fill="#f2c89b"/>
    <path id="Path_11036" data-name="Path 11036" d="M827.628,300.836s3.2,12.66,2.316,17.333-7.828,8.986-11.862,8.107l-1.837-11.981s-6.47,7.588-10.663,5.192c-1.238-1.318.839-1.637,1.278-5.232s2.916-8.547,4.912-8.906,4.713,3.035,4.713,3.035.519-3.834,2.316-5.551S827.628,300.836,827.628,300.836Z" transform="translate(-25.121 -22.032)" fill="#bd6540"/>
    <path id="Path_11037" data-name="Path 11037" d="M898.834,301.436s0,14.258,2.079,18.731,9.349,7.019,9.509,6.664,2.117-7.583.679-14.013c.839-.08.879,2.117,3.075,2.636s6.789,1.185,6.789.233-3-1.871-4.193-5.265-2.317-5.951-3.714-6.949-4.593,1.358-4.593,1.358S905.448,301.5,898.834,301.436Z" transform="translate(-93.858 -22.473)" fill="#bd6540"/>
    <path id="Path_11038" data-name="Path 11038" d="M891.356,423.76s-.958-2.217-.5-2.956,5.192-.832,5.751-.106-.318,3.138-.6,3.521S891.356,423.76,891.356,423.76Z" transform="translate(-87.911 -109.651)" fill="#383838"/>
    <g id="Group_13220" data-name="Group 13220" transform="translate(782.857 311.047)">
      <path id="Path_11039" data-name="Path 11039" d="M851.606,425.668a14.352,14.352,0,0,1,1.225-1.97,9.912,9.912,0,0,1,1.784,0s.479-.932,1.145-1.038,1.385.612,1.385.612.745-1.2,1.331-1.2a3.416,3.416,0,0,1,1.678.719c.08.133.266.932.4,1.012s1.252-.16,1.491-.107,1.172,1.252,1.172,1.252l4.287.586s.932-1.89,1.438-2.023a5.006,5.006,0,0,1,1.544.053s.506-1.172,1.118-1.358a7.336,7.336,0,0,1,2.769.506c.08.08.479,1.172.613,1.158s.932-.546,1.145-.572a5.5,5.5,0,0,1,1.7.319c.213.16.027.719.186.745s1.038-.319,1.358.08a6.169,6.169,0,0,1,.532,1.864Z" transform="translate(-842.047 -422.074)" fill="#70463a"/>
      <path id="Path_11040" data-name="Path 11040" d="M815.665,444.827s6.23-12.253,7.668-12.973,31.151-.033,32.509.822,6.15,12.15,6.15,12.15Z" transform="translate(-815.665 -429.032)" fill="#db542e"/>
      <path id="Path_11041" data-name="Path 11041" d="M852.2,435.839s23.883.319,25.56,1.039,4.553,10.184,4.553,10.184l-34.666-.679S850.927,436.238,852.2,435.839Z" transform="translate(-839.145 -432.178)" fill="#f55e33"/>
    </g>
    <path id="Path_11042" data-name="Path 11042" d="M871.464,377.418a6.547,6.547,0,0,0,2.889.24c.093.083.147.466,0,.559a3.909,3.909,0,0,1-2.982-.319C871.318,377.711,871.373,377.39,871.464,377.418Z" transform="translate(-73.683 -78.246)"/>
    <path id="Path_11043" data-name="Path 11043" d="M916.187,377.117a6.545,6.545,0,0,1-2.889.24c-.093.082-.146.466,0,.559a3.909,3.909,0,0,0,2.982-.319C916.334,377.41,916.279,377.09,916.187,377.117Z" transform="translate(-104.409 -78.026)"/>
    <path id="Path_11044" data-name="Path 11044" d="M878.1,350.92s-2.033,1.538-1.336,2.077,3.253-.02,3.612-1.038S879.779,349.8,878.1,350.92Z" transform="translate(-77.551 -58.458)" fill="#633522"/>
    <path id="Path_11045" data-name="Path 11045" d="M909.005,350.319s2.033,1.538,1.336,2.077-3.253-.02-3.613-1.038S907.327,349.2,909.005,350.319Z" transform="translate(-99.598 -58.017)" fill="#633522"/>
    <path id="Path_11046" data-name="Path 11046" d="M902.566,423.516s1.687.32,1.987-.319a2.226,2.226,0,0,0-.12-1.894c-.22-.153-2.127-.433-2.107-.173s1.13.449,1.189.988S901.647,423.257,902.566,423.516Z" transform="translate(-96.415 -110.257)" fill="gray"/>
    <path id="Path_11047" data-name="Path 11047" d="M822.368,376.128s1.412.64,1.892-1.6a3.95,3.95,0,0,0-1.185-3.659A15.653,15.653,0,0,0,822.368,376.128Z" transform="translate(-37.689 -73.442)" fill="#bd6540"/>
    <path id="Path_11048" data-name="Path 11048" d="M842.712,373.819s-1.411,6.47,1.731,9.146C842.735,383.147,840.635,378.372,842.712,373.819Z" transform="translate(-52.026 -75.606)" fill="#b33e3e"/>
    <path id="Path_11049" data-name="Path 11049" d="M770.971,479.877s59.507,5.591,68.533,0C832,477.561,775.364,477.72,770.971,479.877Z" transform="translate(0 -152.226)" fill="#92993a"/>
  </g>
</svg>
