<svg xmlns="http://www.w3.org/2000/svg" width="39.813" height="62.907" viewBox="0 0 39.813 62.907">
  <g id="Group_13219" data-name="Group 13219" transform="translate(-501.192 -302.777)">
    <path id="Path_10999" data-name="Path 10999" d="M558.616,512.417a36.95,36.95,0,0,1-28.2,0C537.827,509.535,558.616,512.417,558.616,512.417Z" transform="translate(-20.974 -149.547)" fill="#92993a"/>
    <g id="Group_13218" data-name="Group 13218" transform="translate(501.192 302.777)">
      <path id="Path_11000" data-name="Path 11000" d="M538.276,476.941a16.3,16.3,0,0,1-2.741-3.222c-.692-1.342-1.213-.822-.947,1.06.48,3.391,2.586,5.525,3.052,5.581S538.276,476.941,538.276,476.941Z" transform="translate(-525.111 -424.929)" fill="#bd6540"/>
      <path id="Path_11001" data-name="Path 11001" d="M532.717,321.4a71.62,71.62,0,0,0,3.193,11.692,36.2,36.2,0,0,1,2.147,15.834c-.452,3.756-3.5,16.134-1.639,17.6s18.82.961,19.612,0-.788-15.542-1.213-20.968-.535-11.869,0-14.468,2.326-9.372,2.25-11.637-9.571-11.62-9.571-11.62a25.567,25.567,0,0,1-2.537.735,15.024,15.024,0,0,1-2.945-.932Z" transform="translate(-523.818 -306.267)" fill="#f2c89b"/>
      <path id="Path_11002" data-name="Path 11002" d="M616.687,325.6s.466-2.674,2.459-1.634,2.2,3.655,3.2,5.643,1.759,3.769,1.5,4.023-5.08-1.864-5.765-2.734S616.687,325.6,616.687,325.6Z" transform="translate(-584.087 -317.812)" fill="#bd6540"/>
      <path id="Path_11003" data-name="Path 11003" d="M616.417,329.982s1.07-.645,1.663.9,1.589,5.5,1.293,5.867-2.522-1.332-3.116-3.07A6.184,6.184,0,0,1,616.417,329.982Z" transform="translate(-583.615 -322.207)" fill="#ad5c3a"/>
      <path id="Path_11004" data-name="Path 11004" d="M519.387,307.382s1.554,6.214-2.063,9.945-7.234,3.817-7.234,3.817l-.339-2.164a1,1,0,0,0-1.356.355c-.622.819-2.459,8.025-7.121,7.743-.509-.549,1.526-3.221,1.554-6.7s1.893-5.821,3.673-5.906,3.448,1.964,3.448,1.964a10.1,10.1,0,0,1,1.441-6.033C513.227,307.438,517.155,307.042,519.387,307.382Z" transform="translate(-501.192 -306.009)" fill="#bd6540"/>
      <path id="Path_11005" data-name="Path 11005" d="M565.525,340.3a6.5,6.5,0,0,1-3.221-2.8c-.876-1.893,2.628-3.334,5.567-2.345S566.437,340.756,565.525,340.3Z" transform="translate(-544.955 -325.785)" fill="#383838"/>
      <path id="Path_11006" data-name="Path 11006" d="M567.553,336.649s3.137-1,4.112.127-1.685,3.444-1.992,3.19.106-1.42-.244-1.738-2.056-.1-2.2-.572S567.171,336.851,567.553,336.649Z" transform="translate(-548.538 -326.796)" fill="gray"/>
      <path id="Path_11007" data-name="Path 11007" d="M543.249,324.061s-.226-2.2-1.371-1.328-.749,4.62.353,4.649S543.412,324.812,543.249,324.061Z" transform="translate(-529.899 -316.952)"/>
      <path id="Path_11008" data-name="Path 11008" d="M600.171,321.167s-.415-2.177-1.48-1.206-.349,4.668.752,4.6S600.4,321.9,600.171,321.167Z" transform="translate(-570.794 -314.932)"/>
      <path id="Path_11009" data-name="Path 11009" d="M547.52,325.521a.357.357,0,1,1-.357-.357A.357.357,0,0,1,547.52,325.521Z" transform="translate(-533.931 -318.845)" fill="#fff"/>
      <path id="Path_11010" data-name="Path 11010" d="M604.016,322.4a.357.357,0,1,1-.357-.357A.357.357,0,0,1,604.016,322.4Z" transform="translate(-574.48 -316.608)" fill="#fff"/>
      <path id="Path_11011" data-name="Path 11011" d="M541.551,350.553s.537-.989,1.215-.113,1.7,3.984,4.889,3.617,3.25-2.083,3.589-1.96,1.272,2.073,3.674,1.564,4.284-3.8,4.5-4.714,1.518,1.153,1.461,3.555-2.359,9.5-3.624,9.5-.813-3.561-2.65-3.9-6.358-.565-6.923.791-1.667,5.341-3.307,4.606S540.194,353.8,541.551,350.553Z" transform="translate(-529.883 -335.758)" fill="#d67154"/>
      <path id="Path_11012" data-name="Path 11012" d="M543.5,352.029s1.208,3.094,3.221,3.582,4.472.424,5.553-1.5a4.926,4.926,0,0,0,3.518,1.335c2.029-.207,4.387-2.9,4.811-4.578.721,2.352-.98,5.065-1.2,5.425s.882,5-1.131,6.591c-.361,0-.735-3.066-2.289-3.6s-6.429-.82-7.22.551-1.893,5.157-2.981,4.917-.975-4.182.014-6.146c-1.5-.226-3.264-3.5-3.137-4.9S543.142,351.6,543.5,352.029Z" transform="translate(-530.951 -337.29)" fill="#fff"/>
      <path id="Path_11013" data-name="Path 11013" d="M523.075,353.1s-8.054,1.444-8.308,1.294-2.9-1.972-4.006-1.782-3.094,2.946-2.014,4.9a3.38,3.38,0,0,0,3.433,1.526s-1,2.882.17,3.667,4.069.805,4.43-.572a11.343,11.343,0,0,0-.042-3.709L524.2,356s.417-1.307.713-1.35a6.794,6.794,0,0,1,1.667.805s.862-1.385,1.017-1.3,1.088.763,1.088.763.848-1.046,1.088-.932a6.45,6.45,0,0,1,.89.749s.452-.777.763-.636.791,1.5.791,1.5,5.567-.735,5.878-.622.848,3.052,3.278,3.278,3.617-1.385,3.589-2.741-2.232-2.918-2.232-2.918,2.091-2.028,2.063-3.78-3.193-2.883-3.984-2.459-2.2,3.928-2.2,3.928l-7.037,2.176s-.5,1.229-.777,1.145a5.61,5.61,0,0,1-1.058-.869s-1,1.166-1.337,1.06-.863-1.1-.863-1.1-.621,1.25-.981,1.293-1.42-1.081-1.42-1.081-.466,1.1-.911.975A4.156,4.156,0,0,1,523.075,353.1Z" transform="translate(-506.392 -333.991)" fill="#fff9bd"/>
      <path id="Path_11014" data-name="Path 11014" d="M566.061,367.154l-.952.294s-.5,1.229-.777,1.145a5.609,5.609,0,0,1-1.058-.869s-1,1.166-1.337,1.06-.862-1.1-.862-1.1-.621,1.25-.981,1.293-1.42-1.081-1.42-1.081-.466,1.1-.911.975a4.163,4.163,0,0,1-1.144-.784s-.585.1-1.44.254c.923.221,2.053.765,1.44,2.1-.2.439-.39.8-.564,1.1l1.687-.546s.417-1.307.714-1.35a6.8,6.8,0,0,1,1.667.805s.862-1.384,1.017-1.3,1.088.763,1.088.763.848-1.046,1.088-.933a6.456,6.456,0,0,1,.89.749s.452-.777.763-.636.791,1.5.791,1.5.434-.057,1.059-.136A3.507,3.507,0,0,1,566.061,367.154Z" transform="translate(-539.939 -348.982)" fill="#e8e3ac"/>
      <path id="Path_11015" data-name="Path 11015" d="M585.076,307.132s.283,7.316,3.335,9.748a9.924,9.924,0,0,0,6.189,2.255,14.215,14.215,0,0,0-.933-7.254C592.113,308.46,588.863,305.465,585.076,307.132Z" transform="translate(-561.398 -305.562)" fill="#bd6540"/>
      <path id="Path_11016" data-name="Path 11016" d="M544.634,304.375s-1.67,1.525-1.227,2.108,2.308-.508,2.562-1.335A.792.792,0,0,0,544.634,304.375Z" transform="translate(-531.438 -303.731)" fill="#633522"/>
      <path id="Path_11017" data-name="Path 11017" d="M595.763,303.046s1.67,1.525,1.227,2.108-2.307-.508-2.562-1.335A.791.791,0,0,1,595.763,303.046Z" transform="translate(-568.084 -302.777)" fill="#633522"/>
      <path id="Path_11018" data-name="Path 11018" d="M596.611,321.175s-.351-2.188-1.444-1.248-.484,4.655.618,4.621S596.817,321.915,596.611,321.175Z" transform="translate(-568.228 -314.918)"/>
      <path id="Path_11019" data-name="Path 11019" d="M600.578,321.959a.357.357,0,1,1-.357-.357A.357.357,0,0,1,600.578,321.959Z" transform="translate(-572.012 -316.288)" fill="#fff"/>
      <path id="Path_11020" data-name="Path 11020" d="M550.823,432.309s4.635,3.617,9.523,3.306,7.489-2.967,7.489-3.306a20.877,20.877,0,0,0-.254-2.423c-.064-.043-5.362,2.268-8.117,2.035s-8.711-2.671-8.88-2.416A13.847,13.847,0,0,0,550.823,432.309Z" transform="translate(-536.612 -393.72)" fill="#8a2f2f"/>
      <path id="Path_11021" data-name="Path 11021" d="M578.189,447.037s-.593,3.617-.226,3.886,2.557.226,2.628-.085a19.494,19.494,0,0,0-.763-3.8C579.645,446.769,578.232,446.771,578.189,447.037Z" transform="translate(-556.207 -406.173)" fill="#ffa723"/>
      <path id="Path_11022" data-name="Path 11022" d="M554.893,473.5s-.386,11.521.655,12.8c0,0-1.05-.024-1.389-1.776S554.78,472.651,554.893,473.5Z" transform="translate(-539.156 -425.274)" fill="#f0e6e6"/>
      <path id="Path_11023" data-name="Path 11023" d="M567.285,473.74s.53,8.775.721,9.029.771.36.937,1.017a2.578,2.578,0,0,1-.089,1.344l1.526-.005s-.763-.894-.615-1.508,1.145-.954,1.145-.954l.445-8.626s2.14-1.123,2.543-2.437c-.911.636-5.892,1.8-7.588.275C565.865,473,567.285,473.74,567.285,473.74Z" transform="translate(-547.868 -423.947)" fill="#f0e6e6"/>
      <path id="Path_11024" data-name="Path 11024" d="M597.338,466.241s-2.162,12.674-1.886,12.78,1.229.691.382,2.073c.869-.526,1.187-1.035.021-2.349C596.617,476.9,597.719,465.435,597.338,466.241Z" transform="translate(-568.828 -420.071)" fill="#f0e6e6"/>
      <path id="Path_11025" data-name="Path 11025" d="M571.11,482.486s.466,7.658.65,7.87.9.593,1,1.187a3.056,3.056,0,0,1-.184,1.331h.777a2.723,2.723,0,0,1-.339-1.741,1.515,1.515,0,0,1,.961-.89l.452-7.856A3.074,3.074,0,0,1,571.11,482.486Z" transform="translate(-551.374 -431.689)" fill="#d1c8c8"/>
      <path id="Path_11026" data-name="Path 11026" d="M579.008,448.436s-.518,3.285-.232,3.486A6.8,6.8,0,0,0,581,451.8c-.063-.021-1.748-.011-1.876-.371A26.239,26.239,0,0,1,579.008,448.436Z" transform="translate(-556.814 -407.321)" fill="#eb6b20"/>
      <path id="Path_11027" data-name="Path 11027" d="M583.435,447.938s.731,3.01.519,3.116-.689-.392-.837-.826A5.844,5.844,0,0,1,583.435,447.938Z" transform="translate(-559.969 -406.95)" fill="#fff"/>
      <path id="Path_11028" data-name="Path 11028" d="M557.963,431.524s7.333,2.785,13.459.372C566.718,435.079,560.42,433.1,557.963,431.524Z" transform="translate(-541.938 -395.183)" fill="#b33e3e"/>
      <path id="Path_11029" data-name="Path 11029" d="M572.6,394.6s-2.367-1.865-2.028-2.571,2.487-.17,3.815-.424S573.84,395.278,572.6,394.6Z" transform="translate(-550.967 -366.522)" fill="#f0e6e6"/>
      <path id="Path_11030" data-name="Path 11030" d="M617.4,330.321a20.382,20.382,0,0,1,.521,4.944C618.465,333.5,617.923,330.719,617.4,330.321Z" transform="translate(-584.601 -322.546)" fill="#914e31"/>
      <path id="Path_11031" data-name="Path 11031" d="M531.06,340.05a10.445,10.445,0,0,0-.179,2.57A2.4,2.4,0,0,1,531.06,340.05Z" transform="translate(-522.303 -329.529)" fill="#914e31"/>
    </g>
  </g>
</svg>
