<svg xmlns="http://www.w3.org/2000/svg" xmlns:xlink="http://www.w3.org/1999/xlink" width="42.722" height="74.047" viewBox="0 0 42.722 74.047">
  <defs>
    <clipPath id="clip-path">
      <rect id="Rectangle_85325" data-name="Rectangle 85325" width="42.722" height="74.047" fill="none"/>
    </clipPath>
    <clipPath id="clip-path-2">
      <path id="Path_12565" data-name="Path 12565" d="M20.818,69.039c.036.534,4.383,1.3,0,0M25.01,13.25a39.328,39.328,0,0,0-5.6,9.03c-1.116,2.818.319,2.644-2.232,5.244-2.384,2.43-4.749,4.958-5.689,8.314-1.6,5.729.536,10.713-3.57,16.258-2.034,2.747-5.706,4.531-7.2,7.61-1.658,3.429-.563,6.958,4.151,6.182C3.93,67.2.435,76.226,4.629,74.123c1.568-.786,2.136-9.846,5.607-8.4,1.729.721-6.6,17.922.379,16.627,5.022-.931.748-15.118,5.518-15.215,3.934-.08.12,6.888.818,8.959,1.846,5.479,4.031-4.6,3.867-7.055,3.176.942,5.77-1.775,6.464-4.653.759-3.144-1.244-4.879-1.685-7.756-.4-2.589.521-8.3,1.956-10.223.448-.6,1.509-.067,2.22-1.092a14.616,14.616,0,0,0,2.3-5.148c.429-1.818.239-3.9.855-5.654,1.026-2.93,1.469-1.657,3.589-4.241,1.257-1.532,1.066-3.252,1.654-4.927.49-1.395,1.3-2.727,1.858-4.2,2.116-5.614-.28-3.863-3.327-3.624a5.408,5.408,0,0,1-4.218-.792,7.483,7.483,0,0,1-3.26-2.646c-1.219-1.93-1.4-3.228-1.926-3.228-.388,0-.964.709-2.286,2.4" transform="translate(0 -10.854)" fill="none"/>
    </clipPath>
    <clipPath id="clip-path-4">
      <path id="Path_12607" data-name="Path 12607" d="M30.321,237.061l-.814.848-1.3,2.253a4.724,4.724,0,0,1,4.808-.269c2.81,1.3,9.43,6.02,9.43,6.02s6.131,3.814,7.944,4.039,3.769.644,5.163-.509l1.945-2.97s-1.23,1.47-4.926.5a26.4,26.4,0,0,1-7.418-3.663l-8.529-5.685A8.274,8.274,0,0,0,32.7,236.49a4.987,4.987,0,0,0-2.375.571" transform="translate(-28.204 -236.49)" fill="none"/>
    </clipPath>
    <linearGradient id="linear-gradient" x1="-0.184" y1="1.56" x2="-0.179" y2="1.56" gradientUnits="objectBoundingBox">
      <stop offset="0" stop-color="#ffb800"/>
      <stop offset="0.095" stop-color="#ffebac"/>
      <stop offset="0.241" stop-color="#ffb800"/>
      <stop offset="0.603" stop-color="#ffb800"/>
      <stop offset="1" stop-color="#df7914"/>
    </linearGradient>
    <clipPath id="clip-path-5">
      <path id="Path_12608" data-name="Path 12608" d="M60.6,369.165l-2,3.06a8.936,8.936,0,0,1,3.713-1.025c2.3-.167,5.675,1.508,6.106,1.728s4.383,2.224,6.326,1.861,1.669-.852,1.669-.852l1.814-2.77s-1.419,1.312-4.9-.049-5.049-2.715-7.582-2.857c-.975-.055-1.694-.135-2.311-.135a4.178,4.178,0,0,0-2.826,1.039" transform="translate(-58.6 -368.126)" fill="none"/>
    </clipPath>
    <linearGradient id="linear-gradient-2" x1="-0.577" y1="1.472" x2="-0.568" y2="1.472" gradientUnits="objectBoundingBox">
      <stop offset="0" stop-color="#df7914"/>
      <stop offset="0.514" stop-color="#ffb800"/>
      <stop offset="0.736" stop-color="#ffebac"/>
      <stop offset="0.89" stop-color="#ffb800"/>
      <stop offset="1" stop-color="#df7914"/>
    </linearGradient>
    <clipPath id="clip-path-6">
      <path id="Path_12609" data-name="Path 12609" d="M229.864,281.407c.753.48.573,2.838.573,2.838,2.263-.9,1.773-4.607,1.773-4.607Z" transform="translate(-229.864 -279.638)" fill="none"/>
    </clipPath>
    <linearGradient id="linear-gradient-3" x1="-5.631" y1="7.266" x2="-5.605" y2="7.266" gradientUnits="objectBoundingBox">
      <stop offset="0" stop-color="#df7914"/>
      <stop offset="0.366" stop-color="#df7914"/>
      <stop offset="1" stop-color="#ffb800"/>
    </linearGradient>
  </defs>
  <g id="Group_13858" data-name="Group 13858" transform="translate(0)">
    <g id="Group_13845" data-name="Group 13845" transform="translate(0)">
      <g id="Group_13844" data-name="Group 13844" clip-path="url(#clip-path)">
        <path id="Path_12559" data-name="Path 12559" d="M20.819,69.039c3.176.942,5.77-1.775,6.464-4.653.759-3.144-1.244-4.88-1.686-7.756-.4-2.589.521-8.3,1.956-10.223.448-.6,1.509-.067,2.22-1.092a14.62,14.62,0,0,0,2.3-5.148c.429-1.818.239-3.9.855-5.654,1.026-2.93,1.469-1.657,3.589-4.241,1.257-1.532,1.066-3.252,1.654-4.927.49-1.395,1.3-2.727,1.858-4.2,2.116-5.614-.28-3.863-3.327-3.624a5.408,5.408,0,0,1-4.218-.791,7.483,7.483,0,0,1-3.26-2.646c-2.121-3.357-1.1-4.8-4.212-.832a39.335,39.335,0,0,0-5.6,9.031c-1.116,2.818.319,2.643-2.233,5.244-2.384,2.43-4.749,4.957-5.689,8.314-1.6,5.729.537,10.713-3.57,16.258-2.034,2.747-5.706,4.531-7.195,7.61-1.658,3.429-.563,6.958,4.151,6.182C3.931,67.2.435,76.225,4.63,74.123c1.568-.786,2.136-9.847,5.607-8.4,1.729.721-6.6,17.922.379,16.627,5.022-.931.748-15.118,5.518-15.215,3.934-.08.12,6.888.818,8.959,1.846,5.479,4.031-4.6,3.867-7.055,4.383,1.3.036.534,0,0" transform="translate(0 -9.355)" fill="#f5b054"/>
      </g>
    </g>
    <g id="Group_13847" data-name="Group 13847" transform="translate(0 1.499)">
      <g id="Group_13846" data-name="Group 13846" transform="translate(0)" clip-path="url(#clip-path-2)">
        <path id="Path_12560" data-name="Path 12560" d="M42.442,110.092c.6-3.672-2.828-6.5-2.456-10.519.178-1.921,2.294-6.833,1.1-8.3-.787-.972-2.005.863-3.062-.76-.874-1.342-.11-.352.229-2.274.2-1.16,1.605-2.72,2.4-3.537.7-.719,4.332-2.007,4.417-2.092.778-.774,1.221-3.237,1.893-3.676,2.166-1.415,5.066.527,6.823-2.71,3.257-6-3.673-4.961-6.58-4.974,4.1-4.027-6.227-8.375-6.009-2.985-1.183-3.61-4.049-4.69-5.336-.1a12.483,12.483,0,0,0-.218,2.723c-.163,2.03,1.16,1.932.416,3.713-.411.982-2.128,1.462-2.6,2.673-.819,2.1.274,4.317-.506,6.631-.722,2.142-2.244,3.41-3.37,5.3-3.086,5.171-3.487,10.042-7.733,14.511-1.263,1.329-3.322,2.971-2.255,4.993,1.647,3.12,4.835.09,6.852,1.845,3.46,3.011-5.183,13.165-1.514,16.6,3.8,3.555,3.873-10.547,5.079-12.409,2.982-4.608,11.105,3.449,12.432-4.641h0" transform="translate(-16.631 -57.627)" fill="#fadfba"/>
        <path id="Path_12561" data-name="Path 12561" d="M198.17,53.065c0,.033,0,.066,0,.1q-.432-1.232-1.186-.191c-.036.489,1.275,1.267,1.183.093,0,.033.026.324,0,0" transform="translate(-169.789 -46.746)" fill="#fff"/>
        <path id="Path_12562" data-name="Path 12562" d="M224.69,67.93c.3-1.112-.739-.617-1.087-.793-.551-.278.605,2.555,1.087.793h0" transform="translate(-192.604 -59.349)" fill="#fff"/>
        <path id="Path_12563" data-name="Path 12563" d="M190.43,12.8c-.812-2.962-3.371,3.189-1.434,2.586A3.035,3.035,0,0,0,190.43,12.8h0" transform="translate(-162.29 -11.832)" fill="#fff"/>
        <path id="Path_12564" data-name="Path 12564" d="M269.256,60.617c.394-2.027-4.384-.148-2.918,1.888.846,1.175,2.742-.983,2.918-1.888h0" transform="translate(-229.323 -52.995)" fill="#fff"/>
      </g>
    </g>
    <g id="Group_13849" data-name="Group 13849" transform="translate(0)">
      <g id="Group_13848" data-name="Group 13848" clip-path="url(#clip-path)">
        <path id="Path_12566" data-name="Path 12566" d="M190.9,5.333a7.58,7.58,0,0,0-.622-3.463C190,1.237,189.5.007,188.646,0c-.772-.006-1.366.984-1.743,1.539a8.585,8.585,0,0,0-1.356,3.513c-.052.327.448.468.5.138a8.412,8.412,0,0,1,.732-2.411A5.316,5.316,0,0,1,188.141.817c1.715-1.087,2.278,3.672,2.237,4.516-.016.334.5.333.519,0" transform="translate(-159.926 0)" fill="#434343"/>
        <path id="Path_12567" data-name="Path 12567" d="M219.726,38.139a49.074,49.074,0,0,1,6.363,3.338c.284.177.545-.272.262-.448a49.078,49.078,0,0,0-6.363-3.338c-.3-.132-.568.315-.262.448" transform="translate(-189.271 -32.466)" fill="#434343"/>
        <path id="Path_12568" data-name="Path 12568" d="M265.523,50.848c.834-.81,5-3.42,5.161-.662a7.155,7.155,0,0,1-.745,2.558,17.636,17.636,0,0,1-1.265,2.537.26.26,0,0,0,.448.262,17.794,17.794,0,0,0,1.789-4.037c.249-.841.588-1.97-.21-2.637-1.573-1.315-4.409.509-5.545,1.613-.24.233.127.6.367.367" transform="translate(-228.479 -41.726)" fill="#434343"/>
        <path id="Path_12569" data-name="Path 12569" d="M150.451,42.689a10.469,10.469,0,0,0-4.651,5.244,6.128,6.128,0,0,0,1.135,5.957c.219.253.585-.115.367-.367a5.637,5.637,0,0,1-.832-5.888,10.344,10.344,0,0,1,4.244-4.5c.281-.179.021-.629-.262-.448" transform="translate(-125.391 -36.758)" fill="#434343"/>
        <path id="Path_12570" data-name="Path 12570" d="M231.533,100.461a8.876,8.876,0,0,1-2.058,6.79A6.469,6.469,0,0,1,223,109.02a.26.26,0,0,0-.138.5,6.986,6.986,0,0,0,6.743-1.665,9.224,9.224,0,0,0,2.446-7.394c-.022-.332-.542-.334-.519,0" transform="translate(-191.935 -86.375)" fill="#434343"/>
        <path id="Path_12571" data-name="Path 12571" d="M192.207,60.581a1.648,1.648,0,0,0,2.145,2.331,1.336,1.336,0,0,0,.631-1.877,3.179,3.179,0,0,0-2.639-.935c-.333.013-.335.532,0,.519a3.356,3.356,0,0,1,1.873.425.78.78,0,0,1-.153,1.429,1.125,1.125,0,0,1-1.409-1.631c.188-.277-.262-.537-.448-.262" transform="translate(-165.434 -51.8)" fill="#434343"/>
        <path id="Path_12572" data-name="Path 12572" d="M189.049,52.464a.87.87,0,0,0,.863.805c.334-.009.848-.345.75-.738s-.654-.627-1-.651a1.166,1.166,0,0,0-1.1.607c-.162.292.286.554.448.262a.683.683,0,0,1,1.176-.018l-.026-.2a.305.305,0,0,1-.594-.067c-.043-.327-.562-.331-.519,0" transform="translate(-162.498 -44.715)" fill="#434343"/>
        <path id="Path_12573" data-name="Path 12573" d="M238.737,75.875c-.628-.155-1.271-.9-1.963-.463-.631.4-.189,1.165.321,1.419.491.245,1.431.461,1.589-.3.164-.785-.709-1.121-1.309-1.235-.326-.062-.466.438-.138.5.284.054.9.138.93.522.038.476-.841.091-1.013-.062s-.22-.366.026-.442a.724.724,0,0,1,.487.109,4.511,4.511,0,0,0,.931.451c.324.08.463-.42.138-.5" transform="translate(-203.814 -64.882)" fill="#434343"/>
        <path id="Path_12574" data-name="Path 12574" d="M241.466,77.775l-.329-.044c-.168-.023-.405.112-.319.319a.957.957,0,0,0,1.539.337c.225-.246-.141-.614-.367-.367a.437.437,0,0,1-.671-.108l-.319.319.329.044a.269.269,0,0,0,.319-.181.261.261,0,0,0-.181-.319" transform="translate(-207.553 -66.996)" fill="#434343"/>
        <path id="Path_12575" data-name="Path 12575" d="M192.359,52.48a.643.643,0,0,0,.185.987.628.628,0,0,0,.9-.575.266.266,0,0,0-.26-.259.262.262,0,0,0-.26.259c.006.08-.079.147-.143.113a.129.129,0,0,1-.062-.1.135.135,0,0,1,.008-.06c.223-.247-.143-.616-.367-.367" transform="translate(-165.666 -45.163)" fill="#434343"/>
        <path id="Path_12576" data-name="Path 12576" d="M194.69,62.556a1.361,1.361,0,0,0-.942.685.715.715,0,0,0,.244.864c.756.525,1.353-.338,1.571-.954a.261.261,0,0,0-.181-.319.964.964,0,1,0,.432.24.257.257,0,0,0-.253-.067.773.773,0,0,0,.145,1.512.762.762,0,0,0,.445-1.422c-.273-.194-.532.256-.262.448.2.14.184.438-.085.463a.256.256,0,0,1-.1-.5l-.252-.067c.34.352.059.948-.443.751a.445.445,0,1,1,.24-.857l-.181-.319c-.1.279-.245.725-.613.71-.254-.01-.3-.23-.132-.42a1.2,1.2,0,0,1,.511-.247c.315-.106.18-.608-.138-.5" transform="translate(-166.95 -53.906)" fill="#434343"/>
        <path id="Path_12577" data-name="Path 12577" d="M209.147,63.706l2.258,1.317a.26.26,0,0,0,.262-.448l-2.258-1.317a.26.26,0,0,0-.262.448" transform="translate(-180.162 -54.491)" fill="#434343"/>
        <path id="Path_12578" data-name="Path 12578" d="M193.526,74.207a3.2,3.2,0,0,0-.454,1.654.26.26,0,0,0,.519,0,2.665,2.665,0,0,1,.383-1.392.26.26,0,0,0-.448-.262" transform="translate(-166.415 -63.854)" fill="#434343"/>
        <path id="Path_12579" data-name="Path 12579" d="M186.006,68.56a4.909,4.909,0,0,0-.318,5.254c.155.3.6.034.448-.262a4.391,4.391,0,0,1,.318-4.73c.2-.27-.252-.529-.448-.262" transform="translate(-159.524 -58.997)" fill="#434343"/>
        <path id="Path_12580" data-name="Path 12580" d="M185.561,84.687c2.588.04,4.335,3.991,7.126,2.557.3-.153.035-.6-.262-.448-1.643.845-3.082-.746-4.278-1.633a4.348,4.348,0,0,0-2.586-.994.26.26,0,0,0,0,.519" transform="translate(-159.724 -72.547)" fill="#434343"/>
        <path id="Path_12581" data-name="Path 12581" d="M277.021,58.564a3.423,3.423,0,0,0-1.828,2.479c-.055.327.445.467.5.138a2.941,2.941,0,0,1,1.589-2.169c.3-.153.035-.6-.262-.448" transform="translate(-237.193 -50.451)" fill="#434343"/>
        <path id="Path_12582" data-name="Path 12582" d="M200,19.543a1.617,1.617,0,0,1-.878,2.038c-.305.125-.172.627.138.5a2.138,2.138,0,0,0,1.24-2.677c-.108-.314-.609-.179-.5.138" transform="translate(-171.482 -16.572)" fill="#434343"/>
        <path id="Path_12583" data-name="Path 12583" d="M92.425,113.632c-4.116,3.871-8.535,8.284-8.511,14.344a.26.26,0,0,0,.519,0c-.023-5.914,4.349-10.205,8.359-13.977.244-.229-.124-.6-.367-.367" transform="translate(-72.328 -97.881)" fill="#434343"/>
        <path id="Path_12584" data-name="Path 12584" d="M94.241,162.971a10.233,10.233,0,0,0-4.361,5.155c-.729,1.638-1.373,3.971.656,4.952.3.145.563-.3.262-.448-2.22-1.073-.685-3.978.146-5.495a8.806,8.806,0,0,1,3.558-3.716c.3-.156.033-.6-.262-.448" transform="translate(-76.862 -140.441)" fill="#434343"/>
        <path id="Path_12585" data-name="Path 12585" d="M96.1,221.659a1.273,1.273,0,0,0,.275,1.5c.242.23.61-.136.367-.367a.746.746,0,0,1-.194-.869c.148-.3-.3-.561-.448-.262" transform="translate(-82.713 -190.941)" fill="#434343"/>
        <path id="Path_12586" data-name="Path 12586" d="M101.34,225.837a.632.632,0,0,1-.009.565c-.159.294.289.556.448.262a1.123,1.123,0,0,0,.061-.965.268.268,0,0,0-.319-.181.261.261,0,0,0-.181.319" transform="translate(-87.312 -194.373)" fill="#434343"/>
        <path id="Path_12587" data-name="Path 12587" d="M106.7,163.185c1.852.308.464,4.127.057,5.23a9.425,9.425,0,0,1-2.76,4.049c-.256.215.113.58.367.367a10.742,10.742,0,0,0,3.32-5.642c.346-1.309,1.221-4.161-.846-4.5-.327-.054-.467.446-.138.5" transform="translate(-89.563 -140.219)" fill="#434343"/>
        <path id="Path_12588" data-name="Path 12588" d="M167.577,189.919a11.745,11.745,0,0,0-4.415,3.734c-.926,1.183-2.383,2.664-1.867,4.287.1.317.6.182.5-.138-.493-1.551,1.5-3.552,2.425-4.628a10.27,10.27,0,0,1,3.619-2.807c.3-.134.041-.582-.262-.448" transform="translate(-138.932 -163.676)" fill="#434343"/>
        <path id="Path_12589" data-name="Path 12589" d="M165.876,235.109a1.85,1.85,0,0,0-.386,2.113c.132.306.579.042.448-.262a1.314,1.314,0,0,1,.3-1.484c.242-.231-.126-.6-.367-.367" transform="translate(-142.494 -202.584)" fill="#434343"/>
        <path id="Path_12590" data-name="Path 12590" d="M170.061,240.974l-.63,1.321c-.143.3.3.564.448.262l.63-1.321c.143-.3-.3-.564-.448-.262" transform="translate(-146.014 -207.588)" fill="#434343"/>
        <path id="Path_12591" data-name="Path 12591" d="M172.845,198.93a11.075,11.075,0,0,0,4.982-4.554c.69-1.225,1.931-3.994-.244-4.465-.326-.071-.465.43-.138.5,2.292.5-.529,4.542-1.2,5.332a10.81,10.81,0,0,1-3.657,2.739c-.3.142-.039.59.262.448" transform="translate(-148.64 -163.684)" fill="#434343"/>
        <path id="Path_12592" data-name="Path 12592" d="M213.113,193.7a7.061,7.061,0,0,1,.8,4.963c-.068.326.433.465.5.138a7.631,7.631,0,0,0-.857-5.363c-.163-.292-.612-.03-.448.262" transform="translate(-183.658 -166.617)" fill="#434343"/>
        <path id="Path_12593" data-name="Path 12593" d="M194.14,166.251a54.554,54.554,0,0,1-1.513,9.54,6.233,6.233,0,0,1-2.547,3.895,3.014,3.014,0,0,1-4.3-1.146c-.143-.3-.591-.038-.448.262,1.393,2.929,5.144,2,6.661-.256a14.93,14.93,0,0,0,1.832-5.743c.387-2.168.609-4.361.831-6.551.034-.332-.486-.33-.519,0" transform="translate(-159.722 -143.083)" fill="#434343"/>
        <path id="Path_12594" data-name="Path 12594" d="M130.807,208.173a31.967,31.967,0,0,0-3.268,9.511c-.057.327.443.467.5.138a31.516,31.516,0,0,1,3.215-9.387c.157-.295-.291-.557-.448-.262" transform="translate(-109.926 -179.319)" fill="#434343"/>
        <path id="Path_12595" data-name="Path 12595" d="M15.623,227.945c-.525,3.78-1.1,7.752-3.541,10.838C10.138,241.245,7.455,243,5.55,245.5c-1.51,1.979-2.773,5.035-.326,6.848,2.564,1.9,5.65.49,8.079-.871a.26.26,0,0,0-.262-.448,10.261,10.261,0,0,1-4.814,1.737,4.021,4.021,0,0,1-3.606-1.875c-1.507-2.952,2.333-6.351,4.235-8.113,1.959-1.816,3.937-3.608,5.122-6.049a28.506,28.506,0,0,0,2.145-8.646c.045-.327-.455-.468-.5-.138" transform="translate(-3.315 -196.311)" fill="#434343"/>
        <path id="Path_12596" data-name="Path 12596" d="M164.324,268.105c-.3,2.268-1.449,4.268-2.034,6.456a8.427,8.427,0,0,0,.55,5.733c.973,2.314,1.841,4.6.612,7.016a6.287,6.287,0,0,1-6.214,3.227c-.333-.025-.332.494,0,.519a6.616,6.616,0,0,0,7.213-7.911,23.852,23.852,0,0,0-1.339-3.548,7.417,7.417,0,0,1-.45-4.369c.506-2.449,1.85-4.62,2.182-7.122.044-.33-.476-.327-.519,0" transform="translate(-135.313 -230.876)" fill="#434343"/>
        <path id="Path_12597" data-name="Path 12597" d="M26.087,408.352a13.149,13.149,0,0,0-2.126,5.373c-.217,1.432-.281,3.15,1.267,3.814.3.13.568-.317.262-.448-1.732-.742-1.1-3.314-.709-4.734a12.85,12.85,0,0,1,1.754-3.743c.187-.278-.263-.538-.448-.262" transform="translate(-20.554 -351.87)" fill="#434343"/>
        <path id="Path_12598" data-name="Path 12598" d="M30.09,459.583a1.635,1.635,0,0,0,1.039,1.913c.311.121.446-.38.138-.5a1.1,1.1,0,0,1-.676-1.275.26.26,0,0,0-.5-.138" transform="translate(-25.891 -395.97)" fill="#434343"/>
        <path id="Path_12599" data-name="Path 12599" d="M36.246,412.776c-.028.491.047,1.2.66,1.292.709.107.948-.761,1.13-1.256a28.341,28.341,0,0,1,4.171-7.556c.2-.264-.247-.523-.448-.262a28.087,28.087,0,0,0-2.778,4.341q-.468.913-.868,1.859-.232.549-.441,1.107-.139.372-.267.748-.8.306-.64-.274c.019-.334-.5-.333-.519,0" transform="translate(-31.237 -348.984)" fill="#434343"/>
        <path id="Path_12600" data-name="Path 12600" d="M65.062,405.6a1.382,1.382,0,0,1,1.746-.162l-.093-.355A28.674,28.674,0,0,0,63.19,415.12c-.425,2.849-.335,6.392,2.742,7.7.3.13.569-.317.262-.448-3.422-1.459-2.835-5.751-2.221-8.7a28.3,28.3,0,0,1,3.191-8.331.264.264,0,0,0-.093-.355,1.872,1.872,0,0,0-2.375.243c-.239.234.128.6.367.367" transform="translate(-54.307 -348.799)" fill="#434343"/>
        <path id="Path_12601" data-name="Path 12601" d="M76.617,521.636a1.581,1.581,0,0,0,1.491,1.56c.334.021.332-.5,0-.519a1.053,1.053,0,0,1-.972-1.041.26.26,0,0,0-.519,0" transform="translate(-66.038 -449.398)" fill="#434343"/>
        <path id="Path_12602" data-name="Path 12602" d="M80.6,429.279a2.686,2.686,0,0,0,1.3,1.075.259.259,0,0,0,.293-.119,29.042,29.042,0,0,0,2.536-7.671,34.346,34.346,0,0,0,.474-3.776c.048-.686.049-1.375.1-2.061a3.778,3.778,0,0,1,.335-1.548c.475-.87,2.053-1.271,2.311.031.065.327.565.189.5-.138a1.61,1.61,0,0,0-2.214-1.143c-1.5.621-1.432,2.485-1.49,3.819a33.129,33.129,0,0,1-.9,6.5,28.7,28.7,0,0,1-.827,2.764q-.334.937-.737,1.848-.167.376-.347.746a.888.888,0,0,1-.883-.587c-.182-.279-.631-.019-.448.262" transform="translate(-69.434 -356.669)" fill="#434343"/>
        <path id="Path_12603" data-name="Path 12603" d="M128.205,423.052a18.269,18.269,0,0,1-.5,7.851,2.022,2.022,0,0,0-.042,1.742.8.8,0,0,0,1.211.263c.267-.195.009-.645-.262-.448q-.812-.529-.466-1.222l.117-.393c.111-.4.211-.794.3-1.2a18.535,18.535,0,0,0,.315-2.106,19.155,19.155,0,0,0-.17-4.627c-.05-.329-.55-.189-.5.138" transform="translate(-109.874 -364.36)" fill="#434343"/>
        <path id="Path_12604" data-name="Path 12604" d="M134.63,487.236a.67.67,0,0,0,.039,1.257.971.971,0,0,0,.919-.165,1.92,1.92,0,0,0,.557-.953c.108-.317-.393-.453-.5-.138-.1.3-.222.689-.566.776a.3.3,0,0,1-.332-.085c-.03-.051-.05-.169.022-.191a.26.26,0,0,0-.138-.5" transform="translate(-115.678 -419.81)" fill="#434343"/>
        <path id="Path_12605" data-name="Path 12605" d="M141.505,440.633c1.332-.381,1.766-1.7,2.1-2.912a23.056,23.056,0,0,0,.819-6.218.26.26,0,0,0-.519,0,22.763,22.763,0,0,1-.492,4.836c-.278,1.281-.575,3.372-2.05,3.794a.26.26,0,0,0,.138.5" transform="translate(-121.691 -371.709)" fill="#434343"/>
        <path id="Path_12606" data-name="Path 12606" d="M107.085,338.1a10.193,10.193,0,0,1-.4,3.213.26.26,0,0,0,.5.138,10.643,10.643,0,0,0,.418-3.351c-.011-.333-.53-.335-.519,0" transform="translate(-91.945 -291.199)" fill="#434343"/>
      </g>
    </g>
    <g id="Group_13851" data-name="Group 13851" transform="translate(3.894 32.652)">
      <g id="Group_13850" data-name="Group 13850" clip-path="url(#clip-path-4)">
        <rect id="Rectangle_85327" data-name="Rectangle 85327" width="27.101" height="32.383" transform="translate(-6.199 10.416) rotate(-59.241)" fill="url(#linear-gradient)"/>
      </g>
    </g>
    <g id="Group_13853" data-name="Group 13853" transform="translate(11.091 50.827)">
      <g id="Group_13852" data-name="Group 13852" clip-path="url(#clip-path-5)">
        <rect id="Rectangle_85328" data-name="Rectangle 85328" width="16.63" height="20.268" transform="translate(-3.22 4.917) rotate(-56.78)" fill="url(#linear-gradient-2)"/>
      </g>
    </g>
    <g id="Group_13855" data-name="Group 13855" transform="translate(31.737 38.609)">
      <g id="Group_13854" data-name="Group 13854" clip-path="url(#clip-path-6)">
        <rect id="Rectangle_85329" data-name="Rectangle 85329" width="5.408" height="4.897" transform="matrix(0.548, -0.837, 0.837, 0.548, -2.111, 3.224)" fill="url(#linear-gradient-3)"/>
      </g>
    </g>
    <g id="Group_13857" data-name="Group 13857" transform="translate(0)">
      <g id="Group_13856" data-name="Group 13856" clip-path="url(#clip-path)">
        <path id="Path_12610" data-name="Path 12610" d="M221.184,315.034a.1.1,0,0,1-.028-.135l.67-1.023a.1.1,0,0,1,.163.107l-.67,1.023a.1.1,0,0,1-.135.028" transform="translate(-190.608 -270.502)" fill="#191818"/>
        <path id="Path_12611" data-name="Path 12611" d="M240.333,294.769a.1.1,0,0,1-.028-.135l.67-1.023a.1.1,0,0,1,.163.107l-.67,1.023a.1.1,0,0,1-.135.028" transform="translate(-207.113 -253.035)" fill="#191818"/>
        <path id="Path_12612" data-name="Path 12612" d="M241.1,284.616a.1.1,0,0,1-.028-.135l.67-1.023a.1.1,0,0,1,.163.107l-.67,1.023a.1.1,0,0,1-.135.028" transform="translate(-207.777 -244.284)" fill="#191818"/>
        <path id="Path_12613" data-name="Path 12613" d="M210.639,315.169a.1.1,0,0,1-.028-.135l.67-1.023a.1.1,0,0,1,.163.107l-.67,1.023a.1.1,0,0,1-.135.028" transform="translate(-181.518 -270.618)" fill="#191818"/>
        <path id="Path_12614" data-name="Path 12614" d="M198.229,313.05a.1.1,0,0,1-.028-.135l.67-1.023a.1.1,0,1,1,.163.107l-.67,1.023a.1.1,0,0,1-.135.028" transform="translate(-170.821 -268.792)" fill="#191818"/>
        <path id="Path_12615" data-name="Path 12615" d="M185.493,308.558a.1.1,0,0,1-.028-.135l.67-1.023a.1.1,0,0,1,.163.107l-.67,1.023a.1.1,0,0,1-.135.028" transform="translate(-159.844 -264.92)" fill="#191818"/>
        <path id="Path_12616" data-name="Path 12616" d="M173.317,303.212a.1.1,0,0,1-.028-.135l.67-1.023a.1.1,0,0,1,.163.107l-.67,1.023a.1.1,0,0,1-.135.028" transform="translate(-149.349 -260.312)" fill="#191818"/>
        <path id="Path_12617" data-name="Path 12617" d="M161.786,296.881a.1.1,0,0,1-.028-.135l.67-1.022a.1.1,0,1,1,.163.107l-.67,1.023a.1.1,0,0,1-.135.028" transform="translate(-139.411 -254.855)" fill="#191818"/>
        <path id="Path_12618" data-name="Path 12618" d="M150.645,289.954a.1.1,0,0,1-.028-.135l.67-1.023a.1.1,0,1,1,.163.107l-.67,1.023a.1.1,0,0,1-.135.028" transform="translate(-129.808 -248.884)" fill="#191818"/>
        <path id="Path_12619" data-name="Path 12619" d="M139.674,282.769a.1.1,0,0,1-.028-.135l.67-1.023a.1.1,0,1,1,.163.107l-.67,1.023a.1.1,0,0,1-.135.028" transform="translate(-120.352 -242.691)" fill="#191818"/>
        <path id="Path_12620" data-name="Path 12620" d="M128.871,275.326a.1.1,0,0,1-.028-.135l.67-1.023a.1.1,0,0,1,.163.107l-.67,1.023a.1.1,0,0,1-.135.028" transform="translate(-111.04 -236.276)" fill="#191818"/>
        <path id="Path_12621" data-name="Path 12621" d="M118.007,267.977a.1.1,0,0,1-.028-.135l.67-1.023a.1.1,0,0,1,.163.107l-.67,1.023a.1.1,0,0,1-.135.028" transform="translate(-101.676 -229.942)" fill="#191818"/>
        <path id="Path_12622" data-name="Path 12622" d="M107.229,260.5a.1.1,0,0,1-.028-.135l.67-1.023a.1.1,0,0,1,.163.107l-.67,1.023a.1.1,0,0,1-.135.028" transform="translate(-92.386 -223.494)" fill="#191818"/>
        <path id="Path_12623" data-name="Path 12623" d="M96.258,253.312a.1.1,0,0,1-.028-.135l.67-1.023a.1.1,0,0,1,.163.107l-.67,1.023a.1.1,0,0,1-.135.028" transform="translate(-82.93 -217.302)" fill="#191818"/>
        <path id="Path_12624" data-name="Path 12624" d="M84.985,246.586a.1.1,0,0,1-.028-.135l.67-1.023a.1.1,0,1,1,.163.107l-.67,1.023a.1.1,0,0,1-.135.028" transform="translate(-73.213 -211.504)" fill="#191818"/>
        <path id="Path_12625" data-name="Path 12625" d="M73.239,240.584a.1.1,0,0,1-.028-.135l.67-1.023a.1.1,0,0,1,.163.107l-.67,1.023a.1.1,0,0,1-.135.028" transform="translate(-63.089 -206.331)" fill="#191818"/>
        <path id="Path_12626" data-name="Path 12626" d="M59.842,237.1a.1.1,0,0,1-.028-.135l.67-1.023a.1.1,0,0,1,.163.107l-.67,1.023a.1.1,0,0,1-.135.028" transform="translate(-51.542 -203.33)" fill="#191818"/>
        <path id="Path_12627" data-name="Path 12627" d="M42.906,239.025a.1.1,0,0,1-.028-.135l.67-1.023a.1.1,0,0,1,.163.107L43.042,239a.1.1,0,0,1-.135.028" transform="translate(-36.944 -204.987)" fill="#191818"/>
        <path id="Path_12628" data-name="Path 12628" d="M184.171,394.047a.1.1,0,0,1-.028-.135l.67-1.023a.1.1,0,0,1,.163.107l-.67,1.023a.1.1,0,0,1-.135.028" transform="translate(-155.705 -338.605)" fill="#191818"/>
        <path id="Path_12629" data-name="Path 12629" d="M174.859,395.031a.1.1,0,0,1-.028-.135l.67-1.023a.1.1,0,0,1,.163.107l-.67,1.023a.1.1,0,0,1-.135.028" transform="translate(-147.679 -339.454)" fill="#191818"/>
        <path id="Path_12630" data-name="Path 12630" d="M165.729,393.777a.1.1,0,0,1-.028-.135l.67-1.023a.1.1,0,0,1,.163.107l-.67,1.023a.1.1,0,0,1-.135.028" transform="translate(-139.809 -338.373)" fill="#191818"/>
        <path id="Path_12631" data-name="Path 12631" d="M157.49,391.165a.1.1,0,0,1-.028-.135l.67-1.023a.1.1,0,0,1,.163.107l-.67,1.023a.1.1,0,0,1-.135.028" transform="translate(-132.707 -336.121)" fill="#191818"/>
        <path id="Path_12632" data-name="Path 12632" d="M149.65,387.941a.1.1,0,0,1-.028-.135l.67-1.023a.1.1,0,0,1,.163.107l-.67,1.023a.1.1,0,0,1-.135.028" transform="translate(-125.95 -333.342)" fill="#191818"/>
        <path id="Path_12633" data-name="Path 12633" d="M141.9,384.585a.1.1,0,0,1-.028-.135l.67-1.023a.1.1,0,1,1,.163.107l-.67,1.023a.1.1,0,0,1-.135.028" transform="translate(-119.269 -330.45)" fill="#191818"/>
        <path id="Path_12634" data-name="Path 12634" d="M134.345,380.922a.1.1,0,0,1-.028-.135l.67-1.023a.1.1,0,0,1,.163.107l-.67,1.023a.1.1,0,0,1-.135.028" transform="translate(-112.758 -327.292)" fill="#191818"/>
        <path id="Path_12635" data-name="Path 12635" d="M126.65,377.478a.1.1,0,0,1-.028-.135l.67-1.023a.1.1,0,0,1,.163.107l-.67,1.023a.1.1,0,0,1-.135.028" transform="translate(-106.126 -324.324)" fill="#191818"/>
        <path id="Path_12636" data-name="Path 12636" d="M118.58,374.606a.1.1,0,0,1-.028-.135l.67-1.023a.1.1,0,0,1,.163.107l-.67,1.023a.1.1,0,0,1-.135.028" transform="translate(-99.17 -321.849)" fill="#191818"/>
        <path id="Path_12637" data-name="Path 12637" d="M110.5,371.751a.1.1,0,0,1-.028-.135l.67-1.023a.1.1,0,0,1,.163.107l-.67,1.023a.1.1,0,0,1-.135.028" transform="translate(-92.206 -319.388)" fill="#191818"/>
        <path id="Path_12638" data-name="Path 12638" d="M101.821,369.809a.1.1,0,0,1-.028-.135l.67-1.023a.1.1,0,1,1,.163.107l-.67,1.023a.1.1,0,0,1-.135.028" transform="translate(-84.725 -317.714)" fill="#191818"/>
        <path id="Path_12639" data-name="Path 12639" d="M92.432,368.951a.1.1,0,0,1-.028-.135l.67-1.023a.1.1,0,0,1,.163.107l-.67,1.023a.1.1,0,0,1-.135.028" transform="translate(-76.632 -316.974)" fill="#191818"/>
        <path id="Path_12640" data-name="Path 12640" d="M82.164,369.436a.1.1,0,0,1-.028-.135l.67-1.023a.1.1,0,0,1,.163.107l-.67,1.023a.1.1,0,0,1-.135.028" transform="translate(-67.782 -317.392)" fill="#191818"/>
        <path id="Path_12641" data-name="Path 12641" d="M23.944,239.29l1.806-2.758a2.072,2.072,0,0,1,.8-.723,4.831,4.831,0,0,1,1.019-.372c2.8-.679,5.424,1.141,9.766,4.156,1.2.835,2.566,1.782,4.085,2.776,6.83,4.473,11.19,4.485,12.481,2.514a4.987,4.987,0,0,0,.59-3.816.189.189,0,0,0-.044-.079c-.108.077-.212.158-.32.233a4.567,4.567,0,0,1-.552,3.448c-1.146,1.75-5.372,1.675-11.941-2.627-1.514-.991-2.875-1.937-4.076-2.77-4.432-3.077-7.108-4.935-10.08-4.214a5.225,5.225,0,0,0-1.1.4,2.462,2.462,0,0,0-.955.858L23.6,239.108a.191.191,0,0,0-.028.068" transform="translate(-20.315 -202.471)" fill="#191818"/>
        <path id="Path_12642" data-name="Path 12642" d="M54.781,263.363a.2.2,0,0,0-.27.056l-1.967,3C51.4,268.173,47.173,268.1,40.6,263.8c-1.514-.992-2.875-1.937-4.076-2.771-4.432-3.077-7.107-4.935-10.08-4.214a4.737,4.737,0,0,0-1.5.619c-.091.146-.187.289-.292.425,0,0,0,.009.006.013a.193.193,0,0,0,.051.048.2.2,0,0,0,.222-.006,4.285,4.285,0,0,1,1.608-.72c2.8-.679,5.424,1.141,9.766,4.156,1.2.835,2.566,1.782,4.085,2.776,6.83,4.473,11.19,4.486,12.481,2.514l1.967-3a.2.2,0,0,0-.056-.27" transform="translate(-21.249 -221.22)" fill="#191818"/>
        <path id="Path_12643" data-name="Path 12643" d="M229.553,294.179a4.353,4.353,0,0,0-.486-3.036.189.189,0,0,0-.027-.03c-.078.051-.159.1-.237.147l-.081.053a.179.179,0,0,0,.012.032,4.028,4.028,0,0,1,.44,2.742.2.2,0,0,0,.379.092" transform="translate(-197.142 -250.919)" fill="#191818"/>
        <path id="Path_12644" data-name="Path 12644" d="M57.412,370.83l-.021-.015a.2.2,0,0,1-.036-.255l2.041-3.116a.2.2,0,0,1,.033-.038c.082-.074,2.06-1.8,6.362-.78a23.057,23.057,0,0,1,4.192,1.632c2.679,1.243,5.209,2.418,7.109,1.113a.2.2,0,0,1,.274.268l-2.041,3.116a.2.2,0,0,1-.053.054c-2.084,1.431-4.712.211-7.494-1.081a22.779,22.779,0,0,0-4.118-1.606c-4.088-.966-5.993.674-6.012.691a.2.2,0,0,1-.237.018m2.3-3.149-1.544,2.357a8.32,8.32,0,0,1,5.587-.3,23.055,23.055,0,0,1,4.193,1.632c2.664,1.237,5.181,2.4,7.077,1.134l1.6-2.442c-1.959.792-4.318-.3-6.8-1.455a22.785,22.785,0,0,0-4.118-1.606c-3.881-.917-5.795.515-5.995.676" transform="translate(-46.409 -315.73)" fill="#191818"/>
      </g>
    </g>
  </g>
</svg>
