<svg xmlns="http://www.w3.org/2000/svg" xmlns:xlink="http://www.w3.org/1999/xlink" width="56.476" height="58.797" viewBox="0 0 56.476 58.797">
  <defs>
    <clipPath id="clip-path">
      <rect id="Rectangle_85320" data-name="Rectangle 85320" width="54.679" height="58.797" fill="none"/>
    </clipPath>
    <clipPath id="clip-path-2">
      <path id="Path_12407" data-name="Path 12407" d="M12.443,48.117l.017-.047-.017.047m.111-.31h0m-1.566-5.629c-.582,4.621,3.219.96,1.472,5.892l.028-.079.038-.107-.083.233c-.115.323-.22.651-.317.981-1.922-1.589-3.232-4.734-1.138-6.92M46.969,11.1c-.976,1.146-.727,4.793-4.42,3.142-1.864-.833-1.217-6.4-4.691-5.006-2.339.939-.857,7.172-1.131,9.073-.563,3.9-2.2,9.391-4.916,12.317-3.754,4.044-9.336,7.348-13.791,10.616.877-9.817-12.377-9.205-15.384-1.761-2.7,6.686,2.291,13.3,8.65,14.791-.666,3.191,1.853,4.147,3.846,5.673,2.734,2.093,4.1,2.747,8.277,3.046.927.066,9.578.794,6.572-2.278,6.442-.316,3.039-1.968-1.362-2.813,1.976-3.33,5.489-4.879,7.368-7.887.153,3.164.118,11.457,3.074,13.548a1.291,1.291,0,0,0,1.038.306c2.078-.377,2.538-7.35,2.586-13.418,2.113,10.278,3,12.653,3.408,12.6.446-.063.131-3.016.463-7.562.444-6.077,2.83-9.849,4.27-15.531.705-2.781-.485-5.47.016-8.016.642-3.259,3.951-4.888,3.271-8.893.066.374.122.691-.008-.046-.14-.794-.08-.452-.012-.066-.631-3.49-2.323-6.779-3.306-10.045C49.95,10.11,49.669,8.92,49.152,8.92c-.424,0-1.006.8-2.182,2.18" transform="translate(-1.887 -8.92)" fill="#fadfba"/>
    </clipPath>
    <clipPath id="clip-path-4">
      <rect id="Rectangle_85324" data-name="Rectangle 85324" width="10.582" height="9.411" transform="translate(0 0)" fill="#580b0b"/>
    </clipPath>
  </defs>
  <g id="Group_13859" data-name="Group 13859" transform="translate(-41.524 -418.137)">
    <g id="Group_13839" data-name="Group 13839" transform="translate(43.321 418.137)">
      <g id="Group_13823" data-name="Group 13823">
        <g id="Group_13822" data-name="Group 13822" clip-path="url(#clip-path)">
          <path id="Path_12397" data-name="Path 12397" d="M54.1,23c-.621-3.515-2.328-6.825-3.318-10.111C49.265,7.835,49.58,8.036,46.969,11.1c-.976,1.146-.727,4.792-4.42,3.142-1.864-.833-1.217-6.4-4.691-5.006-2.339.939-.857,7.172-1.131,9.073-.563,3.9-2.2,9.391-4.916,12.317-3.754,4.043-9.336,7.348-13.791,10.616.877-9.817-12.377-9.205-15.383-1.761-2.7,6.686,2.291,13.3,8.65,14.791-.666,3.191,1.853,4.147,3.846,5.673,2.734,2.093,4.1,2.747,8.277,3.046.927.066,9.578.794,6.572-2.279,6.442-.316,3.039-1.968-1.362-2.813,1.976-3.33,5.489-4.879,7.368-7.887.153,3.164.118,11.457,3.074,13.548a1.291,1.291,0,0,0,1.038.305c2.078-.377,2.538-7.35,2.586-13.417,2.113,10.278,3,12.653,3.408,12.6.446-.063.131-3.016.463-7.562.444-6.077,2.83-9.849,4.27-15.53.705-2.781-.485-5.47.016-8.017.644-3.271,3.976-4.9,3.262-8.939-.29-1.642.278,1.569,0,0M12.443,48.117c-.116.323-.22.651-.317.981-1.922-1.589-3.232-4.734-1.138-6.92-.584,4.635,3.243.936,1.455,5.939h0" transform="translate(-1.426 -6.742)" fill="#f5b054"/>
        </g>
      </g>
      <g id="Group_13825" data-name="Group 13825" transform="translate(0.461 2.179)">
        <g id="Group_13824" data-name="Group 13824" clip-path="url(#clip-path-2)">
          <path id="Path_12398" data-name="Path 12398" d="M164.106,68.436a1.149,1.149,0,0,0-1.359-.868,7.7,7.7,0,0,0-.863-8.681,4.983,4.983,0,0,1-1.044.2,5.777,5.777,0,0,1-2.193-.294c-1.8-.455-2.435,1.178-4.552,1.162-1.955-.015-2.195-1.528-4.236-1.441a4.712,4.712,0,0,0-3.481,1.432c-1.262,1.741-.127,5.6,3.628,8.8.912,1.161,1.054,1.511.977,1.588-.258.258-2.767-2.775-4.823-2.125a2.05,2.05,0,0,0-1.2.994c-.791,1.758,2.237,4.648,2.986,6.238,2.872,6.1-.464,9.66,2.685,20.65.76,2.653,1.746,5.018,3.894,5.971,1.74.772,4.024.52,4.337-.309.342-.905-1.846-1.721-3.064-4.074-1.656-3.2.091-5.408.944-8.625.608-2.292.293-7.37,1.712-8.554,1.247,3.133,3.6,2.568,3.708-.72a31.459,31.459,0,0,0-2.086-7.82c1.838-.261,4.085-1.3,4.031-3.528-.009-.383.054,2.222,0,0" transform="translate(-109.91 -46.398)" fill="#fadfba"/>
          <path id="Path_12399" data-name="Path 12399" d="M180.365,38.718c-1.543-.076-1.407,2.319.12,2.395,1.543.076,1.407-2.32-.12-2.395" transform="translate(-135.939 -31.437)" fill="#fadfba"/>
          <path id="Path_12400" data-name="Path 12400" d="M193.042,36.1c-1.13-.055-1.031,1.7.088,1.754s1.031-1.7-.088-1.754" transform="translate(-145.74 -29.459)" fill="#fadfba"/>
          <path id="Path_12401" data-name="Path 12401" d="M150.135,18.52c-1.6-2.2-3.636,2.224-2.359,3.614,1.987,2.163,3.657-1.837,2.359-3.614h0" transform="translate(-111.833 -15.72)" fill="#fadfba"/>
          <path id="Path_12402" data-name="Path 12402" d="M193.011,15.3c-1.786-2.139-1.727,2-1.756,2.044-.647.888,3.992.634,1.756-2.044h0" transform="translate(-144.948 -13.28)" fill="#fadfba"/>
          <path id="Path_12403" data-name="Path 12403" d="M81.815,148.657a3.044,3.044,0,0,0-5.344,2.076,4.36,4.36,0,0,0-2.01-2.292c-4.265-2.09-12.4,5.477-11.468,6.808a.882.882,0,0,0,.669.321c2.652.286,6.894-8.187,10.4-2.774,2.21,3.407-2.837,9.474-5.258,11.385a16.107,16.107,0,0,1,4.61.234c3.333.668,5.454,2.248,6.556,1.291a1.5,1.5,0,0,0,.45-.92c.326-2.013-2.113-3.371-4.091-3.113.395-.133,4.956-1.755,6.215-6.419a9.431,9.431,0,0,0-.733-6.6" transform="translate(-48.011 -113.725)" fill="#fadfba"/>
          <path id="Path_12404" data-name="Path 12404" d="M17.3,105.783C13.954,96.6,2.35,104.116.5,110.388a12.143,12.143,0,0,0,1.945,10.8c1.011,1.313,7.679,6.609,7.6,1.929-.038-2.138-4.163-3.484-5.261-5.534A8.558,8.558,0,0,1,7.143,107.1c1.279-.987,3.231-2.189,4.97-1.526,1.874.715,1.283,2.452,2.275,3.333.872.774-.051,1.824,1.742,1.708,1.7-.11,1.485-3.988,1.176-4.835h0" transform="translate(-0.461 -78.884)" fill="#fadfba"/>
          <path id="Path_12405" data-name="Path 12405" d="M108.122,218.078c-.433-.65-3.415-.3-3.736,1.192a2.18,2.18,0,0,0,1.308,2.147,2.638,2.638,0,0,0,3.336-1.2c.209-.492.182-1.148-.053-1.256-.283-.13-.788.577-.977.458-.2-.129.38-.957.122-1.344" transform="translate(-79.325 -166.747)" fill="#fadfba"/>
          <path id="Path_12406" data-name="Path 12406" d="M154.765,223.538c-1.38-.916-3.874-2.753-4.446-.2-1.186,5.292,9,3.223,4.446.2h0" transform="translate(-113.985 -169.976)" fill="#fadfba"/>
        </g>
      </g>
      <g id="Group_13827" data-name="Group 13827">
        <g id="Group_13826" data-name="Group 13826" clip-path="url(#clip-path)">
          <path id="Path_12408" data-name="Path 12408" d="M154.291,8.039a37.787,37.787,0,0,0-2.332-4.7c-.405-.681-.969-1.606-1.889-1.133-1.011.52-1.431,2.361-1.672,3.363a12.6,12.6,0,0,0-.182,4.789c.051.349.58.2.53-.146a11.908,11.908,0,0,1,.011-3.663c.133-.806.414-2.6,1.009-3.161,1.321-1.257,2.077.825,2.558,1.738.525,1,1,2.02,1.436,3.06.135.321.667.18.53-.146" transform="translate(-111.898 -1.57)" fill="#545454"/>
          <path id="Path_12409" data-name="Path 12409" d="M170.936,24.4l4.1-.426c.348-.036.352-.586,0-.55l-4.1.426c-.348.036-.352.586,0,.55" transform="translate(-128.979 -17.702)" fill="#545454"/>
          <path id="Path_12410" data-name="Path 12410" d="M188.212,6.1c.209-.866.441-1.724.714-2.573.136-.423.279-.845.434-1.262q.2-.546.429-1.077,1.267-.708,1.5.237a7.552,7.552,0,0,1,.752,2.555c.207,1.022.333,2.058.459,3.092.042.347.592.351.55,0a29.471,29.471,0,0,0-.774-4.478c-.21-.745-.529-2.221-1.413-2.529-.853-.3-1.385.48-1.685,1.156a27.72,27.72,0,0,0-1.494,4.732c-.083.344.447.49.53.146" transform="translate(-141.827 0)" fill="#545454"/>
          <path id="Path_12411" data-name="Path 12411" d="M135.636,35.535a39.807,39.807,0,0,1-3.929,13.455c-.157.316.317.595.474.278a40.594,40.594,0,0,0,4-13.733c.038-.351-.512-.349-.55,0" transform="translate(-99.509 -26.656)" fill="#545454"/>
          <path id="Path_12412" data-name="Path 12412" d="M206.985,29.144a13.028,13.028,0,0,1,.12,16.862c-.225.27.162.661.388.389a13.591,13.591,0,0,0-.12-17.639c-.231-.269-.618.121-.389.389" transform="translate(-156.368 -21.662)" fill="#545454"/>
          <path id="Path_12413" data-name="Path 12413" d="M204.088,53l1.55-.736c.244-.116.678-.475.9-.1a1.465,1.465,0,0,1,.011.57c-.032.642-.364,1.249-1.115,1.044-.61-.167-.961-.767-1.273-1.269-.186-.3-.662-.024-.475.278.45.724,1,1.5,1.928,1.575a1.378,1.378,0,0,0,1.456-1.31c.071-.489.169-1.537-.5-1.673-.378-.076-.788.211-1.109.363l-1.647.782c-.319.152-.041.626.277.475" transform="translate(-153.894 -38.817)" fill="#545454"/>
          <path id="Path_12414" data-name="Path 12414" d="M206.725,54.3a.874.874,0,0,0,.152,1.6c.334.118.478-.413.146-.53a.319.319,0,0,1-.021-.6c.311-.169.034-.643-.278-.475" transform="translate(-155.878 -41.009)" fill="#545454"/>
          <path id="Path_12415" data-name="Path 12415" d="M208.643,53.662c-.31.373-.674.871-.446,1.377a.735.735,0,0,0,1.039.385c.294-.194.019-.67-.278-.475-.145.1-.277-.113-.28-.243a1.142,1.142,0,0,1,.354-.656c.225-.27-.162-.661-.389-.389" transform="translate(-157.283 -40.483)" fill="#545454"/>
          <path id="Path_12416" data-name="Path 12416" d="M211.321,52.338a2.426,2.426,0,0,0-.525,2.128.278.278,0,0,0,.46.121l.509-.437c.269-.231-.121-.618-.389-.389l-.509.437.459.121a1.835,1.835,0,0,1,.383-1.593c.226-.269-.161-.66-.389-.389" transform="translate(-159.255 -39.483)" fill="#545454"/>
          <path id="Path_12417" data-name="Path 12417" d="M213.941,52.4a4.018,4.018,0,0,0-.006,2.021.275.275,0,0,0,.53-.146,3.416,3.416,0,0,1,.006-1.729.275.275,0,0,0-.53-.146" transform="translate(-161.578 -39.449)" fill="#545454"/>
          <path id="Path_12418" data-name="Path 12418" d="M204.376,38.361a1.846,1.846,0,0,0-1.176.907.938.938,0,0,0,.314,1.19c.946.587,1.512-.843,1.293-1.578a.686.686,0,0,0-.967-.426.989.989,0,0,0-.533,1.073.82.82,0,0,0,.842.714.782.782,0,0,0,.755-.713c.008-.444-.543-.875-.932-.538a.506.506,0,0,0,.32.879c.352-.017.354-.567,0-.55.085,0,.079.187.056.235a.264.264,0,0,1-.165.126c-.185.055-.312-.084-.341-.259s.058-.451.254-.483c.24-.039.212.258.194.418a1.412,1.412,0,0,1-.145.523.242.242,0,0,1-.45-.01c-.271-.495.482-.857.826-.98s.188-.65-.146-.53" transform="translate(-153.493 -28.977)" fill="#545454"/>
          <path id="Path_12419" data-name="Path 12419" d="M181.638,45.16a.865.865,0,1,0,.243,1.645.87.87,0,0,0,.315-1.23.828.828,0,0,0-1.262-.048.839.839,0,0,0,.276,1.318.878.878,0,0,0,1.232-.56.935.935,0,0,0-.7-1.181,1,1,0,0,0-1.21.76,1.024,1.024,0,0,0,1,1.238,1.042,1.042,0,0,0,.98-1.261c-.061-.348-.591-.2-.53.146a.478.478,0,0,1-.486.562.464.464,0,0,1-.414-.611.448.448,0,0,1,.68-.237.388.388,0,0,1,0,.642c-.226.151-.62-.123-.473-.385.112-.2.458-.22.493.042a.268.268,0,0,1-.437.261c-.318-.229-.027-.595.292-.552.35.047.346-.5,0-.55" transform="translate(-136.414 -34.065)" fill="#545454"/>
          <path id="Path_12420" data-name="Path 12420" d="M182.856,43.778q0,.2-.008.4l.348-.265c-.238-.084-.183-.487.092-.453.357.044.215.49-.1.459a.277.277,0,0,0-.275.275.281.281,0,0,0,.275.275.831.831,0,0,0,.866-.772.766.766,0,0,0-.7-.777.742.742,0,0,0-.846.576.831.831,0,0,0,.535.948.277.277,0,0,0,.348-.265q0-.2.008-.4a.275.275,0,0,0-.55,0" transform="translate(-137.918 -32.426)" fill="#545454"/>
          <path id="Path_12421" data-name="Path 12421" d="M186.144,48.763a.611.611,0,0,0,.582.623.277.277,0,0,0,.275-.275.28.28,0,0,0-.275-.275c.022,0-.016-.01-.031-.03.01.012,0-.024,0-.043.015-.354-.534-.353-.55,0" transform="translate(-140.671 -36.651)" fill="#545454"/>
          <path id="Path_12422" data-name="Path 12422" d="M179.242,45.565a2,2,0,0,0-2.781.083c-.244.256.144.645.389.389a1.44,1.44,0,0,1,2-.083c.261.238.65-.149.389-.389" transform="translate(-133.295 -34.039)" fill="#545454"/>
          <path id="Path_12423" data-name="Path 12423" d="M204.379,43.638a.623.623,0,1,0,.953.531.275.275,0,1,0-.55,0c0-.011,0,.005-.014.026.017-.03-.026.021-.009.009s-.027.017-.033.02c-.024.012-.035.023-.069,0,.014.01,0,0-.005-.022.014.049,0-.075,0-.019a.516.516,0,0,1,0-.055c0,.047,0-.015,0,0,0,0,.014-.023,0-.014a.283.283,0,0,0,.1-.376.277.277,0,0,0-.376-.1" transform="translate(-154.244 -32.947)" fill="#545454"/>
          <path id="Path_12424" data-name="Path 12424" d="M206.58,38.876a.927.927,0,0,1,.42,1.457c-.218.274.168.665.389.389a1.475,1.475,0,0,0-.531-2.32c-.322-.136-.6.337-.278.475" transform="translate(-156.006 -29.002)" fill="#545454"/>
          <path id="Path_12425" data-name="Path 12425" d="M202.887,45.494l.205-.224a.278.278,0,0,0,0-.389,17.815,17.815,0,0,0-3.691-2.462c-.316-.158-.594.316-.277.475a17.248,17.248,0,0,1,3.58,2.376v-.389l-.205.224c-.238.261.15.651.389.389" transform="translate(-150.375 -32.033)" fill="#545454"/>
          <path id="Path_12426" data-name="Path 12426" d="M188.064,63.39c-1.357-.94-1.561,1.674-.146,1.08.118-.05.165-.217.267-.273a1.524,1.524,0,0,1,.736-.124,10.241,10.241,0,0,0,2.36-.284,4.175,4.175,0,0,0,2.621-2.073c.162-.314-.312-.592-.475-.277-1.056,2.039-3.411,2.108-5.434,2.076a.277.277,0,0,0-.265.2l.058.149c.292.2.567-.274.278-.475" transform="translate(-141.278 -46.325)" fill="#545454"/>
          <path id="Path_12427" data-name="Path 12427" d="M208.894,62.176a2.477,2.477,0,0,0,1.941-2.284c.021-.353-.529-.352-.55,0a1.924,1.924,0,0,1-1.537,1.754c-.346.073-.2.6.146.53" transform="translate(-157.604 -45.061)" fill="#545454"/>
          <path id="Path_12428" data-name="Path 12428" d="M186.374,100.57a15.462,15.462,0,0,1-.5,9.477c-1.259,3.268-3.723,5.712-6.21,8.082-.257.245.132.633.389.389,2.565-2.445,5.058-4.956,6.352-8.325a15.988,15.988,0,0,0,.5-9.769.275.275,0,0,0-.53.146" transform="translate(-135.71 -75.744)" fill="#545454"/>
          <path id="Path_12429" data-name="Path 12429" d="M145.18,125.216c-1.793,4.982-1.788,10.312-1.037,15.5a60.252,60.252,0,0,0,1.569,7.95c.48,1.671,1.651,3.262,3.581,2.91.348-.063.2-.593-.146-.53-2.883.526-3.251-3.926-3.644-5.836a66.3,66.3,0,0,1-1.105-6.9,29.538,29.538,0,0,1,1.313-12.942c.12-.333-.411-.477-.53-.146" transform="translate(-108.571 -94.485)" fill="#545454"/>
          <path id="Path_12430" data-name="Path 12430" d="M163.537,227.869a.477.477,0,0,1,.434.478.275.275,0,0,0,.55,0,1.017,1.017,0,0,0-.837-1.008.284.284,0,0,0-.338.192.277.277,0,0,0,.192.338" transform="translate(-123.435 -171.8)" fill="#545454"/>
          <path id="Path_12431" data-name="Path 12431" d="M166.923,225.876a.835.835,0,0,1,.363,1.018c-.118.334.413.478.53.146a1.385,1.385,0,0,0-.616-1.639.275.275,0,0,0-.277.475" transform="translate(-126.045 -170.309)" fill="#545454"/>
          <path id="Path_12432" data-name="Path 12432" d="M169.407,178.442a31.181,31.181,0,0,1,1.494-16.4c.124-.332-.407-.475-.53-.146a31.722,31.722,0,0,0-1.494,16.692c.062.348.592.2.53-.146" transform="translate(-127.244 -122.206)" fill="#545454"/>
          <path id="Path_12433" data-name="Path 12433" d="M174.5,171.952l-.539.95a.275.275,0,0,0,.475.278l.539-.95a.275.275,0,0,0-.475-.278" transform="translate(-131.434 -129.845)" fill="#545454"/>
          <path id="Path_12434" data-name="Path 12434" d="M190.747,155.339a54.887,54.887,0,0,0-1.757,9.908c-.2,2.405-.553,5.273,1.2,7.215.237.263.625-.127.389-.389-1.789-1.986-1.193-5.328-.951-7.753a54.15,54.15,0,0,1,1.653-8.835.275.275,0,0,0-.53-.146" transform="translate(-142.694 -117.245)" fill="#545454"/>
          <path id="Path_12435" data-name="Path 12435" d="M189.152,223.006a.368.368,0,0,1,.282.522.275.275,0,0,0,.475.278.92.92,0,0,0-.61-1.329c-.346-.056-.495.473-.146.53" transform="translate(-142.794 -168.124)" fill="#545454"/>
          <path id="Path_12436" data-name="Path 12436" d="M185.563,224.506a.572.572,0,0,1,.088.51l.192-.192a.032.032,0,0,1-.037-.009c-.26-.24-.649.148-.389.389a.6.6,0,0,0,.572.15.276.276,0,0,0,.192-.192,1.106,1.106,0,0,0-.144-.933c-.2-.29-.676-.015-.475.277" transform="translate(-140.057 -169.359)" fill="#545454"/>
          <path id="Path_12437" data-name="Path 12437" d="M174.569,193.507c-2.066-.274-2.343-3.333-2.659-4.965a39.7,39.7,0,0,1-.646-5.406c-.019-.352-.569-.354-.55,0a40.2,40.2,0,0,0,1.057,7.351c.388,1.6.945,3.324,2.8,3.569.35.046.346-.5,0-.55" transform="translate(-129.01 -138.198)" fill="#545454"/>
          <path id="Path_12438" data-name="Path 12438" d="M65.622,90.837c-7.226,7.056-19.1,11.55-21.1,22.6-.063.346.467.494.53.146,1.979-10.928,13.806-15.367,20.963-22.357.254-.247-.135-.636-.389-.389" transform="translate(-33.638 -68.586)" fill="#545454"/>
          <path id="Path_12439" data-name="Path 12439" d="M64.527,165.435l-.256.232c-.263.238.127.626.389.389l.256-.232c.263-.238-.127-.626-.389-.389" transform="translate(-48.505 -124.965)" fill="#545454"/>
          <path id="Path_12440" data-name="Path 12440" d="M64.915,150.112c2.878-2.532,13.4-8.609,13.61-.723a12.457,12.457,0,0,1-2.171,6.554,15.191,15.191,0,0,1-6.342,5.715c-.318.154-.04.629.278.475a15.818,15.818,0,0,0,6.843-6.424c1.249-2.186,2.374-4.969,1.8-7.526-1.584-7.09-11.452-1.06-14.409,1.541-.266.234.124.622.389.389" transform="translate(-48.696 -109.464)" fill="#545454"/>
          <path id="Path_12441" data-name="Path 12441" d="M44.432,183.681a9.042,9.042,0,0,0,.084,5.471c.11.334.642.191.53-.146a8.506,8.506,0,0,1-.084-5.178.275.275,0,0,0-.53-.146" transform="translate(-33.289 -138.664)" fill="#545454"/>
          <path id="Path_12442" data-name="Path 12442" d="M47.687,205.579a3.14,3.14,0,0,0,1.176,1.3c.3.188.577-.288.277-.475a2.616,2.616,0,0,1-.979-1.1c-.154-.318-.628-.04-.475.278" transform="translate(-36.015 -155.042)" fill="#545454"/>
          <path id="Path_12443" data-name="Path 12443" d="M52.458,208.834a10.657,10.657,0,0,0,5.712,2.1c.353.024.352-.525,0-.55a10.143,10.143,0,0,1-5.434-2.027c-.284-.211-.558.266-.278.475" transform="translate(-39.554 -157.42)" fill="#545454"/>
          <path id="Path_12444" data-name="Path 12444" d="M56.74,212.417l-.085.077c-.263.238.127.626.389.389l.085-.077c.263-.238-.127-.626-.389-.389" transform="translate(-42.749 -160.47)" fill="#545454"/>
          <path id="Path_12445" data-name="Path 12445" d="M92.034,211.224c1.585,0,8.75.44,7.565,3.315-.135.327.4.469.53.146.543-1.316-.406-2.439-1.6-2.917a18.263,18.263,0,0,0-6.5-1.093.275.275,0,0,0,0,.55" transform="translate(-69.35 -159.209)" fill="#545454"/>
          <path id="Path_12446" data-name="Path 12446" d="M120.042,221.636a.721.721,0,0,1,.316.933c-.156.316.319.6.475.278a1.279,1.279,0,0,0-.514-1.685c-.311-.17-.588.3-.277.475" transform="translate(-90.614 -167.107)" fill="#545454"/>
          <path id="Path_12447" data-name="Path 12447" d="M73.546,217.032l.4.686.275-.275a50.49,50.49,0,0,1-6.965-.168q-1.815-.173-3.612-.485c-1.3-.225-3.764-.354-3.7-2.216.013-.354-.537-.353-.55,0-.1,2.595,3.679,2.7,5.477,2.964a50.352,50.352,0,0,0,9.346.454.278.278,0,0,0,.275-.275,1.326,1.326,0,0,0-.667-1.161c-.295-.2-.57.278-.278.475" transform="translate(-44.882 -161.956)" fill="#545454"/>
          <path id="Path_12448" data-name="Path 12448" d="M102.852,184.327a31.352,31.352,0,0,0,9.665-6.345c.256-.246-.134-.634-.389-.389a30.633,30.633,0,0,1-9.423,6.2c-.321.135-.18.667.146.53" transform="translate(-77.479 -134.15)" fill="#545454"/>
          <path id="Path_12449" data-name="Path 12449" d="M117.9,196.827a6.452,6.452,0,0,0-1.139,2.092.277.277,0,0,0,.265.348c1.165.028,5.938.31,5.364,2.381a.275.275,0,0,0,.53.146c.752-2.714-4.25-3.037-5.894-3.077l.265.348a5.653,5.653,0,0,1,1-1.85c.22-.273-.167-.664-.389-.389" transform="translate(-88.226 -148.673)" fill="#545454"/>
          <path id="Path_12450" data-name="Path 12450" d="M135.783,213.706a.476.476,0,0,1,.208.726c-.233.265.155.655.389.389a1.024,1.024,0,0,0-.319-1.589c-.322-.137-.6.336-.278.475" transform="translate(-102.504 -161.122)" fill="#545454"/>
          <path id="Path_12451" data-name="Path 12451" d="M133.005,215.593a.665.665,0,0,1,.249.595.284.284,0,0,0,.192.338.276.276,0,0,0,.338-.192,1.246,1.246,0,0,0-.5-1.215.277.277,0,0,0-.376.1.281.281,0,0,0,.1.376" transform="translate(-100.41 -162.537)" fill="#545454"/>
          <path id="Path_12452" data-name="Path 12452" d="M123.4,218.166l2.357.138c.353.021.352-.529,0-.55l-2.357-.138c-.353-.021-.352.529,0,.55" transform="translate(-93.057 -164.455)" fill="#545454"/>
          <path id="Path_12453" data-name="Path 12453" d="M15.6,126.093C8.55,125,5.342,116.141,8.249,110.087a8.108,8.108,0,0,1,7.99-4.636,7.8,7.8,0,0,1,4.755,1.752,4.128,4.128,0,0,1,.977,5.144.275.275,0,0,0,.475.278c1.882-3.166-.786-6.388-3.829-7.314a8.993,8.993,0,0,0-9.86,2.9c-4.7,6.182-1.306,17.176,6.7,18.416.346.054.5-.476.146-.53" transform="translate(-5 -79.258)" fill="#545454"/>
          <path id="Path_12454" data-name="Path 12454" d="M40.288,155.791a6.9,6.9,0,0,1-2.141-3.626c-.08-.344-.61-.2-.53.146A7.393,7.393,0,0,0,39.9,156.18c.263.236.652-.152.389-.389" transform="translate(-28.421 -114.845)" fill="#545454"/>
          <path id="Path_12455" data-name="Path 12455" d="M40.609,145.834a4.427,4.427,0,0,1-.119-2.388c.077-.345-.452-.492-.53-.146a4.993,4.993,0,0,0,.119,2.68c.109.335.64.192.53-.146" transform="translate(-30.101 -108.144)" fill="#545454"/>
          <path id="Path_12456" data-name="Path 12456" d="M41.327,141.625a3.552,3.552,0,0,1,.23-2.159,1.181,1.181,0,0,1,.866-.6.666.666,0,0,1,.753.9c-.151.318.323.6.475.277a1.237,1.237,0,0,0-1.5-1.693c-1.446.364-1.485,2.089-1.378,3.275.032.349.582.353.55,0" transform="translate(-30.788 -104.52)" fill="#545454"/>
          <path id="Path_12457" data-name="Path 12457" d="M42.612,140.726a3.2,3.2,0,0,0,2.66,3.681c.346.056.495-.473.146-.53a2.655,2.655,0,0,1-2.276-3.005c.047-.346-.483-.5-.53-.146" transform="translate(-32.177 -106.198)" fill="#545454"/>
          <path id="Path_12458" data-name="Path 12458" d="M210.792,65.086a1.211,1.211,0,0,1-.509.945c-.287.2-.013.679.278.475a1.8,1.8,0,0,0,.781-1.42c.015-.354-.535-.353-.55,0" transform="translate(-158.821 -48.986)" fill="#545454"/>
          <path id="Path_12459" data-name="Path 12459" d="M208.045,70.017l-.678.538a.277.277,0,0,0,0,.389.282.282,0,0,0,.389,0l.678-.538a.277.277,0,0,0,0-.389.282.282,0,0,0-.389,0" transform="translate(-156.649 -52.853)" fill="#545454"/>
          <path id="Path_12460" data-name="Path 12460" d="M161.925,88.2a2.339,2.339,0,0,0,.37,1.943c.205.284.683.01.474-.278a1.8,1.8,0,0,1-.314-1.519c.083-.344-.447-.49-.53-.146" transform="translate(-122.315 -66.502)" fill="#545454"/>
          <path id="Path_12461" data-name="Path 12461" d="M165.3,91.033a2.629,2.629,0,0,0,.281,1.692c.168.312.642.034.475-.278a2,2,0,0,1-.226-1.268c.054-.346-.476-.5-.53-.146" transform="translate(-124.892 -68.645)" fill="#545454"/>
          <path id="Path_12462" data-name="Path 12462" d="M168.2,94.994l.331,1.565c.073.346.6.2.53-.146l-.331-1.565c-.073-.346-.6-.2-.53.146" transform="translate(-127.108 -71.528)" fill="#545454"/>
          <path id="Path_12463" data-name="Path 12463" d="M156.026,17.87c.808.6,1.4-.3,1.515-1.033a5.39,5.39,0,0,0-1.013-3.908c-.2-.286-.681-.011-.475.277a5.141,5.141,0,0,1,.865,1.862,4.794,4.794,0,0,1,.12,1.058c0,.2-.061,1.773-.735,1.269-.284-.212-.558.265-.277.475" transform="translate(-117.822 -9.679)" fill="#545454"/>
          <path id="Path_12464" data-name="Path 12464" d="M197.124,14.845a2.389,2.389,0,0,1-.208-2.79.275.275,0,0,0-.475-.278,2.956,2.956,0,0,0,.294,3.456c.228.271.615-.12.389-.389" transform="translate(-148.132 -8.801)" fill="#545454"/>
        </g>
      </g>
    </g>
    <g id="Group_13838" data-name="Group 13838" transform="translate(41.524 463.653)">
      <g id="Group_13837" data-name="Group 13837" transform="translate(0 0)" clip-path="url(#clip-path-4)">
        <path id="Path_12531" data-name="Path 12531" d="M3.842,39.118c-.438-.112-.883-.2-1.31-.344a7.207,7.207,0,0,1-1.259-.531c-1.677-.952-1.7-2.4-.063-3.472,1.432,1.737,3.393,1.7,5.357,1.546A5.154,5.154,0,0,0,9.43,35.227a.682.682,0,0,1,.642.082,1.681,1.681,0,0,1-.285,2.632,12.676,12.676,0,0,1-2.432,1.015,5.2,5.2,0,0,1-.618.161Z" transform="translate(0 -29.707)" fill="#580b0b"/>
        <path id="Path_12532" data-name="Path 12532" d="M17.487,0a2.066,2.066,0,0,1,1.25,1.6A1.572,1.572,0,0,1,17.21,3.642c-.195.023-.37.2-.555.308a1.708,1.708,0,0,0,.593.248,2.3,2.3,0,0,0,1.743-.88.793.793,0,0,1,.691-.179,1.375,1.375,0,0,1,1,1.28,1.227,1.227,0,0,1-.854,1.294A6.807,6.807,0,0,1,14.9,5.7a1.5,1.5,0,0,1-.367-2.6,5.067,5.067,0,0,1,1.063-.739A3.018,3.018,0,0,0,17.487,0" transform="translate(-11.908 0)" fill="#580b0b"/>
      </g>
    </g>
  </g>
</svg>
