<svg xmlns="http://www.w3.org/2000/svg" width="183.202" height="144.887" viewBox="0 0 183.202 144.887">
  <g id="Group_13158" data-name="Group 13158" transform="translate(-1476.482 -758.047)">
    <g id="Group_12529" data-name="Group 12529" transform="translate(1489.306 853.008)">
      <path id="Path_10413" data-name="Path 10413" d="M1523.5,1086.364c4.73,3.085,10.357,4.292,15.859,5.355,38.209,7.38,77.886,10.436,115.753,1.51,6.813-1.606,13.716-3.683,19.281-8.026s9.59-11.411,8.68-18.547c-1.042-8.161-8.254-14.342-15.964-16.543s-15.888-1.234-23.825-.251l-85.456,10.581c-6.885.852-13.86,2.159-20.779,2.579-3.482.211-10.415-1.495-13.469-.423C1512.034,1066.655,1514.309,1080.5,1523.5,1086.364Z" transform="translate(-1515.742 -1048.779)" fill="#e6e6e6"/>
    </g>
    <g id="Group_12531" data-name="Group 12531" transform="translate(1532.615 763.129)">
      <g id="Group_12530" data-name="Group 12530" transform="translate(0 0)">
        <path id="Path_10414" data-name="Path 10414" d="M1648.689,819.145c1.951,12.141,10.763,22.1,21.327,27.986,9.836,5.478,21.519,7.074,32.6,5.531,15.908-2.215,29.712-13.356,32-29.621,2.376-16.916-4.846-33.284-19.349-42.19-11.948-7.338-27.9-9.986-40.875-3.766C1659.525,784.208,1645.963,802.175,1648.689,819.145Z" transform="translate(-1648.338 -773.606)" fill="#f27647"/>
      </g>
    </g>
    <g id="Group_12538" data-name="Group 12538" transform="translate(1532.617 763.143)">
      <g id="Group_12533" data-name="Group 12533" transform="translate(3.023 5.919)">
        <g id="Group_12532" data-name="Group 12532">
          <path id="Path_10415" data-name="Path 10415" d="M1721.083,792.841c-.609-.366-1.224-.728-1.853-1.07-19.379,9.2-39.343,17.152-60.766,19.639-.3.615-.59,1.234-.863,1.86C1680.03,810.836,1700.86,802.483,1721.083,792.841Z" transform="translate(-1657.6 -791.771)" fill="#bf602b"/>
        </g>
      </g>
      <g id="Group_12535" data-name="Group 12535" transform="translate(4.741 0)">
        <g id="Group_12534" data-name="Group 12534">
          <path id="Path_10416" data-name="Path 10416" d="M1662.86,797.559c12.567-1.487,25.245-6.449,36.87-10.972a168.13,168.13,0,0,0,19.241-8.859q-1.048-.459-2.115-.869-3.821,2.024-7.752,3.843a.67.67,0,0,0-.689-.289,117.63,117.63,0,0,1-11.9.952,61.091,61.091,0,0,0,13.619-6.572c-.844-.193-1.7-.365-2.55-.511-4.944,2.92-10.168,5.368-15.457,6.372a.721.721,0,0,0-.628.76c-.726-.008-1.452,0-2.177-.021,4.818-2.182,9.634-4.434,13.779-7.637-.958-.067-1.918-.106-2.877-.108-4.286,2.92-9.151,5.01-13.9,7.172a.727.727,0,0,0-.406.433c-1.346-.08-2.691-.192-4.036-.318l13.033-6.952a36.489,36.489,0,0,0-6.487,1.456l-9.673,5.159c-.151-.018-.3-.041-.453-.06q-1.028.709-2.031,1.478a118.331,118.331,0,0,0,20.289,1.127,143.048,143.048,0,0,1-24.462,2.46q-.9.864-1.763,1.776a144.389,144.389,0,0,0,31.385-3.492c-.819.332-1.632.673-2.456.993l-2.861,1.112c-.129-.5-19.879,5.349-29.7,5.658-.441.581-.864,1.175-1.28,1.774a79.413,79.413,0,0,0,14.775-1.594,99.27,99.27,0,0,1-16.222,3.814Q1663.391,796.59,1662.86,797.559Z" transform="translate(-1662.86 -773.649)" fill="#bf602b"/>
        </g>
      </g>
      <g id="Group_12537" data-name="Group 12537" transform="translate(0 8.789)">
        <g id="Group_12536" data-name="Group 12536">
          <path id="Path_10417" data-name="Path 10417" d="M1696.072,820.826c6.71,2.295,13.345,4.38,20.5,4.354,5.7-.021,11.328-.991,16.983-1.657-.157-.582-.328-1.157-.509-1.73-4.607.548-9.191,1.277-13.845,1.53-7.48.406-14.357-1.427-21.335-3.761.658-.461,1.331-.9,1.983-1.371a55.585,55.585,0,0,0,14.275,2.133.861.861,0,0,0,1.09.233c.131-.067.258-.141.388-.208a106.746,106.746,0,0,0,16.457-1.338c-.224-.566-.446-1.134-.694-1.689a112.9,112.9,0,0,1-12.427,1.195,88.115,88.115,0,0,0,9.62-6.428c-.315-.5-.654-.977-.989-1.46a86.857,86.857,0,0,1-12.359,7.922c-2.056-.029-4.107-.13-6.139-.353,6.191-2.173,11.213-6.346,16.329-10.42-.37-.445-.747-.884-1.138-1.315-4.992,4-9.925,8.072-16,10.14,2.707-2.17,5.8-3.978,8.315-6.368a48.2,48.2,0,0,0,5.369-6.116c-.432-.4-.864-.809-1.318-1.2a46.794,46.794,0,0,1-6.186,6.883c-3.088,2.794-6.94,4.707-9.809,7.715-1-.193-2-.407-2.987-.666a149.233,149.233,0,0,0,16.7-14.513c.3-.171.591-.367.893-.543-.536-.421-1.07-.843-1.632-1.241-.125.128-.246.262-.372.39q-3.559,1.987-7.294,3.674a.909.909,0,0,0-.432.18,154.031,154.031,0,0,1-15.8,5.935c-6.981,2.248-13.892,4.7-20.947,6.711q-.7.2-1.409.4-.984.271-1.974.527c-1.414.365-2.833.706-4.253,1.047a83.977,83.977,0,0,1-14.8,2.417q-.3.863-.563,1.734a71.854,71.854,0,0,0,10.826-1.721.838.838,0,0,0,.265,1.518,82.337,82.337,0,0,0,14.123,1.385,143.469,143.469,0,0,1-26.628,7.842c-.006.594.012,1.189.044,1.782a143.974,143.974,0,0,0,61.942-28c.84-.376,1.67-.771,2.5-1.168a146.808,146.808,0,0,1-60.03,33.888.886.886,0,0,0,.471,1.707c1.15-.328,2.287-.69,3.427-1.044a.739.739,0,0,0,.6.586c12.823,2.82,28.822-3.446,40.69-8.339,0,.054.012.107.017.161a.962.962,0,0,0-.105.036,61.642,61.642,0,0,1-20.995,7.71c-1.12.2-.644,1.9.471,1.707a62.32,62.32,0,0,0,20.833-7.566c.107.765.235,1.527.388,2.284a.845.845,0,0,0-.471.1A82.606,82.606,0,0,1,1655.92,846.9a.885.885,0,0,0,0,1.77,84.624,84.624,0,0,0,43.055-10.675c.193.775.419,1.546.659,2.315a96.325,96.325,0,0,1-35.926,10.1c-1.128.092-1.138,1.861,0,1.77a99.613,99.613,0,0,0,36.494-10.154,86.871,86.871,0,0,1-42.611,13.352c.507.573,1.033,1.133,1.57,1.679a88.662,88.662,0,0,0,41.67-13.343c.185.468.37.935.571,1.4.212.5.426,1.026.646,1.565-11.975,8-25.942,10.713-39.892,13.145q.89.756,1.816,1.469c13.588-2.393,27.086-5.23,38.76-12.953.3.724.629,1.453.975,2.172a76.877,76.877,0,0,1-32.449,11.9c-1.114.142-1.128,1.913,0,1.77a78.883,78.883,0,0,0,33.265-12.1,11.059,11.059,0,0,0,5.181,5.15c1.052.432,1.511-1.279.47-1.706-4.232-1.738-7.022-10.464-8.333-14.093a32.909,32.909,0,0,1-2.005-14.967c.887.259,1.779.49,2.674.7a53.288,53.288,0,0,0,14.415,33.33c.779.835,2.028-.419,1.251-1.251a51.229,51.229,0,0,1-13.863-31.677c.553.114,1.107.215,1.661.312a.906.906,0,0,0-.164.7,71.941,71.941,0,0,0,9.968,26.851c.6.967,2.129.079,1.528-.894a70.594,70.594,0,0,1-9.786-26.4c.218.033.438.071.656.1a.912.912,0,0,0,.01.359,65.034,65.034,0,0,0,5.733,15.754c2.754,5.22,6.814,9.585,9.461,14.839.513,1.018,2.04.122,1.528-.893-2.34-4.644-5.882-8.511-8.463-13.022a62.593,62.593,0,0,1-6.469-16.813c1.54.183,3.089.3,4.642.395a.819.819,0,0,0-.11.7,89.553,89.553,0,0,0,12.445,27.469.861.861,0,0,0,.506.356c.346-.42.669-.859.994-1.295a88.02,88.02,0,0,1-12.237-27,.79.79,0,0,0-.077-.154c.5.022,1,.028,1.506.041.879,6.588,4.625,13.1,7.588,18.9.519,1.015,2.046.121,1.528-.893-2.817-5.515-6.471-11.71-7.34-17.968,5.019.044,10.079-.265,15.144-.71-.088-.583-.2-1.159-.307-1.736a151.918,151.918,0,0,1-15.59.735,1.021,1.021,0,0,0-.664-.015c-8.306-.17-16.495-1.418-24.319-4.931C1694.475,821.842,1695.276,821.345,1696.072,820.826Zm-16.865,2.139a.834.834,0,0,0-.158-.025,79.876,79.876,0,0,1-17.7-1.277c.825-.193,1.647-.407,2.469-.613a.843.843,0,0,0,.093.033,122.625,122.625,0,0,0,16.966,1.094C1680.32,822.433,1679.772,822.716,1679.207,822.965Zm5.375-2.534a.892.892,0,0,0-.352-.06,120.1,120.1,0,0,1-15.707-.525q.865-.228,1.731-.454c.209-.055.419-.114.628-.169a.917.917,0,0,0,.357.095q5.587.343,11.179.665c.846.049,1.721.157,2.6.225C1684.868,820.28,1684.727,820.359,1684.582,820.431Zm4.55-2.349a.869.869,0,0,0-.607.056c-2.162,1.039-5.933.087-8.205-.046q-2.143-.125-4.286-.257c6.808-1.868,13.583-3.872,20.281-6.093q3.7-1.226,7.334-2.605A140.883,140.883,0,0,1,1689.132,818.082Zm9.032,7.885a.936.936,0,0,0-.078.243,30.9,30.9,0,0,0-.174,3.925c-10.962,4.526-26.428,10.646-38.551,8.772a149,149,0,0,0,32.607-15.435.806.806,0,0,0,.182.135A53.153,53.153,0,0,0,1698.164,825.967Z" transform="translate(-1648.346 -800.556)" fill="#bf602b"/>
        </g>
      </g>
    </g>
    <g id="Group_12540" data-name="Group 12540" transform="translate(1530.925 788.266)">
      <g id="Group_12539" data-name="Group 12539" transform="translate(0)">
        <path id="Path_10418" data-name="Path 10418" d="M1661.558,874.811a46.412,46.412,0,0,1,22.537-14.413c1.659-.467,3.6-.793,4.976.245,1.635,1.232,1.585,3.7,1.077,5.679-2.139,8.323-9.378,14.847-10.543,23.362-.377,2.754.461,6.258,3.168,6.886a4.738,4.738,0,0,0,4.55-1.977,18.174,18.174,0,0,0,2.276-4.695,39.794,39.794,0,0,1,12.132-16.374c3.413-2.719,7.288-4.886,10.322-8.022a22.472,22.472,0,0,0,6.251-14.936c5.271,6.058,5.915,15.094,3.646,22.8s-7.029,14.391-11.734,20.9c-4.507,6.236-9.236,12.636-15.9,16.486-5.717,3.3-12.474,4.462-19.075,4.346-7.635-.133-15.414-1.991-21.615-6.446s-10.606-11.748-10.454-19.382c.1-5.085,2.123-9.9,3.652-14.751,1.466-4.65,2.466-9.69.918-14.451-.869-2.671-3.1-8.166,2.313-7.5,3.55.436,6.493,6.247,7.944,9.081A32.381,32.381,0,0,1,1661.558,874.811Z" transform="translate(-1643.166 -850.566)" fill="#eb854c"/>
      </g>
    </g>
    <g id="Group_12542" data-name="Group 12542" transform="translate(1490.778 780.279)">
      <g id="Group_12541" data-name="Group 12541" transform="translate(0)">
        <path id="Path_10419" data-name="Path 10419" d="M1634.663,826.553a3.449,3.449,0,0,0-4.855,4.339,17.283,17.283,0,0,0,1.1,2.152c1.62,2.715,3.723,5.3,4.179,8.431.609,4.166-1.924,8.213-5.1,10.979s-7.021,4.65-10.339,7.242a30.5,30.5,0,0,0-11.108,20.99c-.3-.015-.617-.052-.932-.087a1.12,1.12,0,0,1-1,1.213c-10.932,1.745-27.05-4.012-35.475-13.366a55.624,55.624,0,0,1-18.05,12.183c-.058.029-.116.064-.176.093a32.818,32.818,0,0,1-17.759,3.165,1.442,1.442,0,0,1-.489-.151,49.117,49.117,0,0,1-14.2-2.958c-2.175,14.423,12.9,33.374,22.544,42.052,10.962,9.839,25.022,15.748,39.43,18.815,13.24,2.82,27.2,3.335,40.192-.485,24.421-7.183,43.117-30.678,44.63-56.089C1668.662,861.54,1655.238,837.889,1634.663,826.553Z" transform="translate(-1520.252 -826.111)" fill="#f6b154"/>
      </g>
    </g>
    <g id="Group_12544" data-name="Group 12544" transform="translate(1530.327 796.407)">
      <g id="Group_12543" data-name="Group 12543" transform="translate(0)">
        <path id="Path_10420" data-name="Path 10420" d="M1641.334,912.754c8.164-3.713,13.523-11.54,18.851-18.756,5.879-7.963,12.684-14.5,22.274-17.713,2.7-.9,7.612-1.907,8.037,2.347.512,5.139-6.254,11.712-8.591,15.9-5.677,10.172-10.707,22.269-7.579,34.055-6.745.777-13.724,1.535-20.209-.48S1641.478,919.542,1641.334,912.754Z" transform="translate(-1641.334 -875.49)" fill="#f6b154"/>
      </g>
    </g>
    <g id="Group_12546" data-name="Group 12546" transform="translate(1613.118 758.047)">
      <g id="Group_12545" data-name="Group 12545" transform="translate(0)">
        <path id="Path_10421" data-name="Path 10421" d="M1894.808,878.334c21.61-1.989,40.958-19.147,45.514-40.367s-6.04-44.808-24.93-55.493c-4.376-2.476-9.825-5.335-9.932-10.362-.084-3.965,3.44-7.955,1.68-11.508-1.206-2.436-4.618-3.181-7.074-2.02a9.206,9.206,0,0,0-4.605,6.393c-1.57,6.722,1.938,13.672,6.594,18.767a172.032,172.032,0,0,0,15.122,14.126c13.771,11.841,13.155,30.769,10.242,43.868s-12.8,18.123-25.178,23.312C1902.83,870.18,1898.811,875.075,1894.808,878.334Z" transform="translate(-1894.808 -758.047)" fill="#f6b154"/>
      </g>
    </g>
    <g id="Group_12689" data-name="Group 12689" transform="translate(1476.482 765.08)">
      <g id="Group_12549" data-name="Group 12549" transform="translate(2.943 16.203)">
        <g id="Group_12548" data-name="Group 12548">
          <g id="Group_12547" data-name="Group 12547">
            <path id="Path_10422" data-name="Path 10422" d="M1486.117,856.948c2.659-12.195,9.822-21.336,21.537-25.64,10.411-3.824,22.747-2.492,31.676,4.086s13.893,18.417,11.615,29.271c-.559,2.664-1.5,5.316-2.035,7.975-1.811,1.716-3.705,3.327-5.667,4.85-4.4,1.567-4.66,5.76-9.018,7.467a67.283,67.283,0,0,1-21.761,4.4c-6.441.264-12.657.433-17.722-4.011C1487.252,878.778,1484.027,866.538,1486.117,856.948Z" transform="translate(-1485.492 -829.186)" fill="#f9d2a5"/>
          </g>
        </g>
      </g>
      <g id="Group_12552" data-name="Group 12552" transform="translate(35.107 0.042)">
        <g id="Group_12551" data-name="Group 12551">
          <g id="Group_12550" data-name="Group 12550">
            <path id="Path_10423" data-name="Path 10423" d="M1586.684,799.071q-1.542-6.67-2.523-13.452a9.173,9.173,0,0,1-.06-3.348,3.234,3.234,0,0,1,2.061-2.463c1.49-.435,2.974.624,4.125,1.667a53.224,53.224,0,0,1,13.583,19.461C1598.4,798.544,1592.63,798.5,1586.684,799.071Z" transform="translate(-1583.967 -779.708)" fill="#f9d2a5"/>
          </g>
        </g>
      </g>
      <g id="Group_12555" data-name="Group 12555" transform="translate(33.014 0)">
        <g id="Group_12554" data-name="Group 12554">
          <g id="Group_12553" data-name="Group 12553">
            <path id="Path_10424" data-name="Path 10424" d="M1582.252,779.608a3.517,3.517,0,0,0-3.276,1.669,8.4,8.4,0,0,0-1.15,3.668c-.616,4.79-.059,9.647.6,14.431,1.771.16,4.07-.1,5.842.065C1581.261,793.562,1579.769,785.729,1582.252,779.608Z" transform="translate(-1577.559 -779.579)" fill="#f6b154"/>
          </g>
        </g>
      </g>
      <g id="Group_12558" data-name="Group 12558" transform="translate(2.744 11.532)">
        <g id="Group_12557" data-name="Group 12557">
          <g id="Group_12556" data-name="Group 12556">
            <path id="Path_10425" data-name="Path 10425" d="M1489.021,841.764a70.7,70.7,0,0,1-4.131-21.843c-.056-1.937.312-4.37,2.167-4.932,1.523-.462,3.018.7,4.188,1.779l11.14,10.266A50.485,50.485,0,0,0,1489.021,841.764Z" transform="translate(-1484.885 -814.885)" fill="#f9d2a5"/>
          </g>
        </g>
      </g>
      <g id="Group_12561" data-name="Group 12561" transform="translate(5.064 10.771)">
        <g id="Group_12560" data-name="Group 12560">
          <g id="Group_12559" data-name="Group 12559">
            <path id="Path_10426" data-name="Path 10426" d="M1495.868,813.083a13.411,13.411,0,0,1,3.321,2.436l9.652,8.737-4.6,2.779c.515-.31-4.625-7.134-5.142-7.719-2.139-2.423-4.754-4.081-7.111-6.2C1492.863,812.17,1494.816,812.605,1495.868,813.083Z" transform="translate(-1491.985 -812.556)" fill="#f6b154"/>
          </g>
        </g>
      </g>
      <g id="Group_12564" data-name="Group 12564" transform="translate(2.918 16.203)">
        <g id="Group_12563" data-name="Group 12563">
          <g id="Group_12562" data-name="Group 12562">
            <path id="Path_10427" data-name="Path 10427" d="M1513.482,853.867c-3.3,2.5-4.494,6.813-6.407,10.482a26.45,26.45,0,0,1-13.055,12.027,18.219,18.219,0,0,1-4.9,1.327,30.575,30.575,0,0,1-3.053-20.755c2.659-12.195,9.822-21.336,21.537-25.64,10.411-3.824,22.747-2.492,31.676,4.086a30.429,30.429,0,0,1,12.05,21.556,5.184,5.184,0,0,1-2.711,1.64,15.273,15.273,0,0,1-9.044-.081c-4.45-1.3-8.42-3.883-12.782-5.457S1517.179,851.07,1513.482,853.867Z" transform="translate(-1485.415 -829.186)" fill="#f6b154"/>
          </g>
        </g>
      </g>
      <g id="Group_12569" data-name="Group 12569" transform="translate(10.93 37.069)">
        <g id="Group_12566" data-name="Group 12566" transform="translate(0.575 0.572)">
          <g id="Group_12565" data-name="Group 12565">
            <path id="Path_10428" data-name="Path 10428" d="M1512.479,898.129a6.411,6.411,0,0,1,8.707-2.529,6.411,6.411,0,0,1,2.528,8.706,6.41,6.41,0,0,1-8.705,2.528,6.408,6.408,0,0,1-2.529-8.7Z" transform="translate(-1511.705 -894.82)" fill="#fff"/>
          </g>
        </g>
        <g id="Group_12568" data-name="Group 12568">
          <g id="Group_12567" data-name="Group 12567">
            <path id="Path_10429" data-name="Path 10429" d="M1513.546,906.159a6.986,6.986,0,0,1-2.743-9.507,6.985,6.985,0,0,1,9.474-2.735,6.987,6.987,0,0,1,2.743,9.507,6.985,6.985,0,0,1-9.474,2.734Zm-1.76-8.911a6.01,6.01,0,0,0-.473,4.443,5.937,5.937,0,0,0,2.787,3.461,6.039,6.039,0,0,0,4.439.491,6.107,6.107,0,0,0,3.5-2.814,6.017,6.017,0,0,0,.471-4.443,5.948,5.948,0,0,0-2.785-3.461,5.836,5.836,0,0,0-7.937,2.323Z" transform="translate(-1509.945 -893.07)" fill="#1d1d1b"/>
          </g>
        </g>
      </g>
      <g id="Group_12572" data-name="Group 12572" transform="translate(13.623 39.741)">
        <g id="Group_12571" data-name="Group 12571">
          <g id="Group_12570" data-name="Group 12570">
            <path id="Path_10430" data-name="Path 10430" d="M1521.262,901.408a4.31,4.31,0,1,1-2.936,5.34A4.358,4.358,0,0,1,1521.262,901.408Z" transform="translate(-1518.192 -901.25)"/>
          </g>
        </g>
      </g>
      <g id="Group_12577" data-name="Group 12577" transform="translate(44.893 26.449)">
        <g id="Group_12574" data-name="Group 12574" transform="translate(0.575 0.572)">
          <g id="Group_12573" data-name="Group 12573">
            <path id="Path_10431" data-name="Path 10431" d="M1616.462,865.615a6.411,6.411,0,0,1,8.7-2.528,6.409,6.409,0,0,1,2.529,8.706,6.409,6.409,0,0,1-8.705,2.529,6.409,6.409,0,0,1-2.529-8.706Z" transform="translate(-1615.688 -862.307)" fill="#fff"/>
          </g>
        </g>
        <g id="Group_12576" data-name="Group 12576">
          <g id="Group_12575" data-name="Group 12575">
            <path id="Path_10432" data-name="Path 10432" d="M1617.529,873.646a6.988,6.988,0,0,1-2.743-9.508,6.983,6.983,0,0,1,9.473-2.734,6.987,6.987,0,0,1,2.743,9.507,6.984,6.984,0,0,1-9.473,2.735Zm-1.761-8.912a6.038,6.038,0,0,0-.471,4.443,5.943,5.943,0,0,0,2.787,3.461,6.047,6.047,0,0,0,4.44.491,6.113,6.113,0,0,0,3.5-2.813,6.032,6.032,0,0,0,.471-4.444,5.943,5.943,0,0,0-2.787-3.461,6.042,6.042,0,0,0-4.439-.491A6.111,6.111,0,0,0,1615.768,864.734Z" transform="translate(-1613.929 -860.556)" fill="#1d1d1b"/>
          </g>
        </g>
      </g>
      <g id="Group_12580" data-name="Group 12580" transform="translate(47.585 29.121)">
        <g id="Group_12579" data-name="Group 12579">
          <g id="Group_12578" data-name="Group 12578">
            <path id="Path_10433" data-name="Path 10433" d="M1625.242,868.9a4.309,4.309,0,1,1-2.937,5.34A4.357,4.357,0,0,1,1625.242,868.9Z" transform="translate(-1622.17 -868.737)"/>
          </g>
        </g>
      </g>
      <g id="Group_12583" data-name="Group 12583" transform="translate(29.435 35.876)">
        <g id="Group_12582" data-name="Group 12582">
          <g id="Group_12581" data-name="Group 12581">
            <path id="Path_10434" data-name="Path 10434" d="M1566.649,894.247a1.382,1.382,0,0,1,.816-1.69c1.337-.629,2.928-.422,4.2-1.084a25.746,25.746,0,0,1,3.014-1.892c1.484-.53,3.067.258,2.979,1.94a6.044,6.044,0,0,1-4.6,5.313,6.718,6.718,0,0,1-4.7-.375A3.727,3.727,0,0,1,1566.649,894.247Z" transform="translate(-1566.6 -889.418)" fill="#1d1d1b"/>
          </g>
        </g>
      </g>
      <g id="Group_12587" data-name="Group 12587" transform="translate(35.272 41.126)">
        <g id="Group_12586" data-name="Group 12586">
          <g id="Group_12585" data-name="Group 12585">
            <g id="Group_12584" data-name="Group 12584">
              <path id="Path_10435" data-name="Path 10435" d="M1585.184,905.658a16.878,16.878,0,0,1,1.412,3.173,9.2,9.2,0,0,1,.979,3.312c-.012.341-.464.612-.727.318a8.7,8.7,0,0,1-1.355-3.043,17.793,17.793,0,0,1-1.018-3.555C1584.422,905.471,1585,905.364,1585.184,905.658Z" transform="translate(-1584.472 -905.49)" fill="#1d1d1b"/>
            </g>
          </g>
        </g>
      </g>
      <g id="Group_12591" data-name="Group 12591" transform="translate(32.858 43.12)">
        <g id="Group_12590" data-name="Group 12590">
          <g id="Group_12589" data-name="Group 12589">
            <g id="Group_12588" data-name="Group 12588">
              <path id="Path_10436" data-name="Path 10436" d="M1585.062,911.971c1.864,4.464-6.151,7.658-7.94,2.918-.26-.692.845-1.01,1.1-.321,1.254,3.325,7.038.848,5.733-2.276C1583.674,911.61,1584.781,911.295,1585.062,911.971Z" transform="translate(-1577.082 -911.595)" fill="#1d1d1b"/>
            </g>
          </g>
        </g>
      </g>
      <g id="Group_12594" data-name="Group 12594" transform="translate(52.394 28.907)">
        <g id="Group_12593" data-name="Group 12593">
          <g id="Group_12592" data-name="Group 12592">
            <path id="Path_10437" data-name="Path 10437" d="M1638.539,868.1a1.577,1.577,0,0,1,.153.041.638.638,0,0,1,.368.1,1.942,1.942,0,0,1,.4.38c.021.016.045.027.065.043a.594.594,0,0,1,.236.546,1.36,1.36,0,0,1-.014.668,1.59,1.59,0,0,1-.125.3,1.312,1.312,0,0,1-1.846.839C1636.283,870.35,1636.779,867.811,1638.539,868.1Z" transform="translate(-1636.892 -868.081)" fill="#fff"/>
          </g>
        </g>
      </g>
      <g id="Group_12597" data-name="Group 12597" transform="translate(17.358 39.084)">
        <g id="Group_12596" data-name="Group 12596">
          <g id="Group_12595" data-name="Group 12595">
            <path id="Path_10438" data-name="Path 10438" d="M1531.273,899.261c.053.009.1.028.152.041a.626.626,0,0,1,.367.1,1.48,1.48,0,0,1,.292.257,1.448,1.448,0,0,1,.107.123.623.623,0,0,1,.3.59,1.338,1.338,0,0,1-.013.667,1.4,1.4,0,0,1-.125.3,1.31,1.31,0,0,1-1.844.839C1529.017,901.507,1529.511,898.967,1531.273,899.261Z" transform="translate(-1529.626 -899.238)" fill="#fff"/>
          </g>
        </g>
      </g>
      <g id="Group_12607" data-name="Group 12607" transform="translate(16.218 16.208)">
        <g id="Group_12600" data-name="Group 12600" transform="translate(0 4.599)">
          <g id="Group_12599" data-name="Group 12599">
            <g id="Group_12598" data-name="Group 12598">
              <path id="Path_10439" data-name="Path 10439" d="M1529.692,843.283a25.231,25.231,0,0,1,2.264,3.056c.724,1.152,2.168,2.856,1.825,4.307a1.023,1.023,0,0,1-.726.752c-1.947.32-3.333-2.047-4.506-3.309-.762-.82-1.594-1.633-2.413-2.465A32.716,32.716,0,0,1,1529.692,843.283Z" transform="translate(-1526.136 -843.283)" fill="#f6b154"/>
            </g>
          </g>
        </g>
        <g id="Group_12603" data-name="Group 12603" transform="translate(6.906 1.176)">
          <g id="Group_12602" data-name="Group 12602">
            <g id="Group_12601" data-name="Group 12601">
              <path id="Path_10440" data-name="Path 10440" d="M1547.28,834.542c.646-.28,1.3-.549,1.98-.8,1-.366,2.016-.67,3.044-.941.834,1.676,1.517,3.457,2.214,5.108.636,1.505,2.8,5.145.432,6.272-2.127,1.011-3.52-2.094-4.324-3.411A70.47,70.47,0,0,1,1547.28,834.542Z" transform="translate(-1547.28 -832.803)" fill="#f6b154"/>
            </g>
          </g>
        </g>
        <g id="Group_12606" data-name="Group 12606" transform="translate(16.528)">
          <g id="Group_12605" data-name="Group 12605">
            <g id="Group_12604" data-name="Group 12604">
              <path id="Path_10441" data-name="Path 10441" d="M1580.779,837.789c-2.124-2.191-3.148-5.29-4.041-8.307a35.727,35.727,0,0,1,4.8-.279,36.288,36.288,0,0,1,1.01,4.03c.318,1.539.518,2.914-.292,4.326A.953.953,0,0,1,1580.779,837.789Z" transform="translate(-1576.738 -829.202)" fill="#f6b154"/>
            </g>
          </g>
        </g>
      </g>
      <g id="Group_12608" data-name="Group 12608" transform="translate(8.314 12.9)">
        <path id="Path_10442" data-name="Path 10442" d="M1609.633,820.5c-.824-.127-1.162.424-1.271,1.2a19.53,19.53,0,0,0-1.775-2.408c-.449-.515-1.164-.012-1.213.531-.193,2.143.95,3.915,2.163,5.577a.753.753,0,0,0,1.147.072.792.792,0,0,0,1.1.35.69.69,0,0,0,1.266-.2C1611.256,824.344,1611.536,820.793,1609.633,820.5Z" transform="translate(-1571.575 -819.073)" fill="#f6b154"/>
        <path id="Path_10443" data-name="Path 10443" d="M1505.7,845.776a.725.725,0,0,0-1.064.639,21.322,21.322,0,0,0,.22,3.512c-.107-.08-.2-.171-.318-.241-.641-.389-1.74-.818-2.333-.137-.659.755.062,1.835.613,2.414a4.358,4.358,0,0,0,2.886,1.3.734.734,0,0,0,1.177-.74c-.068-.233-.117-.467-.176-.7a.733.733,0,0,0,.946-.672C1507.707,849.126,1507.514,846.993,1505.7,845.776Z" transform="translate(-1501.938 -836.984)" fill="#f6b154"/>
      </g>
      <g id="Group_12612" data-name="Group 12612" transform="translate(35.789 28.023)">
        <g id="Group_12611" data-name="Group 12611">
          <g id="Group_12610" data-name="Group 12610">
            <g id="Group_12609" data-name="Group 12609">
              <path id="Path_10444" data-name="Path 10444" d="M1587.492,866.057q.041.789.08,1.578c.047.923-1.39.943-1.436.02q-.041-.789-.08-1.577C1586.009,865.154,1587.445,865.133,1587.492,866.057Z" transform="translate(-1586.055 -865.375)" fill="#e98600"/>
            </g>
          </g>
        </g>
      </g>
      <g id="Group_12616" data-name="Group 12616" transform="translate(30.893 30.448)">
        <g id="Group_12615" data-name="Group 12615">
          <g id="Group_12614" data-name="Group 12614">
            <g id="Group_12613" data-name="Group 12613">
              <path id="Path_10445" data-name="Path 10445" d="M1572.507,873.471a3.215,3.215,0,0,0,.483,1.274.719.719,0,0,1-1.224.754,4.977,4.977,0,0,1-.7-2.007C1570.947,872.578,1572.384,872.564,1572.507,873.471Z" transform="translate(-1571.064 -872.798)" fill="#e98600"/>
            </g>
          </g>
        </g>
      </g>
      <g id="Group_12620" data-name="Group 12620" transform="translate(25.6 30.535)">
        <g id="Group_12619" data-name="Group 12619">
          <g id="Group_12618" data-name="Group 12618">
            <g id="Group_12617" data-name="Group 12617">
              <path id="Path_10446" data-name="Path 10446" d="M1556.18,873.415l.759,1.384c.444.809-.778,1.564-1.224.753-.251-.461-.506-.923-.759-1.384C1554.514,873.358,1555.736,872.6,1556.18,873.415Z" transform="translate(-1554.861 -873.066)" fill="#e98600"/>
            </g>
          </g>
        </g>
      </g>
      <g id="Group_12624" data-name="Group 12624" transform="translate(24.967 34.127)">
        <g id="Group_12623" data-name="Group 12623">
          <g id="Group_12622" data-name="Group 12622">
            <g id="Group_12621" data-name="Group 12621">
              <path id="Path_10447" data-name="Path 10447" d="M1554.171,884.218a5.022,5.022,0,0,1,1.5,1.778c.417.82-.8,1.578-1.224.753a4.108,4.108,0,0,0-1.26-1.489C1552.441,884.708,1553.438,883.673,1554.171,884.218Z" transform="translate(-1552.922 -884.064)" fill="#e98600"/>
            </g>
          </g>
        </g>
      </g>
      <g id="Group_12628" data-name="Group 12628" transform="translate(34.444 33.785)">
        <g id="Group_12627" data-name="Group 12627">
          <g id="Group_12626" data-name="Group 12626">
            <g id="Group_12625" data-name="Group 12625">
              <path id="Path_10448" data-name="Path 10448" d="M1583.346,883.515q.161.551.321,1.1a.719.719,0,0,1-1.381.4q-.158-.552-.319-1.1A.718.718,0,0,1,1583.346,883.515Z" transform="translate(-1581.935 -883.016)" fill="#e98600"/>
            </g>
          </g>
        </g>
      </g>
      <g id="Group_12632" data-name="Group 12632" transform="translate(30.627 35.706)">
        <g id="Group_12631" data-name="Group 12631">
          <g id="Group_12630" data-name="Group 12630">
            <g id="Group_12629" data-name="Group 12629">
              <path id="Path_10449" data-name="Path 10449" d="M1571.691,889.575a.873.873,0,0,0,.249.556c.625.677-.362,1.722-.989,1.043a2.513,2.513,0,0,1-.7-1.579C1570.174,888.675,1571.612,888.656,1571.691,889.575Z" transform="translate(-1570.252 -888.895)" fill="#e98600"/>
            </g>
          </g>
        </g>
      </g>
      <g id="Group_12636" data-name="Group 12636" transform="translate(38.964 26.688)">
        <g id="Group_12635" data-name="Group 12635">
          <g id="Group_12634" data-name="Group 12634">
            <g id="Group_12633" data-name="Group 12633">
              <path id="Path_10450" data-name="Path 10450" d="M1597.185,861.786l.32,1.1a.718.718,0,0,1-1.379.4l-.321-1.1A.718.718,0,0,1,1597.185,861.786Z" transform="translate(-1595.774 -861.288)" fill="#e98600"/>
            </g>
          </g>
        </g>
      </g>
      <g id="Group_12640" data-name="Group 12640" transform="translate(40.093 31.958)">
        <g id="Group_12639" data-name="Group 12639">
          <g id="Group_12638" data-name="Group 12638">
            <g id="Group_12637" data-name="Group 12637">
              <path id="Path_10451" data-name="Path 10451" d="M1600.675,878.1q.07.578.137,1.157c.107.916-1.331.932-1.438.02q-.068-.578-.136-1.157C1599.132,877.2,1600.568,877.186,1600.675,878.1Z" transform="translate(-1599.233 -877.423)" fill="#e98600"/>
            </g>
          </g>
        </g>
      </g>
      <g id="Group_12644" data-name="Group 12644" transform="translate(32.013 1.383)">
        <g id="Group_12643" data-name="Group 12643">
          <g id="Group_12642" data-name="Group 12642">
            <g id="Group_12641" data-name="Group 12641">
              <path id="Path_10452" data-name="Path 10452" d="M1575.486,788.025l-.962-3.311a.719.719,0,0,1,1.379-.4l.962,3.311A.719.719,0,0,1,1575.486,788.025Z" transform="translate(-1574.492 -783.814)" fill="#f6b154"/>
            </g>
          </g>
        </g>
      </g>
      <g id="Group_12648" data-name="Group 12648" transform="translate(31.181 6.203)">
        <g id="Group_12647" data-name="Group 12647">
          <g id="Group_12646" data-name="Group 12646">
            <g id="Group_12645" data-name="Group 12645">
              <path id="Path_10453" data-name="Path 10453" d="M1573.613,802.579l-1.572-2.9c-.44-.811.783-1.567,1.223-.754q.788,1.453,1.573,2.906C1575.275,802.637,1574.054,803.394,1573.613,802.579Z" transform="translate(-1571.948 -798.571)" fill="#f6b154"/>
            </g>
          </g>
        </g>
      </g>
      <g id="Group_12652" data-name="Group 12652" transform="translate(31.739 10.618)">
        <g id="Group_12651" data-name="Group 12651">
          <g id="Group_12650" data-name="Group 12650">
            <g id="Group_12649" data-name="Group 12649">
              <path id="Path_10454" data-name="Path 10454" d="M1575.783,815.751a18.028,18.028,0,0,1-2.011-2.583c-.5-.78.725-1.531,1.224-.753a16.023,16.023,0,0,0,1.775,2.294C1577.4,815.383,1576.414,816.428,1575.783,815.751Z" transform="translate(-1573.654 -812.087)" fill="#f6b154"/>
            </g>
          </g>
        </g>
      </g>
      <g id="Group_12656" data-name="Group 12656" transform="translate(16.911 16.144)">
        <g id="Group_12655" data-name="Group 12655">
          <g id="Group_12654" data-name="Group 12654">
            <g id="Group_12653" data-name="Group 12653">
              <path id="Path_10455" data-name="Path 10455" d="M1529.7,829.684q.1,1.066.206,2.132c.089.919-1.349.936-1.438.02q-.1-1.066-.2-2.131C1528.173,828.785,1529.611,828.768,1529.7,829.684Z" transform="translate(-1528.258 -829.006)" fill="#f6b154"/>
            </g>
          </g>
        </g>
      </g>
      <g id="Group_12660" data-name="Group 12660" transform="translate(14.048 14.38)">
        <g id="Group_12659" data-name="Group 12659">
          <g id="Group_12658" data-name="Group 12658">
            <g id="Group_12657" data-name="Group 12657">
              <path id="Path_10456" data-name="Path 10456" d="M1520.9,824.1q.348,1.2.694,2.391a.718.718,0,0,1-1.379.4q-.348-1.194-.694-2.391A.718.718,0,0,1,1520.9,824.1Z" transform="translate(-1519.492 -823.604)" fill="#f6b154"/>
            </g>
          </g>
        </g>
      </g>
      <g id="Group_12664" data-name="Group 12664" transform="translate(10.452 10.239)">
        <g id="Group_12663" data-name="Group 12663">
          <g id="Group_12662" data-name="Group 12662">
            <g id="Group_12661" data-name="Group 12661">
              <path id="Path_10457" data-name="Path 10457" d="M1509.894,811.424q.56,1.931,1.122,3.863a.719.719,0,0,1-1.381.4q-.56-1.93-1.122-3.862A.719.719,0,0,1,1509.894,811.424Z" transform="translate(-1508.481 -810.926)" fill="#f6b154"/>
            </g>
          </g>
        </g>
      </g>
      <g id="Group_12668" data-name="Group 12668" transform="translate(0 50.309)">
        <g id="Group_12667" data-name="Group 12667">
          <g id="Group_12666" data-name="Group 12666">
            <g id="Group_12665" data-name="Group 12665">
              <path id="Path_10458" data-name="Path 10458" d="M1482.343,935.043l-5.156.023a.719.719,0,0,1-.02-1.437l5.156-.023A.719.719,0,0,1,1482.343,935.043Z" transform="translate(-1476.482 -933.606)"/>
            </g>
          </g>
        </g>
      </g>
      <g id="Group_12672" data-name="Group 12672" transform="translate(0.008 54.031)">
        <g id="Group_12671" data-name="Group 12671">
          <g id="Group_12670" data-name="Group 12670">
            <g id="Group_12669" data-name="Group 12669">
              <path id="Path_10459" data-name="Path 10459" d="M1483.458,946.429a52.722,52.722,0,0,1-6.045,1.866c-.9.218-1.3-1.16-.4-1.38a52.666,52.666,0,0,0,6.045-1.865C1483.922,944.724,1484.319,946.105,1483.458,946.429Z" transform="translate(-1476.507 -945.001)"/>
            </g>
          </g>
        </g>
      </g>
      <g id="Group_12676" data-name="Group 12676" transform="translate(1.665 58.279)">
        <g id="Group_12675" data-name="Group 12675">
          <g id="Group_12674" data-name="Group 12674">
            <g id="Group_12673" data-name="Group 12673">
              <path id="Path_10460" data-name="Path 10460" d="M1487.494,959.351a48.283,48.283,0,0,1-4.8,2.743c-.822.409-1.581-.812-.753-1.223a48.115,48.115,0,0,0,4.8-2.743C1487.516,957.622,1488.268,958.848,1487.494,959.351Z" transform="translate(-1481.579 -958.008)"/>
            </g>
          </g>
        </g>
      </g>
      <g id="Group_12680" data-name="Group 12680" transform="translate(62.606 28.02)">
        <g id="Group_12679" data-name="Group 12679">
          <g id="Group_12678" data-name="Group 12678">
            <g id="Group_12677" data-name="Group 12677">
              <path id="Path_10461" data-name="Path 10461" d="M1674.547,866.571a24.334,24.334,0,0,1-5.294,4.089c-.8.459-1.555-.764-.752-1.224a22.871,22.871,0,0,0,5-3.854C1674.152,864.921,1675.194,865.91,1674.547,866.571Z" transform="translate(-1668.158 -865.364)"/>
            </g>
          </g>
        </g>
      </g>
      <g id="Group_12684" data-name="Group 12684" transform="translate(64.15 32.858)">
        <g id="Group_12683" data-name="Group 12683">
          <g id="Group_12682" data-name="Group 12682">
            <g id="Group_12681" data-name="Group 12681">
              <path id="Path_10462" data-name="Path 10462" d="M1681.482,881.486a39.572,39.572,0,0,1-7.695,2.967.718.718,0,0,1-.4-1.379,37.759,37.759,0,0,0,7.343-2.811C1681.549,879.846,1682.306,881.066,1681.482,881.486Z" transform="translate(-1672.884 -880.177)"/>
            </g>
          </g>
        </g>
      </g>
      <g id="Group_12688" data-name="Group 12688" transform="translate(65.469 39.358)">
        <g id="Group_12687" data-name="Group 12687">
          <g id="Group_12686" data-name="Group 12686">
            <g id="Group_12685" data-name="Group 12685">
              <path id="Path_10463" data-name="Path 10463" d="M1684.547,901.523a28.954,28.954,0,0,1-6.926.151c-.909-.089-.941-1.527-.02-1.437a28.939,28.939,0,0,0,6.925-.151C1685.439,899.956,1685.453,901.394,1684.547,901.523Z" transform="translate(-1676.925 -900.078)"/>
            </g>
          </g>
        </g>
      </g>
    </g>
    <g id="Group_12702" data-name="Group 12702" transform="translate(1508.777 855.997)">
      <g id="Group_12691" data-name="Group 12691" transform="translate(100.875 10.484)">
        <g id="Group_12690" data-name="Group 12690">
          <path id="Path_10464" data-name="Path 10464" d="M1887.026,1091.018c-.619-1.712-3.286-1.03-2.761.76a101.18,101.18,0,0,0,5.563,14.967q1.687-1.436,3.272-2.99A73.846,73.846,0,0,1,1887.026,1091.018Z" transform="translate(-1884.196 -1090.03)" fill="#fbe0ba"/>
        </g>
      </g>
      <g id="Group_12693" data-name="Group 12693" transform="translate(0 1.306)">
        <g id="Group_12692" data-name="Group 12692">
          <path id="Path_10465" data-name="Path 10465" d="M1580.114,1081.626a68.88,68.88,0,0,0,8.661,6.594c.336.143.673.277,1.006.428-1.445-9.342-3.7-21.359-11.73-26.281-1.379-.846-3.08-.455-2.617,1.1a96.8,96.8,0,0,1,3.329,16.9C1579.222,1080.808,1579.676,1081.231,1580.114,1081.626Z" transform="translate(-1575.357 -1061.93)" fill="#fbe0ba"/>
        </g>
      </g>
      <g id="Group_12695" data-name="Group 12695" transform="translate(86.843 14.914)">
        <g id="Group_12694" data-name="Group 12694">
          <path id="Path_10466" data-name="Path 10466" d="M1847.583,1115.8c-.036-.137-.086-.269-.12-.408a1.341,1.341,0,0,0-.351-.625,42.336,42.336,0,0,1-3.057-10.158c-.259-1.6-2.948-1.209-2.812.381.609,7.153,1.382,14.262,3.285,20.969a59.481,59.481,0,0,0,6.726-3.3A72.4,72.4,0,0,1,1847.583,1115.8Z" transform="translate(-1841.237 -1103.591)" fill="#fbe0ba"/>
        </g>
      </g>
      <g id="Group_12697" data-name="Group 12697" transform="translate(62.976 5.005)">
        <g id="Group_12696" data-name="Group 12696">
          <path id="Path_10467" data-name="Path 10467" d="M1781.008,1109.464c-2.8-11.419-7.482-22.231-6.23-34.831.167-1.676-2.356-1.847-2.812-.381-3.68,11.859-4.125,23.883-3.638,36.042A76.4,76.4,0,0,0,1781.008,1109.464Z" transform="translate(-1768.166 -1073.255)" fill="#fbe0ba"/>
        </g>
      </g>
      <g id="Group_12699" data-name="Group 12699" transform="translate(20.517 7.198)">
        <g id="Group_12698" data-name="Group 12698">
          <path id="Path_10468" data-name="Path 10468" d="M1651.175,1081.766a1.438,1.438,0,0,0-2.617-1.1c-3.026,5.6-8.261,14.31-10.387,22.422.611.617,1.24,1.215,1.876,1.8,1.4.762,2.793,1.519,4.2,2.234.357.181.723.345,1.084.518q.872.345,1.751.671A110.575,110.575,0,0,1,1651.175,1081.766Z" transform="translate(-1638.172 -1079.969)" fill="#fbe0ba"/>
        </g>
      </g>
      <g id="Group_12701" data-name="Group 12701" transform="translate(42.23)">
        <g id="Group_12700" data-name="Group 12700">
          <path id="Path_10469" data-name="Path 10469" d="M1715.444,1099.246a66.173,66.173,0,0,1-1.693-6.812,153.286,153.286,0,0,1-.521-20.227c.108-2.662,3.187-16.469-2.126-13.975-4.836,2.27-5.808,16.592-6.218,21.1a59.434,59.434,0,0,0,1.209,18.3c.17.036.34.078.51.114C1709.522,1098.37,1712.475,1098.871,1715.444,1099.246Z" transform="translate(-1704.649 -1057.931)" fill="#fbe0ba"/>
        </g>
      </g>
    </g>
    <g id="Group_12704" data-name="Group 12704" transform="translate(1576.732 815.685)">
      <g id="Group_12703" data-name="Group 12703">
        <path id="Path_10470" data-name="Path 10470" d="M1796.2,979.48c-14.136-9.513-14.607-32.683-1.385-43.5.882-.722-.376-1.967-1.251-1.251-14.248,11.659-13.355,36.121,1.742,46.282C1796.256,981.645,1797.143,980.112,1796.2,979.48Z" transform="translate(-1783.41 -934.511)"/>
      </g>
    </g>
    <g id="Group_12706" data-name="Group 12706" transform="translate(1521.644 823.358)">
      <g id="Group_12705" data-name="Group 12705" transform="translate(0 0)">
        <path id="Path_10471" data-name="Path 10471" d="M1635.067,958.4a36.4,36.4,0,0,1-8.466,8.356c-3.1,2.292-6.954,5.772-11,5.371-1.132-.112-1.125,1.658,0,1.77,4.521.448,8.461-3.082,11.9-5.612a39.055,39.055,0,0,0,9.1-8.99C1637.249,958.355,1635.716,957.469,1635.067,958.4Z" transform="translate(-1614.751 -958.004)"/>
      </g>
    </g>
    <g id="Group_12708" data-name="Group 12708" transform="translate(1546.946 824.866)">
      <g id="Group_12707" data-name="Group 12707" transform="translate(0 0)">
        <path id="Path_10472" data-name="Path 10472" d="M1709.37,963.227c-4.092,11.572-7.133,25.407-16.863,33.676-.869.738.388,1.985,1.251,1.251,10-8.5,13.121-22.584,17.318-34.457C1711.457,962.622,1709.749,962.159,1709.37,963.227Z" transform="translate(-1692.214 -962.622)"/>
      </g>
    </g>
    <g id="Group_12710" data-name="Group 12710" transform="translate(1570.197 796.903)">
      <g id="Group_12709" data-name="Group 12709" transform="translate(0)">
        <path id="Path_10473" data-name="Path 10473" d="M1770.8,877.816a.858.858,0,0,0-.831-.8,7.257,7.257,0,0,0-6.412,3.289c-.635.949.9,1.837,1.527.893a5.4,5.4,0,0,1,3.975-2.378,9.143,9.143,0,0,0-3.3,5.452c-.211,1.113,1.5,1.59,1.706.47a7.5,7.5,0,0,1,3.81-5.292A.884.884,0,0,0,1770.8,877.816Z" transform="translate(-1763.402 -877.008)"/>
      </g>
    </g>
    <g id="Group_12712" data-name="Group 12712" transform="translate(1599.847 780.678)">
      <g id="Group_12711" data-name="Group 12711">
        <path id="Path_10474" data-name="Path 10474" d="M1858.435,833.15a7.19,7.19,0,0,1-2.486-4.966c-.075-1.131-1.846-1.139-1.769,0a8.977,8.977,0,0,0,3,6.218C1858.033,835.154,1859.29,833.907,1858.435,833.15Z" transform="translate(-1854.178 -827.333)"/>
      </g>
    </g>
    <g id="Group_12714" data-name="Group 12714" transform="translate(1602.024 779.949)">
      <g id="Group_12713" data-name="Group 12713">
        <path id="Path_10475" data-name="Path 10475" d="M1864.8,829.7a6.018,6.018,0,0,1-2.24-3.96c-.167-1.122-1.873-.645-1.706.471a7.726,7.726,0,0,0,3.053,5.018C1864.811,831.923,1865.693,830.386,1864.8,829.7Z" transform="translate(-1860.843 -825.101)"/>
      </g>
    </g>
    <g id="Group_12735" data-name="Group 12735" transform="translate(1618.824 772.438)">
      <g id="Group_12716" data-name="Group 12716" transform="translate(1.099)">
        <g id="Group_12715" data-name="Group 12715">
          <path id="Path_10476" data-name="Path 10476" d="M1917.228,807.586l.152-.163a.914.914,0,0,0,.811-.252l.823-.8a.859.859,0,0,0,.438-.12c.418-.257.81-.531,1.188-.818a8.185,8.185,0,0,1-.425-.757,6.822,6.822,0,0,1-.7-2.567c-.488.474-.991.935-1.519,1.378a.864.864,0,0,0-.327.824l-1.814,2.156C1915.121,807.343,1916.458,808.414,1917.228,807.586Z" transform="translate(-1915.643 -802.107)" fill="#fbe0ba"/>
        </g>
      </g>
      <g id="Group_12718" data-name="Group 12718" transform="translate(8.735 9.687)">
        <g id="Group_12717" data-name="Group 12717">
          <path id="Path_10477" data-name="Path 10477" d="M1946.75,841.909a23.632,23.632,0,0,0,4.482-5.693q-1.425-1.127-2.924-2.145c-.03-.02-.062-.04-.092-.061q-1.486-1-3.047-1.892l-.623-.352-3.107,6.075a33.331,33.331,0,0,1-2.418,2.688c1.646,1.512,3.323,2.991,5.01,4.457C1944.972,843.985,1945.888,842.966,1946.75,841.909Z" transform="translate(-1939.021 -831.766)" fill="#fbe0ba"/>
        </g>
      </g>
      <g id="Group_12720" data-name="Group 12720" transform="translate(0 5.22)">
        <g id="Group_12719" data-name="Group 12719">
          <path id="Path_10478" data-name="Path 10478" d="M1912.278,822.36c.369.466.751.918,1.14,1.359.2-.187.39-.382.593-.562-.114.222-.226.448-.333.674-.024.034-.048.069-.07.1.07.078.138.161.211.239.822.9,1.682,1.764,2.537,2.632.015-.023.03-.045.045-.069a16.267,16.267,0,0,0,2.68-7.629.9.9,0,0,0-1.39-.87A32.148,32.148,0,0,0,1912.278,822.36Z" transform="translate(-1912.278 -818.089)" fill="#fbe0ba"/>
        </g>
      </g>
      <g id="Group_12722" data-name="Group 12722" transform="translate(27.878 57.388)">
        <g id="Group_12721" data-name="Group 12721">
          <path id="Path_10479" data-name="Path 10479" d="M1998.286,977.807c-.007.156-.026.307-.033.463-.042.772-.1,1.535-.17,2.293-.026.293-.047.587-.077.878q-.151,1.452-.355,2.859c-.007.054-.012.112-.021.166,1.255.126,2.51.233,3.762.292a52.692,52.692,0,0,0,8.357.2,47.132,47.132,0,0,0,.728-5.519C2006.358,978.991,2002.278,978.482,1998.286,977.807Z" transform="translate(-1997.629 -977.807)" fill="#fbe0ba"/>
        </g>
      </g>
      <g id="Group_12724" data-name="Group 12724" transform="translate(20.538 74.896)">
        <g id="Group_12723" data-name="Group 12723">
          <path id="Path_10480" data-name="Path 10480" d="M1979.629,1031.41q-.438.944-.938,1.82t-1.049,1.676c-.4.575-.775,1.081-1.173,1.568-.023.029-.048.058-.072.086-.4.483-.808.953-1.239,1.4a55.287,55.287,0,0,0,8.95,5.174q1.3-1.587,2.466-3.267t2.2-3.444Q1984.129,1034.024,1979.629,1031.41Z" transform="translate(-1975.158 -1031.41)" fill="#fbe0ba"/>
        </g>
      </g>
      <g id="Group_12726" data-name="Group 12726" transform="translate(17.286 20.459)">
        <g id="Group_12725" data-name="Group 12725">
          <path id="Path_10481" data-name="Path 10481" d="M1970.878,864.81c-2.657,1.052-4.146,3.28-5.676,5.5a32.435,32.435,0,0,1,3.457,3.649c.271-.411.532-.827.762-1.257a14.037,14.037,0,0,0,2.7-7.007A.894.894,0,0,0,1970.878,864.81Z" transform="translate(-1965.202 -864.744)" fill="#fbe0ba"/>
        </g>
      </g>
      <g id="Group_12728" data-name="Group 12728" transform="translate(31.146 70.716)">
        <g id="Group_12727" data-name="Group 12727">
          <path id="Path_10482" data-name="Path 10482" d="M2008.029,1020.24c.149.079.3.148.45.224a.846.846,0,0,0,.566.972c.417.145.839.257,1.258.385a.879.879,0,0,0,.78.811l2.1.271q.768-1.716,1.4-3.489l-6.019-.8A.891.891,0,0,0,2008.029,1020.24Z" transform="translate(-2007.636 -1018.612)" fill="#fbe0ba"/>
        </g>
      </g>
      <g id="Group_12730" data-name="Group 12730" transform="translate(21.961 25.766)">
        <g id="Group_12729" data-name="Group 12729">
          <path id="Path_10483" data-name="Path 10483" d="M1979.515,886.477c.28.4.54.8.8,1.206.107.166.215.329.319.5.3.491.593.986.867,1.487a60.141,60.141,0,0,0,9.75-5.372q-.967-1.689-2.052-3.3Z" transform="translate(-1979.515 -880.992)" fill="#fbe0ba"/>
        </g>
      </g>
      <g id="Group_12732" data-name="Group 12732" transform="translate(25.496 33.989)">
        <g id="Group_12731" data-name="Group 12731">
          <path id="Path_10484" data-name="Path 10484" d="M1990.337,909.851c.024.057.039.115.063.172.331.807.622,1.624.893,2.446.063.195.142.385.2.58.31,1,.584,2.009.815,3.024a69.177,69.177,0,0,0,11.347-2.717,54.719,54.719,0,0,0-2.615-7.187C1997.452,907.318,1993.884,908.537,1990.337,909.851Z" transform="translate(-1990.337 -906.169)" fill="#fbe0ba"/>
        </g>
      </g>
      <g id="Group_12734" data-name="Group 12734" transform="translate(34.679 46.326)">
        <g id="Group_12733" data-name="Group 12733">
          <path id="Path_10485" data-name="Path 10485" d="M2018.823,946.055a.9.9,0,0,0-.2,1.235,5.249,5.249,0,0,0,2.109,1.531.913.913,0,0,0,.671.295c.108,0,.216-.01.324-.012a4.837,4.837,0,0,0,2.079-.141c.153-.017.309-.028.46-.047.062,0,.124-.008.186-.008-.066-.808-.157-1.613-.264-2.415-.009-.069-.02-.138-.03-.206q-.16-1.176-.372-2.347A11.193,11.193,0,0,0,2018.823,946.055Z" transform="translate(-2018.451 -943.94)" fill="#fbe0ba"/>
        </g>
      </g>
    </g>
  </g>
</svg>
