<svg xmlns="http://www.w3.org/2000/svg" width="277.927" height="178.009" viewBox="0 0 277.927 178.009">
  <g id="Pet_4" transform="translate(-147.397 -54.138)">
    <path id="Path_8557" data-name="Path 8557" d="M425.324,135.717H147.4s36.223,9.748,138.963,9.748S425.324,135.717,425.324,135.717Z" transform="translate(0 86.682)" fill="#e6d4bf"/>
    <path id="Path_8558" data-name="Path 8558" d="M259.066,111.462c.3,5.309,8.488-2.18,8.488-2.18,3.119-1.359,5.085-4.991,5.4-8.793a10.428,10.428,0,0,0-2.977-8.687c-3.119-2.836-6.576,3.024-8.751,9.259C259.812,105.134,258.948,109.364,259.066,111.462Z" transform="translate(-71.486 39.239)" fill="#ffb054"/>
    <path id="Path_8559" data-name="Path 8559" d="M259.091,106.608c.3,5.309,8.488-2.18,8.488-2.18,3.119-1.359,5.085-4.991,5.4-8.793-3.049,6.33-9.316,3.952-11.727.571C259.836,100.28,258.973,104.51,259.091,106.608Z" transform="translate(-71.511 44.093)" fill="#bf7b2c" opacity="0.2" style="mix-blend-mode: multiply;isolation: isolate"/>
    <path id="Path_8560" data-name="Path 8560" d="M215.308,101.773a92.422,92.422,0,0,0,4.776,20.875c3.71,10.335,7.959,15.634,7.959,15.634l17.285-16.533c-.146-1.778-.319-3.585-.509-5.4-2.976-28.366-11.2-59.587-18.9-60.759C217.735,54.347,212.578,77.751,215.308,101.773Z" transform="translate(45.353 1.493)" fill="#ffb054"/>
    <path id="Path_8561" data-name="Path 8561" d="M235.2,113.455s-7.28-44.625-13.95-48.369-9.1,32.452,3.638,52.113A18.089,18.089,0,0,0,235.2,113.455Z" transform="translate(53.058 11.346)" fill="#ffdfba"/>
    <path id="Path_8562" data-name="Path 8562" d="M199.774,115.911q-.042,2.531,0,5.14l14.856.32s1.63-4.635,3.676-11.431c1.147-3.772,2.411-8.219,3.6-12.91,3.339-13.108-.91-45.255-5.149-42.755C212.692,56.662,200.311,79.027,199.774,115.911Z" transform="translate(97.275 0)" fill="#ffb054"/>
    <path id="Path_8563" data-name="Path 8563" d="M202.174,110.438c.3-24.654,6.37-45.873,10.31-47.433s4.853,33.7-6.063,50.553C202.479,115.432,202.174,110.438,202.174,110.438Z" transform="translate(100.334 9.369)" fill="#ffdfba"/>
    <path id="Path_8564" data-name="Path 8564" d="M220.7,81.193c-4.923,1.9-11.581,3.987-18.532,5.971q-.042,2.531,0,5.14l14.856.32S218.656,87.989,220.7,81.193Z" transform="translate(94.88 28.747)" fill="#bf7b2c" opacity="0.2" style="mix-blend-mode: multiply;isolation: isolate"/>
    <path id="Path_8565" data-name="Path 8565" d="M214.572,91.323c3.71,10.335,7.959,15.634,7.959,15.634l17.285-16.533c-.146-1.778-.319-3.585-.509-5.4C229.218,87.765,219.521,90.143,214.572,91.323Z" transform="translate(50.865 32.818)" fill="#bf7b2c" opacity="0.2" style="mix-blend-mode: multiply;isolation: isolate"/>
    <path id="Path_8566" data-name="Path 8566" d="M274.389,130.6l-10.006,6.553s11.523,5.307,10.916,9.675-16.376,3.744-19.408,1.871-6.973-9.673-7.278-12.169,5.762-10.61,5.762-10.61Z" transform="translate(-52.849 76.271)" fill="#cf9c7a"/>
    <path id="Path_8567" data-name="Path 8567" d="M236.471,126.282c.605.936,8.186,17.787,11.523,20.283s7.278,4.993,6.065,6.864-16.376.936-20.925.936-17.891-17.474-19.408-23.092S220.7,115.359,236.471,126.282Z" transform="translate(38.443 71.54)" fill="#cf9c7a"/>
    <path id="Path_8568" data-name="Path 8568" d="M187.156,148.681a14.85,14.85,0,0,0,1.756,2.508,29.6,29.6,0,0,0,6.5,5.449l1.283.505c7.635,3.005,14.884,5.552,21.761,7.7,2.285.722,4.522,1.386,6.715,2.013,5.5,1.574,10.735,2.873,15.72,3.931,2.067.441,4.085.844,6.069,1.2,27.137,4.934,46.242,2.5,58.224-2.556.9-.384,1.756-.759,2.566-1.151.235-.1.463-.217.682-.328,1.046-.505,2.02-1.029,2.938-1.555.4-.223.792-.458,1.173-.691a42.6,42.6,0,0,0,5.041-3.6l.491-.421c1.465-1.246,2.812-2.539,4.149-3.9.154-.159.3-.307.445-.458q.451-.464.9-.926l.455-.468c.335-.357.681-.722,1.026-1.077.138-.151.283-.3.429-.441q.64-.671,1.309-1.347c.146-.159.3-.309.447-.46,1.519-1.545,3.183-3.154,5.1-4.868.383-.347.782-.693,1.193-1.04.918-.786,1.892-1.59,2.938-2.423.81-.646,1.674-1.3,2.574-1.976q1.242-.925,2.62-1.881c1.028-.722,2.1-1.452,3.249-2.2l-3.784-9.418L334,111.074s-7.615-2.667-17-5.709c-12.617-4.074-28.466-8.828-33.332-8.642-4.6.169-10.781,9.092-17.851,18.388-6,7.9-12.617,16.063-19.45,19.367-6.486,3.137-17.486,3.531-27.81,2.987a220.515,220.515,0,0,1-25.563-2.987S182.534,140.142,187.156,148.681Z" transform="translate(3.08 45.243)" fill="#ffdfba"/>
    <path id="Path_8569" data-name="Path 8569" d="M196.4,132.992l3.329,7.283c2.067.441,4.085.844,6.069,1.2,27.137,4.934,46.242,2.5,58.224-2.556.9-.384,1.756-.759,2.566-1.151.234-.1.463-.217.681-.328,1.046-.505,2.02-1.029,2.938-1.555.4-.223.792-.458,1.173-.691a42.611,42.611,0,0,0,5.041-3.6l.491-.421c1.465-1.246,2.812-2.539,4.149-3.9.154-.159.3-.307.445-.458q.451-.464.9-.926l.455-.468C261.6,144.536,196.4,132.992,196.4,132.992Z" transform="translate(44.247 75.751)" fill="#bf7b2c" opacity="0.2" style="mix-blend-mode: multiply;isolation: isolate"/>
    <path id="Path_8570" data-name="Path 8570" d="M185.977,108.975s14.257,19.9,35.527,22.282c.81-.646,1.674-1.3,2.574-1.976q1.242-.925,2.62-1.881c1.028-.722,2.1-1.452,3.249-2.2Z" transform="translate(118.05 58.267)" fill="#bf7b2c" opacity="0.2" style="mix-blend-mode: multiply;isolation: isolate"/>
    <path id="Path_8571" data-name="Path 8571" d="M193.066,106.856c10.617,2.5,33.968,19.035,33.968,19.035-6.66.623-14.529-1.943-21.044-5.755-6.614-1.817-11.739-.947-13.223-2.985C190.947,114.657,193.066,106.856,193.066,106.856Z" transform="translate(108.832 56.016)" fill="#80674a"/>
    <path id="Path_8572" data-name="Path 8572" d="M203.436,116.2c.9,6.5,7.841,8.331,15.093,3.717a28.045,28.045,0,0,0,7.35-7.153l-6.368-5.309a34.567,34.567,0,0,0-10.99,1.91C205.4,110.623,202.953,112.721,203.436,116.2Z" transform="translate(87.246 56.656)" fill="#ff7547"/>
    <path id="Path_8573" data-name="Path 8573" d="M213.383,119.921a28.044,28.044,0,0,0,7.35-7.153l-6.368-5.309a34.567,34.567,0,0,0-10.99,1.91C209.653,109.687,218.995,111.728,213.383,119.921Z" transform="translate(92.392 56.656)" fill="#c75b37" opacity="0.3" style="mix-blend-mode: multiply;isolation: isolate"/>
    <path id="Path_8574" data-name="Path 8574" d="M231.044,132.333a20.314,20.314,0,0,0,1.9,5.084c3.622,7.341,11.327,18.012,14.884,18.012,1.784,0,5.2.14,8.761.206,5.514.093,11.409-.01,12.273-1.143,1.429-1.873-2.229-4.373-5.286-6.87a10.989,10.989,0,0,1-2.129-3.063,108.861,108.861,0,0,1-4.941-11.542,15.936,15.936,0,0,0-12.044-10.3,12.043,12.043,0,0,0-11.046,3.455A7.873,7.873,0,0,0,231.044,132.333Z" transform="translate(-11.404 72.664)" fill="#ffdfba"/>
    <path id="Path_8575" data-name="Path 8575" d="M154.592,139.138c3.866,23.4,33.232,16.756,31.158,0a23.085,23.085,0,0,0-1.692-6.4c-5.6-13.182-22.042-14.764-27.784-5.233v.01C154.538,130.384,153.782,134.26,154.592,139.138Z" transform="translate(225.7 71.478)" fill="#9aeb5c"/>
    <path id="Path_8576" data-name="Path 8576" d="M237.271,122.878c1.319,2.434,3.876,5.111,8.26,7.957q12.161,4.83,23.044,8.2c3.622,7.341,11.327,18.012,14.884,18.012,1.784,0,5.2.14,8.761.206-8.005-3.407-13.427-10.074-16.931-16.206a56.386,56.386,0,0,1-5.5-13.341s-.264.037-.738.085c-2.856.272-13.435.8-22.006-5.074C243.348,120.19,239.782,120.632,237.271,122.878Z" transform="translate(-47.035 71.046)" fill="#bf7b2c" opacity="0.2" style="mix-blend-mode: multiply;isolation: isolate"/>
    <path id="Path_8577" data-name="Path 8577" d="M195.919,192.913c5.458,1.873,15.72,1.836,17.285-.309,2.111-2.9-.373-6.852-2.838-9.661-.11-.122-.219-.252-.337-.373s-.219-.235-.329-.357a32.369,32.369,0,0,0-2.566-2.463c-.09-.085-.172-.14-.219-.186s-.08-.066-.08-.066,15.165-2.809,20.013-9.68a.708.708,0,0,0,.072-.113c4.149-5.973,4.241-15.147,4.794-17.441.082-.355.174-.542.293-.542.91,0,45.142,8.875,57.314,5.926,3.81-.918,10.789-18.957,15.137-28.89,1.519-3.482,2.72-5.963,3.357-6.365,2.429-1.563,56.4,1.244,56.4,1.244s-6.368-25.9-9.707-29.02-13.337-9.053-17.584-9.671-29.113,4.682-36.09,14.042-17.285,23.715-29.712,18.1c-3.039,11.542,5.149,16.851,5.149,16.851a31.5,31.5,0,0,1-20.615,2.182,21.5,21.5,0,0,1-3.923-1.452c-10.97-5.158-25.062-19.658-28.829-21.325-4.249-1.873-21.835,14.978-24.563,24.031s.91,29.02.91,29.02-.174.2-.483.553c-.054.076-.118.151-.19.235a50.377,50.377,0,0,0-3.5,4.717c-.1.159-.2.309-.3.468-.4.637-.792,1.293-1.147,1.957-.182.336-.355.664-.519,1-.09.2-.19.41-.273.608a14.309,14.309,0,0,0-.738,1.926,9.127,9.127,0,0,0-.437,2.256C191.371,185.734,190.461,191.041,195.919,192.913Z" transform="translate(-27.144 32.681)" fill="#ffb054"/>
    <path id="Path_8578" data-name="Path 8578" d="M217.975,111.925l.01-.008c5.684-4.663-.156-18.687-7.334-21.822a6.2,6.2,0,0,0-6.023.3C195.532,96.01,209.177,119.088,217.975,111.925Z" transform="translate(96.361 37.53)" fill="#fff"/>
    <path id="Path_8579" data-name="Path 8579" d="M202.409,108.927c1.265,1.19,2.419,1.743,3.229,1.283,6.113-3.463-1.247-14.632-6.614-18.91l-.036-.037c-2.337-1.854-4.293-2.388-4.566-.4C193.738,95.795,198.569,105.305,202.409,108.927Z" transform="translate(123.252 37.681)" fill="#fff"/>
    <path id="Path_8580" data-name="Path 8580" d="M202.721,102.732c2.03,5.973,6.205,9.915,9.362,8.865l.01-.008c5.684-4.663-.156-18.687-7.334-21.822-.008,0-.018.008-.026.008C201.576,90.918,200.674,96.722,202.721,102.732Z" transform="translate(102.252 37.858)" fill="#453727"/>
    <path id="Path_8581" data-name="Path 8581" d="M204.08,108.927a2.1,2.1,0,0,0,.627-.186c2.247-1.087,2.046-6.394-.445-11.851a22.108,22.108,0,0,0-3.568-5.59l-.036-.037c-2.337-1.854-4.293-2.388-4.566-.4C195.409,95.795,200.24,105.305,204.08,108.927Z" transform="translate(121.582 37.681)" fill="#453727"/>
    <path id="Path_8582" data-name="Path 8582" d="M168.637,105.586l21.224,7.8s11.828,12.478,36.09,21.222a29.824,29.824,0,0,0,6.759,1.574c11.337,1.281,22.517-3.886,29.777-10.494a33.4,33.4,0,0,0,4.913-5.515c3.393-4.839,4.44-9.735,1.92-13.031-2.558-3.341-12.627-5.167-25.519-5.955-6.286-.384-13.245-.524-20.342-.458-5.139.037-10.342.177-15.419.394-17.394.767-33.17,2.479-38.954,4.315C168.928,105.492,168.774,105.539,168.637,105.586Z" transform="translate(112.037 49.487)" fill="#ffdfba"/>
    <path id="Path_8583" data-name="Path 8583" d="M168.638,100.941c2,16.872,13.229,24.557,18.686,24.5,4.558-4.148,7.57-8.857,8.134-12.9a7.344,7.344,0,0,0-1.3-5.645c-2.375-3.108-11.226-4.9-22.808-5.767C170.458,101.063,169.558,101,168.638,100.941Z" transform="translate(187.199 49.731)" fill="#453727"/>
    <path id="Path_8584" data-name="Path 8584" d="M168.638,101.032c2.237,5.233,19.077,17.292,24.108,11.412a7.344,7.344,0,0,0-1.3-5.645C189.07,103.691,180.219,101.9,168.638,101.032Z" transform="translate(189.911 49.827)" fill="#453727" style="mix-blend-mode: screen;isolation: isolate"/>
    <path id="Path_8585" data-name="Path 8585" d="M214.4,106.749c.87,3.133-7.278,3.783-7.278,2.5C207.127,108.308,213.8,104.565,214.4,106.749Z" transform="translate(91.136 55.186)" fill="#80674a"/>
    <path id="Path_8586" data-name="Path 8586" d="M170.291,161.276c4.039-1.3,11.535.788,18.26,5.084-.11-.122-.218-.252-.337-.373s-.219-.235-.329-.357a32.362,32.362,0,0,0-2.566-2.463c-.09-.085-.172-.14-.219-.186s-.08-.066-.08-.066,15.165-2.809,20.013-9.68a.713.713,0,0,0,.072-.113c7.635,3.005,14.884,5.552,21.761,7.7,3.622,7.341,11.327,18.012,14.884,18.012,1.784,0,5.2.14,8.761.206.992.019,2,.027,2.993.027-4.185-5.513-12.062-16.4-10.262-18.021,2.429-2.19,6.37-1.873,12.128,6.918,27.137,4.934,46.242,2.5,58.224-2.556.9-.384,1.756-.759,2.566-1.151.234-.1.463-.217.682-.328,1.046-.505,2.02-1.029,2.938-1.555.4-.223.792-.458,1.172-.691a42.607,42.607,0,0,0,5.041-3.6l.491-.421c1.465-1.246,2.812-2.539,4.149-3.9.144-.159.3-.307.445-.458q.451-.464.9-.926c.144-.161.3-.32.455-.468.335-.357.681-.722,1.026-1.077.146-.151.283-.3.429-.441q.64-.671,1.309-1.347c.146-.159.3-.309.447-.46,1.519-1.545,3.183-3.154,5.1-4.868.391-.347.782-.693,1.193-1.04,1.628-1.4,3.447-2.865,5.512-4.4q1.242-.925,2.62-1.881c11.337,1.281,22.517-3.886,29.777-10.494a33.4,33.4,0,0,0,4.913-5.515c-5.959,4.6-17.412,7.386-35.224,4.391-21.38-2.3-42.314-11.177-42.314-11.177s-11.681-.066-24.581-1.433c-2.784-.3-5.63-.664-8.424-1.085-11.99-1.846-23.07-5.047-24.908-10.589-3.039,11.542,5.149,16.851,5.149,16.851a31.5,31.5,0,0,1-20.615,2.182,21.5,21.5,0,0,1-3.923-1.452c8.871,9.108,4.1,13.378-2.964,15.362-7.2,2.032-16.766,1.7-16.766,1.7s-.1.2-.293.542c-1.173,2.153-5.885,9.981-12.581,11.486a10.528,10.528,0,0,1-7.45-1.1c-11.828-6.245-13.337-25.277-13.337-25.277-2.73,9.042.91,29.02.91,29.02s-.174.2-.483.553c-.054.066-.118.151-.19.235a50.391,50.391,0,0,0-3.5,4.717c-.1.159-.2.309-.3.468-.4.637-.792,1.293-1.147,1.957-.182.336-.355.664-.519,1-.09.2-.19.41-.273.608-.146.318-.283.646-.409.963S170.391,160.959,170.291,161.276Z" transform="translate(-5.328 49.263)" fill="#bf7b2c" opacity="0.2" style="mix-blend-mode: multiply;isolation: isolate"/>
    <path id="Path_8587" data-name="Path 8587" d="M154.592,135.994c3.866,23.4,33.232,16.756,31.158,0a23.085,23.085,0,0,0-1.692-6.4c2.8,18.846-29.821,10.206-27.784-5.222C154.538,127.24,153.782,131.116,154.592,135.994Z" transform="translate(225.7 74.622)" fill="#79c43f"/>
    <path id="Path_8588" data-name="Path 8588" d="M208.666,94.351c-.341,2.341-2.389,1.287-2.5,0S209.007,92.01,208.666,94.351Z" transform="translate(98.846 41.254)" fill="#fff"/>
    <path id="Path_8589" data-name="Path 8589" d="M201.858,93.443c-.341,2.341-2.387,1.287-2.5,0S202.2,91.1,201.858,93.443Z" transform="translate(119.3 40.289)" fill="#fff"/>
  </g>
</svg>
