<svg xmlns="http://www.w3.org/2000/svg" width="96.476" height="84.889" viewBox="0 0 96.476 84.889">
  <g id="_6-dog" data-name="6-dog" transform="translate(-317.134 -188.243)">
    <path id="Path_8661" data-name="Path 8661" d="M328.222,268.52c-.073.377-3.023,1.285-3.023,1.285s-7.448-4.875-6.586-7.258a1.187,1.187,0,0,1,.232-.381c1.452-1.625,4.97.513,6.708,1.743.617.431,1.008.753,1.008.753A26.518,26.518,0,0,1,328.222,268.52Z" fill="#f5a051"/>
    <path id="Path_8662" data-name="Path 8662" d="M328.222,268.52c-.073.377-3.023,1.285-3.023,1.285s-7.448-4.875-6.586-7.258c2.869,5.047,6.268,6.264,6.94,1.362.617.431,1.008.753,1.008.753A26.518,26.518,0,0,1,328.222,268.52Z" fill="#bf7b2c" opacity="0.2" style="mix-blend-mode: multiply;isolation: isolate"/>
    <path id="Path_8663" data-name="Path 8663" d="M413.4,232.509c-.15,11.2-11.651,37.069-21.786,38.58-6.21.931-24.075-.077-36.97-.994-5.26-.372-9.7-.731-12.182-.939-1.362-.114-2.138-.182-2.138-.182l-.113-1.57-.976-13.549-.272-3.794.585-.245.685-.286,14.489-6.028,2.505-1.044,3.091-1.284,3-1.249s3.631-1.815,4.384-13.92c.608-1.966,7.113-6.958,8.928-7.567s14.525-.454,15.582.155S405.537,229.94,413.4,232.509Z" fill="#ffdfba"/>
    <path id="Path_8664" data-name="Path 8664" d="M358.483,247.26s-8.851,7.489-17.021,7.262l-1.226-4.992,14.489-6.028,2.505-1.044Z" fill="#f5a051"/>
    <path id="Path_8665" data-name="Path 8665" d="M413.4,232.509c-.05,3.844-1.443,9.427-3.658,15.155a79.277,79.277,0,0,1-3.858,8.47c-4.108,7.747-9.355,14.22-14.27,14.955-6.21.931-24.075-.077-36.97-.994-5.26-.372-9.7-.731-12.182-.939l-2.251-1.752-1.1-.854.068-7.285.037-3.708.018-1.7.032-3.191s.109-.327.281-.848l.685-.286,14.489-6.028,2.505-1.044,3.091-1.284c-.4,3.517.554,5.873,2.115,7.439a11.475,11.475,0,0,0,6.713,2.877,20.624,20.624,0,0,0,4.616.082s3.958,4.23,11.5,1.516c7.566-2.723,9.382-13.467,9.382-13.467S409.922,237.651,413.4,232.509Z" fill="#bf7b2c" opacity="0.2" style="mix-blend-mode: multiply;isolation: isolate"/>
    <path id="Path_8666" data-name="Path 8666" d="M394.644,239.621c-.949,17.7-19.141,20.652-25.949,12.142l.454-.273a20.624,20.624,0,0,0,4.616.082s3.958,4.23,11.5,1.516C392.828,250.365,394.644,239.621,394.644,239.621Z" fill="#bf7b2c" opacity="0.2" style="mix-blend-mode: multiply;isolation: isolate"/>
    <path id="Path_8667" data-name="Path 8667" d="M404.176,229.486l-15.283-7.262a33.406,33.406,0,0,0-1.139-9c-2.487-10.231-8.07-21.215-7.031-23.988,1.362-3.631,12.105,2.723,19.821,18a37.868,37.868,0,0,1,3.79,13.667A36.892,36.892,0,0,1,404.176,229.486Z" fill="#ffb054"/>
    <path id="Path_8668" data-name="Path 8668" d="M391.163,221.163c-2.572-16.037-6.052-22.392-5.9-25.115s8.17,2.269,12.1,11.65c4.054,9.667,1.967,19.82,1.967,19.82Z" fill="#ffdfba"/>
    <path id="Path_8669" data-name="Path 8669" d="M378.6,218.593s-1.058,20.12-7.108,8.923a21.666,21.666,0,0,0-4.762-5.76c-8.265-7.344-21.387-11.256-19.6-13.757,2.1-2.941,15.6-2.9,28.39,7.8C376.557,216.655,377.587,217.585,378.6,218.593Z" fill="#ffb054"/>
    <path id="Path_8670" data-name="Path 8670" d="M371.343,223.735c-11.953-10.591-16.34-10.742-18.307-12.557s5.295-2.724,11.8,1.059a38.038,38.038,0,0,1,10.288,8.775Z" fill="#ffdfba"/>
    <path id="Path_8671" data-name="Path 8671" d="M375.526,215.8c1.031.858,2.061,1.788,3.078,2.8,0,0-1.058,20.12-7.108,8.923a21.666,21.666,0,0,0-4.762-5.76Z" fill="#bf7b2c" opacity="0.2" style="mix-blend-mode: multiply;isolation: isolate"/>
    <path id="Path_8672" data-name="Path 8672" d="M404.176,229.486l-15.283-7.262a33.406,33.406,0,0,0-1.139-9c5.4,4.225,12.137,6.527,16.58,7.684A36.892,36.892,0,0,1,404.176,229.486Z" fill="#bf7b2c" opacity="0.2" style="mix-blend-mode: multiply;isolation: isolate"/>
    <path id="Path_8673" data-name="Path 8673" d="M413.4,232.509c-.15,11.2-11.651,37.069-21.786,38.58-6.21.931-24.075-.077-36.97-.994l1.566-3.694s25.268,5.3,34.042,1.211,16.19-21.487,18.3-30.714c-5.292-1.212-10.589-8.624-10.589-8.624s-33.933,7.857-40.4,17.552c-1.2,1.8-2.161.259-2.85-2.324l8.6-3.577s3.631-1.815,4.384-13.92c.608-1.966,7.113-6.958,8.928-7.567s14.525-.454,15.582.155S405.537,229.94,413.4,232.509Z" fill="#ffb054"/>
    <path id="Path_8674" data-name="Path 8674" d="M409.745,247.664a79.277,79.277,0,0,1-3.858,8.47c-4.108,7.747-9.355,14.22-14.27,14.955-6.21.931-24.075-.077-36.97-.994-5.26-.372-9.7-.731-12.182-.939l-2.251-1.752-1.1-.854.068-7.285.037-3.708c1.711-2.85,3.15-4.815,3.15-4.815,4.766,2.723,4.992,11.574,4.992,11.574s32.453,3.858,44.708-.908C399.21,258.63,406.763,252.394,409.745,247.664Z" fill="#bf7b2c" opacity="0.2" style="mix-blend-mode: multiply;isolation: isolate"/>
    <path id="Path_8675" data-name="Path 8675" d="M370.586,229.031s2.724,2.42,3.934,1.361,1.816-4.387,1.816-4.387-1.665,2.723-2.724,3.177A5.756,5.756,0,0,1,370.586,229.031Z" fill="#a16f35"/>
    <path id="Path_8676" data-name="Path 8676" d="M380.118,225.4s2.723,3.858,5.144,2.648a7.613,7.613,0,0,0,3.329-4.16s-2.365,2.435-3.48,2.723C382.766,227.215,380.118,225.4,380.118,225.4Z" fill="#a16f35"/>
    <path id="Path_8677" data-name="Path 8677" d="M335.637,214.2c.166,1.657,4.085,1.211,4.085,1.211l-3.328,3.026s4.69.908,4.538-.151-2.572-.3-2.572-.3,3.026-2.269,2.572-3.329S335.486,212.691,335.637,214.2Z" fill="#e6d4bf"/>
    <path id="Path_8678" data-name="Path 8678" d="M340.146,193.75c-.537,1.575,3.214,2.8,3.214,2.8l-4.284,1.371s3.89,2.773,4.192,1.746-2.215-1.343-2.215-1.343,3.695-.808,3.722-1.96S340.636,192.31,340.146,193.75Z" fill="#e6d4bf"/>
    <path id="Path_8679" data-name="Path 8679" d="M376.336,249.909c10.439-4.69,11.8-15.886,11.8-15.886s-4.237-.454-4.388.454S376.336,249.909,376.336,249.909Z" fill="#80674a"/>
    <path id="Path_8680" data-name="Path 8680" d="M323.384,203.6c.063,1.663,4,1.461,4,1.461l-3.51,2.813s4.625,1.2,4.54.131-2.549-.462-2.549-.462,3.161-2.077,2.774-3.162S323.327,202.079,323.384,203.6Z" fill="#e6d4bf"/>
    <path id="Path_8681" data-name="Path 8681" d="M407.807,267.612,395.1,270.79s-.536-.518-1.18-1.294c-.254-.3-.522-.653-.781-1.026a9.618,9.618,0,0,1-.962-1.661,4.964,4.964,0,0,1-.309-.948,3.906,3.906,0,0,1-.068-.441,2.3,2.3,0,0,1,.123-.985c.907-2.423,10.739-6.808,12.708-5.446.84.581,1.539,2.119,2.061,3.744A26.529,26.529,0,0,1,407.807,267.612Z" fill="#ffdfba"/>
    <path id="Path_8682" data-name="Path 8682" d="M395.475,263.677a8.151,8.151,0,0,0-3.3,3.132,4.514,4.514,0,0,1-.377-1.389A5.866,5.866,0,0,1,395.475,263.677Z" fill="#cf9c7a"/>
    <path id="Path_8683" data-name="Path 8683" d="M397.44,266.024c-1.439.526-2.751,2.265-3.522,3.472-.254-.3-.522-.653-.781-1.026A6.071,6.071,0,0,1,397.44,266.024Z" fill="#cf9c7a"/>
    <path id="Path_8684" data-name="Path 8684" d="M407.807,267.612,395.1,270.79s-.536-.518-1.18-1.294c-.254-.3-.522-.653-.781-1.026a9.618,9.618,0,0,1-.962-1.661,4.964,4.964,0,0,1-.309-.948c4.621,1.729,11.706-1.489,14.824-3.128A26.529,26.529,0,0,1,407.807,267.612Z" fill="#bf7b2c" opacity="0.2" style="mix-blend-mode: multiply;isolation: isolate"/>
    <path id="Path_8685" data-name="Path 8685" d="M351.37,266.4a5.011,5.011,0,0,1-2.569,3.481l-22.467-1.062a34.783,34.783,0,0,1,.894-12.627c.159-.545.336-1.081.54-1.593,1.893-4.766,5.374-8.093,8.7-8.093,2.9,0,6.777,4.194,7.371,8.978a9.632,9.632,0,0,1,.041,2.142c-.526,5.6-.3,7.035-.3,7.035S351.6,264.131,351.37,266.4Z" fill="#ffb054"/>
    <path id="Path_8686" data-name="Path 8686" d="M351.37,266.4a5.011,5.011,0,0,1-2.569,3.481l-22.467-1.062a34.783,34.783,0,0,1,.894-12.627c-.649,12.477,14.406,6.577,16.612-.708a9.632,9.632,0,0,1,.041,2.142c-.526,5.6-.3,7.035-.3,7.035S351.6,264.131,351.37,266.4Z" fill="#bf7b2c" opacity="0.2" style="mix-blend-mode: multiply;isolation: isolate"/>
    <path id="Path_8687" data-name="Path 8687" d="M376.184,265.266c-.077.227,3.482,2.95.454,4.539s-5.6-3.4-5.6-3.4l-14.6.531s-2.873,4.461-6.2,2.8.077-4.158.077-4.158-4.916-4.693-1.512-5.978a4.215,4.215,0,0,1,1.394-.277c2.723-.054,4.734,2.624,4.734,2.624l15.355-1.212s4.162-5.3,7.566-1.893a4.255,4.255,0,0,1,.958,1.362C379.979,262.96,376.252,265.071,376.184,265.266Z" fill="#fff6eb"/>
    <path id="Path_8688" data-name="Path 8688" d="M378.808,260.2c.281,2.9-4.666,4.012-4.666,4.012s3.327,3.25,1.588,4.312-4.765-2.723-4.765-2.723l-14.448-.077a3.416,3.416,0,0,1-1.892,1.511c-1.285.381-2.12-1.661-2.12-1.661s-5.946-4.035-2.31-6.255a4.215,4.215,0,0,0-1.394.277c-3.4,1.285,1.512,5.978,1.512,5.978s-3.4,2.5-.077,4.158,6.2-2.8,6.2-2.8l14.6-.531s2.569,4.992,5.6,3.4-.531-4.312-.454-4.539C376.252,265.071,379.979,262.96,378.808,260.2Z" fill="#bab4ac" opacity="0.4"/>
    <path id="Path_8689" data-name="Path 8689" d="M412.8,273.132H318.541c-.463,0-2.12,0-1.058-1.512a5.485,5.485,0,0,1,1.525-.876c3.087-1.42,10.076-3.894,14.284-4.194,5.369-.376,52.8,4.843,55.451,4.312s19.064-4.992,20.348-4.611c.708.209,2.615,2.278,3.708,4.094C413.694,271.825,414.052,273.132,412.8,273.132Z" fill="#ff7547"/>
    <path id="Path_8690" data-name="Path 8690" d="M371.114,263.3c0,.241-.326.541-.848.845a8.922,8.922,0,0,1-.976.476,13.823,13.823,0,0,1-2.052.668c-.331.081-.662.145-.98.2a7.489,7.489,0,0,1-1.271.086c-2.27-.077-10.058-3.631-10.058-3.631l.115-.272a7.122,7.122,0,0,1,7.287-4.306c3.329.343,7.11.915,7.726,1.777A6.694,6.694,0,0,1,371.114,263.3Z" fill="#ffdfba"/>
    <path id="Path_8691" data-name="Path 8691" d="M367.238,265.289c-.331.081-.662.145-.98.2a5.742,5.742,0,0,0-1.271-3.622C366.131,262.07,366.88,264.063,367.238,265.289Z" fill="#cf9c7a"/>
    <path id="Path_8692" data-name="Path 8692" d="M370.266,264.145a8.922,8.922,0,0,1-.976.476c-.037-1.162-.259-3.318-1.276-4.425C369.158,260.436,369.912,262.733,370.266,264.145Z" fill="#cf9c7a"/>
    <path id="Path_8693" data-name="Path 8693" d="M397.971,228.274a.046.046,0,0,1-.018.009l-10.571,5.742s-4.24,14.978-14.225,17.851c-6.445,1.852-13.267-1.144-16.762-4.884-1.925-2.056-2.846-4.334-2.147-6.159a6.205,6.205,0,0,1,2.406-2.5,25.87,25.87,0,0,1,3.277-1.848C368.686,232.264,385.562,228.165,397.971,228.274Z" fill="#ffdfba"/>
    <path id="Path_8694" data-name="Path 8694" d="M397.971,228.274a.046.046,0,0,1-.018.009c-.826.4-32.149,15.75-41.3,10.054a25.87,25.87,0,0,1,3.277-1.848C368.686,232.264,385.562,228.165,397.971,228.274Z" fill="#ffdfba" opacity="0.3" style="mix-blend-mode: screen;isolation: isolate"/>
    <path id="Path_8695" data-name="Path 8695" d="M385.974,233.322c-.781.986,2.241,1.83,3.259,1.258S386.789,232.292,385.974,233.322Z" fill="#80674a"/>
    <path id="Path_8696" data-name="Path 8696" d="M361.66,245.181c-2.165,1.253-8.869-1.693-8.17-3.517a7.9,7.9,0,0,1,4.879-4.653c4.274-1.653,9.042-1.171,10.4.191C370.434,238.863,366.094,242.621,361.66,245.181Z" fill="#453727"/>
    <path id="Path_8697" data-name="Path 8697" d="M357.461,237.806c-8.291,6.08,10.667,1.021,10.78-.227S359.164,236.558,357.461,237.806Z" fill="#453727" style="mix-blend-mode: screen;isolation: isolate"/>
    <path id="Path_8698" data-name="Path 8698" d="M412.8,270.345c-1.325-1.339-3.163-2.95-4.389-3.037-2.119-.149-13.92,3.327-19.367,4.389s-49.02-5.147-55.978-4.085a136.5,136.5,0,0,0-14.057,3.132c3.087-1.42,10.076-3.894,14.284-4.194,5.369-.376,52.8,4.843,55.451,4.312s19.064-4.992,20.348-4.611C409.8,266.46,411.706,268.529,412.8,270.345Z" fill="#ff7547" style="mix-blend-mode: screen;isolation: isolate"/>
  </g>
</svg>
