<svg xmlns="http://www.w3.org/2000/svg" width="72.546" height="119.944" viewBox="0 0 72.546 119.944">
  <g id="_5-dog" data-name="5-dog" transform="translate(-194.158 -153.188)">
    <g id="Group_7335" data-name="Group 7335">
      <path id="Path_8590" data-name="Path 8590" d="M194.158,268.406H266.7s-9.51,4.726-36.328,4.726S194.158,268.406,194.158,268.406Z" fill="#e6d4bf"/>
      <path id="Path_8591" data-name="Path 8591" d="M230,185.457,219.044,190.9s-4.53-4.308-6.142-13.58c-.072-.4-.135-.822-.194-1.249-1.393-10.135,3.758-23.751,6.775-22.844,3.7,1.112,5.22,14.357,8.612,26.308C228.666,181.572,229.3,183.565,230,185.457Z" fill="#ffb054"/>
      <path id="Path_8592" data-name="Path 8592" d="M254.073,184.1a11.117,11.117,0,0,1-.865,1.325c-3.292,4.421-9.369,6.69-9.369,6.69L237.418,185s1.6-2.963,3.962-6.93c4.916-8.261,13.156-20.866,17.233-20.153C264.651,158.978,257.007,178.8,254.073,184.1Z" fill="#ffb054"/>
      <path id="Path_8593" data-name="Path 8593" d="M238.9,187.423c.158-.606,11.142-21.333,15.684-21.636s-2.015,17.1-9.955,23.3C239.911,191.81,238.9,187.423,238.9,187.423Z" fill="#ffdfba"/>
      <path id="Path_8594" data-name="Path 8594" d="M227.126,185.3s-4.714-23.9-7.743-23.6-2.824,21.636,2.724,25.872S227.126,185.3,227.126,185.3Z" fill="#ffdfba"/>
      <path id="Path_8595" data-name="Path 8595" d="M228.1,179.539c.571,2.033,1.2,4.026,1.906,5.918L219.044,190.9s-4.53-4.308-6.142-13.58c2.953,2.877,9.6,6.84,12.745,5.106A5.583,5.583,0,0,0,228.1,179.539Z" fill="#bf7b2c" opacity="0.2" style="mix-blend-mode: multiply;isolation: isolate"/>
      <path id="Path_8596" data-name="Path 8596" d="M253.208,185.421c-3.292,4.421-9.369,6.69-9.369,6.69L237.418,185s1.6-2.963,3.962-6.93c.156,2.541.92,6.286,3.977,7.307A15.545,15.545,0,0,0,253.208,185.421Z" fill="#bf7b2c" opacity="0.2" style="mix-blend-mode: multiply;isolation: isolate"/>
      <path id="Path_8597" data-name="Path 8597" d="M242.83,252.782c1.515-.151,3.306,1.967,3.733,4.237a13.618,13.618,0,0,1-1.455,8.018,4.428,4.428,0,0,1,2.065,4.539c-.313.908-9.079.152-9.079.152s-2.493-6.809-2.472-8.624S242.83,252.782,242.83,252.782Z" fill="#eb854c"/>
      <path id="Path_8598" data-name="Path 8598" d="M218.708,252.782c-1.511-.151-3.351,1.967-3.831,4.237a13.464,13.464,0,0,0,1.268,8.018,4.526,4.526,0,0,0-2.171,4.539c.292.908,9.076.152,9.076.152s2.651-6.809,2.672-8.624S218.708,252.782,218.708,252.782Z" fill="#eb854c"/>
      <path id="Path_8599" data-name="Path 8599" d="M260.916,219.953c-4.788,8.17-11.324,10.893-11.324,10.893s-2.435,11.079-4.694,19.1c-.634,2.242-1.252,4.249-1.8,5.706-2.5,6.658-4.209,10.593-4.209,10.593a4.3,4.3,0,0,1,1.17,3.631c-.363,1.5-5.293,1.589-7.734,1.144-.761-.136-1.281-.327-1.351-.54a4.015,4.015,0,0,1-1.371.395c-2.624.436-7.871.481-8.467-.245-.742-.908,1.26-4.085,1.26-4.085s-2.538-6.572-4.7-12.791a.017.017,0,0,0,0-.013c-.918-2.628-1.764-5.193-2.322-7.167-1.888-6.654-3.923-13.916-3.923-13.916s-9.005-6.205-11.524-10.894c6.592-7.112,11.761-22.24,15.62-28.9s9.487-9.078,11.145-8.773a49.453,49.453,0,0,0,10.594,0c2.878-.454,7.675,3.476,9.736,8.17S261.262,216.017,260.916,219.953Z" fill="#ffdfba"/>
      <path id="Path_8600" data-name="Path 8600" d="M260.916,219.953c-4.788,8.17-11.324,10.893-11.324,10.893s-2.435,11.079-4.694,19.1a138.812,138.812,0,0,0,1.83-19.862,40.12,40.12,0,0,0,9.662-11.2s-3.525-9.078-7.263-13.163c-3.95,1.666-10.711-2.419-17.366-2.723s-11.688,3.177-18.37,5.6c-.654,3.931-6.8,12.4-6.8,12.4s2.959,5.9,6.7,9.228c.235,1.243,3.254,17.493,4.4,23.507-.918-2.628-1.764-5.193-2.322-7.167-1.888-6.654-3.923-13.916-3.923-13.916s-9.005-6.205-11.524-10.894c6.592-7.112,11.761-22.24,15.62-28.9s9.487-9.078,11.145-8.773a54.409,54.409,0,0,0,10.594,0c2.878-.454,7.675,3.476,9.736,8.17S261.262,216.017,260.916,219.953Z" fill="#ffb054"/>
      <path id="Path_8601" data-name="Path 8601" d="M231.14,256.264s.549,11.311,1.185,14.76c-.761-.136-1.281-.327-1.351-.54a4.015,4.015,0,0,1-1.371.395,3.567,3.567,0,0,0,.781-1.607c.166-1.362-.451-13.462-.451-13.462s-2.246-1.97-2.53-3.332a5.685,5.685,0,0,0,2.7,1.666c1.508.3,4.256-1.816,4.256-1.816Z" fill="#bf7b2c" opacity="0.2" style="mix-blend-mode: multiply;isolation: isolate"/>
      <path id="Path_8602" data-name="Path 8602" d="M223.034,207c-.13,1.94,4.481,4.993,7.942,4.993s7.249-3.744,7.158-5.73-4.5-2.95-7.74-2.78S223.171,204.954,223.034,207Z" fill="#453727"/>
      <path id="Path_8603" data-name="Path 8603" d="M223.9,202.723a4.948,4.948,0,0,1-.712.359c-4.884,1.992-5.339-4.158-3.88-7.435,1.51-3.4,4.138-4.539,5.834-4.48.1,0,.2.009.291.023a2.7,2.7,0,0,1,2.4,1.988,4.866,4.866,0,0,1,.231,1.275C228.219,197.29,226.49,201.166,223.9,202.723Z" fill="#fff"/>
      <path id="Path_8604" data-name="Path 8604" d="M223.9,202.723c-1.971-.69-3.128-3.4-2.622-6.363.473-2.765,2.227-4.862,4.155-5.17a2.7,2.7,0,0,1,2.4,1.988,4.866,4.866,0,0,1,.231,1.275C228.219,197.29,226.49,201.166,223.9,202.723Z" fill="#453727"/>
      <path id="Path_8605" data-name="Path 8605" d="M238.252,202.628a4.81,4.81,0,0,1-.7-.359c-2.425-1.479-4.026-5.051-3.989-7.838a5.476,5.476,0,0,1,.2-1.475,2.832,2.832,0,0,1,2.522-2.22c.1-.014.191-.018.291-.023,1.7-.059,4.3,1.076,5.73,4.48C243.688,198.47,243.09,204.62,238.252,202.628Z" fill="#fff"/>
      <path id="Path_8606" data-name="Path 8606" d="M237.548,202.269c-2.425-1.479-4.026-5.051-3.989-7.838a5.476,5.476,0,0,1,.2-1.475,2.832,2.832,0,0,1,2.522-2.22c1.921.309,3.626,2.406,4.034,5.17C240.756,198.874,239.535,201.579,237.548,202.269Z" fill="#453727"/>
      <path id="Path_8607" data-name="Path 8607" d="M235.865,162.459c-.735-1.816-1.892-6.355.988-6.809s2.221,4.086,2.221,4.086,1.978-.908,1.958.756S235.865,162.459,235.865,162.459Z" fill="#ff717f"/>
      <path id="Path_8608" data-name="Path 8608" d="M205.271,191.205s2.16-3.631,2.021-4.69-2.586,1.21-2.586,1.21-2.4-1.513-3.179.152S205.271,191.205,205.271,191.205Z" fill="#ff717f"/>
      <path id="Path_8609" data-name="Path 8609" d="M260.035,191.659c.329-2.27-4.525-1.21-3.637.454a11.069,11.069,0,0,0,2.688,3.026s3.948-1.211,4.115-2.572S260.035,191.659,260.035,191.659Z" fill="#ff717f"/>
      <path id="Path_8610" data-name="Path 8610" d="M239.23,224.188s-1.185,4.311-4.37,4.992c-5.136,1.1-8.331-5.673-11.962-5.673s-17.694-.681-22.978-1.739c2.519,4.689,11.524,10.894,11.524,10.894s2.035,7.262,3.923,13.916c.558,1.974,1.4,4.539,2.322,7.167a.017.017,0,0,1,0,.013c2.165,6.219,4.7,12.791,4.7,12.791,4.562-1.965,7.929,1.212,3.577,4.616a.114.114,0,0,0-.023.018,27.921,27.921,0,0,0,3.653-.3,4.015,4.015,0,0,0,1.371-.395c.07.213.59.4,1.351.54a18.742,18.742,0,0,0,4.591.164c-2.692-1.476-4.162-4.648,1.973-4.939,0,0,1.712-3.935,4.209-10.593.548-1.457,1.166-3.464,1.8-5.706,2.259-8.025,4.694-19.1,4.694-19.1s6.536-2.723,11.324-10.893C253.915,223.661,239.23,224.188,239.23,224.188Zm-9.609,26.1c-5.433-1.135-11.2-12.709-8.2-17.248,1.017-1.534,18.842-.454,19.256,2.951S235.054,251.421,229.621,250.286Z" fill="#bf7b2c" opacity="0.2" style="mix-blend-mode: multiply;isolation: isolate"/>
      <path id="Path_8611" data-name="Path 8611" d="M242.893,208.6s-2.887,6.646-4.662,11.765q-.177.512-.334.994c-.334,1-.6,1.916-.785,2.674a.091.091,0,0,1-.009.031c0,.032-.015.064-.024.1-.9,3.622-2.689,4.816-4.783,2.987a9.564,9.564,0,0,1-1.7-2.061,35.144,35.144,0,0,0-3.038-4.157,21.65,21.65,0,0,0-3.534-3.255,16.312,16.312,0,0,1-4.643-7.035c-.083-.331.212-.259.192-.531,2.194,6.5,8.361,9.681,14.436,7.566,4.544-1.584,7.157-6.917,8.239-8.982C242.614,208,242.893,208.6,242.893,208.6Z" fill="#ae3628"/>
      <path id="Path_8612" data-name="Path 8612" d="M242.893,208.6s-2.887,6.646-4.662,11.765q-.177.512-.334.994c-.334,1-.6,1.916-.785,2.674a.091.091,0,0,1-.009.031,1.546,1.546,0,0,1-1.034-1.243c-.781-3.123-6.553-4.789-8.511-1.888a21.65,21.65,0,0,0-3.534-3.255,16.312,16.312,0,0,1-4.643-7.035c-.083-.331.212-.259.192-.531,2.194,6.5,8.361,9.681,14.436,7.566,4.544-1.584,7.157-6.917,8.239-8.982C242.614,208,242.893,208.6,242.893,208.6Z" fill="#ae3628" opacity="0.4" style="mix-blend-mode: multiply;isolation: isolate"/>
      <path id="Path_8613" data-name="Path 8613" d="M237.079,224.169a20.465,20.465,0,0,0-.272,3.477c0,1.053.1,2.66.2,4.426.215,3.744.426,8.219-.364,9.763-1.161,2.269-5.75,1.529-6.528.508s-1.21-3.631.1-8.8a46.23,46.23,0,0,1,2.08-6.391c.239-.567.495-1.121.764-1.652,1.338-2.669,3.056-4.793,5.171-5.134q-.177.512-.334.994A10.735,10.735,0,0,0,237.079,224.169Z" fill="#ff7547"/>
      <path id="Path_8614" data-name="Path 8614" d="M237.079,224.169a20.465,20.465,0,0,0-.272,3.477c0,1.053.1,2.66.2,4.426-.572-2.692-1.969-7.866-3.945-6.568,1.338-2.669,3.056-4.793,5.171-5.134q-.177.512-.334.994A10.735,10.735,0,0,0,237.079,224.169Z" fill="#ff7547" opacity="0.4" style="mix-blend-mode: multiply;isolation: isolate"/>
      <path id="Path_8615" data-name="Path 8615" d="M241.577,207.791c-.456,1,2.017,2.213,2.478,1.588S241.81,207.28,241.577,207.791Z" fill="#ae3628"/>
      <path id="Path_8616" data-name="Path 8616" d="M218.794,210.571c.2,1.045,1.649-.341,1.655-.851S218.687,210,218.794,210.571Z" fill="#ae3628"/>
      <path id="Path_8617" data-name="Path 8617" d="M225.379,205.351c-1.944,1.083,10.2,1.059,10.816.152S230.4,202.552,225.379,205.351Z" fill="#453727" style="mix-blend-mode: screen;isolation: isolate"/>
      <ellipse id="Ellipse_484" data-name="Ellipse 484" cx="1.475" cy="0.908" rx="1.475" ry="0.908" transform="matrix(0.019, -1, 1, 0.019, 234.031, 195.613)" fill="#fff"/>
      <path id="Path_8618" data-name="Path 8618" d="M227.7,194.231c-.01.815-.424,1.475-.925,1.475s-.9-.66-.891-1.475.424-1.475.925-1.475S227.712,193.416,227.7,194.231Z" fill="#fff"/>
    </g>
  </g>
</svg>
