<svg xmlns="http://www.w3.org/2000/svg" width="75.1" height="124.165" viewBox="0 0 75.1 124.165">
  <g id="_7-god" data-name="7-god" transform="translate(-27.8 -20.555)">
    <path id="Path_8743" data-name="Path 8743" d="M27.8,139.827h75.1s-9.845,4.893-37.607,4.893S27.8,139.827,27.8,139.827Z" fill="#e6d4bf"/>
    <path id="Path_8744" data-name="Path 8744" d="M64.9,53.958,53.559,59.6S48.87,55.138,47.2,45.538c-.075-.418-.14-.85-.2-1.292C45.558,33.754,50.891,19.658,54.014,20.6c3.83,1.151,5.4,14.861,8.915,27.233C63.52,49.936,64.173,52,64.9,53.958Z" fill="#ffb054"/>
    <path id="Path_8745" data-name="Path 8745" d="M89.821,52.549a11.449,11.449,0,0,1-.895,1.372c-3.408,4.576-9.7,6.925-9.7,6.925L72.58,53.488s1.652-3.068,4.1-7.174c5.09-8.552,13.62-21.6,17.84-20.863C100.772,26.546,92.859,47.065,89.821,52.549Z" fill="#ffb054"/>
    <path id="Path_8746" data-name="Path 8746" d="M74.117,55.993c.164-.627,11.534-22.084,16.237-22.4s-2.086,17.7-10.3,24.12C75.16,60.535,74.117,55.993,74.117,55.993Z" fill="#ffdfba"/>
    <path id="Path_8747" data-name="Path 8747" d="M61.926,53.8s-4.88-24.746-8.016-24.433-2.924,22.4,2.82,26.782S61.926,53.8,61.926,53.8Z" fill="#ffdfba"/>
    <path id="Path_8748" data-name="Path 8748" d="M62.929,47.831c.591,2.1,1.244,4.168,1.973,6.127L53.559,59.6S48.87,55.138,47.2,45.538c3.057,2.979,9.94,7.081,13.193,5.286a5.775,5.775,0,0,0,2.536-2.993Z" fill="#bf7b2c" opacity="0.2"/>
    <path id="Path_8749" data-name="Path 8749" d="M88.926,53.921c-3.408,4.576-9.7,6.925-9.7,6.925L72.58,53.488s1.652-3.068,4.1-7.174c.162,2.631.953,6.507,4.117,7.564A16.109,16.109,0,0,0,88.926,53.921Z" fill="#bf7b2c" opacity="0.2"/>
    <path id="Path_8750" data-name="Path 8750" d="M78.183,123.654c1.568-.157,3.422,2.036,3.864,4.385a14.1,14.1,0,0,1-1.506,8.3,4.584,4.584,0,0,1,2.138,4.7c-.325.94-9.4.157-9.4.157s-2.58-7.048-2.558-8.928S78.183,123.654,78.183,123.654Z" fill="#eb854c"/>
    <path id="Path_8751" data-name="Path 8751" d="M53.212,123.654c-1.565-.157-3.47,2.036-3.967,4.385a13.944,13.944,0,0,0,1.313,8.3,4.688,4.688,0,0,0-2.248,4.7c.3.94,9.4.157,9.4.157s2.744-7.048,2.766-8.928S53.212,123.654,53.212,123.654Z" fill="#eb854c"/>
    <path id="Path_8752" data-name="Path 8752" d="M96.906,89.668c-4.957,8.458-11.723,11.277-11.723,11.277s-2.521,11.47-4.859,19.777c-.657,2.321-1.3,4.4-1.864,5.906C75.875,133.521,74.1,137.6,74.1,137.6a4.457,4.457,0,0,1,1.211,3.759c-.376,1.55-5.479,1.644-8.007,1.184-.787-.141-1.325-.338-1.4-.559a4.143,4.143,0,0,1-1.419.408c-2.716.452-8.149.5-8.765-.253-.769-.94,1.3-4.229,1.3-4.229s-2.627-6.8-4.868-13.241a.016.016,0,0,0-.005-.014c-.95-2.721-1.826-5.375-2.4-7.419-1.954-6.889-4.06-14.406-4.06-14.406S36.369,96.4,33.762,91.548c6.824-7.363,12.175-23.024,16.169-29.917s9.822-9.4,11.538-9.082a51.164,51.164,0,0,0,10.967,0c2.98-.47,7.946,3.6,10.079,8.457S97.263,85.6,96.906,89.668Z" fill="#ffdfba"/>
    <path id="Path_8753" data-name="Path 8753" d="M96.906,89.668c-4.957,8.458-11.723,11.277-11.723,11.277s-2.521,11.47-4.859,19.777a143.678,143.678,0,0,0,1.893-20.562,41.521,41.521,0,0,0,10-11.591s-3.649-9.4-7.519-13.626c-4.089,1.724-11.088-2.5-17.977-2.82s-12.1,3.289-19.017,5.8c-.677,4.069-7.043,12.841-7.043,12.841s3.063,6.108,6.936,9.552c.244,1.288,3.37,18.109,4.556,24.335-.95-2.721-1.826-5.375-2.4-7.419-1.954-6.889-4.06-14.406-4.06-14.406S36.369,96.4,33.762,91.548c6.824-7.363,12.175-23.024,16.169-29.917s9.822-9.4,11.538-9.082a56.339,56.339,0,0,0,10.967,0c2.98-.47,7.946,3.6,10.079,8.457S97.263,85.6,96.906,89.668Z" fill="#ffb054"/>
    <path id="Path_8754" data-name="Path 8754" d="M66.081,127.258s.568,11.709,1.226,15.28c-.787-.141-1.325-.338-1.4-.559a4.143,4.143,0,0,1-1.419.408,3.7,3.7,0,0,0,.809-1.663c.171-1.409-.467-13.936-.467-13.936s-2.326-2.039-2.62-3.449a5.886,5.886,0,0,0,2.8,1.725c1.561.314,4.4-1.88,4.4-1.88Z" fill="#bf7b2c" opacity="0.2"/>
    <path id="Path_8755" data-name="Path 8755" d="M57.69,76.256c-.135,2.008,4.638,5.168,8.221,5.168s7.5-3.876,7.411-5.932-4.663-3.054-8.013-2.878S57.832,74.141,57.69,76.256Z" fill="#453727"/>
    <path id="Path_8756" data-name="Path 8756" d="M58.589,71.832a5.086,5.086,0,0,1-.737.371c-5.056,2.063-5.527-4.3-4.017-7.7,1.564-3.524,4.284-4.7,6.04-4.638.1.005.2.01.3.024a2.8,2.8,0,0,1,2.485,2.058,5.029,5.029,0,0,1,.238,1.32C63.058,66.208,61.268,70.22,58.589,71.832Z" fill="#fff"/>
    <path id="Path_8757" data-name="Path 8757" d="M58.589,71.832c-2.04-.714-3.238-3.515-2.714-6.588.489-2.861,2.305-5.032,4.3-5.351a2.8,2.8,0,0,1,2.485,2.058,5.029,5.029,0,0,1,.238,1.32C63.058,66.208,61.268,70.22,58.589,71.832Z" fill="#453727"/>
    <path id="Path_8758" data-name="Path 8758" d="M73.443,71.733a5,5,0,0,1-.729-.371c-2.51-1.532-4.167-5.23-4.129-8.114a5.653,5.653,0,0,1,.21-1.528,2.932,2.932,0,0,1,2.612-2.3c.1-.014.2-.019.3-.024,1.759-.061,4.451,1.114,5.933,4.638C79.071,67.429,78.451,73.8,73.443,71.733Z" fill="#fff"/>
    <path id="Path_8759" data-name="Path 8759" d="M72.714,71.362c-2.51-1.532-4.167-5.23-4.129-8.114a5.653,5.653,0,0,1,.21-1.528,2.932,2.932,0,0,1,2.612-2.3c1.988.319,3.753,2.49,4.175,5.352C76.035,67.848,74.771,70.648,72.714,71.362Z" fill="#453727"/>
    <path id="Path_8760" data-name="Path 8760" d="M70.973,30.15c-.761-1.88-1.96-6.578,1.022-7.048s2.3,4.229,2.3,4.229,2.047-.94,2.027.783S70.973,30.15,70.973,30.15Z" fill="#ff717f"/>
    <path id="Path_8761" data-name="Path 8761" d="M39.3,59.908s2.237-3.759,2.093-4.855-2.677,1.253-2.677,1.253-2.488-1.566-3.291.157S39.3,59.908,39.3,59.908Z" fill="#ff717f"/>
    <path id="Path_8762" data-name="Path 8762" d="M95.993,60.378c.341-2.349-4.684-1.253-3.764.47a11.437,11.437,0,0,0,2.782,3.133s4.087-1.253,4.26-2.663S95.993,60.378,95.993,60.378Z" fill="#ff717f"/>
    <path id="Path_8763" data-name="Path 8763" d="M74.456,94.052s-1.227,4.464-4.524,5.169c-5.317,1.136-8.624-5.874-12.383-5.874s-18.317-.705-23.787-1.8c2.607,4.853,11.93,11.277,11.93,11.277s2.106,7.517,4.06,14.406c.578,2.044,1.454,4.7,2.4,7.419a.016.016,0,0,1,.005.014C54.4,131.1,57.029,137.9,57.029,137.9c4.722-2.034,8.208,1.254,3.7,4.779a.092.092,0,0,0-.023.018,28.648,28.648,0,0,0,3.781-.315,4.144,4.144,0,0,0,1.419-.408c.073.221.611.418,1.4.559a19.456,19.456,0,0,0,4.754.169c-2.788-1.527-4.309-4.811,2.042-5.112,0,0,1.772-4.074,4.357-10.967.567-1.508,1.207-3.585,1.864-5.906,2.338-8.307,4.859-19.777,4.859-19.777S91.948,98.121,96.9,89.663C89.658,93.507,74.456,94.052,74.456,94.052ZM64.508,121.07c-5.624-1.175-11.593-13.157-8.484-17.855,1.052-1.589,19.5-.47,19.934,3.054S70.133,122.244,64.508,121.07Z" fill="#bf7b2c" opacity="0.2"/>
    <path id="Path_8764" data-name="Path 8764" d="M78.248,77.922S75.259,84.8,73.421,90.1c-.121.352-.238.695-.345,1.029-.346,1.038-.625,1.982-.812,2.767a.1.1,0,0,1-.01.033.953.953,0,0,1-.025.1c-.927,3.75-2.783,4.986-4.951,3.092a9.865,9.865,0,0,1-1.76-2.133,36.521,36.521,0,0,0-3.145-4.3,22.441,22.441,0,0,0-3.659-3.369,16.9,16.9,0,0,1-4.806-7.283c-.086-.343.219-.268.2-.55,2.271,6.733,8.655,10.022,14.944,7.833,4.7-1.64,7.409-7.161,8.529-9.3C77.959,77.3,78.248,77.922,78.248,77.922Z" fill="#ae3628"/>
    <path id="Path_8765" data-name="Path 8765" d="M78.248,77.922S75.259,84.8,73.421,90.1c-.121.352-.238.695-.345,1.029-.346,1.038-.625,1.982-.812,2.767a.1.1,0,0,1-.01.033,1.6,1.6,0,0,1-1.071-1.288c-.808-3.232-6.783-4.957-8.81-1.954a22.441,22.441,0,0,0-3.659-3.369,16.9,16.9,0,0,1-4.806-7.283c-.086-.343.219-.268.2-.55,2.271,6.733,8.655,10.022,14.944,7.833,4.7-1.64,7.409-7.161,8.529-9.3C77.959,77.3,78.248,77.922,78.248,77.922Z" fill="#ae3628" opacity="0.4"/>
    <path id="Path_8766" data-name="Path 8766" d="M72.229,94.033a21.257,21.257,0,0,0-.282,3.6c0,1.091.105,2.754.205,4.582.223,3.876.441,8.509-.376,10.107-1.2,2.349-5.953,1.583-6.758.526s-1.253-3.759.106-9.106a47.913,47.913,0,0,1,2.154-6.616c.247-.587.512-1.16.791-1.71,1.385-2.763,3.163-4.962,5.352-5.314-.121.352-.238.695-.345,1.029A11.073,11.073,0,0,0,72.229,94.033Z" fill="#ff7547"/>
    <path id="Path_8767" data-name="Path 8767" d="M72.229,94.033a21.257,21.257,0,0,0-.282,3.6c0,1.091.105,2.754.205,4.582-.592-2.787-2.038-8.143-4.083-6.8,1.385-2.763,3.163-4.962,5.352-5.314-.121.352-.238.695-.345,1.029A11.073,11.073,0,0,0,72.229,94.033Z" fill="#ff7547" opacity="0.4"/>
    <path id="Path_8768" data-name="Path 8768" d="M76.886,77.078c-.473,1.037,2.088,2.291,2.565,1.645S77.127,76.55,76.886,77.078Z" fill="#ae3628"/>
    <path id="Path_8769" data-name="Path 8769" d="M53.3,79.956c.2,1.082,1.708-.352,1.714-.881S53.19,79.369,53.3,79.956Z" fill="#ae3628"/>
    <path id="Path_8770" data-name="Path 8770" d="M60.118,74.553c-2.013,1.121,10.559,1.1,11.2.156S65.32,71.655,60.118,74.553Z" fill="#453727"/>
    <path id="Path_8771" data-name="Path 8771" d="M70.981,62.962c-.009.844-.438,1.528-.957,1.528s-.932-.684-.922-1.528.439-1.527.958-1.527S70.991,62.119,70.981,62.962Z" fill="#fff"/>
    <path id="Path_8772" data-name="Path 8772" d="M62.523,63.041c-.01.843-.439,1.527-.958,1.527s-.931-.684-.922-1.527.439-1.527.958-1.527S62.533,62.2,62.523,63.041Z" fill="#fff"/>
  </g>
</svg>
