<svg xmlns="http://www.w3.org/2000/svg" width="185.932" height="166.288" viewBox="0 0 185.932 166.288">
  <g id="Pet_3" transform="translate(-288.594 -25.156)" opacity="0.798">
    <path id="Path_8773" data-name="Path 8773" d="M316.492,102.242l-6.843,4.97-.02.02-.438.319s-9.955-6.969-6.3-9.623a4.725,4.725,0,0,1,3.71-.439C310.93,98.345,316.492,102.242,316.492,102.242Z" transform="translate(5.563 29.762)" fill="#ffb054"/>
    <path id="Path_8774" data-name="Path 8774" d="M311.959,104.783s-1.021,1.168-2.309,2.429l-.02.02-.438.319s-9.955-6.969-6.3-9.623a4.725,4.725,0,0,1,3.71-.439C301.839,102.84,311.959,104.783,311.959,104.783Z" transform="translate(5.563 29.762)" fill="#bf7b2c" opacity="0.2" style="mix-blend-mode: multiply;isolation: isolate"/>
    <path id="Path_8775" data-name="Path 8775" d="M410.8,35.856s8.627-10.95,11.116-7.965-9.871,15.43-9.871,15.43l-1.908-1.079Z" transform="translate(50.124 0.916)" fill="#ffcd69"/>
    <path id="Path_8776" data-name="Path 8776" d="M381.31,57.587l-3.982,10.95s-1.215-.179-3.233-.47c-6.124-.883-19.63-2.761-28.622-3.511a49.621,49.621,0,0,1-16.053-4c-4.035-1.905-6.172-4.136-4.52-5.953C328.218,50.952,353.1,47.964,381.31,57.587Z" transform="translate(14.741 10.706)" fill="#f5a051"/>
    <path id="Path_8777" data-name="Path 8777" d="M372.612,65.773c-6.124-.883-19.63-2.761-28.622-3.511a49.621,49.621,0,0,1-16.053-4c19.412-3.179,42.506-.823,47.69.684C378.845,59.879,375.638,63.263,372.612,65.773Z" transform="translate(16.225 13.001)" fill="#f5a051" opacity="0.3" style="mix-blend-mode: multiply;isolation: isolate"/>
    <path id="Path_8778" data-name="Path 8778" d="M379.13,60.5V71.118s-.379.093-1.048.266c-1.64.4-5.063,1.247-9.045,2.15-4.832,1.1-10.486,2.277-14.793,2.894-9.456,1.353-42.8.664-41.478-7.965,1.188-7.724,34.855-11.726,58.554-9.138C374.08,59.624,376.707,60.015,379.13,60.5Z" transform="translate(9.952 13.767)" fill="#ffb054"/>
    <path id="Path_8779" data-name="Path 8779" d="M374.044,63.579s-47.119-4.977-52.1,4.977c-2.4,4.8,37.495,3.982,50.437-.664S374.044,63.579,374.044,63.579Z" transform="translate(13.712 15.333)" fill="#ffdfba"/>
    <path id="Path_8780" data-name="Path 8780" d="M362.688,60.27v8.051c-.438,1.2-.816,2.2-1.048,2.833-1.64.4-5.063,1.247-9.045,2.15.969-1.871,2.9-6.65,2.282-14.209C357.639,59.394,360.266,59.786,362.688,60.27Z" transform="translate(26.394 13.997)" fill="#bf7b2c" opacity="0.2" style="mix-blend-mode: multiply;isolation: isolate"/>
    <path id="Path_8781" data-name="Path 8781" d="M339.934,117.113a15.08,15.08,0,0,1-15.264,9.623s-2.987,8.3-6.637,4.313c-1.991-2.172-1.119-4.839.088-6.813a5.958,5.958,0,0,1,5.1-2.809H325l-.664-4.645Z" transform="translate(11.653 37.786)" fill="#cf9c7a"/>
    <path id="Path_8782" data-name="Path 8782" d="M362.694,119.22c11.945,6.3,21.235,2.987,21.9-1.658s-11.282-3.319-15.928-5.309S359.043,113.579,362.694,119.22Z" transform="translate(30.039 35.679)" fill="#cf9c7a"/>
    <path id="Path_8783" data-name="Path 8783" d="M429.955,94.26s-11.946,9.291-25.218,37.495c-36.833,16.591-45.46,11.282-56.41,11.946-8.448.511-23.207,2.21-29.519,2.96-1.871.219-3,.357-3,.357l2.966-6.8,6.2-14.2,3.438-7.864s21.569-4.977,27.542-16.591a18.414,18.414,0,0,1-5.641-10.287s21.237-5.308,25.218-26.877c4.645-6.969,13.936-11.282,13.936-11.282s8.959,0,11.946.664c1.459.325,8.288,9.974,14.905,19.769,3.716,5.5,7.36,11.051,9.94,15.018C428.509,92.01,429.955,94.26,429.955,94.26Z" transform="translate(11.223 11.53)" fill="#ffdfba"/>
    <path id="Path_8784" data-name="Path 8784" d="M429.955,83.909S418.009,93.2,404.737,121.4C367.9,138,359.277,132.686,348.327,133.35c-8.448.511-23.207,2.21-29.519,2.96-1.871.219-3,.357-3,.357l2.966-6.8c3.271-2.1,7.871-5.03,7.871-5.03,7.08,6.411,21.017,1.99,21.017,1.99l15.928-4.426s23.447.219,34.509-5.09.664-18.8,19.69-33.182c2.86-2.164,5.715-4.155,8.474-5.914C428.509,81.659,429.955,83.909,429.955,83.909Z" transform="translate(11.223 21.881)" fill="#bf7b2c" opacity="0.2" style="mix-blend-mode: multiply;isolation: isolate"/>
    <path id="Path_8785" data-name="Path 8785" d="M338.826,114.425s-.922,1.274-2.436,3.239c-1.97,2.582-4.956,6.357-8.169,10.008a63.3,63.3,0,0,1-9.635,9.318c-7.965,5.641-15.6.332-15.6.332s-2.986,6.967-8.3,3.982,3.318-11.614,4.645-11.946,4.645,1,8.627,0c-2.349-10.572,1.54-19.411,5.123-24.887A10.6,10.6,0,0,1,323.636,99.8a38.85,38.85,0,0,0,7.7.5,22.654,22.654,0,0,0,6.49-1.141Z" transform="translate(1.811 30.52)" fill="#ffb054"/>
    <path id="Path_8786" data-name="Path 8786" d="M365.122,104.215s3.983,5.973,8.628,13.272c-9.955.664-46.123,15.928-46.123,15.928s-2.3-3.445-4.434-7.4a43.588,43.588,0,0,1-3.052-6.723,22.654,22.654,0,0,0,6.49-1.141s21.569-4.977,27.542-16.591a18.414,18.414,0,0,1-5.641-10.287S369.769,85.965,373.75,64.4c4.645-6.969,13.936-11.282,13.936-11.282s8.959,0,11.946.664c1.459.325,8.288,9.974,14.905,19.769L372.091,87.291l-3.027,7.347-3.311,8.042Z" transform="translate(13.01 11.53)" fill="#ffb054"/>
    <path id="Path_8787" data-name="Path 8787" d="M372.76,88.87s-9.079,2.4-15.3,2.669a36.425,36.425,0,0,1-11.58-1.121,18.414,18.414,0,0,1-5.641-10.287c3.617,3.332,12.609,3.75,20.532,3.366a135.814,135.814,0,0,0,14.2-1.487Z" transform="translate(21.3 22.672)" fill="#bf7b2c" opacity="0.2" style="mix-blend-mode: multiply;isolation: isolate"/>
    <path id="Path_8788" data-name="Path 8788" d="M398.1,85.415s-.371.025-1.042.138a34.433,34.433,0,0,0-11.76,4.321,35.519,35.519,0,0,0-4.121,2.84c-8.3,6.637-9.955,6.637-11.613,1.66a12.554,12.554,0,0,1-.578-2.7c-.432-4.28,1.22-8.972,4.227-13.89l23.406,7.181Z" transform="translate(33.125 21.703)" fill="#ae3628"/>
    <path id="Path_8789" data-name="Path 8789" d="M397.056,85.553a34.433,34.433,0,0,0-11.76,4.321c-2.959-2.164-11.327-7.107-16.312,1.8-.432-4.28,1.22-8.972,4.227-13.89l23.406,7.181A5.232,5.232,0,0,1,397.056,85.553Z" transform="translate(33.125 21.703)" fill="#ae3628" opacity="0.4" style="mix-blend-mode: multiply;isolation: isolate"/>
    <path id="Path_8790" data-name="Path 8790" d="M378.592,119.589c-.213,1.938-2.11,3.883-4.778,5.37a21.23,21.23,0,0,1-3.8,1.626c-.338.106-.689.212-1.041.305-4.977,1.328-19.245.332-33.847-8.627-.5-.373-.935-.73-1.321-1.082-9.244-8.435,15.152-11.1,20.567-8.873a11.612,11.612,0,0,1,2.315,1.247c3.186,2.21,3.319,4.891,8.3,5.72C370.96,116.272,378.924,116.6,378.592,119.589Z" transform="translate(17.79 33.982)" fill="#ffdfba"/>
    <path id="Path_8791" data-name="Path 8791" d="M386.92,79.728C383.6,85.7,370,94,358.383,90.015a16.506,16.506,0,0,1-4.552-2.329c-6.145-4.606-3.6-11.349.571-8.289,4.513,3.312,15.032,5.257,24.621,1.129a26.185,26.185,0,0,0,2.921-1.459S390.238,73.757,386.92,79.728Z" transform="translate(25.39 21.336)" fill="#ff7547"/>
    <path id="Path_8792" data-name="Path 8792" d="M385.849,79.728C382.53,85.7,368.925,94,357.311,90.015a16.506,16.506,0,0,1-4.552-2.329c13.572,5.88,24.854-.65,26.453-4.559.843-2.064-.113-2.588-1.261-2.6a26.185,26.185,0,0,0,2.921-1.459S389.166,73.757,385.849,79.728Z" transform="translate(26.462 21.336)" fill="#ae3628" opacity="0.4" style="mix-blend-mode: multiply;isolation: isolate"/>
    <path id="Path_8793" data-name="Path 8793" d="M380.857,69.6c-.061.158-.127.318-.2.47-2.476,5.11-9.138.777-12.391-3.251-3.185-3.942-4.439-8.926,1.175-8.993.12,0,.246.007.371.007C377.028,58.014,382.781,64.538,380.857,69.6Z" transform="translate(31.739 13.472)" fill="#fff"/>
    <path id="Path_8794" data-name="Path 8794" d="M384.2,68.7a2.127,2.127,0,0,1-.393-.079c-3.942-1.082-10.777-11.428-8.507-12.556a1.711,1.711,0,0,1,1.267.027C384.867,58.579,388.517,69.2,384.2,68.7Z" transform="translate(35.573 12.702)" fill="#fff"/>
    <path id="Path_8795" data-name="Path 8795" d="M379.939,69.6c-1.905,1.4-5.695.2-8.74-2.835-3.152-3.158-4.32-7.114-2.675-8.939.12,0,.246.007.371.007C376.11,58.014,381.863,64.538,379.939,69.6Z" transform="translate(32.656 13.472)" fill="#453727"/>
    <path id="Path_8796" data-name="Path 8796" d="M384.157,68.369a1.179,1.179,0,0,1-.346.219c-3.942-1.082-10.777-11.428-8.507-12.556a14.5,14.5,0,0,1,5.681,4.127C384.031,63.518,385.45,67.194,384.157,68.369Z" transform="translate(35.573 12.733)" fill="#453727"/>
    <path id="Path_8797" data-name="Path 8797" d="M288.594,138.532H411.425s-16.008,6.155-61.415,6.155S288.594,138.532,288.594,138.532Z" transform="translate(0 46.756)" fill="#e6d4bf"/>
    <path id="Path_8798" data-name="Path 8798" d="M404.4,42.348c.572,1.308,12.608-1.99,12.277-3.65S403.239,39.694,404.4,42.348Z" transform="translate(47.728 5.373)" fill="#c29c50"/>
    <g id="Group_7324" data-name="Group 7324" transform="translate(462.747 39.259)">
      <path id="Path_8799" data-name="Path 8799" d="M412.229,40.45a.331.331,0,0,1-.23-.571c3.34-3.226,7.261-5.107,9.755-4.678a2.449,2.449,0,0,1,1.887,1.285.332.332,0,0,1-.593.3,1.794,1.794,0,0,0-1.405-.928c-1.911-.328-5.491.938-9.183,4.5A.332.332,0,0,1,412.229,40.45Z" transform="translate(-411.897 -35.141)" fill="#c29c50"/>
    </g>
    <g id="Group_7325" data-name="Group 7325" transform="translate(461.752 42.956)">
      <path id="Path_8800" data-name="Path 8800" d="M422.473,40.533a.332.332,0,0,1-.328-.288,1.714,1.714,0,0,0-1.013-1.271c-1.708-.905-5.506-.785-9.46,1.192a.332.332,0,1,1-.3-.593c3.727-1.863,7.868-2.35,10.068-1.185a2.367,2.367,0,0,1,1.36,1.77.334.334,0,0,1-.285.373Z" transform="translate(-411.192 -37.759)" fill="#c29c50"/>
    </g>
    <path id="Path_8801" data-name="Path 8801" d="M413.655,44.832a1.56,1.56,0,0,0,1.089-1.188c2.383-11.923,1.936-18.326-2.593-18.487-4.645-.167-7.356,11.282-3.318,15.761-2.378-1.271-6.637-1.99-6.8,1.161-.147,2.811,6.76,3.511,8.26,3.63a1.49,1.49,0,0,0,.552-.058Z" transform="translate(46.78 0)" fill="#ffee94"/>
    <path id="Path_8802" data-name="Path 8802" d="M432.882,72.407c-3.524,7.818-10.678,17.216-18.223,19.864-18.915,6.635-36.5-7.3-36.5-7.3l-21.237-.664c1-1,30.2-11.945,40.482-15.928a167.443,167.443,0,0,1,16.511-5.315c8.926-2.37,17.767-3.816,20.322-1.653C435.942,62.851,435.192,67.292,432.882,72.407Z" transform="translate(28.178 14.515)" fill="#ffdfba"/>
    <path id="Path_8803" data-name="Path 8803" d="M418.829,64.83a24.122,24.122,0,0,1-2.257,7.578c-7.114,2.953-24.707-2.588-18.967-9.343,1.182-.312,2.37-.612,3.531-.89,7.633-1.8,14.573-2.641,16.791-.763C418.669,62.042,418.947,63.244,418.829,64.83Z" transform="translate(44.489 14.514)" fill="#453727"/>
    <path id="Path_8804" data-name="Path 8804" d="M369.572,79.093c.374.688,5.65-.579,5.525-1.134C374.677,76.07,368.648,77.394,369.572,79.093Z" transform="translate(33.356 21.395)" fill="#ae3628"/>
    <path id="Path_8805" data-name="Path 8805" d="M407.373,39.826c-3.757-.941-5.723,2.819-3.982,3.815S408.368,40.074,407.373,39.826Z" transform="translate(47.078 5.988)" fill="#c29c50"/>
    <path id="Path_8806" data-name="Path 8806" d="M410.166,27.331c-3.325.256-2.821,6.554-.083,5.89S412.322,27.164,410.166,27.331Z" transform="translate(49.18 0.896)" fill="#ff9087"/>
    <path id="Path_8807" data-name="Path 8807" d="M403.384,37.061c-.271,1.9,3.484,2.073,3.651.912S403.551,35.9,403.384,37.061Z" transform="translate(47.334 4.688)" fill="#ff9087"/>
    <path id="Path_8808" data-name="Path 8808" d="M414.423,32.119c-.14,2.371,4.232-2.322,4.232-3.484S414.506,30.71,414.423,32.119Z" transform="translate(51.891 1.333)" fill="#ff80b5"/>
    <path id="Path_8809" data-name="Path 8809" d="M374.344,119.044c-.213,1.938-2.11,3.883-4.778,5.37-6.524.8-15.822-2.223-22.1-5.37-8.661-4.333-6.935-11.2,4.97-10.034,3.186,2.21,3.319,4.891,8.3,5.72C366.711,115.726,374.676,116.058,374.344,119.044Z" transform="translate(22.039 34.527)" fill="#ffdfba" opacity="0.4" style="mix-blend-mode: screen;isolation: isolate"/>
    <path id="Path_8810" data-name="Path 8810" d="M417.467,64.83c-5.595.949-16.751.994-17.693-2.655,7.633-1.8,14.573-2.641,16.791-.763C417.308,62.042,417.586,63.244,417.467,64.83Z" transform="translate(45.851 14.514)" fill="#453727" style="mix-blend-mode: screen;isolation: isolate"/>
    <path id="Path_8811" data-name="Path 8811" d="M372.181,59.45c-1.308,1.2,1.244,3.65,2.323,2.819S373.177,58.537,372.181,59.45Z" transform="translate(34.321 14.071)" fill="#fff"/>
    <path id="Path_8812" data-name="Path 8812" d="M376.084,58.382c-.415,1.391,1.847,3.241,2.239,2.247S376.4,57.324,376.084,58.382Z" transform="translate(36.06 13.591)" fill="#fff"/>
    <path id="Path_8813" data-name="Path 8813" d="M336.39,116.113c-1.97,2.582-4.956,6.357-8.169,10.008a63.3,63.3,0,0,1-9.635,9.318c-7.965,5.641-15.6.332-15.6.332s-2.986,6.967-8.3,3.982,3.318-11.614,4.645-11.946,4.645,1,8.627,0c-2.349-10.572,1.54-19.411,5.123-24.887C304.629,119.345,328.088,121.2,336.39,116.113Z" transform="translate(1.811 32.07)" fill="#bf7b2c" opacity="0.2" style="mix-blend-mode: multiply;isolation: isolate"/>
    <path id="Path_8814" data-name="Path 8814" d="M369.406,123.775c-.338.106-.689.212-1.041.305-4.977,1.328-19.245.332-33.847-8.627-.5-.373-.935-.73-1.321-1.082C346.829,122.634,363.46,123.542,369.406,123.775Z" transform="translate(18.395 36.792)" fill="#bf7b2c" opacity="0.3" style="mix-blend-mode: multiply;isolation: isolate"/>
  </g>
</svg>
