<svg xmlns="http://www.w3.org/2000/svg" width="204.958" height="183.341" viewBox="0 0 204.958 183.341">
  <g id="Group_13252" data-name="Group 13252" transform="translate(-305.561 -179.325)">
    <path id="Path_8815" data-name="Path 8815" d="M305.561,282.9H510.519s-26.87,10.9-102.636,10.9S305.561,282.9,305.561,282.9Z" transform="translate(0 68.868)" fill="#e6d4bf"/>
    <path id="Path_8816" data-name="Path 8816" d="M379.27,268.686c1.174,12.711-7.236,25.425-8.8,27.77s.979,3.716,5.672,3.716S395.7,283.94,395.7,283.94s-2.542-2.346-5.281-10.364S379.857,254.213,379.27,268.686Z" transform="translate(42.85 54.789)" fill="#cf9c7a"/>
    <path id="Path_8817" data-name="Path 8817" d="M392.711,232.926c-.783,3.52-24.251-8.409-24.251-8.409a49.716,49.716,0,0,1-6.078-6.51c-11.265-14.268-16.914-34.7-15.239-37.885,1.956-3.716,24.149,5.812,35.2,23.272,5.867,9.27,8.707,16.787,9.873,22.068A18.976,18.976,0,0,1,392.711,232.926Z" transform="translate(27.455 0)" fill="#ffb054"/>
    <path id="Path_8818" data-name="Path 8818" d="M352.814,187.5c-2.3,4.224,6.455,24.251,14.864,32.465s15.059,5.085,15.059,5.085-2.674-12.72-10.366-22.295C362.789,190.829,353.988,185.353,352.814,187.5Z" transform="translate(31.17 5.133)" fill="#ffdfba"/>
    <path id="Path_8819" data-name="Path 8819" d="M363.286,221.63l-7.236,15.254s-2.153-1.658-5.046-4.146c-3.864-3.31-9.035-8.121-12.165-12.478-5.476-7.627-15.645-29.53-9.19-32.464,5.491-2.5,17.358,10.732,28.122,25.816C359.657,216.247,361.51,218.946,363.286,221.63Z" transform="translate(14.636 5.43)" fill="#ffb054"/>
    <path id="Path_8820" data-name="Path 8820" d="M357.773,221.71c-.391-.977-15.45-21.512-22.489-25.228s-.391,11.146,8.6,22.295,19.557,9.78,19.557,9.78Z" transform="translate(17.802 11.02)" fill="#ffdfba"/>
    <path id="Path_8821" data-name="Path 8821" d="M348.413,203.18c1.886,2.636,3.739,5.334,5.516,8.018l-7.236,15.254s-2.153-1.658-5.046-4.146A117.147,117.147,0,0,0,348.413,203.18Z" transform="translate(23.993 15.861)" fill="#bf7b2c" opacity="0.2" style="mix-blend-mode: multiply;isolation: isolate"/>
    <path id="Path_8822" data-name="Path 8822" d="M386.509,217.478c-.783,3.52-24.251-8.409-24.251-8.409a49.716,49.716,0,0,1-6.078-6.51l29.837,7.455A18.976,18.976,0,0,1,386.509,217.478Z" transform="translate(33.656 15.448)" fill="#bf7b2c" opacity="0.2" style="mix-blend-mode: multiply;isolation: isolate"/>
    <path id="Path_8825" data-name="Path 8825" d="M453.408,311.435a84.454,84.454,0,0,1-3.34,10.334c-2.536,6.39-6.461,13.579-11.523,14.7-9.3,2.066-29.344-16.584-44.927-31.893-.148-.148-.3-.29-.446-.438-15.645-15.389-44.325-20.865-44.325-20.865a121.96,121.96,0,0,0,.321-12.407c-.047-2.151-.141-4.3-.273-6.445-.306-5.125-.814-10.171-1.4-14.887-1.745-14.042-4.162-25.158-3.866-26.5.524-2.346,7.565-13.3,8.864-15.121s23.468-2.348,24.775-2.089,24.774,15.131,45.63,15.913c5.476,9.12,2.089,24.249,2.089,24.249s18.775,17.728,25.556,35.72S453.408,311.435,453.408,311.435Z" transform="translate(25.295 17.579)" fill="#ffb054"/>
    <path id="Path_8826" data-name="Path 8826" d="M448.514,315.228c-2.536,6.39-6.461,13.579-11.523,14.7-.156.032-.313.063-.478.095-2.769.438-6.406-.391-10.537-2.214a.109.109,0,0,0-.047-.015c-9.576-4.255-21.818-13.862-32.167-25.535-.681-.766-1.354-1.533-2.011-2.316-14.175-16.755-44.458-23.21-44.458-23.21a121.96,121.96,0,0,0,.321-12.407c-.047-2.128-.141-4.264-.273-6.383v-.062c-.306-5.125-.814-10.171-1.4-14.887a43.569,43.569,0,0,0,3.957-4.067c.258-1.041,20.085-14.237,20.085-14.237,4.96-10.953,32.327-13.927,35.715,1.978a25.954,25.954,0,0,1,.516,3.708,39.533,39.533,0,0,1-6.641,23.8s13.948,5.085,24.118,23.335a214.431,214.431,0,0,1,15.645,35.727A43.6,43.6,0,0,0,448.514,315.228Z" transform="translate(26.849 24.12)" fill="#ffdfba"/>
    <path id="Path_8827" data-name="Path 8827" d="M451.314,305.055a84.456,84.456,0,0,1-3.34,10.334c-2.536,6.39-6.461,13.579-11.523,14.7-.156.032-.313.063-.478.095-2.66.4-6.313-.454-10.537-2.214a.109.109,0,0,0-.047-.015c-9.576-4.255-21.818-13.862-32.167-25.535-.681-.766-1.354-1.533-2.011-2.316-14.175-16.755-44.458-23.21-44.458-23.21a121.96,121.96,0,0,0,.321-12.407c-.047-2.128-.141-4.264-.273-6.383v-.062c7.032-8,26.707-17.485,26.707-17.485.594.281,1.18.548,1.76.791,16.209,6.844,29.109-.518,30.408-10.812,0-.015.008-.04.008-.055,13.556,0,15.121-15.121,15.121-15.121,5.476,9.12,2.089,24.249,2.089,24.249s18.775,17.728,25.556,35.72S451.314,305.055,451.314,305.055Z" transform="translate(27.389 23.959)" fill="#bf7b2c" opacity="0.2" style="mix-blend-mode: multiply;isolation: isolate"/>
    <path id="Path_8828" data-name="Path 8828" d="M424.041,239.608c-3.568,3.02-11.969,8.746-22.062,14.27-.571.125-1.172.281-1.8.461-22.554,6.392-27.248,3.778-27.248,3.778s-6.18,7.847-13.189,9.913c-6.844-.18-12.219-2.747-14.714-9,0,0,24.97-13.775,31.385-17.686,16.209,6.844,29.109-.518,30.408-10.812,0-.015.008-.04.008-.055,13.556,0,15.121-15.121,15.121-15.121C427.427,224.479,424.041,239.608,424.041,239.608Z" transform="translate(26.243 23.959)" fill="#bf7b2c" opacity="0.2" style="mix-blend-mode: multiply;isolation: isolate"/>
    <path id="Path_8829" data-name="Path 8829" d="M368.264,221.538c-.32,1.29-2.183,3-4.444,4.38-3.23,1.971-7.267,3.3-8.854,1.878-1.2-1.079-2.128-4.71-2.136-8.409-.008-4.325,1.227-8.761,4.748-9.325C364.095,209.021,369.046,218.41,368.264,221.538Z" transform="translate(31.429 20.384)" fill="#fff"/>
    <path id="Path_8830" data-name="Path 8830" d="M353.527,227.275c-.806,2.284-2.339,3.145-3.841,2.917a4.963,4.963,0,0,1-3.716-3.7c-1.307-4.171.783-14.34,4.693-13.3a4.236,4.236,0,0,1,2.606,2.589C354.7,218.936,354.63,224.145,353.527,227.275Z" transform="translate(26.609 22.47)" fill="#fff"/>
    <path id="Path_8836" data-name="Path 8836" d="M363.82,224.248c-3.23,1.971-7.267,3.3-8.854,1.878-1.2-1.079-2.128-4.71-2.136-8.409.493-2.722,2.065-4.788,4.216-5.163,3.09-.533,6.212,2.621,6.971,7.041A10.559,10.559,0,0,1,363.82,224.248Z" transform="translate(31.429 22.054)" fill="#453727"/>
    <path id="Path_8837" data-name="Path 8837" d="M352.494,226.212c-.806,2.284-2.339,3.145-3.841,2.917a10.7,10.7,0,0,1-1.487-6.625c.3-4.319,2.534-7.713,5.07-7.785C353.666,217.872,353.6,223.082,352.494,226.212Z" transform="translate(27.642 23.533)" fill="#453727"/>
    <path id="Path_8838" data-name="Path 8838" d="M413.272,287.692c-5.476-2.739.391-6.65.391-6.65a27.376,27.376,0,0,1,2.621-1.588c2.409-1.282,5.78-2.566,7.157-.563a2.008,2.008,0,0,1,.29.626C424.771,283,418.418,290.266,413.272,287.692Z" transform="translate(70.063 65.509)" fill="#ffb054"/>
    <path id="Path_8839" data-name="Path 8839" d="M413.272,287.052c-5.476-2.739.391-6.65.391-6.65a27.373,27.373,0,0,1,2.621-1.588c-1.7,5.093,3.589,6.18,7.221.478.085-.142.163-.281.226-.415C424.771,282.359,418.418,289.626,413.272,287.052Z" transform="translate(70.063 66.15)" fill="#bf7b2c" opacity="0.2" style="mix-blend-mode: multiply;isolation: isolate"/>
    <path id="Path_8840" data-name="Path 8840" d="M404.082,288.466s-11.148,11.539-15.841,11.539a16.253,16.253,0,0,1-2.612-.181c-.095-.007-.188-.023-.281-.038-2.762-.469-3.982-1.7-2.777-3.5,1.563-2.347,5.085-9.78,3.714-25.033.156-3.936,1.229-6.165,2.762-7.157,3.864-2.536,10.685,2.83,13.1,8.354.133.32.258.633.368.954A34.064,34.064,0,0,1,404.082,288.466Z" transform="translate(50.895 55.935)" fill="#ffdfba"/>
    <path id="Path_8841" data-name="Path 8841" d="M323.181,297.586s17.536,1.763,34.691,1.763,32.78-1.763,32.78-1.763-4.107-23.077-6.453-25.033-13.494-5.476-26.4-6.258c-9.793-.593-22.686,1.956-24.056,3.325S323.181,297.586,323.181,297.586Z" transform="translate(11.715 57.767)" fill="#0d4b61"/>
    <path id="Path_8842" data-name="Path 8842" d="M382.361,220.682l-.518,13.559s-5.216,16.168-20.079,23.467a20.406,20.406,0,0,1-19.23-.713c-6.015-3.293-10-8.746-9.716-12.062.266-3.183,7.409-8.253,17.25-13.048A142.791,142.791,0,0,1,382.361,220.682Z" transform="translate(18.114 27.498)" fill="#ffdfba"/>
    <path id="Path_8844" data-name="Path 8844" d="M360.162,228.424c3.028,6.377,7.405,4.68,9.61,2.429C365.3,232.3,360.162,228.424,360.162,228.424Z" transform="translate(36.304 32.646)" fill="#571b14"/>
    <path id="Path_8845" data-name="Path 8845" d="M342.535,252.521c-5.2-2.847-8.887-7.314-9.6-10.615a4.694,4.694,0,0,1-.118-1.447c.235-2.815,5.844-7.1,13.934-11.366,1.064-.563,2.174-1.127,3.316-1.682C351.509,243.227,349,249.6,342.535,252.521Z" transform="translate(18.114 31.972)" fill="#453727"/>
    <path id="Path_8846" data-name="Path 8846" d="M368.575,230.971c-2.73,7.331-12.047,14.676-14.355,16.4a.231.231,0,0,1-.047.032,45.665,45.665,0,0,0,12.868-17.633Z" transform="translate(32.323 33.543)" fill="#571b14"/>
    <path id="Path_8847" data-name="Path 8847" d="M402.788,284.871S391.64,296.41,386.947,296.41a16.741,16.741,0,0,1-2.894-.22c9.606-3.215,16.193-14.441,16.193-22.468a19.364,19.364,0,0,1,.609-4.865c.133.32.258.633.368.954A34.064,34.064,0,0,1,402.788,284.871Z" transform="translate(52.189 59.53)" fill="#bf7b2c" opacity="0.2" style="mix-blend-mode: multiply;isolation: isolate"/>
    <path id="Path_8848" data-name="Path 8848" d="M423.222,296.318c-1.174,3.786-23.21,3.653-24.775,1.956-.876-.954-.3-3.333,1.087-5.125a4.772,4.772,0,0,1,4.522-2.128c-3.128-13.048,6.064-24.016,11.734-25.9a1.543,1.543,0,0,1,.994-.017l.008.008a2.092,2.092,0,0,1,.742.423l.008.007a9.306,9.306,0,0,1,2.2,3.709.1.1,0,0,1,.015.038C422.744,277.183,424.083,293.556,423.222,296.318Z" transform="translate(61.482 56.985)" fill="#ffb054"/>
    <path id="Path_8849" data-name="Path 8849" d="M385.629,299.57c-.095-.007-.188-.023-.281-.038-2.762-.469-3.982-1.7-2.777-3.5,1.563-2.347,5.085-9.78,3.714-25.033.156-3.936,1.229-6.165,2.762-7.157C401.9,263.094,394.288,295.323,385.629,299.57Z" transform="translate(50.895 56.188)" fill="#ffdfba" opacity="0.4" style="mix-blend-mode: screen;isolation: isolate"/>
    <path id="Path_8850" data-name="Path 8850" d="M351.046,220.062c.38,1.155.168,2.261-.475,2.472s-1.468-.554-1.848-1.708-.166-2.261.474-2.472S350.668,218.908,351.046,220.062Z" transform="translate(28.574 25.927)" fill="#fff"/>
    <path id="Path_8851" data-name="Path 8851" d="M357.156,218.478c.38,1.154.166,2.261-.474,2.471s-1.469-.554-1.848-1.708-.168-2.261.474-2.472S356.776,217.322,357.156,218.478Z" transform="translate(32.636 24.872)" fill="#fff"/>
    <path id="Path_8852" data-name="Path 8852" d="M354.113,223.32c5.056-3.914,15.988-6.6,15.988-6.6s-4.708,5.213-7.569,6.223-6.054,3.7-6.894,3.195S354.113,223.32,354.113,223.32Z" transform="translate(32.282 24.86)" fill="#ffb054"/>
    <path id="Path_8853" data-name="Path 8853" d="M354.313,221.737c-3.363-1.009-8.073,2.522-8.073,2.522l1.682,2.018S353.809,224.6,354.313,221.737Z" transform="translate(27.047 28.079)" fill="#ffb054"/>
    <path id="Path_8854" data-name="Path 8854" d="M409.995,265.48a5.582,5.582,0,0,1-.7-.4,2.092,2.092,0,0,1,.742.423Z" transform="translate(68.975 57.018)" fill="#ffb054"/>
    <path id="Path_8855" data-name="Path 8855" d="M423.222,294.617c-1.174,3.786-23.21,3.653-24.775,1.956-.876-.954-.3-3.333,1.087-5.125-.163,2.246,5.031,4.623,18.995.266,3.308-1.032,3.5-16.656,1.227-24.126C422.744,275.482,424.083,291.855,423.222,294.617Z" transform="translate(61.482 58.686)" fill="#bf7b2c" opacity="0.2" style="mix-blend-mode: multiply;isolation: isolate"/>
    <path id="Path_8856" data-name="Path 8856" d="M346.752,228.421a4.562,4.562,0,0,1-.11.673c-1.51,6.681-9.067,17.093-13.705,12.14a4.694,4.694,0,0,1-.118-1.447C333.053,236.972,338.662,232.685,346.752,228.421Z" transform="translate(18.114 32.644)" fill="#453727" style="mix-blend-mode: screen;isolation: isolate"/>
    <g id="Group_7327" data-name="Group 7327" transform="translate(358.913 325.626)" opacity="0.5" style="mix-blend-mode: screen;isolation: isolate">
      <path id="Path_8857" data-name="Path 8857" d="M350.92,273.67l-3.082,17.876H337.606c.876-4.748,2.246-12.119,3.458-18.737Z" transform="translate(-337.606 -263.469)" fill="#0d4b61"/>
      <path id="Path_8858" data-name="Path 8858" d="M350.961,267.677l-1.072,6.233c-2.151-.186-6.7-.569-9.826-.8.4-2.153.759-4.147,1.064-5.844a50.662,50.662,0,0,1,5.351.015C348,267.37,349.506,267.5,350.961,267.677Z" transform="translate(-335.972 -267.199)" fill="#0d4b61"/>
    </g>
  </g>
</svg>
