
<svg id="App_Icon" data-name="App Icon" xmlns="http://www.w3.org/2000/svg" xmlns:xlink="http://www.w3.org/1999/xlink" width="269.952" height="52" viewBox="0 0 269.952 52">
  <defs>
    <clipPath id="clip-path">
      <rect id="Rectangle_85281" data-name="Rectangle 85281" width="269.952" height="52" fill="none"/>
    </clipPath>
  </defs>
  <g id="Group_11093" data-name="Group 11093" clip-path="url(#clip-path)">
    <path id="Path_9712" data-name="Path 9712" d="M83.466,8.34a1.248,1.248,0,0,1,1.262-1.262,1.274,1.274,0,0,1,.913.366,1.255,1.255,0,0,1,.365.9V22.319a6.347,6.347,0,0,1-6.358,6.358h-2.54a6.038,6.038,0,0,1-5.08-2.54,6.042,6.042,0,0,1-5.081,2.54h-2.54a6.347,6.347,0,0,1-6.358-6.358V8.34a1.255,1.255,0,0,1,.365-.9,1.274,1.274,0,0,1,.913-.366A1.248,1.248,0,0,1,60.589,8.34V22.319a3.8,3.8,0,0,0,3.818,3.818h2.54a3.667,3.667,0,0,0,2.69-1.112,3.722,3.722,0,0,0,1.112-2.706V17.238a1.189,1.189,0,0,1,.382-.9,1.283,1.283,0,0,1,1.793,0,1.193,1.193,0,0,1,.382.9v5.081a3.718,3.718,0,0,0,1.112,2.706,3.665,3.665,0,0,0,2.69,1.112h2.54a3.8,3.8,0,0,0,3.818-3.818Z" fill="#0c1523"/>
    <path id="Path_9713" data-name="Path 9713" d="M95.021,9.618a3.719,3.719,0,0,0-2.706,1.112A3.663,3.663,0,0,0,91.2,13.42v1.909a.564.564,0,0,0,.63.647h15.888a1.22,1.22,0,0,1,.9.366,1.278,1.278,0,0,1-.9,2.174H91.833a.557.557,0,0,0-.63.631v6.359a.557.557,0,0,0,.63.631h15.888A1.275,1.275,0,0,1,109,27.4a1.249,1.249,0,0,1-.382.913,1.223,1.223,0,0,1-.9.365H89.941A1.247,1.247,0,0,1,88.663,27.4V13.42a6.347,6.347,0,0,1,6.358-6.342h12.7A1.275,1.275,0,0,1,109,8.34a1.305,1.305,0,0,1-1.279,1.278Z" fill="#0c1523"/>
    <path id="Path_9714" data-name="Path 9714" d="M125.634,7.078a6.349,6.349,0,0,1,6.359,6.342V27.4a1.249,1.249,0,0,1-.382.913,1.283,1.283,0,0,1-1.793,0,1.273,1.273,0,0,1-.365-.913V19.147a.565.565,0,0,0-.648-.63H114.827a.557.557,0,0,0-.631.63V27.4a1.277,1.277,0,0,1-.365.913,1.259,1.259,0,0,1-.9.365,1.248,1.248,0,0,1-1.278-1.278V13.42a6.347,6.347,0,0,1,6.358-6.342ZM114.2,15.329a.565.565,0,0,0,.631.647H128.8a.572.572,0,0,0,.648-.647V13.42a3.826,3.826,0,0,0-3.819-3.8h-7.62a3.722,3.722,0,0,0-2.706,1.112,3.667,3.667,0,0,0-1.112,2.69Z" fill="#0c1523"/>
    <path id="Path_9715" data-name="Path 9715" d="M154.986,12.789a5.453,5.453,0,0,1-2.34,4.616,6.055,6.055,0,0,1,2.34,4.914V27.4a1.245,1.245,0,0,1-.381.913,1.281,1.281,0,0,1-1.793,0,1.27,1.27,0,0,1-.365-.913v-5.08a3.826,3.826,0,0,0-3.819-3.8H137.82a.557.557,0,0,0-.631.631V27.4a1.274,1.274,0,0,1-.365.913,1.256,1.256,0,0,1-.9.366,1.249,1.249,0,0,1-1.278-1.279V13.42a6.349,6.349,0,0,1,6.359-6.341h12.7a1.273,1.273,0,0,1,1.278,1.261Zm-5.727,3.188a3.2,3.2,0,0,0,3.188-3.188V9.619H141.008a3.723,3.723,0,0,0-2.707,1.112,3.664,3.664,0,0,0-1.112,2.689v1.91a.565.565,0,0,0,.631.647Z" fill="#0c1523"/>
    <path id="Path_9716" data-name="Path 9716" d="M171.62,7.078a6.347,6.347,0,0,1,6.359,6.342V27.4a1.246,1.246,0,0,1-.383.913,1.283,1.283,0,0,1-1.793,0,1.277,1.277,0,0,1-.365-.913V19.147a.564.564,0,0,0-.647-.63H160.813a.556.556,0,0,0-.631.63V27.4a1.282,1.282,0,0,1-.365.913,1.262,1.262,0,0,1-.9.365,1.248,1.248,0,0,1-1.279-1.278V13.42A6.347,6.347,0,0,1,164,7.078Zm-11.438,8.251a.564.564,0,0,0,.631.647h13.978a.571.571,0,0,0,.647-.647V13.42a3.826,3.826,0,0,0-3.818-3.8H164a3.723,3.723,0,0,0-2.707,1.112,3.666,3.666,0,0,0-1.111,2.69Z" fill="#0c1523"/>
    <path id="Path_9717" data-name="Path 9717" d="M198.116,16.741a5.373,5.373,0,0,1,2.855,4.947v1.278a5.726,5.726,0,0,1-5.727,5.712H181.912a1.248,1.248,0,0,1-1.277-1.279V8.34a1.254,1.254,0,0,1,.365-.9,1.275,1.275,0,0,1,.912-.365h11.971a5.688,5.688,0,0,1,4.084,1.643,5.459,5.459,0,0,1,1.727,4.018,5.556,5.556,0,0,1-1.578,4M183.8,9.619a.558.558,0,0,0-.631.631v5.08a.565.565,0,0,0,.631.647h10.178a3.036,3.036,0,0,0,2.224-.93,3,3,0,0,0,.946-2.208,3.055,3.055,0,0,0-.946-2.274,3.177,3.177,0,0,0-2.308-.946Zm14.627,12.069a3.175,3.175,0,0,0-3.188-3.171H183.8a.558.558,0,0,0-.631.631v6.358a.558.558,0,0,0,.631.631h11.439a3.174,3.174,0,0,0,3.188-3.171Z" fill="#0c1523"/>
    <path id="Path_9718" data-name="Path 9718" d="M204.907,28.677a1.248,1.248,0,0,1-1.279-1.278V8.34a1.259,1.259,0,0,1,.365-.9,1.278,1.278,0,0,1,.914-.365,1.248,1.248,0,0,1,1.262,1.262V25.506a.556.556,0,0,0,.631.63h15.886a1.279,1.279,0,0,1,1.28,1.263,1.246,1.246,0,0,1-.383.913,1.22,1.22,0,0,1-.9.365Z" fill="#0c1523"/>
    <path id="Path_9719" data-name="Path 9719" d="M232.979,9.618a3.718,3.718,0,0,0-2.705,1.112,3.664,3.664,0,0,0-1.113,2.69v1.909a.565.565,0,0,0,.63.647H245.68a1.22,1.22,0,0,1,.9.366,1.278,1.278,0,0,1-.9,2.174H229.791a.558.558,0,0,0-.63.631v6.359a.558.558,0,0,0,.63.631H245.68a1.273,1.273,0,0,1,1.278,1.262,1.248,1.248,0,0,1-.381.913,1.223,1.223,0,0,1-.9.365H227.9a1.247,1.247,0,0,1-1.277-1.278V13.42a6.347,6.347,0,0,1,6.357-6.342h12.7a1.273,1.273,0,0,1,1.278,1.262,1.3,1.3,0,0,1-1.278,1.278Z" fill="#0c1523"/>
    <path id="Path_9720" data-name="Path 9720" d="M254.694,9.618a2.446,2.446,0,0,0-1.793.747,2.41,2.41,0,0,0-.746,1.793V13.42a2.549,2.549,0,0,0,2.539,2.556h10.178a5.073,5.073,0,0,1,5.08,5.08V23.6a5.1,5.1,0,0,1-5.08,5.08H250.893a1.248,1.248,0,0,1-1.279-1.278,1.257,1.257,0,0,1,.365-.9,1.278,1.278,0,0,1,.914-.365h13.979a2.55,2.55,0,0,0,2.539-2.54V21.056a2.522,2.522,0,0,0-2.539-2.54H254.694a4.857,4.857,0,0,1-3.586-1.494,4.91,4.91,0,0,1-1.494-3.6V12.158a4.91,4.91,0,0,1,1.494-3.6,4.88,4.88,0,0,1,3.586-1.478h13.979a1.277,1.277,0,0,1,1.279,1.262,1.307,1.307,0,0,1-1.279,1.278Z" fill="#0c1523"/>
    <path id="Path_9721" data-name="Path 9721" d="M5,0H45a5,5,0,0,1,5,5V47a5,5,0,0,1-5,5H5a5,5,0,0,1-5-5V5A5,5,0,0,1,5,0" fill="#6bc100"/>
    <path id="Path_9722" data-name="Path 9722" d="M15.832,18.948a16.046,16.046,0,0,1,1.78-5.72.846.846,0,0,1,.045-.14,3.659,3.659,0,0,0,1.243-.222,5.345,5.345,0,0,0,2.672-1.432,10.17,10.17,0,0,1,3.442.982c2.153,1.079,4.46,3.089,5.032,4.355.026.059.048.118.068.177a7.43,7.43,0,0,0-.561,2.584,16.507,16.507,0,0,1-4.4,4.017,19.109,19.109,0,0,1-3.2,1.79,9.842,9.842,0,0,1-1,.272,9.542,9.542,0,0,1-1.71.187,3.809,3.809,0,0,1-1.515-.586c-2.2-1.406-1.9-6.264-1.9-6.264" fill="#fff"/>
    <path id="Path_9723" data-name="Path 9723" d="M26.924,42.47a.4.4,0,0,1-.325-.051c-.447-.31.355-2.331,1.4-4.08l.19.064a2.773,2.773,0,0,0,.863,1.541q.132.09.258.168c-.606.882-1.657,2.207-2.386,2.358" fill="#fff"/>
    <path id="Path_9724" data-name="Path 9724" d="M33.62,38.363c-.088.044.442.633.611.681.247.068.425.132.482.328.121.424-.227,3.893-1.327,5.018-.242.248-.446.608-.723.535s-.462-1.964-.243-4.284l.034-.36-.353.079s-.734.289-2.747-1.08A1.526,1.526,0,0,1,28.69,38.1a1.184,1.184,0,0,1,.089-.406c.045-.1.092-.194.141-.288a4.544,4.544,0,0,1,1.011-1.1c.281-.213.531-.388.535-.392l-.151-.128a1.274,1.274,0,0,0-.542.093,3.929,3.929,0,0,0-1.038.68,2.065,2.065,0,0,0-.556,1.1c-1.151-.388-2.711-.768-2.957-.933a4.19,4.19,0,0,1-.2-1.232,5.652,5.652,0,0,0-.372-1.77l-.219-.132c0,.624.015,1.31.061,1.913-.012,1.357-.149,2.893-.632,3.4a.373.373,0,0,1-.3.134c-1.423-.057-2.161-4.291-2.293-6.947l-.219.057-.213,2.026c-.57.023-2.155-.98-3.429-1.894a6.158,6.158,0,0,1-1.711-1.667l-.219-1.141c0,.005-.158.7-.16.7-.393,1.131-1.674,4.161-2.874,4.584a.68.68,0,0,1-.629-.069c-.406-.254.421-2.883,1.557-5.569A42.983,42.983,0,0,1,16,24.138a4.306,4.306,0,0,0,1.433,1.5c1.6,1.023,3.627.937,6.156-.265.341-.124.61-.231.749-.289.583.13,4.835.772,7.116,2.66,2.744,2.27,3.206,3.927,3.562,5.648.447,2.137-.581,4.562-1.4,4.971" fill="#fff"/>
    <path id="Path_9725" data-name="Path 9725" d="M41.382,33.116c-.616.982-3.883,1.747-5.451,2.028a4.8,4.8,0,0,0-.079-1.166l-.023-.585c2.446-.485,5.2-.846,5.628-.621a.457.457,0,0,1-.075.344" fill="#fff"/>
    <path id="Path_9726" data-name="Path 9726" d="M31.462,27.742a10.112,10.112,0,0,0-2.9-1.563c-.313.867-1.328,4.108.346,5.573,2.448,2.141,5.027.418,5.651-.061a9.386,9.386,0,0,0-3.1-3.949" fill="#6bc100"/>
    <path id="Path_9727" data-name="Path 9727" d="M20.835,18.411c3.2-1.421,2.986-5.383,2.853-6.529a10.337,10.337,0,0,0-2.116-.446A5.345,5.345,0,0,1,18.9,12.868a3.659,3.659,0,0,1-1.243.222.846.846,0,0,0-.045.14,18.024,18.024,0,0,0-1.446,3.717,3.7,3.7,0,0,0,4.669,1.464" fill="#6bc100"/>
    <path id="Path_9728" data-name="Path 9728" d="M20.979,16.662a1.04,1.04,0,1,1-.282-1.578,1.144,1.144,0,0,1,.282,1.578" fill="#1a1818"/>
    <path id="Path_9729" data-name="Path 9729" d="M20.331,16.046a.431.431,0,1,1-.117-.654.474.474,0,0,1,.117.654" fill="#fff"/>
    <path id="Path_9730" data-name="Path 9730" d="M26.363,19.447a1.04,1.04,0,1,1-.282-1.579,1.145,1.145,0,0,1,.282,1.579" fill="#1a1818"/>
    <path id="Path_9731" data-name="Path 9731" d="M25.789,18.749a.431.431,0,1,1-.117-.654.474.474,0,0,1,.117.654" fill="#fff"/>
    <path id="Path_9732" data-name="Path 9732" d="M18.026,22.8a1.685,1.685,0,0,0,.183,2.125c.642.374,2.138.126,2.379-.547s-2.18-1.83-2.562-1.578" fill="#1a1818"/>
    <path id="Path_9733" data-name="Path 9733" d="M41.953,32.576c-.066-.221-.482-.84-6.359.327a10.922,10.922,0,0,0-3.8-5.567,17.648,17.648,0,0,0-6.452-2.922c.239-.147.482-.3.729-.466a15.978,15.978,0,0,0,3.8-3.5c.007.006.012.014.019.019.809.578,3.333-.734,3.985-1.541,1.552-1.919,3.837-1.737,5.064-1.638.594.048.892.071,1.048-.137a.732.732,0,0,0-.028-.739A4.021,4.021,0,0,0,37.091,14.2c-1.592-.167-5.447.874-6.475,1.839-1-1.585-3.884-3.325-5.367-4.068a17.3,17.3,0,0,0-3.385-1.291,1.958,1.958,0,0,0,.016-.254c0-.893-.088-5.392-1.819-6.206-1.338-.63-3.75-.785-4.528-.291a.614.614,0,0,0-.323.529c0,.551.6.908,1.232,1.285a3.46,3.46,0,0,1,1.341,1.114c.291.581-.364,2.192-.8,3.257a7.593,7.593,0,0,0-.546,1.6,1.194,1.194,0,0,0,.391,1.111c.016.012.034.021.05.033-.044.1-.068.156-.07.164a19.565,19.565,0,0,0-1.513,5.9l-.007.11a10.458,10.458,0,0,0,.417,4.5l-.1.186a46.51,46.51,0,0,0-3.124,5.353c-.022.052-2.212,5.271-.95,6.06a1.2,1.2,0,0,0,1.083.119c1.17-.413,2.227-2.535,2.784-3.851a5.665,5.665,0,0,0,1.773,1.754A11.129,11.129,0,0,0,21.1,34.823c.271,2.2.765,4.668,2.442,4.735a.9.9,0,0,0,.7-.295,3.882,3.882,0,0,0,.691-2.1,19.677,19.677,0,0,0,2.376.933c-.724,1.341-1.955,4.094-1.007,4.75a.913.913,0,0,0,.732.134c.985-.2,2.17-1.777,2.741-2.613a4.432,4.432,0,0,0,2.1.5c-.125,1.486-.242,4.33.659,4.565a1.268,1.268,0,0,0,1.271-.4c1.253-1.283,1.6-5.188,1.418-5.809a1.006,1.006,0,0,0-.764-.667,6.463,6.463,0,0,0,1.354-2.587c1.149-.243,5.2-1.264,6.02-2.577a.981.981,0,0,0,.124-.816M30.635,17.036c.322-1.316,4.682-2.494,6.409-2.312a3.373,3.373,0,0,1,2.075,1.31,2.3,2.3,0,0,1,.426.762c-.13,0-.353-.015-.556-.031a6.525,6.525,0,0,0-5.575,2.2c-.686.848-2.813,1.363-3.211,1.078-.009-.006-.014-.019-.021-.027A5.129,5.129,0,0,1,30.635,17.036ZM16.971,11.767A4.367,4.367,0,0,1,17.21,10.3c.552-1.358,1.449-2.883,1.052-3.678A3.793,3.793,0,0,0,16.72,5.289a3.184,3.184,0,0,1-.9-.917c.574-.364,2.562-.107,3.794.472,1.2.563,1.745,3.718,1.745,5.581q0,.069-.009.138c-.452,1.551-1.461,1.332-2.4,1.771a1.936,1.936,0,0,1-1.8.054A.708.708,0,0,1,16.971,11.767Zm-1.14,7.184a16.046,16.046,0,0,1,1.78-5.72.846.846,0,0,1,.045-.14,3.659,3.659,0,0,0,1.243-.222,5.345,5.345,0,0,0,2.672-1.432,10.17,10.17,0,0,1,3.442.982c2.153,1.079,4.46,3.089,5.032,4.355.026.059.048.118.068.177a7.43,7.43,0,0,0-.561,2.584,16.507,16.507,0,0,1-4.4,4.017,19.149,19.149,0,0,1-3.2,1.79,9.842,9.842,0,0,1-1,.272,9.542,9.542,0,0,1-1.71.187,3.809,3.809,0,0,1-1.515-.586C15.532,23.806,15.831,18.951,15.831,18.951Zm11.1,23.519a.4.4,0,0,1-.325-.051c-.447-.31.355-2.331,1.4-4.08l.19.064a2.773,2.773,0,0,0,.863,1.541q.132.09.258.168C28.7,40.993,27.654,42.318,26.926,42.47Zm6.693-4.107c-.088.044.442.633.611.681.247.068.425.132.482.328.121.424-.227,3.893-1.327,5.018-.242.248-.446.607-.723.535s-.462-1.964-.243-4.284l.034-.36-.353.079s-.734.289-2.747-1.08a1.527,1.527,0,0,1-.664-1.175,1.179,1.179,0,0,1,.089-.406c.045-.1.092-.194.141-.288a4.544,4.544,0,0,1,1.011-1.1c.281-.213.531-.388.535-.392l-.151-.128a1.26,1.26,0,0,0-.542.094,3.929,3.929,0,0,0-1.038.68,2.062,2.062,0,0,0-.556,1.1c-1.151-.388-2.711-.768-2.957-.933a4.19,4.19,0,0,1-.2-1.232,5.652,5.652,0,0,0-.372-1.77L24.43,33.6c0,.624.015,1.31.061,1.913-.012,1.357-.149,2.893-.632,3.395a.373.373,0,0,1-.3.134c-1.423-.057-2.161-4.291-2.293-6.947l-.219.057-.213,2.026c-.57.023-2.155-.98-3.429-1.894a6.158,6.158,0,0,1-1.711-1.667l-.219-1.141s-.158.7-.16.7c-.393,1.131-1.674,4.161-2.874,4.584a.68.68,0,0,1-.629-.069c-.406-.254.421-2.883,1.557-5.569A42.983,42.983,0,0,1,16,24.139a4.306,4.306,0,0,0,1.433,1.5c1.6,1.023,3.627.937,6.156-.265.341-.124.61-.231.749-.289.583.13,4.835.772,7.116,2.66,2.744,2.27,3.206,3.927,3.562,5.648C35.466,35.529,34.438,37.954,33.619,38.363Zm7.762-5.247c-.616.982-3.883,1.747-5.451,2.028a4.8,4.8,0,0,0-.079-1.166l-.023-.585c2.446-.485,5.2-.846,5.628-.621a.459.459,0,0,1-.073.345Z" fill="#eee"/>
    <path id="Path_9734" data-name="Path 9734" d="M30.635,17.037c.322-1.316,4.682-2.494,6.409-2.312a3.373,3.373,0,0,1,2.075,1.31,2.3,2.3,0,0,1,.426.762c-.13,0-.353-.015-.556-.031a6.525,6.525,0,0,0-5.575,2.2c-.686.848-2.813,1.363-3.211,1.078-.009-.006-.014-.019-.021-.027a5.129,5.129,0,0,1,.453-2.98" fill="#6bc100"/>
    <path id="Path_9735" data-name="Path 9735" d="M16.972,11.767a4.367,4.367,0,0,1,.239-1.469c.552-1.358,1.449-2.883,1.052-3.678a3.793,3.793,0,0,0-1.542-1.331,3.184,3.184,0,0,1-.9-.917c.574-.364,2.562-.107,3.794.472,1.2.563,1.745,3.718,1.745,5.581q0,.069-.009.138c-.452,1.551-1.461,1.332-2.4,1.771a1.936,1.936,0,0,1-1.8.054.708.708,0,0,1-.179-.621" fill="#6bc100"/>
    <path id="Path_9736" data-name="Path 9736" d="M36.077,44.1a1.952,1.952,0,0,1,.585,1.58,10.149,10.149,0,0,1-.234,2.048c.055-.072.489-.28.661-1.484a5.218,5.218,0,0,0-.3-2.478Z" fill="#1a1818"/>
    <path id="Path_9737" data-name="Path 9737" d="M37.515,44.441h0a4.6,4.6,0,0,1,.258,1.764c-.114,1.141-.312,2.551-.312,2.551A5.852,5.852,0,0,0,38.3,46.38a6,6,0,0,0-.268-2.04Z" fill="#1a1818"/>
    <path id="Path_9738" data-name="Path 9738" d="M63.614,37.915c-.287-1.3-.947-1.739-1.967-1.739-1.27,0-1.967.792-1.967,2.843v.911c0,2.051.7,2.842,1.967,2.842,1.08,0,1.692-.527,1.967-1.739h1a2.773,2.773,0,0,1-2.963,2.675c-1.835,0-3-1.1-3-3.778v-.911c0-2.675,1.163-3.779,3-3.779a2.781,2.781,0,0,1,2.975,2.675Z" fill="#636e7e"/>
    <path id="Path_9739" data-name="Path 9739" d="M70.453,41c0,1.56-.768,2.711-2.494,2.711A2.4,2.4,0,0,1,65.464,41v-.791a2.372,2.372,0,0,1,2.5-2.687c1.583,0,2.494.972,2.494,2.687Zm-.959,0v-.791c0-1.14-.552-1.823-1.535-1.823s-1.535.695-1.535,1.823V41c0,1.032.431,1.848,1.535,1.848,1.019,0,1.535-.828,1.535-1.848" fill="#636e7e"/>
    <path id="Path_9740" data-name="Path 9740" d="M71.716,37.615h.96V38.2a1.654,1.654,0,0,1,1.606-.684c1.285,0,2.184.672,2.184,2.351v3.742h-.96v-3.73c0-1.211-.659-1.475-1.367-1.475a1.4,1.4,0,0,0-1.463,1.463v3.742h-.96Z" fill="#636e7e"/>
    <path id="Path_9741" data-name="Path 9741" d="M78.028,37.615h.96V38.2a1.654,1.654,0,0,1,1.606-.684c1.285,0,2.184.672,2.184,2.351v3.742h-.96v-3.73c0-1.211-.659-1.475-1.367-1.475a1.4,1.4,0,0,0-1.463,1.463v3.742h-.96Z" fill="#636e7e"/>
    <path id="Path_9742" data-name="Path 9742" d="M88.706,42.7a2.109,2.109,0,0,1-2.1,1.008A2.441,2.441,0,0,1,84.04,41v-.791c0-1.7.8-2.687,2.375-2.687s2.375.972,2.375,2.687v.624H85V41c0,1.032.491,1.847,1.535,1.847a1.422,1.422,0,0,0,1.427-.671ZM85,39.99h2.818c-.047-1.008-.492-1.607-1.4-1.607S85.06,38.994,85,39.99" fill="#636e7e"/>
    <path id="Path_9743" data-name="Path 9743" d="M94.562,42.7a2.155,2.155,0,0,1-2.075,1.008A2.447,2.447,0,0,1,89.9,41v-.791a2.646,2.646,0,0,1,4.666-1.751l-.756.527a1.576,1.576,0,0,0-1.319-.6c-1.031,0-1.631.695-1.631,1.823V41c0,1.032.479,1.848,1.631,1.848a1.411,1.411,0,0,0,1.331-.672Z" fill="#636e7e"/>
    <path id="Path_9744" data-name="Path 9744" d="M95,37.615h.768V36.3h.959v1.319H98.1v.863H96.723v3.047c0,.827.1,1.175.9,1.175H98.1v.912h-.515c-1.416,0-1.823-.6-1.823-1.848V38.478H95Z" fill="#636e7e"/>
    <path id="Path_9745" data-name="Path 9745" d="M104.222,43.612h-.839l-1.739-6h1.019l1.2,4.21,1.51-4.21h.8l1.6,4.246,1.2-4.246h1.02l-1.74,6h-.84l-1.594-4.485Z" fill="#636e7e"/>
    <path id="Path_9746" data-name="Path 9746" d="M111.015,35.337h1.079v1.079h-1.079Zm.06,2.278h.96v6h-.96Z" fill="#636e7e"/>
    <path id="Path_9747" data-name="Path 9747" d="M113.247,37.615h.768V36.3h.959v1.319h1.379v.863h-1.379v3.047c0,.827.1,1.175.9,1.175h.48v.912h-.515c-1.416,0-1.823-.6-1.823-1.848V38.478h-.768Z" fill="#636e7e"/>
    <path id="Path_9748" data-name="Path 9748" d="M117.555,35.337h.96V38.2a1.654,1.654,0,0,1,1.606-.683c1.285,0,2.184.671,2.184,2.35v3.742h-.96v-3.73c0-1.211-.659-1.475-1.367-1.475a1.4,1.4,0,0,0-1.463,1.463v3.742h-.96Z" fill="#636e7e"/>
    <path id="Path_9749" data-name="Path 9749" d="M128.5,43.672l-2.352-6.057h1.033l1.786,4.654,1.571-4.654h1.02L129.445,43.8c-.492,1.439-.815,2.087-2.5,2.087v-.935c.792,0,1.164-.133,1.524-1.2Z" fill="#636e7e"/>
    <path id="Path_9750" data-name="Path 9750" d="M137.148,41c0,1.56-.768,2.711-2.494,2.711a2.4,2.4,0,0,1-2.5-2.711v-.791a2.372,2.372,0,0,1,2.5-2.687c1.583,0,2.494.972,2.494,2.687Zm-.959,0v-.791c0-1.14-.552-1.823-1.535-1.823s-1.535.695-1.535,1.823V41c0,1.032.431,1.848,1.535,1.848,1.019,0,1.535-.828,1.535-1.848" fill="#636e7e"/>
    <path id="Path_9751" data-name="Path 9751" d="M143.161,43.612h-.96v-.588a1.657,1.657,0,0,1-1.607.684c-1.285,0-2.183-.672-2.183-2.351V37.615h.959v3.73c0,1.211.659,1.475,1.368,1.475a1.4,1.4,0,0,0,1.463-1.463V37.615h.96Z" fill="#636e7e"/>
    <path id="Path_9752" data-name="Path 9752" d="M147.973,38.911a1.141,1.141,0,0,0-1.009-.5,1.3,1.3,0,0,0-1.282,1.451v3.754h-.959v-6h.959V38.2a1.453,1.453,0,0,1,1.39-.684,1.905,1.905,0,0,1,1.715.816Z" fill="#636e7e"/>
    <path id="Path_9753" data-name="Path 9753" d="M155.041,37.519c1.487,0,2.4.972,2.4,2.687V41c0,1.56-.768,2.711-2.4,2.711a1.864,1.864,0,0,1-1.631-.695v2.878h-.96V37.615h.96v.6a1.862,1.862,0,0,1,1.631-.7M156.48,41v-.791c0-1.14-.552-1.823-1.535-1.823-.96,0-1.535.66-1.535,1.739V41c0,1.032.431,1.848,1.535,1.848,1.019,0,1.535-.828,1.535-1.848" fill="#636e7e"/>
    <path id="Path_9754" data-name="Path 9754" d="M163.068,42.7a2.109,2.109,0,0,1-2.1,1.008A2.441,2.441,0,0,1,158.4,41v-.791c0-1.7.8-2.687,2.375-2.687s2.375.972,2.375,2.687v.624h-3.79V41c0,1.032.491,1.847,1.535,1.847a1.422,1.422,0,0,0,1.427-.671Zm-3.706-2.71h2.818c-.047-1.008-.492-1.607-1.4-1.607s-1.355.611-1.415,1.607" fill="#636e7e"/>
    <path id="Path_9755" data-name="Path 9755" d="M164.03,37.615h.768V36.3h.959v1.319h1.379v.863h-1.379v3.047c0,.827.1,1.175.9,1.175h.48v.912h-.515c-1.416,0-1.823-.6-1.823-1.848V38.478h-.768Z" fill="#636e7e"/>
    <path id="Path_9756" data-name="Path 9756" d="M173.281,40.146h1.427v-.7c0-.851-.4-1.043-1.331-1.043-.72,0-1.1.06-1.44.612l-.719-.5a2.192,2.192,0,0,1,2.171-.995c1.523,0,2.279.491,2.279,1.93v4.162h-.96v-.587c-.336.551-.743.683-1.522.683-1.392,0-2.148-.683-2.148-1.847,0-1.295.924-1.715,2.243-1.715m1.427.816h-1.427c-.947,0-1.283.323-1.283.923,0,.672.48.935,1.188.935.886,0,1.522-.168,1.522-1.51Z" fill="#636e7e"/>
    <path id="Path_9757" data-name="Path 9757" d="M177.229,37.615h.96V38.2a1.654,1.654,0,0,1,1.606-.684c1.285,0,2.184.672,2.184,2.351v3.742h-.96v-3.73c0-1.211-.659-1.475-1.367-1.475a1.4,1.4,0,0,0-1.463,1.463v3.742h-.96Z" fill="#636e7e"/>
    <path id="Path_9758" data-name="Path 9758" d="M185.173,43.672l-2.352-6.057h1.033l1.787,4.654,1.57-4.654h1.02L186.12,43.8c-.492,1.439-.815,2.087-2.495,2.087v-.935c.792,0,1.164-.133,1.524-1.2Z" fill="#636e7e"/>
    <path id="Path_9759" data-name="Path 9759" d="M191.052,43.612h-.839l-1.739-6h1.019l1.2,4.21,1.51-4.21h.8l1.6,4.246,1.2-4.246h1.02l-1.74,6h-.84l-1.594-4.485Z" fill="#636e7e"/>
    <path id="Path_9760" data-name="Path 9760" d="M197.725,35.337h.96V38.2a1.654,1.654,0,0,1,1.606-.683c1.285,0,2.184.671,2.184,2.35v3.742h-.96v-3.73c0-1.211-.659-1.475-1.367-1.475a1.4,1.4,0,0,0-1.463,1.463v3.742h-.96Z" fill="#636e7e"/>
    <path id="Path_9761" data-name="Path 9761" d="M208.4,42.7a2.109,2.109,0,0,1-2.1,1.008A2.441,2.441,0,0,1,203.737,41v-.791c0-1.7.8-2.687,2.375-2.687s2.375.972,2.375,2.687v.624H204.7V41c0,1.032.491,1.847,1.535,1.847a1.422,1.422,0,0,0,1.427-.671ZM204.7,39.99h2.818c-.047-1.008-.492-1.607-1.4-1.607s-1.355.611-1.415,1.607" fill="#636e7e"/>
    <path id="Path_9762" data-name="Path 9762" d="M213.142,38.911a1.135,1.135,0,0,0-1.007-.5,1.3,1.3,0,0,0-1.283,1.451v3.754h-.96v-6h.96V38.2a1.455,1.455,0,0,1,1.391-.684,1.905,1.905,0,0,1,1.715.816Z" fill="#636e7e"/>
    <path id="Path_9763" data-name="Path 9763" d="M218.987,42.7a2.109,2.109,0,0,1-2.1,1.008A2.441,2.441,0,0,1,214.321,41v-.791c0-1.7.8-2.687,2.375-2.687s2.375.972,2.375,2.687v.624h-3.79V41c0,1.032.491,1.847,1.535,1.847a1.422,1.422,0,0,0,1.427-.671Zm-3.706-2.71H218.1c-.047-1.008-.492-1.607-1.4-1.607s-1.355.611-1.415,1.607" fill="#636e7e"/>
    <path id="Path_9764" data-name="Path 9764" d="M221.568,44.32l-1.151,1v-3.1h1.151Z" fill="#636e7e"/>
    <path id="Path_9765" data-name="Path 9765" d="M228.011,40.146h1.427v-.7c0-.851-.4-1.043-1.331-1.043-.72,0-1.1.06-1.44.612l-.719-.5a2.192,2.192,0,0,1,2.171-.995c1.523,0,2.279.491,2.279,1.93v4.162h-.96v-.587c-.336.551-.743.683-1.522.683-1.392,0-2.148-.683-2.148-1.847,0-1.295.924-1.715,2.243-1.715m1.427.816h-1.427c-.947,0-1.283.323-1.283.923,0,.672.48.935,1.188.935.886,0,1.522-.168,1.522-1.51Z" fill="#636e7e"/>
    <path id="Path_9766" data-name="Path 9766" d="M231.961,37.615h.96V38.2a1.654,1.654,0,0,1,1.606-.684c1.285,0,2.184.672,2.184,2.351v3.742h-.96v-3.73c0-1.211-.659-1.475-1.367-1.475a1.4,1.4,0,0,0-1.463,1.463v3.742h-.96Z" fill="#636e7e"/>
    <path id="Path_9767" data-name="Path 9767" d="M239.9,43.672l-2.352-6.057h1.033l1.786,4.654,1.571-4.654h1.02L240.851,43.8c-.492,1.439-.815,2.087-2.495,2.087v-.935c.792,0,1.164-.133,1.524-1.2Z" fill="#636e7e"/>
    <path id="Path_9768" data-name="Path 9768" d="M246.337,37.615h.768V36.3h.959v1.319h1.379v.863h-1.379v3.047c0,.827.1,1.175.9,1.175h.48v.912h-.515c-1.416,0-1.823-.6-1.823-1.848V38.478h-.768Z" fill="#636e7e"/>
    <path id="Path_9769" data-name="Path 9769" d="M250.764,35.337h1.079v1.079h-1.079Zm.06,2.278h.96v6h-.96Z" fill="#636e7e"/>
    <path id="Path_9770" data-name="Path 9770" d="M253.524,37.615h.96V38.2a1.623,1.623,0,0,1,1.487-.684,1.855,1.855,0,0,1,1.751.948,2.065,2.065,0,0,1,1.8-.948c1.283,0,2.063.791,2.063,2.351v3.742h-.959v-3.73c0-1.091-.54-1.475-1.247-1.475a1.365,1.365,0,0,0-1.344,1.463v3.742h-.959v-3.73c0-1.091-.54-1.475-1.248-1.475a1.371,1.371,0,0,0-1.343,1.463v3.742h-.96Z" fill="#636e7e"/>
    <path id="Path_9771" data-name="Path 9771" d="M267.513,42.7a2.109,2.109,0,0,1-2.1,1.008A2.441,2.441,0,0,1,262.847,41v-.791c0-1.7.8-2.687,2.375-2.687s2.375.972,2.375,2.687v.624h-3.79V41c0,1.032.491,1.847,1.535,1.847a1.422,1.422,0,0,0,1.427-.671Zm-3.706-2.71h2.818c-.047-1.008-.492-1.607-1.4-1.607s-1.355.611-1.415,1.607" fill="#636e7e"/>
  </g>
</svg>
