<svg xmlns="http://www.w3.org/2000/svg" width="58" height="43.5" viewBox="0 0 58 43.5">
  <path id="Path_965" data-name="Path 965" d="M54.375,13.25h-7.25s-2.1,0-3.625-3.625C42.721,7.78,41.876,6,39.875,6h-14.5c-2,0-2.871,1.769-3.625,3.625-1.472,3.625-3.625,3.625-3.625,3.625H14.5a3.625,3.625,0,0,0-3.625-3.625H7.25A3.625,3.625,0,0,0,3.625,13.25,3.625,3.625,0,0,0,0,16.875v7.25H20.137a14.38,14.38,0,0,1,24.976,0H58v-7.25A3.625,3.625,0,0,0,54.375,13.25ZM12.688,20.5H5.438a1.813,1.813,0,0,1,0-3.625h7.25a1.813,1.813,0,0,1,0,3.625ZM21.75,31.375A10.875,10.875,0,1,0,32.625,20.5,10.875,10.875,0,0,0,21.75,31.375Zm25.375,0A14.5,14.5,0,1,1,18.636,27.75H0V45.875A3.625,3.625,0,0,0,3.625,49.5h50.75A3.625,3.625,0,0,0,58,45.875V27.75H46.614A14.417,14.417,0,0,1,47.125,31.375Z" transform="translate(0 -6)" fill="#dbe6ef"/>
</svg>
