<svg xmlns="http://www.w3.org/2000/svg" width="29.268" height="26.128" viewBox="0 0 29.268 26.128">
  <g id="Group_13872" data-name="Group 13872" transform="translate(-6.926 -33.65)">
    <path id="Path_12661" data-name="Path 12661" d="M152.549,195.612a1.586,1.586,0,1,0,1.586,1.586A1.586,1.586,0,0,0,152.549,195.612Zm0,2.466a.881.881,0,1,1,.881-.881A.881.881,0,0,1,152.549,198.078Zm10.757-.881a1.586,1.586,0,1,0-1.586,1.586A1.586,1.586,0,0,0,163.306,197.2Zm-1.586.881a.881.881,0,1,1,.881-.881.881.881,0,0,1-.881.881Zm-1.653,7.469a8.437,8.437,0,0,1-2.58.526v-4.182a.353.353,0,0,0-.705,0v4.18a8.98,8.98,0,0,1-2.584-.526.353.353,0,1,0-.235.665,9.537,9.537,0,0,0,3.2.569,9.081,9.081,0,0,0,3.148-.57.353.353,0,0,0-.243-.662Z" transform="translate(-135.575 -152.446)" fill="#5c6d80"/>
    <path id="Path_12662" data-name="Path 12662" d="M35.875,49.076a.353.353,0,1,0-.067-.7l-2.1.2a12.521,12.521,0,0,0,.118-1.7,9.8,9.8,0,0,0-1.7-5.725c1.144-2.728.978-6.443-.008-7.2a1.155,1.155,0,0,0-.991-.265c-.813.19-1.372,1.332-2.145,2.912-.217.443-.439.9-.684,1.366a15.283,15.283,0,0,0-6.736-1.419,15.284,15.284,0,0,0-6.736,1.419c-.245-.468-.468-.923-.684-1.366-.773-1.58-1.332-2.723-2.145-2.912a1.154,1.154,0,0,0-.991.265c-.987.763-1.152,4.475-.008,7.2a9.8,9.8,0,0,0-1.7,5.725,12.52,12.52,0,0,0,.118,1.7l-2.1-.2a.353.353,0,0,0-.067.7l2.288.217a13.327,13.327,0,0,0,.785,2.581l-3.058.5a.353.353,0,1,0,.114.7l3.242-.533a13.462,13.462,0,0,0,2.262,3.315,11.819,11.819,0,0,0,8.68,3.922,11.819,11.819,0,0,0,8.68-3.922A13.462,13.462,0,0,0,32.5,52.54l3.242.533a.353.353,0,1,0,.114-.7l-3.058-.5a13.327,13.327,0,0,0,.785-2.581ZM29.613,36.9c.609-1.246,1.185-2.422,1.672-2.536.074-.017.2-.022.4.136a3.806,3.806,0,0,1,.528,2.435,10.657,10.657,0,0,1-.593,3.559A9.47,9.47,0,0,0,30.2,39.135a10.714,10.714,0,0,0-1.279-.851C29.172,37.8,29.4,37.326,29.613,36.9Zm-18.707.039a3.809,3.809,0,0,1,.528-2.438c.2-.158.326-.153.4-.136.487.114,1.063,1.29,1.672,2.536.209.427.442.9.694,1.385a10.713,10.713,0,0,0-1.279.85A9.47,9.47,0,0,0,11.5,40.493,10.653,10.653,0,0,1,10.906,36.938ZM32.085,51.757,26.857,50.9a.353.353,0,1,0-.114.7l5.032.827a12.75,12.75,0,0,1-2.051,2.954,11.122,11.122,0,0,1-8.164,3.7,11.122,11.122,0,0,1-8.164-3.7,12.75,12.75,0,0,1-2.051-2.954l5.032-.827a.353.353,0,1,0-.114-.7l-5.228.859a12.645,12.645,0,0,1-.767-2.394l6.059.575.034,0a.353.353,0,0,0,.033-.7l-6.257-.594A11.856,11.856,0,0,1,10,46.871a8.731,8.731,0,0,1,3.352-7.179,13.421,13.421,0,0,1,8.206-2.45,13.421,13.421,0,0,1,8.206,2.45,8.731,8.731,0,0,1,3.352,7.179,11.856,11.856,0,0,1-.135,1.771l-6.257.594a.353.353,0,0,0,.033.7l.034,0,6.059-.575A12.645,12.645,0,0,1,32.085,51.757Z" transform="translate(0)" fill="#5c6d80"/>
  </g>
</svg>
