<svg xmlns="http://www.w3.org/2000/svg" width="47" height="43" viewBox="0 0 47 43">
  <g id="Group_13239" data-name="Group 13239" transform="translate(-32 -50)">
    <rect id="Rectangle_9" data-name="Rectangle 9" width="47" height="43" rx="5" transform="translate(32 50)" fill="#c9cebf"/>
    <g id="Group_42" data-name="Group 42" transform="translate(45.067 51.649)">
      <g id="Group_39" data-name="Group 39" transform="translate(0 0)">
        <path id="Path_69" data-name="Path 69" d="M248.7,283.8a13.05,13.05,0,0,1,1.448-4.654.67.67,0,0,1,.036-.114,2.978,2.978,0,0,0,1.012-.181,4.343,4.343,0,0,0,2.174-1.165,8.276,8.276,0,0,1,2.8.8,10.237,10.237,0,0,1,4.093,3.543c.021.048.039.1.055.144a6.054,6.054,0,0,0-.456,2.1,13.429,13.429,0,0,1-3.58,3.268,15.571,15.571,0,0,1-2.6,1.456,7.9,7.9,0,0,1-.812.221,7.79,7.79,0,0,1-1.391.152,3.1,3.1,0,0,1-1.233-.476C248.454,287.751,248.7,283.8,248.7,283.8Z" transform="translate(-244.886 -270.034)" fill="#fff"/>
        <path id="Path_70" data-name="Path 70" d="M335.118,498.306a.321.321,0,0,1-.264-.042c-.364-.252.289-1.9,1.14-3.319l.155.052a2.252,2.252,0,0,0,.7,1.253c.072.049.142.094.21.137C336.565,497.1,335.71,498.183,335.118,498.306Z" transform="translate(-322.281 -465.405)" fill="#fff"/>
        <path id="Path_71" data-name="Path 71" d="M233.355,391.833c-.071.036.36.515.5.554.2.056.346.108.392.267.1.345-.185,3.167-1.079,4.082-.2.2-.363.494-.589.435s-.376-1.6-.2-3.486l.028-.293-.287.064s-.6.235-2.235-.879a1.243,1.243,0,0,1-.54-.955.961.961,0,0,1,.072-.33c.037-.079.075-.158.114-.234a3.69,3.69,0,0,1,.823-.9c.228-.173.432-.316.436-.319l-.123-.1a1.028,1.028,0,0,0-.441.076,3.2,3.2,0,0,0-.845.553,1.68,1.68,0,0,0-.452.894c-.937-.316-2.205-.625-2.406-.759a3.4,3.4,0,0,1-.159-1,4.591,4.591,0,0,0-.3-1.44l-.179-.107c0,.508.012,1.066.049,1.557a5.186,5.186,0,0,1-.514,2.762.3.3,0,0,1-.241.109c-1.157-.046-1.758-3.491-1.865-5.651l-.178.046-.173,1.648a8.385,8.385,0,0,1-2.79-1.541,5.015,5.015,0,0,1-1.392-1.357l-.178-.928s-.129.568-.13.573h0c-.319.92-1.362,3.385-2.338,3.729a.553.553,0,0,1-.511-.056c-.33-.206.342-2.346,1.267-4.531a34.866,34.866,0,0,1,2.143-4.052,3.507,3.507,0,0,0,1.166,1.219c1.3.832,2.95.762,5.008-.215.277-.1.5-.188.609-.235.475.105,3.934.628,5.789,2.164a7.019,7.019,0,0,1,2.9,4.595C234.857,389.527,234.021,391.5,233.355,391.833Z" transform="translate(-215.073 -362.273)" fill="#fff"/>
        <path id="Path_72" data-name="Path 72" d="M414.805,449.773c-.5.8-3.159,1.421-4.435,1.65a3.919,3.919,0,0,0-.064-.949l-.018-.476a16.66,16.66,0,0,1,4.578-.505A.372.372,0,0,1,414.805,449.773Z" transform="translate(-390.209 -424.482)" fill="#fff"/>
        <g id="Group_33" data-name="Group 33" transform="translate(13.687 19.647)">
          <path id="Path_73" data-name="Path 73" d="M349.676,398.017a8.238,8.238,0,0,0-2.358-1.272c-.254.706-1.081,3.342.281,4.534a3.539,3.539,0,0,0,4.6-.05A7.632,7.632,0,0,0,349.676,398.017Z" transform="translate(-346.837 -396.745)" fill="#6bc100"/>
        </g>
        <g id="Group_34" data-name="Group 34" transform="translate(4.083 7.654)">
          <path id="Path_74" data-name="Path 74" d="M255.289,283.363c2.6-1.156,2.429-4.379,2.321-5.312a8.43,8.43,0,0,0-1.721-.363,4.343,4.343,0,0,1-2.174,1.165,2.977,2.977,0,0,1-1.012.181.672.672,0,0,0-.036.114,14.707,14.707,0,0,0-1.177,3.024A3.009,3.009,0,0,0,255.289,283.363Z" transform="translate(-251.49 -277.688)" fill="#6bc100"/>
        </g>
        <g id="Group_35" data-name="Group 35" transform="translate(6.399 10.531)">
          <path id="Path_75" data-name="Path 75" d="M276.089,307.622a.846.846,0,1,1-.229-1.284A.931.931,0,0,1,276.089,307.622Z" transform="translate(-274.489 -306.248)" fill="#1a1818"/>
          <path id="Path_76" data-name="Path 76" d="M279.207,309.835a.351.351,0,1,1-.1-.532A.386.386,0,0,1,279.207,309.835Z" transform="translate(-278.136 -308.961)" fill="#fff"/>
        </g>
        <g id="Group_36" data-name="Group 36" transform="translate(10.778 12.796)">
          <path id="Path_77" data-name="Path 77" d="M319.56,330.108a.846.846,0,1,1-.23-1.284A.932.932,0,0,1,319.56,330.108Z" transform="translate(-317.96 -328.733)" fill="#1a1818"/>
          <path id="Path_78" data-name="Path 78" d="M323.284,331.671a.351.351,0,1,1-.095-.532A.385.385,0,0,1,323.284,331.671Z" transform="translate(-322.151 -330.862)" fill="#fff"/>
        </g>
        <path id="Path_79" data-name="Path 79" d="M264.39,369.2a1.371,1.371,0,0,0,.149,1.729c.523.3,1.739.1,1.935-.445S264.7,368.994,264.39,369.2Z" transform="translate(-258.793 -352.302)" fill="#1a1818"/>
        <g id="Group_37" data-name="Group 37" transform="translate(0 1.308)">
          <path id="Path_80" data-name="Path 80" d="M236.025,238.234c-.054-.18-.392-.683-5.173.266a8.89,8.89,0,0,0-3.089-4.529,14.346,14.346,0,0,0-5.249-2.377c.195-.12.392-.246.593-.379a12.992,12.992,0,0,0,3.094-2.846c.006,0,.01.011.016.015.658.471,2.711-.6,3.242-1.253a4.436,4.436,0,0,1,4.12-1.333c.483.039.726.058.853-.111a.6.6,0,0,0-.023-.6,3.272,3.272,0,0,0-2.333-1.8,10.066,10.066,0,0,0-5.267,1.5c-.815-1.289-3.16-2.705-4.366-3.31a14.057,14.057,0,0,0-2.754-1.05,1.606,1.606,0,0,0,.013-.207c0-.727-.071-4.386-1.48-5.049a5.258,5.258,0,0,0-3.684-.237.5.5,0,0,0-.263.43c0,.448.487.738,1,1.046a2.817,2.817,0,0,1,1.091.907c.236.473-.3,1.783-.648,2.65a6.175,6.175,0,0,0-.444,1.3.971.971,0,0,0,.318.9c.013.01.028.017.041.027-.036.078-.055.127-.057.133a15.913,15.913,0,0,0-1.231,4.8l-.006.089a8.505,8.505,0,0,0,.339,3.664l-.084.152a37.758,37.758,0,0,0-2.542,4.355c-.018.043-1.8,4.288-.773,4.93a.979.979,0,0,0,.881.1c.951-.336,1.811-2.062,2.265-3.133a4.6,4.6,0,0,0,1.442,1.427,9.056,9.056,0,0,0,3.193,1.36c.22,1.794.622,3.8,1.987,3.852a.733.733,0,0,0,.567-.24,3.161,3.161,0,0,0,.562-1.708,15.91,15.91,0,0,0,1.933.759c-.589,1.091-1.591,3.33-.819,3.864a.742.742,0,0,0,.6.109c.8-.167,1.765-1.445,2.23-2.126a3.6,3.6,0,0,0,1.7.405c-.1,1.209-.2,3.522.536,3.714a1.031,1.031,0,0,0,1.034-.324c1.02-1.043,1.3-4.221,1.153-4.726a.818.818,0,0,0-.622-.543,5.25,5.25,0,0,0,1.1-2.1c.935-.2,4.227-1.028,4.9-2.1A.8.8,0,0,0,236.025,238.234Zm-9.207-12.642c.262-1.071,3.809-2.029,5.213-1.881a2.744,2.744,0,0,1,1.688,1.066,1.872,1.872,0,0,1,.346.62c-.106,0-.287-.012-.452-.025a5.308,5.308,0,0,0-4.535,1.788,3.26,3.26,0,0,1-2.612.877c-.007-.005-.011-.015-.017-.022A4.176,4.176,0,0,1,226.818,225.592ZM215.7,221.306a3.565,3.565,0,0,1,.194-1.195c.449-1.1,1.179-2.346.855-2.992a3.092,3.092,0,0,0-1.255-1.083,2.592,2.592,0,0,1-.729-.746,4.666,4.666,0,0,1,3.086.384c.974.458,1.419,3.024,1.419,4.54a1.115,1.115,0,0,1-.007.112c-.368,1.262-1.189,1.083-1.956,1.441a1.575,1.575,0,0,1-1.468.044A.577.577,0,0,1,215.7,221.306Zm-.927,5.844a13.051,13.051,0,0,1,1.448-4.654.676.676,0,0,1,.036-.114,2.978,2.978,0,0,0,1.012-.181,4.343,4.343,0,0,0,2.174-1.165,8.277,8.277,0,0,1,2.8.8,10.237,10.237,0,0,1,4.093,3.543c.021.048.039.1.056.144a6.053,6.053,0,0,0-.456,2.1,13.43,13.43,0,0,1-3.58,3.268,15.57,15.57,0,0,1-2.6,1.456,7.9,7.9,0,0,1-.812.221,7.792,7.792,0,0,1-1.391.152,3.1,3.1,0,0,1-1.233-.476C214.531,231.1,214.775,227.15,214.775,227.15Zm9.026,19.133a.321.321,0,0,1-.264-.042c-.364-.252.289-1.9,1.14-3.319l.155.052a2.252,2.252,0,0,0,.7,1.253c.072.049.142.094.21.137C225.247,245.082,224.392,246.16,223.8,246.283Zm5.445-3.341c-.071.036.36.515.5.554.2.056.346.108.392.267.1.345-.185,3.167-1.079,4.082-.2.2-.363.494-.589.435s-.376-1.6-.2-3.485l.028-.293-.287.064s-.6.235-2.235-.879a1.243,1.243,0,0,1-.54-.956.962.962,0,0,1,.072-.33c.037-.08.075-.158.114-.234a3.691,3.691,0,0,1,.823-.9c.228-.173.432-.316.436-.319l-.123-.1a1.024,1.024,0,0,0-.441.076,3.2,3.2,0,0,0-.844.553,1.68,1.68,0,0,0-.452.894c-.937-.316-2.205-.625-2.406-.759a3.4,3.4,0,0,1-.159-1,4.592,4.592,0,0,0-.3-1.44l-.178-.107c0,.508.012,1.066.049,1.557a5.187,5.187,0,0,1-.514,2.762.3.3,0,0,1-.241.109c-1.157-.046-1.758-3.491-1.865-5.652l-.178.046-.173,1.648a8.386,8.386,0,0,1-2.79-1.541,5.015,5.015,0,0,1-1.392-1.357l-.178-.928s-.129.568-.13.573h0c-.319.92-1.362,3.385-2.338,3.729a.553.553,0,0,1-.512-.056c-.33-.206.342-2.346,1.267-4.531a34.867,34.867,0,0,1,2.143-4.052,3.508,3.508,0,0,0,1.166,1.219c1.3.832,2.95.762,5.008-.215.277-.1.5-.188.609-.235.475.105,3.934.628,5.789,2.164a7.019,7.019,0,0,1,2.9,4.6C230.748,240.637,229.912,242.609,229.246,242.942Zm6.314-4.268c-.5.8-3.159,1.421-4.435,1.65a3.918,3.918,0,0,0-.064-.949l-.018-.476a16.662,16.662,0,0,1,4.578-.505A.372.372,0,0,1,235.56,238.674Z" transform="translate(-210.964 -214.69)" fill="#eee"/>
        </g>
        <path id="Path_81" data-name="Path 81" d="M364.923,305.985c.262-1.071,3.809-2.029,5.213-1.881a2.744,2.744,0,0,1,1.688,1.066,1.874,1.874,0,0,1,.346.62c-.106,0-.287-.012-.452-.025a5.307,5.307,0,0,0-4.535,1.788,3.26,3.26,0,0,1-2.612.877c-.007-.005-.011-.015-.017-.022A4.176,4.176,0,0,1,364.923,305.985Z" transform="translate(-349.068 -293.775)" fill="#6bc100"/>
        <path id="Path_82" data-name="Path 82" d="M249.66,225.433a3.567,3.567,0,0,1,.194-1.195c.449-1.1,1.179-2.346.855-2.992a3.092,3.092,0,0,0-1.255-1.083,2.593,2.593,0,0,1-.729-.746,4.665,4.665,0,0,1,3.086.384c.974.458,1.419,3.024,1.419,4.54,0,.039,0,.076-.007.112-.368,1.262-1.189,1.084-1.956,1.441a1.575,1.575,0,0,1-1.468.044A.577.577,0,0,1,249.66,225.433Z" transform="translate(-244.922 -217.51)" fill="#6bc100"/>
        <g id="Group_38" data-name="Group 38" transform="translate(18.768)">
          <path id="Path_83" data-name="Path 83" d="M397.382,201.772l-.035-.061a.11.11,0,0,0-.072.018Z" transform="translate(-397.275 -201.71)" fill="none"/>
        </g>
      </g>
      <g id="Group_40" data-name="Group 40" transform="translate(20.281 33.952)">
        <path id="Path_84" data-name="Path 84" d="M412.293,539.023a1.586,1.586,0,0,1,.476,1.285,8.268,8.268,0,0,1-.19,1.666c.045-.058.4-.228.538-1.207a4.25,4.25,0,0,0-.245-2.016Z" transform="translate(-412.293 -538.751)" fill="#1a1818"/>
      </g>
      <g id="Group_41" data-name="Group 41" transform="translate(21.408 34.422)">
        <path id="Path_85" data-name="Path 85" d="M423.519,543.49h0a3.746,3.746,0,0,1,.21,1.435c-.093.928-.254,2.076-.254,2.076a4.758,4.758,0,0,0,.682-1.933,4.891,4.891,0,0,0-.218-1.66Z" transform="translate(-423.475 -543.408)" fill="#1a1818"/>
      </g>
    </g>
  </g>
</svg>
