<svg xmlns="http://www.w3.org/2000/svg" width="22.329" height="29.027" viewBox="0 0 22.329 29.027">
  <g id="document_icon" transform="translate(-96 -48)">
    <path id="Path_6531" data-name="Path 6531" d="M110.091,48H96V77.027h22.329V56.238Z" fill="#231f20"/>
    <path id="Path_6532" data-name="Path 6532" d="M138.979,97.678H120V72h11.723l7.257,7.257Z" transform="translate(-22.325 -22.325)" fill="#ed1b2e"/>
    <path id="Path_6533" data-name="Path 6533" d="M288,79.257V72l7.257,7.257Z" transform="translate(-178.603 -22.325)" fill="#e6e7e8"/>
    <path id="Path_6534" data-name="Path 6534" d="M288,176l7.257,7.257V176Z" transform="translate(-178.603 -119.069)" fill="#c61825"/>
    <path id="Path_6535" data-name="Path 6535" d="M154.644,296.208c-1.571,1.131-2.652,2.737-2.226,2.987h0l-.373-.181h0c-.216-.254.274-1.616,2.6-2.807Zm11.8-1.268c.8-1.65-5.814-1.4-10.651.761,3.764-1.4,10.731-2,10.651-.761Z" transform="translate(-52.092 -228.71)" fill="#d42027" fill-rule="evenodd"/>
    <path id="Path_6536" data-name="Path 6536" d="M235.643,171.495c.181-.917-.284-.884-.414-.884h0l-.294,0h0c-.162,0-.307.125-.378.38a9.263,9.263,0,0,0,2.709,7.774c2.062,1.71,5.653,2.493,5.8,1.666-.746.345-3.549-.524-5.433-1.97-2.227-1.762-3.179-6.106-2.7-7.464a.881.881,0,0,1,.215-.329.97.97,0,0,1,.5.83Z" transform="translate(-128.776 -114.053)" fill="#d42027" fill-rule="evenodd"/>
    <path id="Path_6537" data-name="Path 6537" d="M159.533,187.1a20.323,20.323,0,0,1-2.241,7.048c-2.091,4.057-3.617,5.949-4.633,5.55h0l.363.179h0c.8.392,2.261-.9,4.692-5.411a13.179,13.179,0,0,0,1.818-7.367Z" transform="translate(-52.705 -129.398)" fill="#d42027" fill-rule="evenodd"/>
    <g id="Group_2807" data-name="Group 2807" transform="translate(99.908 56.361)">
      <path id="Path_6538" data-name="Path 6538" d="M154.644,293.422c-1.571,1.131-2.652,2.737-2.226,2.988h0l-.373-.181h0c-.216-.254.274-1.616,2.6-2.807Zm11.8-1.268c.8-1.65-5.814-1.4-10.651.761,3.764-1.4,10.731-2,10.651-.761Z" transform="translate(-152 -282.479)" fill="#fff" fill-rule="evenodd"/>
      <path id="Path_6539" data-name="Path 6539" d="M235.643,168.709c.181-.917-.284-.884-.414-.884h0l-.294,0h0c-.162,0-.307.125-.378.38a9.263,9.263,0,0,0,2.709,7.774c2.062,1.71,5.653,2.493,5.8,1.666-.746.345-3.549-.524-5.433-1.97-2.227-1.762-3.179-6.106-2.7-7.464a.881.881,0,0,1,.215-.329.97.97,0,0,1,.5.83Z" transform="translate(-228.684 -167.822)" fill="#fff" fill-rule="evenodd"/>
      <path id="Path_6540" data-name="Path 6540" d="M159.533,184.318a20.323,20.323,0,0,1-2.241,7.048c-2.091,4.057-3.617,5.949-4.633,5.55h0l.363.179h0c.8.392,2.261-.9,4.692-5.411a13.179,13.179,0,0,0,1.818-7.367Z" transform="translate(-152.613 -183.167)" fill="#fff" fill-rule="evenodd"/>
    </g>
  </g>
</svg>
