<svg id="Group_268" data-name="Group 268" xmlns="http://www.w3.org/2000/svg" width="24" height="24.207" viewBox="0 0 24 24.207">
  <g id="Black">
    <path id="Path_957" data-name="Path 957" d="M7.5,4.5v1" fill="none" stroke="#58595b" stroke-linecap="round" stroke-linejoin="round" stroke-width="1"/>
    <path id="Path_958" data-name="Path 958" d="M19.5,23.5l-1.5-9-5-4-.6-3.6" fill="none" stroke="#58595b" stroke-linecap="round" stroke-linejoin="round" stroke-width="1"/>
    <path id="Path_959" data-name="Path 959" d="M10.5,5,13,7.5h4.5L12,.5,6.5,2,5,5,.5,7,2,9.5H6L8,16,5.25,21.5" fill="none" stroke="#58595b" stroke-linecap="round" stroke-linejoin="round" stroke-width="1"/>
    <path id="Path_960" data-name="Path 960" d="M13.5,17.5H11l-2,4H3.5L2,23.5H19.5" fill="none" stroke="#58595b" stroke-linecap="round" stroke-linejoin="round" stroke-width="1"/>
    <path id="Path_961" data-name="Path 961" d="M19.5,23.5l4-4L21,16l2-2.5-2-2" fill="none" stroke="#58595b" stroke-linecap="round" stroke-linejoin="round" stroke-width="1"/>
    <path id="Path_962" data-name="Path 962" d="M6,9.5H8L10,8" fill="none" stroke="#58595b" stroke-linecap="round" stroke-linejoin="round" stroke-width="1"/>
  </g>
  <path id="Frames-24px" d="M0,0H24V24H0Z" fill="none"/>
</svg>
