<svg xmlns="http://www.w3.org/2000/svg" width="44" height="43" viewBox="0 0 44 43">
  <g id="evening" transform="translate(-174 -444)">
    <g id="Rectangle_85158" data-name="Rectangle 85158" transform="translate(174 444)" fill="none" stroke="#5c6d80" stroke-width="1">
      <rect width="44" height="43" rx="4" stroke="none"/>
      <rect x="0.5" y="0.5" width="43" height="42" rx="3.5" fill="none"/>
    </g>
    <g id="Group_2728" data-name="Group 2728" transform="translate(183.712 454.633)">
      <g id="Group_2729" data-name="Group 2729">
        <path id="Path_6253" data-name="Path 6253" d="M0,13.315a12.458,12.458,0,0,1,.258-1.234A6.021,6.021,0,0,1,5.16,7.7c.144-.028.29-.045.436-.062s.274-.024.429-.038A6.186,6.186,0,0,1,14.2,2.489c.294-.317.563-.647.872-.932A5.588,5.588,0,0,1,18.463.044.459.459,0,0,0,18.58,0h.833c.527.121,1.061.221,1.58.369s.588.456.2.839a3.474,3.474,0,0,0,2.866,5.9c.4-.047.622.219.466.593a8.075,8.075,0,0,1-.625,1.28,15.829,15.829,0,0,1-.978,1.247,6.331,6.331,0,0,1,1.063,2.81,6.092,6.092,0,0,1-2.142,5.421,1.965,1.965,0,0,1-1.4.539c-5.644-.024-11.288-.017-16.931-.01a1.551,1.551,0,0,1-1.085-.342A6.276,6.276,0,0,1,.157,15.06C.095,14.775.052,14.486,0,14.2v-.884m17.511-4.9a5.419,5.419,0,0,0-1.554-3.864,5.215,5.215,0,0,0-3.85-1.592,5.15,5.15,0,0,0-3.25,1.126A5.372,5.372,0,0,0,6.786,8.392c-.476.028-.918.027-1.354.083A5.321,5.321,0,0,0,3,18.039a.82.82,0,0,0,.45.145q8.587.011,17.174,0a.741.741,0,0,0,.425-.14,5.117,5.117,0,0,0,2.108-5,5.138,5.138,0,0,0-3.375-4.256,6.137,6.137,0,0,0-2.269-.368m-2.5-5.579a6.216,6.216,0,0,1,3.268,4.8,6.2,6.2,0,0,1,4.1,1.928,4.956,4.956,0,0,0,1.181-1.6,4.245,4.245,0,0,1-3.771-2.481A4.221,4.221,0,0,1,20.271,1a4.91,4.91,0,0,0-5.263,1.835" fill="#1a1818" stroke="#5c6d80" stroke-width="1"/>
      </g>
    </g>
  </g>
</svg>
