<svg xmlns="http://www.w3.org/2000/svg" xmlns:xlink="http://www.w3.org/1999/xlink" width="44" height="43" viewBox="0 0 44 43">
  <defs>
    <clipPath id="clip-path">
      <rect id="Rectangle_85159" data-name="Rectangle 85159" width="24.406" height="21.677" fill="#5c6d80"/>
    </clipPath>
  </defs>
  <g id="morning" transform="translate(-91 -299)">
    <g id="Rectangle_222" data-name="Rectangle 222" transform="translate(91 299)" fill="rgba(255,255,255,0)" stroke="#5c6d80" stroke-width="1">
      <rect width="44" height="43" rx="4" stroke="none"/>
      <rect x="0.5" y="0.5" width="43" height="42" rx="3.5" fill="none"/>
    </g>
    <g id="Group_2724" data-name="Group 2724" transform="translate(100.797 308.762)">
      <g id="Group_2723" data-name="Group 2723" clip-path="url(#clip-path)">
        <path id="Path_6234" data-name="Path 6234" d="M20.507,52.731A8.347,8.347,0,0,0,4.129,51.1c-.112.387-.226.83-.748.706-.583-.139-.44-.614-.331-1.021a9.483,9.483,0,0,1,18.464.86c.057.339.115.678.184,1.087.638,0,1.281.008,1.924,0,.409-.007.785.065.783.557s-.38.555-.787.555q-7.362-.006-14.723,0c-2.523,0-5.047.017-7.57-.015C.842,53.817.019,54.159,0,53.3s.809-.555,1.29-.556c6.134-.02,12.269-.013,18.4-.013Z" transform="translate(0 -37.724)" fill="#5c6d80"/>
        <path id="Path_6235" data-name="Path 6235" d="M38.517,128.339H31.572c-.185,0-.413.056-.544-.031-.184-.121-.411-.354-.407-.535s.245-.391.43-.518c.111-.077.315-.022.477-.022H45.556c.116,0,.268-.046.34.01a6.733,6.733,0,0,1,.575.554c-.2.18-.384.5-.594.516-.806.062-1.619.026-2.429.026H38.517" transform="translate(-26.344 -109.446)" fill="#5c6d80"/>
        <path id="Path_6236" data-name="Path 6236" d="M60.9,148.327c-1.134,0-2.268-.008-3.4,0-.41,0-.792-.066-.8-.543s.354-.572.774-.571q3.472.012,6.944,0c.412,0,.8.067.8.542,0,.526-.413.577-.842.573-1.157-.011-2.315,0-3.472,0" transform="translate(-48.778 -126.654)" fill="#5c6d80"/>
        <path id="Path_6237" data-name="Path 6237" d="M84.377,2.579a17.011,17.011,0,0,1-.025,1.935c-.027.236-.339.439-.521.657-.186-.213-.525-.419-.534-.638-.051-1.29-.051-2.584,0-3.874.009-.226.338-.44.519-.659.187.214.508.412.536.645a16.72,16.72,0,0,1,.026,1.935" transform="translate(-71.63)" fill="#5c6d80"/>
        <path id="Path_6238" data-name="Path 6238" d="M32.6,19.144a1.838,1.838,0,0,1-.414-.381c-.658-1.057-1.32-2.113-1.914-3.206a.908.908,0,0,1,.119-.865c.32-.248.627,0,.829.343.621,1.052,1.262,2.093,1.88,3.147.292.5.092.964-.5.963" transform="translate(-25.994 -12.554)" fill="#5c6d80"/>
        <path id="Path_6239" data-name="Path 6239" d="M123.214,19.687c-.5.03-.827-.376-.624-.735.683-1.2,1.393-2.391,2.142-3.554.1-.149.476-.115.725-.165.035.286.193.637.083.847-.471.9-1.021,1.753-1.542,2.623a6,6,0,0,1-.4.645,2.439,2.439,0,0,1-.381.339" transform="translate(-105.415 -13.105)" fill="#5c6d80"/>
        <path id="Path_6240" data-name="Path 6240" d="M15.334,38.365a4.071,4.071,0,0,1,.548.368,16.166,16.166,0,0,1,1.459,1.473.96.96,0,0,1,.131.873c-.234.358-.6.19-.879-.084-.523-.521-1.062-1.027-1.556-1.574a.794.794,0,0,1-.144-.621c.035-.159.267-.274.441-.435" transform="translate(-12.801 -33.007)" fill="#5c6d80"/>
        <path id="Path_6241" data-name="Path 6241" d="M143.714,39.775a1.975,1.975,0,0,1-.237.483c-.546.563-1.084,1.138-1.681,1.643-.165.14-.523.052-.793.068.018-.287-.073-.667.076-.845a16.22,16.22,0,0,1,1.612-1.612.793.793,0,0,1,.612-.145c.154.032.268.258.41.409" transform="translate(-121.3 -33.858)" fill="#5c6d80"/>
        <path id="Path_6242" data-name="Path 6242" d="M60.7,18.031c-.13.15-.27.452-.435.466a.767.767,0,0,1-.644-.315,21.527,21.527,0,0,1-.735-2.5.665.665,0,0,1,.335-.567c.2-.043.609.1.666.252.306.836.53,1.7.813,2.663" transform="translate(-50.654 -12.997)" fill="#5c6d80"/>
        <path id="Path_6243" data-name="Path 6243" d="M102.718,17.945c.286-.971.516-1.842.818-2.687a.68.68,0,0,1,.619-.241c.174.053.414.392.377.547a24.18,24.18,0,0,1-.765,2.583.69.69,0,0,1-.609.267c-.181-.038-.31-.319-.441-.468" transform="translate(-88.372 -12.91)" fill="#5c6d80"/>
      </g>
    </g>
  </g>
</svg>
