<svg xmlns="http://www.w3.org/2000/svg" xmlns:xlink="http://www.w3.org/1999/xlink" width="44" height="43" viewBox="0 0 44 43">
  <defs>
    <clipPath id="clip-path">
      <rect id="Rectangle_85160" data-name="Rectangle 85160" width="28.248" height="28.18" fill="#5c6d80" stroke="#5c6d80" stroke-width="1"/>
    </clipPath>
  </defs>
  <g id="noon" transform="translate(-256 -299)">
    <g id="Rectangle_223" data-name="Rectangle 223" transform="translate(256 299)" fill="none" stroke="#5c6d80" stroke-width="1">
      <rect width="44" height="43" rx="4" stroke="none"/>
      <rect x="0.5" y="0.5" width="43" height="42" rx="3.5" fill="none"/>
    </g>
    <g id="Group_2726" data-name="Group 2726" transform="translate(263.876 306.41)">
      <g id="Group_2725" data-name="Group 2725" clip-path="url(#clip-path)">
        <path id="Path_6244" data-name="Path 6244" d="M95.607,0a2.189,2.189,0,0,1,.281.692c.03,1.007.036,2.018-.011,3.024-.01.2-.287.4-.441.592-.134-.194-.377-.384-.385-.583-.039-1.031-.033-2.065,0-3.1A1.912,1.912,0,0,1,95.318,0Z" transform="translate(-81.227 0.001)" fill="#5c6d80" stroke="#5c6d80" stroke-width="1"/>
        <path id="Path_6245" data-name="Path 6245" d="M169.234,91.59c-.111.087-.219.248-.332.25-1.218.026-2.436.039-3.654.019-.114,0-.288-.24-.313-.388-.02-.115.151-.379.234-.378,1.3.013,2.593.058,3.89.1.059,0,.116.07.175.107Z" transform="translate(-140.986 -77.867)" fill="#5c6d80" stroke="#5c6d80" stroke-width="1"/>
        <path id="Path_6246" data-name="Path 6246" d="M43.623,53.025a9.06,9.06,0,1,1,9.072-9.044,9.06,9.06,0,0,1-9.072,9.044M35.474,44a8.1,8.1,0,1,0,2.35-5.806A8.147,8.147,0,0,0,35.474,44" transform="translate(-29.536 -29.837)" fill="#5c6d80" stroke="#5c6d80" stroke-width="1"/>
        <path id="Path_6247" data-name="Path 6247" d="M33.23,30.06a.425.425,0,0,1-.741.325q-1.241-1.085-2.412-2.248a.694.694,0,0,1-.034-.616.584.584,0,0,1,.54-.051c.864.753,1.7,1.54,2.536,2.325a.635.635,0,0,1,.112.264" transform="translate(-25.634 -23.444)" fill="#5c6d80" stroke="#5c6d80" stroke-width="1"/>
        <path id="Path_6248" data-name="Path 6248" d="M146.71,27.807a3.022,3.022,0,0,1-.312.428c-.731.689-1.454,1.387-2.22,2.035-.165.139-.491.087-.744.124.044-.249,0-.585.145-.733.722-.731,1.484-1.422,2.256-2.1a.776.776,0,0,1,.568-.129c.113.018.2.231.306.376" transform="translate(-122.608 -23.441)" fill="#5c6d80" stroke="#5c6d80" stroke-width="1"/>
        <path id="Path_6249" data-name="Path 6249" d="M146.475,149.284c-.337.065-.688.239-.808.138-.878-.739-1.721-1.521-2.543-2.323-.1-.1-.023-.39-.027-.592.216,0,.513-.1.635,0,.833.719,1.632,1.478,2.433,2.234a2.924,2.924,0,0,1,.31.538" transform="translate(-122.298 -125.197)" fill="#5c6d80" stroke="#5c6d80" stroke-width="1"/>
        <path id="Path_6250" data-name="Path 6250" d="M30.031,149.342c-.1-.073-.31-.141-.344-.26a.608.608,0,0,1,.091-.514c.807-.781,1.63-1.547,2.476-2.285a.417.417,0,0,1,.6.569c-.836.819-1.7,1.6-2.569,2.394a.919.919,0,0,1-.255.1" transform="translate(-25.359 -124.987)" fill="#5c6d80" stroke="#5c6d80" stroke-width="1"/>
        <path id="Path_6251" data-name="Path 6251" d="M2.1,91.43a13.644,13.644,0,0,1-1.577-.021c-.19-.022-.353-.283-.527-.435.167-.139.33-.393.5-.4,1.075-.038,2.154-.041,3.228,0,.179.007.348.289.521.444-.189.135-.368.366-.569.387a14.943,14.943,0,0,1-1.577.019Z" transform="translate(0 -77.399)" fill="#5c6d80" stroke="#5c6d80" stroke-width="1"/>
        <path id="Path_6252" data-name="Path 6252" d="M95.924,167.268a15.574,15.574,0,0,1-.02,1.583c-.017.167-.267.311-.41.465-.144-.156-.408-.307-.413-.467q-.055-1.655,0-3.312c0-.148.29-.285.446-.428.13.143.359.279.371.432.044.573.018,1.151.018,1.727h.007" transform="translate(-81.252 -141.136)" fill="#5c6d80" stroke="#5c6d80" stroke-width="1"/>
      </g>
    </g>
  </g>
</svg>
