<svg id="Edit" xmlns="http://www.w3.org/2000/svg" width="12.034" height="12.034" viewBox="0 0 12.034 12.034">
  <path id="Path_8517" data-name="Path 8517" d="M0,0H12.034V12.034H0Z" fill="none"/>
  <path id="Path_8518" data-name="Path 8518" d="M3,10.249v1.524a.248.248,0,0,0,.251.251H4.775a.235.235,0,0,0,.175-.075l5.476-5.471L8.546,4.6,3.075,10.069A.246.246,0,0,0,3,10.249Zm8.88-5.225a.5.5,0,0,0,0-.707L10.707,3.144a.5.5,0,0,0-.707,0l-.918.918,1.88,1.88.918-.918Z" transform="translate(-1.496 -1.494)"/>
</svg>
