<svg xmlns="http://www.w3.org/2000/svg" width="13.377" height="13.354" viewBox="0 0 13.377 13.354">
  <path id="Layer_15" data-name="Layer 15" d="M3.318,5.254H5.577a1.911,1.911,0,0,0,3.765,0h6.717a.318.318,0,1,0,0-.637H9.341a1.911,1.911,0,0,0-3.765,0H3.318a.318.318,0,1,0,0,.637Zm4.14-1.592A1.274,1.274,0,1,1,6.185,4.935,1.274,1.274,0,0,1,7.459,3.661Zm8.6,5.733H13.8a1.911,1.911,0,0,0-3.765,0H3.318a.318.318,0,0,0,0,.637h6.717a1.911,1.911,0,0,0,3.765,0h2.258a.318.318,0,0,0,0-.637Zm-4.14,1.592a1.274,1.274,0,1,1,1.274-1.274A1.274,1.274,0,0,1,11.918,10.987Zm4.14,3.185H9.341a1.911,1.911,0,0,0-3.765,0H3.318a.318.318,0,0,0,0,.637H5.577a1.911,1.911,0,0,0,3.765,0h6.717a.318.318,0,0,0,0-.637Zm-8.6,1.592A1.274,1.274,0,1,1,8.733,14.49,1.274,1.274,0,0,1,7.459,15.764Z" transform="translate(-3 -3.035)"/>
</svg>
