<svg xmlns="http://www.w3.org/2000/svg" width="37" height="39" viewBox="0 0 37 39">
  <g id="Group_2872" data-name="Group 2872" transform="translate(-32 -50)">
    <rect id="Rectangle_9" data-name="Rectangle 9" width="37" height="39" rx="5" transform="translate(32 50)" fill="#6bc100"/>
    <g id="Group_42" data-name="Group 42" transform="translate(40.233 51.498)">
      <g id="Group_39" data-name="Group 39" transform="translate(0 -0.001)">
        <path id="Path_69" data-name="Path 69" d="M248.7,283.239a11.85,11.85,0,0,1,1.315-4.226.608.608,0,0,1,.033-.1,2.7,2.7,0,0,0,.919-.164,3.944,3.944,0,0,0,1.974-1.058,7.515,7.515,0,0,1,2.542.726,9.3,9.3,0,0,1,3.717,3.217c.019.043.035.087.05.131a5.5,5.5,0,0,0-.414,1.909,12.194,12.194,0,0,1-3.251,2.967,14.137,14.137,0,0,1-2.36,1.322,7.173,7.173,0,0,1-.737.2,7.074,7.074,0,0,1-1.263.138,2.819,2.819,0,0,1-1.119-.433C248.475,286.826,248.7,283.239,248.7,283.239Z" transform="translate(-245.236 -270.738)" fill="#fff"/>
        <path id="Path_70" data-name="Path 70" d="M335.084,498a.292.292,0,0,1-.24-.038c-.33-.229.262-1.722,1.035-3.014l.14.047a2.045,2.045,0,0,0,.637,1.138c.065.045.129.085.191.124C336.4,496.906,335.622,497.885,335.084,498Z" transform="translate(-323.428 -468.122)" fill="#fff"/>
        <path id="Path_71" data-name="Path 71" d="M231.716,390.769c-.065.032.327.468.451.5.182.051.314.1.356.242.09.313-.168,2.876-.98,3.707-.179.183-.329.449-.534.4s-.341-1.451-.18-3.165l.025-.266-.261.058s-.542.214-2.029-.8a1.129,1.129,0,0,1-.49-.868.873.873,0,0,1,.065-.3c.033-.072.068-.143.1-.213a3.351,3.351,0,0,1,.747-.814c.207-.157.392-.287.4-.289l-.111-.094a.934.934,0,0,0-.4.069,2.906,2.906,0,0,0-.767.5,1.526,1.526,0,0,0-.411.812c-.85-.287-2-.567-2.185-.689a3.091,3.091,0,0,1-.145-.91,4.169,4.169,0,0,0-.275-1.308l-.162-.1c0,.461.011.968.045,1.413a4.709,4.709,0,0,1-.466,2.508.276.276,0,0,1-.219.1c-1.051-.042-1.6-3.17-1.694-5.132l-.162.042-.158,1.5a7.614,7.614,0,0,1-2.533-1.4,4.554,4.554,0,0,1-1.264-1.232l-.162-.843s-.117.516-.118.52h0c-.29.836-1.237,3.074-2.123,3.386a.5.5,0,0,1-.464-.051c-.3-.187.311-2.13,1.15-4.114a31.659,31.659,0,0,1,1.946-3.68,3.185,3.185,0,0,0,1.059,1.107c1.18.756,2.679.692,4.547-.2.252-.092.451-.171.553-.214.431.1,3.572.571,5.257,1.965a6.374,6.374,0,0,1,2.631,4.172C233.08,388.675,232.321,390.466,231.716,390.769Z" transform="translate(-215.115 -363.927)" fill="#fff"/>
        <path id="Path_72" data-name="Path 72" d="M414.39,449.743c-.455.725-2.869,1.291-4.027,1.5a3.559,3.559,0,0,0-.058-.861l-.017-.432a15.129,15.129,0,0,1,4.157-.459A.338.338,0,0,1,414.39,449.743Z" transform="translate(-392.055 -426.777)" fill="#fff"/>
        <g id="Group_33" data-name="Group 33" transform="translate(12.429 17.841)">
          <path id="Path_73" data-name="Path 73" d="M349.415,397.9a7.48,7.48,0,0,0-2.141-1.155c-.231.641-.981,3.035.255,4.117a3.214,3.214,0,0,0,4.174-.045A6.93,6.93,0,0,0,349.415,397.9Z" transform="translate(-346.837 -396.745)" fill="#6bc100"/>
        </g>
        <g id="Group_34" data-name="Group 34" transform="translate(3.707 6.95)">
          <path id="Path_74" data-name="Path 74" d="M254.94,282.841c2.362-1.05,2.206-3.976,2.107-4.823a7.655,7.655,0,0,0-1.563-.329,3.944,3.944,0,0,1-1.974,1.058,2.7,2.7,0,0,1-.919.164.613.613,0,0,0-.033.1,13.357,13.357,0,0,0-1.068,2.746A2.733,2.733,0,0,0,254.94,282.841Z" transform="translate(-251.49 -277.688)" fill="#6bc100"/>
        </g>
        <g id="Group_35" data-name="Group 35" transform="translate(5.811 9.562)">
          <path id="Path_75" data-name="Path 75" d="M275.942,307.5a.768.768,0,1,1-.208-1.166A.845.845,0,0,1,275.942,307.5Z" transform="translate(-274.489 -306.248)" fill="#1a1818"/>
          <path id="Path_76" data-name="Path 76" d="M279.146,309.782a.318.318,0,1,1-.087-.483A.35.35,0,0,1,279.146,309.782Z" transform="translate(-278.173 -308.989)" fill="#fff"/>
        </g>
        <g id="Group_36" data-name="Group 36" transform="translate(9.787 11.619)">
          <path id="Path_77" data-name="Path 77" d="M319.413,329.981a.768.768,0,1,1-.208-1.166A.846.846,0,0,1,319.413,329.981Z" transform="translate(-317.96 -328.733)" fill="#1a1818"/>
          <path id="Path_78" data-name="Path 78" d="M323.223,331.618a.318.318,0,1,1-.086-.483A.35.35,0,0,1,323.223,331.618Z" transform="translate(-322.194 -330.884)" fill="#fff"/>
        </g>
        <path id="Path_79" data-name="Path 79" d="M264.368,369.2a1.245,1.245,0,0,0,.135,1.57c.475.276,1.579.093,1.757-.4S264.65,369.011,264.368,369.2Z" transform="translate(-259.286 -353.853)" fill="#1a1818"/>
        <g id="Group_37" data-name="Group 37" transform="translate(0 1.187)">
          <path id="Path_80" data-name="Path 80" d="M233.721,236.069c-.049-.163-.356-.62-4.7.242a8.072,8.072,0,0,0-2.8-4.112,13.027,13.027,0,0,0-4.766-2.159c.177-.109.356-.223.539-.344a11.8,11.8,0,0,0,2.809-2.584c.005,0,.009.01.014.014.6.427,2.462-.542,2.944-1.138a4.028,4.028,0,0,1,3.741-1.21c.439.035.659.053.774-.1a.542.542,0,0,0-.021-.546,2.971,2.971,0,0,0-2.119-1.635,9.14,9.14,0,0,0-4.783,1.358,11.751,11.751,0,0,0-3.965-3.005,12.765,12.765,0,0,0-2.5-.954,1.46,1.46,0,0,0,.012-.188c0-.66-.065-3.983-1.343-4.585a4.775,4.775,0,0,0-3.345-.215.453.453,0,0,0-.239.391c0,.407.442.671.91.949a2.558,2.558,0,0,1,.991.823c.215.43-.269,1.619-.589,2.406a5.607,5.607,0,0,0-.4,1.183.881.881,0,0,0,.289.82c.012.009.025.016.037.024-.033.071-.05.115-.052.121a14.45,14.45,0,0,0-1.117,4.358l-.005.081a7.723,7.723,0,0,0,.308,3.327l-.076.138a34.287,34.287,0,0,0-2.308,3.955c-.016.039-1.634,3.894-.7,4.477a.889.889,0,0,0,.8.088c.864-.3,1.645-1.872,2.056-2.845a4.182,4.182,0,0,0,1.309,1.3,8.223,8.223,0,0,0,2.9,1.235c.2,1.629.565,3.448,1.8,3.5a.665.665,0,0,0,.515-.218,2.87,2.87,0,0,0,.511-1.551,14.451,14.451,0,0,0,1.755.69c-.535.991-1.444,3.024-.744,3.509a.674.674,0,0,0,.541.1c.727-.151,1.6-1.312,2.025-1.93a3.272,3.272,0,0,0,1.548.368c-.092,1.1-.179,3.2.487,3.372a.936.936,0,0,0,.939-.294c.926-.947,1.179-3.833,1.047-4.291a.743.743,0,0,0-.565-.493,4.766,4.766,0,0,0,1-1.911c.849-.18,3.838-.934,4.447-1.9A.724.724,0,0,0,233.721,236.069Zm-8.36-11.479c.238-.972,3.458-1.843,4.734-1.708a2.492,2.492,0,0,1,1.533.968,1.7,1.7,0,0,1,.315.563c-.1,0-.261-.011-.411-.023a4.819,4.819,0,0,0-4.118,1.623,2.96,2.96,0,0,1-2.372.8c-.007,0-.01-.014-.016-.02A3.792,3.792,0,0,1,225.36,224.59ZM215.266,220.7a3.237,3.237,0,0,1,.176-1.085c.408-1,1.07-2.13.777-2.717a2.807,2.807,0,0,0-1.139-.983,2.354,2.354,0,0,1-.662-.678,4.236,4.236,0,0,1,2.8.349c.884.416,1.289,2.746,1.289,4.123a1.013,1.013,0,0,1-.007.1c-.334,1.146-1.079.984-1.776,1.308a1.43,1.43,0,0,1-1.333.04A.524.524,0,0,1,215.266,220.7ZM214.424,226a11.851,11.851,0,0,1,1.315-4.226.61.61,0,0,1,.033-.1,2.7,2.7,0,0,0,.919-.164,3.944,3.944,0,0,0,1.974-1.058,7.516,7.516,0,0,1,2.542.726,9.3,9.3,0,0,1,3.717,3.217c.019.043.035.087.05.131a5.5,5.5,0,0,0-.414,1.909,12.2,12.2,0,0,1-3.251,2.967,14.139,14.139,0,0,1-2.36,1.322,7.177,7.177,0,0,1-.737.2,7.075,7.075,0,0,1-1.263.138,2.818,2.818,0,0,1-1.119-.433C214.2,229.591,214.424,226,214.424,226Zm8.2,17.374a.292.292,0,0,1-.24-.038c-.33-.229.262-1.722,1.035-3.014l.14.047a2.045,2.045,0,0,0,.637,1.138c.065.045.129.085.191.124C223.934,242.287,223.157,243.266,222.62,243.378Zm4.944-3.034c-.065.032.327.468.451.5.182.051.314.1.356.242.089.313-.168,2.876-.98,3.707-.179.183-.329.449-.534.4s-.341-1.451-.18-3.165l.025-.266-.261.058s-.542.214-2.029-.8a1.129,1.129,0,0,1-.49-.868.873.873,0,0,1,.065-.3c.033-.072.068-.143.1-.213a3.352,3.352,0,0,1,.747-.814c.207-.157.392-.287.4-.29l-.111-.094a.93.93,0,0,0-.4.069,2.905,2.905,0,0,0-.767.5,1.526,1.526,0,0,0-.411.812c-.85-.287-2-.567-2.185-.689a3.089,3.089,0,0,1-.145-.91,4.17,4.17,0,0,0-.275-1.308l-.162-.1c0,.461.011.968.045,1.413a4.71,4.71,0,0,1-.467,2.508.276.276,0,0,1-.219.1c-1.051-.042-1.6-3.17-1.694-5.132l-.162.042-.158,1.5a7.615,7.615,0,0,1-2.533-1.4,4.554,4.554,0,0,1-1.264-1.232l-.162-.843s-.117.516-.118.52h0c-.29.836-1.237,3.074-2.123,3.386a.5.5,0,0,1-.465-.051c-.3-.187.311-2.13,1.15-4.114a31.655,31.655,0,0,1,1.946-3.68,3.185,3.185,0,0,0,1.059,1.107c1.18.756,2.679.692,4.547-.2.252-.092.451-.171.553-.214.431.1,3.572.571,5.257,1.965a6.373,6.373,0,0,1,2.631,4.172C228.929,238.251,228.169,240.042,227.564,240.344Zm5.734-3.876c-.455.725-2.869,1.291-4.027,1.5a3.558,3.558,0,0,0-.058-.861l-.017-.432a15.13,15.13,0,0,1,4.157-.459A.338.338,0,0,1,233.3,236.468Z" transform="translate(-210.964 -214.69)" fill="#eee"/>
        </g>
        <path id="Path_81" data-name="Path 81" d="M364.887,305.81c.238-.972,3.458-1.843,4.734-1.708a2.492,2.492,0,0,1,1.533.968,1.7,1.7,0,0,1,.315.563c-.1,0-.261-.011-.411-.023a4.819,4.819,0,0,0-4.118,1.623,2.96,2.96,0,0,1-2.372.8c-.007,0-.01-.014-.016-.02A3.792,3.792,0,0,1,364.887,305.81Z" transform="translate(-350.491 -294.724)" fill="#6bc100"/>
        <path id="Path_82" data-name="Path 82" d="M249.574,224.867a3.238,3.238,0,0,1,.176-1.085c.408-1,1.07-2.13.777-2.717a2.807,2.807,0,0,0-1.139-.983,2.354,2.354,0,0,1-.662-.678,4.236,4.236,0,0,1,2.8.349c.884.416,1.289,2.746,1.289,4.122,0,.035,0,.069-.006.1-.334,1.146-1.079.984-1.776,1.308a1.431,1.431,0,0,1-1.333.04A.524.524,0,0,1,249.574,224.867Z" transform="translate(-245.271 -217.672)" fill="#6bc100"/>
        <g id="Group_38" data-name="Group 38" transform="translate(17.043)">
          <path id="Path_83" data-name="Path 83" d="M397.372,201.766l-.032-.055a.1.1,0,0,0-.065.017Z" transform="translate(-397.275 -201.71)" fill="none"/>
        </g>
      </g>
      <g id="Group_40" data-name="Group 40" transform="translate(18.416 30.83)">
        <path id="Path_84" data-name="Path 84" d="M412.293,539a1.441,1.441,0,0,1,.432,1.167,7.507,7.507,0,0,1-.173,1.513c.041-.053.361-.207.489-1.1a3.86,3.86,0,0,0-.222-1.831Z" transform="translate(-412.293 -538.751)" fill="#1a1818"/>
      </g>
      <g id="Group_41" data-name="Group 41" transform="translate(19.439 31.256)">
        <path id="Path_85" data-name="Path 85" d="M423.515,543.482h0a3.4,3.4,0,0,1,.191,1.3c-.084.842-.23,1.885-.23,1.885a4.321,4.321,0,0,0,.619-1.755,4.44,4.44,0,0,0-.2-1.507Z" transform="translate(-423.475 -543.408)" fill="#1a1818"/>
      </g>
    </g>
  </g>
</svg>
