<svg xmlns="http://www.w3.org/2000/svg" width="42.306" height="33.845" viewBox="0 0 42.306 33.845">
  <g id="learning_center" data-name="learning center" transform="translate(-65 -531.155)">
    <path id="Path_9132" data-name="Path 9132" d="M47.306,24.341V16.82A2.829,2.829,0,0,0,44.486,14H29.443a2.829,2.829,0,0,0-2.82,2.82v2.82H10.641a2.829,2.829,0,0,0-2.82,2.82v18.8H5.94A.943.943,0,0,0,5,42.2a5.657,5.657,0,0,0,5.641,5.641H41.665A5.657,5.657,0,0,0,47.306,42.2a.943.943,0,0,0-.94-.94h-1.88v-14.1A2.829,2.829,0,0,0,47.306,24.341ZM9.7,22.461a.943.943,0,0,1,.94-.94H26.623v2.82a2.829,2.829,0,0,0,2.82,2.82h1.88v2.82a.888.888,0,0,0,.517.846,1.373,1.373,0,0,0,.423.094,1.008,1.008,0,0,0,.564-.188l4.466-3.572h5.312v14.1H25.683V37.5a6.57,6.57,0,0,0-3.667-5.876,4.227,4.227,0,1,0-7.145-3.055,4.345,4.345,0,0,0,1.316,3.055A6.57,6.57,0,0,0,12.521,37.5v3.761H9.7ZM19.1,32.8a4.714,4.714,0,0,1,4.7,4.7v3.761H14.4V37.5A4.714,4.714,0,0,1,19.1,32.8Zm-2.35-4.231a2.35,2.35,0,1,1,2.35,2.35A2.327,2.327,0,0,1,16.752,28.572Zm28.58,14.572a3.74,3.74,0,0,1-3.667,2.82H10.641a3.781,3.781,0,0,1-3.667-2.82ZM36.964,25.282a.749.749,0,0,0-.564.188l-3.2,2.538V26.222a.943.943,0,0,0-.94-.94h-2.82a.943.943,0,0,1-.94-.94V16.82a.943.943,0,0,1,.94-.94H44.486a.943.943,0,0,1,.94.94v7.521a.943.943,0,0,1-.94.94Zm-3.761-4.7a.94.94,0,1,1-.94-.94A.943.943,0,0,1,33.2,20.581Zm4.7,0a.94.94,0,1,1-.94-.94A.943.943,0,0,1,37.9,20.581Zm4.7,0a.94.94,0,1,1-.94-.94A.943.943,0,0,1,42.605,20.581Z" transform="translate(60 517.155)"/>
    <path id="Path_9133" data-name="Path 9133" d="M38.461,25.4a.749.749,0,0,0-.564.188l-3.2,2.538V26.341a.943.943,0,0,0-.94-.94H30.94a.943.943,0,0,1-.94-.94V16.94a.943.943,0,0,1,.94-.94H45.982a.943.943,0,0,1,.94.94v7.521a.943.943,0,0,1-.94.94ZM34.7,20.7a.94.94,0,1,1-.94-.94A.943.943,0,0,1,34.7,20.7Zm4.7,0a.94.94,0,1,1-.94-.94A.943.943,0,0,1,39.4,20.7Zm4.7,0a.94.94,0,1,1-.94-.94A.943.943,0,0,1,44.1,20.7Z" transform="translate(58.503 517.035)" fill="none" stroke="#6bc100" stroke-width="1"/>
  </g>
</svg>
