<svg xmlns="http://www.w3.org/2000/svg" width="21.022" height="20.56" viewBox="0 0 21.022 20.56">
  <g id="Group_267" data-name="Group 267" transform="translate(-14.582 -30.972)">
    <path id="Path_954" data-name="Path 954" d="M33.075,31.923c-3.132,2.948-6.281,5.893-9.3,8.96-2.464,2.506-4.306,5.785-6.936,8.064-1.218,1.056.557,2.818,1.768,1.768,2.662-2.308,4.455-5.541,6.936-8.064,3.016-3.067,6.166-6.012,9.3-8.96,1.174-1.1-.6-2.87-1.768-1.768Z"/>
    <path id="Path_955" data-name="Path 955" d="M15.476,33.42c2.38.562,3.386,2.944,4.882,4.6,1.378,1.52,3.334,2.472,4.566,4.064a83.255,83.255,0,0,0,8.531,9.1c1.162,1.114,2.932-.652,1.768-1.768-2.009-1.927-4.252-3.77-6.1-5.85-1.4-1.577-2.184-3.255-3.794-4.647a51.531,51.531,0,0,1-5.215-5.223A7,7,0,0,0,16.14,31.01c-1.564-.368-2.232,2.041-.664,2.41Z"/>
  </g>
</svg>
