<svg xmlns="http://www.w3.org/2000/svg" width="78.717" height="78.717" viewBox="0 0 78.717 78.717">
  <g id="observation-blue" transform="translate(-27.628 -140.094)">
    <rect id="Material_-_Vibrant_Primary_Text_-_Dark" data-name="Material - Vibrant Primary Text - Dark" width="78.717" height="78.717" rx="5" transform="translate(27.628 140.094)" fill="rgba(255,255,255,0.96)"/>
    <g id="Group_621" data-name="Group 621" transform="translate(44.883 162.999)">
      <path id="Path_1141" data-name="Path 1141" d="M388.281,408.76a9.446,9.446,0,0,0-7.782-2.108l-9.506,1.59c-.441.073-1.379.32-1.9-.108l-3.028-2.428a2.148,2.148,0,1,0-2.689,3.35l1.846,1.483a1.423,1.423,0,0,1,.326,1.817L359.9,424.547a3.492,3.492,0,1,0,6.336,2.936s3.055-6.62,3.233-6.978a1.03,1.03,0,0,1,1.186-.545c.534.094,10.493,1.828,13.538,2.36a1.018,1.018,0,0,1,.879,1.117v2.577a3.492,3.492,0,0,0,6.984,0v-8.586A11.245,11.245,0,0,0,388.281,408.76Z" transform="translate(-359.573 -396.602)" fill="#5b629f"/>
      <path id="Path_1142" data-name="Path 1142" d="M402.1,404.251c-.5-.183-2.392-.873-4.2-1.536l-3.653-1.336a1.151,1.151,0,0,1-.552-.52l-.605-1.289c-.235-.5-.683-1.453-.995-2.118s-.814-.7-1.112-.07l-2.53,5.339a6.135,6.135,0,0,0-.57,2.1,3.24,3.24,0,0,0-.075.643,4.819,4.819,0,0,0,4.82,4.818c.043,0,.083,0,.125-.005a.17.17,0,0,0,.034.005h6.035a2.341,2.341,0,0,0,2-1.009l.856-1.836c.211-.454.6-1.281.858-1.839A.956.956,0,0,0,402.1,404.251Z" transform="translate(-358.452 -396.931)" fill="#3fd68e"/>
    </g>
  </g>
</svg>
