<svg xmlns="http://www.w3.org/2000/svg" width="2545" height="2545" viewBox="0 0 2545 2545">
  <g id="Group_13890" data-name="Group 13890" transform="translate(0 0.165)">
    <rect id="Rectangle_85376" data-name="Rectangle 85376" width="2545" height="2545" rx="76.8" transform="translate(0 -0.165)" fill="#c80a0a"/>
    <path id="Path_12668" data-name="Path 12668" d="M1680.99,1111.958c-44.733-49.7-144.141-74.556-278.341-74.556-79.526,0-164.023,9.941-263.43,24.852A1252.538,1252.538,0,0,1,880.759,719.3c49.7-149.112,84.5-293.253,84.5-402.6,0-84.5-29.822-218.7-149.111-218.7-34.793,0-64.615,19.882-84.5,49.7-49.7,89.467-29.822,288.282,64.615,497.038a4463.437,4463.437,0,0,1-248.519,581.534c-263.43,109.348-437.394,228.637-452.3,323.075C85.5,1594.084,115.32,1668.64,219.7,1668.64c154.082,0,323.075-223.667,452.3-452.3a3111.468,3111.468,0,0,1,457.275-119.289c188.874,164.022,352.9,188.874,432.423,188.874C1720.753,1285.921,1735.664,1171.6,1680.99,1111.958ZM756.5,162.615c39.763-59.645,129.23-39.763,129.23,79.526,0,79.526-24.852,208.756-74.556,357.867C721.706,391.252,721.706,227.23,756.5,162.615ZM125.261,1554.321c14.911-79.526,164.023-188.875,397.63-283.312-129.23,218.7-258.46,357.867-337.986,357.867C135.2,1628.877,120.291,1584.144,125.261,1554.321Zm979.165-487.1a2852.979,2852.979,0,0,0-412.541,109.348A2251.592,2251.592,0,0,0,870.818,759.06a1625.31,1625.31,0,0,0,233.608,308.164Zm64.615,19.881c159.052-24.852,293.252-19.881,352.9-9.941,144.141,29.822,94.437,203.786-64.615,164.022C1343,1216.335,1248.567,1151.72,1169.041,1087.105Z" transform="translate(371.777 389.097)" fill="#fff"/>
  </g>
</svg>
