<svg xmlns="http://www.w3.org/2000/svg" width="18" height="18" viewBox="0 0 18 18">
  <g id="Group_13879" data-name="Group 13879" transform="translate(-182 -109)">
    <path id="Rectangle_85359" data-name="Rectangle 85359" d="M0,0H12a6,6,0,0,1,6,6V18a0,0,0,0,1,0,0H6a6,6,0,0,1-6-6V0A0,0,0,0,1,0,0Z" transform="translate(182 109)" fill="#6bc100"/>
    <g id="Layer_2" data-name="Layer 2" transform="translate(183.68 109.808)">
      <g id="edit">
        <rect id="Rectangle_85304" data-name="Rectangle 85304" width="15" height="15" transform="translate(0.32 0.192)" fill="#fff" opacity="0"/>
        <path id="Path_11126" data-name="Path 11126" d="M13.86,6.159,12.105,4.4a1.281,1.281,0,0,0-1.7-.045L4.639,10.123a1.281,1.281,0,0,0-.365.775L4,13.568a.639.639,0,0,0,.64.7H4.7l2.67-.243a1.281,1.281,0,0,0,.775-.365L13.9,7.895a1.229,1.229,0,0,0-.045-1.735ZM11.682,8.3,9.966,6.582,11.215,5.3,12.963,7.05Z" transform="translate(-1.437 -1.459)" fill="#fff"/>
      </g>
    </g>
  </g>
</svg>
