<svg xmlns="http://www.w3.org/2000/svg" width="42.31" height="42.302" viewBox="0 0 42.31 42.302">
  <g id="phone" transform="translate(-68.844 -735.85)">
    <g id="Layer_3" data-name="Layer 3" transform="translate(65.854 732.85)">
      <path id="Path_9136" data-name="Path 9136" d="M52.663,24.013a.729.729,0,0,1-.729-.729A18.585,18.585,0,0,0,33.619,4.459a.729.729,0,0,1,0-1.459c10.9,0,19.773,9.1,19.773,20.3A.729.729,0,0,1,52.663,24.013Z" transform="translate(-8.092)" fill="#6bc100"/>
      <path id="Path_9137" data-name="Path 9137" d="M36.621,25.012a.729.729,0,0,1-.729-.729A10.547,10.547,0,0,0,25.527,13.6a.729.729,0,0,1,0-1.459A11.983,11.983,0,0,1,37.343,24.268a.729.729,0,0,1-.722.744Zm4.3,15.331a14.536,14.536,0,0,1-3.873,4.814,5.288,5.288,0,0,1-4.15,1.072C26.286,45.106,19.773,42.2,13.274,35.814A37.749,37.749,0,0,1,3.063,15.566a5.645,5.645,0,0,1,1.043-4.274A14.23,14.23,0,0,1,8.832,7.281a1.9,1.9,0,0,1,2.757,0l6.426,6.674a2.268,2.268,0,0,1,0,3.093l-4.551,4.938c1.933,4.238,9.073,11.59,13.172,13.573l4.807-4.69a2.122,2.122,0,0,1,3,0l6.491,6.564a2.05,2.05,0,0,1-.015,2.91Z" transform="translate(0 -0.999)"/>
    </g>
    <g id="Layer_3-2" data-name="Layer 3" transform="translate(65.854 732.85)">
      <path id="Path_9136-2" data-name="Path 9136" d="M52.663,24.013a.729.729,0,0,1-.729-.729A18.585,18.585,0,0,0,33.619,4.459a.729.729,0,0,1,0-1.459c10.9,0,19.773,9.1,19.773,20.3A.729.729,0,0,1,52.663,24.013Z" transform="translate(-8.092)" fill="#6bc100"/>
      <path id="Path_9137-2" data-name="Path 9137" d="M36.621,25.012a.729.729,0,0,1-.729-.729A10.547,10.547,0,0,0,25.527,13.6a.729.729,0,0,1,0-1.459A11.983,11.983,0,0,1,37.343,24.268,1.346,1.346,0,0,1,36.621,25.012Z" transform="translate(0 -0.999)" fill="#6bc100"/>
    </g>
  </g>
</svg>
