<svg xmlns="http://www.w3.org/2000/svg" width="46.854" height="42.302" viewBox="0 0 46.854 42.302">
  <g id="Group_13270" data-name="Group 13270" transform="translate(-9 -33)">
    <path id="Path_11131" data-name="Path 11131" d="M50.913,33h-30.3a4.75,4.75,0,0,0-4.769,4.715l-.2,26.679H9.739a.769.769,0,0,0-.739.79v3.671a6.433,6.433,0,0,0,6.07,6.4V75.3H40.584v-.05c.19.008.3.05.435.05h.018a6.413,6.413,0,0,0,6.376-6.447V45.52h7.7a.777.777,0,0,0,.739-.8V37.985A4.976,4.976,0,0,0,50.913,33ZM15.4,73.784H15.4a4.917,4.917,0,0,1-4.879-4.93V65.912H34.609v2.93A6.424,6.424,0,0,0,36.483,73.4a2.714,2.714,0,0,1,.4.385ZM45.9,68.854a4.9,4.9,0,0,1-4.859,4.93H41.02a4.93,4.93,0,0,1-4.894-4.942V65.184a.786.786,0,0,0-.759-.79h-18.2l.2-26.673a3.232,3.232,0,0,1,3.251-3.2H47.331A5.178,5.178,0,0,0,45.9,38.005ZM54.337,38v6H47.413V38a3.514,3.514,0,0,1,3.478-3.486h.021a3.459,3.459,0,0,1,3.425,3.475Z"/>
    <path id="Path_11132" data-name="Path 11132" d="M174.354,100.17l3.912,2.675a.747.747,0,0,0,.848,0l3.9-2.674a5.893,5.893,0,0,0,2.356-4.5V90.264a.741.741,0,0,0-.4-.681l-5.956-2.93a.748.748,0,0,0-.663,0L172.4,89.575a.74.74,0,0,0-.4.681v5.42A5.894,5.894,0,0,0,174.354,100.17Zm-.84-9.441,5.169-2.551,5.169,2.558v4.939a4.373,4.373,0,0,1-1.694,3.241l-3.484,2.383-3.47-2.382a4.371,4.371,0,0,1-1.69-3.241Z" transform="translate(-147.537 -48.494)" fill="#6bc100"/>
    <path id="Path_11133" data-name="Path 11133" d="M150.249,153.442a.759.759,0,0,0,.537.228h0a.762.762,0,0,0,.537-.225l3.018-3.02a.759.759,0,0,0-1.073-1.074l-2.479,2.479-.991-1a.759.759,0,1,0-1.078,1.069Zm10.721,8.195H142.759a.759.759,0,1,0,0,1.518h18.211a.759.759,0,1,0,0-1.518Zm0,3.509H142.759a.759.759,0,1,0,0,1.518h18.211a.759.759,0,1,0,0-1.518Z" transform="translate(-120.385 -105.114)" fill="#6bc100"/>
  </g>
</svg>
