<svg xmlns="http://www.w3.org/2000/svg" width="19.622" height="11.446" viewBox="0 0 19.622 11.446">
  <g id="Group_43" data-name="Group 43" transform="translate(-64 -144)">
    <path id="Path_86" data-name="Path 86" d="M83.576,149.733C81.261,147.066,78.063,144,73.811,144a9.052,9.052,0,0,0-4.952,1.523,26.437,26.437,0,0,0-4.808,4.149l-.051.051.342.353c2.816,2.882,5.248,5.371,9.469,5.371a9.734,9.734,0,0,0,5.529-1.86,27.037,27.037,0,0,0,4-3.516l.281-.281Zm-9.765,4.078a4.088,4.088,0,1,1,4.088-4.088A4.093,4.093,0,0,1,73.811,153.811Z" transform="translate(0 0)"/>
    <circle id="Ellipse_1" data-name="Ellipse 1" cx="3.175" cy="3.175" r="3.175" transform="translate(70.637 146.55)"/>
  </g>
</svg>
