<svg xmlns="http://www.w3.org/2000/svg" width="28.811" height="28.713" viewBox="0 0 28.811 28.713">
  <g id="dog" transform="translate(-181.5 -216.847)">
    <path id="Path_9704" data-name="Path 9704" d="M226.8,248v.711a6.293,6.293,0,0,1-.789,3.05L225,253.582v6.105h.9a1.8,1.8,0,0,1,1.8,1.8v.45H225" transform="translate(-23.672 -16.875)" fill="none" stroke="#5c6d80" stroke-linecap="round" stroke-linejoin="round" stroke-width="1"/>
    <path id="Path_9705" data-name="Path 9705" d="M209.53,225.731H212.8a1.8,1.8,0,0,0,1.732-1.315l.777-2.783a.18.18,0,0,0-.14-.228c-.72-.132-3.224-.628-3.8-1.263a4.434,4.434,0,0,1-.637-1.62,1.194,1.194,0,0,0-.99-.905,21.141,21.141,0,0,0-2.765-.27,5.3,5.3,0,0,0-5.19,4.791,11.617,11.617,0,0,1-4.392,7.985c-2.176,1.824-5.394,3.7-5.394,9.992v1.348" transform="translate(-5.505)" fill="none" stroke="#5c6d80" stroke-linecap="round" stroke-linejoin="round" stroke-width="1"/>
    <path id="Path_9706" data-name="Path 9706" d="M221.7,224c0,4.045,2.7,4.045,2.7,6.293a2.591,2.591,0,0,1-2.7,2.7h0a2.7,2.7,0,0,1-2.7-2.7V225.8" transform="translate(-20.369 -3.662)" fill="none" stroke="#5c6d80" stroke-linecap="round" stroke-linejoin="round" stroke-width="1"/>
    <path id="Path_9707" data-name="Path 9707" d="M191.889,247.229h1.517a3.146,3.146,0,0,1,2.781,4.619l-1.6,3.023h2.7a1.8,1.8,0,0,1,1.8,1.8v.45H188.742c-2.247,0-7.623-2.018-4.045-9.889,2.247-4.944-2.7-7.641-2.7-7.641s4.045-1.348,5.394,1.348" transform="translate(0 -12.058)" fill="none" stroke="#5c6d80" stroke-linecap="round" stroke-linejoin="round" stroke-width="1"/>
  </g>
</svg>
