<svg xmlns="http://www.w3.org/2000/svg" xmlns:xlink="http://www.w3.org/1999/xlink" width="391" height="286" viewBox="0 0 391 286">
  <defs>
    <clipPath id="clip-path">
      <rect id="Rectangle_85288" data-name="Rectangle 85288" width="391" height="286" transform="translate(-18723 -10502)" fill="#fff"/>
    </clipPath>
    <linearGradient id="linear-gradient" x1="-0.009" y1="-0.009" x2="1.023" y2="1.023" gradientUnits="objectBoundingBox">
      <stop offset="0" stop-color="#ebfffa"/>
      <stop offset="1" stop-color="#bef1f5"/>
    </linearGradient>
    <linearGradient id="linear-gradient-2" x1="0.5" x2="0.5" y2="1" gradientUnits="objectBoundingBox">
      <stop offset="0" stop-color="#9aff9e"/>
      <stop offset="1" stop-color="#c4fac6"/>
    </linearGradient>
    <linearGradient id="linear-gradient-7" x1="0.5" x2="0.5" y2="1" gradientUnits="objectBoundingBox">
      <stop offset="0" stop-color="#6bc105"/>
      <stop offset="1" stop-color="#2c9954"/>
    </linearGradient>
  </defs>
  <g id="Mask_Group_1320" data-name="Mask Group 1320" transform="translate(18723 10502)" clip-path="url(#clip-path)">
    <g id="Group_13200" data-name="Group 13200" transform="translate(-885 -12755)">
      <g id="Background" transform="translate(-17992 2146)">
        <rect id="Rectangle_85285" data-name="Rectangle 85285" width="686" height="686" fill="url(#linear-gradient)"/>
        <ellipse id="Ellipse_541" data-name="Ellipse 541" cx="137.098" cy="25.722" rx="137.098" ry="25.722" transform="translate(179.479 528.982)" opacity="0.3"/>
      </g>
      <g id="Object" transform="translate(-17758.811 2279.473)">
        <g id="Group_13199" data-name="Group 13199" transform="translate(0 0)">
          <g id="Group_13176" data-name="Group 13176" transform="translate(147.295 263.295)">
            <path id="Path_10805" data-name="Path 10805" d="M1100.624,1166.559a38.2,38.2,0,1,0,20.441,50.011A37.953,37.953,0,0,0,1100.624,1166.559Z" transform="translate(-1044.395 -1160.319)" fill="url(#linear-gradient-2)"/>
            <path id="Path_10806" data-name="Path 10806" d="M1119.118,1209.692a38.186,38.186,0,0,1-67.053,33.581,38.192,38.192,0,1,0,67.053-33.581Z" transform="translate(-1047.388 -1191.498)" fill="#fff"/>
            <g id="Group_13173" data-name="Group 13173" transform="translate(4.677 18.194)" opacity="0.3">
              <path id="Path_10807" data-name="Path 10807" d="M1259.95,1211.063c-.323-.463-.653-.922-1-1.371a38.314,38.314,0,0,1,1.393,8.748A38.1,38.1,0,0,0,1259.95,1211.063Z" transform="translate(-1191.9 -1209.692)"/>
              <path id="Path_10808" data-name="Path 10808" d="M1124.058,1289.69a38.18,38.18,0,0,1-69.842,1.328q-1.134-1.238-2.152-2.563A38.19,38.19,0,0,0,1127,1276.538,38.009,38.009,0,0,1,1124.058,1289.69Z" transform="translate(-1052.065 -1254.873)"/>
            </g>
            <path id="Path_10809" data-name="Path 10809" d="M1095.118,1156.808a41.444,41.444,0,1,0,22.175,54.253A41.173,41.173,0,0,0,1095.118,1156.808Zm19.187,53a38.2,38.2,0,1,1-20.441-50.011A38.246,38.246,0,0,1,1114.305,1209.808Z" transform="translate(-1037.635 -1153.556)"/>
            <g id="Group_13174" data-name="Group 13174" transform="translate(3.241 3.243)">
              <path id="Path_10810" data-name="Path 10810" d="M1053.854,1190.241a38.21,38.21,0,0,1,60.534-13.836,38.2,38.2,0,1,0-53.858,54A38.251,38.251,0,0,1,1053.854,1190.241Z" transform="translate(-1047.636 -1163.561)" fill="#fff" opacity="0.7"/>
              <path id="Path_10811" data-name="Path 10811" d="M1141.906,1204.791s18.948,26.777-6.958,37.462v3.889s22.941-1.811,22.241-20.675S1141.906,1204.791,1141.906,1204.791Z" transform="translate(-1106.65 -1191.428)" fill="#fff" opacity="0.7"/>
            </g>
            <path id="Path_10812" data-name="Path 10812" d="M1141.06,1297.1s21.585-1.019,21.164-25.547c0,0-5.85,20.766-21.812,19.551Z" transform="translate(-1107.102 -1233.311)" opacity="0.3"/>
            <g id="Group_13175" data-name="Group 13175" transform="translate(7.833 13.479)">
              <path id="Path_10813" data-name="Path 10813" d="M1085.579,1241.127a23.208,23.208,0,0,1-15.559-6.063,24.954,24.954,0,0,1-8.021-15.048c-1.231-9.382,3.453-18.895,11.931-24.235a1.62,1.62,0,0,1,1.727,2.742c-7.412,4.668-11.511,12.939-10.445,21.071,1.173,8.949,9.237,18.291,20.35,18.292.292,0,.585-.006.881-.02a20.775,20.775,0,0,0,19.517-19.554,20.993,20.993,0,0,0-13.493-20.041,1.621,1.621,0,0,1,1.2-3.01,24.238,24.238,0,0,1,15.529,23.177,23.891,23.891,0,0,1-22.613,22.666Q1086.082,1241.127,1085.579,1241.127Z" transform="translate(-1061.804 -1195.146)"/>
            </g>
          </g>
          <path id="Path_10815" data-name="Path 10815" d="M921.928,978.453" transform="translate(-812.134 -771.909)" fill="none" stroke="#000" stroke-linecap="round" stroke-linejoin="round" stroke-width="10"/>
          <path id="Path_10816" data-name="Path 10816" d="M921.928,978.453" transform="translate(-812.134 -771.909)" fill="none" stroke="#000" stroke-linecap="round" stroke-linejoin="round" stroke-width="10"/>
          <g id="Group_13192" data-name="Group 13192" transform="translate(9.644 109.796)">
            <path id="Path_10817" data-name="Path 10817" d="M641.738,1346.134l.007.006a18.914,18.914,0,0,1-4.784-2.914,17.252,17.252,0,0,1-6.213-12.967c-.22-8.365,4.9-19.086,12.909-22.013.217-.075.347-.12.373-.126C643.8,1308.324,622.807,1327.355,641.738,1346.134Z" transform="translate(-624.965 -1104.527)" fill="#fff" opacity="0.7"/>
            <g id="Group_13191" data-name="Group 13191">
              <g id="Group_13178" data-name="Group 13178" transform="translate(3.242 3.243)">
                <path id="Path_10818" data-name="Path 10818" d="M1374.422,757.261l-1.669,10.6a4.735,4.735,0,0,1-9.354-1.475l1.669-10.6a4.745,4.745,0,0,1,4.677-4,4.8,4.8,0,0,1,.739.058,4.727,4.727,0,0,1,3.938,5.413Z" transform="translate(-1123.37 -731.747)" fill="url(#linear-gradient-2)"/>
                <path id="Path_10819" data-name="Path 10819" d="M1340.38,696.3l-2.489,15.777c-2.5-2.356-6.193-2.528-8.948-2.314l2.084-14.938a6.123,6.123,0,0,1,2.074-3.785,4.2,4.2,0,0,1,6.472,1.021A6.139,6.139,0,0,1,1340.38,696.3Z" transform="translate(-1100.12 -689.948)" fill="url(#linear-gradient-2)"/>
                <path id="Path_10820" data-name="Path 10820" d="M885.586,744.215a1.658,1.658,0,0,0-.016.334,1.6,1.6,0,0,0-.055.972c.029.11,2.713,10.88-2.6,19.135-3.034,4.716-8.138,7.74-15.174,8.99a1.622,1.622,0,0,0,.282,3.218,1.725,1.725,0,0,0,.285-.026c.35-.065.69-.136,1.034-.2q-.676,2.265-1.429,4.443c-10.251,29.727-30.436,47.5-46.136,57.356a124.333,124.333,0,0,1-33.152,14.646c-.82.217-1.387.347-1.656.408l-.6-5.643-.755-7.117-.344-3.254a1.62,1.62,0,1,0-3.222.34l15.768,149.145.088.823a28.871,28.871,0,0,0-3,1.676,33.5,33.5,0,0,0-4.884,3.789,1.621,1.621,0,0,0,2.207,2.376,28.337,28.337,0,0,1,7.892-5.3,1.479,1.479,0,0,0,.207-.088c.191-.081.386-.159.577-.233,4.255-1.672,8.443-1.8,11.869-.256a11.308,11.308,0,0,1,2.917,1.883,16.89,16.89,0,0,1,5.2,10.961c.671,8.171-4.67,13.719-5.746,14.747a14.134,14.134,0,0,1-2.278,1.776c-3.889,2.44-8.083,2.411-10.77,2.392-10.164-.075-21.679-.159-34.248-.4a10.043,10.043,0,0,1-9.169-6.408q-1.3-3.32-2.457-6.706a164.991,164.991,0,0,1-8.819-48.343c.956-.075,1.912-.13,2.865-.159a1.623,1.623,0,0,0,1.364-.83,1.6,1.6,0,0,0,.207-.839,1.631,1.631,0,0,0-1.672-1.572,123.856,123.856,0,0,0-13.35,1.4,110.476,110.476,0,0,1-15.382,1.452h0a109.69,109.69,0,0,1-15.327-1.452c-2.531-.36-5.111-.726-7.691-1-1.88-.2-3.76-.347-5.623-.405h-.052a1.619,1.619,0,0,0-1.617,1.572,1.6,1.6,0,0,0,.11.635,1.62,1.62,0,0,0,1.458,1.034c1.254.039,2.509.123,3.769.233q-.073,2.28-.211,4.56a164.691,164.691,0,0,1-8.472,43.316q-1.215,3.583-2.59,7.1a10.043,10.043,0,0,1-9.169,6.408c-12.569.243-24.087.327-34.248.4-2.975.019-7.808.055-12.018-3.273a13.637,13.637,0,0,1-1.031-.894c-1.076-1.027-6.42-6.576-5.746-14.747a17.493,17.493,0,0,1,2.92-8.32,14.287,14.287,0,0,1,2.279-2.642c3.912-3.471,9.6-3.841,15.356-1.4a1.247,1.247,0,0,0,.214.091,28.338,28.338,0,0,1,7.892,5.3,1.621,1.621,0,0,0,2.207-2.376,33.386,33.386,0,0,0-4.7-3.669,29.108,29.108,0,0,0-3.189-1.8l.087-.82,9.156-86.626,6.612-62.522a1.62,1.62,0,1,0-3.222-.34l-4.609,43.6-2.009,19-5.341,50.508a21.058,21.058,0,0,1-5.215-.1,19.422,19.422,0,0,1-9.746-4.285,17.3,17.3,0,0,1-4.068-4.92,17.568,17.568,0,0,1-2.146-8.047,26.321,26.321,0,0,1,7.782-18.8,15.2,15.2,0,0,1,5.5-3.345,1.62,1.62,0,1,0-1.018-3.076,17.608,17.608,0,0,0-5.007,2.638,21.934,21.934,0,0,0-3.517,3.3q-.7-5.022-1.069-9.772c-2.6-32.725,5.584-55.859,13.476-70.045a88.63,88.63,0,0,1,18.279-23.225c1.121-.992,1.964-1.659,2.434-2.016l8.187.259,26.158.826,44.716,1.413c2.256.311,4.868.6,7.785.791a116.334,116.334,0,0,0,36.9-3.442,109.888,109.888,0,0,0,24.363-9.564,111.255,111.255,0,0,0,34.932-29.435c.357-.454.71-.907,1.06-1.368a9.824,9.824,0,0,0-1.348-13.418,11.366,11.366,0,0,1-2.139-2.431,13.134,13.134,0,0,1-1.925-5.989c-.314-2.544-.791-6.388,1.53-9.237,2.052-2.522,5.176-2.962,7.247-3.254,2.178-.308,7.276-1.031,9.273,1.87,1.471,2.142.839,5.348-.506,7.279a7.531,7.531,0,0,1-7.623,2.943,1.621,1.621,0,1,0-.6,3.186,10.94,10.94,0,0,0,9.35-2.538,7.985,7.985,0,0,0,6.7,7.211,7.794,7.794,0,0,0,1.248.1,7.986,7.986,0,0,0,7.872-6.732l1.232-7.8,2.343-14.85a4.735,4.735,0,0,1,9.354,1.478Z" transform="translate(-622.921 -710.738)" fill="url(#linear-gradient-2)"/>
              </g>
              <g id="Group_13179" data-name="Group 13179" transform="translate(3.243 13.212)">
                <path id="Path_10821" data-name="Path 10821" d="M657.262,1273.963l-1.377,13.019-3.727,35.249-.237,2.24A20.669,20.669,0,0,1,641.745,1323a18.914,18.914,0,0,1-4.784-2.914,17.252,17.252,0,0,1-6.213-12.967c-.22-8.365,4.9-19.086,12.909-22.013.217-.074.347-.12.373-.126l0,0a1.62,1.62,0,1,0-1.018-3.076,19.428,19.428,0,0,0-8.524,5.938q-.7-5.022-1.07-9.771a55.227,55.227,0,0,1,23.841-4.106Z" transform="translate(-628.207 -1094.602)" fill="#fff"/>
                <path id="Path_10822" data-name="Path 10822" d="M872.955,1072.583c0,40.811-22.95,57.69-51.257,57.69s-51.257-16.879-51.257-57.69c0-27.536,10.449-58.931,25.938-76.443l44.716,1.413c2.256.311,4.868.6,7.785.791C863.339,1016.2,872.955,1046.168,872.955,1072.583Z" transform="translate(-722.631 -906.872)" fill="#fff"/>
                <path id="Path_10823" data-name="Path 10823" d="M1339.85,744.215a1.649,1.649,0,0,0-.016.334,1.6,1.6,0,0,0-.055.972c.029.11,2.713,10.88-2.6,19.135-2.946,4.58-7.846,7.565-14.572,8.874a.614.614,0,0,1-.075.016c-.175.036-.35.068-.528.1a1.6,1.6,0,0,0-.8.392,1.621,1.621,0,0,0,1.083,2.826,1.726,1.726,0,0,0,.285-.026c.35-.065.69-.136,1.034-.2-.45,1.51-.93,2.991-1.429,4.443a54.727,54.727,0,0,1-14.718-5.869,55.32,55.32,0,0,1-7.833-5.471c.357-.454.71-.907,1.06-1.368a9.824,9.824,0,0,0-1.348-13.418c-.191-.162-.376-.334-.554-.506a11.758,11.758,0,0,1-1.585-1.925,13.134,13.134,0,0,1-1.925-5.989c-.314-2.544-.791-6.388,1.53-9.237,2.052-2.522,5.176-2.962,7.247-3.254,2.048-.288,6.68-.946,8.884,1.39a4.037,4.037,0,0,1,.389.48,5.459,5.459,0,0,1,.8,3.7v0a7.824,7.824,0,0,1-1.309,3.578,7.531,7.531,0,0,1-7.623,2.943,1.46,1.46,0,0,0-.2-.026,1.672,1.672,0,0,0-.425.032h0a1.62,1.62,0,0,0,.029,3.179,11.543,11.543,0,0,0,1.514.181,11.205,11.205,0,0,0,2.538-.156,10.682,10.682,0,0,0,5.3-2.564,7.985,7.985,0,0,0,6.7,7.211,7.793,7.793,0,0,0,1.248.1,7.97,7.97,0,0,0,5.5-2.214l.016-.016a7.887,7.887,0,0,0,2.353-4.5l1.232-7.8.917-5.824s.016-.1.049-.288l1.377-8.738a4.735,4.735,0,0,1,9.354,1.478Z" transform="translate(-1077.186 -720.708)" fill="#fff"/>
                <path id="Path_10824" data-name="Path 10824" d="M687.782,1562.867q-1.215,3.583-2.59,7.1a10.043,10.043,0,0,1-9.169,6.407c-12.569.243-24.087.327-34.248.4-3.222.023-8.618.062-13.048-4.168a20.024,20.024,0,0,1-5.247-9v0a17.125,17.125,0,0,1-.5-5.74,17.493,17.493,0,0,1,2.92-8.32,14.283,14.283,0,0,1,2.278-2.641c3.912-3.471,9.6-3.841,15.356-1.4a1.253,1.253,0,0,0,.214.091,28.384,28.384,0,0,1,7.879,5.286s.006.006.01.006l0,0a1.621,1.621,0,1,0,2.207-2.376,32.081,32.081,0,0,0-7.885-5.464l.087-.82C662.891,1542.138,678.506,1549.932,687.782,1562.867Z" transform="translate(-622.923 -1275.972)" fill="#fff"/>
              </g>
              <path id="Path_10825" data-name="Path 10825" d="M1097.775,1565.516a20.177,20.177,0,0,1-4.631,7.085c-4.43,4.229-9.827,4.191-13.048,4.168-10.164-.075-21.679-.159-34.248-.4a10.043,10.043,0,0,1-9.169-6.407q-1.3-3.32-2.457-6.706c9.172-13.061,24.748-21,41.6-21.034l.088.823a32.087,32.087,0,0,0-7.885,5.464,1.621,1.621,0,0,0,2.207,2.376l0,0a28.381,28.381,0,0,1,7.889-5.293,1.475,1.475,0,0,0,.207-.088c5.759-2.447,11.45-2.081,15.362,1.394a16.889,16.889,0,0,1,5.2,10.961A17.332,17.332,0,0,1,1097.775,1565.516Z" transform="translate(-897.677 -1262.755)" fill="#fff"/>
              <path id="Path_10826" data-name="Path 10826" d="M708.317,1156.6s-.353-42.777,7.994-75.616Z" transform="translate(-677.396 -951.009)" opacity="0.3"/>
              <path id="Path_10827" data-name="Path 10827" d="M651.629,1554.434c-.671-.3-23.284-10.319-28.148,12.721a17.126,17.126,0,0,1-.5-5.74,17.492,17.492,0,0,1,2.92-8.32,14.284,14.284,0,0,1,2.278-2.642c3.912-3.471,9.6-3.841,15.356-1.4a1.244,1.244,0,0,0,.214.091A28.386,28.386,0,0,1,651.629,1554.434Z" transform="translate(-619.681 -1266.316)" fill="#fff" opacity="0.7"/>
              <path id="Path_10828" data-name="Path 10828" d="M1172.874,1569.076c-2.266-25.163-27.186-14.785-27.542-14.636a28.384,28.384,0,0,1,7.889-5.293,1.489,1.489,0,0,0,.207-.087c5.759-2.447,11.45-2.081,15.362,1.394a16.889,16.889,0,0,1,5.2,10.961A17.33,17.33,0,0,1,1172.874,1569.076Z" transform="translate(-972.776 -1266.315)" fill="#fff"/>
              <path id="Path_10829" data-name="Path 10829" d="M1129.689,1231.185l.088.823a28.894,28.894,0,0,0-3,1.676l-12.854-151.644Z" transform="translate(-951.546 -951.72)" opacity="0.3"/>
              <g id="Group_13181" data-name="Group 13181" transform="translate(10.078 3.558)">
                <path id="Path_10830" data-name="Path 10830" d="M1377.051,754.768a4.732,4.732,0,0,0-1.723-1.454,4.781,4.781,0,0,1,.751.806,4.71,4.71,0,0,1,.846,3.523l-1.669,10.6a4.739,4.739,0,0,1-6.774,3.508,4.69,4.69,0,0,0,2.331,1.078,4.74,4.74,0,0,0,5.416-3.938l1.669-10.6A4.711,4.711,0,0,0,1377.051,754.768Z" transform="translate(-1133.68 -733.092)" opacity="0.3"/>
                <path id="Path_10831" data-name="Path 10831" d="M1394.744,816.4c-2.946,4.58-7.846,7.565-14.572,8.874,4.524-1.825,18.364-9,17.168-28.009C1397.369,797.38,1400.052,808.15,1394.744,816.4Z" transform="translate(-1141.582 -762.802)" opacity="0.3"/>
                <path id="Path_10832" data-name="Path 10832" d="M1355.834,806.255a7.809,7.809,0,0,1-4.6,4.212,7.519,7.519,0,0,1-5.874-.648c-1.851-1.052-1.868-2.222-3.97-3.889a12.685,12.685,0,0,0-4.306-2.206,10.682,10.682,0,0,0,5.3-2.564,7.985,7.985,0,0,0,6.7,7.211,9.586,9.586,0,0,0,1.248.1A8.69,8.69,0,0,0,1355.834,806.255Z" transform="translate(-1112.457 -765.431)" opacity="0.3"/>
                <path id="Path_10833" data-name="Path 10833" d="M1334.948,779.04a7.825,7.825,0,0,1-1.309,3.578,7.531,7.531,0,0,1-7.623,2.943,1.449,1.449,0,0,0-.2-.026C1327.4,785.379,1332.991,784.446,1334.948,779.04Z" transform="translate(-1104.84 -750.48)" opacity="0.3"/>
                <path id="Path_10834" data-name="Path 10834" d="M1343.874,696.955l-2.489,15.777c-2.022-1.906-4.819-2.382-7.273-2.382a6.663,6.663,0,0,1,4.9-.415,1.639,1.639,0,0,0,2.057-1.177c1.164-4.536,3.627-15.812-.037-17.822-.01-.006-.019-.01-.029-.016a4.526,4.526,0,0,1,2.061,1.8A6.139,6.139,0,0,1,1343.874,696.955Z" transform="translate(-1110.45 -690.92)" opacity="0.3"/>
                <g id="Group_13180" data-name="Group 13180" transform="translate(0 65.582)">
                  <path id="Path_10835" data-name="Path 10835" d="M833.7,1439.2a65.869,65.869,0,0,1,60.4.2,204.962,204.962,0,0,1-60.4-.2Z" transform="translate(-772.223 -1257.38)" opacity="0.3"/>
                  <path id="Path_10836" data-name="Path 10836" d="M674.944,1314.29l-3.727,35.249-.237,2.24c-.23-.01-.2-1.193-.817-3.011-1.491-4.4-4.408-5.578-6.968-8.644-3.442-4.126-5.374-10.65-3.565-15.936a13.444,13.444,0,0,1,4.022-5.762Z" transform="translate(-654.101 -1177.837)" opacity="0.3"/>
                  <path id="Path_10837" data-name="Path 10837" d="M863.171,992.32c-10.261,10.008-35.2,17.074-64.344,17.074-26.991,0-50.378-6.061-61.835-14.905,1.121-.992,1.964-1.659,2.434-2.016l8.187.259,26.158.826,44.716,1.413c2.256.311,4.868.6,7.785.791A116.333,116.333,0,0,0,863.171,992.32Z" transform="translate(-706.857 -960.218)" opacity="0.3"/>
                  <path id="Path_10838" data-name="Path 10838" d="M1208.647,893.27c-.45,1.51-.93,2.991-1.429,4.443-10.251,29.727-30.436,47.5-46.136,57.356a121.046,121.046,0,0,1-34.808,15.055l-1.351-12.76c5.121.075,60.241-.6,82.691-63.89C1207.963,893.409,1208.3,893.338,1208.647,893.27Z" transform="translate(-969.058 -893.27)" opacity="0.3"/>
                  <path id="Path_10839" data-name="Path 10839" d="M710.719,1455.547q-.073,2.28-.211,4.56a164.686,164.686,0,0,1-8.472,43.316q-1.215,3.583-2.59,7.1a10.043,10.043,0,0,1-9.169,6.407c-12.569.243-24.087.327-34.248.4-2.975.02-7.808.055-12.018-3.273,40.169,5.74,46.259-9.415,46.774-15.466s10.5-16.529,13.1-28.758c2.016-9.509,1.8-14.017,1.608-15.554a1.62,1.62,0,0,0,1.458,1.034C708.2,1455.353,709.458,1455.437,710.719,1455.547Z" transform="translate(-644.012 -1272.456)" opacity="0.3"/>
                  <path id="Path_10840" data-name="Path 10840" d="M1072.769,1515.135c-.1.078-.2.156-.295.23-3.889,2.44-8.083,2.411-10.77,2.392-10.164-.074-21.679-.159-34.248-.4a10.043,10.043,0,0,1-9.169-6.407q-1.3-3.321-2.457-6.706a165,165,0,0,1-8.819-48.343c.956-.075,1.912-.13,2.865-.159a1.623,1.623,0,0,0,1.365-.83c-.165,1.912-.185,6.495,1.656,15.32,2.593,12.416,12.578,23.057,13.1,29.2S1032.6,1520.965,1072.769,1515.135Z" transform="translate(-889.363 -1272.882)" opacity="0.3"/>
                </g>
              </g>
              <path id="Path_10842" data-name="Path 10842" d="M884.871,699.133a7.975,7.975,0,1,0-15.756-2.485l-.9,5.71a7.968,7.968,0,0,0-10.408-.811l1.815-11.507a9.377,9.377,0,0,0-1.269-6.476q-.123-.194-.255-.38a7.422,7.422,0,0,0-11.032-1.4,8.823,8.823,0,0,0-1.333,1.4,9.646,9.646,0,0,0-1.872,4.4l-2.207,15.829c-2.354.374-5.887,1.21-8.387,4.283-3.19,3.921-2.591,8.778-2.232,11.682a16.407,16.407,0,0,0,2.427,7.357,14.592,14.592,0,0,0,2.747,3.126,6.579,6.579,0,0,1,.879,8.989,108.191,108.191,0,0,1-34.948,29.915c-27.232,14.647-53.761,13.709-67.151,11.847a1.629,1.629,0,0,0-.172-.015L655.1,778.08a1.628,1.628,0,0,0-.98.291c-.484.338-11.964,8.49-22.01,26.465a112.833,112.833,0,0,0-12.338,34.841c-2.856,15.6-2.868,32.589-.042,50.5a30.036,30.036,0,0,0-4.269,15.586,20.458,20.458,0,0,0,7.372,15.367,23.038,23.038,0,0,0,14.82,5.254q.932,0,1.873-.071l-3.452,32.65c-6.251-2.055-12.385-1.233-16.81,2.7a20.02,20.02,0,0,0-6.278,13.119c-.792,9.639,5.477,16.149,6.741,17.357,4.98,4.756,10.887,5.067,14.49,5.067.288,0,.562,0,.819,0,10.171-.074,21.7-.157,34.288-.4a13.264,13.264,0,0,0,12.122-8.465,168.252,168.252,0,0,0,11.488-55.82c1.951.234,3.929.513,5.958.8a112.136,112.136,0,0,0,15.78,1.483h0a112.866,112.866,0,0,0,15.836-1.483c2.356-.334,4.643-.656,6.9-.908A168.223,168.223,0,0,0,748.9,988.33a13.264,13.264,0,0,0,12.121,8.465c12.588.245,24.117.329,34.288.4q.386,0,.819,0c3.6,0,9.509-.312,14.49-5.067,1.265-1.208,7.533-7.719,6.741-17.357a20.018,20.018,0,0,0-6.278-13.119c-4.426-3.929-10.559-4.751-16.81-2.7l-13.723-129.8c.045-.005.089,0,.134-.014.688-.143,17.068-3.631,35.95-15.458a117.451,117.451,0,0,0,28.6-24.954,110.812,110.812,0,0,0,20.993-40.611,22.765,22.765,0,0,0,12.654-9.271c5.638-8.765,3.506-19.542,3.075-21.419a1.655,1.655,0,0,0,.068-.271Zm-27.011,8.092a4.735,4.735,0,1,1,9.354,1.475l-1.671,10.6a4.735,4.735,0,0,1-9.354-1.475Zm-10.794-19.164a6.134,6.134,0,0,1,2.075-3.785,4.2,4.2,0,0,1,6.472,1.019,6.138,6.138,0,0,1,.808,4.241l-2.488,15.777c-2.5-2.356-6.2-2.527-8.948-2.314Zm34.6,10.567-2.844,18.033a161.012,161.012,0,0,1-.072,1.309c.028.108,2.713,10.88-2.6,19.133-3.033,4.716-8.139,7.741-15.176,8.991a1.621,1.621,0,1,0,.567,3.191c.351-.062.692-.134,1.035-.2-9.7,32.415-31.1,51.462-47.567,61.8a121.04,121.04,0,0,1-34.807,15.055l-1.693-16.015a1.621,1.621,0,0,0-3.224.341L791.15,960.232a32.1,32.1,0,0,0-7.887,5.465,1.621,1.621,0,1,0,2.208,2.373,28.363,28.363,0,0,1,7.893-5.295,1.634,1.634,0,0,0,.207-.086c5.76-2.446,11.448-2.081,15.362,1.394a16.891,16.891,0,0,1,5.2,10.96,17.491,17.491,0,0,1-1.511,8.621,14.683,14.683,0,0,0-3.051-9.965.81.81,0,1,0-1.247,1.036c.159.192,3.878,4.752,2.386,10.477a11.059,11.059,0,0,1-3.213,5.358,14.24,14.24,0,0,1-4.678,2.515,10.255,10.255,0,0,1-2.282.29.809.809,0,0,0-.668.367c-.119.017-.238.031-.356.045a11.279,11.279,0,0,0,4.371-7.181c.962-6.1-3.861-10.357-4.067-10.535a.81.81,0,0,0-1.06,1.225c.178.154,4.35,3.834,3.527,9.057a9.989,9.989,0,0,1-6.358,7.606l-.59,0c-10.162-.074-21.679-.157-34.248-.4a10.032,10.032,0,0,1-9.167-6.405A165.019,165.019,0,0,1,740.645,932.1c.957-.072,1.911-.128,2.866-.158a1.621,1.621,0,1,0-.1-3.24,123.672,123.672,0,0,0-13.352,1.4,110.454,110.454,0,0,1-15.382,1.451h0a109.7,109.7,0,0,1-15.324-1.451,122.826,122.826,0,0,0-13.316-1.4h-.051a1.621,1.621,0,0,0-.049,3.24c1.255.039,2.509.123,3.77.233a165.009,165.009,0,0,1-11.274,54.976,10.033,10.033,0,0,1-9.167,6.405c-12.569.245-24.087.328-34.248.4-.355,0-.738,0-1.142,0a9.988,9.988,0,0,1-6.355-7.6c-.823-5.223,3.349-8.9,3.527-9.057a.81.81,0,0,0-1.061-1.225c-.206.178-5.029,4.433-4.067,10.535a11.266,11.266,0,0,0,4.253,7.09l-.314-.051a.8.8,0,0,0-.591-.271c-.309,0-.616-.023-.92-.055a14.332,14.332,0,0,1-6.377-3.531,18.406,18.406,0,0,1-2.024-2.337,11.137,11.137,0,0,1-.852-2.241c-1.492-5.727,2.227-10.285,2.386-10.477a.81.81,0,1,0-1.246-1.036,14.948,14.948,0,0,0-3.1,8.436,17.262,17.262,0,0,1-.908-7.092,16.892,16.892,0,0,1,5.2-10.96c3.912-3.474,9.6-3.84,15.355-1.4a1.609,1.609,0,0,0,.215.089,28.372,28.372,0,0,1,7.892,5.295,1.621,1.621,0,0,0,2.208-2.373,32.078,32.078,0,0,0-7.886-5.465l15.856-149.969a1.621,1.621,0,1,0-3.223-.341l-11.958,113.1a20.029,20.029,0,0,1-14.961-4.382,17.259,17.259,0,0,1-6.212-12.967c-.226-8.5,5.059-19.423,13.285-22.143a1.62,1.62,0,0,0-1.018-3.077,19.444,19.444,0,0,0-8.524,5.937c-5.262-37.934,3.75-64.256,12.407-79.814,8.628-15.506,18.577-23.611,20.712-25.242l79.064,2.5c13.81,1.909,41.062,2.837,69.047-12.215a111.416,111.416,0,0,0,35.99-30.8,9.822,9.822,0,0,0-1.348-13.417,11.356,11.356,0,0,1-2.138-2.431,13.15,13.15,0,0,1-1.927-5.989c-.314-2.544-.789-6.387,1.53-9.237,2.051-2.522,5.177-2.963,7.247-3.256,2.177-.308,7.278-1.028,9.273,1.872,1.473,2.142.84,5.348-.5,7.277a7.536,7.536,0,0,1-7.625,2.944,1.62,1.62,0,1,0-.6,3.185,10.934,10.934,0,0,0,9.349-2.537,7.975,7.975,0,0,0,15.825.576l1.231-7.8,2.342-14.848a4.734,4.734,0,1,1,9.353,1.475Z" transform="translate(-612.918 -679.943)"/>
              <g id="Group_13184" data-name="Group 13184" transform="translate(7.965 3.243)">
                <g id="Group_13183" data-name="Group 13183">
                  <path id="Path_10843" data-name="Path 10843" d="M709.867,1082.04,697.2,1233.8a29.079,29.079,0,0,0-3.189-1.8l.088-.82,9.156-86.626Z" transform="translate(-675.694 -954.963)" fill="#fff" opacity="0.7"/>
                  <path id="Path_10844" data-name="Path 10844" d="M672.175,992.79l8.187.259q-1.332,2.1-2.667,4.2s-45.737,26.139-35.123,97.3a21.936,21.936,0,0,0-3.516,3.3q-.7-5.022-1.07-9.772c-2.6-32.724,5.584-55.859,13.476-70.045C660.089,1002.526,670.039,994.42,672.175,992.79Z" transform="translate(-637.493 -894.638)" fill="#fff" opacity="0.7"/>
                  <g id="Group_13182" data-name="Group 13182" transform="translate(224.1)" opacity="0.7">
                    <path id="Path_10845" data-name="Path 10845" d="M1330.617,709.694l2.03-14.547a6.123,6.123,0,0,1,2.074-3.786,4.459,4.459,0,0,1,2.819-1.083,4.028,4.028,0,0,0-.958-.281,4.349,4.349,0,0,0-3.481,1.04,6.123,6.123,0,0,0-2.074,3.785l-2.084,14.938C1329.471,709.72,1330.034,709.694,1330.617,709.694Z" transform="translate(-1328.942 -689.948)" fill="#fff"/>
                  </g>
                  <path id="Path_10846" data-name="Path 10846" d="M1365.02,767.036l1.669-10.6a4.745,4.745,0,0,1,4.677-4,4.793,4.793,0,0,1,.739.058c.065.01.127.027.192.04a4.705,4.705,0,0,0-1.812-.688,4.8,4.8,0,0,0-.739-.058,4.745,4.745,0,0,0-4.677,4l-1.669,10.6a4.732,4.732,0,0,0,3.749,5.373A4.735,4.735,0,0,1,1365.02,767.036Z" transform="translate(-1128.093 -731.747)" fill="#fff" opacity="0.7"/>
                  <path id="Path_10847" data-name="Path 10847" d="M1312.94,762.6c-20.4-3.974-16.176,13.991-14.938,18.159a10.653,10.653,0,0,1-.8-1.076,13.134,13.134,0,0,1-1.925-5.989c-.314-2.544-.791-6.388,1.53-9.237,2.052-2.521,5.176-2.962,7.247-3.254,2.048-.288,6.68-.946,8.884,1.39Z" transform="translate(-1081.908 -737.901)" fill="#fff" opacity="0.7"/>
                </g>
                <path id="Path_10848" data-name="Path 10848" d="M1418.637,722.466c-6.975-3.423-9.506,8.734-9.882,10.783l1.377-8.738a4.733,4.733,0,0,1,8.5-2.045Z" transform="translate(-1158.788 -710.608)" fill="#fff" opacity="0.7"/>
              </g>
            </g>
          </g>
          <g id="Group_13197" data-name="Group 13197" transform="translate(0 56.217)">
            <path id="Path_10866" data-name="Path 10866" d="M801.087,642.913a18.508,18.508,0,0,0,10.6-9.973,23.044,23.044,0,0,1-17.871.389,1.621,1.621,0,0,1,.032-3.011,18.8,18.8,0,0,0,7.529-5.348c-4.492-.619-9.013-1.867-11.81-5.425-.172-.217-.334-.444-.493-.677-1.659-2.476-2.1-5.341-2.525-8.112l-.084-.538a95.641,95.641,0,0,0-8.258-26.823.919.919,0,0,1-.036-.1,1.174,1.174,0,0,1-.065-.178c-.013-.049-.019-.1-.029-.149a1.261,1.261,0,0,1-.023-.159,1.3,1.3,0,0,1,0-.159,1.252,1.252,0,0,1,.006-.156c.006-.049.019-.1.029-.149s.023-.1.039-.156a1.389,1.389,0,0,1,.062-.146,1.308,1.308,0,0,1,.065-.139,1.614,1.614,0,0,1,.1-.156c.023-.029.039-.062.062-.091l.133-.159c15.058-17.459,14.341-48.959,13.936-56.429-22.347,2.334-39.544,16.38-46,22.418-2.343,2.2-3.633,3.659-3.646,3.672a1.619,1.619,0,1,1-2.434-2.136c.039-.049.791-.9,2.188-2.285-11.062-5.263-23.983-7.931-38.455-7.931-.036,0-.071,0-.1,0a75.279,75.279,0,0,0-40.441,8.861l-.049.019c-.052.026-.107.045-.162.068s-.094.032-.143.045a1.153,1.153,0,0,1-.152.029,1.328,1.328,0,0,1-.159.023c-.049,0-.1,0-.149,0s-.107,0-.159-.01a1.332,1.332,0,0,1-.156-.032,1.228,1.228,0,0,1-.146-.039c-.049-.016-.1-.039-.146-.058s-.1-.042-.143-.068-.084-.055-.123-.084a1.454,1.454,0,0,1-.143-.1c-.013-.013-.029-.023-.042-.036C655.277,541.4,638.1,527.4,615.8,525.07c-.4,7.458-1.112,38.856,13.823,56.3l.01.006c.029.023.052.055.081.081a1.232,1.232,0,0,1,.13.13c.032.039.058.081.087.123s.062.088.088.133.045.1.068.146.042.094.058.143.023.1.036.149.023.1.029.156a1.138,1.138,0,0,1,.007.149.9.9,0,0,1,0,.162,1.431,1.431,0,0,1-.023.159c-.01.049-.016.1-.029.149a1.794,1.794,0,0,1-.062.172c-.016.036-.023.071-.039.107a91.113,91.113,0,0,0-8.171,26.777l-.084.583c-.376,2.638-.762,5.367-2.269,7.775a10.378,10.378,0,0,1-.648.92c-2.959,3.769-8.038,5.02-11.969,5.581a18.976,18.976,0,0,0,7.522,5.348,1.621,1.621,0,0,1,.026,3.011,23.11,23.11,0,0,1-17.874-.4,18.494,18.494,0,0,0,10.621,9.973,1.62,1.62,0,0,1,.275,2.936,12.6,12.6,0,0,1-6.469,1.65c12.364,13.184,28.832,23.458,47.941,29.863a153.044,153.044,0,0,0,27.38,6.339c22.321,3.115,55.878,4.174,88.982-8.466,16.7-6.378,31.042-15.913,41.77-27.73a11.674,11.674,0,0,1-6.326-1.676,1.62,1.62,0,0,1,.311-2.914ZM758.4,563.307c.01-.045.094-.451.3-1.151a35.172,35.172,0,0,1,1.825-4.722c2.846-6.1,8.679-14.821,20.3-21.679a1.621,1.621,0,1,1,1.65,2.791c-10.909,6.437-16.361,14.568-19.012,20.256-.246.528-.467,1.027-.658,1.491a19.538,19.538,0,0,1,1.906-.6,23.276,23.276,0,0,1,7.146-.681,1.618,1.618,0,0,1,1,2.758,27.842,27.842,0,0,0-3.2,3.98c-.246.386-.467.758-.655,1.115a15.75,15.75,0,0,1,2.437.143,14.856,14.856,0,0,1,3.26.833,1.619,1.619,0,0,1,.564,2.658,11.435,11.435,0,0,0-1.086,1.332,6.148,6.148,0,0,0-1.16,2.541,1.619,1.619,0,0,1-1.6,1.419c-.068,0-.136-.006-.2-.013a1.62,1.62,0,0,1-1.407-1.809,8.759,8.759,0,0,1,1.517-3.7c-.107-.019-.217-.036-.324-.049a11.97,11.97,0,0,0-4.006.1,1.619,1.619,0,0,1-1.993-1.838A12.376,12.376,0,0,1,766.946,564c.373-.58.768-1.134,1.157-1.64a18.38,18.38,0,0,0-2.57.476,13,13,0,0,0-4.573,2.1,1.619,1.619,0,0,1-2.557-1.624Zm-132.59-24.761a1.62,1.62,0,0,1,1.646-2.791c16.053,9.473,21,22.606,22.13,26.4.207.694.295,1.1.3,1.141a1.622,1.622,0,0,1-2.56,1.63,14.917,14.917,0,0,0-7.127-2.57,15.313,15.313,0,0,1,3.079,6.126,1.622,1.622,0,0,1-1.993,1.838,12.244,12.244,0,0,0-4.324-.055,9,9,0,0,1,1.51,3.7,1.62,1.62,0,0,1-1.407,1.809c-.068.006-.136.013-.2.013a1.622,1.622,0,0,1-1.608-1.419,8.458,8.458,0,0,0-2.246-3.873,1.621,1.621,0,0,1,.564-2.658,15.285,15.285,0,0,1,5.707-.976,24.822,24.822,0,0,0-3.863-5.095,1.62,1.62,0,0,1,1-2.758,22.806,22.806,0,0,1,9.055,1.28C643.36,555.15,638.042,545.764,625.813,538.546Z" transform="translate(-592.247 -521.685)" fill="url(#linear-gradient-2)"/>
            <g id="Group_13193" data-name="Group 13193" transform="translate(4.355 93.147)">
              <path id="Path_10867" data-name="Path 10867" d="M800.008,831.465a1.615,1.615,0,0,0,.768,1.556A11.672,11.672,0,0,0,807.1,834.7c-10.728,11.817-25.069,21.352-41.77,27.73-33.1,12.64-66.661,11.58-88.982,8.466a153.044,153.044,0,0,1-27.38-6.339c-19.109-6.4-35.577-16.678-47.941-29.863a12.6,12.6,0,0,0,6.469-1.65,1.62,1.62,0,0,0-.275-2.936,18.494,18.494,0,0,1-10.621-9.973,23.11,23.11,0,0,0,17.874.4,1.62,1.62,0,0,0-.026-3.011,18.977,18.977,0,0,1-7.522-5.348c3.931-.561,9.01-1.812,11.969-5.581,5.076,4.6,12.8,9.791,22.476,10.663,15.583,1.4,20.7-9.788,45.86-13.936a97.009,97.009,0,0,1,17.019-1.28h.13a97.008,97.008,0,0,1,17.018,1.28c25.163,4.148,30.278,15.336,45.86,13.936,9.574-.862,17.232-5.947,22.308-10.511,2.8,3.559,7.318,4.806,11.81,5.425a18.8,18.8,0,0,1-7.529,5.348,1.62,1.62,0,0,0-.032,3.011,23.044,23.044,0,0,0,17.871-.389,18.509,18.509,0,0,1-10.6,9.973A1.624,1.624,0,0,0,800.008,831.465Z" transform="translate(-596.602 -802.025)" fill="#fff"/>
            </g>
            <g id="Group_13194" data-name="Group 13194" transform="translate(150.92 3.385)" opacity="0.3">
              <path id="Path_10868" data-name="Path 10868" d="M1048.9,550.729c6.456-6.038,23.653-20.085,46-22.418.405,7.471,1.121,38.97-13.936,56.429l-.133.159c-.023.029-.039.062-.062.091a1.616,1.616,0,0,0-.1.156,1.35,1.35,0,0,0-.065.139,1.4,1.4,0,0,0-.061.146c-.016.052-.026.1-.039.156s-.023.1-.029.149a1.251,1.251,0,0,0-.006.156,1.326,1.326,0,0,0,0,.159,1.276,1.276,0,0,0,.023.159c.01.049.016.1.029.149a1.153,1.153,0,0,0,.065.178.878.878,0,0,0,.036.1,95.648,95.648,0,0,1,8.258,26.823l.084.538c.425,2.771.865,5.636,2.525,8.112.159.233.321.46.493.677,2.74,3.486,7.134,4.753,11.534,5.385a18.849,18.849,0,0,0,3.517-3.2c-4.492-.619-9.013-1.867-11.81-5.425-.172-.217-.334-.444-.493-.677-1.659-2.476-2.1-5.341-2.525-8.112l-.084-.538a95.641,95.641,0,0,0-8.258-26.823.959.959,0,0,1-.036-.1,1.194,1.194,0,0,1-.065-.178c-.013-.049-.019-.1-.029-.149a1.25,1.25,0,0,1-.023-.159,1.326,1.326,0,0,1,0-.159,1.252,1.252,0,0,1,.006-.156c.006-.049.019-.1.029-.149s.023-.1.039-.156a1.4,1.4,0,0,1,.062-.146,1.307,1.307,0,0,1,.065-.139,1.626,1.626,0,0,1,.1-.156c.023-.029.039-.062.062-.091l.133-.159c15.058-17.459,14.341-48.959,13.936-56.429-22.347,2.334-39.543,16.38-46,22.418-1.676,1.571-2.809,2.763-3.326,3.321Z" transform="translate(-1048.82 -525.07)"/>
              <path id="Path_10869" data-name="Path 10869" d="M1133.632,579.429a52.135,52.135,0,0,1,8.589-6.3,1.618,1.618,0,0,0,.763-1.687A49.512,49.512,0,0,0,1133.632,579.429Z" transform="translate(-1106.144 -556.415)"/>
            </g>
            <g id="Group_13195" data-name="Group 13195" transform="translate(14.681 3.385)" opacity="0.7">
              <path id="Path_10870" data-name="Path 10870" d="M651.732,582.909c-.01.049-.016.1-.029.149a1.794,1.794,0,0,1-.062.172c-.016.036-.023.071-.039.107a91.113,91.113,0,0,0-8.171,26.777l-.084.583c-.376,2.638-.762,5.367-2.269,7.775a10.378,10.378,0,0,1-.648.92c-2.959,3.769-8.038,5.02-11.969,5.581a19.026,19.026,0,0,0,3.522,3.2c3.89-.58,8.8-1.857,11.688-5.539a10.422,10.422,0,0,0,.648-.92c1.507-2.408,1.893-5.137,2.269-7.775l.084-.583a91.111,91.111,0,0,1,8.171-26.777c.016-.036.023-.071.039-.107.023-.058.045-.114.062-.172s.019-.1.029-.149a1.426,1.426,0,0,0,.023-.159.893.893,0,0,0,0-.162,1.16,1.16,0,0,0-.006-.149c-.006-.052-.019-.1-.029-.156s-.023-.1-.036-.149-.039-.094-.058-.143-.042-.1-.068-.146-.058-.088-.087-.133-.055-.084-.088-.123a1.2,1.2,0,0,0-.13-.13c-.029-.026-.052-.058-.081-.081l-.01-.007c-14.935-17.446-14.225-48.845-13.823-56.3,22.292,2.327,39.472,16.328,45.925,22.35.013.013.029.023.042.036a1.453,1.453,0,0,0,.143.1c.039.029.081.058.123.084s.094.045.143.068.1.042.146.058a1.2,1.2,0,0,0,.146.039,1.319,1.319,0,0,0,.156.032c.052.007.1.007.159.01s.1,0,.149,0a1.341,1.341,0,0,0,.159-.023,1.145,1.145,0,0,0,.152-.029c.049-.013.094-.029.143-.045s.11-.042.162-.068l.049-.02a75.279,75.279,0,0,1,40.441-8.861c.032,0,.068,0,.1,0,12.55,0,23.932,2.009,33.949,5.975.334-.35.756-.782,1.264-1.286-11.062-5.263-23.983-7.931-38.455-7.931-.036,0-.071,0-.1,0a75.279,75.279,0,0,0-40.441,8.861l-.049.019c-.052.026-.107.045-.162.068s-.094.032-.143.045a1.153,1.153,0,0,1-.152.029,1.328,1.328,0,0,1-.159.023c-.049,0-.1,0-.149,0s-.107,0-.159-.01a1.332,1.332,0,0,1-.156-.032,1.228,1.228,0,0,1-.146-.039c-.049-.016-.1-.039-.146-.058s-.1-.042-.143-.068-.084-.055-.123-.084a1.454,1.454,0,0,1-.143-.1c-.013-.013-.029-.023-.042-.036-6.453-6.022-23.633-20.023-45.925-22.35-.4,7.458-1.112,38.856,13.823,56.3l.01.006c.029.023.052.055.081.081a1.232,1.232,0,0,1,.13.13c.032.039.058.081.087.123s.062.088.088.133.045.1.068.146.042.094.058.143.023.1.036.149.023.1.029.156a1.138,1.138,0,0,1,.007.149.9.9,0,0,1,0,.162A1.431,1.431,0,0,1,651.732,582.909Z" transform="translate(-628.462 -525.07)" fill="#fff"/>
            </g>
            <path id="Path_10871" data-name="Path 10871" d="M806.214,621.1a1.621,1.621,0,0,0-1.81.046,19.73,19.73,0,0,1-14.652,3.218,22.034,22.034,0,0,0,6.869-6.878,1.621,1.621,0,0,0-1.215-2.474c-4.849-.475-10.231-1.292-12.721-5.006-1.259-1.875-1.626-4.266-2.014-6.8l-.084-.545a99.042,99.042,0,0,0-8.1-26.781c9.005-10.893,12.358-26.369,13.577-37.542a122.993,122.993,0,0,0,.461-22.238,1.62,1.62,0,0,0-1.739-1.469,75.141,75.141,0,0,0-30.935,9.778A97.59,97.59,0,0,0,736.021,537.3c-11.734-5.822-25.485-8.784-40.907-8.791a78.462,78.462,0,0,0-41.1,8.7c-8.816-8.029-26.179-20.834-48.671-22.581A1.623,1.623,0,0,0,603.6,516.1a122.967,122.967,0,0,0,.46,22.238c1.217,11.16,4.563,26.614,13.545,37.505a94.475,94.475,0,0,0-8,26.747l-.085.592c-.342,2.41-.665,4.687-1.807,6.511-2.451,3.914-7.992,4.8-12.994,5.331a1.621,1.621,0,0,0-1.2,2.478,22.217,22.217,0,0,0,6.864,6.853,19.777,19.777,0,0,1-14.663-3.211,1.621,1.621,0,0,0-2.532,1.615,21.507,21.507,0,0,0,10.055,14.363,9.446,9.446,0,0,1-5.165-.85,1.62,1.62,0,0,0-1.949,2.5c13.046,15.447,31.278,27.411,52.726,34.6a156.449,156.449,0,0,0,27.96,6.476,209.906,209.906,0,0,0,28.982,2.037q8.508,0,16.852-.719A165.308,165.308,0,0,0,757.4,671.2c19.018-7.262,35.077-18.527,46.442-32.576a1.621,1.621,0,0,0-2.044-2.438,8.514,8.514,0,0,1-4.952.961,21.535,21.535,0,0,0,10.087-14.391A1.62,1.62,0,0,0,806.214,621.1ZM792,635.855a1.62,1.62,0,0,0-.313,2.913,11.694,11.694,0,0,0,6.327,1.674c-10.729,11.817-25.068,21.351-41.771,27.73-33.1,12.639-66.66,11.58-88.982,8.466a153.146,153.146,0,0,1-27.378-6.339c-19.109-6.4-35.577-16.678-47.94-29.864a12.592,12.592,0,0,0,6.468-1.647,1.621,1.621,0,0,0-.277-2.937,18.494,18.494,0,0,1-10.619-9.973,23.1,23.1,0,0,0,17.874.394,1.62,1.62,0,0,0-.026-3.011,18.987,18.987,0,0,1-7.522-5.345c4.235-.606,9.8-2.01,12.617-6.5,1.507-2.408,1.894-5.137,2.269-7.776l.083-.584a91.17,91.17,0,0,1,8.171-26.775c.017-.035.025-.072.039-.107a1.7,1.7,0,0,0,.063-.173c.014-.05.02-.1.029-.149a1.537,1.537,0,0,0,.024-.159,1.457,1.457,0,0,0,0-.161c0-.05,0-.1-.007-.151s-.019-.1-.03-.153-.021-.1-.037-.152-.037-.094-.057-.14a1.551,1.551,0,0,0-.067-.146c-.026-.047-.058-.09-.088-.134s-.055-.084-.089-.123a1.63,1.63,0,0,0-.129-.13c-.028-.027-.051-.057-.081-.081l-.008-.007c-14.935-17.445-14.225-48.842-13.824-56.3,22.292,2.329,39.472,16.33,45.925,22.352.014.013.03.021.043.033a1.565,1.565,0,0,0,.14.107c.041.029.081.057.125.082s.093.047.142.068a1.548,1.548,0,0,0,.147.06c.048.016.1.027.147.038a1.56,1.56,0,0,0,.154.031c.052.007.105.008.159.009s.1,0,.15,0,.106-.012.159-.021.1-.016.153-.03.095-.03.142-.047a1.64,1.64,0,0,0,.162-.067c.017-.008.034-.012.05-.021a75.269,75.269,0,0,1,40.439-8.859c.035,0,.07,0,.1,0,14.47,0,27.393,2.667,38.456,7.928-1.4,1.386-2.149,2.239-2.19,2.286a1.62,1.62,0,0,0,2.436,2.138c.013-.015,1.3-1.475,3.646-3.672,6.456-6.041,23.653-20.086,46-22.42.4,7.471,1.122,38.97-13.936,56.429l-.133.159c-.024.029-.039.061-.061.09a1.6,1.6,0,0,0-.105.156,1.456,1.456,0,0,0-.065.141c-.021.048-.044.095-.06.145a1.512,1.512,0,0,0-.039.156c-.011.05-.023.1-.03.149s-.006.1-.007.155a1.564,1.564,0,0,0,0,.159c0,.053.014.105.023.158s.015.1.028.15a1.6,1.6,0,0,0,.065.18c.013.033.02.067.036.1a95.653,95.653,0,0,1,8.259,26.821l.083.538c.425,2.772.864,5.638,2.526,8.112,2.737,4.082,7.538,5.447,12.3,6.1a18.81,18.81,0,0,1-7.529,5.347,1.62,1.62,0,0,0-.032,3.012,23.048,23.048,0,0,0,17.87-.391A18.515,18.515,0,0,1,792,635.855Z" transform="translate(-583.163 -514.626)"/>
            <g id="Group_13196" data-name="Group 13196" transform="translate(61.71 73.023)">
              <path id="Path_10872" data-name="Path 10872" d="M906.661,832.818c0-3.618-4.974-5.453-14.783-5.453S877.1,829.2,877.1,832.818c0,4.512,6.348,11.472,14.783,11.472S906.661,837.33,906.661,832.818Z" transform="translate(-843.542 -799.029)"/>
              <path id="Path_10873" data-name="Path 10873" d="M883.324,838.735a1.62,1.62,0,0,0-1.621,1.62,15.081,15.081,0,0,1-30.159.331c8.952-.872,16.311-8.4,16.311-14.627,0-8.694-13.566-8.694-18.024-8.694s-18.024,0-18.024,8.694c0,6.268,7.451,13.846,16.479,14.64a15.081,15.081,0,0,1-30.159-.344,1.62,1.62,0,0,0-3.241,0,18.321,18.321,0,0,0,35.029,7.519,18.321,18.321,0,0,0,35.029-7.519A1.62,1.62,0,0,0,883.324,838.735Zm-33.493-1.2c-8.435,0-14.783-6.959-14.783-11.472,0-3.618,4.974-5.453,14.783-5.453s14.783,1.834,14.783,5.453C864.615,830.571,858.267,837.531,849.832,837.531Z" transform="translate(-801.495 -792.27)"/>
              <path id="Path_10874" data-name="Path 10874" d="M802.209,750.591a1.621,1.621,0,0,0,2.81-1.615,18.011,18.011,0,0,0-31.237,0,1.621,1.621,0,1,0,2.809,1.616,14.769,14.769,0,0,1,25.618,0Z" transform="translate(-773.566 -739.934)"/>
              <path id="Path_10875" data-name="Path 10875" d="M989.971,739.934a18.07,18.07,0,0,0-15.62,9.041,1.621,1.621,0,1,0,2.809,1.616,14.769,14.769,0,0,1,25.618,0,1.621,1.621,0,0,0,2.81-1.615A18.06,18.06,0,0,0,989.971,739.934Z" transform="translate(-909.131 -739.934)"/>
            </g>
            <path id="Path_10876" data-name="Path 10876" d="M684.953,565.321s-2.155,22.09,10.142,36.88l.468-5.628,5.5-1.3-3.976-7.616,11.113,2.512S694.842,565.182,684.953,565.321Z" transform="translate(-651.865 -548.89)" fill="url(#linear-gradient-7)"/>
            <path id="Path_10877" data-name="Path 10877" d="M1122.966,565.321s2.155,22.09-10.142,36.88l-.467-5.628-5.5-1.3,3.976-7.616-11.113,2.512S1113.076,565.182,1122.966,565.321Z" transform="translate(-932.301 -548.89)" fill="url(#linear-gradient-7)"/>
            <ellipse id="Ellipse_542" data-name="Ellipse 542" cx="8.319" cy="1.783" rx="8.319" ry="1.783" transform="translate(101.728 101.359)" fill="#fff" opacity="0.7"/>
            <path id="Path_10878" data-name="Path 10878" d="M708.845,583.973c-1.133-3.8-6.077-16.932-22.129-26.4a1.621,1.621,0,0,0-1.647,2.791c12.229,7.217,17.547,16.6,19.669,21.747a22.881,22.881,0,0,0-9.053-1.281,1.621,1.621,0,0,0-1.005,2.76,24.749,24.749,0,0,1,3.861,5.1,15.221,15.221,0,0,0-5.705.975,1.622,1.622,0,0,0-.566,2.656,8.465,8.465,0,0,1,2.249,3.873,1.621,1.621,0,0,0,1.606,1.42,1.656,1.656,0,0,0,.2-.013,1.621,1.621,0,0,0,1.407-1.809,8.981,8.981,0,0,0-1.511-3.7,12.174,12.174,0,0,1,4.325.055,1.621,1.621,0,0,0,1.992-1.839,15.3,15.3,0,0,0-3.078-6.126,14.936,14.936,0,0,1,7.129,2.572,1.62,1.62,0,0,0,2.557-1.632C709.139,585.07,709.052,584.668,708.845,583.973Z" transform="translate(-651.502 -543.498)"/>
            <path id="Path_10879" data-name="Path 10879" d="M1112.071,589.654a14.829,14.829,0,0,0-3.261-.833,15.942,15.942,0,0,0-2.437-.143c.189-.357.409-.73.657-1.116a27.722,27.722,0,0,1,3.2-3.978,1.62,1.62,0,0,0-1.005-2.76,23.316,23.316,0,0,0-7.146.683,18.986,18.986,0,0,0-1.906.6c.192-.465.409-.963.655-1.49,2.653-5.688,8.1-13.821,19.012-20.258a1.62,1.62,0,1,0-1.647-2.791c-11.623,6.86-17.456,15.576-20.3,21.679a35.21,35.21,0,0,0-1.827,4.723c-.21.7-.3,1.106-.3,1.15a1.62,1.62,0,0,0,2.559,1.626,12.964,12.964,0,0,1,4.572-2.1,19.139,19.139,0,0,1,2.568-.476c-.387.508-.781,1.06-1.154,1.64a12.389,12.389,0,0,0-1.936,4.489,1.62,1.62,0,0,0,1.993,1.839,11.97,11.97,0,0,1,4.005-.105q.164.023.326.05a8.747,8.747,0,0,0-1.518,3.7,1.621,1.621,0,0,0,1.408,1.809,1.645,1.645,0,0,0,.2.013,1.621,1.621,0,0,0,1.606-1.42,6.121,6.121,0,0,1,1.16-2.539,11.189,11.189,0,0,1,1.087-1.331,1.621,1.621,0,0,0-.566-2.659Z" transform="translate(-929.602 -543.498)"/>
            <ellipse id="Ellipse_543" data-name="Ellipse 543" cx="9.218" cy="5.85" rx="9.218" ry="5.85" transform="translate(124.428 57.625) rotate(-27.88)" fill="#fff"/>
            <ellipse id="Ellipse_544" data-name="Ellipse 544" cx="5.85" cy="9.218" rx="5.85" ry="9.218" transform="translate(73.897 59.347) rotate(-62.121)" fill="#fff"/>
            <path id="Path_10880" data-name="Path 10880" d="M816.335,902.817c-10.728,11.817-25.069,21.352-41.77,27.73-33.1,12.64-66.661,11.58-88.982,8.466a153.045,153.045,0,0,1-27.38-6.339c-19.109-6.4-35.577-16.678-47.941-29.863a185.848,185.848,0,0,0,206.073.007Z" transform="translate(-601.479 -776.999)" opacity="0.3"/>
          </g>
          <g id="Group_13198" data-name="Group 13198" transform="translate(1.978)">
            <path id="Path_10881" data-name="Path 10881" d="M863.459,369.3a105.04,105.04,0,0,0-118.058,0,1,1,0,0,0-.428.827v9.246a.978.978,0,0,0,.557.9,1,1,0,0,0,1.08-.107,95.636,95.636,0,0,1,115.641,0,1,1,0,0,0,1.08.107.979.979,0,0,0,.557-.9v-9.247A1,1,0,0,0,863.459,369.3Z" transform="translate(-694.507 -347.931)" fill="url(#linear-gradient-7)"/>
            <path id="Path_10882" data-name="Path 10882" d="M863.459,369.3a105.04,105.04,0,0,0-118.058,0,1,1,0,0,0-.428.827v3.241a1,1,0,0,1,.428-.827,105.04,105.04,0,0,1,118.058,0,1,1,0,0,1,.429.827v-3.241A1,1,0,0,0,863.459,369.3Z" transform="translate(-694.507 -347.931)" fill="#fff" opacity="0.7"/>
            <path id="Path_10883" data-name="Path 10883" d="M863.331,390.152a1,1,0,0,1-1.08-.107,95.636,95.636,0,0,0-115.641,0,1,1,0,0,1-1.08.107.978.978,0,0,1-.557-.9v3.241a.979.979,0,0,0,.557.9,1,1,0,0,0,1.08-.107,95.636,95.636,0,0,1,115.641,0,1,1,0,0,0,1.08.107.979.979,0,0,0,.557-.9v-3.241A.978.978,0,0,1,863.331,390.152Z" transform="translate(-694.507 -361.053)" opacity="0.3"/>
            <path id="Path_10884" data-name="Path 10884" d="M625.258,471.479a100.115,100.115,0,0,0-7.9,37.451c.334-.12.674-.226,1.019-.321a99.424,99.424,0,0,1,37.1-75.557v-1.309a102.108,102.108,0,0,0-8.606,7.682A100.446,100.446,0,0,0,625.258,471.479Z" transform="translate(-608.251 -402.389)" fill="#ddcaca"/>
            <rect id="Rectangle_85286" data-name="Rectangle 85286" width="18.605" height="54.38" rx="9.302" transform="translate(15.375 99.126)" fill="url(#linear-gradient-7)"/>
            <path id="Path_10885" data-name="Path 10885" d="M646.8,767.075h-1.6a8.514,8.514,0,0,1-8.5-8.5v9.723a8.514,8.514,0,0,0,8.5,8.5h1.6a8.514,8.514,0,0,0,8.5-8.5v-9.723A8.514,8.514,0,0,1,646.8,767.075Z" transform="translate(-621.329 -623.291)" opacity="0.3"/>
            <path id="Path_10886" data-name="Path 10886" d="M646.8,647.022h-1.6a8.514,8.514,0,0,0-8.5,8.5v3.241a8.514,8.514,0,0,1,8.5-8.5h1.6a8.514,8.514,0,0,1,8.5,8.5v-3.241A8.514,8.514,0,0,0,646.8,647.022Z" transform="translate(-621.329 -547.896)" fill="#fff" opacity="0.7"/>
            <path id="Path_10887" data-name="Path 10887" d="M599.266,688.169v13.666a10.529,10.529,0,0,0,8.893,10.388V677.781A10.53,10.53,0,0,0,599.266,688.169Z" transform="translate(-596.025 -568.686)" fill="url(#linear-gradient-7)"/>
            <path id="Path_10888" data-name="Path 10888" d="M599.266,722v9.723a10.529,10.529,0,0,0,8.893,10.388v-9.723A10.53,10.53,0,0,1,599.266,722Z" transform="translate(-596.025 -598.573)" opacity="0.3"/>
            <path id="Path_10889" data-name="Path 10889" d="M599.266,688.169v3.241a10.53,10.53,0,0,1,8.893-10.388v-3.241A10.53,10.53,0,0,0,599.266,688.169Z" transform="translate(-596.025 -568.686)" fill="#fff" opacity="0.7"/>
            <rect id="Rectangle_85287" data-name="Rectangle 85287" width="18.605" height="54.38" rx="9.302" transform="translate(185.865 99.126)" fill="url(#linear-gradient-7)"/>
            <path id="Path_10890" data-name="Path 10890" d="M1172.846,767.075h-1.6a8.514,8.514,0,0,1-8.5-8.5v9.723a8.514,8.514,0,0,0,8.5,8.5h1.6a8.514,8.514,0,0,0,8.5-8.5v-9.723A8.514,8.514,0,0,1,1172.846,767.075Z" transform="translate(-976.88 -623.291)" opacity="0.3"/>
            <path id="Path_10891" data-name="Path 10891" d="M1172.846,647.022h-1.6a8.514,8.514,0,0,0-8.5,8.5v3.241a8.514,8.514,0,0,1,8.5-8.5h1.6a8.514,8.514,0,0,1,8.5,8.5v-3.241A8.514,8.514,0,0,0,1172.846,647.022Z" transform="translate(-976.88 -547.896)" fill="#fff" opacity="0.7"/>
            <path id="Path_10892" data-name="Path 10892" d="M1160,508.93a100.479,100.479,0,0,0-29.514-69.505,102.173,102.173,0,0,0-8.606-7.682v1.309a99.422,99.422,0,0,1,37.1,75.556C1159.326,508.7,1159.667,508.809,1160,508.93Z" transform="translate(-949.26 -402.389)" fill="#ddcaca"/>
            <path id="Path_10893" data-name="Path 10893" d="M1230.149,677.781v34.442a10.529,10.529,0,0,0,8.892-10.388V688.169A10.529,10.529,0,0,0,1230.149,677.781Z" transform="translate(-1022.438 -568.686)" fill="url(#linear-gradient-7)"/>
            <path id="Path_10894" data-name="Path 10894" d="M1230.149,732.387v9.723a10.529,10.529,0,0,0,8.892-10.388V722A10.529,10.529,0,0,1,1230.149,732.387Z" transform="translate(-1022.438 -598.573)" opacity="0.3"/>
            <path id="Path_10895" data-name="Path 10895" d="M1230.149,677.781v3.241a10.529,10.529,0,0,1,8.892,10.388v-3.241A10.529,10.529,0,0,0,1230.149,677.781Z" transform="translate(-1022.438 -568.686)" fill="#fff" opacity="0.7"/>
            <path id="Path_10896" data-name="Path 10896" d="M803.269,449.416a103.766,103.766,0,0,0-30.485-73.5,105.039,105.039,0,0,0-10.9-9.49v-3.062a4.235,4.235,0,0,0-1.846-3.507,108.28,108.28,0,0,0-121.7,0,4.233,4.233,0,0,0-1.846,3.506v3.062a105.108,105.108,0,0,0-10.9,9.49,103.769,103.769,0,0,0-30.485,73.5,13.744,13.744,0,0,0-5.842,11.239v13.666a13.773,13.773,0,0,0,12.275,13.673,11.763,11.763,0,0,0,11.6,9.925h1.6a11.758,11.758,0,0,0,11.745-11.745V448.8a11.759,11.759,0,0,0-11.745-11.745h-1.6a11.755,11.755,0,0,0-10.337,6.174,96.154,96.154,0,0,1,34.609-67.967,4.264,4.264,0,0,0,5.917.716,92.394,92.394,0,0,1,111.709,0,4.265,4.265,0,0,0,5.917-.716,96.155,96.155,0,0,1,34.609,67.965,11.755,11.755,0,0,0-10.336-6.173h-1.6A11.758,11.758,0,0,0,771.891,448.8v37.372a11.758,11.758,0,0,0,11.745,11.745h1.6a11.763,11.763,0,0,0,11.6-9.925,13.772,13.772,0,0,0,12.275-13.673V460.656A13.744,13.744,0,0,0,803.269,449.416ZM604.641,448.8a8.514,8.514,0,0,1,8.5-8.5h1.6a8.514,8.514,0,0,1,8.5,8.5v37.372a8.514,8.514,0,0,1-8.5,8.5h-1.6a8.514,8.514,0,0,1-8.5-8.5ZM601.4,484.71a10.53,10.53,0,0,1-8.893-10.388V460.656a10.53,10.53,0,0,1,8.893-10.388Zm35.09-112.875a99.424,99.424,0,0,0-37.1,75.557c-.345.095-.685.2-1.019.321a100.479,100.479,0,0,1,29.515-69.505,102.109,102.109,0,0,1,8.606-7.682Zm122.157.776a.979.979,0,0,1-.557.9,1,1,0,0,1-1.08-.107,95.636,95.636,0,0,0-115.641,0,1,1,0,0,1-1.08.107.979.979,0,0,1-.557-.9v-9.246a1,1,0,0,1,.428-.827,105.04,105.04,0,0,1,118.058,0,1,1,0,0,1,.429.827Zm35.09,113.564a8.514,8.514,0,0,1-8.5,8.5h-1.6a8.514,8.514,0,0,1-8.5-8.5V448.8a8.514,8.514,0,0,1,8.5-8.5h1.6a8.514,8.514,0,0,1,8.5,8.5ZM761.887,371.836v-1.309a102.173,102.173,0,0,1,8.606,7.682,100.478,100.478,0,0,1,29.514,69.505c-.334-.121-.675-.227-1.02-.321A99.423,99.423,0,0,0,761.887,371.836Zm43.982,102.486a10.529,10.529,0,0,1-8.892,10.388V450.267a10.529,10.529,0,0,1,8.892,10.388Z" transform="translate(-589.266 -341.172)"/>
          </g>
        </g>
      </g>
    </g>
  </g>
</svg>
