<svg xmlns="http://www.w3.org/2000/svg" width="39.327" height="42.302" viewBox="0 0 39.327 42.302">
  <g id="Group_13271" data-name="Group 13271" transform="translate(11548 1060.186)">
    <path id="Path_11134" data-name="Path 11134" d="M74.778,7.982,73.9,7.106a1.859,1.859,0,0,0-2.629,0L68.383,10V3.1a3.1,3.1,0,0,0-3.1-3.1H43.06a3.1,3.1,0,0,0-3.1,3.1V35.279H36.615a.62.62,0,0,0-.62.62v3.3a3.1,3.1,0,0,0,3.1,3.1H65.367a.629.629,0,0,0,.067,0A3.1,3.1,0,0,0,68.383,39.2v-22.2l6.4-6.4a1.861,1.861,0,0,0,0-2.629ZM39.093,41.062A1.861,1.861,0,0,1,37.234,39.2V36.518h24.7v2.561a3.205,3.205,0,0,0,.685,1.983Zm28.05-5.172s0,.005,0,.008v3.181a1.983,1.983,0,0,1-3.966,0V35.9a.62.62,0,0,0-.62-.62l-.041,0-.041,0H41.2V3.1A1.861,1.861,0,0,1,43.06,1.239H65.284A1.861,1.861,0,0,1,67.143,3.1v8.137L55.658,22.721H46.282a.62.62,0,1,0,0,1.239h8.137l-2.425,2.425a.62.62,0,0,0-.046.051l0,0H46.282a.62.62,0,0,0,0,1.239h5.212l-.826,2.479H46.282a.62.62,0,0,0,0,1.239h4.627a.621.621,0,0,0,.133-.015.6.6,0,0,0,.272-.027l3.944-1.315.012,0,.045-.018.019-.009.042-.023.017-.01.041-.029.015-.011a.622.622,0,0,0,.051-.045l2.213-2.213h4.35a.62.62,0,0,0,0-1.239H58.951l8.192-8.192ZM52.7,27.97l1.211,1.211-1.817.606Zm2.358.605-1.753-1.753L68.2,11.932l0,0,1.62-1.62,1.753,1.753ZM73.9,9.735l-1.451,1.451L70.7,9.433l1.451-1.451a.619.619,0,0,1,.876,0l.876.876a.62.62,0,0,1,0,.876Z" transform="translate(-11583.995 -1060.186)"/>
    <line id="Line_505" data-name="Line 505" x2="16.891" transform="translate(-11538.147 -1052.269)" fill="none" stroke="#6bc100" stroke-linecap="round" stroke-width="1"/>
    <line id="Line_506" data-name="Line 506" x2="16.891" transform="translate(-11538.147 -1049.454)" fill="none" stroke="#6bc100" stroke-linecap="round" stroke-width="1"/>
    <line id="Line_507" data-name="Line 507" x2="16.891" transform="translate(-11538.147 -1046.639)" fill="none" stroke="#6bc100" stroke-linecap="round" stroke-width="1"/>
  </g>
</svg>
