<svg xmlns="http://www.w3.org/2000/svg" width="276" height="52" viewBox="0 0 276 52">
  <g id="Wearables_Logo" data-name="Wearables Logo" transform="translate(-55 -301)">
    <g id="Group_11083" data-name="Group 11083">
      <g id="Title" transform="translate(112 334)">
        <text id="Discover_amazing_peo" data-name="Discover amazing peo" transform="translate(0 12)" fill="#636e7e" font-size="12.5" font-family="DIN2014-Regular, 'DIN \32 014'"><tspan x="0" y="0">Connect with your pet anywhere, any time</tspan></text>
      </g>
      <g id="Get_Connected" data-name="Get Connected" transform="translate(112 303)">
        <text id="Get_Connected-2" data-name="Get Connected" transform="translate(107 28)" fill="#0c1523" font-size="34" font-family="HeliosRounded, Helios Rounded"><tspan x="-107.279" y="0">Wearables</tspan></text>
      </g>
      <rect id="Rectangle_9" data-name="Rectangle 9" width="50" height="52" rx="5" transform="translate(55 301)" fill="#6bc100"/>
      <g id="Group_42" data-name="Group 42" transform="translate(-144.817 101.318)">
        <g id="Group_39" data-name="Group 39" transform="translate(210.964 201.71)">
          <path id="Path_69" data-name="Path 69" d="M248.7,285.2a16.041,16.041,0,0,1,1.78-5.72.822.822,0,0,1,.045-.14,3.661,3.661,0,0,0,1.243-.222,5.339,5.339,0,0,0,2.672-1.432,10.173,10.173,0,0,1,3.442.982c2.153,1.079,4.46,3.089,5.032,4.355.026.059.048.118.068.177a7.44,7.44,0,0,0-.561,2.584,16.508,16.508,0,0,1-4.4,4.017,19.137,19.137,0,0,1-3.2,1.79,9.7,9.7,0,0,1-1,.272,9.569,9.569,0,0,1-1.71.187,3.815,3.815,0,0,1-1.515-.586C248.4,290.058,248.7,285.2,248.7,285.2Z" transform="translate(-244.015 -268.28)" fill="#fff"/>
          <path id="Path_70" data-name="Path 70" d="M335.2,499.076a.4.4,0,0,1-.325-.051c-.447-.31.355-2.331,1.4-4.08l.19.064a2.768,2.768,0,0,0,.863,1.541c.088.06.174.116.258.168C336.98,497.6,335.929,498.925,335.2,499.076Z" transform="translate(-319.423 -458.634)" fill="#fff"/>
          <path id="Path_71" data-name="Path 71" d="M237.44,394.486c-.088.044.442.633.611.681.247.068.425.132.482.328.121.424-.227,3.893-1.327,5.018-.242.248-.446.608-.723.535s-.462-1.964-.243-4.284l.034-.36-.353.079s-.734.289-2.747-1.08a1.528,1.528,0,0,1-.664-1.175,1.182,1.182,0,0,1,.089-.406c.045-.1.092-.194.141-.288a4.538,4.538,0,0,1,1.011-1.1c.281-.213.531-.388.535-.392l-.151-.128a1.26,1.26,0,0,0-.542.093,3.933,3.933,0,0,0-1.038.68,2.065,2.065,0,0,0-.556,1.1c-1.151-.388-2.711-.768-2.957-.933a4.182,4.182,0,0,1-.2-1.232,5.644,5.644,0,0,0-.372-1.77l-.219-.132c0,.624.015,1.31.061,1.913-.012,1.357-.149,2.893-.632,3.395a.374.374,0,0,1-.3.134c-1.423-.057-2.161-4.291-2.293-6.947l-.219.057-.213,2.026c-.57.023-2.155-.98-3.429-1.894a6.164,6.164,0,0,1-1.711-1.667l-.219-1.141c0,.005-.158.7-.16.7h0c-.393,1.131-1.674,4.161-2.874,4.584a.68.68,0,0,1-.629-.069c-.406-.254.421-2.883,1.557-5.569a42.851,42.851,0,0,1,2.634-4.981,4.311,4.311,0,0,0,1.433,1.5c1.6,1.023,3.627.937,6.156-.265.341-.124.61-.231.749-.289.583.13,4.835.772,7.116,2.66,2.744,2.27,3.206,3.927,3.562,5.648C239.287,391.652,238.259,394.077,237.44,394.486Z" transform="translate(-214.967 -358.151)" fill="#fff"/>
          <path id="Path_72" data-name="Path 72" d="M415.841,449.85c-.616.982-3.883,1.747-5.451,2.028a4.817,4.817,0,0,0-.079-1.166l-.023-.585c2.446-.485,5.2-.846,5.628-.621A.458.458,0,0,1,415.841,449.85Z" transform="translate(-385.606 -418.762)" fill="#fff"/>
          <g id="Group_33" data-name="Group 33" transform="translate(16.825 24.151)">
            <path id="Path_73" data-name="Path 73" d="M350.327,398.308a10.128,10.128,0,0,0-2.9-1.563c-.313.867-1.328,4.108.346,5.573,2.448,2.141,5.027.418,5.651-.061A9.382,9.382,0,0,0,350.327,398.308Z" transform="translate(-346.837 -396.745)" fill="#6bc100"/>
          </g>
          <g id="Group_34" data-name="Group 34" transform="translate(5.018 9.408)">
            <path id="Path_74" data-name="Path 74" d="M256.16,284.663c3.2-1.421,2.986-5.383,2.853-6.529a10.356,10.356,0,0,0-2.116-.446,5.339,5.339,0,0,1-2.672,1.432,3.661,3.661,0,0,1-1.243.222.827.827,0,0,0-.045.14,18.08,18.08,0,0,0-1.446,3.717A3.7,3.7,0,0,0,256.16,284.663Z" transform="translate(-251.49 -277.688)" fill="#6bc100"/>
          </g>
          <g id="Group_35" data-name="Group 35" transform="translate(7.866 12.945)">
            <path id="Path_75" data-name="Path 75" d="M276.455,307.937a1.04,1.04,0,1,1-.282-1.578A1.144,1.144,0,0,1,276.455,307.937Z" transform="translate(-274.489 -306.248)" fill="#1a1818"/>
            <path id="Path_76" data-name="Path 76" d="M279.36,309.965a.431.431,0,1,1-.117-.654A.474.474,0,0,1,279.36,309.965Z" transform="translate(-278.042 -308.892)" fill="#fff"/>
          </g>
          <g id="Group_36" data-name="Group 36" transform="translate(13.249 15.729)">
            <path id="Path_77" data-name="Path 77" d="M319.927,330.423a1.04,1.04,0,1,1-.282-1.579A1.145,1.145,0,0,1,319.927,330.423Z" transform="translate(-317.96 -328.733)" fill="#1a1818"/>
            <path id="Path_78" data-name="Path 78" d="M323.436,331.8a.431.431,0,1,1-.117-.654A.474.474,0,0,1,323.436,331.8Z" transform="translate(-322.043 -330.808)" fill="#fff"/>
          </g>
          <path id="Path_79" data-name="Path 79" d="M264.444,369.206a1.685,1.685,0,0,0,.183,2.125c.642.374,2.138.126,2.379-.547S264.826,368.954,264.444,369.206Z" transform="translate(-257.565 -348.435)" fill="#1a1818"/>
          <g id="Group_37" data-name="Group 37" transform="translate(0 1.607)">
            <path id="Path_80" data-name="Path 80" d="M241.77,243.631c-.066-.221-.482-.84-6.359.327a10.928,10.928,0,0,0-3.8-5.567,17.635,17.635,0,0,0-6.452-2.922c.239-.147.482-.3.729-.466a15.971,15.971,0,0,0,3.8-3.5c.007.006.012.014.019.019.809.578,3.333-.734,3.985-1.541,1.552-1.919,3.837-1.737,5.064-1.638.594.048.892.071,1.048-.137a.733.733,0,0,0-.028-.739,4.022,4.022,0,0,0-2.868-2.213c-1.592-.167-5.447.874-6.475,1.839-1-1.585-3.884-3.325-5.367-4.068a17.282,17.282,0,0,0-3.385-1.291,1.98,1.98,0,0,0,.016-.254c0-.893-.088-5.392-1.819-6.206-1.338-.63-3.75-.785-4.528-.291a.613.613,0,0,0-.323.529c0,.551.6.908,1.232,1.285a3.463,3.463,0,0,1,1.341,1.114c.291.581-.364,2.192-.8,3.257a7.591,7.591,0,0,0-.546,1.6,1.193,1.193,0,0,0,.391,1.111c.016.012.034.021.05.033-.044.1-.068.156-.07.164a19.561,19.561,0,0,0-1.513,5.9l-.007.11a10.455,10.455,0,0,0,.417,4.5l-.1.186a46.417,46.417,0,0,0-3.124,5.353c-.022.052-2.212,5.271-.95,6.06a1.2,1.2,0,0,0,1.083.119c1.17-.413,2.227-2.535,2.784-3.851a5.66,5.66,0,0,0,1.773,1.754,11.131,11.131,0,0,0,3.925,1.671c.271,2.2.765,4.668,2.442,4.735a.9.9,0,0,0,.7-.295,3.885,3.885,0,0,0,.691-2.1,19.557,19.557,0,0,0,2.376.933c-.724,1.341-1.955,4.094-1.007,4.75a.913.913,0,0,0,.732.134c.985-.2,2.17-1.777,2.741-2.613a4.429,4.429,0,0,0,2.1.5c-.125,1.486-.242,4.33.659,4.565a1.267,1.267,0,0,0,1.271-.4c1.253-1.283,1.6-5.188,1.418-5.809a1.006,1.006,0,0,0-.764-.667,6.453,6.453,0,0,0,1.354-2.587c1.149-.243,5.2-1.264,6.02-2.577A.981.981,0,0,0,241.77,243.631Zm-11.318-15.54c.322-1.316,4.682-2.494,6.409-2.312a3.373,3.373,0,0,1,2.075,1.31,2.3,2.3,0,0,1,.426.762c-.13,0-.353-.015-.556-.031a6.524,6.524,0,0,0-5.575,2.2c-.686.848-2.813,1.363-3.211,1.078-.009-.006-.014-.019-.021-.027A5.133,5.133,0,0,1,230.452,228.091Zm-13.664-5.269a4.383,4.383,0,0,1,.239-1.469c.552-1.358,1.449-2.883,1.052-3.678a3.8,3.8,0,0,0-1.542-1.331,3.186,3.186,0,0,1-.9-.917c.574-.364,2.562-.107,3.794.472,1.2.563,1.745,3.718,1.745,5.581a1.38,1.38,0,0,1-.009.138c-.452,1.551-1.461,1.332-2.4,1.771a1.936,1.936,0,0,1-1.8.054A.709.709,0,0,1,216.788,222.822Zm-1.14,7.184a16.041,16.041,0,0,1,1.78-5.72.825.825,0,0,1,.045-.14,3.661,3.661,0,0,0,1.243-.222,5.339,5.339,0,0,0,2.672-1.432,10.174,10.174,0,0,1,3.442.982c2.153,1.079,4.46,3.089,5.032,4.355.026.059.048.118.068.177a7.44,7.44,0,0,0-.561,2.584,16.509,16.509,0,0,1-4.4,4.017,19.139,19.139,0,0,1-3.2,1.79,9.7,9.7,0,0,1-1,.272,9.569,9.569,0,0,1-1.71.187,3.815,3.815,0,0,1-1.515-.586C215.349,234.861,215.648,230.006,215.648,230.006Zm11.095,23.519a.4.4,0,0,1-.325-.051c-.447-.31.355-2.331,1.4-4.08l.19.064a2.768,2.768,0,0,0,.863,1.541c.088.06.174.116.258.168C228.521,252.048,227.471,253.373,226.743,253.525Zm6.693-4.107c-.088.044.442.633.611.681.247.068.425.132.482.328.121.424-.227,3.893-1.327,5.018-.242.248-.446.607-.723.535s-.462-1.964-.243-4.284l.034-.36-.353.079s-.734.289-2.747-1.08a1.528,1.528,0,0,1-.664-1.175,1.183,1.183,0,0,1,.089-.406c.045-.1.092-.194.141-.288a4.538,4.538,0,0,1,1.011-1.1c.281-.213.531-.388.535-.392l-.151-.128a1.261,1.261,0,0,0-.542.094,3.933,3.933,0,0,0-1.038.68,2.065,2.065,0,0,0-.556,1.1c-1.151-.388-2.711-.768-2.957-.933a4.182,4.182,0,0,1-.2-1.232,5.645,5.645,0,0,0-.372-1.77l-.219-.132c0,.624.015,1.31.061,1.913-.012,1.357-.149,2.893-.632,3.395a.374.374,0,0,1-.3.134c-1.423-.057-2.161-4.291-2.293-6.947l-.219.057-.213,2.026c-.57.023-2.155-.98-3.429-1.894a6.164,6.164,0,0,1-1.711-1.667l-.219-1.141c0,.005-.158.7-.16.7h0c-.393,1.131-1.674,4.161-2.874,4.584a.68.68,0,0,1-.629-.069c-.406-.254.421-2.883,1.557-5.569a42.854,42.854,0,0,1,2.634-4.981,4.31,4.31,0,0,0,1.433,1.5c1.6,1.023,3.627.937,6.156-.265.341-.124.61-.231.749-.289.583.13,4.835.772,7.116,2.66,2.744,2.27,3.206,3.927,3.562,5.648C235.283,246.584,234.255,249.009,233.436,249.418Zm7.762-5.247c-.616.982-3.883,1.747-5.451,2.028a4.816,4.816,0,0,0-.079-1.166l-.023-.585c2.446-.485,5.2-.846,5.628-.621A.458.458,0,0,1,241.2,244.172Z" transform="translate(-210.964 -214.69)" fill="#eee"/>
          </g>
          <path id="Path_81" data-name="Path 81" d="M365.01,306.42c.322-1.316,4.682-2.494,6.409-2.312a3.373,3.373,0,0,1,2.075,1.31,2.3,2.3,0,0,1,.426.762c-.13,0-.353-.015-.556-.031a6.524,6.524,0,0,0-5.575,2.2c-.686.848-2.813,1.363-3.211,1.078-.009-.006-.014-.019-.021-.027A5.133,5.133,0,0,1,365.01,306.42Z" transform="translate(-345.522 -291.411)" fill="#6bc100"/>
          <path id="Path_82" data-name="Path 82" d="M249.875,226.843a4.383,4.383,0,0,1,.239-1.469c.552-1.358,1.449-2.883,1.052-3.678a3.8,3.8,0,0,0-1.542-1.331,3.186,3.186,0,0,1-.9-.917c.574-.364,2.562-.107,3.794.472,1.2.563,1.745,3.718,1.745,5.581a1.385,1.385,0,0,1-.009.138c-.452,1.551-1.461,1.332-2.4,1.771a1.936,1.936,0,0,1-1.8.054A.709.709,0,0,1,249.875,226.843Z" transform="translate(-244.05 -217.104)" fill="#6bc100"/>
          <g id="Group_38" data-name="Group 38" transform="translate(23.071)">
            <path id="Path_83" data-name="Path 83" d="M397.406,201.786l-.043-.075a.135.135,0,0,0-.088.023Z" transform="translate(-397.275 -201.71)" fill="none"/>
          </g>
        </g>
        <g id="Group_40" data-name="Group 40" transform="translate(235.894 243.445)">
          <path id="Path_84" data-name="Path 84" d="M412.293,539.086a1.95,1.95,0,0,1,.585,1.58,10.164,10.164,0,0,1-.234,2.048c.055-.072.489-.28.661-1.484a5.225,5.225,0,0,0-.3-2.478Z" transform="translate(-412.293 -538.751)" fill="#1a1818"/>
        </g>
        <g id="Group_41" data-name="Group 41" transform="translate(237.278 244.022)">
          <path id="Path_85" data-name="Path 85" d="M423.529,543.509h0a4.6,4.6,0,0,1,.258,1.764c-.114,1.141-.312,2.551-.312,2.551a5.847,5.847,0,0,0,.839-2.376,6.012,6.012,0,0,0-.268-2.04Z" transform="translate(-423.475 -543.408)" fill="#1a1818"/>
        </g>
      </g>
    </g>
  </g>
</svg>
