<svg xmlns="http://www.w3.org/2000/svg" width="19.373" height="19.375" viewBox="0 0 19.373 19.375">
  <g id="Group_2767" data-name="Group 2767" transform="translate(-0.5 -0.497)">
    <path id="Path_6512" data-name="Path 6512" d="M20.779.774a.932.932,0,0,0-1.325,0L12.336,7.892a.94.94,0,0,0-.237.394l-1.162,3.881a.934.934,0,0,0,.237.931.921.921,0,0,0,.662.275,1,1,0,0,0,.269-.037l3.881-1.162a.94.94,0,0,0,.394-.237L23.5,4.817a.935.935,0,0,0,0-1.325Z" transform="translate(-3.899)" fill="#6bc100"/>
    <path id="Path_6513" data-name="Path 6513" d="M18.936,9.249a.937.937,0,0,0-.937.937v6.249A1.564,1.564,0,0,1,16.436,18H3.937a1.564,1.564,0,0,1-1.562-1.562V3.937A1.564,1.564,0,0,1,3.937,2.375h6.249a.937.937,0,1,0,0-1.875H3.937A3.441,3.441,0,0,0,.5,3.937v12.5a3.441,3.441,0,0,0,3.437,3.437h12.5a3.441,3.441,0,0,0,3.437-3.437V10.187A.937.937,0,0,0,18.936,9.249Z" transform="translate(0 -0.001)" fill="#6bc100"/>
  </g>
</svg>
