<svg xmlns="http://www.w3.org/2000/svg" width="26.331" height="18.513" viewBox="0 0 26.331 18.513">
  <path id="Path_956" data-name="Path 956" d="M36.965.758c-3.506,2.757-6.514,6.215-9.83,9.181-1.416,1.266-2.378,2.973-3.769,4.232-3.815,3.453-6.144-.8-8.15-3.693-.91-1.314-3.078-.066-2.16,1.262,2.154,3.11,5.695,9.619,10.162,6.344,1.466-1.074,2.475-2.95,3.695-4.28,1.291-1.408,2.861-2.41,4.254-3.683,2.664-2.437,4.69-5.334,7.565-7.595C40,1.532,38.216-.226,36.965.758Z" transform="translate(-12.834 -0.468)"/>
</svg>
