<svg xmlns="http://www.w3.org/2000/svg" width="18" height="17" viewBox="0 0 18 17">
  <g id="Group_2887" data-name="Group 2887" transform="translate(-30.25 -634)">
    <rect id="Rectangle_2486" data-name="Rectangle 2486" width="18" height="17" rx="5" transform="translate(30.25 634)" fill="#176726"/>
    <g id="Page-1" transform="translate(34.866 637.012)">
      <g id="Icons" transform="translate(0.503)">
        <path id="Lock-round-2" d="M6.172,130.57a.178.178,0,0,0,.179-.178,2.034,2.034,0,1,1,4.068,0,.178.178,0,1,0,.357,0,2.391,2.391,0,1,0-4.781,0A.178.178,0,0,0,6.172,130.57Zm2.212,7.05a3.523,3.523,0,1,1,2-6.422h0a3.522,3.522,0,0,1-2,6.422Zm2.2-6.715h0a3.919,3.919,0,0,0-4.405,0h0a3.881,3.881,0,1,0,4.407,0Zm-1.825,2.921a.179.179,0,0,0-.089.154v1.505a.288.288,0,1,1-.577,0v-1.5a.179.179,0,0,0-.09-.154.756.756,0,1,1,.756,0Zm-1.142-1.456a1.1,1.1,0,0,0-.35.8,1.114,1.114,0,0,0,.468.9v1.407a.645.645,0,0,0,1.1.454.635.635,0,0,0,.187-.454v-1.407a1.114,1.114,0,0,0,.468-.9,1.1,1.1,0,0,0-.349-.8A1.123,1.123,0,0,0,7.621,132.369Z" transform="translate(-4.503 -128)" fill="#fff"/>
      </g>
    </g>
  </g>
</svg>
