<svg xmlns="http://www.w3.org/2000/svg" width="18" height="17" viewBox="0 0 18 17">
  <g id="Group_2884" data-name="Group 2884" transform="translate(-30 -503)">
    <rect id="Rectangle_2486" data-name="Rectangle 2486" width="18" height="17" rx="5" transform="translate(30 503)" fill="#f0b336"/>
    <path id="Path_5766" data-name="Path 5766" d="M14.209,7.192l-.175,5.282a1.74,1.74,0,0,1-1.745,1.683H8.974a1.74,1.74,0,0,1-1.745-1.681L7.055,7.192a.436.436,0,1,1,.873-.029L8.1,12.446a.873.873,0,0,0,.873.839H12.29a.873.873,0,0,0,.873-.841l.175-5.281a.436.436,0,0,1,.873.029Zm.577-1.758a.436.436,0,0,1-.436.436H6.914a.436.436,0,1,1,0-.873H8.267a.557.557,0,0,0,.555-.5,1.3,1.3,0,0,1,1.3-1.175H11.14a1.3,1.3,0,0,1,1.3,1.175A.557.557,0,0,0,13,5H14.35a.436.436,0,0,1,.436.436ZM9.579,5h2.106a1.44,1.44,0,0,1-.111-.412.436.436,0,0,0-.434-.393H10.124a.436.436,0,0,0-.434.393A1.44,1.44,0,0,1,9.579,5Zm.439,6.61V7.893a.436.436,0,0,0-.873,0V11.61a.436.436,0,0,0,.873,0Zm2.1,0V7.893a.436.436,0,0,0-.873,0V11.61a.436.436,0,0,0,.873,0Z" transform="translate(28.368 502.678)" fill="#fff"/>
  </g>
</svg>
