<svg xmlns="http://www.w3.org/2000/svg" width="18" height="17" viewBox="0 0 18 17">
  <g id="Group_2888" data-name="Group 2888" transform="translate(-30.25 -681)">
    <rect id="Rectangle_2486" data-name="Rectangle 2486" width="18" height="17" rx="5" transform="translate(30.25 681)"/>
    <path id="Path_5773" data-name="Path 5773" d="M.823,3.479H3.157a.322.322,0,0,0,.323-.323V.823A.322.322,0,0,0,3.157.5H.823A.322.322,0,0,0,.5.823V3.157A.322.322,0,0,0,.823,3.479Zm.323-2.334H2.834V2.834H1.145ZM7.166.823A.323.323,0,0,0,6.843.5H4.509a.323.323,0,0,0-.323.323V3.157a.323.323,0,0,0,.323.323H6.843a.323.323,0,0,0,.323-.323ZM6.521,2.834H4.832V1.145H6.521ZM.823,7.166H3.157a.322.322,0,0,0,.323-.323V4.509a.322.322,0,0,0-.323-.323H.823A.322.322,0,0,0,.5,4.509V6.843A.322.322,0,0,0,.823,7.166Zm.323-2.334H2.834V6.521H1.145Zm4.531-.645a1.49,1.49,0,1,0,1.49,1.49A1.491,1.491,0,0,0,5.676,4.187Zm0,2.334a.844.844,0,1,1,.845-.844A.845.845,0,0,1,5.676,6.521Z" transform="translate(35.75 685.5)" fill="#fff"/>
  </g>
</svg>
