<svg xmlns="http://www.w3.org/2000/svg" width="18" height="17" viewBox="0 0 18 17">
  <g id="Group_2885" data-name="Group 2885" transform="translate(-30 -536)">
    <rect id="Rectangle_2486" data-name="Rectangle 2486" width="18" height="17" rx="5" transform="translate(30 536)" fill="#f0b336"/>
    <g id="Group_2412" data-name="Group 2412" transform="translate(33 538)">
      <path id="Path_5767" data-name="Path 5767" d="M0,0H12V12H0Z" fill="none"/>
      <path id="Path_5768" data-name="Path 5768" d="M7.354,7.5a1,1,0,1,0-1,1A1,1,0,0,0,7.354,7.5ZM6.484,3a4.5,4.5,0,0,0-4.63,4.5H.959a.247.247,0,0,0-.175.425l1.395,1.4a.248.248,0,0,0,.355,0l1.395-1.4a.25.25,0,0,0-.18-.425H2.854A3.5,3.5,0,0,1,6.4,4a3.544,3.544,0,0,1,3.45,3.45,3.5,3.5,0,0,1-5.22,3.1.486.486,0,0,0-.59.09.5.5,0,0,0,.1.785A4.5,4.5,0,1,0,6.484,3Z" transform="translate(-0.354 -1.498)" fill="#fff"/>
    </g>
  </g>
</svg>
