<svg xmlns="http://www.w3.org/2000/svg" width="18" height="17" viewBox="0 0 18 17">
  <g id="Group_2882" data-name="Group 2882" transform="translate(-30 -437)">
    <rect id="Rectangle_2486" data-name="Rectangle 2486" width="18" height="17" rx="5" transform="translate(30 437)" fill="#f0b336"/>
    <g id="Layer_2" data-name="Layer 2" transform="translate(32.26 439.26)">
      <g id="sync">
        <rect id="Rectangle_2487" data-name="Rectangle 2487" width="14" height="14" transform="translate(-0.26 -0.26)" fill="#fff" opacity="0"/>
        <path id="Path_5762" data-name="Path 5762" d="M12.819,7.152a.348.348,0,0,0,.039-.107L13.28,4.8a.571.571,0,1,0-1.123-.2L11.949,5.72a5.178,5.178,0,0,0-9.312.472.563.563,0,0,0,1.045.421A3.976,3.976,0,0,1,7.433,4.136a4.027,4.027,0,0,1,3.5,2.011l-.927-.152a.569.569,0,1,0-.18,1.123l2.387.4h.09a.522.522,0,0,0,.191-.034.185.185,0,0,0,.056-.034.438.438,0,0,0,.112-.062l.045-.056a.6.6,0,0,0,.079-.09.326.326,0,0,0,.028-.09Zm-1,2.078a.562.562,0,0,0-.736.315A3.976,3.976,0,0,1,7.355,12a4.027,4.027,0,0,1-3.5-2.011l.927.152h.09a.563.563,0,1,0,.09-1.123L2.569,8.629a.511.511,0,0,0-.185,0H2.339a.646.646,0,0,0-.18.079.562.562,0,0,0-.1.1l-.051.056a.472.472,0,0,0-.039.107.247.247,0,0,0-.039.1l-.421,2.247A.562.562,0,0,0,1.957,12h.1a.562.562,0,0,0,.562-.461l.208-1.123a5.178,5.178,0,0,0,9.312-.466.562.562,0,0,0-.32-.719Z" transform="translate(-0.654 -1.327)" fill="#fff"/>
      </g>
    </g>
  </g>
</svg>
