<svg xmlns="http://www.w3.org/2000/svg" width="18" height="17" viewBox="0 0 18 17">
  <g id="Group_2881" data-name="Group 2881" transform="translate(-30 -404)">
    <rect id="Rectangle_2486" data-name="Rectangle 2486" width="18" height="17" rx="5" transform="translate(30 404)" fill="#f0b336"/>
    <g id="Group_2406" data-name="Group 2406" transform="translate(33.115 407.23)">
      <path id="Path_5760" data-name="Path 5760" d="M0,0H11.769V11.769H0ZM0,0H11.769V11.769H0Z" fill="none"/>
      <path id="Path_5761" data-name="Path 5761" d="M1,6.68l.981.981a6.242,6.242,0,0,1,8.827,0l.981-.981A7.633,7.633,0,0,0,1,6.68ZM4.923,10.6l1.471,1.471L7.865,10.6A2.078,2.078,0,0,0,4.923,10.6ZM2.962,8.641l.981.981a3.469,3.469,0,0,1,4.9,0l.981-.981A4.86,4.86,0,0,0,2.962,8.641Z" transform="translate(-0.51 -2.267)" fill="#fff"/>
    </g>
  </g>
</svg>
