<svg xmlns="http://www.w3.org/2000/svg" width="330" height="126" viewBox="0 0 330 126">
  <g id="Group_2404" data-name="Group 2404" transform="translate(-9705 -4279)">
    <rect id="Rectangle_2481" data-name="Rectangle 2481" width="330" height="126" rx="21" transform="translate(9705 4279)" fill="#181818"/>
    <path id="Path_5752" data-name="Path 5752" d="M9748.263,4147.062s-12.322,71.3,44.637,99.477c.123.055,57.868-99.477,57.868-99.477Z" transform="translate(0 131.938)" fill="#176726" opacity="0.422"/>
    <path id="Path_5753" data-name="Path 5753" d="M9927.872,4147.094l-8.034,13.18,113.97,67.316V4168.7s-.608-20.966-20.218-21.6S9927.872,4147.094,9927.872,4147.094Z" transform="translate(1.192 132.189)" fill="#f0b336" opacity="0.345"/>
    <path id="Subtraction_11" data-name="Subtraction 11" d="M100.763,76H5.237A52.709,52.709,0,0,1,1.36,64.982,53.288,53.288,0,0,1,0,53,53.014,53.014,0,0,1,101.835,32.37,52.67,52.67,0,0,1,106,53a53.289,53.289,0,0,1-1.36,11.981A52.711,52.711,0,0,1,100.763,76h0Z" transform="translate(9878 4329)" fill="#176726" opacity="0.537"/>
  </g>
</svg>
