<svg xmlns="http://www.w3.org/2000/svg" width="18" height="17" viewBox="0 0 18 17">
  <g id="Group_2886" data-name="Group 2886" transform="translate(-30 -585)">
    <rect id="Rectangle_2486" data-name="Rectangle 2486" width="18" height="17" rx="5" transform="translate(30 585)" fill="#5b629f"/>
    <g id="Group_2414" data-name="Group 2414" transform="translate(32.409 587.756)">
      <path id="Path_5769" data-name="Path 5769" d="M12.478,5.45a.4.4,0,0,1-.4-.4V3.927A3.091,3.091,0,0,0,8.8,1.059,3.1,3.1,0,0,0,5.517,3.927V5.052a.4.4,0,0,1-.8,0V3.927A3.9,3.9,0,0,1,8.8.25a3.9,3.9,0,0,1,4.078,3.677V5.052a.4.4,0,0,1-.4.4Z" transform="translate(-2.201)" fill="#fff"/>
      <path id="Path_5770" data-name="Path 5770" d="M9.2,18.566a.4.4,0,0,1-.4-.4V14.386A.4.4,0,0,1,9.2,14a2.4,2.4,0,0,1,2.492,2.291A2.389,2.389,0,0,1,9.2,18.566Zm.4-3.741v2.9a1.461,1.461,0,0,0,0-2.9ZM3.982,18.566A2.4,2.4,0,0,1,1.49,16.278,2.391,2.391,0,0,1,3.982,14a.4.4,0,0,1,.4.4v3.769A.4.4,0,0,1,3.982,18.566Zm-.4-3.741a1.461,1.461,0,0,0,0,2.9Z" transform="translate(0 -9.369)" fill="#fff"/>
      <path id="Path_5771" data-name="Path 5771" d="M21.607,27.807H20.288a.4.4,0,1,1,0-.8h1.319a.777.777,0,0,0,.777-.777v-.175a.4.4,0,0,1,.8,0v.175A1.574,1.574,0,0,1,21.607,27.807Z" transform="translate(-12.538 -17.314)" fill="#fff"/>
      <path id="Path_5772" data-name="Path 5772" d="M14.987,30H14.2a1.09,1.09,0,0,1-1.09-1.09v-.045A1.09,1.09,0,0,1,14.2,27.78h.787a1.086,1.086,0,0,1,1.086,1.086v.045A1.09,1.09,0,0,1,14.987,30Zm-.781-1.424a.293.293,0,0,0-.293.29v.045a.293.293,0,0,0,.293.293h.781a.293.293,0,0,0,.29-.293v-.045a.29.29,0,0,0-.29-.29Z" transform="translate(-7.918 -18.759)" fill="#fff"/>
    </g>
  </g>
</svg>
