<svg xmlns="http://www.w3.org/2000/svg" width="21.203" height="21.227" viewBox="0 0 21.203 21.227">
  <g id="Group_2626" data-name="Group 2626" transform="translate(0)">
    <g id="Group_2427" data-name="Group 2427" transform="translate(0 17.458)" opacity="0.2" style="mix-blend-mode: normal;isolation: isolate">
      <g id="Group_2426" data-name="Group 2426" transform="translate(0 0)">
        <path id="Path_5898" data-name="Path 5898" d="M705.585,2763.807c-5.877,0-10.641.809-10.641,1.807,0,.946,4.3,1.714,9.75,1.792C704.927,2768.518,711.462,2763.807,705.585,2763.807Z" transform="translate(-694.944 -2763.807)" fill="#371a45"/>
      </g>
    </g>
    <g id="Group_2429" data-name="Group 2429" transform="translate(12.869 0.171)">
      <g id="Group_2428" data-name="Group 2428" transform="translate(0 0)">
        <path id="Path_5899" data-name="Path 5899" d="M2236,694.384a2.109,2.109,0,0,1,3.122.187,2.8,2.8,0,0,1,.015,3.511Z" transform="translate(-2236.002 -693.754)" fill="#fff"/>
      </g>
    </g>
    <g id="Group_2431" data-name="Group 2431" transform="translate(13.491 0.126)" opacity="0.6" style="mix-blend-mode: normal;isolation: isolate">
      <g id="Group_2430" data-name="Group 2430" transform="translate(0 0)">
        <path id="Path_5900" data-name="Path 5900" d="M2311.346,688.354a2.2,2.2,0,0,0-.824.205,2.545,2.545,0,0,1,2.18.844,3.018,3.018,0,0,1,.461,3.01,2.669,2.669,0,0,0-.191-3.243A1.991,1.991,0,0,0,2311.346,688.354Z" transform="translate(-2310.522 -688.353)" fill="#fff"/>
      </g>
    </g>
    <g id="Group_2433" data-name="Group 2433" transform="translate(12.869 0.19)" opacity="0.2" style="mix-blend-mode: normal;isolation: isolate">
      <g id="Group_2432" data-name="Group 2432" transform="translate(0 0)">
        <path id="Path_5901" data-name="Path 5901" d="M2237.2,695.986a2.744,2.744,0,0,0-1.2.592l3.136,3.7a3.262,3.262,0,0,0,.63-1.758A5.68,5.68,0,0,1,2237.2,695.986Z" transform="translate(-2236.002 -695.986)" fill="#371a45"/>
      </g>
    </g>
    <g id="Group_2435" data-name="Group 2435" transform="translate(12.707 0.009)">
      <g id="Group_2434" data-name="Group 2434" transform="translate(0 0)">
        <path id="Path_5902" data-name="Path 5902" d="M2219.882,678.979a.162.162,0,0,1-.124-.057l-3.136-3.7a.162.162,0,0,1,.014-.224,2.672,2.672,0,0,1,1.793-.669,2.217,2.217,0,0,1,1.563.871,2.716,2.716,0,0,1,.585,2.548,3.461,3.461,0,0,1-.567,1.169.162.162,0,0,1-.124.061Zm-2.905-3.838,2.893,3.411a3.255,3.255,0,0,0,.4-.9,2.376,2.376,0,0,0-.522-2.244,1.908,1.908,0,0,0-1.333-.756A2.289,2.289,0,0,0,2216.977,675.141Z" transform="translate(-2216.583 -674.327)" fill="#371a45"/>
      </g>
    </g>
    <g id="Group_2437" data-name="Group 2437" transform="translate(13.042 10.86)">
      <g id="Group_2436" data-name="Group 2436" transform="translate(0 0)">
        <path id="Path_5903" data-name="Path 5903" d="M2257.551,1973.84c-.86,2.043-1.682,6.007,1.064,7.816a3.226,3.226,0,0,0,1.94.615,12.871,12.871,0,0,0,1.906-.2.663.663,0,0,0,.458-.272.868.868,0,0,0,.135-.537c-.032-.532-.248-1.1-1.455-1.381a4.187,4.187,0,0,1-.653-2.43C2261.068,1973.065,2257.551,1973.84,2257.551,1973.84Z" transform="translate(-2256.729 -1973.788)" fill="#fcfbfa"/>
      </g>
    </g>
    <g id="Group_2439" data-name="Group 2439" transform="translate(12.88 10.697)">
      <g id="Group_2438" data-name="Group 2438" transform="translate(0 0)">
        <path id="Path_5904" data-name="Path 5904" d="M2241.141,1963.011a3.505,3.505,0,0,1-1.874-.647,4.53,4.53,0,0,1-1.957-3.952,10.533,10.533,0,0,1,.833-4.062.161.161,0,0,1,.114-.1,3.158,3.158,0,0,1,2.5.56,3.822,3.822,0,0,1,1.1,3.213,4.144,4.144,0,0,0,.591,2.283c1.281.315,1.485.973,1.518,1.514a1.033,1.033,0,0,1-.16.632.82.82,0,0,1-.569.346l-.156.027a13.29,13.29,0,0,1-1.766.177C2241.251,1963.01,2241.2,1963.011,2241.141,1963.011Zm-2.733-8.455c-.342.845-2.046,5.505,1.037,7.537a3.1,3.1,0,0,0,1.84.589,13.067,13.067,0,0,0,1.733-.173l.157-.027a.5.5,0,0,0,.347-.2.712.712,0,0,0,.111-.441c-.029-.488-.211-.974-1.33-1.233a.162.162,0,0,1-.094-.062,4.321,4.321,0,0,1-.685-2.531,3.529,3.529,0,0,0-.976-2.952A2.829,2.829,0,0,0,2238.409,1954.557Z" transform="translate(-2237.309 -1954.196)" fill="#371a45"/>
      </g>
    </g>
    <g id="Group_2441" data-name="Group 2441" transform="translate(13.125 10.931)" opacity="0.2" style="mix-blend-mode: normal;isolation: isolate">
      <g id="Group_2440" data-name="Group 2440" transform="translate(0 0)">
        <path id="Path_5905" data-name="Path 5905" d="M2268.1,1982.292a2.938,2.938,0,0,0-.549.053c-.86,2.043-1.682,6.007,1.064,7.816a3.226,3.226,0,0,0,1.939.615,12.841,12.841,0,0,0,1.906-.2.663.663,0,0,0,.459-.272.866.866,0,0,0,.135-.536c0-.033-.008-.068-.011-.1-1.6.521-4.409.556-3.618-1.278a13.4,13.4,0,0,0,.754-5.247,2.451,2.451,0,0,0-1.443-.792l-.149-.024A3.46,3.46,0,0,0,2268.1,1982.292Z" transform="translate(-2266.729 -1982.292)" fill="#371a45"/>
      </g>
    </g>
    <g id="Group_2443" data-name="Group 2443" transform="translate(4.295 10.013)">
      <g id="Group_2442" data-name="Group 2442" transform="translate(0 0)">
        <path id="Path_5906" data-name="Path 5906" d="M1215.786,1872.355a28.03,28.03,0,0,1,5.283.718s1.364,8.384-6.6,8.786-4.292-8.269-4.292-8.269C1211.323,1872.63,1213.714,1872.355,1215.786,1872.355Z" transform="translate(-1209.327 -1872.355)" fill="#fcfbfa"/>
      </g>
    </g>
    <g id="Group_2445" data-name="Group 2445" transform="translate(4.135 9.851)">
      <g id="Group_2444" data-name="Group 2444" transform="translate(0)">
        <path id="Path_5907" data-name="Path 5907" d="M1194.891,1862.781c-1.905,0-3.261-.559-4.035-1.666a5.828,5.828,0,0,1-.592-4.367,12.624,12.624,0,0,1,.707-2.475.163.163,0,0,1,.045-.061c1.326-1.107,4.151-1.272,5.717-1.272a28.416,28.416,0,0,1,5.32.722.162.162,0,0,1,.123.132,10.454,10.454,0,0,1,.054,2.306,7.938,7.938,0,0,1-1.563,4.311,6.846,6.846,0,0,1-5.246,2.356Q1195.149,1862.781,1194.891,1862.781Zm-3.636-8.345c-.167.416-1.664,4.3-.132,6.494.776,1.109,2.216,1.618,4.282,1.514a6.537,6.537,0,0,0,5.009-2.235c1.845-2.282,1.536-5.619,1.457-6.256a27.4,27.4,0,0,0-5.137-.688C1195.224,1853.264,1192.516,1853.417,1191.255,1854.436Z" transform="translate(-1190.114 -1852.94)" fill="#371a45"/>
      </g>
    </g>
    <g id="Group_2447" data-name="Group 2447" transform="translate(4.295 10.037)" opacity="0.2" style="mix-blend-mode: normal;isolation: isolate">
      <g id="Group_2446" data-name="Group 2446" transform="translate(0 0)">
        <path id="Path_5908" data-name="Path 5908" d="M1215.786,1875.219c-2.073,0-4.463.275-5.613,1.235,0,0-3.674,8.672,4.293,8.27.291-.014.565-.043.832-.079a3.59,3.59,0,0,0-.887-2.44,1.521,1.521,0,0,1-.509-1.371c3.587,2.708,6.317-1.807,7.252-3.675a9.528,9.528,0,0,0-.086-1.222A27.993,27.993,0,0,0,1215.786,1875.219Z" transform="translate(-1209.327 -1875.219)" fill="#371a45"/>
      </g>
    </g>
    <g id="Group_2449" data-name="Group 2449" transform="translate(1.173 13.422)">
      <g id="Group_2448" data-name="Group 2448" transform="translate(0 0)">
        <path id="Path_5909" data-name="Path 5909" d="M838.857,2280.6c-.847-.031-1.95,1.6-2.159,2.8a.751.751,0,0,0-.917.267c-.564.7-.423,2.818.893,3.024a38.561,38.561,0,0,0,5.327,0S841.654,2280.707,838.857,2280.6Z" transform="translate(-835.468 -2280.602)" fill="#fff"/>
      </g>
    </g>
    <g id="Group_2451" data-name="Group 2451" transform="translate(1.187 14.096)" opacity="0.6" style="mix-blend-mode: normal;isolation: isolate">
      <g id="Group_2450" data-name="Group 2450" transform="translate(0)">
        <path id="Path_5910" data-name="Path 5910" d="M839.363,2361.229a4.8,4.8,0,0,0-1.068,2.133.752.752,0,0,0-.917.268,2.278,2.278,0,0,0-.237,1.78c0-.029,0-.054,0-.085a1.506,1.506,0,0,1,1.613-1.715A8.407,8.407,0,0,1,839.363,2361.229Z" transform="translate(-837.067 -2361.229)" fill="#fff"/>
      </g>
    </g>
    <g id="Group_2453" data-name="Group 2453" transform="translate(1.585 13.422)" opacity="0.2" style="mix-blend-mode: normal;isolation: isolate">
      <g id="Group_2452" data-name="Group 2452" transform="translate(0)">
        <path id="Path_5911" data-name="Path 5911" d="M887.675,2280.524c-.508-.019-1.106.566-1.551,1.292a.013.013,0,0,1,0,0,4.558,4.558,0,0,0,.628,2.8c.9,1.36-.716,1.887-2.066,1.487a1.216,1.216,0,0,0,.807.509,38.562,38.562,0,0,0,5.327,0S890.472,2280.629,887.675,2280.524Z" transform="translate(-884.687 -2280.524)" fill="#371a45"/>
      </g>
    </g>
    <g id="Group_2455" data-name="Group 2455" transform="translate(1.011 13.26)">
      <g id="Group_2454" data-name="Group 2454" transform="translate(0 0)">
        <path id="Path_5912" data-name="Path 5912" d="M819.5,2267.7a15.179,15.179,0,0,1-2.082-.107,1.511,1.511,0,0,1-1.165-1.036,2.541,2.541,0,0,1,.17-2.25.938.938,0,0,1,.921-.373c.281-1.176,1.344-2.786,2.287-2.75a2.321,2.321,0,0,1,1.8,1.061,6.791,6.791,0,0,1,.975,2.139,15.8,15.8,0,0,1,.53,3.04.163.163,0,0,1-.152.171C822.677,2267.6,821.038,2267.7,819.5,2267.7Zm-2.324-3.459a.635.635,0,0,0-.5.27,2.263,2.263,0,0,0-.12,1.93,1.205,1.205,0,0,0,.912.831,35.983,35.983,0,0,0,5.127.008c-.081-.944-.608-5.685-2.977-5.773H819.6c-.732,0-1.779,1.549-1.974,2.663a.163.163,0,0,1-.233.117A.521.521,0,0,0,817.176,2264.242Z" transform="translate(-816.075 -2261.184)" fill="#371a45"/>
      </g>
    </g>
    <g id="Group_2457" data-name="Group 2457" transform="translate(2.234 16.052)">
      <g id="Group_2456" data-name="Group 2456" transform="translate(0 0)">
        <path id="Path_5913" data-name="Path 5913" d="M962.635,2595.531a.778.778,0,0,1,.092.039c.028.014.056.029.083.045a1.4,1.4,0,0,1,.153.105,1.8,1.8,0,0,1,.462.576,1.336,1.336,0,0,1,.118.346.024.024,0,0,1-.019.028.025.025,0,0,1-.023-.007h0a3.173,3.173,0,0,0-.233-.253c-.037-.041-.083-.075-.122-.113s-.084-.07-.128-.1c-.086-.066-.176-.127-.265-.188l-.067-.046c-.023-.014-.044-.03-.066-.045l-.066-.045c-.021-.015-.045-.031-.061-.044l-.018-.016a.162.162,0,0,1,.159-.277Z" transform="translate(-962.419 -2595.522)" fill="#371a45"/>
      </g>
    </g>
    <g id="Group_2459" data-name="Group 2459" transform="translate(1.796 16.061)">
      <g id="Group_2458" data-name="Group 2458" transform="translate(0)">
        <path id="Path_5914" data-name="Path 5914" d="M910.28,2596.678s0,.008,0,.014v.02l0,.042c0,.029,0,.058.007.087.006.06.011.121.023.185a1.832,1.832,0,0,0,.048.191c.009.033.022.064.032.1s.025.066.036.1h0a.019.019,0,0,1-.012.023.02.02,0,0,1-.016,0c-.03-.021-.061-.044-.089-.068a1.066,1.066,0,0,1-.08-.08.986.986,0,0,1-.131-.189.785.785,0,0,1-.08-.224.564.564,0,0,1-.01-.122.469.469,0,0,1,.005-.063c0-.011,0-.021.006-.032s0-.02.01-.038a.125.125,0,1,1,.245.054Z" transform="translate(-910.014 -2596.526)" fill="#371a45"/>
      </g>
    </g>
    <g id="Group_2461" data-name="Group 2461" transform="translate(1.285 16.487)">
      <g id="Group_2460" data-name="Group 2460" transform="translate(0 0)">
        <path id="Path_5915" data-name="Path 5915" d="M849.072,2647.736a.175.175,0,0,1,.008.033c0,.013,0,.026.006.038s.007.052.01.078c.007.053.01.107.019.162s.018.111.033.168.031.115.048.177h0a.019.019,0,0,1-.014.023.019.019,0,0,1-.015,0,.773.773,0,0,1-.266-.292.727.727,0,0,1-.074-.189.552.552,0,0,1-.014-.1.48.48,0,0,1,0-.053.418.418,0,0,1,.008-.058.119.119,0,0,1,.221-.036Z" transform="translate(-848.814 -2647.623)" fill="#371a45"/>
      </g>
    </g>
    <g id="Group_2463" data-name="Group 2463" transform="translate(1.74 17.458)">
      <g id="Group_2462" data-name="Group 2462" transform="translate(0 0)">
        <path id="Path_5916" data-name="Path 5916" d="M903.562,2764.813c.244-.006.335-.3.551-.417s.508-.048.566-.188c.11-.267-.451-.608-.987-.261C903.121,2764.317,903.333,2764.819,903.562,2764.813Z" transform="translate(-903.326 -2763.8)" fill="#fff"/>
      </g>
    </g>
    <g id="Group_2465" data-name="Group 2465" transform="translate(3.673 10.964)">
      <g id="Group_2464" data-name="Group 2464" transform="translate(0 0)">
        <path id="Path_5917" data-name="Path 5917" d="M1136.089,1986.239c-1.032,1.833-2.277,5.506-.056,7.612a2.848,2.848,0,0,0,1.654.854,10.864,10.864,0,0,0,1.729.069.579.579,0,0,0,.444-.2.871.871,0,0,0,.19-.494c.04-.513-.08-1.086-1.123-1.519a4.287,4.287,0,0,1-.271-2.411C1139.332,1985.983,1136.089,1986.239,1136.089,1986.239Z" transform="translate(-1134.796 -1986.236)" fill="#fff"/>
      </g>
    </g>
    <g id="Group_2467" data-name="Group 2467" transform="translate(3.674 12.348)" opacity="0.2" style="mix-blend-mode: normal;isolation: isolate">
      <g id="Group_2466" data-name="Group 2466" transform="translate(0)">
        <path id="Path_5918" data-name="Path 5918" d="M1135.6,2151.938c-.759,1.94-1.172,4.583.584,6.249a2.843,2.843,0,0,0,1.653.854,10.845,10.845,0,0,0,1.731.069.58.58,0,0,0,.445-.2.872.872,0,0,0,.19-.494,1.28,1.28,0,0,0-.184-.827,2.591,2.591,0,0,1-3.093-.1C1135.25,2156.37,1135.392,2153.479,1135.6,2151.938Z" transform="translate(-1134.949 -2151.938)" fill="#371a45"/>
      </g>
    </g>
    <g id="Group_2469" data-name="Group 2469" transform="translate(6.412 17.234)" opacity="0.6" style="mix-blend-mode: normal;isolation: isolate">
      <g id="Group_2468" data-name="Group 2468" transform="translate(0 0)">
        <path id="Path_5919" data-name="Path 5919" d="M1462.735,2737.15a3.474,3.474,0,0,1,2.447,1.011A1.7,1.7,0,0,0,1462.735,2737.15Z" transform="translate(-1462.735 -2736.978)" fill="#fff"/>
      </g>
    </g>
    <g id="Group_2471" data-name="Group 2471" transform="translate(3.51 10.802)">
      <g id="Group_2470" data-name="Group 2470" transform="translate(0 0)">
        <path id="Path_5920" data-name="Path 5920" d="M1119.6,1975.651c-.241,0-.509-.017-1.3-.08a3.025,3.025,0,0,1-1.753-.9,4.553,4.553,0,0,1-1.241-4.044,10.606,10.606,0,0,1,1.268-3.764.162.162,0,0,1,.128-.082,2.783,2.783,0,0,1,2.113.813,3.8,3.8,0,0,1,.629,3.289,4.233,4.233,0,0,0,.233,2.261c1.105.48,1.2,1.135,1.163,1.656a1.03,1.03,0,0,1-.224.582.735.735,0,0,1-.568.259l-.143,0C1119.783,1975.649,1119.691,1975.651,1119.6,1975.651Zm-2.788-8.548c-.423.778-2.527,4.978-.042,7.334a2.721,2.721,0,0,0,1.556.81,11.022,11.022,0,0,0,1.568.073l.144,0a.422.422,0,0,0,.321-.135.71.71,0,0,0,.156-.406c.036-.469-.062-.958-1.023-1.356a.162.162,0,0,1-.083-.078,4.421,4.421,0,0,1-.286-2.51,3.51,3.51,0,0,0-.545-3.015,2.458,2.458,0,0,0-1.764-.714Z" transform="translate(-1115.255 -1966.778)" fill="#371a45"/>
      </g>
    </g>
    <g id="Group_2476" data-name="Group 2476" transform="translate(4.581 11.148)" opacity="0.2" style="mix-blend-mode: normal;isolation: isolate">
      <g id="Group_2473" data-name="Group 2473" transform="translate(0.024 0.021)">
        <g id="Group_2472" data-name="Group 2472">
          <path id="Path_5921" data-name="Path 5921" d="M1246.979,2010.73c-.087,0-.138,0-.138,0-.134.238-.272.239-.405.531a4.755,4.755,0,0,0,1.533,1.529c1.515,1.084.933,2.264,1.422,3.2a4.586,4.586,0,0,1,.019-1.342C1250,2011,1247.59,2010.739,1246.979,2010.73Z" transform="translate(-1246.435 -2010.73)" fill="#563121"/>
        </g>
      </g>
      <g id="Group_2475" data-name="Group 2475" transform="translate(0 0)">
        <g id="Group_2474" data-name="Group 2474">
          <path id="Path_5922" data-name="Path 5922" d="M1246.527,2013.624l-.055-.1a2.907,2.907,0,0,1-.255-1.04,2.61,2.61,0,0,0-1.161-2.149,4.388,4.388,0,0,1-1.334-1.255,3.239,3.239,0,0,0-.2-.278l-.008-.01.005-.012a.9.9,0,0,1,.228-.313.888.888,0,0,0,.178-.22l.005-.01h.011s.052,0,.14,0a2.576,2.576,0,0,1,1.924.847,3.768,3.768,0,0,1,.527,3.1,4.576,4.576,0,0,0-.019,1.335Zm-2.967-4.843c.079.1.139.185.2.271a4.353,4.353,0,0,0,1.324,1.244,2.676,2.676,0,0,1,1.178,2.178,3.264,3.264,0,0,0,.2.911,4.62,4.62,0,0,1,.034-1.22,3.73,3.73,0,0,0-.518-3.062,2.533,2.533,0,0,0-1.893-.832h0c-.062,0-.106,0-.125,0a.951.951,0,0,1-.18.22A.858.858,0,0,0,1243.56,2008.781Z" transform="translate(-1243.511 -2008.229)" fill="#371a45"/>
        </g>
      </g>
    </g>
    <g id="Group_2478" data-name="Group 2478" transform="translate(5.155 9.579)">
      <g id="Group_2477" data-name="Group 2477" transform="translate(0 0)">
        <path id="Path_5923" data-name="Path 5923" d="M1312.206,1822.01s3.778,4.147,6.09,4.131c1.96-.014,4.466-2.719,4.766-4.413C1323.062,1821.728,1319.249,1818.533,1312.206,1822.01Z" transform="translate(-1312.206 -1820.388)" fill="#fff"/>
      </g>
    </g>
    <g id="Group_2480" data-name="Group 2480" transform="translate(5.312 9.496)" opacity="0.2" style="mix-blend-mode: normal;isolation: isolate">
      <g id="Group_2479" data-name="Group 2479" transform="translate(0 0)">
        <path id="Path_5924" data-name="Path 5924" d="M1337.474,1810.395a13.684,13.684,0,0,0-6.365,1.541c.027.11.057.222.089.338.22.234.627.65,1.319,1.274a3.86,3.86,0,0,0,1.085-.243,2.917,2.917,0,0,0,1.891.559,4.462,4.462,0,0,0,4.856-.745,3.8,3.8,0,0,0,.941-.133,3.952,3.952,0,0,0,.51-1.255A7.42,7.42,0,0,0,1337.474,1810.395Z" transform="translate(-1331.109 -1810.39)" fill="#371a45"/>
      </g>
    </g>
    <g id="Group_2482" data-name="Group 2482" transform="translate(6.335 17.025)">
      <g id="Group_2481" data-name="Group 2481" transform="translate(0)">
        <path id="Path_5925" data-name="Path 5925" d="M1455,2712.384c-.021,0-.052-.008-.079-.013l-.083-.015-.084-.015-.084-.013a3.209,3.209,0,0,0-.34-.037,1.678,1.678,0,0,0-.345.02l-.088.015-.086.023-.044.011-.043.015-.089.03h0a.024.024,0,0,1-.024-.039c.023-.023.045-.046.069-.069l.036-.034.04-.029c.026-.02.054-.039.082-.058l.088-.049a1.369,1.369,0,0,1,.384-.128,1.521,1.521,0,0,1,.4-.021,1.353,1.353,0,0,1,.2.032c.033.007.066.017.1.028a.949.949,0,0,1,.1.041.162.162,0,0,1-.086.308Z" transform="translate(-1453.598 -2711.973)" fill="#371a45"/>
      </g>
    </g>
    <g id="Group_2484" data-name="Group 2484" transform="translate(9.926 13.492)" opacity="0.4" style="mix-blend-mode: normal;isolation: isolate">
      <g id="Group_2483" data-name="Group 2483" transform="translate(0 0)">
        <path id="Path_5926" data-name="Path 5926" d="M1883.667,2288.884a3.34,3.34,0,0,0,1.4.655,7.2,7.2,0,0,1-1.426-.121c2.047,1.061,3.027-.192,3.091-.278l.043-.038A4.968,4.968,0,0,1,1883.667,2288.884Z" transform="translate(-1883.642 -2288.884)" fill="#fff"/>
      </g>
    </g>
    <g id="Group_2486" data-name="Group 2486" transform="translate(7.99 18.748)">
      <g id="Group_2485" data-name="Group 2485" transform="translate(0 0)">
        <path id="Path_5927" data-name="Path 5927" d="M1651.7,2919.007a.18.18,0,0,1,.005-.036c0-.013.006-.027.01-.04s.015-.053.023-.08c.017-.054.036-.107.052-.163a1.559,1.559,0,0,0,.042-.173c.013-.061.019-.122.03-.19h0a.021.021,0,0,1,.025-.018.022.022,0,0,1,.014.008.663.663,0,0,1,.1.186.85.85,0,0,1,.045.209.77.77,0,0,1-.008.215.63.63,0,0,1-.029.1c-.007.017-.014.033-.023.05a.473.473,0,0,1-.031.052.136.136,0,0,1-.248-.062Z" transform="translate(-1651.7 -2918.305)" fill="#371a45"/>
      </g>
    </g>
    <g id="Group_2488" data-name="Group 2488" transform="translate(7.196 18.747)">
      <g id="Group_2487" data-name="Group 2487" transform="translate(0 0)">
        <path id="Path_5928" data-name="Path 5928" d="M1556.643,2918.913s0,0,0,0a.055.055,0,0,1,0-.008l0-.018.006-.037.015-.077c.01-.052.022-.105.028-.162a1.256,1.256,0,0,0,.009-.177c0-.031,0-.062,0-.095s-.005-.065-.006-.1v0a.022.022,0,0,1,.021-.022.023.023,0,0,1,.015.006.664.664,0,0,1,.135.164.793.793,0,0,1,.084.2.682.682,0,0,1,.022.224.534.534,0,0,1-.02.113.571.571,0,0,1-.02.055c0,.009-.009.019-.014.028l-.008.014-.011.017a.141.141,0,1,1-.255-.121Z" transform="translate(-1556.63 -2918.21)" fill="#371a45"/>
      </g>
    </g>
    <g id="Group_2490" data-name="Group 2490" transform="translate(4.992 9.417)">
      <g id="Group_2489" data-name="Group 2489" transform="translate(0 0)">
        <path id="Path_5929" data-name="Path 5929" d="M1299.028,1807.056c-2.358,0-6.04-4.012-6.2-4.184a.162.162,0,0,1,.048-.255,15.673,15.673,0,0,1,4.717-1.526,10.337,10.337,0,0,1,3.456.068,6.734,6.734,0,0,1,2.859,1.2.163.163,0,0,1,.055.153,6.146,6.146,0,0,1-1.807,2.924,4.932,4.932,0,0,1-3.118,1.623Zm-5.808-4.243c.716.753,3.846,3.919,5.807,3.919h.013a4.62,4.62,0,0,0,2.893-1.53,6.1,6.1,0,0,0,1.7-2.653,6.864,6.864,0,0,0-2.661-1.075A12.339,12.339,0,0,0,1293.22,1802.813Z" transform="translate(-1292.789 -1800.979)" fill="#371a45"/>
      </g>
    </g>
    <g id="Group_2492" data-name="Group 2492" transform="translate(5.178 11.169)">
      <g id="Group_2491" data-name="Group 2491" transform="translate(0 0)">
        <path id="Path_5930" data-name="Path 5930" d="M1315.01,2010.73a6.629,6.629,0,0,0,.6.459c.2.144.416.277.628.408.427.259.868.489,1.317.707l.338.16c.113.052.229.1.343.151.227.106.462.192.692.291.115.051.234.091.35.137l.351.139c.236.087.473.173.708.272-.125-.018-.25-.04-.375-.062s-.25-.046-.374-.073-.246-.061-.369-.094l-.184-.049-.092-.025-.091-.029c-.121-.039-.242-.078-.363-.119s-.24-.086-.358-.132-.237-.094-.355-.143l-.347-.161a8.661,8.661,0,0,1-1.317-.78,6.414,6.414,0,0,1-.591-.487c-.094-.086-.183-.178-.269-.272A2.766,2.766,0,0,1,1315.01,2010.73Z" transform="translate(-1315.01 -2010.73)" fill="#371a45"/>
      </g>
    </g>
    <g id="Group_2494" data-name="Group 2494" transform="translate(12.988 10.961)">
      <g id="Group_2493" data-name="Group 2493" transform="translate(0)">
        <path id="Path_5931" data-name="Path 5931" d="M2253.309,1985.781a2.129,2.129,0,0,1-.089.244c-.033.08-.071.158-.111.235a4.127,4.127,0,0,1-.269.445,4.442,4.442,0,0,1-.691.781,3.956,3.956,0,0,1-.865.589,3.062,3.062,0,0,1-.991.308,8.6,8.6,0,0,0,.876-.506,7.219,7.219,0,0,0,.785-.608,9.242,9.242,0,0,0,.706-.7C2252.885,1986.314,2253.1,1986.055,2253.309,1985.781Z" transform="translate(-2250.293 -1985.781)" fill="#371a45"/>
      </g>
    </g>
    <g id="Group_2496" data-name="Group 2496" transform="translate(3.999 0.162)">
      <g id="Group_2495" data-name="Group 2495" transform="translate(0 0)">
        <path id="Path_5932" data-name="Path 5932" d="M1180.85,692.656c-1.819,0-5.68,1.105-6.777,6.061-1.173,5.3,2.12,6.471,3.563,5.487a1.57,1.57,0,0,0,1.99.59s3.17,1.246,4.788-.721c0,0,.874.59,1.661-.743,0,0,2.886-1.858.393-4.875C1186.469,698.455,1185.794,692.656,1180.85,692.656Z" transform="translate(-1173.826 -692.656)" fill="#fcfbfa"/>
      </g>
    </g>
    <g id="Group_2498" data-name="Group 2498" transform="translate(4.001 2.544)" opacity="0.2" style="mix-blend-mode: normal;isolation: isolate">
      <g id="Group_2497" data-name="Group 2497" transform="translate(0 0)">
        <path id="Path_5933" data-name="Path 5933" d="M1176.108,977.87a8.252,8.252,0,0,0-1.763,3.68c-1.173,5.3,2.121,6.47,3.563,5.486a1.569,1.569,0,0,0,1.989.59s3.171,1.247,4.788-.721c0,0,.874.59,1.661-.744a3.018,3.018,0,0,0,.749-4.4c.43,2.741-1.459,3.118-1.459,3.118-2.6,2.885-7.906,1.068-7.906,1.068a2.607,2.607,0,0,1-2.456-1.095,4.469,4.469,0,0,1-.452-3.616C1175.108,980.018,1175.843,978.705,1176.108,977.87Z" transform="translate(-1174.097 -977.87)" fill="#371a45"/>
      </g>
    </g>
    <g id="Group_2500" data-name="Group 2500" transform="translate(7.602 6.543)">
      <g id="Group_2499" data-name="Group 2499" transform="translate(0 0)">
        <path id="Path_5934" data-name="Path 5934" d="M1609.83,1456.8c-.124,0-.248.005-.374.018a4.667,4.667,0,0,0-4.174,5.208c.035-.02.073-.036.106-.058a1.569,1.569,0,0,0,1.989.59s3.169,1.246,4.787-.722c0,0,.875.591,1.662-.742l.008-.006a2.4,2.4,0,0,0-.106-1.92A4.628,4.628,0,0,0,1609.83,1456.8Z" transform="translate(-1605.251 -1456.797)" fill="#6bc105"/>
      </g>
    </g>
    <g id="Group_2502" data-name="Group 2502" transform="translate(5.561 0.127)" opacity="0.6" style="mix-blend-mode: normal;isolation: isolate">
      <g id="Group_2501" data-name="Group 2501" transform="translate(0 0)">
        <path id="Path_5935" data-name="Path 5935" d="M1366.326,688.413a6.876,6.876,0,0,0-5.421,2.9c1.423-1.176,3.444-2.414,5.419-2.323.2.009.385.028.567.052a.163.163,0,0,0-.03.044c-.075.206.3.532.846.73s1.043.191,1.117-.015a.193.193,0,0,0-.009-.13c1.641.932,2.311,2.594,2.929,3.573C1371.309,691.6,1369.993,688.413,1366.326,688.413Z" transform="translate(-1360.905 -688.413)" fill="#fff"/>
      </g>
    </g>
    <g id="Group_2504" data-name="Group 2504" transform="translate(3.836)">
      <g id="Group_2503" data-name="Group 2503" transform="translate(0 0)">
        <path id="Path_5936" data-name="Path 5936" d="M1162.466,686.092q-.179,0-.366-.012a6.848,6.848,0,0,1-1.768-.363,1.671,1.671,0,0,1-2.04-.549,2.361,2.361,0,0,1-2.456-.182,3.314,3.314,0,0,1-1.287-1.929,7.669,7.669,0,0,1,.064-3.629c1.082-4.885,4.868-6.188,6.935-6.188a5.261,5.261,0,0,1,4.806,2.984,9.139,9.139,0,0,1,.968,2.91,3.93,3.93,0,0,1,1.021,2.484,2.941,2.941,0,0,1-.612,1.746,3.771,3.771,0,0,1-.837.826,1.752,1.752,0,0,1-1.058.894,1.118,1.118,0,0,1-.684-.063A3.465,3.465,0,0,1,1162.466,686.092Zm-2.142-.713a.162.162,0,0,1,.059.011c.031.012,3.08,1.179,4.6-.674a.162.162,0,0,1,.216-.031.775.775,0,0,0,.568.082,1.483,1.483,0,0,0,.864-.773.162.162,0,0,1,.052-.054,3.424,3.424,0,0,0,.785-.768c.6-.806,1.005-2.132-.429-3.867a.162.162,0,0,1-.036-.085,8.892,8.892,0,0,0-.941-2.849,4.892,4.892,0,0,0-4.516-2.806c-1.97,0-5.581,1.25-6.619,5.934-.779,3.518.5,4.822,1.089,5.219a2.032,2.032,0,0,0,2.225.1.162.162,0,0,1,.227.045,1.4,1.4,0,0,0,1.78.535A.162.162,0,0,1,1160.323,685.379Z" transform="translate(-1154.36 -673.24)" fill="#371a45"/>
      </g>
    </g>
    <g id="Group_2506" data-name="Group 2506" transform="translate(7.446 9.725)">
      <g id="Group_2505" data-name="Group 2505" transform="translate(0 0)">
        <path id="Path_5937" data-name="Path 5937" d="M1586.832,1839.828l-.021-.034-.017-.032c-.011-.021-.021-.042-.031-.063-.019-.042-.035-.085-.051-.128a1.775,1.775,0,0,1-.067-.264,1.943,1.943,0,0,1-.018-.54,2.088,2.088,0,0,1,.118-.52,2.034,2.034,0,0,1,.1-.241,1.082,1.082,0,0,1,.065-.113c.022-.037.046-.073.069-.109a.023.023,0,0,1,.042.017v0c-.017.084-.041.164-.056.246s-.032.162-.037.244a2.549,2.549,0,0,0-.013.48,2.9,2.9,0,0,0,.07.465c.008.038.019.075.027.113s.021.074.031.112.022.074.035.11c.006.018.012.036.018.053l.009.026c0,.008.006.018.007.022l.007.033a.161.161,0,0,1-.292.121Z" transform="translate(-1586.617 -1837.773)" fill="#371a45"/>
      </g>
    </g>
    <g id="Group_2508" data-name="Group 2508" transform="translate(8.006 6.543)" opacity="0.6" style="mix-blend-mode: normal;isolation: isolate">
      <g id="Group_2507" data-name="Group 2507" transform="translate(0 0)">
        <path id="Path_5938" data-name="Path 5938" d="M1657.873,1456.8c-.124,0-.248.005-.374.018a4.778,4.778,0,0,0-3.8,2.71c.8-.93,2.356-2.378,4.3-2.3a5.531,5.531,0,0,1,3.761,1.924A4.629,4.629,0,0,0,1657.873,1456.8Z" transform="translate(-1653.701 -1456.797)" fill="#fff"/>
      </g>
    </g>
    <g id="Group_2510" data-name="Group 2510" transform="translate(8.125 6.382)">
      <g id="Group_2509" data-name="Group 2509" transform="translate(0)">
        <path id="Path_5939" data-name="Path 5939" d="M1675.917,1441.98c.019-.243.047-.472.06-.7a3.32,3.32,0,0,0,0-.342,2.535,2.535,0,0,0-.038-.339,2.593,2.593,0,0,0-.632-1.216,4.76,4.76,0,0,0-1.078-.917,4.517,4.517,0,0,0-1.3-.555,3.763,3.763,0,0,0-1.4-.081,4.642,4.642,0,0,0-1.362.379,4.477,4.477,0,0,0-1.176.783c-.088.079-.172.163-.254.249s-.156.18-.229.273-.151.184-.234.272a1.246,1.246,0,0,1-.3.234.06.06,0,0,1-.088-.062,1.037,1.037,0,0,1,.133-.361,1.922,1.922,0,0,1,.221-.3c.084-.094.172-.184.26-.275s.177-.18.27-.265a4.82,4.82,0,0,1,1.26-.839,4.977,4.977,0,0,1,1.457-.406,4.076,4.076,0,0,1,.762-.027,4.2,4.2,0,0,1,.754.115,4.815,4.815,0,0,1,1.392.595,5.05,5.05,0,0,1,.612.447,4.8,4.8,0,0,1,.54.534,3.646,3.646,0,0,1,.441.629,2.966,2.966,0,0,1,.274.73,2.132,2.132,0,0,1,.045.78,1.584,1.584,0,0,1-.093.38,1.231,1.231,0,0,1-.086.177.828.828,0,0,1-.119.161.056.056,0,0,1-.1-.043Z" transform="translate(-1667.888 -1437.474)" fill="#371a45"/>
      </g>
    </g>
    <g id="Group_2512" data-name="Group 2512" transform="translate(8.788 7.701)">
      <g id="Group_2511" data-name="Group 2511" transform="translate(0)">
        <path id="Path_5940" data-name="Path 5940" d="M1750.976,1595.731c-.173.189-.638-.44-1.027-.2s-.313.506-.511.572-.524-.176-.861.059-.269.681-.6.806-.691.321-.685.72.587.316.682.514-.073.667.279.851.91-.139,1.079-.175.643.256,1.063.256c.5,0,.528-.411.925-.535s.722.243,1.2.134c.454-.1.366-.648.652-.948s1.13-.543,1.123-.954-.491-.323-.844-.557-.238-.313-.6-.5-.627.177-.813.074S1751.578,1595.073,1750.976,1595.731Z" transform="translate(-1747.293 -1595.446)" fill="#6bc105"/>
      </g>
    </g>
    <g id="Group_2514" data-name="Group 2514" transform="translate(9.751 7.552)" opacity="0.2" style="mix-blend-mode: normal;isolation: isolate">
      <g id="Group_2513" data-name="Group 2513" transform="translate(0)">
        <path id="Path_5941" data-name="Path 5941" d="M1862.643,1579.1a.811.811,0,0,1,.609-.609c.552-.172,1.712-.344,1.984-.917a5.507,5.507,0,0,0,.981.652c.43.193,1.261-.136,1.726.408a2.85,2.85,0,0,1-3.023,1.712C1862.983,1580.16,1862.643,1579.1,1862.643,1579.1Z" transform="translate(-1862.643 -1577.578)" fill="#371a45"/>
      </g>
    </g>
    <g id="Group_2516" data-name="Group 2516" transform="translate(9.782 8.36)">
      <g id="Group_2515" data-name="Group 2515" transform="translate(0 0)">
        <path id="Path_5942" data-name="Path 5942" d="M1866.362,1675.17a1.3,1.3,0,0,0,1.4.218c.655-.4.893-.953,1.223-.973s.629.525,1.35.761a1.121,1.121,0,0,0,1.289-.443,3.088,3.088,0,0,1-2.734,1.68A2.605,2.605,0,0,1,1866.362,1675.17Z" transform="translate(-1866.362 -1674.415)" fill="#371a45"/>
      </g>
    </g>
    <g id="Group_2518" data-name="Group 2518" transform="translate(11.636 6.698)">
      <g id="Group_2517" data-name="Group 2517" transform="translate(0 0)">
        <path id="Path_5943" data-name="Path 5943" d="M2088.4,1475.938c.111.22.584.052.749.05.146,0,.6.186.731-.057.162-.3-.224-.523-.69-.548S2088.24,1475.628,2088.4,1475.938Z" transform="translate(-2088.366 -1475.381)" fill="#371a45"/>
      </g>
    </g>
    <g id="Group_2520" data-name="Group 2520" transform="translate(10.362 5.688)">
      <g id="Group_2519" data-name="Group 2519" transform="translate(0 0)">
        <path id="Path_5944" data-name="Path 5944" d="M1935.843,1354.911a1.907,1.907,0,0,1,.324-.208,2.744,2.744,0,0,1,.352-.153,2.962,2.962,0,0,1,.753-.159,2.775,2.775,0,0,1,.772.045,2.316,2.316,0,0,1,.716.272.049.049,0,0,1-.037.09h0a4.362,4.362,0,0,0-.714-.123,3.993,3.993,0,0,0-.712.006,5.581,5.581,0,0,0-.705.12c-.233.054-.468.121-.7.2h0a.049.049,0,0,1-.046-.085Z" transform="translate(-1935.825 -1354.382)" fill="#371a45"/>
      </g>
    </g>
    <g id="Group_2522" data-name="Group 2522" transform="translate(12.227 7.131)">
      <g id="Group_2521" data-name="Group 2521" transform="translate(0)">
        <path id="Path_5945" data-name="Path 5945" d="M2159.357,1528.493a.162.162,0,0,1-.162-.158l-.028-1.011a.163.163,0,0,1,.158-.167h0a.162.162,0,0,1,.162.158l.027,1.01a.162.162,0,0,1-.157.167Z" transform="translate(-2159.168 -1527.158)" fill="#371a45"/>
      </g>
    </g>
    <g id="Group_2524" data-name="Group 2524" transform="translate(9.782 9.029)">
      <g id="Group_2523" data-name="Group 2523" transform="translate(0 0)">
        <path id="Path_5946" data-name="Path 5946" d="M1868.161,1754.51a2.775,2.775,0,0,1-.4.3,1.3,1.3,0,0,1-1.4-.217,2.6,2.6,0,0,0,2.527,1.243,3.192,3.192,0,0,0,.581-.059.754.754,0,0,0,.027-.186C1869.5,1755.052,1868.92,1754.6,1868.161,1754.51Z" transform="translate(-1866.362 -1754.51)" fill="#ff457d"/>
      </g>
    </g>
    <g id="Group_2526" data-name="Group 2526" transform="translate(9.62 8.198)">
      <g id="Group_2525" data-name="Group 2525" transform="translate(0 0)">
        <path id="Path_5947" data-name="Path 5947" d="M1849.616,1657.318a2.74,2.74,0,0,1-2.659-1.339.162.162,0,0,1,.254-.189c.011.009.653.545,1.209.2a3.322,3.322,0,0,0,.681-.583c.214-.223.382-.4.617-.413a.958.958,0,0,1,.612.3,2.507,2.507,0,0,0,.8.471.939.939,0,0,0,1.087-.363l.031-.035a.162.162,0,0,1,.268.177,3.215,3.215,0,0,1-.664.887,3.16,3.16,0,0,1-2.217.888Zm-1.9-.92a2.91,2.91,0,0,0,1.921.6,2.828,2.828,0,0,0,2.079-.877,1.249,1.249,0,0,1-.685-.043,2.777,2.777,0,0,1-.9-.525c-.158-.125-.295-.234-.39-.228s-.237.142-.4.314a3.65,3.65,0,0,1-.746.635A1.129,1.129,0,0,1,1847.712,1656.4Z" transform="translate(-1846.943 -1654.996)" fill="#371a45"/>
      </g>
    </g>
    <g id="Group_2528" data-name="Group 2528" transform="translate(9.309 8.954)">
      <g id="Group_2527" data-name="Group 2527" transform="translate(0 0)">
        <path id="Path_5948" data-name="Path 5948" d="M1810.219,1748.972a.162.162,0,0,1-.124-.266c.248-.3.462-.552-.106-1.317a1.7,1.7,0,0,1,.069-1.852.162.162,0,1,1,.269.181h0a1.406,1.406,0,0,0-.078,1.477c.665.9.424,1.324.094,1.718A.161.161,0,0,1,1810.219,1748.972Z" transform="translate(-1809.728 -1745.466)" fill="#371a45"/>
      </g>
    </g>
    <g id="Group_2530" data-name="Group 2530" transform="translate(14.421 8.524)">
      <g id="Group_2529" data-name="Group 2529" transform="translate(0 0)">
        <path id="Path_5949" data-name="Path 5949" d="M2422,1697.2a.162.162,0,0,1-.126-.264,2.339,2.339,0,0,0,.613-1.658c0-.027,0-.053,0-.078a4.754,4.754,0,0,0-.183-1.011.162.162,0,0,1,.312-.09,4.981,4.981,0,0,1,.2,1.107c0,.024,0,.05,0,.075a2.657,2.657,0,0,1-.685,1.859A.163.163,0,0,1,2422,1697.2Z" transform="translate(-2421.837 -1693.984)" fill="#371a45"/>
      </g>
    </g>
    <g id="Group_2532" data-name="Group 2532" transform="translate(9.615 8.608)">
      <g id="Group_2531" data-name="Group 2531" transform="translate(0 0)">
        <path id="Path_5950" data-name="Path 5950" d="M1847.524,1705.708a.164.164,0,0,1-.068-.015,2.441,2.441,0,0,1-1.072-.985.163.163,0,0,1,.035-.2c.137-.123.61-.514.917-.36.164.082.26.318.313.765a5.976,5.976,0,0,1,.036.629.162.162,0,0,1-.162.162Zm-.783-1.041a2.21,2.21,0,0,0,.613.6c-.005-.094-.013-.2-.026-.312-.052-.444-.138-.514-.139-.514C1847.14,1704.418,1846.939,1704.514,1846.741,1704.667Zm-.212-.034h0Z" transform="translate(-1846.367 -1704.117)" fill="#371a45"/>
      </g>
    </g>
    <g id="Group_2534" data-name="Group 2534" transform="translate(14.164 8.333)">
      <g id="Group_2533" data-name="Group 2533" transform="translate(0 0)">
        <path id="Path_5951" data-name="Path 5951" d="M2391.3,1672.425a.166.166,0,0,1-.053-.009.163.163,0,0,1-.1-.119c-.059-.272-.169-.928.076-1.14.283-.245.742.075.832.142a.162.162,0,0,1,.043.211,3.868,3.868,0,0,1-.689.878A.162.162,0,0,1,2391.3,1672.425Zm.174-1.034a.067.067,0,0,0-.045.012,1.044,1.044,0,0,0-.02.521,4.46,4.46,0,0,0,.321-.444A.635.635,0,0,0,2391.47,1671.391Z" transform="translate(-2391.062 -1671.067)" fill="#371a45"/>
      </g>
    </g>
    <g id="Group_2536" data-name="Group 2536" transform="translate(8.17 10.503)">
      <g id="Group_2535" data-name="Group 2535" transform="translate(0 0)">
        <path id="Path_5952" data-name="Path 5952" d="M1673.269,1931.23a.229.229,0,1,1,.229.229A.229.229,0,0,1,1673.269,1931.23Z" transform="translate(-1673.269 -1931.001)" fill="#9b4b3b"/>
      </g>
    </g>
    <g id="Group_2538" data-name="Group 2538" transform="translate(12.819 11.169)">
      <g id="Group_2537" data-name="Group 2537" transform="translate(0 0)">
        <path id="Path_5953" data-name="Path 5953" d="M2230.08,2010.958a.229.229,0,1,1,.229.229A.23.23,0,0,1,2230.08,2010.958Z" transform="translate(-2230.08 -2010.729)" fill="#9b4b3b"/>
      </g>
    </g>
    <g id="Group_2540" data-name="Group 2540" transform="translate(3.994 0.365)">
      <g id="Group_2539" data-name="Group 2539" transform="translate(0 0)">
        <path id="Path_5954" data-name="Path 5954" d="M1176.362,718.883c.635,0,.53-.52.53-.52a1.877,1.877,0,0,0-.555-1.245,1.468,1.468,0,0,0-1.757.2c-1.7,1.274-1.771,4.131.052,4.131,1.582,0,1.294-3.086,1.294-3.086S1175.976,718.883,1176.362,718.883Z" transform="translate(-1173.285 -716.912)" fill="#fff"/>
      </g>
    </g>
    <g id="Group_2542" data-name="Group 2542" transform="translate(3.994 0.365)" opacity="0.6" style="mix-blend-mode: normal;isolation: isolate">
      <g id="Group_2541" data-name="Group 2541" transform="translate(0 0)">
        <path id="Path_5955" data-name="Path 5955" d="M1175.563,716.914a1.907,1.907,0,0,0-1.006.407,3.328,3.328,0,0,0-1.273,2.216c.233-.487,1.316-2.551,3.039-2.411l-.009-.009A1.1,1.1,0,0,0,1175.563,716.914Z" transform="translate(-1173.284 -716.911)" fill="#fff"/>
      </g>
    </g>
    <g id="Group_2544" data-name="Group 2544" transform="translate(3.834 0.204)">
      <g id="Group_2543" data-name="Group 2543" transform="translate(0 0)">
        <path id="Path_5956" data-name="Path 5956" d="M1157.75,699.235c-.1-.238-.179-.469-.283-.677a1.7,1.7,0,0,0-.179-.287,1.106,1.106,0,0,0-.111-.117l-.029-.028c-.01-.009-.021-.015-.031-.023l-.031-.023-.034-.02a.843.843,0,0,0-.306-.1,1.222,1.222,0,0,0-.338,0,1.717,1.717,0,0,0-.336.09l-.081.035-.041.018-.039.021-.079.041-.076.046c-.052.029-.1.067-.149.1s-.095.075-.143.113-.09.081-.136.122-.085.087-.128.13a3.159,3.159,0,0,0-.431.59,3.074,3.074,0,0,0-.408,1.389,2.019,2.019,0,0,0,.088.7,1.4,1.4,0,0,0,.143.312,1.162,1.162,0,0,0,.1.134,1.06,1.06,0,0,0,.117.117c.021.018.044.032.066.049l.033.024.036.02.072.04.077.031.038.016.041.011.081.022.084.013a.545.545,0,0,0,.085.01,1.163,1.163,0,0,0,.17,0c.027,0,.055,0,.082-.007l.079-.016a.8.8,0,0,0,.287-.135,1.07,1.07,0,0,0,.227-.24,1.721,1.721,0,0,0,.164-.309c.012-.027.022-.055.032-.084s.021-.056.03-.085c.017-.058.037-.115.051-.175.032-.118.055-.239.076-.361s.035-.246.045-.37.011-.25.011-.375.006-.25.017-.376a1.467,1.467,0,0,1,.085-.383v0a.059.059,0,0,1,.107-.008,1.067,1.067,0,0,1,.122.386,2.109,2.109,0,0,1,.013.393c-.007.131-.023.262-.034.393s-.028.262-.049.393-.047.262-.082.392c-.015.065-.037.13-.057.194-.01.032-.023.064-.034.1s-.023.064-.037.1a2.038,2.038,0,0,1-.2.369,1.4,1.4,0,0,1-.3.316,1.129,1.129,0,0,1-.4.19l-.109.021c-.037.007-.073.006-.11.009a1.466,1.466,0,0,1-.214,0,.755.755,0,0,1-.106-.012l-.106-.017-.1-.028-.052-.015-.051-.02-.1-.041-.1-.053-.047-.027-.045-.032c-.029-.022-.06-.042-.088-.066a1.485,1.485,0,0,1-.285-.327c-.02-.03-.035-.062-.053-.093a.807.807,0,0,1-.048-.1l-.042-.1c-.012-.033-.023-.066-.034-.1a2.341,2.341,0,0,1-.1-.815,3.4,3.4,0,0,1,.45-1.537,3.311,3.311,0,0,1,1.1-1.17l.088-.053.092-.048.046-.024.048-.021.1-.041a2.042,2.042,0,0,1,.407-.108,1.427,1.427,0,0,1,.851.129l.05.027.048.032c.016.011.032.021.047.033l.043.036a1.264,1.264,0,0,1,.158.157,1.546,1.546,0,0,1,.32.771c0,.034.006.068.008.1s0,.068,0,.1a.923.923,0,0,1-.028.205.057.057,0,0,1-.107.008Z" transform="translate(-1154.036 -697.621)" fill="#371a45"/>
      </g>
    </g>
    <g id="Group_2549" data-name="Group 2549" transform="translate(9.615 8.608)">
      <g id="Group_2546" data-name="Group 2546" transform="translate(0.162 0.161)">
        <g id="Group_2545" data-name="Group 2545">
          <path id="Path_5957" data-name="Path 5957" d="M1865.784,1723.776a2.289,2.289,0,0,0,1,.913,5.8,5.8,0,0,0-.035-.609c-.033-.285-.1-.576-.224-.639C1866.288,1723.324,1865.784,1723.776,1865.784,1723.776Z" transform="translate(-1865.784 -1723.421)" fill="#fff"/>
        </g>
      </g>
      <g id="Group_2548" data-name="Group 2548" transform="translate(0 0)">
        <g id="Group_2547" data-name="Group 2547">
          <path id="Path_5958" data-name="Path 5958" d="M1847.524,1705.708a.164.164,0,0,1-.068-.015,2.441,2.441,0,0,1-1.072-.985.163.163,0,0,1,.035-.2c.137-.123.61-.514.917-.36.164.082.26.318.313.765a5.976,5.976,0,0,1,.036.629.162.162,0,0,1-.162.162Zm-.783-1.041a2.21,2.21,0,0,0,.613.6c-.005-.094-.013-.2-.026-.312-.052-.444-.138-.514-.139-.514C1847.14,1704.418,1846.939,1704.514,1846.741,1704.667Zm-.212-.034h0Z" transform="translate(-1846.367 -1704.117)" fill="#371a45"/>
        </g>
      </g>
    </g>
    <g id="Group_2554" data-name="Group 2554" transform="translate(14.164 8.333)">
      <g id="Group_2551" data-name="Group 2551" transform="translate(0.163 0.163)">
        <g id="Group_2550" data-name="Group 2550">
          <path id="Path_5959" data-name="Path 5959" d="M2411.355,1690.775a3.769,3.769,0,0,1-.651.833s-.175-.811.023-.982S2411.355,1690.775,2411.355,1690.775Z" transform="translate(-2410.633 -1690.575)" fill="#fff"/>
        </g>
      </g>
      <g id="Group_2553" data-name="Group 2553" transform="translate(0 0)">
        <g id="Group_2552" data-name="Group 2552">
          <path id="Path_5960" data-name="Path 5960" d="M2391.3,1672.425a.166.166,0,0,1-.053-.009.163.163,0,0,1-.1-.119c-.059-.272-.169-.928.076-1.14.283-.245.742.075.832.142a.162.162,0,0,1,.043.211,3.868,3.868,0,0,1-.689.878A.162.162,0,0,1,2391.3,1672.425Zm.174-1.034a.067.067,0,0,0-.045.012,1.044,1.044,0,0,0-.02.521,4.46,4.46,0,0,0,.321-.444A.635.635,0,0,0,2391.47,1671.391Z" transform="translate(-2391.062 -1671.067)" fill="#371a45"/>
        </g>
      </g>
    </g>
    <g id="Group_2556" data-name="Group 2556" transform="translate(3.994 1.254)" opacity="0.2" style="mix-blend-mode: normal;isolation: isolate">
      <g id="Group_2555" data-name="Group 2555" transform="translate(0 0)">
        <path id="Path_5961" data-name="Path 5961" d="M1175.889,823.372c-.561.032-.187,2.806-1.569,2.618-.906-.123-.571-1.572-.23-2.564-1.014,1.177-1.09,2.974-.112,3.51a1.6,1.6,0,0,0,1.325-.133c.033-.02.062-.045.094-.067.7-.811.526-2.726.526-2.726s.028.959.385.507C1176.406,824.391,1176.135,823.357,1175.889,823.372Z" transform="translate(-1173.284 -823.371)" fill="#371a45"/>
      </g>
    </g>
    <g id="Group_2558" data-name="Group 2558" transform="translate(5.113 11.169)" opacity="0.2" style="mix-blend-mode: normal;isolation: isolate">
      <g id="Group_2557" data-name="Group 2557" transform="translate(0 0)">
        <path id="Path_5962" data-name="Path 5962" d="M1307.216,2010.729c.015.016,3.777,4.142,6.084,4.126,1.51-.011,3.34-1.619,4.24-3.131-1.063,1.027-2.7,2.34-4.192,2.423C1311.006,2014.276,1307.309,2010.816,1307.216,2010.729Z" transform="translate(-1307.216 -2010.729)" fill="#371a45"/>
      </g>
    </g>
    <g id="Group_2560" data-name="Group 2560" transform="translate(7.672 10.134)" opacity="0.2" style="mix-blend-mode: normal;isolation: isolate">
      <g id="Group_2559" data-name="Group 2559" transform="translate(0)">
        <path id="Path_5963" data-name="Path 5963" d="M1622.408,1886.739a1.233,1.233,0,0,1-1.15.451,4.391,4.391,0,0,1-5.245.743c-1.338.819-1.968-.328-2.226-1.073a4.978,4.978,0,0,0-.077,1.6c.035-.02.073-.036.107-.058a1.569,1.569,0,0,0,1.989.59s3.169,1.246,4.787-.722c0,0,.875.592,1.662-.742l.008-.007A2.2,2.2,0,0,0,1622.408,1886.739Z" transform="translate(-1613.679 -1886.739)" fill="#371a45"/>
      </g>
    </g>
    <g id="Group_2572" data-name="Group 2572" transform="translate(11.043 15.092)" opacity="0.6" style="mix-blend-mode: normal;isolation: isolate">
      <g id="Group_2571" data-name="Group 2571" transform="translate(0 0)">
        <path id="Path_5969" data-name="Path 5969" d="M2022.389,2480.5a13.332,13.332,0,0,0-1.642.105l.32.339a9.247,9.247,0,0,1,1.026-.049c2.823.028,4.609.721,5.375,1.643v-.213C2027.469,2481.318,2025.2,2480.5,2022.389,2480.5Zm-3.637.551c-.892.329-1.444.779-1.444,1.275v.094a6.253,6.253,0,0,1,2.228-1.174Z" transform="translate(-2017.308 -2480.501)" fill="#fff"/>
      </g>
    </g>
    <g id="Group_2574" data-name="Group 2574" transform="translate(14.138 15.029)">
      <g id="Group_2573" data-name="Group 2573" transform="translate(0 0)">
        <path id="Path_5970" data-name="Path 5970" d="M2389.519,2474.546a.165.165,0,0,1-.039,0l-1.357-.336a.162.162,0,0,1-.12-.19l.184-.9a.162.162,0,0,1,.277-.079l1.173,1.234a.162.162,0,0,1-.117.274Zm-1.167-.618.667.165-.577-.606Z" transform="translate(-2388 -2472.988)" fill="#371a45"/>
      </g>
    </g>
    <g id="Group_2582" data-name="Group 2582" transform="translate(10.872 16.205)">
      <g id="Group_2581" data-name="Group 2581">
        <path id="Path_5974" data-name="Path 5974" d="M1998.023,2615.621a2.246,2.246,0,0,1-.493-.218,1.651,1.651,0,0,1-.227-.162,1.182,1.182,0,0,1-.2-.213.9.9,0,0,1-.14-.277.793.793,0,0,1-.027-.324.765.765,0,0,1,.037-.159.8.8,0,0,1,.064-.145.962.962,0,0,1,.186-.238.163.163,0,0,1,.244.213l0,0a.957.957,0,0,0-.181.377.619.619,0,0,0,.067.4,1.444,1.444,0,0,0,.294.376,4.244,4.244,0,0,0,.4.33.023.023,0,0,1,0,.033A.024.024,0,0,1,1998.023,2615.621Z" transform="translate(-1996.931 -2613.841)" fill="#371a45"/>
      </g>
    </g>
    <g id="Group_2587" data-name="Group 2587" transform="translate(14.138 15.029)">
      <g id="Group_2584" data-name="Group 2584" transform="translate(0.162 0.162)">
        <g id="Group_2583" data-name="Group 2583">
          <path id="Path_5975" data-name="Path 5975" d="M2407.42,2493.307l1.357.336-1.173-1.234Z" transform="translate(-2407.42 -2492.409)" fill="#6bc105"/>
        </g>
      </g>
      <g id="Group_2586" data-name="Group 2586" transform="translate(0 0)">
        <g id="Group_2585" data-name="Group 2585">
          <path id="Path_5976" data-name="Path 5976" d="M2389.519,2474.546a.165.165,0,0,1-.039,0l-1.357-.336a.162.162,0,0,1-.12-.19l.184-.9a.162.162,0,0,1,.277-.079l1.173,1.234a.162.162,0,0,1-.117.274Zm-1.167-.618.667.165-.577-.606Z" transform="translate(-2388 -2472.988)" fill="#371a45"/>
        </g>
      </g>
    </g>
    <g id="Group_2592" data-name="Group 2592" transform="translate(15.764 9.798)">
      <g id="Group_2589" data-name="Group 2589" transform="translate(0.021 0.021)">
        <g id="Group_2588" data-name="Group 2588">
          <path id="Path_5977" data-name="Path 5977" d="M2585.25,1849.076a.056.056,0,1,1,.056.057A.056.056,0,0,1,2585.25,1849.076Z" transform="translate(-2585.25 -1849.02)" fill="#a15a48"/>
        </g>
      </g>
      <g id="Group_2591" data-name="Group 2591" transform="translate(0)">
        <g id="Group_2590" data-name="Group 2590">
          <path id="Path_5978" data-name="Path 5978" d="M2582.826,1846.675a.077.077,0,1,1,.077-.077A.077.077,0,0,1,2582.826,1846.675Zm0-.113a.036.036,0,1,0,.036.036A.036.036,0,0,0,2582.826,1846.563Z" transform="translate(-2582.749 -1846.521)" fill="#371a45"/>
        </g>
      </g>
    </g>
    <g id="Group_2594" data-name="Group 2594" transform="translate(15.75 9.783)">
      <g id="Group_2593" data-name="Group 2593" transform="translate(0)">
        <path id="Path_5979" data-name="Path 5979" d="M2581.012,1844.874a.092.092,0,1,1,.092.092A.092.092,0,0,1,2581.012,1844.874Z" transform="translate(-2581.012 -1844.782)" fill="#9b4b3b"/>
      </g>
    </g>
    <g id="Group_2600" data-name="Group 2600" transform="translate(13.896 4.921)">
      <g id="Group_2597" data-name="Group 2597" transform="translate(0 0)">
        <g id="Group_2595" data-name="Group 2595" transform="translate(0.02 0.021)">
          <ellipse id="Ellipse_354" data-name="Ellipse 354" cx="0.707" cy="1.168" rx="0.707" ry="1.168" transform="translate(0 0.002) rotate(-0.099)" fill="#371a45"/>
        </g>
        <g id="Group_2596" data-name="Group 2596">
          <path id="Path_5980" data-name="Path 5980" d="M2359.752,1264.931a.629.629,0,0,1-.518-.352,1.637,1.637,0,0,1-.212-.837h0a1.638,1.638,0,0,1,.209-.838.629.629,0,0,1,.518-.354h0c.4,0,.729.533.73,1.189s-.324,1.191-.727,1.191Zm0-2.337h0a.587.587,0,0,0-.48.333,1.6,1.6,0,0,0-.2.815h0a1.594,1.594,0,0,0,.206.814.588.588,0,0,0,.481.331h0c.378,0,.684-.516.683-1.148S2360.127,1262.594,2359.75,1262.594Z" transform="translate(-2359.022 -1262.551)" fill="#371a45"/>
        </g>
      </g>
      <g id="Group_2599" data-name="Group 2599" transform="translate(0.334 1.069)">
        <g id="Group_2598" data-name="Group 2598" transform="translate(0 0)">
          <ellipse id="Ellipse_355" data-name="Ellipse 355" cx="0.214" cy="0.392" rx="0.214" ry="0.392" transform="matrix(1, -0.002, 0.002, 1, 0, 0.001)" fill="#fff"/>
        </g>
      </g>
    </g>
    <g id="Group_2606" data-name="Group 2606" transform="translate(8.098 5.367)">
      <g id="Group_2603" data-name="Group 2603" transform="translate(0 0)">
        <g id="Group_2601" data-name="Group 2601">
          <ellipse id="Ellipse_356" data-name="Ellipse 356" cx="0.72" cy="1.19" rx="0.72" ry="1.19" transform="translate(0 0.07) rotate(-2.798)" fill="#371a45"/>
        </g>
        <g id="Group_2602" data-name="Group 2602" transform="translate(0.034 0.012)">
          <path id="Path_5981" data-name="Path 5981" d="M1669.528,1319.868c-.4,0-.746-.52-.778-1.175s.273-1.227.682-1.247.768.507.8,1.175h0c.033.667-.273,1.227-.682,1.247Zm-.073-2.378h-.021c-.384.019-.672.557-.64,1.2s.37,1.151.754,1.132.672-.557.64-1.2h0C1670.158,1317.991,1669.831,1317.49,1669.455,1317.49Z" transform="translate(-1668.748 -1317.446)" fill="#371a45"/>
        </g>
      </g>
      <g id="Group_2605" data-name="Group 2605" transform="translate(0.737 1.081)">
        <g id="Group_2604" data-name="Group 2604" transform="translate(0 0)">
          <ellipse id="Ellipse_357" data-name="Ellipse 357" cx="0.217" cy="0.4" rx="0.217" ry="0.4" transform="matrix(0.999, -0.049, 0.049, 0.999, 0, 0.021)" fill="#fff"/>
        </g>
      </g>
    </g>
    <g id="Group_2609" data-name="Group 2609" transform="translate(17.153 16.942)">
      <g id="Group_2607" data-name="Group 2607" transform="translate(0.125 0.125)">
        <path id="Path_5982" data-name="Path 5982" d="M2764.09,2717.409a.321.321,0,1,1,.321.321A.321.321,0,0,1,2764.09,2717.409Z" transform="translate(-2764.09 -2717.088)" fill="#ff456d"/>
      </g>
      <g id="Group_2608" data-name="Group 2608" transform="translate(0 0)">
        <path id="Path_5983" data-name="Path 5983" d="M2749.539,2702.98a.446.446,0,1,1,.446-.447A.447.447,0,0,1,2749.539,2702.98Zm0-.643a.2.2,0,1,0,.2.2A.2.2,0,0,0,2749.539,2702.337Z" transform="translate(-2749.092 -2702.087)" fill="#371a45"/>
      </g>
    </g>
    <g id="Group_2612" data-name="Group 2612" transform="translate(18.631 16.3)">
      <g id="Group_2610" data-name="Group 2610" transform="translate(0.125 0.125)">
        <path id="Path_5984" data-name="Path 5984" d="M2941.061,2640.492a.321.321,0,1,1,.321.321A.322.322,0,0,1,2941.061,2640.492Z" transform="translate(-2941.061 -2640.171)" fill="#ff456d"/>
      </g>
      <g id="Group_2611" data-name="Group 2611" transform="translate(0)">
        <path id="Path_5985" data-name="Path 5985" d="M2926.506,2626.063a.446.446,0,1,1,.446-.446A.447.447,0,0,1,2926.506,2626.063Zm0-.642a.2.2,0,1,0,.2.2A.2.2,0,0,0,2926.506,2625.421Z" transform="translate(-2926.059 -2625.171)" fill="#371a45"/>
      </g>
    </g>
    <g id="Group_2615" data-name="Group 2615" transform="translate(17.475 15.683)">
      <g id="Group_2613" data-name="Group 2613" transform="translate(0.125 0.125)">
        <path id="Path_5986" data-name="Path 5986" d="M2802.546,2566.613a.321.321,0,1,1,.321.321A.321.321,0,0,1,2802.546,2566.613Z" transform="translate(-2802.546 -2566.292)" fill="#ff456d"/>
      </g>
      <g id="Group_2614" data-name="Group 2614" transform="translate(0 0)">
        <path id="Path_5987" data-name="Path 5987" d="M2787.99,2552.184a.446.446,0,1,1,.446-.446A.447.447,0,0,1,2787.99,2552.184Zm0-.642a.2.2,0,1,0,.2.2A.2.2,0,0,0,2787.99,2551.542Z" transform="translate(-2787.544 -2551.291)" fill="#371a45"/>
      </g>
    </g>
    <g id="Group_2618" data-name="Group 2618" transform="translate(15.901 15.458)">
      <g id="Group_2616" data-name="Group 2616" transform="translate(0.125 0.125)">
        <path id="Path_5988" data-name="Path 5988" d="M2614.09,2539.642a.321.321,0,1,1,.321.321A.321.321,0,0,1,2614.09,2539.642Z" transform="translate(-2614.09 -2539.321)" fill="#ff456d"/>
      </g>
      <g id="Group_2617" data-name="Group 2617" transform="translate(0)">
        <path id="Path_5989" data-name="Path 5989" d="M2599.539,2525.214a.446.446,0,1,1,.446-.447A.447.447,0,0,1,2599.539,2525.214Zm0-.642a.2.2,0,1,0,.2.2A.2.2,0,0,0,2599.539,2524.572Z" transform="translate(-2599.092 -2524.321)" fill="#371a45"/>
      </g>
    </g>
    <g id="Group_2621" data-name="Group 2621" transform="translate(15.088 17.101)">
      <g id="Group_2619" data-name="Group 2619" transform="translate(0.125 0.125)">
        <path id="Path_5990" data-name="Path 5990" d="M2516.711,2736.414a.321.321,0,1,1,.321.321A.321.321,0,0,1,2516.711,2736.414Z" transform="translate(-2516.711 -2736.093)" fill="#ff456d"/>
      </g>
      <g id="Group_2620" data-name="Group 2620" transform="translate(0 0)">
        <path id="Path_5991" data-name="Path 5991" d="M2502.155,2721.987a.446.446,0,1,1,.446-.446A.447.447,0,0,1,2502.155,2721.987Zm0-.642a.2.2,0,1,0,.2.2A.2.2,0,0,0,2502.155,2721.345Z" transform="translate(-2501.709 -2721.094)" fill="#371a45"/>
      </g>
    </g>
    <g id="Group_2624" data-name="Group 2624" transform="translate(13.38 16.459)">
      <g id="Group_2622" data-name="Group 2622" transform="translate(0.125 0.125)">
        <path id="Path_5992" data-name="Path 5992" d="M2312.158,2659.5a.321.321,0,1,1,.321.321A.321.321,0,0,1,2312.158,2659.5Z" transform="translate(-2312.158 -2659.18)" fill="#ff456d"/>
      </g>
      <g id="Group_2623" data-name="Group 2623" transform="translate(0 0)">
        <path id="Path_5993" data-name="Path 5993" d="M2297.6,2645.073a.446.446,0,1,1,.447-.446A.447.447,0,0,1,2297.6,2645.073Zm0-.642a.2.2,0,1,0,.2.2A.2.2,0,0,0,2297.6,2644.43Z" transform="translate(-2297.158 -2644.18)" fill="#371a45"/>
      </g>
    </g>
  </g>
</svg>
