<svg xmlns="http://www.w3.org/2000/svg" width="21.195" height="22.24" viewBox="0 0 21.195 22.24">
  <g id="Group_2625" data-name="Group 2625" transform="translate(0 0)">
    <g id="Group_2427" data-name="Group 2427" transform="translate(0 16.847)" opacity="0.2" style="mix-blend-mode: normal;isolation: isolate">
      <g id="Group_2426" data-name="Group 2426" transform="translate(0 0)">
        <path id="Path_5898" data-name="Path 5898" d="M705.213,2763.807c-5.672,0-10.269.78-10.269,1.743,0,.913,4.147,1.655,9.409,1.73.224,1.073,2.769,1.92,5.882,1.92,3.26,0,5.9-.929,5.9-2.074,0-.423-.363-.817-.984-1.145.206-.138.327-.282.327-.43C715.481,2764.587,710.884,2763.807,705.213,2763.807Z" transform="translate(-694.944 -2763.807)" fill="#371a45"/>
      </g>
    </g>
    <g id="Group_2429" data-name="Group 2429" transform="translate(12.418 0.165)">
      <g id="Group_2428" data-name="Group 2428" transform="translate(0 0)">
        <path id="Path_5899" data-name="Path 5899" d="M2236,694.362a2.035,2.035,0,0,1,3.012.181,2.7,2.7,0,0,1,.014,3.388Z" transform="translate(-2236.002 -693.754)" fill="#fff"/>
      </g>
    </g>
    <g id="Group_2431" data-name="Group 2431" transform="translate(13.019 0.122)" opacity="0.6" style="mix-blend-mode: normal;isolation: isolate">
      <g id="Group_2430" data-name="Group 2430" transform="translate(0 0)">
        <path id="Path_5900" data-name="Path 5900" d="M2311.318,688.354a2.119,2.119,0,0,0-.8.2,2.456,2.456,0,0,1,2.1.814,2.912,2.912,0,0,1,.445,2.9,2.575,2.575,0,0,0-.184-3.129A1.922,1.922,0,0,0,2311.318,688.354Z" transform="translate(-2310.522 -688.353)" fill="#fff"/>
      </g>
    </g>
    <g id="Group_2433" data-name="Group 2433" transform="translate(12.418 0.183)" opacity="0.2" style="mix-blend-mode: normal;isolation: isolate">
      <g id="Group_2432" data-name="Group 2432" transform="translate(0 0)">
        <path id="Path_5901" data-name="Path 5901" d="M2237.16,695.986a2.649,2.649,0,0,0-1.158.571l3.027,3.57a3.148,3.148,0,0,0,.608-1.7A5.483,5.483,0,0,1,2237.16,695.986Z" transform="translate(-2236.002 -695.986)" fill="#371a45"/>
      </g>
    </g>
    <g id="Group_2435" data-name="Group 2435" transform="translate(12.262 0.009)">
      <g id="Group_2434" data-name="Group 2434" transform="translate(0 0)">
        <path id="Path_5902" data-name="Path 5902" d="M2219.767,678.816a.157.157,0,0,1-.12-.055l-3.027-3.569a.156.156,0,0,1,.014-.216,2.576,2.576,0,0,1,1.73-.645,2.14,2.14,0,0,1,1.508.84,2.62,2.62,0,0,1,.564,2.458,3.325,3.325,0,0,1-.548,1.128.155.155,0,0,1-.12.058Zm-2.8-3.7,2.792,3.291a3.152,3.152,0,0,0,.382-.866,2.292,2.292,0,0,0-.5-2.165,1.84,1.84,0,0,0-1.286-.729A2.209,2.209,0,0,0,2216.963,675.112Z" transform="translate(-2216.583 -674.327)" fill="#371a45"/>
      </g>
    </g>
    <g id="Group_2437" data-name="Group 2437" transform="translate(12.585 10.48)">
      <g id="Group_2436" data-name="Group 2436" transform="translate(0 0)">
        <path id="Path_5903" data-name="Path 5903" d="M2257.522,1973.839c-.83,1.972-1.623,5.8,1.027,7.543a3.111,3.111,0,0,0,1.872.594,12.417,12.417,0,0,0,1.84-.195.64.64,0,0,0,.442-.263.839.839,0,0,0,.131-.518c-.031-.514-.239-1.063-1.4-1.332a4.041,4.041,0,0,1-.631-2.345C2260.917,1973.091,2257.522,1973.839,2257.522,1973.839Z" transform="translate(-2256.729 -1973.788)" fill="#fcfbfa"/>
      </g>
    </g>
    <g id="Group_2439" data-name="Group 2439" transform="translate(12.429 10.322)">
      <g id="Group_2438" data-name="Group 2438" transform="translate(0 0)">
        <path id="Path_5904" data-name="Path 5904" d="M2241.008,1962.7a3.383,3.383,0,0,1-1.809-.624,4.371,4.371,0,0,1-1.888-3.814,10.155,10.155,0,0,1,.8-3.92.156.156,0,0,1,.11-.092,3.049,3.049,0,0,1,2.408.541,3.689,3.689,0,0,1,1.057,3.1,4,4,0,0,0,.57,2.2c1.236.3,1.433.939,1.464,1.461a.994.994,0,0,1-.154.61.79.79,0,0,1-.549.334l-.151.026a12.841,12.841,0,0,1-1.7.171C2241.113,1962.7,2241.06,1962.7,2241.008,1962.7Zm-2.637-8.159c-.33.816-1.975,5.313,1,7.273a2.994,2.994,0,0,0,1.776.568,12.571,12.571,0,0,0,1.672-.167l.152-.026a.485.485,0,0,0,.335-.191.685.685,0,0,0,.107-.425c-.028-.47-.2-.94-1.283-1.19a.156.156,0,0,1-.091-.06,4.172,4.172,0,0,1-.661-2.443,3.405,3.405,0,0,0-.941-2.848A2.728,2.728,0,0,0,2238.371,1954.544Z" transform="translate(-2237.309 -1954.196)" fill="#371a45"/>
      </g>
    </g>
    <g id="Group_2441" data-name="Group 2441" transform="translate(12.666 10.549)" opacity="0.2" style="mix-blend-mode: normal;isolation: isolate">
      <g id="Group_2440" data-name="Group 2440" transform="translate(0 0)">
        <path id="Path_5905" data-name="Path 5905" d="M2268.052,1982.292a2.831,2.831,0,0,0-.53.051c-.83,1.972-1.623,5.8,1.027,7.542a3.111,3.111,0,0,0,1.872.593,12.443,12.443,0,0,0,1.84-.194.639.639,0,0,0,.442-.263.834.834,0,0,0,.131-.517c0-.032-.007-.065-.011-.1-1.548.5-4.255.536-3.491-1.233a12.917,12.917,0,0,0,.727-5.063,2.363,2.363,0,0,0-1.392-.764l-.144-.023A3.3,3.3,0,0,0,2268.052,1982.292Z" transform="translate(-2266.729 -1982.292)" fill="#371a45"/>
      </g>
    </g>
    <g id="Group_2443" data-name="Group 2443" transform="translate(4.145 9.663)">
      <g id="Group_2442" data-name="Group 2442" transform="translate(0 0)">
        <path id="Path_5906" data-name="Path 5906" d="M1215.56,1872.355a27.043,27.043,0,0,1,5.1.693s1.316,8.09-6.372,8.478-4.142-7.98-4.142-7.98C1211.253,1872.62,1213.56,1872.355,1215.56,1872.355Z" transform="translate(-1209.327 -1872.355)" fill="#fcfbfa"/>
      </g>
    </g>
    <g id="Group_2445" data-name="Group 2445" transform="translate(3.99 9.506)">
      <g id="Group_2444" data-name="Group 2444" transform="translate(0)">
        <path id="Path_5907" data-name="Path 5907" d="M1194.724,1862.437a4.433,4.433,0,0,1-3.893-1.608,5.622,5.622,0,0,1-.572-4.214,12.166,12.166,0,0,1,.682-2.389.156.156,0,0,1,.044-.059c1.28-1.068,4.006-1.228,5.517-1.228a27.4,27.4,0,0,1,5.134.7.157.157,0,0,1,.118.127,10.088,10.088,0,0,1,.052,2.226,7.661,7.661,0,0,1-1.509,4.16,6.605,6.605,0,0,1-5.063,2.274Q1194.973,1862.437,1194.724,1862.437Zm-3.509-8.053c-.162.4-1.606,4.153-.128,6.267.748,1.07,2.138,1.561,4.132,1.461a6.31,6.31,0,0,0,4.834-2.157c1.78-2.2,1.483-5.422,1.406-6.037a26.454,26.454,0,0,0-4.958-.664C1195.045,1853.253,1192.432,1853.4,1191.215,1854.384Z" transform="translate(-1190.114 -1852.94)" fill="#371a45"/>
      </g>
    </g>
    <g id="Group_2447" data-name="Group 2447" transform="translate(4.145 9.686)" opacity="0.2" style="mix-blend-mode: normal;isolation: isolate">
      <g id="Group_2446" data-name="Group 2446" transform="translate(0 0)">
        <path id="Path_5908" data-name="Path 5908" d="M1215.56,1875.219c-2,0-4.307.266-5.417,1.192,0,0-3.546,8.368,4.143,7.98.281-.014.546-.042.8-.076a3.466,3.466,0,0,0-.856-2.355,1.469,1.469,0,0,1-.492-1.323c3.461,2.613,6.1-1.744,7-3.546a9.253,9.253,0,0,0-.083-1.18A27.025,27.025,0,0,0,1215.56,1875.219Z" transform="translate(-1209.327 -1875.219)" fill="#371a45"/>
      </g>
    </g>
    <g id="Group_2449" data-name="Group 2449" transform="translate(1.132 12.953)">
      <g id="Group_2448" data-name="Group 2448" transform="translate(0 0)">
        <path id="Path_5909" data-name="Path 5909" d="M838.738,2280.6c-.817-.03-1.881,1.546-2.083,2.7a.725.725,0,0,0-.885.258c-.544.673-.409,2.72.862,2.918a37.225,37.225,0,0,0,5.14,0S841.437,2280.7,838.738,2280.6Z" transform="translate(-835.468 -2280.601)" fill="#fff"/>
      </g>
    </g>
    <g id="Group_2451" data-name="Group 2451" transform="translate(1.145 13.602)" opacity="0.6" style="mix-blend-mode: normal;isolation: isolate">
      <g id="Group_2450" data-name="Group 2450" transform="translate(0)">
        <path id="Path_5910" data-name="Path 5910" d="M839.282,2361.229a4.625,4.625,0,0,0-1.031,2.059.725.725,0,0,0-.885.258,2.2,2.2,0,0,0-.229,1.718c0-.028,0-.052,0-.082a1.454,1.454,0,0,1,1.556-1.655A8.111,8.111,0,0,1,839.282,2361.229Z" transform="translate(-837.067 -2361.229)" fill="#fff"/>
      </g>
    </g>
    <g id="Group_2453" data-name="Group 2453" transform="translate(1.529 12.952)" opacity="0.2" style="mix-blend-mode: normal;isolation: isolate">
      <g id="Group_2452" data-name="Group 2452" transform="translate(0)">
        <path id="Path_5911" data-name="Path 5911" d="M887.571,2280.524c-.491-.018-1.068.546-1.5,1.247a.013.013,0,0,1,0,0,4.4,4.4,0,0,0,.606,2.7c.869,1.313-.691,1.821-1.994,1.436a1.175,1.175,0,0,0,.779.491,37.227,37.227,0,0,0,5.141,0S890.27,2280.625,887.571,2280.524Z" transform="translate(-884.687 -2280.524)" fill="#371a45"/>
      </g>
    </g>
    <g id="Group_2455" data-name="Group 2455" transform="translate(0.976 12.796)">
      <g id="Group_2454" data-name="Group 2454" transform="translate(0 0)">
        <path id="Path_5912" data-name="Path 5912" d="M819.381,2267.473a14.677,14.677,0,0,1-2.009-.1,1.459,1.459,0,0,1-1.124-1,2.452,2.452,0,0,1,.164-2.171.9.9,0,0,1,.888-.36c.271-1.135,1.3-2.688,2.207-2.654a2.239,2.239,0,0,1,1.733,1.024,6.551,6.551,0,0,1,.941,2.064,15.252,15.252,0,0,1,.511,2.934.157.157,0,0,1-.147.165C822.446,2267.378,820.864,2267.473,819.381,2267.473Zm-2.243-3.338a.613.613,0,0,0-.483.26,2.185,2.185,0,0,0-.116,1.863,1.163,1.163,0,0,0,.88.8,34.658,34.658,0,0,0,4.948.008c-.078-.911-.586-5.486-2.872-5.571h-.018c-.706,0-1.717,1.5-1.9,2.57a.157.157,0,0,1-.225.113A.5.5,0,0,0,817.138,2264.135Z" transform="translate(-816.075 -2261.184)" fill="#371a45"/>
      </g>
    </g>
    <g id="Group_2457" data-name="Group 2457" transform="translate(2.155 15.491)">
      <g id="Group_2456" data-name="Group 2456" transform="translate(0 0)">
        <path id="Path_5913" data-name="Path 5913" d="M962.628,2595.531a.841.841,0,0,1,.089.037.9.9,0,0,1,.08.043,1.318,1.318,0,0,1,.148.1,1.58,1.58,0,0,1,.252.255,1.6,1.6,0,0,1,.193.3,1.287,1.287,0,0,1,.114.334.023.023,0,0,1-.018.027.025.025,0,0,1-.022-.007h0a3.041,3.041,0,0,0-.225-.244c-.036-.039-.08-.073-.118-.109s-.082-.068-.123-.1c-.083-.064-.17-.122-.255-.181l-.064-.044c-.022-.014-.043-.029-.064-.043l-.063-.044c-.02-.015-.043-.03-.059-.043l-.018-.015a.156.156,0,0,1,.153-.267Z" transform="translate(-962.419 -2595.521)" fill="#371a45"/>
      </g>
    </g>
    <g id="Group_2459" data-name="Group 2459" transform="translate(1.733 15.499)">
      <g id="Group_2458" data-name="Group 2458" transform="translate(0)">
        <path id="Path_5914" data-name="Path 5914" d="M910.271,2596.673s0,.008,0,.013v.019l0,.041c0,.027,0,.056.007.084.005.058.011.117.022.178a1.752,1.752,0,0,0,.047.185c.008.032.021.062.031.1s.024.064.034.1h0a.018.018,0,0,1-.028.02,1.075,1.075,0,0,1-.086-.066,1.013,1.013,0,0,1-.077-.077.957.957,0,0,1-.127-.182.76.76,0,0,1-.078-.216.546.546,0,0,1-.01-.118.446.446,0,0,1,0-.061c0-.01,0-.02.006-.031s0-.02.01-.037a.121.121,0,1,1,.236.052Z" transform="translate(-910.014 -2596.526)" fill="#371a45"/>
      </g>
    </g>
    <g id="Group_2461" data-name="Group 2461" transform="translate(1.24 15.91)">
      <g id="Group_2460" data-name="Group 2460" transform="translate(0 0)">
        <path id="Path_5915" data-name="Path 5915" d="M849.063,2647.732a.158.158,0,0,1,.008.032c0,.012,0,.025.006.037s.007.05.01.076c.007.051.01.1.018.156s.018.108.032.162.03.11.046.171h0a.019.019,0,0,1-.013.023.02.02,0,0,1-.014,0,.742.742,0,0,1-.257-.282.7.7,0,0,1-.071-.183.544.544,0,0,1-.014-.1.471.471,0,0,1,0-.051.406.406,0,0,1,.007-.056.115.115,0,0,1,.213-.035Z" transform="translate(-848.814 -2647.624)" fill="#371a45"/>
      </g>
    </g>
    <g id="Group_2463" data-name="Group 2463" transform="translate(1.679 16.847)">
      <g id="Group_2462" data-name="Group 2462" transform="translate(0 0)">
        <path id="Path_5916" data-name="Path 5916" d="M903.553,2764.778c.236-.006.323-.291.532-.4s.49-.047.546-.182c.106-.258-.435-.587-.953-.252C903.128,2764.3,903.332,2764.784,903.553,2764.778Z" transform="translate(-903.326 -2763.801)" fill="#fff"/>
      </g>
    </g>
    <g id="Group_2465" data-name="Group 2465" transform="translate(3.544 10.581)">
      <g id="Group_2464" data-name="Group 2464" transform="translate(0 0)">
        <path id="Path_5917" data-name="Path 5917" d="M1136.044,1986.239c-1,1.769-2.2,5.313-.054,7.345a2.749,2.749,0,0,0,1.6.824,10.46,10.46,0,0,0,1.669.067.558.558,0,0,0,.429-.19.838.838,0,0,0,.184-.477c.038-.5-.077-1.048-1.083-1.466a4.138,4.138,0,0,1-.262-2.327C1139.173,1985.992,1136.044,1986.239,1136.044,1986.239Z" transform="translate(-1134.796 -1986.236)" fill="#fff"/>
      </g>
    </g>
    <g id="Group_2467" data-name="Group 2467" transform="translate(3.546 11.916)" opacity="0.2" style="mix-blend-mode: normal;isolation: isolate">
      <g id="Group_2466" data-name="Group 2466" transform="translate(0)">
        <path id="Path_5918" data-name="Path 5918" d="M1135.579,2151.938c-.733,1.873-1.132,4.423.564,6.03a2.746,2.746,0,0,0,1.6.824,10.465,10.465,0,0,0,1.67.067.559.559,0,0,0,.429-.189.838.838,0,0,0,.183-.477,1.236,1.236,0,0,0-.177-.8,2.5,2.5,0,0,1-2.985-.1C1135.24,2156.215,1135.377,2153.425,1135.579,2151.938Z" transform="translate(-1134.949 -2151.938)" fill="#371a45"/>
      </g>
    </g>
    <g id="Group_2469" data-name="Group 2469" transform="translate(6.187 16.63)" opacity="0.6" style="mix-blend-mode: normal;isolation: isolate">
      <g id="Group_2468" data-name="Group 2468" transform="translate(0 0)">
        <path id="Path_5919" data-name="Path 5919" d="M1462.735,2737.144a3.352,3.352,0,0,1,2.362.976A1.637,1.637,0,0,0,1462.735,2737.144Z" transform="translate(-1462.735 -2736.978)" fill="#fff"/>
      </g>
    </g>
    <g id="Group_2471" data-name="Group 2471" transform="translate(3.387 10.424)">
      <g id="Group_2470" data-name="Group 2470" transform="translate(0 0)">
        <path id="Path_5920" data-name="Path 5920" d="M1119.444,1975.341c-.233,0-.492-.016-1.254-.077a2.919,2.919,0,0,1-1.691-.867,4.394,4.394,0,0,1-1.2-3.9,10.231,10.231,0,0,1,1.223-3.632.156.156,0,0,1,.124-.079,2.684,2.684,0,0,1,2.038.785,3.667,3.667,0,0,1,.607,3.174,4.084,4.084,0,0,0,.224,2.182c1.067.463,1.161,1.1,1.122,1.6a1,1,0,0,1-.217.561.709.709,0,0,1-.548.25l-.138,0C1119.624,1975.338,1119.536,1975.341,1119.444,1975.341Zm-2.69-8.249c-.408.751-2.439,4.8-.04,7.078a2.625,2.625,0,0,0,1.5.782,10.651,10.651,0,0,0,1.513.071l.139,0a.407.407,0,0,0,.31-.131.686.686,0,0,0,.15-.392c.035-.453-.06-.925-.987-1.309a.154.154,0,0,1-.08-.075,4.261,4.261,0,0,1-.276-2.422,3.388,3.388,0,0,0-.526-2.91,2.371,2.371,0,0,0-1.7-.689Z" transform="translate(-1115.255 -1966.778)" fill="#371a45"/>
      </g>
    </g>
    <g id="Group_2476" data-name="Group 2476" transform="translate(4.421 10.758)" opacity="0.2" style="mix-blend-mode: normal;isolation: isolate">
      <g id="Group_2473" data-name="Group 2473" transform="translate(0.024 0.02)">
        <g id="Group_2472" data-name="Group 2472">
          <path id="Path_5921" data-name="Path 5921" d="M1246.96,2010.73c-.084,0-.133,0-.133,0-.129.23-.263.23-.391.513a4.593,4.593,0,0,0,1.48,1.475c1.462,1.046.9,2.185,1.372,3.085a4.426,4.426,0,0,1,.018-1.295C1249.875,2010.99,1247.55,2010.738,1246.96,2010.73Z" transform="translate(-1246.435 -2010.73)" fill="#563121"/>
        </g>
      </g>
      <g id="Group_2475" data-name="Group 2475" transform="translate(0 0)">
        <g id="Group_2474" data-name="Group 2474">
          <path id="Path_5922" data-name="Path 5922" d="M1246.421,2013.435l-.053-.1a2.811,2.811,0,0,1-.246-1,2.518,2.518,0,0,0-1.12-2.074,4.238,4.238,0,0,1-1.287-1.211,3.089,3.089,0,0,0-.2-.268l-.008-.009.005-.012a.872.872,0,0,1,.22-.3.852.852,0,0,0,.172-.213l.005-.009h.011s.051,0,.135,0a2.487,2.487,0,0,1,1.857.817,3.636,3.636,0,0,1,.509,2.987,4.415,4.415,0,0,0-.018,1.289Zm-2.863-4.673a3.229,3.229,0,0,1,.19.261,4.2,4.2,0,0,0,1.278,1.2,2.582,2.582,0,0,1,1.137,2.1,3.15,3.15,0,0,0,.189.879,4.459,4.459,0,0,1,.033-1.178,3.6,3.6,0,0,0-.5-2.955,2.446,2.446,0,0,0-1.827-.8h0c-.06,0-.1,0-.121,0a.906.906,0,0,1-.174.212A.832.832,0,0,0,1243.558,2008.762Z" transform="translate(-1243.511 -2008.229)" fill="#371a45"/>
        </g>
      </g>
    </g>
    <g id="Group_2478" data-name="Group 2478" transform="translate(4.974 9.244)">
      <g id="Group_2477" data-name="Group 2477" transform="translate(0 0)">
        <path id="Path_5923" data-name="Path 5923" d="M1312.206,1821.954s3.646,4,5.877,3.986c1.891-.013,4.31-2.623,4.6-4.259C1322.682,1821.681,1319,1818.6,1312.206,1821.954Z" transform="translate(-1312.206 -1820.388)" fill="#fff"/>
      </g>
    </g>
    <g id="Group_2480" data-name="Group 2480" transform="translate(5.126 9.164)" opacity="0.2" style="mix-blend-mode: normal;isolation: isolate">
      <g id="Group_2479" data-name="Group 2479" transform="translate(0 0)">
        <path id="Path_5924" data-name="Path 5924" d="M1337.252,1810.395a13.2,13.2,0,0,0-6.143,1.487c.026.106.055.215.086.326.213.226.605.628,1.273,1.23a3.734,3.734,0,0,0,1.048-.235,2.816,2.816,0,0,0,1.825.539,4.306,4.306,0,0,0,4.686-.719,3.645,3.645,0,0,0,.908-.128,3.815,3.815,0,0,0,.493-1.211A7.159,7.159,0,0,0,1337.252,1810.395Z" transform="translate(-1331.109 -1810.39)" fill="#371a45"/>
      </g>
    </g>
    <g id="Group_2482" data-name="Group 2482" transform="translate(6.113 16.429)">
      <g id="Group_2481" data-name="Group 2481" transform="translate(0)">
        <path id="Path_5925" data-name="Path 5925" d="M1454.948,2712.369c-.021,0-.05-.008-.076-.012l-.081-.014-.081-.014-.081-.013a3.18,3.18,0,0,0-.328-.036,1.63,1.63,0,0,0-.333.019l-.085.014-.083.022-.043.011-.041.015-.086.029h0a.022.022,0,0,1-.028-.014.023.023,0,0,1,.005-.023c.022-.022.044-.044.067-.066l.035-.033.038-.028c.026-.019.052-.038.079-.056l.085-.047a1.318,1.318,0,0,1,.37-.124,1.466,1.466,0,0,1,.391-.021,1.324,1.324,0,0,1,.193.032.943.943,0,0,1,.095.027.878.878,0,0,1,.1.039.156.156,0,0,1-.083.3Z" transform="translate(-1453.598 -2711.973)" fill="#371a45"/>
      </g>
    </g>
    <g id="Group_2484" data-name="Group 2484" transform="translate(9.579 13.02)" opacity="0.4" style="mix-blend-mode: normal;isolation: isolate">
      <g id="Group_2483" data-name="Group 2483" transform="translate(0 0)">
        <path id="Path_5926" data-name="Path 5926" d="M1883.666,2288.884a3.225,3.225,0,0,0,1.352.632,6.926,6.926,0,0,1-1.376-.117c1.976,1.023,2.921-.185,2.983-.268l.042-.037A4.8,4.8,0,0,1,1883.666,2288.884Z" transform="translate(-1883.642 -2288.884)" fill="#fff"/>
      </g>
    </g>
    <g id="Group_2486" data-name="Group 2486" transform="translate(7.71 18.092)">
      <g id="Group_2485" data-name="Group 2485" transform="translate(0 0)">
        <path id="Path_5927" data-name="Path 5927" d="M1651.7,2918.983a.161.161,0,0,1,.005-.035c0-.013.006-.026.009-.039s.014-.052.023-.077c.016-.052.035-.1.05-.157a1.426,1.426,0,0,0,.041-.167c.013-.058.019-.118.029-.184h0a.02.02,0,0,1,.024-.017.02.02,0,0,1,.014.008.63.63,0,0,1,.1.179.829.829,0,0,1,.043.2.737.737,0,0,1-.008.208.6.6,0,0,1-.028.1c-.006.016-.014.032-.022.049a.5.5,0,0,1-.03.05.132.132,0,0,1-.24-.06Z" transform="translate(-1651.7 -2918.305)" fill="#371a45"/>
      </g>
    </g>
    <g id="Group_2488" data-name="Group 2488" transform="translate(6.944 18.091)">
      <g id="Group_2487" data-name="Group 2487" transform="translate(0 0)">
        <path id="Path_5928" data-name="Path 5928" d="M1556.643,2918.888s0,0,0,0a.047.047,0,0,1,0-.008l0-.018.006-.036.014-.074c.009-.05.021-.1.027-.156a1.208,1.208,0,0,0,.009-.17c0-.03,0-.06,0-.091s-.005-.063-.006-.1v0a.021.021,0,0,1,.02-.021.021.021,0,0,1,.015.006.721.721,0,0,1,.071.073.747.747,0,0,1,.059.085.765.765,0,0,1,.081.2.655.655,0,0,1,.021.216.474.474,0,0,1-.039.163c0,.009-.008.018-.013.027l-.008.014-.01.017a.137.137,0,0,1-.246-.117Z" transform="translate(-1556.63 -2918.21)" fill="#371a45"/>
      </g>
    </g>
    <g id="Group_2490" data-name="Group 2490" transform="translate(4.818 9.088)">
      <g id="Group_2489" data-name="Group 2489" transform="translate(0 0)">
        <path id="Path_5929" data-name="Path 5929" d="M1298.809,1806.844c-2.275,0-5.829-3.872-5.979-4.037a.156.156,0,0,1,.046-.245,15.122,15.122,0,0,1,4.552-1.473,9.984,9.984,0,0,1,3.335.065,6.5,6.5,0,0,1,2.759,1.155.157.157,0,0,1,.053.147,5.93,5.93,0,0,1-1.744,2.822,4.76,4.76,0,0,1-3.009,1.566Zm-5.6-4.095c.691.726,3.711,3.782,5.6,3.782h.012a4.458,4.458,0,0,0,2.792-1.476,5.887,5.887,0,0,0,1.636-2.561,6.627,6.627,0,0,0-2.568-1.038A11.9,11.9,0,0,0,1293.205,1802.749Z" transform="translate(-1292.789 -1800.979)" fill="#371a45"/>
      </g>
    </g>
    <g id="Group_2492" data-name="Group 2492" transform="translate(4.997 10.778)">
      <g id="Group_2491" data-name="Group 2491" transform="translate(0 0)">
        <path id="Path_5930" data-name="Path 5930" d="M1315.01,2010.73a6.426,6.426,0,0,0,.577.443c.2.139.4.267.606.393.412.25.838.472,1.271.682l.326.155c.109.05.221.1.331.145.219.1.445.185.667.281.111.049.226.088.338.132s.226.088.339.134c.228.084.457.167.683.263-.121-.017-.242-.038-.362-.06s-.241-.044-.361-.07-.238-.059-.356-.09l-.178-.047-.089-.024-.088-.028c-.117-.038-.233-.076-.35-.115s-.231-.083-.346-.128-.229-.091-.342-.138l-.335-.155a8.34,8.34,0,0,1-1.271-.752,6.189,6.189,0,0,1-.571-.47c-.091-.083-.177-.172-.26-.263A2.651,2.651,0,0,1,1315.01,2010.73Z" transform="translate(-1315.01 -2010.73)" fill="#371a45"/>
      </g>
    </g>
    <g id="Group_2494" data-name="Group 2494" transform="translate(12.534 10.577)">
      <g id="Group_2493" data-name="Group 2493" transform="translate(0)">
        <path id="Path_5931" data-name="Path 5931" d="M2253.2,1985.781a2.057,2.057,0,0,1-.086.236c-.032.077-.069.152-.107.227a3.942,3.942,0,0,1-.26.429,4.292,4.292,0,0,1-.667.754,3.817,3.817,0,0,1-.834.568,2.952,2.952,0,0,1-.957.3,8.294,8.294,0,0,0,.846-.489,6.989,6.989,0,0,0,.758-.587,8.907,8.907,0,0,0,.681-.68C2252.794,1986.3,2253,1986.045,2253.2,1985.781Z" transform="translate(-2250.293 -1985.781)" fill="#371a45"/>
      </g>
    </g>
    <g id="Group_2496" data-name="Group 2496" transform="translate(3.859 0.156)">
      <g id="Group_2495" data-name="Group 2495" transform="translate(0 0)">
        <path id="Path_5932" data-name="Path 5932" d="M1180.6,692.656c-1.755,0-5.481,1.066-6.54,5.849-1.132,5.11,2.046,6.245,3.439,5.3a1.515,1.515,0,0,0,1.92.57s3.059,1.2,4.62-.7c0,0,.844.57,1.6-.717,0,0,2.784-1.793.38-4.7C1186.026,698.252,1185.375,692.656,1180.6,692.656Z" transform="translate(-1173.826 -692.656)" fill="#fcfbfa"/>
      </g>
    </g>
    <g id="Group_2498" data-name="Group 2498" transform="translate(3.861 2.455)" opacity="0.2" style="mix-blend-mode: normal;isolation: isolate">
      <g id="Group_2497" data-name="Group 2497" transform="translate(0 0)">
        <path id="Path_5933" data-name="Path 5933" d="M1176.037,977.87a7.963,7.963,0,0,0-1.7,3.551c-1.132,5.111,2.046,6.244,3.439,5.295a1.514,1.514,0,0,0,1.919.57s3.06,1.2,4.621-.7c0,0,.843.569,1.6-.718a2.913,2.913,0,0,0,.722-4.244c.415,2.645-1.408,3.008-1.408,3.008-2.509,2.784-7.63,1.031-7.63,1.031a2.516,2.516,0,0,1-2.37-1.057,4.314,4.314,0,0,1-.436-3.49C1175.073,979.943,1175.782,978.676,1176.037,977.87Z" transform="translate(-1174.097 -977.87)" fill="#371a45"/>
      </g>
    </g>
    <g id="Group_2500" data-name="Group 2500" transform="translate(7.336 6.314)">
      <g id="Group_2499" data-name="Group 2499" transform="translate(0 0)">
        <path id="Path_5934" data-name="Path 5934" d="M1609.67,1456.8c-.119,0-.239.005-.361.017a4.5,4.5,0,0,0-4.028,5.026c.034-.02.071-.035.1-.056a1.514,1.514,0,0,0,1.919.57s3.058,1.2,4.62-.7c0,0,.844.571,1.6-.716l.007-.006a2.314,2.314,0,0,0-.1-1.853A4.467,4.467,0,0,0,1609.67,1456.8Z" transform="translate(-1605.251 -1456.797)" fill="#6bc105"/>
      </g>
    </g>
    <g id="Group_2502" data-name="Group 2502" transform="translate(5.367 0.122)" opacity="0.6" style="mix-blend-mode: normal;isolation: isolate">
      <g id="Group_2501" data-name="Group 2501" transform="translate(0 0)">
        <path id="Path_5935" data-name="Path 5935" d="M1366.136,688.413a6.635,6.635,0,0,0-5.231,2.8c1.373-1.135,3.323-2.33,5.23-2.242.191.009.372.027.548.05a.158.158,0,0,0-.029.043c-.072.2.293.514.817.7s1.006.184,1.078-.015a.185.185,0,0,0-.009-.126c1.583.9,2.23,2.5,2.826,3.448C1370.945,691.489,1369.675,688.413,1366.136,688.413Z" transform="translate(-1360.905 -688.413)" fill="#fff"/>
      </g>
    </g>
    <g id="Group_2504" data-name="Group 2504" transform="translate(3.702 0)">
      <g id="Group_2503" data-name="Group 2503" transform="translate(0)">
        <path id="Path_5936" data-name="Path 5936" d="M1162.182,685.642q-.173,0-.353-.012a6.609,6.609,0,0,1-1.706-.35,1.612,1.612,0,0,1-1.969-.53,2.279,2.279,0,0,1-2.37-.175,3.2,3.2,0,0,1-1.242-1.861,7.4,7.4,0,0,1,.062-3.5c1.044-4.714,4.7-5.972,6.692-5.972a5.076,5.076,0,0,1,4.638,2.88,8.817,8.817,0,0,1,.934,2.808,3.791,3.791,0,0,1,.986,2.4,2.838,2.838,0,0,1-.59,1.685,3.642,3.642,0,0,1-.808.8,1.69,1.69,0,0,1-1.021.863,1.079,1.079,0,0,1-.66-.06A3.343,3.343,0,0,1,1162.182,685.642Zm-2.068-.688a.157.157,0,0,1,.057.011c.029.012,2.972,1.138,4.442-.65a.156.156,0,0,1,.208-.03.747.747,0,0,0,.548.079,1.43,1.43,0,0,0,.833-.746.158.158,0,0,1,.05-.052,3.306,3.306,0,0,0,.758-.741c.575-.778.97-2.057-.414-3.732a.158.158,0,0,1-.035-.082,8.577,8.577,0,0,0-.908-2.75,4.721,4.721,0,0,0-4.358-2.708c-1.9,0-5.386,1.206-6.387,5.727-.752,3.395.484,4.653,1.051,5.036a1.96,1.96,0,0,0,2.147.1.156.156,0,0,1,.219.044,1.35,1.35,0,0,0,1.718.516A.157.157,0,0,1,1160.115,684.954Z" transform="translate(-1154.36 -673.24)" fill="#371a45"/>
      </g>
    </g>
    <g id="Group_2506" data-name="Group 2506" transform="translate(7.185 9.384)">
      <g id="Group_2505" data-name="Group 2505" transform="translate(0 0)">
        <path id="Path_5937" data-name="Path 5937" d="M1586.825,1839.756c-.009-.013-.014-.023-.02-.033l-.017-.03c-.01-.02-.021-.041-.029-.061-.019-.041-.034-.082-.049-.124a1.7,1.7,0,0,1-.065-.255,1.871,1.871,0,0,1-.017-.521,2.013,2.013,0,0,1,.114-.5,1.938,1.938,0,0,1,.1-.232,1.048,1.048,0,0,1,.063-.109c.022-.036.044-.071.067-.106a.022.022,0,0,1,.041.016v0c-.017.081-.039.158-.054.237s-.031.156-.036.235a2.454,2.454,0,0,0-.013.464,2.805,2.805,0,0,0,.068.448c.007.037.018.073.026.109s.021.072.03.108.021.072.033.106c.006.018.011.035.017.052l.008.025a.2.2,0,0,1,.007.022l.007.032a.155.155,0,0,1-.282.116Z" transform="translate(-1586.617 -1837.773)" fill="#371a45"/>
      </g>
    </g>
    <g id="Group_2508" data-name="Group 2508" transform="translate(7.726 6.314)" opacity="0.6" style="mix-blend-mode: normal;isolation: isolate">
      <g id="Group_2507" data-name="Group 2507" transform="translate(0 0)">
        <path id="Path_5938" data-name="Path 5938" d="M1657.727,1456.8c-.119,0-.239.005-.361.017a4.611,4.611,0,0,0-3.665,2.615,5.583,5.583,0,0,1,4.149-2.22,5.336,5.336,0,0,1,3.629,1.857A4.468,4.468,0,0,0,1657.727,1456.8Z" transform="translate(-1653.701 -1456.797)" fill="#fff"/>
      </g>
    </g>
    <g id="Group_2510" data-name="Group 2510" transform="translate(7.84 6.158)">
      <g id="Group_2509" data-name="Group 2509" transform="translate(0)">
        <path id="Path_5939" data-name="Path 5939" d="M1675.636,1441.823c.018-.235.045-.456.058-.676a3.226,3.226,0,0,0,0-.33,2.271,2.271,0,0,0-.647-1.5,4.591,4.591,0,0,0-1.04-.885,4.355,4.355,0,0,0-1.253-.536,3.625,3.625,0,0,0-1.35-.079,4.481,4.481,0,0,0-1.315.366,4.321,4.321,0,0,0-1.135.755c-.085.077-.166.158-.245.241s-.15.174-.221.264-.146.178-.226.262a1.192,1.192,0,0,1-.286.226.058.058,0,0,1-.085-.06,1,1,0,0,1,.128-.349,1.858,1.858,0,0,1,.214-.294c.081-.091.166-.177.25-.265s.17-.174.261-.256a4.656,4.656,0,0,1,1.216-.809,4.8,4.8,0,0,1,1.406-.391,3.923,3.923,0,0,1,.735-.026,4.064,4.064,0,0,1,.728.111,4.644,4.644,0,0,1,1.343.574,4.886,4.886,0,0,1,.591.431,4.653,4.653,0,0,1,.521.515,3.5,3.5,0,0,1,.425.607,2.859,2.859,0,0,1,.265.7,2.06,2.06,0,0,1,.043.753,1.524,1.524,0,0,1-.09.366,1.152,1.152,0,0,1-.083.171.786.786,0,0,1-.115.156.054.054,0,0,1-.077,0,.054.054,0,0,1-.016-.043Z" transform="translate(-1667.888 -1437.474)" fill="#371a45"/>
      </g>
    </g>
    <g id="Group_2512" data-name="Group 2512" transform="translate(8.48 7.431)">
      <g id="Group_2511" data-name="Group 2511" transform="translate(0)">
        <path id="Path_5940" data-name="Path 5940" d="M1750.847,1595.721c-.167.183-.616-.425-.991-.191s-.3.488-.493.552-.505-.17-.831.057-.259.657-.578.777-.667.31-.661.7.566.3.658.5-.071.644.269.821.878-.134,1.041-.169.62.247,1.026.247c.481,0,.51-.4.892-.517s.7.234,1.154.129c.439-.1.353-.625.63-.915s1.09-.524,1.083-.92-.474-.312-.814-.538-.23-.3-.576-.482-.6.171-.785.071S1751.428,1595.086,1750.847,1595.721Z" transform="translate(-1747.293 -1595.446)" fill="#6bc105"/>
      </g>
    </g>
    <g id="Group_2514" data-name="Group 2514" transform="translate(9.41 7.288)" opacity="0.2" style="mix-blend-mode: normal;isolation: isolate">
      <g id="Group_2513" data-name="Group 2513" transform="translate(0)">
        <path id="Path_5941" data-name="Path 5941" d="M1862.643,1579.05a.783.783,0,0,1,.588-.588c.532-.166,1.652-.332,1.915-.885a5.327,5.327,0,0,0,.947.629c.415.187,1.217-.131,1.666.394a2.75,2.75,0,0,1-2.917,1.652C1862.971,1580.069,1862.643,1579.05,1862.643,1579.05Z" transform="translate(-1862.643 -1577.578)" fill="#371a45"/>
      </g>
    </g>
    <g id="Group_2516" data-name="Group 2516" transform="translate(9.44 8.068)">
      <g id="Group_2515" data-name="Group 2515" transform="translate(0 0)">
        <path id="Path_5942" data-name="Path 5942" d="M1866.362,1675.144a1.252,1.252,0,0,0,1.351.21c.632-.388.861-.92,1.18-.939s.607.507,1.3.734a1.081,1.081,0,0,0,1.244-.428,2.979,2.979,0,0,1-2.638,1.621A2.514,2.514,0,0,1,1866.362,1675.144Z" transform="translate(-1866.362 -1674.414)" fill="#371a45"/>
      </g>
    </g>
    <g id="Group_2518" data-name="Group 2518" transform="translate(11.229 6.464)">
      <g id="Group_2517" data-name="Group 2517" transform="translate(0 0)">
        <path id="Path_5943" data-name="Path 5943" d="M2088.4,1475.918c.107.212.563.05.722.048.141,0,.578.18.706-.055.156-.287-.216-.5-.667-.529S2088.244,1475.619,2088.4,1475.918Z" transform="translate(-2088.366 -1475.381)" fill="#371a45"/>
      </g>
    </g>
    <g id="Group_2520" data-name="Group 2520" transform="translate(9.999 5.489)">
      <g id="Group_2519" data-name="Group 2519" transform="translate(0 0)">
        <path id="Path_5944" data-name="Path 5944" d="M1935.843,1354.893a1.859,1.859,0,0,1,.313-.2,2.652,2.652,0,0,1,.339-.148,2.858,2.858,0,0,1,.727-.154,2.674,2.674,0,0,1,.745.043,2.241,2.241,0,0,1,.691.262.047.047,0,0,1-.035.087h0a4.206,4.206,0,0,0-.689-.118,3.862,3.862,0,0,0-.687.006,5.416,5.416,0,0,0-.681.115c-.225.052-.452.117-.675.189h0a.048.048,0,0,1-.045-.082Z" transform="translate(-1935.825 -1354.382)" fill="#371a45"/>
      </g>
    </g>
    <g id="Group_2522" data-name="Group 2522" transform="translate(11.799 6.881)">
      <g id="Group_2521" data-name="Group 2521" transform="translate(0)">
        <path id="Path_5945" data-name="Path 5945" d="M2159.351,1528.446a.156.156,0,0,1-.156-.152l-.027-.975a.157.157,0,0,1,.152-.161h0a.157.157,0,0,1,.156.152l.026.975a.156.156,0,0,1-.152.161Z" transform="translate(-2159.168 -1527.158)" fill="#371a45"/>
      </g>
    </g>
    <g id="Group_2524" data-name="Group 2524" transform="translate(9.44 8.713)">
      <g id="Group_2523" data-name="Group 2523" transform="translate(0 0)">
        <path id="Path_5946" data-name="Path 5946" d="M1868.1,1754.51a2.672,2.672,0,0,1-.385.293,1.251,1.251,0,0,1-1.351-.21,2.512,2.512,0,0,0,2.439,1.2,3.077,3.077,0,0,0,.561-.057.739.739,0,0,0,.026-.179C1869.388,1755.032,1868.831,1754.6,1868.1,1754.51Z" transform="translate(-1866.362 -1754.51)" fill="#ff457d"/>
      </g>
    </g>
    <g id="Group_2526" data-name="Group 2526" transform="translate(9.283 7.911)">
      <g id="Group_2525" data-name="Group 2525" transform="translate(0 0)">
        <path id="Path_5947" data-name="Path 5947" d="M1849.523,1657.237a2.644,2.644,0,0,1-2.566-1.292.157.157,0,0,1,.245-.183c.01.009.63.526,1.167.2a3.21,3.21,0,0,0,.657-.563c.206-.215.369-.385.6-.4a.924.924,0,0,1,.59.287,2.414,2.414,0,0,0,.77.454.906.906,0,0,0,1.049-.35l.03-.034a.157.157,0,0,1,.258.171,3.11,3.11,0,0,1-.641.856,3.05,3.05,0,0,1-2.139.856Zm-1.838-.888a2.807,2.807,0,0,0,1.854.575,2.73,2.73,0,0,0,2.007-.847,1.206,1.206,0,0,1-.661-.041,2.683,2.683,0,0,1-.868-.507c-.152-.121-.285-.226-.377-.22s-.229.137-.387.3a3.529,3.529,0,0,1-.72.613A1.09,1.09,0,0,1,1847.685,1656.349Z" transform="translate(-1846.943 -1654.996)" fill="#371a45"/>
      </g>
    </g>
    <g id="Group_2528" data-name="Group 2528" transform="translate(8.983 8.64)">
      <g id="Group_2527" data-name="Group 2527" transform="translate(0 0)">
        <path id="Path_5948" data-name="Path 5948" d="M1810.2,1748.849a.155.155,0,0,1-.1-.036.157.157,0,0,1-.02-.221c.239-.285.446-.532-.1-1.271a1.642,1.642,0,0,1,.067-1.787.157.157,0,0,1,.26.175h0a1.357,1.357,0,0,0-.075,1.426c.642.865.409,1.278.091,1.658A.156.156,0,0,1,1810.2,1748.849Z" transform="translate(-1809.728 -1745.466)" fill="#371a45"/>
      </g>
    </g>
    <g id="Group_2530" data-name="Group 2530" transform="translate(13.916 8.226)">
      <g id="Group_2529" data-name="Group 2529" transform="translate(0 0)">
        <path id="Path_5949" data-name="Path 5949" d="M2421.993,1697.09a.156.156,0,0,1-.121-.255,2.258,2.258,0,0,0,.591-1.6c0-.026,0-.051,0-.076a4.589,4.589,0,0,0-.176-.976.157.157,0,0,1,.3-.087,4.83,4.83,0,0,1,.188,1.069c0,.023,0,.048,0,.073a2.564,2.564,0,0,1-.661,1.794A.156.156,0,0,1,2421.993,1697.09Z" transform="translate(-2421.837 -1693.984)" fill="#371a45"/>
      </g>
    </g>
    <g id="Group_2532" data-name="Group 2532" transform="translate(9.279 8.307)">
      <g id="Group_2531" data-name="Group 2531" transform="translate(0 0)">
        <path id="Path_5950" data-name="Path 5950" d="M1847.484,1705.653a.158.158,0,0,1-.065-.014,2.355,2.355,0,0,1-1.034-.951.157.157,0,0,1,.034-.189c.133-.119.589-.5.885-.347.158.079.251.307.3.739a5.729,5.729,0,0,1,.035.607.157.157,0,0,1-.156.156Zm-.756-1a2.132,2.132,0,0,0,.591.579c0-.091-.013-.2-.025-.3-.05-.428-.133-.5-.134-.5C1847.113,1704.408,1846.919,1704.5,1846.728,1704.648Zm-.2-.033h0Z" transform="translate(-1846.367 -1704.117)" fill="#371a45"/>
      </g>
    </g>
    <g id="Group_2534" data-name="Group 2534" transform="translate(13.668 8.041)">
      <g id="Group_2533" data-name="Group 2533" transform="translate(0 0)">
        <path id="Path_5951" data-name="Path 5951" d="M2391.288,1672.378a.157.157,0,0,1-.153-.123c-.056-.262-.163-.9.073-1.1.273-.236.717.073.8.137a.156.156,0,0,1,.042.2,3.749,3.749,0,0,1-.665.847A.156.156,0,0,1,2391.288,1672.378Zm.168-1a.062.062,0,0,0-.042.012,1,1,0,0,0-.021.5,4.138,4.138,0,0,0,.31-.428A.611.611,0,0,0,2391.456,1671.38Z" transform="translate(-2391.062 -1671.067)" fill="#371a45"/>
      </g>
    </g>
    <g id="Group_2536" data-name="Group 2536" transform="translate(7.884 10.136)">
      <g id="Group_2535" data-name="Group 2535" transform="translate(0 0)">
        <path id="Path_5952" data-name="Path 5952" d="M1673.269,1931.223a.221.221,0,1,1,.222.221A.221.221,0,0,1,1673.269,1931.223Z" transform="translate(-1673.269 -1931.001)" fill="#9b4b3b"/>
      </g>
    </g>
    <g id="Group_2538" data-name="Group 2538" transform="translate(12.371 10.778)">
      <g id="Group_2537" data-name="Group 2537" transform="translate(0 0)">
        <path id="Path_5953" data-name="Path 5953" d="M2230.08,2010.95a.221.221,0,1,1,.221.221A.222.222,0,0,1,2230.08,2010.95Z" transform="translate(-2230.08 -2010.729)" fill="#9b4b3b"/>
      </g>
    </g>
    <g id="Group_2540" data-name="Group 2540" transform="translate(3.855 0.352)">
      <g id="Group_2539" data-name="Group 2539" transform="translate(0 0)">
        <path id="Path_5954" data-name="Path 5954" d="M1176.255,718.814c.612,0,.511-.5.511-.5a1.811,1.811,0,0,0-.536-1.2,1.416,1.416,0,0,0-1.7.2c-1.639,1.229-1.709,3.987.05,3.987,1.526,0,1.249-2.978,1.249-2.978S1175.882,718.814,1176.255,718.814Z" transform="translate(-1173.285 -716.912)" fill="#fff"/>
      </g>
    </g>
    <g id="Group_2542" data-name="Group 2542" transform="translate(3.855 0.352)" opacity="0.6" style="mix-blend-mode: normal;isolation: isolate">
      <g id="Group_2541" data-name="Group 2541" transform="translate(0 0)">
        <path id="Path_5955" data-name="Path 5955" d="M1175.483,716.914a1.841,1.841,0,0,0-.97.392,3.212,3.212,0,0,0-1.229,2.138c.225-.47,1.27-2.462,2.933-2.326l-.009-.009A1.06,1.06,0,0,0,1175.483,716.914Z" transform="translate(-1173.284 -716.911)" fill="#fff"/>
      </g>
    </g>
    <g id="Group_2544" data-name="Group 2544" transform="translate(3.7 0.196)">
      <g id="Group_2543" data-name="Group 2543" transform="translate(0 0)">
        <path id="Path_5956" data-name="Path 5956" d="M1157.62,699.178c-.1-.229-.173-.452-.273-.654a1.643,1.643,0,0,0-.173-.277,1.1,1.1,0,0,0-.108-.113l-.028-.027c-.01-.008-.02-.015-.03-.022l-.03-.022-.033-.019a.81.81,0,0,0-.3-.1,1.177,1.177,0,0,0-.326,0,1.655,1.655,0,0,0-.324.086l-.078.034-.039.017-.038.02-.076.039-.074.045c-.05.028-.1.064-.144.1s-.092.073-.138.109-.087.078-.131.117-.082.084-.124.125a3.041,3.041,0,0,0-.416.569,2.968,2.968,0,0,0-.394,1.34,1.95,1.95,0,0,0,.085.679,1.341,1.341,0,0,0,.138.3,1.112,1.112,0,0,0,.1.13,1.033,1.033,0,0,0,.113.113c.02.017.043.031.064.047l.032.023.035.019.07.039.075.03.037.015.039.011.078.022.081.013a.53.53,0,0,0,.082.01,1.132,1.132,0,0,0,.164,0c.026,0,.053,0,.079-.006l.076-.015a.776.776,0,0,0,.277-.13,1.032,1.032,0,0,0,.219-.232,1.658,1.658,0,0,0,.159-.3c.012-.026.022-.053.031-.081s.021-.054.029-.082c.017-.056.036-.111.049-.169.031-.114.053-.231.073-.349s.034-.237.044-.357.011-.241.011-.362.005-.242.017-.363a1.418,1.418,0,0,1,.082-.369v0a.057.057,0,0,1,.1-.008,1.029,1.029,0,0,1,.118.372,2.025,2.025,0,0,1,.013.38c-.007.127-.022.253-.033.379s-.027.253-.047.38-.045.253-.079.378c-.015.063-.036.125-.055.188-.01.031-.022.062-.033.093s-.022.062-.036.092a1.971,1.971,0,0,1-.19.356,1.352,1.352,0,0,1-.289.3,1.088,1.088,0,0,1-.391.183l-.106.021c-.035.006-.071.006-.106.009a1.426,1.426,0,0,1-.207,0,.75.75,0,0,1-.1-.012l-.1-.016-.1-.027-.05-.014-.049-.019-.1-.04-.093-.051-.046-.026-.043-.031c-.028-.021-.058-.04-.085-.063a1.435,1.435,0,0,1-.275-.316c-.019-.029-.034-.06-.051-.09a.794.794,0,0,1-.046-.092l-.041-.094c-.012-.032-.022-.064-.033-.1a2.263,2.263,0,0,1-.1-.787,3.281,3.281,0,0,1,.434-1.483,3.194,3.194,0,0,1,1.059-1.129l.085-.052.089-.046.044-.023.046-.02.093-.04a1.97,1.97,0,0,1,.392-.1,1.377,1.377,0,0,1,.821.125l.048.026.047.03c.015.011.031.02.045.032l.042.035a1.212,1.212,0,0,1,.152.151,1.491,1.491,0,0,1,.309.744c0,.033.006.066.007.1s0,.066,0,.1a.909.909,0,0,1-.027.2.055.055,0,0,1-.1.008Z" transform="translate(-1154.036 -697.621)" fill="#371a45"/>
      </g>
    </g>
    <g id="Group_2549" data-name="Group 2549" transform="translate(9.279 8.307)">
      <g id="Group_2546" data-name="Group 2546" transform="translate(0.156 0.156)">
        <g id="Group_2545" data-name="Group 2545">
          <path id="Path_5957" data-name="Path 5957" d="M1865.784,1723.764a2.209,2.209,0,0,0,.961.881,5.625,5.625,0,0,0-.034-.588c-.032-.275-.095-.556-.216-.617C1866.271,1723.328,1865.784,1723.764,1865.784,1723.764Z" transform="translate(-1865.784 -1723.421)" fill="#fff"/>
        </g>
      </g>
      <g id="Group_2548" data-name="Group 2548" transform="translate(0 0)">
        <g id="Group_2547" data-name="Group 2547">
          <path id="Path_5958" data-name="Path 5958" d="M1847.484,1705.653a.158.158,0,0,1-.065-.014,2.355,2.355,0,0,1-1.034-.951.157.157,0,0,1,.034-.189c.133-.119.589-.5.885-.347.158.079.251.307.3.739a5.729,5.729,0,0,1,.035.607.157.157,0,0,1-.156.156Zm-.756-1a2.132,2.132,0,0,0,.591.579c0-.091-.013-.2-.025-.3-.05-.428-.133-.5-.134-.5C1847.113,1704.408,1846.919,1704.5,1846.728,1704.648Zm-.2-.033h0Z" transform="translate(-1846.367 -1704.117)" fill="#371a45"/>
        </g>
      </g>
    </g>
    <g id="Group_2554" data-name="Group 2554" transform="translate(13.668 8.041)">
      <g id="Group_2551" data-name="Group 2551" transform="translate(0.158 0.157)">
        <g id="Group_2550" data-name="Group 2550">
          <path id="Path_5959" data-name="Path 5959" d="M2411.33,1690.768a3.632,3.632,0,0,1-.628.8s-.169-.782.022-.948S2411.33,1690.768,2411.33,1690.768Z" transform="translate(-2410.633 -1690.575)" fill="#fff"/>
        </g>
      </g>
      <g id="Group_2553" data-name="Group 2553" transform="translate(0 0)">
        <g id="Group_2552" data-name="Group 2552">
          <path id="Path_5960" data-name="Path 5960" d="M2391.288,1672.378a.157.157,0,0,1-.153-.123c-.056-.262-.163-.9.073-1.1.273-.236.717.073.8.137a.156.156,0,0,1,.042.2,3.749,3.749,0,0,1-.665.847A.156.156,0,0,1,2391.288,1672.378Zm.168-1a.062.062,0,0,0-.042.012,1,1,0,0,0-.021.5,4.138,4.138,0,0,0,.31-.428A.611.611,0,0,0,2391.456,1671.38Z" transform="translate(-2391.062 -1671.067)" fill="#371a45"/>
        </g>
      </g>
    </g>
    <g id="Group_2556" data-name="Group 2556" transform="translate(3.855 1.21)" opacity="0.2" style="mix-blend-mode: normal;isolation: isolate">
      <g id="Group_2555" data-name="Group 2555" transform="translate(0 0)">
        <path id="Path_5961" data-name="Path 5961" d="M1175.8,823.372c-.542.031-.18,2.707-1.515,2.527-.874-.118-.551-1.517-.222-2.474-.978,1.135-1.051,2.87-.108,3.387a1.548,1.548,0,0,0,1.279-.128c.032-.019.06-.044.091-.065a4.457,4.457,0,0,0,.507-2.631s.026.926.372.489C1176.3,824.356,1176.036,823.358,1175.8,823.372Z" transform="translate(-1173.285 -823.371)" fill="#371a45"/>
      </g>
    </g>
    <g id="Group_2558" data-name="Group 2558" transform="translate(4.934 10.778)" opacity="0.2" style="mix-blend-mode: normal;isolation: isolate">
      <g id="Group_2557" data-name="Group 2557" transform="translate(0 0)">
        <path id="Path_5962" data-name="Path 5962" d="M1307.216,2010.729c.014.016,3.645,4,5.872,3.981,1.457-.01,3.223-1.562,4.092-3.021-1.026.991-2.6,2.259-4.045,2.338C1310.873,2014.152,1307.306,2010.813,1307.216,2010.729Z" transform="translate(-1307.216 -2010.729)" fill="#371a45"/>
      </g>
    </g>
    <g id="Group_2560" data-name="Group 2560" transform="translate(7.404 9.779)" opacity="0.2" style="mix-blend-mode: normal;isolation: isolate">
      <g id="Group_2559" data-name="Group 2559" transform="translate(0)">
        <path id="Path_5963" data-name="Path 5963" d="M1622.1,1886.739a1.19,1.19,0,0,1-1.11.435,4.237,4.237,0,0,1-5.061.718c-1.291.79-1.9-.317-2.148-1.035a4.8,4.8,0,0,0-.075,1.542c.034-.019.071-.034.1-.056a1.514,1.514,0,0,0,1.919.57s3.058,1.2,4.62-.7c0,0,.844.571,1.6-.716l.007-.006A2.122,2.122,0,0,0,1622.1,1886.739Z" transform="translate(-1613.679 -1886.739)" fill="#371a45"/>
      </g>
    </g>
    <g id="Group_2562" data-name="Group 2562" transform="translate(10.659 16.319)">
      <g id="Group_2561" data-name="Group 2561" transform="translate(0 0)">
        <path id="Path_5964" data-name="Path 5964" d="M2017.653,2698.3v2.9c0,.973,2.2,1.763,4.9,1.763s4.9-.79,4.9-1.763v-2.9Z" transform="translate(-2017.653 -2698.297)" fill="#fff"/>
      </g>
    </g>
    <g id="Group_2564" data-name="Group 2564" transform="translate(10.502 16.162)">
      <g id="Group_2563" data-name="Group 2563" transform="translate(0 0)">
        <path id="Path_5965" data-name="Path 5965" d="M2003.292,2683.854a10.792,10.792,0,0,1-3.52-.526c-.993-.357-1.54-.852-1.54-1.394v-2.9a.157.157,0,0,1,.157-.157h9.806a.157.157,0,0,1,.156.157v2.9c0,.542-.547,1.037-1.539,1.394A10.785,10.785,0,0,1,2003.292,2683.854Zm-4.747-4.662v2.743c0,.776,1.908,1.606,4.747,1.606s4.746-.831,4.746-1.606v-2.743Z" transform="translate(-1998.232 -2678.879)" fill="#371a45"/>
      </g>
    </g>
    <g id="Group_2566" data-name="Group 2566" transform="translate(10.655 16.313)" opacity="0.2" style="mix-blend-mode: normal;isolation: isolate">
      <g id="Group_2565" data-name="Group 2565" transform="translate(0 0)">
        <path id="Path_5966" data-name="Path 5966" d="M2017.158,2697.637v2.446a1.53,1.53,0,0,0,.52.218c.633.141.8-.161,1.045-.121s.522.632,1.074.753,1.125-.461,1.416-.411.854.8,1.456.772,1.1-.914,1.6-.974.644.573,1.1.442,1.117-1.1,1.214-.489c.042.267-.874,1.029-2.468,1.408a12.992,12.992,0,0,1-5.914-.065,9.77,9.77,0,0,0,3.869.682c2.708,0,4.9-.79,4.9-1.763v-2.9Z" transform="translate(-2017.158 -2697.637)" fill="#371a45"/>
      </g>
    </g>
    <g id="Group_2568" data-name="Group 2568" transform="translate(10.659 14.564)">
      <g id="Group_2567" data-name="Group 2567" transform="translate(0 0)">
        <path id="Path_5967" data-name="Path 5967" d="M2022.557,2480.5a12.964,12.964,0,0,0-1.585.1l1.119,1.187-3.043-.756c-.861.317-1.394.751-1.394,1.229v1.519a1.115,1.115,0,0,0,.574.565c.518.17.913-.2,1.138-.142s.4.722.9.79,1.041-.382,1.5-.334.82.676,1.528.566.878-.668,1.362-.763.777.321,1.343.177a2.914,2.914,0,0,0,1.462-1.5v-.881C2027.459,2481.29,2025.265,2480.5,2022.557,2480.5Z" transform="translate(-2017.653 -2480.501)" fill="#6bc105"/>
      </g>
    </g>
    <g id="Group_2570" data-name="Group 2570" transform="translate(10.659 16.663)" opacity="0.2" style="mix-blend-mode: normal;isolation: isolate">
      <g id="Group_2569" data-name="Group 2569" transform="translate(0 0)">
        <path id="Path_5968" data-name="Path 5968" d="M2027.459,2741.025a4.337,4.337,0,0,1-1.669,1.632c-.346.018-.74-.226-1.249-.21s-.843.686-1.323.737-.918-.553-1.425-.666-1.149.515-1.416.479-.449-.615-.844-.76-.693.138-1.246.053a1.007,1.007,0,0,1-.634-.517v.435a1.117,1.117,0,0,0,.574.565c.518.17.912-.2,1.137-.142s.4.722.9.79,1.041-.382,1.5-.334.819.675,1.528.566.878-.667,1.362-.763.778.321,1.344.177a2.911,2.911,0,0,0,1.462-1.5Z" transform="translate(-2017.653 -2741.025)" fill="#371a45"/>
      </g>
    </g>
    <g id="Group_2572" data-name="Group 2572" transform="translate(10.656 14.564)" opacity="0.6" style="mix-blend-mode: normal;isolation: isolate">
      <g id="Group_2571" data-name="Group 2571" transform="translate(0 0)">
        <path id="Path_5969" data-name="Path 5969" d="M2022.211,2480.5a12.854,12.854,0,0,0-1.584.1l.309.328a8.855,8.855,0,0,1,.991-.048c2.724.027,4.447.7,5.187,1.586v-.205C2027.114,2481.29,2024.919,2480.5,2022.211,2480.5Zm-3.509.532c-.861.318-1.394.752-1.394,1.23v.091a6.033,6.033,0,0,1,2.15-1.133Z" transform="translate(-2017.308 -2480.501)" fill="#fff"/>
      </g>
    </g>
    <g id="Group_2574" data-name="Group 2574" transform="translate(13.643 14.503)">
      <g id="Group_2573" data-name="Group 2573" transform="translate(0 0)">
        <path id="Path_5970" data-name="Path 5970" d="M2389.466,2474.492a.18.18,0,0,1-.038,0l-1.31-.324a.156.156,0,0,1-.115-.183l.177-.867a.157.157,0,0,1,.267-.076l1.132,1.191a.156.156,0,0,1-.113.264Zm-1.126-.6.644.159-.557-.585Z" transform="translate(-2388 -2472.988)" fill="#371a45"/>
      </g>
    </g>
    <g id="Group_2576" data-name="Group 2576" transform="translate(10.502 14.407)">
      <g id="Group_2575" data-name="Group 2575" transform="translate(0 0)">
        <path id="Path_5971" data-name="Path 5971" d="M2003.865,2466.136a1.634,1.634,0,0,1-.923-.354,1.149,1.149,0,0,0-.459-.226,1.5,1.5,0,0,0-.628.154,1.793,1.793,0,0,1-.875.181,1.15,1.15,0,0,1-.747-.584.913.913,0,0,0-.172-.209.721.721,0,0,0-.236.063,1.311,1.311,0,0,1-.911.075,1.229,1.229,0,0,1-.663-.64.157.157,0,0,1-.019-.073V2463c0-.532.531-1.021,1.5-1.377a.158.158,0,0,1,.092-.005l2.526.627-.753-.8a.157.157,0,0,1,.095-.263,12.96,12.96,0,0,1,1.6-.1,10.785,10.785,0,0,1,3.52.525c.993.357,1.539.852,1.539,1.394v.88a.152.152,0,0,1-.014.065,3.076,3.076,0,0,1-1.566,1.585,1.3,1.3,0,0,1-.833-.09.93.93,0,0,0-.519-.086,1.039,1.039,0,0,0-.461.286,1.7,1.7,0,0,1-.907.478A1.245,1.245,0,0,1,2003.865,2466.136Zm-1.435-.9a.77.77,0,0,1,.086,0,1.369,1.369,0,0,1,.6.276,1.211,1.211,0,0,0,.888.292,1.4,1.4,0,0,0,.749-.4,1.3,1.3,0,0,1,.607-.358,1.22,1.22,0,0,1,.687.1,1.017,1.017,0,0,0,.648.08,2.747,2.747,0,0,0,1.344-1.381V2463c0-.776-1.907-1.606-4.746-1.606a12.345,12.345,0,0,0-1.256.066l.9.959a.156.156,0,0,1-.152.259l-3-.744c-.793.3-1.247.688-1.247,1.066v1.479a.947.947,0,0,0,.467.456,1.024,1.024,0,0,0,.706-.071.735.735,0,0,1,.419-.074c.146.035.242.174.354.334.137.2.292.42.532.452a1.574,1.574,0,0,0,.72-.162A1.986,1.986,0,0,1,2002.43,2465.24Zm5.765-1.357h0Z" transform="translate(-1998.232 -2461.084)" fill="#371a45"/>
      </g>
    </g>
    <g id="Group_2578" data-name="Group 2578" transform="translate(12.633 17.694)">
      <g id="Group_2577" data-name="Group 2577" transform="translate(0 0)">
        <path id="Path_5972" data-name="Path 5972" d="M2268.287,2869.052a5.966,5.966,0,0,1-.683.19c-.231.05-.465.092-.7.122a9.991,9.991,0,0,1-1.417.079,10.308,10.308,0,0,1-1.414-.111,7.588,7.588,0,0,1-1.378-.329.051.051,0,0,1-.031-.067.052.052,0,0,1,.058-.034h0q.69.117,1.382.174t1.387.056q.694,0,1.387-.045c.231-.016.462-.033.693-.057s.461-.051.694-.079h0a.052.052,0,0,1,.023.1Z" transform="translate(-2262.66 -2868.901)" fill="#371a45"/>
      </g>
    </g>
    <g id="Group_2580" data-name="Group 2580" transform="translate(18.898 16.176)">
      <g id="Group_2579" data-name="Group 2579" transform="translate(0 0)">
        <path id="Path_5973" data-name="Path 5973" d="M3041.79,2680.772a.748.748,0,0,1-.052.323.95.95,0,0,1-.162.268,1.579,1.579,0,0,1-.452.361,2.885,2.885,0,0,1-.506.221,3.342,3.342,0,0,1-.526.13.023.023,0,0,1-.015-.042c.157-.085.314-.167.463-.258a4.019,4.019,0,0,0,.427-.287,1.881,1.881,0,0,0,.343-.338.79.79,0,0,0,.166-.379l0-.011a.157.157,0,0,1,.311.011Z" transform="translate(-3040.067 -2680.626)" fill="#371a45"/>
      </g>
    </g>
    <g id="Group_2582" data-name="Group 2582" transform="translate(10.492 15.638)">
      <g id="Group_2581" data-name="Group 2581">
        <path id="Path_5974" data-name="Path 5974" d="M1997.984,2615.559a2.183,2.183,0,0,1-.476-.21,1.59,1.59,0,0,1-.219-.156,1.151,1.151,0,0,1-.192-.206.86.86,0,0,1-.135-.267.766.766,0,0,1-.026-.313.731.731,0,0,1,.036-.153.757.757,0,0,1,.062-.14.929.929,0,0,1,.179-.229.157.157,0,0,1,.235.206l0,0a.922.922,0,0,0-.175.364.6.6,0,0,0,.065.381,1.379,1.379,0,0,0,.284.363,4.033,4.033,0,0,0,.383.319.023.023,0,0,1,0,.032A.023.023,0,0,1,1997.984,2615.559Z" transform="translate(-1996.931 -2613.841)" fill="#371a45"/>
      </g>
    </g>
    <g id="Group_2587" data-name="Group 2587" transform="translate(13.643 14.503)">
      <g id="Group_2584" data-name="Group 2584" transform="translate(0.156 0.156)">
        <g id="Group_2583" data-name="Group 2583">
          <path id="Path_5975" data-name="Path 5975" d="M2407.42,2493.276l1.31.324-1.133-1.191Z" transform="translate(-2407.42 -2492.409)" fill="#6bc105"/>
        </g>
      </g>
      <g id="Group_2586" data-name="Group 2586" transform="translate(0 0)">
        <g id="Group_2585" data-name="Group 2585">
          <path id="Path_5976" data-name="Path 5976" d="M2389.466,2474.492a.18.18,0,0,1-.038,0l-1.31-.324a.156.156,0,0,1-.115-.183l.177-.867a.157.157,0,0,1,.267-.076l1.132,1.191a.156.156,0,0,1-.113.264Zm-1.126-.6.644.159-.557-.585Z" transform="translate(-2388 -2472.988)" fill="#371a45"/>
        </g>
      </g>
    </g>
    <g id="Group_2592" data-name="Group 2592" transform="translate(15.213 9.455)">
      <g id="Group_2589" data-name="Group 2589" transform="translate(0.02 0.02)">
        <g id="Group_2588" data-name="Group 2588">
          <path id="Path_5977" data-name="Path 5977" d="M2585.25,1849.075a.054.054,0,1,1,.054.054A.054.054,0,0,1,2585.25,1849.075Z" transform="translate(-2585.25 -1849.02)" fill="#a15a48"/>
        </g>
      </g>
      <g id="Group_2591" data-name="Group 2591" transform="translate(0)">
        <g id="Group_2590" data-name="Group 2590">
          <path id="Path_5978" data-name="Path 5978" d="M2582.823,1846.67a.074.074,0,1,1,.075-.074A.074.074,0,0,1,2582.823,1846.67Zm0-.109a.034.034,0,1,0,0,.068.034.034,0,0,0,0-.068Z" transform="translate(-2582.749 -1846.521)" fill="#371a45"/>
        </g>
      </g>
    </g>
    <g id="Group_2594" data-name="Group 2594" transform="translate(15.199 9.441)">
      <g id="Group_2593" data-name="Group 2593" transform="translate(0)">
        <path id="Path_5979" data-name="Path 5979" d="M2581.012,1844.87a.088.088,0,1,1,.088.088A.089.089,0,0,1,2581.012,1844.87Z" transform="translate(-2581.012 -1844.782)" fill="#9b4b3b"/>
      </g>
    </g>
    <g id="Group_2600" data-name="Group 2600" transform="translate(13.41 4.749)">
      <g id="Group_2597" data-name="Group 2597" transform="translate(0 0)">
        <g id="Group_2595" data-name="Group 2595" transform="translate(0.019 0.02)">
          <ellipse id="Ellipse_354" data-name="Ellipse 354" cx="0.682" cy="1.128" rx="0.682" ry="1.128" transform="translate(0 0.002) rotate(-0.099)" fill="#371a45"/>
        </g>
        <g id="Group_2596" data-name="Group 2596">
          <path id="Path_5980" data-name="Path 5980" d="M2359.727,1264.848a.607.607,0,0,1-.5-.34,1.583,1.583,0,0,1-.2-.808h0a1.582,1.582,0,0,1,.2-.809.606.606,0,0,1,.5-.341h0c.387,0,.7.514.7,1.147s-.313,1.149-.7,1.15Zm0-2.255h0a.567.567,0,0,0-.464.321,1.543,1.543,0,0,0-.2.787h0a1.543,1.543,0,0,0,.2.786.568.568,0,0,0,.464.319h0c.365,0,.66-.5.659-1.108S2360.089,1262.593,2359.724,1262.593Z" transform="translate(-2359.022 -1262.551)" fill="#371a45"/>
        </g>
      </g>
      <g id="Group_2599" data-name="Group 2599" transform="translate(0.323 1.031)">
        <g id="Group_2598" data-name="Group 2598" transform="translate(0 0)">
          <ellipse id="Ellipse_355" data-name="Ellipse 355" cx="0.206" cy="0.379" rx="0.206" ry="0.379" transform="matrix(1, -0.002, 0.002, 1, 0, 0.001)" fill="#fff"/>
        </g>
      </g>
    </g>
    <g id="Group_2606" data-name="Group 2606" transform="translate(7.815 5.179)">
      <g id="Group_2603" data-name="Group 2603" transform="translate(0 0)">
        <g id="Group_2601" data-name="Group 2601" transform="translate(0)">
          <ellipse id="Ellipse_356" data-name="Ellipse 356" cx="0.695" cy="1.148" rx="0.695" ry="1.148" transform="translate(0 0.068) rotate(-2.798)" fill="#371a45"/>
        </g>
        <g id="Group_2602" data-name="Group 2602" transform="translate(0.032 0.012)">
          <path id="Path_5981" data-name="Path 5981" d="M1669.5,1319.783c-.385,0-.72-.5-.751-1.134s.264-1.184.658-1.2.741.489.772,1.134h0c.032.644-.264,1.184-.658,1.2Zm-.071-2.295h-.02c-.371.018-.648.538-.618,1.158s.357,1.111.728,1.093.648-.538.618-1.158h0C1670.108,1317.972,1669.793,1317.489,1669.431,1317.489Z" transform="translate(-1668.748 -1317.446)" fill="#371a45"/>
        </g>
      </g>
      <g id="Group_2605" data-name="Group 2605" transform="translate(0.712 1.043)">
        <g id="Group_2604" data-name="Group 2604" transform="translate(0 0)">
          <ellipse id="Ellipse_357" data-name="Ellipse 357" cx="0.21" cy="0.386" rx="0.21" ry="0.386" transform="matrix(0.999, -0.049, 0.049, 0.999, 0, 0.02)" fill="#fff"/>
        </g>
      </g>
    </g>
    <g id="Group_2609" data-name="Group 2609" transform="translate(16.553 16.349)">
      <g id="Group_2607" data-name="Group 2607" transform="translate(0.121 0.121)">
        <path id="Path_5982" data-name="Path 5982" d="M2764.09,2717.4a.31.31,0,1,1,.31.31A.31.31,0,0,1,2764.09,2717.4Z" transform="translate(-2764.09 -2717.088)" fill="#ff456d"/>
      </g>
      <g id="Group_2608" data-name="Group 2608" transform="translate(0 0)">
        <path id="Path_5983" data-name="Path 5983" d="M2749.523,2702.948a.431.431,0,1,1,.431-.431A.431.431,0,0,1,2749.523,2702.948Zm0-.62a.189.189,0,1,0,.189.189A.19.19,0,0,0,2749.523,2702.328Z" transform="translate(-2749.092 -2702.087)" fill="#371a45"/>
      </g>
    </g>
    <g id="Group_2612" data-name="Group 2612" transform="translate(17.979 15.729)">
      <g id="Group_2610" data-name="Group 2610" transform="translate(0.121 0.121)">
        <path id="Path_5984" data-name="Path 5984" d="M2941.061,2640.481a.31.31,0,1,1,.31.31A.31.31,0,0,1,2941.061,2640.481Z" transform="translate(-2941.061 -2640.171)" fill="#ff456d"/>
      </g>
      <g id="Group_2611" data-name="Group 2611" transform="translate(0)">
        <path id="Path_5985" data-name="Path 5985" d="M2926.49,2626.032a.431.431,0,1,1,.43-.431A.431.431,0,0,1,2926.49,2626.032Zm0-.62a.189.189,0,1,0,.189.189A.189.189,0,0,0,2926.49,2625.413Z" transform="translate(-2926.059 -2625.171)" fill="#371a45"/>
      </g>
    </g>
    <g id="Group_2615" data-name="Group 2615" transform="translate(16.863 15.134)">
      <g id="Group_2613" data-name="Group 2613" transform="translate(0.121 0.121)">
        <path id="Path_5986" data-name="Path 5986" d="M2802.546,2566.6a.31.31,0,1,1,.31.31A.31.31,0,0,1,2802.546,2566.6Z" transform="translate(-2802.546 -2566.292)" fill="#ff456d"/>
      </g>
      <g id="Group_2614" data-name="Group 2614" transform="translate(0 0)">
        <path id="Path_5987" data-name="Path 5987" d="M2787.975,2552.153a.431.431,0,1,1,.431-.431A.431.431,0,0,1,2787.975,2552.153Zm0-.62a.189.189,0,1,0,.189.189A.189.189,0,0,0,2787.975,2551.533Z" transform="translate(-2787.544 -2551.291)" fill="#371a45"/>
      </g>
    </g>
    <g id="Group_2618" data-name="Group 2618" transform="translate(15.344 14.917)">
      <g id="Group_2616" data-name="Group 2616" transform="translate(0.121 0.121)">
        <path id="Path_5988" data-name="Path 5988" d="M2614.09,2539.631a.31.31,0,1,1,.31.31A.31.31,0,0,1,2614.09,2539.631Z" transform="translate(-2614.09 -2539.321)" fill="#ff456d"/>
      </g>
      <g id="Group_2617" data-name="Group 2617" transform="translate(0)">
        <path id="Path_5989" data-name="Path 5989" d="M2599.523,2525.182a.431.431,0,1,1,.431-.431A.431.431,0,0,1,2599.523,2525.182Zm0-.62a.189.189,0,1,0,.189.189A.189.189,0,0,0,2599.523,2524.563Z" transform="translate(-2599.092 -2524.321)" fill="#371a45"/>
      </g>
    </g>
    <g id="Group_2621" data-name="Group 2621" transform="translate(14.56 16.502)">
      <g id="Group_2619" data-name="Group 2619" transform="translate(0.121 0.121)">
        <path id="Path_5990" data-name="Path 5990" d="M2516.711,2736.4a.31.31,0,1,1,.31.31A.31.31,0,0,1,2516.711,2736.4Z" transform="translate(-2516.711 -2736.093)" fill="#ff456d"/>
      </g>
      <g id="Group_2620" data-name="Group 2620" transform="translate(0 0)">
        <path id="Path_5991" data-name="Path 5991" d="M2502.14,2721.956a.431.431,0,1,1,.431-.431A.431.431,0,0,1,2502.14,2721.956Zm0-.62a.189.189,0,1,0,.189.189A.189.189,0,0,0,2502.14,2721.336Z" transform="translate(-2501.709 -2721.094)" fill="#371a45"/>
      </g>
    </g>
    <g id="Group_2624" data-name="Group 2624" transform="translate(12.911 15.883)">
      <g id="Group_2622" data-name="Group 2622" transform="translate(0.121 0.121)">
        <path id="Path_5992" data-name="Path 5992" d="M2312.158,2659.49a.31.31,0,1,1,.31.31A.31.31,0,0,1,2312.158,2659.49Z" transform="translate(-2312.158 -2659.18)" fill="#ff456d"/>
      </g>
      <g id="Group_2623" data-name="Group 2623" transform="translate(0 0)">
        <path id="Path_5993" data-name="Path 5993" d="M2297.589,2645.042a.431.431,0,1,1,.431-.431A.431.431,0,0,1,2297.589,2645.042Zm0-.62a.189.189,0,1,0,.189.189A.189.189,0,0,0,2297.589,2644.421Z" transform="translate(-2297.158 -2644.18)" fill="#371a45"/>
      </g>
    </g>
  </g>
</svg>
