<svg xmlns="http://www.w3.org/2000/svg" width="16.019" height="16.015" viewBox="0 0 16.019 16.015">
  <path id="chat" d="M16.879,15.744a5.6,5.6,0,0,0-2.191-8.452,6.4,6.4,0,1,0-11.347,5.03l-1.112,1.1a.8.8,0,0,0,.571,1.37H7.35a5.6,5.6,0,0,0,5.046,3.2h4.8a.8.8,0,0,0,.568-1.367ZM6.8,12.393a5.3,5.3,0,0,0,.064.8H4.724L5,12.921a.8.8,0,0,0,0-1.135A4.742,4.742,0,0,1,3.6,8.4,4.8,4.8,0,0,1,8.4,3.6a4.75,4.75,0,0,1,4.518,3.2H12.4a5.6,5.6,0,0,0-5.6,5.6Zm8.428,4,.04.04H12.393a4,4,0,1,1,2.831-1.167.782.782,0,0,0,0,1.127Z" transform="translate(-1.981 -1.977)"/>
</svg>
