<svg xmlns="http://www.w3.org/2000/svg" width="19.409" height="19.383" viewBox="0 0 19.409 19.383">
  <path id="Path_1001" data-name="Path 1001" d="M10.721,10.722h5.815a.969.969,0,0,0,0-1.938H10.721a.969.969,0,0,0,0,1.938ZM6.845,8.784a.969.969,0,1,0,.969.969A.969.969,0,0,0,6.845,8.784Zm0,3.876a.969.969,0,1,0,.969.969A.969.969,0,0,0,6.845,12.66ZM11.69,2A9.691,9.691,0,0,0,2,11.691a9.584,9.584,0,0,0,2.19,6.134L2.251,19.763a.945.945,0,0,0,.717,1.618H11.69A9.691,9.691,0,0,0,11.69,2Zm0,17.444H5.3l.9-.9a.948.948,0,0,0,0-1.366,7.753,7.753,0,1,1,5.485,2.268Zm4.845-6.784H10.721a.969.969,0,0,0,0,1.938h5.815a.969.969,0,0,0,0-1.938Z" transform="translate(-1.972 -2)"/>
</svg>
