<svg xmlns="http://www.w3.org/2000/svg" width="12.572" height="16" viewBox="0 0 12.572 16">
  <g id="observation" transform="translate(-3 -1)">
    <path id="Path_8511" data-name="Path 8511" d="M5.285,1A2.285,2.285,0,0,0,3,3.285V14.712A2.285,2.285,0,0,0,5.285,17H6.6a1.9,1.9,0,0,1-.134-1.143H5.285a1.143,1.143,0,0,1-1.143-1.143V3.285A1.143,1.143,0,0,1,5.285,2.143H8.713V5a1.714,1.714,0,0,0,1.714,1.714h2.857V7.926A2.82,2.82,0,0,1,14.426,7.9V6.044a1.714,1.714,0,0,0-.5-1.212L10.6,1.5A1.714,1.714,0,0,0,9.383,1Zm7.762,4.571h-2.62A.571.571,0,0,1,9.856,5V2.379Z" fill="#212121"/>
    <path id="Path_8512" data-name="Path 8512" d="M12.163,8.487a1.662,1.662,0,1,1,2.351,2.35l-4.292,4.292a1.953,1.953,0,0,1-.907.514l-1.331.333a.79.79,0,0,1-.959-.959l.333-1.331a1.953,1.953,0,0,1,.514-.907Zm.808.808L8.679,13.587a.81.81,0,0,0-.213.376l-.19.762.762-.19a.811.811,0,0,0,.376-.213l4.292-4.292a.52.52,0,1,0-.735-.735Z" transform="translate(0.571 0.999)" fill="#212121"/>
  </g>
</svg>
