<svg xmlns="http://www.w3.org/2000/svg" width="14.295" height="14.295" viewBox="0 0 14.295 14.295">
  <g id="Group_2423" data-name="Group 2423" transform="translate(16104 14853)">
    <path id="Path_5896" data-name="Path 5896" d="M17.707,5H6.588A1.593,1.593,0,0,0,5,6.588V17.707a1.593,1.593,0,0,0,1.588,1.588H17.707a1.593,1.593,0,0,0,1.588-1.588V6.588A1.593,1.593,0,0,0,17.707,5ZM6.588,18.66a.956.956,0,0,1-.953-.953V16.4L9.447,12.29l6.131,6.369Zm12.071-.953a.956.956,0,0,1-.953.953H16.452l-4.574-4.765L15.4,10.226l3.256,3.51Zm0-4.908L15.642,9.543h0l-.016-.016c-.016,0-.016-.016-.032-.016a.055.055,0,0,0-.032-.016c-.016,0-.016-.016-.032-.016s-.016,0-.032-.016h-.191c-.016,0-.016,0-.032.016-.016,0-.016.016-.032.016s-.016.016-.032.016-.016.016-.032.016l-.016.016h0l-3.733,3.891L9.67,11.607h0a.016.016,0,0,1-.016-.016c-.016-.016-.016-.016-.032-.016a.055.055,0,0,0-.032-.016c-.016,0-.016-.016-.032-.016s-.016,0-.032-.016H9.336c-.016,0-.016,0-.032.016-.016,0-.016,0-.032.016-.016,0-.016.016-.032.016s-.016.016-.032.016a.016.016,0,0,0-.016.016h0l-3.558,3.86V6.588a.956.956,0,0,1,.953-.953H17.707a.956.956,0,0,1,.953.953ZM8.494,6.906a1.588,1.588,0,1,0,1.588,1.588A1.593,1.593,0,0,0,8.494,6.906Zm0,2.541a.953.953,0,1,1,.953-.953A.956.956,0,0,1,8.494,9.447Z" transform="translate(-16109 -14858)" fill="#222f3e"/>
    <path id="Path_5897" data-name="Path 5897" d="M18.588,17a1.588,1.588,0,1,0,1.588,1.588A1.593,1.593,0,0,0,18.588,17Zm0,2.541a.953.953,0,1,1,.953-.953A.956.956,0,0,1,18.588,19.541Z" transform="translate(-16119.094 -14868.094)" fill="#6bc105"/>
  </g>
</svg>
