<svg id="Group_2632" data-name="Group 2632" xmlns="http://www.w3.org/2000/svg" width="19.031" height="19.051" viewBox="0 0 19.031 19.051">
  <g id="Group_2427" data-name="Group 2427" transform="translate(0 15.669)" opacity="0.2" style="mix-blend-mode: normal;isolation: isolate">
    <g id="Group_2426" data-name="Group 2426" transform="translate(0 0)">
      <path id="Path_5898" data-name="Path 5898" d="M704.495,2763.807c-5.275,0-9.551.726-9.551,1.621,0,.85,3.857,1.539,8.752,1.609C703.9,2768.035,709.77,2763.807,704.495,2763.807Z" transform="translate(-694.944 -2763.807)" fill="#371a45"/>
    </g>
  </g>
  <g id="Group_2429" data-name="Group 2429" transform="translate(11.551 0.154)">
    <g id="Group_2428" data-name="Group 2428" transform="translate(0 0)">
      <path id="Path_5899" data-name="Path 5899" d="M2236,694.319a1.893,1.893,0,0,1,2.8.168,2.516,2.516,0,0,1,.013,3.151Z" transform="translate(-2236 -693.754)" fill="#fff"/>
    </g>
  </g>
  <g id="Group_2431" data-name="Group 2431" transform="translate(12.109 0.113)" opacity="0.6" style="mix-blend-mode: normal;isolation: isolate">
    <g id="Group_2430" data-name="Group 2430" transform="translate(0 0)">
      <path id="Path_5900" data-name="Path 5900" d="M2311.26,688.354a1.972,1.972,0,0,0-.74.184,2.284,2.284,0,0,1,1.957.757,2.709,2.709,0,0,1,.414,2.7,2.394,2.394,0,0,0-.172-2.911A1.788,1.788,0,0,0,2311.26,688.354Z" transform="translate(-2310.52 -688.353)" fill="#fff"/>
    </g>
  </g>
  <g id="Group_2433" data-name="Group 2433" transform="translate(11.551 0.171)" opacity="0.2" style="mix-blend-mode: normal;isolation: isolate">
    <g id="Group_2432" data-name="Group 2432" transform="translate(0 0)">
      <path id="Path_5901" data-name="Path 5901" d="M2237.078,695.986a2.462,2.462,0,0,0-1.078.531l2.815,3.32a2.926,2.926,0,0,0,.566-1.578A5.1,5.1,0,0,1,2237.078,695.986Z" transform="translate(-2236 -695.986)" fill="#371a45"/>
    </g>
  </g>
  <g id="Group_2435" data-name="Group 2435" transform="translate(11.405 0.008)">
    <g id="Group_2434" data-name="Group 2434" transform="translate(0 0)">
      <path id="Path_5902" data-name="Path 5902" d="M2219.542,678.5a.145.145,0,0,1-.111-.051l-2.816-3.319a.146.146,0,0,1,.013-.2,2.4,2.4,0,0,1,1.609-.6,1.991,1.991,0,0,1,1.4.782,2.438,2.438,0,0,1,.525,2.286,3.093,3.093,0,0,1-.51,1.05.144.144,0,0,1-.111.054Zm-2.608-3.445,2.6,3.061a2.933,2.933,0,0,0,.356-.805,2.131,2.131,0,0,0-.469-2.014,1.711,1.711,0,0,0-1.2-.678A2.056,2.056,0,0,0,2216.935,675.057Z" transform="translate(-2216.582 -674.326)" fill="#371a45"/>
    </g>
  </g>
  <g id="Group_2437" data-name="Group 2437" transform="translate(11.706 9.748)">
    <g id="Group_2436" data-name="Group 2436" transform="translate(0 0)">
      <path id="Path_5903" data-name="Path 5903" d="M2257.466,1973.834c-.772,1.834-1.509,5.392.956,7.016a2.893,2.893,0,0,0,1.741.552,11.474,11.474,0,0,0,1.711-.181.593.593,0,0,0,.411-.244.776.776,0,0,0,.122-.481c-.029-.478-.223-.989-1.307-1.239a3.763,3.763,0,0,1-.586-2.182C2260.624,1973.139,2257.466,1973.834,2257.466,1973.834Z" transform="translate(-2256.729 -1973.787)" fill="#fcfbfa"/>
    </g>
  </g>
  <g id="Group_2439" data-name="Group 2439" transform="translate(11.56 9.601)">
    <g id="Group_2438" data-name="Group 2438" transform="translate(0 0)">
      <path id="Path_5904" data-name="Path 5904" d="M2240.748,1962.107a3.148,3.148,0,0,1-1.682-.581,4.066,4.066,0,0,1-1.756-3.548,9.456,9.456,0,0,1,.748-3.646.146.146,0,0,1,.1-.086,2.837,2.837,0,0,1,2.241.5,3.431,3.431,0,0,1,.983,2.884,3.712,3.712,0,0,0,.531,2.049c1.15.283,1.333.874,1.362,1.359a.928.928,0,0,1-.143.568.737.737,0,0,1-.511.311l-.141.024a11.95,11.95,0,0,1-1.585.159C2240.847,1962.106,2240.8,1962.107,2240.748,1962.107Zm-2.453-7.589c-.307.759-1.837,4.941.931,6.765a2.784,2.784,0,0,0,1.651.529,11.73,11.73,0,0,0,1.556-.156l.141-.024a.452.452,0,0,0,.312-.178.638.638,0,0,0,.1-.4c-.026-.438-.189-.875-1.193-1.106a.15.15,0,0,1-.085-.056,3.887,3.887,0,0,1-.615-2.272,3.168,3.168,0,0,0-.875-2.649A2.538,2.538,0,0,0,2238.3,1954.518Z" transform="translate(-2237.308 -1954.194)" fill="#371a45"/>
    </g>
  </g>
  <g id="Group_2441" data-name="Group 2441" transform="translate(11.781 9.812)" opacity="0.2" style="mix-blend-mode: normal;isolation: isolate">
    <g id="Group_2440" data-name="Group 2440" transform="translate(0 0)">
      <path id="Path_5905" data-name="Path 5905" d="M2267.958,1982.291a2.631,2.631,0,0,0-.492.048c-.772,1.834-1.51,5.392.955,7.015a2.9,2.9,0,0,0,1.741.552,11.645,11.645,0,0,0,1.711-.181.6.6,0,0,0,.411-.245.772.772,0,0,0,.122-.481c0-.03-.007-.061-.01-.091-1.44.468-3.957.5-3.247-1.147a12.029,12.029,0,0,0,.676-4.71,2.2,2.2,0,0,0-1.295-.71l-.135-.022A3.1,3.1,0,0,0,2267.958,1982.291Z" transform="translate(-2266.728 -1982.291)" fill="#371a45"/>
    </g>
  </g>
  <g id="Group_2443" data-name="Group 2443" transform="translate(3.855 8.988)">
    <g id="Group_2442" data-name="Group 2442" transform="translate(0 0)">
      <path id="Path_5906" data-name="Path 5906" d="M1215.125,1872.355a25.158,25.158,0,0,1,4.742.644s1.224,7.525-5.927,7.885-3.853-7.422-3.853-7.422C1211.119,1872.6,1213.265,1872.355,1215.125,1872.355Z" transform="translate(-1209.327 -1872.355)" fill="#fcfbfa"/>
    </g>
  </g>
  <g id="Group_2445" data-name="Group 2445" transform="translate(3.711 8.842)">
    <g id="Group_2444" data-name="Group 2444" transform="translate(0)">
      <path id="Path_5907" data-name="Path 5907" d="M1194.4,1861.773a4.123,4.123,0,0,1-3.621-1.5,5.23,5.23,0,0,1-.532-3.919,11.307,11.307,0,0,1,.634-2.222.149.149,0,0,1,.041-.055c1.19-.994,3.726-1.142,5.131-1.142a25.466,25.466,0,0,1,4.776.648.145.145,0,0,1,.11.118,9.381,9.381,0,0,1,.049,2.07,7.126,7.126,0,0,1-1.4,3.87,6.145,6.145,0,0,1-4.709,2.115Q1194.634,1861.773,1194.4,1861.773Zm-3.264-7.49c-.15.374-1.494,3.863-.119,5.829.7.995,1.989,1.452,3.843,1.358a5.869,5.869,0,0,0,4.5-2.006c1.656-2.048,1.379-5.044,1.308-5.615a24.639,24.639,0,0,0-4.611-.618C1194.7,1853.23,1192.271,1853.368,1191.138,1854.282Z" transform="translate(-1190.114 -1852.939)" fill="#371a45"/>
    </g>
  </g>
  <g id="Group_2447" data-name="Group 2447" transform="translate(3.855 9.009)" opacity="0.2" style="mix-blend-mode: normal;isolation: isolate">
    <g id="Group_2446" data-name="Group 2446" transform="translate(0 0)">
      <path id="Path_5908" data-name="Path 5908" d="M1215.125,1875.219c-1.86,0-4.006.247-5.038,1.108,0,0-3.3,7.783,3.854,7.423.261-.013.508-.039.747-.071a3.224,3.224,0,0,0-.8-2.19,1.365,1.365,0,0,1-.457-1.23c3.22,2.43,5.67-1.622,6.51-3.3a8.561,8.561,0,0,0-.078-1.1A25.13,25.13,0,0,0,1215.125,1875.219Z" transform="translate(-1209.327 -1875.219)" fill="#371a45"/>
    </g>
  </g>
  <g id="Group_2449" data-name="Group 2449" transform="translate(1.053 12.048)">
    <g id="Group_2448" data-name="Group 2448" transform="translate(0 0)">
      <path id="Path_5909" data-name="Path 5909" d="M838.51,2280.6c-.76-.028-1.75,1.437-1.937,2.51a.674.674,0,0,0-.823.239c-.506.625-.38,2.53.8,2.714a34.633,34.633,0,0,0,4.781,0S841.02,2280.7,838.51,2280.6Z" transform="translate(-835.468 -2280.602)" fill="#fff"/>
    </g>
  </g>
  <g id="Group_2451" data-name="Group 2451" transform="translate(1.065 12.652)" opacity="0.6" style="mix-blend-mode: normal;isolation: isolate">
    <g id="Group_2450" data-name="Group 2450" transform="translate(0)">
      <path id="Path_5910" data-name="Path 5910" d="M839.127,2361.229a4.3,4.3,0,0,0-.959,1.915.675.675,0,0,0-.823.24,2.045,2.045,0,0,0-.213,1.6c0-.027,0-.049,0-.077a1.352,1.352,0,0,1,1.448-1.539A7.542,7.542,0,0,1,839.127,2361.229Z" transform="translate(-837.067 -2361.229)" fill="#fff"/>
    </g>
  </g>
  <g id="Group_2453" data-name="Group 2453" transform="translate(1.422 12.047)" opacity="0.2" style="mix-blend-mode: normal;isolation: isolate">
    <g id="Group_2452" data-name="Group 2452" transform="translate(0)">
      <path id="Path_5911" data-name="Path 5911" d="M887.369,2280.524c-.456-.017-.993.508-1.392,1.16a.01.01,0,0,1,0,0,4.092,4.092,0,0,0,.564,2.51c.808,1.221-.642,1.694-1.854,1.335a1.092,1.092,0,0,0,.724.457,34.556,34.556,0,0,0,4.781,0S889.879,2280.619,887.369,2280.524Z" transform="translate(-884.687 -2280.524)" fill="#371a45"/>
    </g>
  </g>
  <g id="Group_2455" data-name="Group 2455" transform="translate(0.908 11.902)">
    <g id="Group_2454" data-name="Group 2454" transform="translate(0 0)">
      <path id="Path_5912" data-name="Path 5912" d="M819.149,2267.033a13.557,13.557,0,0,1-1.869-.1,1.357,1.357,0,0,1-1.046-.929,2.281,2.281,0,0,1,.153-2.02.841.841,0,0,1,.826-.335c.252-1.056,1.207-2.5,2.053-2.469a2.082,2.082,0,0,1,1.611.953,6.079,6.079,0,0,1,.876,1.919,14.216,14.216,0,0,1,.476,2.729.145.145,0,0,1-.136.153C822,2266.943,820.529,2267.033,819.149,2267.033Zm-2.086-3.1a.571.571,0,0,0-.449.243,2.032,2.032,0,0,0-.108,1.732,1.081,1.081,0,0,0,.819.746,32.305,32.305,0,0,0,4.6.008c-.073-.848-.545-5.1-2.672-5.182h-.017c-.657,0-1.6,1.391-1.772,2.39a.145.145,0,0,1-.078.1.147.147,0,0,1-.131,0A.461.461,0,0,0,817.063,2263.928Z" transform="translate(-816.075 -2261.183)" fill="#371a45"/>
    </g>
  </g>
  <g id="Group_2457" data-name="Group 2457" transform="translate(2.005 14.408)">
    <g id="Group_2456" data-name="Group 2456" transform="translate(0 0)">
      <path id="Path_5913" data-name="Path 5913" d="M962.613,2595.529c.032.012.057.022.083.034a.83.83,0,0,1,.074.041,1.2,1.2,0,0,1,.138.095,1.442,1.442,0,0,1,.234.237,1.459,1.459,0,0,1,.18.28,1.189,1.189,0,0,1,.106.31.022.022,0,0,1-.017.025.023.023,0,0,1-.02-.007h0a2.811,2.811,0,0,0-.209-.226c-.033-.037-.074-.068-.109-.1s-.076-.063-.115-.093c-.077-.06-.158-.114-.238-.168l-.06-.041-.059-.041-.059-.041c-.019-.014-.04-.028-.055-.04l-.016-.014a.146.146,0,0,1,.142-.249Z" transform="translate(-962.419 -2595.521)" fill="#371a45"/>
    </g>
  </g>
  <g id="Group_2459" data-name="Group 2459" transform="translate(1.612 14.416)">
    <g id="Group_2458" data-name="Group 2458" transform="translate(0)">
      <path id="Path_5914" data-name="Path 5914" d="M910.253,2596.663s0,.008,0,.013v.018l0,.038c0,.026,0,.052.006.079.005.053.01.109.021.165a1.678,1.678,0,0,0,.044.172c.008.03.02.058.028.088s.022.059.032.091h0a.017.017,0,0,1-.011.021.016.016,0,0,1-.015,0,1,1,0,0,1-.08-.062.851.851,0,0,1-.189-.24.7.7,0,0,1-.072-.2.513.513,0,0,1-.009-.109.412.412,0,0,1,0-.057.276.276,0,0,1,.005-.029.336.336,0,0,1,.009-.034.112.112,0,1,1,.22.048Z" transform="translate(-910.014 -2596.526)" fill="#371a45"/>
    </g>
  </g>
  <g id="Group_2461" data-name="Group 2461" transform="translate(1.153 14.798)">
    <g id="Group_2460" data-name="Group 2460" transform="translate(0 0)">
      <path id="Path_5915" data-name="Path 5915" d="M849.045,2647.724a.133.133,0,0,1,.007.03c0,.011,0,.023.005.034s.006.046.009.071c.006.047.009.1.017.145s.016.1.03.151.028.1.043.159h0a.016.016,0,0,1-.012.021.015.015,0,0,1-.014,0,.691.691,0,0,1-.239-.262.655.655,0,0,1-.066-.17.51.51,0,0,1-.013-.092.472.472,0,0,1,0-.047.417.417,0,0,1,.007-.052.107.107,0,0,1,.125-.085.109.109,0,0,1,.073.052Z" transform="translate(-848.813 -2647.623)" fill="#371a45"/>
    </g>
  </g>
  <g id="Group_2463" data-name="Group 2463" transform="translate(1.562 15.669)">
    <g id="Group_2462" data-name="Group 2462" transform="translate(0 0)">
      <path id="Path_5916" data-name="Path 5916" d="M903.537,2764.708c.219-.005.3-.271.495-.374s.456-.044.508-.169c.1-.239-.405-.546-.886-.234C903.142,2764.263,903.332,2764.714,903.537,2764.708Z" transform="translate(-903.326 -2763.799)" fill="#fff"/>
    </g>
  </g>
  <g id="Group_2465" data-name="Group 2465" transform="translate(3.297 9.841)">
    <g id="Group_2464" data-name="Group 2464" transform="translate(0 0)">
      <path id="Path_5917" data-name="Path 5917" d="M1135.956,1986.239c-.926,1.645-2.043,4.942-.05,6.832a2.554,2.554,0,0,0,1.485.767,9.71,9.71,0,0,0,1.552.063.522.522,0,0,0,.4-.177.783.783,0,0,0,.171-.444c.036-.461-.072-.975-1.008-1.363a3.846,3.846,0,0,1-.243-2.164C1138.867,1986.009,1135.956,1986.239,1135.956,1986.239Z" transform="translate(-1134.795 -1986.236)" fill="#fff"/>
    </g>
  </g>
  <g id="Group_2467" data-name="Group 2467" transform="translate(3.298 11.083)" opacity="0.2" style="mix-blend-mode: normal;isolation: isolate">
    <g id="Group_2466" data-name="Group 2466" transform="translate(0)">
      <path id="Path_5918" data-name="Path 5918" d="M1135.534,2151.938c-.682,1.742-1.052,4.114.524,5.609a2.553,2.553,0,0,0,1.484.766,9.724,9.724,0,0,0,1.553.063.518.518,0,0,0,.4-.176.778.778,0,0,0,.171-.443,1.15,1.15,0,0,0-.165-.742,2.326,2.326,0,0,1-2.777-.09C1135.219,2155.915,1135.346,2153.321,1135.534,2151.938Z" transform="translate(-1134.948 -2151.938)" fill="#371a45"/>
    </g>
  </g>
  <g id="Group_2469" data-name="Group 2469" transform="translate(5.755 15.468)" opacity="0.6" style="mix-blend-mode: normal;isolation: isolate">
    <g id="Group_2468" data-name="Group 2468" transform="translate(0 0)">
      <path id="Path_5919" data-name="Path 5919" d="M1462.734,2737.131a3.119,3.119,0,0,1,2.2.908A1.523,1.523,0,0,0,1462.734,2737.131Z" transform="translate(-1462.734 -2736.976)" fill="#fff"/>
    </g>
  </g>
  <g id="Group_2471" data-name="Group 2471" transform="translate(3.15 9.695)">
    <g id="Group_2470" data-name="Group 2470" transform="translate(0 0)">
      <path id="Path_5920" data-name="Path 5920" d="M1119.15,1974.742c-.216,0-.457-.015-1.166-.072a2.712,2.712,0,0,1-1.573-.807,4.086,4.086,0,0,1-1.114-3.63,9.524,9.524,0,0,1,1.138-3.379.146.146,0,0,1,.115-.074,2.5,2.5,0,0,1,1.9.73,3.41,3.41,0,0,1,.564,2.952,3.805,3.805,0,0,0,.209,2.029c.992.43,1.08,1.019,1.044,1.486a.925.925,0,0,1-.2.522.664.664,0,0,1-.509.232l-.129,0C1119.318,1974.74,1119.236,1974.742,1119.15,1974.742Zm-2.5-7.672c-.38.7-2.268,4.467-.037,6.583a2.442,2.442,0,0,0,1.4.727,9.893,9.893,0,0,0,1.408.066l.129,0a.38.38,0,0,0,.288-.122.638.638,0,0,0,.14-.365c.033-.421-.056-.86-.918-1.217a.145.145,0,0,1-.075-.07,3.968,3.968,0,0,1-.257-2.252,3.149,3.149,0,0,0-.489-2.706,2.2,2.2,0,0,0-1.583-.641Z" transform="translate(-1115.254 -1966.778)" fill="#371a45"/>
    </g>
  </g>
  <g id="Group_2476" data-name="Group 2476" transform="translate(4.112 10.006)" opacity="0.2" style="mix-blend-mode: normal;isolation: isolate">
    <g id="Group_2473" data-name="Group 2473" transform="translate(0.022 0.019)">
      <g id="Group_2472" data-name="Group 2472">
        <path id="Path_5921" data-name="Path 5921" d="M1246.922,2010.73c-.078,0-.124,0-.124,0-.12.214-.244.214-.364.477a4.269,4.269,0,0,0,1.376,1.372c1.36.973.837,2.032,1.276,2.869a4.12,4.12,0,0,1,.017-1.2C1249.634,2010.971,1247.471,2010.737,1246.922,2010.73Z" transform="translate(-1246.435 -2010.73)" fill="#563121"/>
      </g>
    </g>
    <g id="Group_2475" data-name="Group 2475" transform="translate(0 0)">
      <g id="Group_2474" data-name="Group 2474">
        <path id="Path_5922" data-name="Path 5922" d="M1246.217,2013.072l-.049-.094a2.606,2.606,0,0,1-.229-.934,2.344,2.344,0,0,0-1.042-1.929,3.932,3.932,0,0,1-1.2-1.126,2.87,2.87,0,0,0-.182-.249l-.008-.009.005-.011a.808.808,0,0,1,.2-.281.793.793,0,0,0,.16-.2l0-.009h.01s.047,0,.125,0a2.312,2.312,0,0,1,1.727.76,3.383,3.383,0,0,1,.473,2.778,4.1,4.1,0,0,0-.017,1.2Zm-2.663-4.347a2.91,2.91,0,0,1,.177.243,3.9,3.9,0,0,0,1.188,1.117,2.4,2.4,0,0,1,1.057,1.955,2.917,2.917,0,0,0,.176.818,4.139,4.139,0,0,1,.03-1.1,3.347,3.347,0,0,0-.465-2.749,2.274,2.274,0,0,0-1.7-.746h0c-.056,0-.1,0-.112,0a.841.841,0,0,1-.161.2A.775.775,0,0,0,1243.554,2008.725Z" transform="translate(-1243.51 -2008.229)" fill="#371a45"/>
      </g>
    </g>
  </g>
  <g id="Group_2478" data-name="Group 2478" transform="translate(4.627 8.598)">
    <g id="Group_2477" data-name="Group 2477" transform="translate(0 0)">
      <path id="Path_5923" data-name="Path 5923" d="M1312.206,1821.843s3.391,3.722,5.466,3.707c1.759-.013,4.009-2.439,4.278-3.961C1321.95,1821.589,1318.528,1818.721,1312.206,1821.843Z" transform="translate(-1312.206 -1820.386)" fill="#fff"/>
    </g>
  </g>
  <g id="Group_2480" data-name="Group 2480" transform="translate(4.768 8.523)" opacity="0.2" style="mix-blend-mode: normal;isolation: isolate">
    <g id="Group_2479" data-name="Group 2479" transform="translate(0 0)">
      <path id="Path_5924" data-name="Path 5924" d="M1336.822,1810.394a12.281,12.281,0,0,0-5.713,1.383c.024.1.051.2.08.3.2.21.563.584,1.184,1.144a3.481,3.481,0,0,0,.974-.218,2.62,2.62,0,0,0,1.7.5,4.005,4.005,0,0,0,4.358-.669,3.4,3.4,0,0,0,.845-.119,3.553,3.553,0,0,0,.458-1.127A6.662,6.662,0,0,0,1336.822,1810.394Z" transform="translate(-1331.108 -1810.389)" fill="#371a45"/>
    </g>
  </g>
  <g id="Group_2482" data-name="Group 2482" transform="translate(5.686 15.281)">
    <g id="Group_2481" data-name="Group 2481" transform="translate(0)">
      <path id="Path_5925" data-name="Path 5925" d="M1454.852,2712.34c-.019,0-.046-.007-.071-.011l-.075-.013-.075-.014-.075-.012c-.1-.014-.2-.029-.3-.033a1.578,1.578,0,0,0-.31.018l-.079.014-.078.021-.04.01-.038.014-.08.027h0a.021.021,0,0,1-.021-.035c.02-.021.041-.042.062-.061l.032-.031.036-.026c.024-.018.048-.036.073-.052l.079-.044a1.242,1.242,0,0,1,.344-.115,1.354,1.354,0,0,1,.363-.019,1.18,1.18,0,0,1,.179.029c.03.006.059.016.088.024a.851.851,0,0,1,.09.037.145.145,0,0,1-.077.276Z" transform="translate(-1453.597 -2711.971)" fill="#371a45"/>
    </g>
  </g>
  <g id="Group_2484" data-name="Group 2484" transform="translate(8.91 12.11)" opacity="0.4" style="mix-blend-mode: normal;isolation: isolate">
    <g id="Group_2483" data-name="Group 2483" transform="translate(0 0)">
      <path id="Path_5926" data-name="Path 5926" d="M1883.664,2288.883a3.007,3.007,0,0,0,1.258.588,6.456,6.456,0,0,1-1.28-.109c1.838.952,2.717-.171,2.774-.249l.039-.035A4.46,4.46,0,0,1,1883.664,2288.883Z" transform="translate(-1883.641 -2288.883)" fill="#fff"/>
    </g>
  </g>
  <g id="Group_2486" data-name="Group 2486" transform="translate(7.171 16.827)">
    <g id="Group_2485" data-name="Group 2485" transform="translate(0 0)">
      <path id="Path_5927" data-name="Path 5927" d="M1651.7,2918.935a.161.161,0,0,1,0-.033c0-.011.006-.023.009-.036s.013-.048.021-.072c.015-.048.032-.1.047-.146a1.336,1.336,0,0,0,.038-.155c.012-.055.017-.109.027-.171h0a.019.019,0,0,1,.022-.016.021.021,0,0,1,.012.007.585.585,0,0,1,.089.167.769.769,0,0,1,.04.188.684.684,0,0,1-.008.193.6.6,0,0,1-.026.093c-.006.016-.013.03-.02.045s-.016.028-.028.047a.123.123,0,0,1-.17.032.121.121,0,0,1-.053-.088Z" transform="translate(-1651.699 -2918.305)" fill="#371a45"/>
    </g>
  </g>
  <g id="Group_2488" data-name="Group 2488" transform="translate(6.459 16.827)">
    <g id="Group_2487" data-name="Group 2487" transform="translate(0 0)">
      <path id="Path_5928" data-name="Path 5928" d="M1556.642,2918.84s0,0,0,0a.041.041,0,0,1,0-.007l0-.017.006-.034.013-.069c.009-.046.02-.095.026-.146a1.076,1.076,0,0,0,.008-.158c0-.028,0-.056,0-.085s0-.058-.006-.09v0a.019.019,0,0,1,.019-.02.017.017,0,0,1,.014.005.627.627,0,0,1,.066.068.742.742,0,0,1,.055.079.719.719,0,0,1,.076.182.611.611,0,0,1,.019.2.493.493,0,0,1-.018.1c-.005.017-.011.033-.019.05s-.008.016-.012.025l-.007.013-.01.015a.127.127,0,1,1-.229-.109Z" transform="translate(-1556.63 -2918.209)" fill="#371a45"/>
    </g>
  </g>
  <g id="Group_2490" data-name="Group 2490" transform="translate(4.481 8.453)">
    <g id="Group_2489" data-name="Group 2489" transform="translate(0 0)">
      <path id="Path_5929" data-name="Path 5929" d="M1298.388,1806.434c-2.116,0-5.422-3.6-5.562-3.755a.146.146,0,0,1,.043-.229,14.065,14.065,0,0,1,4.234-1.37,9.28,9.28,0,0,1,3.1.061,6.043,6.043,0,0,1,2.567,1.075.146.146,0,0,1,.05.137,5.518,5.518,0,0,1-1.622,2.625,4.428,4.428,0,0,1-2.8,1.456Zm-5.213-3.809c.643.676,3.452,3.518,5.212,3.518h.012a4.146,4.146,0,0,0,2.6-1.373,5.48,5.48,0,0,0,1.522-2.381,6.153,6.153,0,0,0-2.389-.965A11.072,11.072,0,0,0,1293.176,1802.625Z" transform="translate(-1292.789 -1800.979)" fill="#371a45"/>
    </g>
  </g>
  <g id="Group_2492" data-name="Group 2492" transform="translate(4.648 10.025)">
    <g id="Group_2491" data-name="Group 2491" transform="translate(0 0)">
      <path id="Path_5930" data-name="Path 5930" d="M1315.009,2010.729a5.885,5.885,0,0,0,.537.412c.183.129.374.249.564.366.383.232.78.439,1.182.634l.3.144c.1.047.205.089.307.135.2.095.414.172.621.261.1.046.21.082.314.124s.21.082.315.125c.212.079.425.156.636.244-.113-.016-.225-.036-.337-.056s-.225-.041-.336-.065-.221-.055-.332-.084l-.165-.044-.083-.022-.082-.026c-.108-.035-.217-.07-.325-.107s-.215-.077-.322-.119-.213-.084-.318-.128l-.312-.144a7.766,7.766,0,0,1-1.182-.7,5.735,5.735,0,0,1-.531-.438c-.084-.077-.164-.159-.242-.244A2.512,2.512,0,0,1,1315.009,2010.729Z" transform="translate(-1315.009 -2010.729)" fill="#371a45"/>
    </g>
  </g>
  <g id="Group_2494" data-name="Group 2494" transform="translate(11.658 9.838)">
    <g id="Group_2493" data-name="Group 2493" transform="translate(0)">
      <path id="Path_5931" data-name="Path 5931" d="M2253,1985.779a1.981,1.981,0,0,1-.08.219c-.03.071-.063.141-.1.21a3.646,3.646,0,0,1-.242.4,3.994,3.994,0,0,1-.62.7,3.573,3.573,0,0,1-.776.529,2.743,2.743,0,0,1-.89.275,7.712,7.712,0,0,0,.787-.454,6.361,6.361,0,0,0,.705-.546,8.316,8.316,0,0,0,.633-.632C2252.617,1986.258,2252.81,1986.025,2253,1985.779Z" transform="translate(-2250.291 -1985.779)" fill="#371a45"/>
    </g>
  </g>
  <g id="Group_2496" data-name="Group 2496" transform="translate(3.589 0.145)">
    <g id="Group_2495" data-name="Group 2495" transform="translate(0 0)">
      <path id="Path_5932" data-name="Path 5932" d="M1180.13,692.656c-1.633,0-5.1.992-6.083,5.441-1.052,4.753,1.9,5.808,3.2,4.925a1.409,1.409,0,0,0,1.786.53s2.845,1.118,4.3-.647c0,0,.785.53,1.491-.667,0,0,2.59-1.668.353-4.376C1185.173,697.861,1184.568,692.656,1180.13,692.656Z" transform="translate(-1173.825 -692.656)" fill="#fcfbfa"/>
    </g>
  </g>
  <g id="Group_2498" data-name="Group 2498" transform="translate(3.591 2.283)" opacity="0.2" style="mix-blend-mode: normal;isolation: isolate">
    <g id="Group_2497" data-name="Group 2497" transform="translate(0 0)">
      <path id="Path_5933" data-name="Path 5933" d="M1175.9,977.87a7.408,7.408,0,0,0-1.583,3.3c-1.052,4.753,1.9,5.808,3.2,4.924a1.408,1.408,0,0,0,1.785.53s2.846,1.119,4.3-.647c0,0,.784.53,1.491-.667a2.709,2.709,0,0,0,.672-3.948c.386,2.46-1.31,2.8-1.31,2.8-2.333,2.589-7.1.958-7.1.958a2.34,2.34,0,0,1-2.2-.983,4.014,4.014,0,0,1-.406-3.246C1175,979.8,1175.664,978.62,1175.9,977.87Z" transform="translate(-1174.096 -977.87)" fill="#371a45"/>
    </g>
  </g>
  <g id="Group_2500" data-name="Group 2500" transform="translate(6.823 5.873)">
    <g id="Group_2499" data-name="Group 2499" transform="translate(0 0)">
      <path id="Path_5934" data-name="Path 5934" d="M1609.36,1456.8c-.111,0-.222,0-.335.016a4.189,4.189,0,0,0-3.747,4.674c.031-.018.066-.032.1-.052a1.408,1.408,0,0,0,1.785.53s2.845,1.118,4.3-.648c0,0,.785.531,1.492-.666l.007-.006a2.15,2.15,0,0,0-.1-1.723A4.154,4.154,0,0,0,1609.36,1456.8Z" transform="translate(-1605.25 -1456.796)" fill="#6bc105"/>
    </g>
  </g>
  <g id="Group_2502" data-name="Group 2502" transform="translate(4.992 0.114)" opacity="0.6" style="mix-blend-mode: normal;isolation: isolate">
    <g id="Group_2501" data-name="Group 2501" transform="translate(0 0)">
      <path id="Path_5935" data-name="Path 5935" d="M1365.771,688.413a6.171,6.171,0,0,0-4.865,2.607,7.756,7.756,0,0,1,4.864-2.085c.178.008.345.025.509.047a.152.152,0,0,0-.027.04c-.067.185.273.478.76.655s.936.171,1-.014a.175.175,0,0,0-.008-.117,7.849,7.849,0,0,1,2.629,3.208C1370.243,691.273,1369.062,688.413,1365.771,688.413Z" transform="translate(-1360.905 -688.413)" fill="#fff"/>
    </g>
  </g>
  <g id="Group_2504" data-name="Group 2504" transform="translate(3.443 0)">
    <g id="Group_2503" data-name="Group 2503" transform="translate(0 0)">
      <path id="Path_5936" data-name="Path 5936" d="M1161.634,684.775q-.161,0-.328-.011a6.152,6.152,0,0,1-1.587-.326,1.5,1.5,0,0,1-1.831-.493,2.119,2.119,0,0,1-2.2-.163,2.974,2.974,0,0,1-1.156-1.731,6.886,6.886,0,0,1,.057-3.257,6.541,6.541,0,0,1,6.225-5.555,4.722,4.722,0,0,1,4.314,2.679,8.191,8.191,0,0,1,.868,2.612,3.526,3.526,0,0,1,.917,2.23,2.638,2.638,0,0,1-.549,1.567,3.386,3.386,0,0,1-.751.741,1.573,1.573,0,0,1-.95.8,1,1,0,0,1-.614-.056A3.11,3.11,0,0,1,1161.634,684.775Zm-1.923-.64a.143.143,0,0,1,.053.01c.027.011,2.765,1.058,4.131-.6a.146.146,0,0,1,.194-.028.7.7,0,0,0,.509.073,1.331,1.331,0,0,0,.775-.694.144.144,0,0,1,.047-.048,3.067,3.067,0,0,0,.7-.689c.535-.724.9-1.913-.385-3.471a.146.146,0,0,1-.032-.076,8,8,0,0,0-.845-2.558,4.391,4.391,0,0,0-4.054-2.519,6.255,6.255,0,0,0-5.94,5.326c-.7,3.157.451,4.328.977,4.684a1.824,1.824,0,0,0,2,.089.145.145,0,0,1,.2.04,1.255,1.255,0,0,0,1.6.48A.146.146,0,0,1,1159.711,684.135Z" transform="translate(-1154.359 -673.24)" fill="#371a45"/>
    </g>
  </g>
  <g id="Group_2506" data-name="Group 2506" transform="translate(6.683 8.728)">
    <g id="Group_2505" data-name="Group 2505" transform="translate(0 0)">
      <path id="Path_5937" data-name="Path 5937" d="M1586.81,1839.617l-.018-.031-.016-.028c-.01-.019-.019-.038-.027-.057-.017-.038-.032-.077-.046-.115a1.6,1.6,0,0,1-.06-.237,1.746,1.746,0,0,1-.016-.485,1.918,1.918,0,0,1,.2-.683,1.019,1.019,0,0,1,.058-.1c.02-.033.041-.066.062-.1a.021.021,0,0,1,.029-.006.021.021,0,0,1,.009.022v0c-.015.076-.036.147-.05.22s-.028.145-.033.219a2.3,2.3,0,0,0-.012.431,2.6,2.6,0,0,0,.063.417c.007.034.017.068.025.1s.019.067.028.1.02.066.031.1c.005.016.01.032.016.048l.008.023.006.02.007.03a.144.144,0,0,1-.263.108Z" transform="translate(-1586.617 -1837.772)" fill="#371a45"/>
    </g>
  </g>
  <g id="Group_2508" data-name="Group 2508" transform="translate(7.186 5.873)" opacity="0.6" style="mix-blend-mode: normal;isolation: isolate">
    <g id="Group_2507" data-name="Group 2507" transform="translate(0 0)">
      <path id="Path_5938" data-name="Path 5938" d="M1657.445,1456.8c-.111,0-.223,0-.336.016a4.288,4.288,0,0,0-3.409,2.432,5.193,5.193,0,0,1,3.859-2.065,4.963,4.963,0,0,1,3.376,1.727A4.155,4.155,0,0,0,1657.445,1456.8Z" transform="translate(-1653.7 -1456.796)" fill="#fff"/>
    </g>
  </g>
  <g id="Group_2510" data-name="Group 2510" transform="translate(7.292 5.728)">
    <g id="Group_2509" data-name="Group 2509" transform="translate(0)">
      <path id="Path_5939" data-name="Path 5939" d="M1675.094,1441.519c.017-.218.042-.424.054-.628a2.987,2.987,0,0,0,0-.307,2.242,2.242,0,0,0-.034-.3,2.326,2.326,0,0,0-.567-1.092,4.268,4.268,0,0,0-.967-.823,4.046,4.046,0,0,0-1.166-.5,3.368,3.368,0,0,0-1.256-.073,4.164,4.164,0,0,0-1.223.34,4.032,4.032,0,0,0-1.055.7c-.079.072-.155.147-.228.224s-.14.162-.206.245-.135.165-.21.244a1.115,1.115,0,0,1-.266.21.054.054,0,0,1-.079-.056.93.93,0,0,1,.119-.324,1.731,1.731,0,0,1,.2-.274c.075-.084.155-.165.233-.246s.158-.162.243-.238a4.315,4.315,0,0,1,1.131-.753,4.45,4.45,0,0,1,1.308-.364,3.617,3.617,0,0,1,.684-.025,3.785,3.785,0,0,1,.677.1,4.326,4.326,0,0,1,1.25.534,4.526,4.526,0,0,1,.55.4,4.29,4.29,0,0,1,.484.479,3.249,3.249,0,0,1,.4.564,2.667,2.667,0,0,1,.246.655,1.916,1.916,0,0,1,.041.7,1.421,1.421,0,0,1-.084.341,1.1,1.1,0,0,1-.077.159.74.74,0,0,1-.107.145.051.051,0,0,1-.072,0,.051.051,0,0,1-.016-.04Z" transform="translate(-1667.888 -1437.474)" fill="#371a45"/>
    </g>
  </g>
  <g id="Group_2512" data-name="Group 2512" transform="translate(7.888 6.912)">
    <g id="Group_2511" data-name="Group 2511" transform="translate(0)">
      <path id="Path_5940" data-name="Path 5940" d="M1750.6,1595.7c-.156.17-.573-.4-.922-.178s-.281.454-.458.513-.47-.158-.773.053-.241.611-.538.723-.621.288-.615.646.527.283.612.461-.066.6.25.764.817-.125.968-.158.577.229.955.23c.447,0,.474-.369.83-.481s.648.218,1.073.121c.408-.094.329-.582.586-.851s1.014-.487,1.008-.856-.441-.29-.757-.5-.214-.281-.536-.448-.563.159-.73.066S1751.139,1595.111,1750.6,1595.7Z" transform="translate(-1747.293 -1595.446)" fill="#6bc105"/>
    </g>
  </g>
  <g id="Group_2514" data-name="Group 2514" transform="translate(8.752 6.778)" opacity="0.2" style="mix-blend-mode: normal;isolation: isolate">
    <g id="Group_2513" data-name="Group 2513" transform="translate(0)">
      <path id="Path_5941" data-name="Path 5941" d="M1862.641,1578.948a.728.728,0,0,1,.547-.546c.5-.154,1.537-.309,1.781-.823a4.948,4.948,0,0,0,.881.585c.386.173,1.131-.122,1.549.366a2.558,2.558,0,0,1-2.713,1.537C1862.947,1579.9,1862.641,1578.948,1862.641,1578.948Z" transform="translate(-1862.641 -1577.578)" fill="#371a45"/>
    </g>
  </g>
  <g id="Group_2516" data-name="Group 2516" transform="translate(8.78 7.504)">
    <g id="Group_2515" data-name="Group 2515" transform="translate(0 0)">
      <path id="Path_5942" data-name="Path 5942" d="M1866.361,1675.092a1.165,1.165,0,0,0,1.257.2c.588-.361.8-.856,1.1-.874s.565.472,1.212.683a1.006,1.006,0,0,0,1.157-.4,2.772,2.772,0,0,1-2.454,1.508A2.339,2.339,0,0,1,1866.361,1675.092Z" transform="translate(-1866.361 -1674.414)" fill="#371a45"/>
    </g>
  </g>
  <g id="Group_2518" data-name="Group 2518" transform="translate(10.444 6.012)">
    <g id="Group_2517" data-name="Group 2517" transform="translate(0 0)">
      <path id="Path_5943" data-name="Path 5943" d="M2088.392,1475.881c.1.2.524.046.672.045.131,0,.538.167.656-.051.146-.267-.2-.469-.619-.492S2088.251,1475.6,2088.392,1475.881Z" transform="translate(-2088.365 -1475.381)" fill="#371a45"/>
    </g>
  </g>
  <g id="Group_2520" data-name="Group 2520" transform="translate(9.301 5.105)">
    <g id="Group_2519" data-name="Group 2519" transform="translate(0 0)">
      <path id="Path_5944" data-name="Path 5944" d="M1935.841,1354.856a1.7,1.7,0,0,1,.291-.187,2.468,2.468,0,0,1,.316-.137,2.676,2.676,0,0,1,.676-.143,2.484,2.484,0,0,1,.692.04,2.086,2.086,0,0,1,.643.244.044.044,0,0,1-.033.081h0a3.919,3.919,0,0,0-.64-.11,3.58,3.58,0,0,0-.639.005,4.982,4.982,0,0,0-.633.107c-.21.048-.42.109-.628.176h0a.044.044,0,0,1-.042-.076Z" transform="translate(-1935.825 -1354.381)" fill="#371a45"/>
    </g>
  </g>
  <g id="Group_2522" data-name="Group 2522" transform="translate(10.975 6.4)">
    <g id="Group_2521" data-name="Group 2521" transform="translate(0)">
      <path id="Path_5945" data-name="Path 5945" d="M2159.338,1528.356a.146.146,0,0,1-.145-.142l-.025-.907a.146.146,0,0,1,.141-.149h0a.145.145,0,0,1,.146.141l.024.907a.145.145,0,0,1-.141.15Z" transform="translate(-2159.168 -1527.158)" fill="#371a45"/>
    </g>
  </g>
  <g id="Group_2524" data-name="Group 2524" transform="translate(8.78 8.104)">
    <g id="Group_2523" data-name="Group 2523" transform="translate(0 0)">
      <path id="Path_5946" data-name="Path 5946" d="M1867.976,1754.509a2.46,2.46,0,0,1-.359.272,1.164,1.164,0,0,1-1.256-.2,2.337,2.337,0,0,0,2.269,1.116,2.847,2.847,0,0,0,.522-.053.693.693,0,0,0,.024-.167C1869.176,1754.995,1868.658,1754.59,1867.976,1754.509Z" transform="translate(-1866.361 -1754.509)" fill="#ff457d"/>
    </g>
  </g>
  <g id="Group_2526" data-name="Group 2526" transform="translate(8.635 7.358)">
    <g id="Group_2525" data-name="Group 2525" transform="translate(0 0)">
      <path id="Path_5947" data-name="Path 5947" d="M1849.342,1657.08a2.459,2.459,0,0,1-2.386-1.2.145.145,0,0,1,.228-.17c.01.008.586.489,1.085.182a2.969,2.969,0,0,0,.612-.523c.192-.2.343-.358.554-.371a.859.859,0,0,1,.549.267,2.24,2.24,0,0,0,.716.423.843.843,0,0,0,.976-.326l.028-.031a.146.146,0,0,1,.24.158,2.892,2.892,0,0,1-.6.8,2.836,2.836,0,0,1-1.99.8Zm-1.709-.826a2.613,2.613,0,0,0,1.725.534,2.538,2.538,0,0,0,1.866-.788,1.116,1.116,0,0,1-.615-.039,2.489,2.489,0,0,1-.807-.471c-.142-.113-.265-.21-.351-.2s-.213.127-.36.281a3.268,3.268,0,0,1-.67.571A1.013,1.013,0,0,1,1847.632,1656.255Z" transform="translate(-1846.943 -1654.996)" fill="#371a45"/>
    </g>
  </g>
  <g id="Group_2528" data-name="Group 2528" transform="translate(8.356 8.037)">
    <g id="Group_2527" data-name="Group 2527" transform="translate(0 0)">
      <path id="Path_5948" data-name="Path 5948" d="M1810.168,1748.612a.145.145,0,0,1-.093-.033.147.147,0,0,1-.018-.206c.223-.265.415-.5-.1-1.181a1.528,1.528,0,0,1,.062-1.663.146.146,0,0,1,.241.163h0a1.262,1.262,0,0,0-.07,1.326c.6.8.381,1.188.085,1.542A.145.145,0,0,1,1810.168,1748.612Z" transform="translate(-1809.727 -1745.465)" fill="#371a45"/>
    </g>
  </g>
  <g id="Group_2530" data-name="Group 2530" transform="translate(12.944 7.651)">
    <g id="Group_2529" data-name="Group 2529" transform="translate(0 0)">
      <path id="Path_5949" data-name="Path 5949" d="M2421.981,1696.873a.146.146,0,0,1-.113-.237,2.1,2.1,0,0,0,.55-1.489c0-.024,0-.048,0-.07a4.294,4.294,0,0,0-.163-.908.145.145,0,0,1,.279-.081,4.489,4.489,0,0,1,.176.994c0,.022,0,.044,0,.068a2.382,2.382,0,0,1-.614,1.668A.146.146,0,0,1,2421.981,1696.873Z" transform="translate(-2421.835 -1693.983)" fill="#371a45"/>
    </g>
  </g>
  <g id="Group_2532" data-name="Group 2532" transform="translate(8.63 7.727)">
    <g id="Group_2531" data-name="Group 2531" transform="translate(0 0)">
      <path id="Path_5950" data-name="Path 5950" d="M1847.406,1705.544a.15.15,0,0,1-.061-.013,2.19,2.19,0,0,1-.962-.885.146.146,0,0,1,.031-.176c.124-.111.548-.461.823-.323.147.074.234.285.281.687a5.411,5.411,0,0,1,.033.564.146.146,0,0,1-.146.145Zm-.7-.934a1.993,1.993,0,0,0,.55.539c0-.085-.011-.183-.023-.281-.047-.4-.124-.461-.125-.462C1847.061,1704.386,1846.88,1704.472,1846.7,1704.61Zm-.19-.031h0Z" transform="translate(-1846.367 -1704.116)" fill="#371a45"/>
    </g>
  </g>
  <g id="Group_2534" data-name="Group 2534" transform="translate(12.713 7.479)">
    <g id="Group_2533" data-name="Group 2533" transform="translate(0 0)">
      <path id="Path_5951" data-name="Path 5951" d="M2391.271,1672.286a.155.155,0,0,1-.048-.008.147.147,0,0,1-.094-.107c-.053-.244-.152-.833.068-1.023.254-.22.666.068.746.127a.146.146,0,0,1,.039.189,3.485,3.485,0,0,1-.619.788A.146.146,0,0,1,2391.271,1672.286Zm.156-.928a.06.06,0,0,0-.04.011.929.929,0,0,0-.018.468,4.044,4.044,0,0,0,.288-.4A.568.568,0,0,0,2391.428,1671.358Z" transform="translate(-2391.061 -1671.067)" fill="#371a45"/>
    </g>
  </g>
  <g id="Group_2536" data-name="Group 2536" transform="translate(7.333 9.427)">
    <g id="Group_2535" data-name="Group 2535" transform="translate(0 0)">
      <path id="Path_5952" data-name="Path 5952" d="M1673.269,1931.207a.206.206,0,1,1,.206.206A.206.206,0,0,1,1673.269,1931.207Z" transform="translate(-1673.269 -1931.001)" fill="#9b4b3b"/>
    </g>
  </g>
  <g id="Group_2538" data-name="Group 2538" transform="translate(11.506 10.025)">
    <g id="Group_2537" data-name="Group 2537" transform="translate(0 0)">
      <path id="Path_5953" data-name="Path 5953" d="M2230.08,2010.933a.206.206,0,1,1,.206.206A.206.206,0,0,1,2230.08,2010.933Z" transform="translate(-2230.08 -2010.728)" fill="#9b4b3b"/>
    </g>
  </g>
  <g id="Group_2540" data-name="Group 2540" transform="translate(3.585 0.327)">
    <g id="Group_2539" data-name="Group 2539" transform="translate(0 0)">
      <path id="Path_5954" data-name="Path 5954" d="M1176.046,718.68c.57,0,.475-.467.475-.467a1.685,1.685,0,0,0-.5-1.117,1.318,1.318,0,0,0-1.577.182c-1.524,1.143-1.59,3.708.047,3.708,1.419,0,1.162-2.77,1.162-2.77S1175.7,718.68,1176.046,718.68Z" transform="translate(-1173.283 -716.912)" fill="#fff"/>
    </g>
  </g>
  <g id="Group_2542" data-name="Group 2542" transform="translate(3.585 0.327)" opacity="0.6" style="mix-blend-mode: normal;isolation: isolate">
    <g id="Group_2541" data-name="Group 2541" transform="translate(0 0)">
      <path id="Path_5955" data-name="Path 5955" d="M1175.329,716.913a1.711,1.711,0,0,0-.9.365,2.988,2.988,0,0,0-1.143,1.989c.209-.437,1.181-2.29,2.728-2.164L1176,717.1A.988.988,0,0,0,1175.329,716.913Z" transform="translate(-1173.283 -716.91)" fill="#fff"/>
    </g>
  </g>
  <g id="Group_2544" data-name="Group 2544" transform="translate(3.441 0.183)">
    <g id="Group_2543" data-name="Group 2543" transform="translate(0 0)">
      <path id="Path_5956" data-name="Path 5956" d="M1157.369,699.069c-.092-.213-.161-.421-.254-.608a1.543,1.543,0,0,0-.161-.257,1,1,0,0,0-.1-.105l-.026-.025-.028-.021-.028-.021-.03-.018a.754.754,0,0,0-.275-.093,1.093,1.093,0,0,0-.3,0,1.536,1.536,0,0,0-.3.08l-.073.031-.036.016-.035.018-.071.037-.069.042c-.047.026-.089.06-.133.09s-.085.068-.128.1-.081.073-.122.109-.076.078-.115.117a2.841,2.841,0,0,0-.386.529,2.761,2.761,0,0,0-.366,1.247,1.81,1.81,0,0,0,.079.632,1.26,1.26,0,0,0,.128.28,1.029,1.029,0,0,0,.09.12.923.923,0,0,0,.105.105c.019.016.04.029.059.044l.03.022.032.018.065.036.069.028.035.014.036.01.073.02.076.012a.48.48,0,0,0,.076.009,1.02,1.02,0,0,0,.153,0c.024,0,.05,0,.073-.006l.071-.014a.723.723,0,0,0,.258-.121.962.962,0,0,0,.2-.216,1.554,1.554,0,0,0,.147-.277c.011-.024.02-.05.029-.075s.019-.05.027-.076c.016-.052.033-.1.046-.157.029-.106.049-.215.068-.324s.032-.221.041-.332.01-.224.01-.337.005-.225.016-.338a1.329,1.329,0,0,1,.076-.343v0a.053.053,0,0,1,.1-.007.955.955,0,0,1,.11.346,1.886,1.886,0,0,1,.012.353c-.006.118-.02.235-.03.353s-.026.235-.044.353-.042.235-.073.351c-.014.059-.033.116-.051.175-.009.029-.02.057-.031.086s-.021.057-.034.086a1.819,1.819,0,0,1-.177.331,1.259,1.259,0,0,1-.269.284,1.013,1.013,0,0,1-.363.17l-.1.019c-.033.006-.066.005-.1.008a1.341,1.341,0,0,1-.192,0,.706.706,0,0,1-.095-.011l-.095-.015-.094-.026-.047-.013-.046-.018-.091-.037-.086-.047-.043-.024-.04-.029c-.026-.02-.054-.038-.079-.059a1.343,1.343,0,0,1-.256-.294c-.017-.027-.032-.056-.047-.083a.765.765,0,0,1-.043-.085l-.038-.087c-.011-.03-.02-.06-.03-.089a2.1,2.1,0,0,1-.093-.732,3.054,3.054,0,0,1,.4-1.38,2.976,2.976,0,0,1,.985-1.05l.079-.048.083-.043.041-.021.042-.019.086-.037a1.834,1.834,0,0,1,.365-.1,1.281,1.281,0,0,1,.764.116l.045.024.044.028c.014.01.029.019.042.029l.039.032a1.159,1.159,0,0,1,.142.141,1.388,1.388,0,0,1,.288.692c0,.03.005.061.007.092s0,.061,0,.092a.833.833,0,0,1-.025.184.051.051,0,0,1-.1.008Z" transform="translate(-1154.036 -697.621)" fill="#371a45"/>
    </g>
  </g>
  <g id="Group_2549" data-name="Group 2549" transform="translate(8.63 7.727)">
    <g id="Group_2546" data-name="Group 2546" transform="translate(0.146 0.145)">
      <g id="Group_2545" data-name="Group 2545">
        <path id="Path_5957" data-name="Path 5957" d="M1865.783,1723.74a2.056,2.056,0,0,0,.894.819,5.341,5.341,0,0,0-.031-.547c-.03-.256-.088-.517-.2-.573C1866.236,1723.334,1865.783,1723.74,1865.783,1723.74Z" transform="translate(-1865.783 -1723.421)" fill="#fff"/>
      </g>
    </g>
    <g id="Group_2548" data-name="Group 2548" transform="translate(0 0)">
      <g id="Group_2547" data-name="Group 2547">
        <path id="Path_5958" data-name="Path 5958" d="M1847.406,1705.544a.15.15,0,0,1-.061-.013,2.19,2.19,0,0,1-.962-.885.146.146,0,0,1,.031-.176c.124-.111.548-.461.823-.323.147.074.234.285.281.687a5.411,5.411,0,0,1,.033.564.146.146,0,0,1-.146.145Zm-.7-.934a1.993,1.993,0,0,0,.55.539c0-.085-.011-.183-.023-.281-.047-.4-.124-.461-.125-.462C1847.061,1704.386,1846.88,1704.472,1846.7,1704.61Zm-.19-.031h0Z" transform="translate(-1846.367 -1704.116)" fill="#371a45"/>
      </g>
    </g>
  </g>
  <g id="Group_2554" data-name="Group 2554" transform="translate(12.713 7.479)">
    <g id="Group_2551" data-name="Group 2551" transform="translate(0.147 0.146)">
      <g id="Group_2550" data-name="Group 2550">
        <path id="Path_5959" data-name="Path 5959" d="M2411.281,1690.754a3.387,3.387,0,0,1-.584.748s-.157-.728.021-.882S2411.281,1690.754,2411.281,1690.754Z" transform="translate(-2410.632 -1690.575)" fill="#fff"/>
      </g>
    </g>
    <g id="Group_2553" data-name="Group 2553" transform="translate(0 0)">
      <g id="Group_2552" data-name="Group 2552">
        <path id="Path_5960" data-name="Path 5960" d="M2391.271,1672.286a.155.155,0,0,1-.048-.008.147.147,0,0,1-.094-.107c-.053-.244-.152-.833.068-1.023.254-.22.666.068.746.127a.146.146,0,0,1,.039.189,3.485,3.485,0,0,1-.619.788A.146.146,0,0,1,2391.271,1672.286Zm.156-.928a.06.06,0,0,0-.04.011.929.929,0,0,0-.018.468,4.044,4.044,0,0,0,.288-.4A.568.568,0,0,0,2391.428,1671.358Z" transform="translate(-2391.061 -1671.067)" fill="#371a45"/>
      </g>
    </g>
  </g>
  <g id="Group_2556" data-name="Group 2556" transform="translate(3.585 1.125)" opacity="0.2" style="mix-blend-mode: normal;isolation: isolate">
    <g id="Group_2555" data-name="Group 2555" transform="translate(0 0)">
      <path id="Path_5961" data-name="Path 5961" d="M1175.621,823.371c-.5.029-.167,2.518-1.408,2.35-.813-.11-.512-1.411-.207-2.3-.91,1.056-.978,2.67-.1,3.151a1.44,1.44,0,0,0,1.189-.119c.03-.018.056-.041.084-.06a4.145,4.145,0,0,0,.472-2.447s.025.861.346.455C1176.085,824.286,1175.843,823.358,1175.621,823.371Z" transform="translate(-1173.284 -823.371)" fill="#371a45"/>
    </g>
  </g>
  <g id="Group_2558" data-name="Group 2558" transform="translate(4.589 10.025)" opacity="0.2" style="mix-blend-mode: normal;isolation: isolate">
    <g id="Group_2557" data-name="Group 2557" transform="translate(0 0)">
      <path id="Path_5962" data-name="Path 5962" d="M1307.216,2010.728c.013.015,3.39,3.718,5.461,3.7,1.355-.01,3-1.453,3.805-2.811-.954.922-2.421,2.1-3.762,2.176C1310.617,2013.912,1307.3,2010.806,1307.216,2010.728Z" transform="translate(-1307.216 -2010.728)" fill="#371a45"/>
    </g>
  </g>
  <g id="Group_2560" data-name="Group 2560" transform="translate(6.886 9.095)" opacity="0.2" style="mix-blend-mode: normal;isolation: isolate">
    <g id="Group_2559" data-name="Group 2559" transform="translate(0)">
      <path id="Path_5963" data-name="Path 5963" d="M1621.513,1886.739a1.107,1.107,0,0,1-1.032.4,3.941,3.941,0,0,1-4.707.667c-1.2.735-1.766-.295-2-.963a4.463,4.463,0,0,0-.07,1.435c.031-.018.066-.032.1-.052a1.407,1.407,0,0,0,1.785.529s2.845,1.118,4.3-.648c0,0,.785.531,1.492-.666l.007-.006A1.966,1.966,0,0,0,1621.513,1886.739Z" transform="translate(-1613.678 -1886.739)" fill="#371a45"/>
    </g>
  </g>
  <g id="Group_2572" data-name="Group 2572" transform="translate(9.911 13.546)" opacity="0.6" style="mix-blend-mode: normal;isolation: isolate">
    <g id="Group_2571" data-name="Group 2571" transform="translate(0 0)">
      <path id="Path_5969" data-name="Path 5969" d="M2021.867,2480.5a12.025,12.025,0,0,0-1.473.094l.288.305a8.234,8.234,0,0,1,.921-.044c2.533.025,4.136.647,4.824,1.475v-.191C2026.427,2481.233,2024.386,2480.5,2021.867,2480.5Zm-3.264.494c-.8.3-1.3.7-1.3,1.144v.085a5.625,5.625,0,0,1,2-1.054Z" transform="translate(-2017.307 -2480.5)" fill="#fff"/>
    </g>
  </g>
  <g id="Group_2574" data-name="Group 2574" transform="translate(12.69 13.49)">
    <g id="Group_2573" data-name="Group 2573" transform="translate(0 0)">
      <path id="Path_5970" data-name="Path 5970" d="M2389.361,2474.385a.152.152,0,0,1-.034,0l-1.219-.3a.144.144,0,0,1-.107-.17l.165-.806a.144.144,0,0,1,.1-.111.146.146,0,0,1,.146.04l1.052,1.108a.146.146,0,0,1-.106.246Zm-1.047-.555.6.148-.518-.544Z" transform="translate(-2387.998 -2472.986)" fill="#371a45"/>
    </g>
  </g>
  <g id="Group_2582" data-name="Group 2582" transform="translate(9.759 14.545)">
    <g id="Group_2581" data-name="Group 2581">
      <path id="Path_5974" data-name="Path 5974" d="M1997.91,2615.437a2.017,2.017,0,0,1-.442-.2,1.5,1.5,0,0,1-.2-.146,1.079,1.079,0,0,1-.178-.19.8.8,0,0,1-.125-.249.717.717,0,0,1-.025-.291.725.725,0,0,1,.033-.142.735.735,0,0,1,.058-.131.879.879,0,0,1,.167-.213.146.146,0,0,1,.219.191l0,0a.851.851,0,0,0-.162.339.557.557,0,0,0,.06.355,1.318,1.318,0,0,0,.264.337,4.018,4.018,0,0,0,.356.3.02.02,0,0,1,0,.029A.021.021,0,0,1,1997.91,2615.437Z" transform="translate(-1996.93 -2613.84)" fill="#371a45"/>
    </g>
  </g>
  <g id="Group_2587" data-name="Group 2587" transform="translate(12.69 13.49)">
    <g id="Group_2584" data-name="Group 2584" transform="translate(0.146 0.146)">
      <g id="Group_2583" data-name="Group 2583">
        <path id="Path_5975" data-name="Path 5975" d="M2407.418,2493.214l1.218.3-1.053-1.107Z" transform="translate(-2407.418 -2492.408)" fill="#6bc105"/>
      </g>
    </g>
    <g id="Group_2586" data-name="Group 2586" transform="translate(0 0)">
      <g id="Group_2585" data-name="Group 2585">
        <path id="Path_5976" data-name="Path 5976" d="M2389.361,2474.385a.152.152,0,0,1-.034,0l-1.219-.3a.144.144,0,0,1-.107-.17l.165-.806a.144.144,0,0,1,.1-.111.146.146,0,0,1,.146.04l1.052,1.108a.146.146,0,0,1-.106.246Zm-1.047-.555.6.148-.518-.544Z" transform="translate(-2387.998 -2472.986)" fill="#371a45"/>
      </g>
    </g>
  </g>
  <g id="Group_2592" data-name="Group 2592" transform="translate(14.15 8.794)">
    <g id="Group_2589" data-name="Group 2589" transform="translate(0.019 0.019)">
      <g id="Group_2588" data-name="Group 2588">
        <path id="Path_5977" data-name="Path 5977" d="M2585.25,1849.07a.051.051,0,1,1,.05.051A.05.05,0,0,1,2585.25,1849.07Z" transform="translate(-2585.25 -1849.02)" fill="#a15a48"/>
      </g>
    </g>
    <g id="Group_2591" data-name="Group 2591" transform="translate(0)">
      <g id="Group_2590" data-name="Group 2590">
        <path id="Path_5978" data-name="Path 5978" d="M2582.817,1846.658a.069.069,0,1,1,.07-.069A.07.07,0,0,1,2582.817,1846.658Zm0-.1a.032.032,0,1,0,.032.032A.032.032,0,0,0,2582.817,1846.557Z" transform="translate(-2582.748 -1846.52)" fill="#371a45"/>
      </g>
    </g>
  </g>
  <g id="Group_2594" data-name="Group 2594" transform="translate(14.137 8.781)">
    <g id="Group_2593" data-name="Group 2593" transform="translate(0)">
      <path id="Path_5979" data-name="Path 5979" d="M2581.012,1844.864a.082.082,0,1,1,.082.082A.082.082,0,0,1,2581.012,1844.864Z" transform="translate(-2581.012 -1844.782)" fill="#9b4b3b"/>
    </g>
  </g>
  <g id="Group_2600" data-name="Group 2600" transform="translate(12.473 4.417)">
    <g id="Group_2597" data-name="Group 2597" transform="translate(0 0)">
      <g id="Group_2595" data-name="Group 2595" transform="translate(0.018 0.018)">
        <ellipse id="Ellipse_354" data-name="Ellipse 354" cx="0.634" cy="1.049" rx="0.634" ry="1.049" transform="translate(0 0.002) rotate(-0.099)" fill="#371a45"/>
      </g>
      <g id="Group_2596" data-name="Group 2596">
        <path id="Path_5980" data-name="Path 5980" d="M2359.676,1264.687a.564.564,0,0,1-.465-.316,1.468,1.468,0,0,1-.19-.751h0a1.464,1.464,0,0,1,.188-.752.563.563,0,0,1,.464-.317h0c.361,0,.654.478.655,1.067s-.291,1.069-.652,1.07Zm0-2.1h0a.527.527,0,0,0-.431.3,1.439,1.439,0,0,0-.182.732h0a1.43,1.43,0,0,0,.185.731.527.527,0,0,0,.431.3h0c.339,0,.614-.463.613-1.03S2360.013,1262.59,2359.674,1262.59Z" transform="translate(-2359.021 -1262.551)" fill="#371a45"/>
      </g>
    </g>
    <g id="Group_2599" data-name="Group 2599" transform="translate(0.3 0.959)">
      <g id="Group_2598" data-name="Group 2598" transform="translate(0 0)">
        <ellipse id="Ellipse_355" data-name="Ellipse 355" cx="0.192" cy="0.352" rx="0.192" ry="0.352" transform="matrix(1, -0.002, 0.002, 1, 0, 0.001)" fill="#fff"/>
      </g>
    </g>
  </g>
  <g id="Group_2606" data-name="Group 2606" transform="translate(7.269 4.817)">
    <g id="Group_2603" data-name="Group 2603" transform="translate(0 0)">
      <g id="Group_2601" data-name="Group 2601" transform="translate(0)">
        <ellipse id="Ellipse_356" data-name="Ellipse 356" cx="0.646" cy="1.068" rx="0.646" ry="1.068" transform="translate(0 0.063) rotate(-2.798)" fill="#371a45"/>
      </g>
      <g id="Group_2602" data-name="Group 2602" transform="translate(0.03 0.011)">
        <path id="Path_5981" data-name="Path 5981" d="M1669.448,1319.62c-.358,0-.669-.466-.7-1.054s.245-1.1.611-1.119.689.455.719,1.054h0c.029.6-.245,1.1-.612,1.119Zm-.065-2.134h-.019c-.345.017-.6.5-.575,1.077s.333,1.033.677,1.016.6-.5.575-1.078h0C1670.012,1317.936,1669.719,1317.486,1669.382,1317.486Z" transform="translate(-1668.748 -1317.446)" fill="#371a45"/>
      </g>
    </g>
    <g id="Group_2605" data-name="Group 2605" transform="translate(0.662 0.97)">
      <g id="Group_2604" data-name="Group 2604" transform="translate(0 0)">
        <ellipse id="Ellipse_357" data-name="Ellipse 357" cx="0.195" cy="0.359" rx="0.195" ry="0.359" transform="matrix(0.999, -0.049, 0.049, 0.999, 0, 0.019)" fill="#fff"/>
      </g>
    </g>
  </g>
  <g id="Group_2609" data-name="Group 2609" transform="translate(15.396 15.207)">
    <g id="Group_2607" data-name="Group 2607" transform="translate(0.112 0.112)">
      <path id="Path_5982" data-name="Path 5982" d="M2764.09,2717.376a.289.289,0,1,1,.289.288A.289.289,0,0,1,2764.09,2717.376Z" transform="translate(-2764.09 -2717.088)" fill="#ff456d"/>
    </g>
    <g id="Group_2608" data-name="Group 2608" transform="translate(0 0)">
      <path id="Path_5983" data-name="Path 5983" d="M2749.492,2702.887a.4.4,0,1,1,.4-.4A.4.4,0,0,1,2749.492,2702.887Zm0-.577a.176.176,0,1,0,.175.176A.176.176,0,0,0,2749.492,2702.311Z" transform="translate(-2749.092 -2702.086)" fill="#371a45"/>
    </g>
  </g>
  <g id="Group_2612" data-name="Group 2612" transform="translate(16.723 14.63)">
    <g id="Group_2610" data-name="Group 2610" transform="translate(0.112 0.112)">
      <path id="Path_5984" data-name="Path 5984" d="M2941.058,2640.458a.288.288,0,1,1,.288.289A.288.288,0,0,1,2941.058,2640.458Z" transform="translate(-2941.058 -2640.17)" fill="#ff456d"/>
    </g>
    <g id="Group_2611" data-name="Group 2611" transform="translate(0)">
      <path id="Path_5985" data-name="Path 5985" d="M2926.459,2625.971a.4.4,0,1,1,.4-.4A.4.4,0,0,1,2926.459,2625.971Zm0-.577a.176.176,0,1,0,.176.176A.176.176,0,0,0,2926.459,2625.395Z" transform="translate(-2926.058 -2625.17)" fill="#371a45"/>
    </g>
  </g>
  <g id="Group_2615" data-name="Group 2615" transform="translate(15.685 14.076)">
    <g id="Group_2613" data-name="Group 2613" transform="translate(0.112 0.112)">
      <path id="Path_5986" data-name="Path 5986" d="M2802.545,2566.581a.288.288,0,1,1,.288.288A.288.288,0,0,1,2802.545,2566.581Z" transform="translate(-2802.545 -2566.293)" fill="#ff456d"/>
    </g>
    <g id="Group_2614" data-name="Group 2614" transform="translate(0 0)">
      <path id="Path_5987" data-name="Path 5987" d="M2787.943,2552.092a.4.4,0,1,1,.4-.4A.4.4,0,0,1,2787.943,2552.092Zm0-.577a.176.176,0,1,0,.176.176A.176.176,0,0,0,2787.943,2551.515Z" transform="translate(-2787.543 -2551.291)" fill="#371a45"/>
    </g>
  </g>
  <g id="Group_2618" data-name="Group 2618" transform="translate(14.272 13.874)">
    <g id="Group_2616" data-name="Group 2616" transform="translate(0.112 0.112)">
      <path id="Path_5988" data-name="Path 5988" d="M2614.088,2539.607a.288.288,0,1,1,.289.288A.289.289,0,0,1,2614.088,2539.607Z" transform="translate(-2614.088 -2539.318)" fill="#ff456d"/>
    </g>
    <g id="Group_2617" data-name="Group 2617" transform="translate(0)">
      <path id="Path_5989" data-name="Path 5989" d="M2599.492,2525.122a.4.4,0,1,1,.4-.4A.4.4,0,0,1,2599.492,2525.122Zm0-.576a.176.176,0,1,0,.176.176A.176.176,0,0,0,2599.492,2524.545Z" transform="translate(-2599.092 -2524.32)" fill="#371a45"/>
    </g>
  </g>
  <g id="Group_2621" data-name="Group 2621" transform="translate(13.542 15.349)">
    <g id="Group_2619" data-name="Group 2619" transform="translate(0.112 0.112)">
      <path id="Path_5990" data-name="Path 5990" d="M2516.709,2736.38a.288.288,0,1,1,.289.289A.289.289,0,0,1,2516.709,2736.38Z" transform="translate(-2516.709 -2736.092)" fill="#ff456d"/>
    </g>
    <g id="Group_2620" data-name="Group 2620" transform="translate(0 0)">
      <path id="Path_5991" data-name="Path 5991" d="M2502.109,2721.895a.4.4,0,1,1,.4-.4A.4.4,0,0,1,2502.109,2721.895Zm0-.576a.176.176,0,1,0,.176.176A.176.176,0,0,0,2502.109,2721.319Z" transform="translate(-2501.709 -2721.094)" fill="#371a45"/>
    </g>
  </g>
  <g id="Group_2624" data-name="Group 2624" transform="translate(12.009 14.773)">
    <g id="Group_2622" data-name="Group 2622" transform="translate(0.112 0.112)">
      <path id="Path_5992" data-name="Path 5992" d="M2312.158,2659.468a.288.288,0,1,1,.288.288A.288.288,0,0,1,2312.158,2659.468Z" transform="translate(-2312.158 -2659.18)" fill="#ff456d"/>
    </g>
    <g id="Group_2623" data-name="Group 2623" transform="translate(0 0)">
      <path id="Path_5993" data-name="Path 5993" d="M2297.559,2644.98a.4.4,0,1,1,.4-.4A.4.4,0,0,1,2297.559,2644.98Zm0-.578a.176.176,0,1,0,.176.177A.177.177,0,0,0,2297.559,2644.4Z" transform="translate(-2297.158 -2644.178)" fill="#371a45"/>
    </g>
  </g>
</svg>
