<svg xmlns="http://www.w3.org/2000/svg" width="11.184" height="20.299" viewBox="0 0 11.184 20.299">
  <g id="Group_2422" data-name="Group 2422" transform="translate(-8.68)">
    <path id="Path_5889" data-name="Path 5889" d="M16.752,4.582H11.788a2.291,2.291,0,0,1,0-4.582H16.76a2.291,2.291,0,0,1-.008,4.582ZM11.788,1.245a1.039,1.039,0,0,0,0,2.07H16.76a1.039,1.039,0,0,0,0-2.07Zm-1.245,9.111a1.863,1.863,0,1,1,1.863-1.863,1.863,1.863,0,0,1-1.863,1.863Zm0-2.482a.619.619,0,1,0,.619.619A.626.626,0,0,0,10.543,7.874Z" fill="#222f3e"/>
    <path id="Path_5890" data-name="Path 5890" d="M10.543,23.891a1.863,1.863,0,1,1,1.863-1.863A1.863,1.863,0,0,1,10.543,23.891Zm0-2.482a.619.619,0,1,0,.619.619.626.626,0,0,0-.619-.626Zm0-2.482a1.86,1.86,0,1,0,0-.008Zm0-2.482a.619.619,0,1,0,.619.619.626.626,0,0,0-.619-.634Z" transform="translate(0 -3.592)" fill="#6bc105"/>
    <path id="Path_5891" data-name="Path 5891" d="M20.779,11.545H15.807a.622.622,0,1,1,0-1.245h4.972a.622.622,0,1,1,0,1.245Z" transform="translate(-1.537 -2.434)" fill="#222f3e"/>
    <path id="Path_5892" data-name="Path 5892" d="M20.779,23.026H15.807a.622.622,0,1,1,0-1.245h4.972a.622.622,0,1,1,0,1.245Zm0-4.972H15.807a.622.622,0,1,1,0-1.245h4.972a.622.622,0,0,1,0,1.245Z" transform="translate(-1.537 -3.972)" fill="#6bc105"/>
  </g>
</svg>
