<svg xmlns="http://www.w3.org/2000/svg" width="15.617" height="15.739" viewBox="0 0 15.617 15.739">
  <g id="Group_2656" data-name="Group 2656" transform="translate(-44.617 -422.13)">
    <g id="video_content" data-name="video content" transform="translate(26.037 403.922)">
      <path id="Path_5893" data-name="Path 5893" d="M30.83,27.766a1.086,1.086,0,1,0,1.086-1.086A1.086,1.086,0,0,0,30.83,27.766Zm1.657,0a.571.571,0,1,1-.571-.571A.571.571,0,0,1,32.487,27.766Zm6.46,0a1.086,1.086,0,1,0-1.086,1.086,1.086,1.086,0,0,0,1.086-1.086Zm-1.657,0a.571.571,0,1,1,.571.571.571.571,0,0,1-.571-.571Z" transform="translate(-10.144 -7.015)" fill="#222f3e"/>
      <path id="Path_5894" data-name="Path 5894" d="M34.056,23.766a.258.258,0,0,0-.266.015L30.7,25.908V24.1a1.291,1.291,0,0,0-1.289-1.289h-.223a2.532,2.532,0,1,0-3.739-.932.258.258,0,0,0,.461-.23,2,2,0,0,1-.208-.9,2.02,2.02,0,1,1,.646,1.48.258.258,0,0,0-.344.378,2.542,2.542,0,0,0,.244.2h-3a2.532,2.532,0,0,0,1.066-2.063.258.258,0,0,0-.516,0,2.018,2.018,0,1,1-.21-.9.258.258,0,1,0,.462-.229,2.535,2.535,0,1,0-3.74,3.187h-.435A1.291,1.291,0,0,0,18.58,24.1v6.188a1.291,1.291,0,0,0,1.289,1.289h.608l1.4,2.245a.258.258,0,0,0,.218.122h.019a.258.258,0,0,0,.218-.153l.964-2.214h6.116A1.291,1.291,0,0,0,30.7,30.291V28.839l3.094,2.116a.258.258,0,0,0,.4-.213V23.995A.258.258,0,0,0,34.056,23.766Zm-3.873,6.523a.774.774,0,0,1-.774.774H23.132a.258.258,0,0,0-.235.155l-.842,1.918L20.84,31.185a.258.258,0,0,0-.218-.12h-.753a.774.774,0,0,1-.774-.774V24.1a.774.774,0,0,1,.774-.774h9.54a.774.774,0,0,1,.774.774v6.188Zm3.495-.036L30.7,28.215v-1.69l2.979-2.04Z" transform="translate(0 0)" fill="#222f3e"/>
      <path id="Path_5895" data-name="Path 5895" d="M52.412,65.445h-2.35a.258.258,0,1,0,0,.516h2.35a.258.258,0,1,0,0-.516Zm1.36,0H53.3a.258.258,0,1,0,0,.516h.473a.258.258,0,1,0,0-.516ZM50.9,62.607a.258.258,0,0,0-.129-.223l-2.382-1.375a.258.258,0,0,0-.392.223v2.75a.258.258,0,0,0,.387.223l2.382-1.375A.258.258,0,0,0,50.9,62.607Zm-2.388.928V61.679l1.609.928Z" transform="translate(-24.363 -35.412)" fill="#222f3e"/>
    </g>
    <g id="video_content-2" data-name="video content" transform="translate(26.037 403.922)">
      <path id="Path_5893-2" data-name="Path 5893" d="M30.83,27.766a1.086,1.086,0,1,0,1.086-1.086A1.086,1.086,0,0,0,30.83,27.766Zm1.657,0a.571.571,0,1,1-.571-.571A.571.571,0,0,1,32.487,27.766Zm6.46,0a1.086,1.086,0,1,0-1.086,1.086,1.086,1.086,0,0,0,1.086-1.086Zm-1.657,0a.571.571,0,1,1,.571.571.571.571,0,0,1-.571-.571Z" transform="translate(-10.144 -7.015)" fill="#6bc105"/>
      <path id="Path_5895-2" data-name="Path 5895" d="M52.412,65.445h-2.35a.258.258,0,1,0,0,.516h2.35a.258.258,0,1,0,0-.516Zm1.36,0H53.3a.258.258,0,1,0,0,.516h.473a.258.258,0,1,0,0-.516ZM50.9,62.607a.258.258,0,0,0-.129-.223l-2.382-1.375a.258.258,0,0,0-.392.223v2.75a.258.258,0,0,0,.387.223l2.382-1.375A.258.258,0,0,0,50.9,62.607Zm-2.388.928V61.679l1.609.928Z" transform="translate(-24.363 -35.412)" fill="#6bc105"/>
    </g>
  </g>
</svg>
