<svg xmlns="http://www.w3.org/2000/svg" xmlns:xlink="http://www.w3.org/1999/xlink" width="44.346" height="40.606" viewBox="0 0 44.346 40.606">
  <defs>
    <filter id="Path_12667" x="0" y="1.38" width="44.346" height="39.226" filterUnits="userSpaceOnUse">
      <feOffset dy="3" input="SourceAlpha"/>
      <feGaussianBlur stdDeviation="4" result="blur"/>
      <feFlood flood-opacity="0.482"/>
      <feComposite operator="in" in2="blur"/>
      <feComposite in="SourceGraphic"/>
    </filter>
  </defs>
  <g id="Group_13885" data-name="Group 13885" transform="translate(-307.319 -732)">
    <g id="Rectangle_85371" data-name="Rectangle 85371" transform="translate(310 732)" fill="#6bc100" stroke="#579e00" stroke-width="1">
      <rect width="37" height="37" rx="4" stroke="none"/>
      <rect x="0.5" y="0.5" width="36" height="36" rx="3.5" fill="none"/>
    </g>
    <g transform="matrix(1, 0, 0, 1, 307.32, 732)" filter="url(#Path_12667)">
      <path id="Path_12667-2" data-name="Path 12667" d="M19.692,10.956,1.78,4.558A.957.957,0,0,0,.571,5.819L2.438,10.5a.64.64,0,0,0,.594.4H7.96a.96.96,0,0,1,0,1.919H3.032a.64.64,0,0,0-.594.4L.571,17.9a.959.959,0,0,0,.889,1.318.912.912,0,0,0,.32-.058l17.912-6.4a.956.956,0,0,0,0-1.8Z" transform="translate(11.76 6.14)" fill="#fff" stroke="#518410" stroke-width="0.5"/>
    </g>
  </g>
</svg>
